<?xml version="1.0" encoding="utf-8"?>
<!-- Generator: Adobe Illustrator 16.0.0, SVG Export Plug-In . SVG Version: 6.00 Build 0)  -->
<!DOCTYPE svg PUBLIC "-//W3C//DTD SVG 1.1//EN" "http://www.w3.org/Graphics/SVG/1.1/DTD/svg11.dtd">
<svg version="1.1" id="Layer_1" xmlns="http://www.w3.org/2000/svg" xmlns:xlink="http://www.w3.org/1999/xlink" x="0px" y="0px"
	 width="635.307px" height="614.517px" viewBox="0 0 635.307 614.517" enable-background="new 0 0 635.307 614.517"
	 xml:space="preserve">
<g opacity="0.1">
	<g>
		<path fill="#F05123" d="M125.237,172.154c46.222,11.118,93.817,23.534,141.744,21.193c14.808-0.723,29.904-2.349,44.23-6.281
			c13.809-3.79,27.105-10.075,40.004-16.1c15.508-7.245,30.16-16.195,45.911-22.939c-5.972,2.521-11.944,5.041-17.916,7.561
			c8.426-3.518,17.062-6.319,26.123-7.608c-6.646,0.893-13.292,1.786-19.938,2.679c4.725-0.58,9.415-0.728,14.165-0.387
			c19.098,1.369,39.855-8.789,53.033-21.967c14.002-14.002,21.967-33.221,21.967-53.033s-7.965-39.031-21.967-53.033
			c-5.06-3.909-10.119-7.818-15.18-11.727c-11.697-6.785-24.315-10.198-37.854-10.24c-29.702-2.129-57.205,8.592-83.557,20.632
			c-16.048,7.333-31.115,16.628-47.333,23.614c5.972-2.52,11.944-5.04,17.916-7.561c-9.025,3.794-18.289,6.79-28.016,8.099
			c6.646-0.893,13.292-1.786,19.938-2.679c-18.391,2.024-36.81,1.336-55.135-1.017c6.646,0.893,13.292,1.786,19.938,2.679
			c-26.451-3.56-52.289-10.295-78.199-16.527c-19.806-4.764-40.015-2.853-57.792,7.561c-16.766,9.821-29.31,26.075-34.467,44.822
			C62.285,118.318,85.496,162.595,125.237,172.154L125.237,172.154z"/>
	</g>
</g>
<g opacity="0.1">
	<g>
		<path fill="#F05123" d="M97.167,186.189c5.762,1.059,11.318,2.684,16.75,4.876c-5.972-2.52-11.944-5.04-17.916-7.561
			c7.889,3.343,15.145,7.748,21.97,12.912c-5.06-3.909-10.119-7.818-15.179-11.728c19.701,15.27,34.499,35.496,50.753,54.142
			c-3.909-5.06-7.818-10.12-11.727-15.179c25.393,33.655,36.766,74.473,57.895,110.526c20.636,35.213,67.318,47.582,102.614,26.906
			c35.212-20.627,47.586-67.327,26.906-102.614c-11.345-19.359-19.785-40.071-29.019-60.467
			c-11.739-25.931-26.591-48.713-45.1-70.462c-12.102-14.22-23.661-28.942-37.481-41.576
			c-22.444-20.517-50.158-38.825-80.592-44.417c-6.646-0.893-13.292-1.786-19.938-2.679c-13.538,0.042-26.156,3.455-37.854,10.24
			c-16.766,9.821-29.31,26.075-34.467,44.822c-5.325,19.358-2.586,40.471,7.561,57.792C61.458,167.281,78.834,182.82,97.167,186.189
			L97.167,186.189z"/>
	</g>
</g>
<g opacity="0.1">
	<g>
		<path fill="#F05123" d="M378.9,400.473c8.815-28.188,3.724-55.619-0.093-83.944c0.893,6.646,1.786,13.292,2.679,19.938
			c-1.153-8.656-2.274-17.361-1.661-26.107c-0.893,6.646-1.786,13.292-2.679,19.938c2.624-18.785,8.624-36.725,15.901-54.179
			c-2.521,5.972-5.041,11.944-7.562,17.916c12.735-30.167,27.726-59.144,47.649-85.239c-3.908,5.06-7.817,10.12-11.727,15.179
			c8.455-10.937,17.624-21.259,27.677-30.756c29.716-28.073,28.279-77.786,0-106.066c-14.002-14.001-33.222-21.967-53.033-21.967
			c-20.287,0-38.448,8.188-53.033,21.967c-18.044,17.047-33.47,36.973-47.676,57.244c-11.321,16.155-20.997,33.452-29.306,51.331
			c-10.767,23.166-21.571,46.701-28.621,71.309c-4.329,15.11-7.445,32.154-7.788,47.625c-0.329,14.813,3.036,30.635,4.976,45.002
			c-0.893-6.646-1.786-13.292-2.679-19.938c1.426,10.625,2.806,21.334,1.596,32.051c0.893-6.646,1.786-13.292,2.679-19.938
			c-0.421,2.989-1.041,5.88-1.942,8.763c-12.202,39.016,14.01,81.703,52.383,92.259c19.358,5.324,40.471,2.586,57.792-7.561
			C361.679,435.193,373.001,419.333,378.9,400.473L378.9,400.473z"/>
	</g>
</g>
<g opacity="0.1">
	<g>
		<path fill="#F05123" d="M392.152,55.333c-2.717,6.443-4.724,13.043-5.995,19.92c-2.283,12.363-4.226,25.377-3.939,38.071
			c0.443,19.637,4.063,40.102,11.161,58.514c7.311,18.962,15.652,37.063,26.579,54.166c10.68,16.716,23.155,32.309,35.343,47.915
			c5.06,3.909,10.119,7.818,15.18,11.727c11.697,6.784,24.315,10.198,37.854,10.24c19.812,0,39.031-7.965,53.033-21.967
			c14.002-14.002,21.967-33.221,21.967-53.033c-0.894-6.646-1.786-13.292-2.679-19.938c-3.563-12.706-9.993-23.737-19.288-33.095
			c-1.003-1.284-2.003-2.57-3.001-3.859c3.91,5.06,7.818,10.119,11.728,15.179c-14.854-19.291-28.844-39.482-38.369-62
			c2.521,5.972,5.04,11.944,7.561,17.916c-4.225-10.285-7.39-20.879-8.938-31.905c0.893,6.646,1.786,13.292,2.679,19.938
			c-1.021-8.218-1.09-16.399-0.06-24.621c-0.893,6.646-1.786,13.292-2.679,19.938c1.166-8.042,3.351-15.744,6.508-23.229
			c0.893-6.646,1.786-13.292,2.679-19.938c-0.042-13.538-3.455-26.156-10.239-37.854c-9.821-16.766-26.076-29.31-44.823-34.467
			c-19.357-5.325-40.47-2.586-57.791,7.561c-5.061,3.909-10.12,7.818-15.18,11.727C402.145,31.597,395.715,42.628,392.152,55.333
			L392.152,55.333z"/>
	</g>
</g>
<g opacity="0.1">
	<g>
		<path fill="#F05123" d="M364.625,100.575c-17.917,32.356-15.647,70.073-4.254,104.173c7.81,23.371,18.164,46.657,30.569,68.027
			c20.492,35.3,67.429,47.518,102.614,26.906c35.32-20.69,47.439-67.243,26.907-102.614c-6.368-10.97-11.954-22.403-16.898-34.08
			c2.521,5.972,5.041,11.944,7.561,17.916c-5.366-12.841-10.146-26.176-12.046-40.022c0.894,6.646,1.786,13.292,2.68,19.938
			c-0.548-4.469-0.758-8.931-0.227-13.412c-0.894,6.646-1.786,13.292-2.68,19.938c0.344-2.344,0.885-4.587,1.765-6.79
			c-2.521,5.972-5.041,11.944-7.561,17.916c0.335-0.75,0.692-1.47,1.091-2.188c19.809-35.773,8.944-81.613-26.907-102.614
			C432.596,53.375,384.404,64.858,364.625,100.575L364.625,100.575z"/>
	</g>
</g>
<g opacity="0.1">
	<g>
		<path fill="#F05123" d="M261.404,103.342c-3.725,28.036-1.057,56.627,4.58,84.242c3.377,16.55,10.165,32.363,17.351,47.542
			c2.353,4.971,5.194,9.695,8.37,14.18c6.435,9.085,13.352,18.563,21.491,26.367c29.489,28.275,76.717,29.349,106.066,0
			c28.44-28.441,29.503-77.777,0-106.066c-2.937-2.815-5.632-5.812-8.142-9.012c3.908,5.06,7.817,10.119,11.727,15.179
			c-5.019-6.62-9.023-13.821-12.285-21.453c2.521,5.972,5.041,11.944,7.561,17.916c-4.759-11.528-7.719-23.618-9.462-35.951
			c0.893,6.646,1.786,13.292,2.679,19.938c-2.332-17.546-2.265-35.34,0.065-52.883c-0.893-6.646-1.786-13.292-2.679-19.938
			c-3.563-12.706-9.993-23.737-19.288-33.095c-14.002-14.001-33.222-21.967-53.033-21.967c-19.812,0-39.031,7.965-53.033,21.967
			c-3.909,5.06-7.818,10.12-11.727,15.179C264.859,77.186,261.446,89.804,261.404,103.342L261.404,103.342z"/>
	</g>
</g>
<g opacity="0.1">
	<g>
		<path fill="#F05123" d="M196.491,147.201c1.864,26.055,5.403,52.315,11.588,77.723c6.203,25.479,16.07,50.344,27.818,73.728
			c4.386,8.729,9.438,17.117,15.053,25.109c9.18,13.066,19.082,26.008,30.419,37.328c11.353,11.336,24.456,21.245,37.777,30.094
			c13.75,9.135,29.427,15.34,44.688,21.322c6.646,0.893,13.291,1.786,19.938,2.679c13.538-0.042,26.156-3.455,37.854-10.239
			c16.766-9.821,29.311-26.076,34.468-44.823c5.324-19.357,2.586-40.47-7.561-57.792c-3.909-5.06-7.818-10.119-11.728-15.179
			c-9.358-9.295-20.39-15.724-33.096-19.288c-1.308-0.513-2.608-1.038-3.905-1.575c5.972,2.52,11.943,5.04,17.915,7.561
			c-11.268-4.803-21.813-10.946-31.551-18.375c5.06,3.909,10.119,7.818,15.179,11.727c-10.453-8.126-19.715-17.542-27.878-27.958
			c3.909,5.06,7.818,10.12,11.728,15.179c-10.899-14.126-19.588-29.723-26.551-46.128c2.521,5.972,5.04,11.944,7.561,17.916
			c-10.253-24.535-16.624-50.487-20.161-76.806c0.893,6.646,1.786,13.292,2.679,19.938c-0.961-7.359-1.703-14.738-2.233-22.141
			c-0.893-6.646-1.785-13.292-2.679-19.938c-3.563-12.706-9.992-23.737-19.288-33.095c-14.002-14.001-33.221-21.967-53.033-21.967
			s-39.031,7.965-53.033,21.967C205.279,107.348,195.125,128.103,196.491,147.201L196.491,147.201z"/>
	</g>
</g>
<g opacity="0.1">
	<g>
		<path fill="#F05123" d="M132.504,184.683c9.138,30.447,22.699,60.81,41.582,86.535c11.221,15.286,22.844,30.31,36.959,43.036
			c13.725,12.374,28.969,24.132,45.399,32.795c18.114,9.551,37.72,13.082,57.792,7.561c18.747-5.156,35.001-17.701,44.823-34.467
			c19.972-34.095,9.219-83.566-26.907-102.614c-7.715-4.068-14.992-8.801-21.9-14.123c5.06,3.909,10.12,7.818,15.179,11.728
			c-11.5-9.043-21.669-19.519-30.687-31.025c3.909,5.06,7.818,10.119,11.727,15.179c-11.612-15.063-21.09-31.574-28.533-49.066
			c2.521,5.972,5.041,11.944,7.561,17.916c-3.186-7.635-5.975-15.406-8.354-23.33c-11.742-39.125-52.166-63.411-92.259-52.383
			C146.173,103.073,120.755,145.535,132.504,184.683L132.504,184.683z"/>
	</g>
</g>
<g opacity="0.1">
	<g>
		<path fill="#F05123" d="M297.959,223.652c10.439,20.832,21.607,41.269,33.333,61.403c20.541,35.271,67.392,47.539,102.614,26.906
			c35.284-20.668,47.489-67.271,26.907-102.614c-11.727-20.134-22.895-40.572-33.333-61.403
			c-8.435-16.83-27.101-29.592-44.823-34.467c-19.357-5.325-40.47-2.586-57.792,7.561c-16.766,9.821-29.31,26.075-34.467,44.822
			C284.787,186.26,288.703,205.181,297.959,223.652L297.959,223.652z"/>
	</g>
</g>
<g opacity="0.1">
	<g>
		<path fill="#F05123" d="M219.298,194.57c1.533,15.324,3.277,30.987,7.567,45.858c4.085,14.164,10.065,28.094,17.244,40.961
			c14.746,26.432,37.681,48.079,63.211,63.906c34.774,21.556,82.37,7.653,102.615-26.907c10.146-17.321,12.885-38.434,7.561-57.792
			c-5.265-19.138-17.758-34.464-34.468-44.822c-3.378-2.094-6.646-4.324-9.817-6.719c5.06,3.909,10.119,7.818,15.179,11.727
			c-7.084-5.5-13.414-11.752-18.919-18.836c3.909,5.06,7.818,10.119,11.728,15.179c-5.278-6.991-9.591-14.534-13.029-22.587
			c2.521,5.972,5.04,11.944,7.561,17.916c-4.212-10.224-6.891-20.89-8.423-31.83c0.894,6.646,1.786,13.292,2.68,19.938
			c-0.26-1.995-0.488-3.991-0.688-5.993c-0.893-6.646-1.786-13.292-2.679-19.938c-3.563-12.706-9.993-23.737-19.288-33.095
			c-14.002-14.001-33.221-21.967-53.033-21.967s-39.031,7.965-53.033,21.967C228.411,154.392,217.417,175.777,219.298,194.57
			L219.298,194.57z"/>
	</g>
</g>
<g opacity="0.1">
	<g>
		<path fill="#F05123" d="M343.03,142.578c15.499,48.11,33.577,95.304,52.632,142.105c2.521,5.972,5.041,11.944,7.561,17.916
			c6.668,11.27,15.637,20.238,26.907,26.906c17.321,10.146,38.434,12.886,57.791,7.561c18.747-5.156,35.002-17.701,44.823-34.467
			c2.52-5.972,5.04-11.944,7.561-17.916c3.571-13.292,3.571-26.584,0-39.876c-19.055-46.801-37.134-93.995-52.632-142.105
			c-6.084-18.883-17.104-34.651-34.468-44.822c-17.321-10.147-38.434-12.885-57.792-7.561
			C357.292,60.805,330.493,103.662,343.03,142.578L343.03,142.578z"/>
	</g>
</g>
<g opacity="0.1">
	<g>
		<path fill="#F05123" d="M21.967,203.743c33.217,28.113,63.335,59.827,89.981,94.222c-3.909-5.06-7.818-10.12-11.728-15.179
			c22.927,29.777,44.574,62.008,59.379,96.688c-2.52-5.973-5.04-11.944-7.561-17.916c12.017,28.732,17.99,59.356,25.401,89.472
			c3.628,14.743,7.727,29.376,13.046,43.606c7.604,20.342,16.26,40.801,28.526,58.84c11.268,16.573,25.032,29.023,44.822,34.468
			c19.358,5.324,40.47,2.586,57.792-7.561c16.765-9.821,29.31-26.076,34.467-44.822c5.027-18.277,3.381-41.699-7.561-57.792
			c-7.138-10.497-13.03-21.68-17.964-33.367c2.52,5.972,5.04,11.944,7.561,17.916c-10.403-25.155-16.217-51.776-22.482-78.175
			c-7.719-32.523-17.716-63.86-32.794-93.866c-13.182-26.231-29.125-51.045-46.598-74.607
			c-21.258-28.665-43.839-56.219-68.917-81.627c-12.543-12.708-25.676-24.832-39.305-36.366c-5.06-3.909-10.12-7.818-15.179-11.727
			C101.156,79.165,88.538,75.752,75,75.71c-19.812,0-39.031,7.965-53.033,21.967C7.965,111.679,0,130.898,0,150.71
			C0,169.131,7.441,191.45,21.967,203.743L21.967,203.743z"/>
	</g>
</g>
<g opacity="0.1">
	<g>
		<path fill="#F05123" d="M134.801,246.459c23.463,36.098,47.767,72.559,64.681,112.32c-2.52-5.973-5.041-11.944-7.561-17.916
			c22.31,53.431,27.056,111.64,44.091,166.628c5.84,18.853,17.258,34.741,34.467,44.822c17.322,10.146,38.434,12.885,57.792,7.561
			c38.452-10.577,64.479-53.212,52.383-92.26c-14.972-48.326-20.275-99.086-36.624-147.038
			c-18.445-54.098-48.772-102.229-79.709-149.825c-10.82-16.647-25.352-29.111-44.822-34.467
			c-19.358-5.325-40.471-2.586-57.792,7.561C127.709,163.76,112.497,212.144,134.801,246.459L134.801,246.459z"/>
	</g>
</g>
<g opacity="0.1">
	<g>
		<path fill="#F05123" d="M526.993,190.67c-14.911,5.301-29.723,11.557-43.505,19.397c-14.205,8.08-27.023,18.458-39.807,28.541
			c-22.14,17.462-39.445,39.042-56.448,61.361c-17.258,22.655-29.03,47.361-40.031,73.506
			c-10.394,24.702-15.34,50.502-17.377,77.236c-1.451,19.05,8.841,39.906,21.967,53.033c14.002,14.002,33.222,21.967,53.033,21.967
			s39.031-7.965,53.033-21.967c3.909-5.06,7.818-10.119,11.728-15.18c6.784-11.697,10.197-24.315,10.239-37.854
			c0.232-3.052,0.552-6.089,0.951-9.123c-0.894,6.646-1.786,13.292-2.68,19.938c2.34-16.631,7.243-32.719,13.747-48.176
			c-2.52,5.972-5.04,11.943-7.561,17.916c8.883-20.743,20.559-40.143,34.322-58.006c-3.909,5.06-7.818,10.119-11.728,15.179
			c13.191-16.927,28.207-32.368,45.156-45.557c-5.06,3.909-10.119,7.818-15.179,11.728c12.171-9.341,25.229-17.436,39.333-23.521
			c-5.973,2.52-11.944,5.04-17.916,7.561c2.836-1.193,5.697-2.307,8.596-3.337c18.945-6.735,34.412-16.695,44.822-34.467
			c10.147-17.322,12.886-38.434,7.562-57.792c-5.157-18.747-17.702-35.001-34.468-44.822
			C568.496,188.689,545.279,184.169,526.993,190.67L526.993,190.67z"/>
	</g>
</g>
<g opacity="0.1">
	<g>
		<path fill="#F05123" d="M399.16,266.098c-12.222,10.873-23.471,22.75-33.942,35.31c-14.804,17.757-28.866,36.364-41.162,55.966
			c-9.168,14.616-17.229,29.934-24.032,45.789c-8.797,20.502-17.308,40.807-21.905,62.697c-4.24,20.188-3.09,39.609,7.561,57.791
			c9.821,16.766,26.075,29.311,44.822,34.468c19.358,5.324,40.471,2.586,57.792-7.561c15.91-9.32,30.589-26.352,34.468-44.823
			c3.12-14.859,7.885-29.268,13.709-43.277c-2.52,5.972-5.04,11.943-7.561,17.916c11.744-27.801,27.458-53.791,45.812-77.713
			c-3.909,5.061-7.817,10.12-11.727,15.18c12.72-16.427,26.7-31.858,42.232-45.676c14.389-12.801,21.967-34.199,21.967-53.033
			c0-19.812-7.965-39.031-21.967-53.033c-14.002-14.001-33.222-21.967-53.033-21.967C431.41,244.131,414.354,252.581,399.16,266.098
			L399.16,266.098z"/>
	</g>
</g>
<g opacity="0.1">
	<g>
		<path fill="#F05123" d="M127.241,210.999c2.327,14.428,6.491,28.411,11.852,41.991c8.038,20.364,16.905,40.183,28.158,58.959
			c11.214,18.712,24.617,36.001,38.191,53.034c9.425,11.828,19.659,23.016,30.561,33.496c29.454,28.313,76.745,29.321,106.066,0
			c28.469-28.469,29.467-77.739,0-106.066c-12.54-12.055-24.092-25.063-34.739-38.815c3.909,5.06,7.818,10.119,11.728,15.179
			c-16.312-21.275-30.439-44.243-40.974-68.931c2.521,5.972,5.041,11.944,7.561,17.916c-6.287-15.013-11.166-30.55-13.761-46.64
			c-2.52-5.972-5.04-11.944-7.561-17.916c-6.667-11.27-15.636-20.239-26.906-26.906c-17.321-10.147-38.434-12.885-57.792-7.561
			c-18.747,5.157-35.001,17.701-44.822,34.467c-2.521,5.972-5.041,11.944-7.561,17.916
			C123.668,184.415,123.668,197.707,127.241,210.999L127.241,210.999z"/>
	</g>
</g>
<g opacity="0.1">
	<g>
		<path fill="#F05123" d="M25.486,177.666c4.958,17.684,14.903,35.038,28.637,47.398c9.926,8.934,21.157,15.823,31.751,23.783
			c-5.06-3.909-10.119-7.818-15.179-11.727c21.919,17.092,44.819,32.808,66.851,49.744c-5.06-3.909-10.12-7.818-15.179-11.727
			c20.953,16.204,40.861,33.881,57.166,54.863c-3.909-5.06-7.818-10.119-11.728-15.18c25.681,33.617,40.065,73.639,59.977,110.586
			c19.372,35.946,68.276,47.021,102.614,26.907c16.766-9.821,29.311-26.076,34.467-44.822c5.481-19.929,2.116-39.838-7.561-57.792
			c-10.506-19.495-19.434-39.768-29.252-59.605c-12.621-25.504-27.846-48.077-45.714-70.285
			c-14.408-17.908-31.747-33.308-49.744-47.501c-22.504-17.748-45.79-34.297-68.863-51.27c5.06,3.909,10.119,7.818,15.179,11.727
			c-10.056-8.186-20.479-15.264-30.782-22.963c5.06,3.909,10.119,7.818,15.179,11.727c-2.813-2.181-5.404-4.501-7.681-7.244
			c3.909,5.06,7.818,10.12,11.728,15.179c-1.351-1.783-2.472-3.608-3.432-5.63c2.52,5.972,5.041,11.944,7.561,17.916
			c-0.534-1.309-0.973-2.598-1.354-3.959c-11.03-39.339-52.713-63.261-92.259-52.383C38.62,96.203,14.455,138.32,25.486,177.666
			L25.486,177.666z"/>
	</g>
</g>
<g opacity="0.1">
	<g>
		<path fill="#F05123" d="M207.321,247.049c9.619,5.184,18.702,11.219,27.382,17.849c-5.06-3.909-10.119-7.818-15.179-11.728
			c19.304,14.947,36.349,32.581,51.303,51.851c-3.909-5.06-7.818-10.12-11.728-15.179c14.549,18.958,27.063,39.461,36.425,61.476
			c-2.521-5.973-5.041-11.944-7.561-17.916c2.93,7.023,5.521,14.162,7.698,21.455c11.687,39.144,52.208,63.4,92.258,52.384
			c38.756-10.661,64.076-53.096,52.384-92.259c-6.429-21.53-15.632-42.541-26.359-62.271
			c-11.243-20.679-25.538-39.285-40.134-57.684c-10.859-13.69-22.963-26.402-36.077-37.946
			c-16.775-14.767-34.957-28.911-54.705-39.553c-17.956-9.676-37.863-13.042-57.792-7.561
			c-18.747,5.157-35.001,17.701-44.822,34.467C160.301,178.772,171.375,227.678,207.321,247.049L207.321,247.049z"/>
	</g>
</g>
<g opacity="0.1">
	<g>
		<path fill="#F05123" d="M289.777,201.436c13.729,7.352,26.711,15.937,39.048,25.432c-5.059-3.909-10.119-7.818-15.179-11.728
			c22.279,17.337,42.253,37.47,59.516,59.801c-3.909-5.06-7.817-10.119-11.727-15.179c14.328,18.738,26.694,38.94,35.918,60.681
			c-2.521-5.972-5.04-11.944-7.561-17.916c0.201,0.485,0.403,0.97,0.604,1.454c2.521,5.973,5.041,11.944,7.561,17.916
			c6.668,11.271,15.637,20.239,26.907,26.907c17.321,10.146,38.434,12.885,57.791,7.561c18.747-5.157,35.002-17.702,44.823-34.468
			c2.52-5.972,5.04-11.943,7.561-17.916c3.571-13.292,3.571-26.583,0-39.875c-8.835-21.241-17.9-41.568-30.448-60.867
			c-12.969-19.945-27.917-38.908-43.965-56.47c-11.777-12.889-24.639-24.783-38.299-35.648
			c-18.099-14.396-36.422-28.271-56.844-39.205c-18.002-9.639-37.82-13.054-57.792-7.561c-18.747,5.157-35.001,17.701-44.822,34.467
			C242.799,133.087,253.777,182.16,289.777,201.436L289.777,201.436z"/>
	</g>
</g>
<g opacity="0.1">
	<g>
		<path fill="#F05123" d="M375.743,187.4c2.354,1.749,4.693,3.518,7.019,5.307c-5.061-3.909-10.12-7.818-15.18-11.727
			c32.386,25.145,61.428,54.596,86.578,86.957c-3.909-5.06-7.817-10.119-11.727-15.179c4.614,5.984,9.092,12.067,13.42,18.262
			c3.909,5.06,7.818,10.119,11.728,15.179c9.358,9.295,20.39,15.724,33.096,19.288c19.357,5.324,40.47,2.586,57.791-7.561
			c16.766-9.821,29.311-26.075,34.468-44.822c4.971-18.072,3.519-41.934-7.562-57.792c-18.306-26.201-38.465-51.34-60.63-74.39
			c-22.439-23.334-47.324-43.76-73.294-63.043c-5.972-2.52-11.943-5.041-17.916-7.561c-13.291-3.572-26.584-3.572-39.875,0
			c-18.747,5.157-35.002,17.701-44.823,34.467c-10.146,17.322-12.885,38.434-7.561,57.792c2.521,5.972,5.041,11.944,7.561,17.916
			C355.503,171.764,364.472,180.733,375.743,187.4L375.743,187.4z"/>
	</g>
</g>
<g opacity="0.1">
	<g>
		<path fill="#F05123" d="M285.125,323.042c39.531,30.818,65.885,74.434,100,110.526c28.081,29.708,77.78,28.286,106.066,0
			c14.002-14.002,21.967-33.222,21.967-53.033c0-20.282-8.187-38.453-21.967-53.033c-34.115-36.092-60.469-79.708-100-110.526
			c-5.06-3.909-10.119-7.818-15.18-11.727c-11.697-6.785-24.315-10.198-37.854-10.24c-19.812,0-39.031,7.965-53.033,21.967
			c-14.001,14.002-21.967,33.221-21.967,53.033c0.893,6.646,1.786,13.292,2.679,19.938
			C269.4,302.652,275.83,313.683,285.125,323.042L285.125,323.042z"/>
	</g>
</g>
<g opacity="0.1">
	<g>
		<path fill="#F05123" d="M56.073,260.284c20.663,14.991,42.033,28.964,62.257,44.566c-2.53-1.955-5.06-3.909-7.59-5.864
			c17.497,13.578,34.488,28.205,48.223,45.682c-1.955-2.529-3.909-5.06-5.864-7.589c5.731,7.43,10.771,15.319,14.506,23.946
			c-1.26-2.986-2.52-5.972-3.78-8.958c0.461,1.11,0.904,2.224,1.33,3.348c3.599,9.485,8.206,17.123,17.234,22.411
			c8.661,5.073,19.217,6.443,28.896,3.78c9.374-2.578,17.501-8.851,22.411-17.233c4.684-7.996,7.189-19.912,3.781-28.896
			c-24.678-65.041-90.049-101.141-143.55-139.955c-7.764-5.632-20.002-6.227-28.896-3.78c-9.373,2.579-17.5,8.851-22.411,17.234
			c-5.073,8.661-6.442,19.217-3.78,28.896C41.625,247.999,47.855,254.321,56.073,260.284L56.073,260.284z"/>
	</g>
</g>
<g opacity="0.1">
	<g>
		<path fill="#F05123" d="M225.676,242.139c19.524,21.029,38.979,42.148,56.537,64.874c-1.955-2.53-3.909-5.06-5.864-7.59
			c2.236,2.916,4.443,5.852,6.622,8.811c6.038,8.199,12.231,14.433,22.411,17.233c9.679,2.662,20.235,1.293,28.896-3.78
			c8.383-4.911,14.655-13.038,17.233-22.411c2.431-8.837,1.889-21.199-3.78-28.896c-21.152-28.724-44.779-55.163-69.021-81.274
			c-13.909-14.981-38.987-14.046-53.033,0C210.828,203.955,211.779,227.171,225.676,242.139L225.676,242.139z"/>
	</g>
</g>
<g opacity="0.1">
	<g>
		<path fill="#F05123" d="M103.442,193.617c46.328,20.597,91.985,42.28,133.333,71.93c7.815,5.604,19.958,6.239,28.896,3.78
			c9.374-2.579,17.501-8.851,22.411-17.234c5.074-8.661,6.443-19.217,3.781-28.896c-2.774-10.085-9.002-16.509-17.234-22.412
			c-41.347-29.65-87.005-51.333-133.333-71.93c-9.619-4.277-18.336-6.685-28.896-3.78c-9.374,2.579-17.501,8.851-22.411,17.234
			c-5.074,8.661-6.443,19.217-3.781,28.896C88.546,179.706,95.036,189.879,103.442,193.617L103.442,193.617z"/>
	</g>
</g>
<g opacity="0.1">
	<g>
		<path fill="#F05123" d="M139.111,357.356c33.443,68.278,93.238,118.973,153.805,162.576c7.797,5.614,19.973,6.235,28.896,3.78
			c9.374-2.578,17.501-8.851,22.411-17.233c5.073-8.66,6.443-19.217,3.78-28.896c-2.777-10.1-9.006-16.488-17.233-22.411
			c-8.567-6.168-17.044-12.457-25.398-18.911c2.53,1.954,5.06,3.909,7.59,5.863c-31.06-24.103-60.444-50.646-84.624-81.78
			c1.955,2.53,3.909,5.061,5.864,7.59c-11.645-15.153-21.918-31.261-30.329-48.432c-8.988-18.349-34.658-23.206-51.307-13.453
			c-8.383,4.91-14.655,13.037-17.234,22.411C132.505,338.732,134.55,348.043,139.111,357.356L139.111,357.356z"/>
	</g>
</g>
<g opacity="0.1">
	<g>
		<path fill="#F05123" d="M255.501,378.981c20.685,17.339,38.871,37.211,56.14,57.895c13.115,15.707,39.556,13.477,53.033,0
			c7.001-7.001,10.983-16.61,10.983-26.517c0-10.648-4.377-18.604-10.983-26.517c-17.27-20.684-35.456-40.556-56.14-57.895
			c-7.893-6.616-15.884-10.983-26.517-10.983c-9.906,0-19.516,3.982-26.517,10.983C242.003,339.446,239.82,365.835,255.501,378.981
			L255.501,378.981z"/>
	</g>
</g>
<g opacity="0.1">
	<g>
		<path fill="#F05123" d="M211.842,119.789c12.281,0,24.561,0,36.842,0c20.442,0,37.5-17.058,37.5-37.5s-17.058-37.5-37.5-37.5
			c-12.281,0-24.561,0-36.842,0c-20.442,0-37.5,17.058-37.5,37.5S191.4,119.789,211.842,119.789L211.842,119.789z"/>
	</g>
</g>
<g opacity="0.1">
	<g>
		<path fill="#F05123" d="M325.506,330.458c29.553-17.924,54.27-42.441,81.274-63.758c7.345-5.798,10.983-17.59,10.983-26.517
			c0-9.906-3.982-19.516-10.983-26.517s-16.61-10.983-26.517-10.983c-10.869,0-18.333,4.523-26.517,10.983
			c-17.218,13.591-33.339,28.508-50.666,41.966c2.53-1.955,5.06-3.909,7.59-5.864c-7.41,5.695-15.025,11.081-23.019,15.929
			c-17.446,10.581-23.91,33.458-13.454,51.307C284.396,334.414,308.017,341.066,325.506,330.458L325.506,330.458z"/>
	</g>
</g>
<g opacity="0.1">
	<g>
		<path fill="#F05123" d="M429.586,349.157c5.264-5.264,10.526-10.526,15.79-15.79c14.447-14.447,14.447-38.585,0-53.033
			c-14.447-14.447-38.586-14.447-53.033,0c-5.264,5.264-10.526,10.527-15.79,15.79c-14.447,14.447-14.447,38.586,0,53.033
			S415.139,363.604,429.586,349.157L429.586,349.157z"/>
	</g>
</g>
<g opacity="0.1">
	<g>
		<path fill="#F05123" d="M330.458,305.654c-5.847-16.533-14.861-30.369-27.188-42.864c-14.351-14.546-38.659-14.374-53.033,0
			c-14.521,14.521-14.348,38.489,0,53.033c2.669,2.706,5.199,5.509,7.581,8.471c-1.955-2.529-3.909-5.06-5.864-7.589
			c3.498,4.543,6.456,9.313,8.743,14.579c-1.26-2.986-2.521-5.972-3.78-8.958c0.445,1.074,0.852,2.163,1.22,3.266
			c3.35,9.471,8.359,17.213,17.234,22.411c8.661,5.073,19.217,6.443,28.896,3.78C322.911,346.655,337.279,324.937,330.458,305.654
			L330.458,305.654z"/>
	</g>
</g>
<g opacity="0.1">
	<g>
		<path fill="#F05123" d="M160.283,250.153c8.846-23.275,14.093-47.642,19.298-71.93c4.279-19.969-5.651-40.479-26.191-46.13
			c-18.837-5.181-41.845,6.2-46.13,26.191c-5.205,24.289-10.452,48.655-19.298,71.931c-3.413,8.979-0.901,20.904,3.781,28.896
			c4.91,8.383,13.038,14.655,22.411,17.234c9.679,2.662,20.235,1.293,28.896-3.78C152.082,267.273,156.678,259.638,160.283,250.153
			L160.283,250.153z"/>
	</g>
</g>
<g opacity="0.1">
	<g>
		<path fill="#F05123" d="M209.716,269.056c13.118-6.818,24.636-17.223,33.905-28.671c6.527-8.062,10.983-15.747,10.983-26.517
			c0-9.906-3.982-19.516-10.983-26.517s-16.611-10.983-26.517-10.983c-9.029,0-20.592,3.667-26.517,10.983
			c-4.909,6.063-10.243,11.664-16.374,16.504c2.53-1.955,5.06-3.909,7.59-5.864c-3.161,2.377-6.431,4.479-9.941,6.303
			c-18.121,9.418-23.393,34.339-13.453,51.307C169.112,273.874,191.578,278.483,209.716,269.056L209.716,269.056z"/>
	</g>
</g>
<g opacity="0.1">
	<g>
		<path fill="#F05123" d="M244.222,301.216c0.913-1.473,1.874-2.893,2.905-4.286c-1.955,2.53-3.909,5.06-5.864,7.59
			c5.13-6.555,11.686-11.606,18.147-16.767c7.332-5.856,10.983-17.543,10.983-26.517c0-9.906-3.982-19.516-10.983-26.517
			s-16.611-10.983-26.517-10.983c-10.824,0-18.389,4.492-26.517,10.983c-10.564,8.437-19.669,16.938-26.916,28.643
			c-10.769,17.392-3.834,41.18,13.453,51.307C210.889,325.198,233.482,318.562,244.222,301.216L244.222,301.216z"/>
	</g>
</g>
<g opacity="0.1">
	<g>
		<path fill="#F05123" d="M324.924,315.251c8.365-18.828,17.116-37.804,21.324-58.081c4.149-19.996-5.556-40.453-26.191-46.13
			c-18.739-5.154-41.975,6.17-46.13,26.191c-2.583,12.446-6.884,24.328-11.81,36.019c1.26-2.986,2.52-5.972,3.78-8.958
			c-1.87,4.386-3.798,8.747-5.734,13.104c-4.275,9.621-6.685,18.335-3.78,28.896c2.579,9.373,8.851,17.5,17.234,22.411
			c8.661,5.073,19.217,6.442,28.896,3.78C311.012,330.147,321.189,323.657,324.924,315.251L324.924,315.251z"/>
	</g>
</g>
<g opacity="0.1">
	<g>
		<path fill="#F05123" d="M381.064,217.005c5.068-10.045,10.722-19.779,15.789-29.825c9.207-18.251,4.977-40.511-13.453-51.307
			c-16.806-9.845-42.106-4.784-51.307,13.454c-5.067,10.045-10.721,19.779-15.789,29.825c-9.208,18.25-4.976,40.512,13.453,51.307
			C346.564,240.304,371.863,235.243,381.064,217.005L381.064,217.005z"/>
	</g>
</g>
<g opacity="0.1">
	<g>
		<path fill="#F05123" d="M423.441,325.591c0.2-0.487,0.401-0.975,0.602-1.462c-1.261,2.986-2.521,5.973-3.78,8.958
			c2.61-6.015,5.81-11.636,9.746-16.883c-1.955,2.529-3.909,5.06-5.863,7.589c1.713-2.172,3.512-4.232,5.441-6.216
			c14.245-14.643,14.597-38.437,0-53.033c-14.299-14.298-38.783-14.647-53.033,0c-11.859,12.19-19.058,25.604-25.433,41.109
			c-3.606,8.771-0.791,21.092,3.78,28.896c4.91,8.383,13.037,14.655,22.411,17.233c9.679,2.663,20.235,1.293,28.896-3.78
			C415.417,342.608,419.54,335.081,423.441,325.591L423.441,325.591z"/>
	</g>
</g>
<g opacity="0.1">
	<g>
		<path fill="#F05123" d="M415.351,402.246c20.442,0,37.5-17.058,37.5-37.5s-17.058-37.5-37.5-37.5s-37.5,17.058-37.5,37.5
			S394.909,402.246,415.351,402.246L415.351,402.246z"/>
	</g>
</g>
<g opacity="0.1">
	<g>
		<path fill="#F05123" d="M431.798,405.096c0-0.131,0.01-0.26,0.027-0.39c-0.446,3.323-0.893,6.646-1.34,9.97
			c0.056-0.328,0.146-0.635,0.266-0.945c-1.261,2.986-2.521,5.972-3.78,8.958c0.241-0.555,0.553-1.061,0.918-1.542
			c-1.955,2.53-3.909,5.06-5.864,7.59c0.172-0.219,0.349-0.435,0.544-0.633c6.978-7.065,10.983-16.558,10.983-26.517
			c0-9.906-3.982-19.516-10.983-26.517s-16.61-10.983-26.517-10.983c-9.854,0-19.58,3.96-26.517,10.983
			c-2.59,2.623-4.745,5.693-6.789,8.76c-1.789,2.686-4.58,10.643-4.316,9.963c-1.371,3.537-1.496,7.557-1.632,11.303
			c0.446,3.323,0.893,6.646,1.34,9.969c1.781,6.353,4.996,11.869,9.644,16.548c7.001,7.001,16.61,10.983,26.517,10.983
			s19.516-3.982,26.517-10.983c1.954-2.53,3.909-5.06,5.863-7.59C430.071,418.174,431.777,411.866,431.798,405.096L431.798,405.096z
			"/>
	</g>
</g>
<g opacity="0.1">
	<g>
		<path fill="#F05123" d="M410.746,461.237c0-4.094,0-8.188,0-12.281c0-20.442-17.058-37.5-37.5-37.5s-37.5,17.058-37.5,37.5
			c0,4.094,0,8.188,0,12.281c0,20.442,17.058,37.5,37.5,37.5S410.746,481.679,410.746,461.237L410.746,461.237z"/>
	</g>
</g>
<g opacity="0.1">
	<g>
		<path fill="#F05123" d="M370.395,484.043c-1.966-20.335-6.524-40.187-9.272-60.394c0.446,3.323,0.893,6.646,1.339,9.969
			c-0.316-2.486-0.598-4.975-0.839-7.47c-0.995-10.294-3.436-18.969-10.983-26.517c-7.001-7.001-16.61-10.983-26.517-10.983
			c-9.906,0-19.516,3.982-26.517,10.983c-6.447,6.447-11.894,17.102-10.983,26.517c1.965,20.335,6.524,40.187,9.272,60.394
			c-0.446-3.323-0.893-6.646-1.339-9.969c0.316,2.486,0.598,4.975,0.839,7.47c0.995,10.294,3.436,18.969,10.983,26.517
			c7.001,7.001,16.611,10.983,26.517,10.983c9.906,0,19.516-3.982,26.517-10.983C365.858,504.114,371.305,493.458,370.395,484.043
			L370.395,484.043z"/>
	</g>
</g>
<g opacity="0.1">
	<g>
		<path fill="#F05123" d="M324.781,440.184c-0.044-21.01-1.54-42.133,1.203-63.041c-0.446,3.323-0.893,6.646-1.339,9.969
			c0.167-1.211,0.35-2.42,0.551-3.626c1.655-10.395,1.742-19.469-3.78-28.896c-4.911-8.383-13.038-14.655-22.411-17.233
			c-9.679-2.663-20.235-1.293-28.896,3.78c-7.615,4.46-15.785,13.315-17.234,22.411c-4.086,25.66-3.148,50.788-3.094,76.636
			c0.043,20.441,17.025,37.5,37.5,37.5C307.69,477.684,324.824,460.626,324.781,440.184L324.781,440.184z"/>
	</g>
</g>
<g opacity="0.1">
	<g>
		<path fill="#F05123" d="M282.389,398.879c22.082,13.735,47.293,18.691,72.115,24.833c19.827,4.906,40.606-6.113,46.129-26.191
			c5.312-19.31-6.354-41.221-26.191-46.129c-16.586-4.104-33.46-7.215-49.301-13.823c2.986,1.261,5.972,2.521,8.958,3.781
			c-4.8-2.09-9.41-4.465-13.856-7.23c-17.371-10.805-41.196-3.808-51.307,13.453C258.391,365.573,265.065,388.104,282.389,398.879
			L282.389,398.879z"/>
	</g>
</g>
<g opacity="0.1">
	<g>
		<path fill="#F05123" d="M331.698,481.607c18.322,5.364,37.403,7.173,56.141,10.526c10.281,1.841,19.599,1.666,28.896-3.78
			c8.383-4.91,14.655-13.037,17.233-22.411c2.663-9.679,1.293-20.235-3.78-28.896c-4.538-7.747-13.258-15.596-22.411-17.233
			c-18.736-3.354-37.818-5.163-56.141-10.526c-19.611-5.741-40.777,6.734-46.129,26.191
			C300.02,455.422,312.094,475.869,331.698,481.607L331.698,481.607z"/>
	</g>
</g>
<g opacity="0.1">
	<g>
		<path fill="#F05123" d="M314.154,507.923c12.811,4.448,27.178,5.995,40.658,4.53c17.446-1.896,31.881-6.442,47.887-13.574
			c8.406-3.745,14.894-13.904,17.233-22.411c2.663-9.679,1.293-20.235-3.78-28.896c-4.91-8.383-13.037-14.655-22.411-17.233
			c-10.553-2.903-19.282-0.503-28.896,3.78c-1.102,0.5-2.21,0.984-3.325,1.451c2.986-1.26,5.972-2.521,8.958-3.78
			c-7.728,3.162-15.645,5.516-23.906,6.776c3.323-0.446,6.646-0.893,9.969-1.34c-6.331,0.829-12.602,0.967-18.951,0.261
			c3.322,0.447,6.646,0.894,9.969,1.34c-4.618-0.638-9.063-1.695-13.467-3.225c-19.32-6.709-40.978,7.463-46.129,26.191
			C282.272,482.481,294.862,501.225,314.154,507.923L314.154,507.923z"/>
	</g>
</g>
<g opacity="0.1">
	<g>
		<path fill="#F05123" d="M467.3,434.363c0.883-4.877,2.258-9.544,4.102-14.143c-1.26,2.986-2.521,5.972-3.78,8.958
			c4.23-9.909,10.326-18.692,16.865-27.199c-1.954,2.529-3.908,5.06-5.863,7.589c2.932-3.779,5.915-7.518,8.858-11.288
			c6.429-8.237,10.983-15.604,10.983-26.517c0-9.906-3.982-19.516-10.983-26.517s-16.61-10.983-26.517-10.983
			c-8.881,0-20.774,3.627-26.517,10.983c-16.422,21.039-34.554,42.001-39.469,69.179c-1.857,10.27-1.658,19.611,3.78,28.896
			c4.91,8.383,13.037,14.655,22.411,17.233C439.524,465.603,463.66,454.496,467.3,434.363L467.3,434.363z"/>
	</g>
</g>
<g opacity="0.1">
	<g>
		<path fill="#F05123" d="M473.246,405.754c20.442,0,37.5-17.058,37.5-37.5s-17.058-37.5-37.5-37.5s-37.5,17.058-37.5,37.5
			S452.803,405.754,473.246,405.754L473.246,405.754z"/>
	</g>
</g>
<g opacity="0.1">
	<g>
		<path fill="#F05123" d="M502.699,386.599c8.104-4.824,16.457-9.212,24.562-14.035c17.536-10.435,23.844-33.569,13.453-51.307
			c-10.262-17.519-33.731-23.912-51.307-13.453c-8.105,4.823-16.457,9.211-24.562,14.035
			c-17.534,10.437-23.845,33.567-13.453,51.307C461.653,390.663,485.125,397.06,502.699,386.599L502.699,386.599z"/>
	</g>
</g>
<g opacity="0.1">
	<g>
		<path fill="#F05123" d="M516.152,224.023c1.973-4.379,4.49-8.334,7.403-12.145c-1.955,2.53-3.909,5.06-5.864,7.59
			c5.385-6.772,11.578-12.831,17.159-19.435c6.637-7.853,10.983-15.917,10.983-26.517c0-9.906-3.982-19.516-10.983-26.517
			c-13.541-13.542-39.826-15.627-53.033,0c-10.6,12.542-23.574,23.958-30.425,39.169c-4.315,9.58-6.675,18.374-3.78,28.896
			c2.578,9.374,8.851,17.501,17.233,22.412c8.66,5.073,19.217,6.442,28.896,3.78C502.279,238.908,512.365,232.431,516.152,224.023
			L516.152,224.023z"/>
	</g>
</g>
<g opacity="0.1">
	<g>
		<path fill="#F05123" d="M559.412,173.718c4.757-4.699,9.798-9.045,15.074-13.149c-2.529,1.955-5.06,3.909-7.589,5.864
			c7.001-5.346,14.309-10.237,21.767-14.92c17.277-10.85,24.031-33.25,13.453-51.307C592.039,83,568.135,75.872,550.81,86.751
			c-15.743,9.887-31.178,20.842-44.432,33.934c-14.537,14.359-14.381,38.652,0,53.033
			C520.893,188.232,544.876,188.075,559.412,173.718L559.412,173.718z"/>
	</g>
</g>
<g opacity="0.1">
	<g>
		<path fill="#F05123" d="M547.612,79.338c-7.061,22.794-15.589,45.157-21.053,68.42c-4.671,19.883,5.938,40.559,26.191,46.13
			c19.131,5.262,41.455-6.294,46.129-26.191c5.465-23.264,13.993-45.626,21.053-68.421c6.047-19.524-6.964-40.84-26.191-46.129
			C573.562,47.596,553.654,59.828,547.612,79.338L547.612,79.338z"/>
	</g>
</g>
<g opacity="0.1">
	<g>
		<path fill="#F05123" d="M495.395,89.307c-0.059,24.633-0.964,48.916,4.849,73.126c4.771,19.873,26.925,31.475,46.129,26.192
			c20.181-5.551,30.959-26.269,26.191-46.129c-1.063-4.431-1.877-8.882-2.485-13.397c0.446,3.323,0.893,6.646,1.339,9.969
			c-1.984-16.536-1.063-33.156-1.022-49.761c0.049-20.442-17.095-37.5-37.5-37.5C512.416,51.807,495.444,68.865,495.395,89.307
			L495.395,89.307z"/>
	</g>
</g>
<g opacity="0.1">
	<g>
		<path fill="#F05123" d="M463.401,100.391c-5.145,19.068-8.749,38.476-12.28,57.894c-1.867,10.265-1.655,19.618,3.78,28.896
			c4.91,8.383,13.037,14.655,22.411,17.234c18.366,5.052,42.469-6.063,46.129-26.191c3.531-19.418,7.136-38.826,12.28-57.895
			c5.322-19.724-6.422-40.692-26.191-46.13C489.905,68.801,468.722,80.666,463.401,100.391L463.401,100.391z"/>
	</g>
</g>
<g opacity="0.1">
	<g>
		<path fill="#F05123" d="M539.111,236.304c0.631,1.301,1.229,2.608,1.801,3.936c-1.261-2.986-2.521-5.972-3.78-8.958
			c2.047,5.023,3.533,10.214,5.217,15.362c6.347,19.411,25.715,31.807,46.129,26.192c18.996-5.226,32.546-26.698,26.191-46.129
			c-3.158-9.658-6.332-19.049-10.798-28.256c-4.081-8.415-13.651-14.824-22.411-17.234c-9.679-2.662-20.235-1.293-28.896,3.78
			c-8.383,4.911-14.655,13.038-17.233,22.411C532.497,217.71,534.579,226.958,539.111,236.304L539.111,236.304z"/>
	</g>
</g>
<g opacity="0.1">
	<g>
		<path fill="#F05123" d="M560.307,224.395c0,2.339,0,4.678,0,7.018c0,9.906,3.982,19.516,10.983,26.517s16.61,10.983,26.517,10.983
			s19.516-3.982,26.517-10.983s10.983-16.611,10.983-26.517c0-2.339,0-4.678,0-7.018c0-9.906-3.982-19.516-10.983-26.517
			s-16.61-10.983-26.517-10.983s-19.516,3.982-26.517,10.983S560.307,214.489,560.307,224.395L560.307,224.395z"/>
	</g>
</g>
<g opacity="0.1">
	<g>
		<path fill="#F05123" d="M458.41,222.269c0.742,1.488,1.47,2.979,2.117,4.512c-1.26-2.986-2.521-5.972-3.78-8.958
			c0.579,1.477,1.034,2.943,1.289,4.511c-0.446-3.323-0.894-6.646-1.34-9.969c0.067,0.499,0.102,1,0.103,1.504
			c0.351,10.061,3.782,19.316,10.983,26.517c7.001,7.001,16.61,10.983,26.517,10.983c19.902,0,38.213-17.061,37.5-37.5
			c-0.177-5.072-0.715-10.402-2.437-15.232c-1.719-4.823-3.893-9.613-6.192-14.221c-4.199-8.415-13.563-14.8-22.411-17.234
			c-9.679-2.662-20.235-1.293-28.896,3.78c-8.383,4.911-14.655,13.038-17.233,22.411c-0.447,3.323-0.894,6.646-1.34,9.969
			C453.311,210.111,455.017,216.42,458.41,222.269L458.41,222.269z"/>
	</g>
</g>
<g opacity="0.1">
	<g>
		<path fill="#F05123" d="M481.36,219.131c0.271,13.997,3.962,26.717,8.357,39.793c6.506,19.358,25.592,31.841,46.129,26.192
			c18.875-5.192,32.706-26.748,26.191-46.129c-2.508-7.462-5.205-14.844-6.48-22.64c0.447,3.323,0.894,6.646,1.34,9.969
			c-0.313-2.398-0.49-4.766-0.537-7.185c-0.396-20.434-16.758-37.5-37.5-37.5C498.718,181.631,480.963,198.688,481.36,219.131
			L481.36,219.131z"/>
	</g>
</g>
<g opacity="0.1">
	<g>
		<path fill="#F05123" d="M512.939,208.605c0.045,22.788,1.395,45.553-1.488,68.24c0.446-3.323,0.893-6.646,1.339-9.969
			c-0.089,0.645-0.177,1.29-0.266,1.935c-1.446,10.514-1.825,19.328,3.78,28.896c4.91,8.383,13.037,14.656,22.411,17.234
			c9.679,2.662,20.235,1.293,28.896-3.78c7.469-4.375,15.992-13.383,17.233-22.411c2.018-14.667,3.434-29.075,3.529-43.878
			c0.078-12.09-0.411-24.177-0.435-36.267c-0.04-20.441-17.028-37.5-37.5-37.5C530.027,171.105,512.899,188.163,512.939,208.605
			L512.939,208.605z"/>
	</g>
</g>
<g opacity="0.1">
	<g>
		<path fill="#F05123" d="M521.295,158.285c-3.754,13.917-6.683,28.067-12.148,41.456c1.26-2.986,2.52-5.972,3.78-8.958
			c-2.463,5.774-5.361,11.252-8.903,16.439c-11.546,16.905-3.247,41.524,13.453,51.307c8.66,5.073,19.217,6.442,28.896,3.78
			c9.911-2.727,16.755-8.952,22.411-17.234c13.66-20.001,18.638-43.887,24.832-66.853c5.32-19.725-6.421-40.691-26.191-46.13
			C547.8,126.695,526.616,138.56,521.295,158.285L521.295,158.285z"/>
	</g>
</g>
<g opacity="0.1">
	<g>
		<path fill="#F05123" d="M436.203,193.016c6.846,5.349,13.437,10.504,21.049,14.655c8.027,4.378,16.681,7.822,25.323,10.779
			c19.348,6.62,40.959-7.396,46.129-26.191c5.672-20.619-6.869-39.519-26.191-46.13c-2.797-0.957-5.549-1.999-8.278-3.134
			c2.986,1.26,5.973,2.52,8.958,3.78c-7.154-3.119-13.886-6.892-20.146-11.562c2.53,1.955,5.06,3.909,7.59,5.864
			c-0.467-0.365-0.934-0.729-1.399-1.094C481.004,133.551,473.627,129,462.719,129c-9.906,0-19.516,3.982-26.517,10.983
			s-10.983,16.611-10.983,26.517C425.219,175.385,428.847,187.268,436.203,193.016L436.203,193.016z"/>
	</g>
</g>
<g opacity="0.1">
	<g>
		<path fill="#F05123" d="M462.719,198.736c20.442,0,37.5-17.058,37.5-37.5s-17.058-37.5-37.5-37.5s-37.5,17.058-37.5,37.5
			S442.277,198.736,462.719,198.736L462.719,198.736z"/>
	</g>
</g>
<g opacity="0.1">
	<g>
		<path fill="#F05123" d="M413.396,164.544c-7.317,9.029-15.533,17.244-24.562,24.562c-7.315,5.93-10.983,17.483-10.983,26.517
			c0,9.906,3.982,19.516,10.983,26.517s16.61,10.983,26.517,10.983c10.766,0,18.46-4.453,26.517-10.983
			c9.028-7.318,17.244-15.533,24.562-24.562c6.53-8.057,10.983-15.75,10.983-26.517c0-9.906-3.982-19.516-10.983-26.517
			s-16.61-10.983-26.517-10.983C430.879,153.561,419.326,157.229,413.396,164.544L413.396,164.544z"/>
	</g>
</g>
<g opacity="0.1">
	<g>
		<path fill="#F05123" d="M325.676,183.843c-1.169,1.17-2.339,2.339-3.509,3.509c-7.001,7-10.983,16.612-10.983,26.517
			c0,9.906,3.982,19.516,10.983,26.517s16.61,10.983,26.517,10.983c9.907,0,19.514-3.983,26.517-10.983
			c1.17-1.169,2.339-2.339,3.509-3.509c7-7.002,10.983-16.609,10.983-26.517c0-9.906-3.982-19.516-10.983-26.517
			s-16.61-10.983-26.517-10.983C342.288,172.859,332.676,176.841,325.676,183.843L325.676,183.843z"/>
	</g>
</g>
<g opacity="0.1">
	<g>
		<path fill="#F05123" d="M291.743,198.45c-1.816,2.978-3.75,5.855-5.848,8.642c1.954-2.53,3.909-5.06,5.863-7.589
			c-3.414,4.361-7.166,8.311-11.553,11.705c2.53-1.955,5.06-3.909,7.59-5.864c-1.195,0.865-2.401,1.679-3.652,2.46
			c-17.303,10.809-24.013,33.281-13.454,51.307c10.096,17.235,33.957,24.292,51.307,13.454
			c14.525-9.074,25.638-21.715,34.505-36.261c10.647-17.464,3.925-41.127-13.453-51.307
			C325.168,174.522,302.363,181.029,291.743,198.45L291.743,198.45z"/>
	</g>
</g>
<g opacity="0.1">
	<g>
		<path fill="#F05123" d="M225.219,196.324c-3.662,27.375,2.134,55.748,10.111,81.899c5.959,19.535,26.015,31.725,46.13,26.191
			c19.29-5.306,32.155-26.581,26.191-46.13c-3.628-11.892-6.675-23.92-8.466-36.235c0.446,3.323,0.893,6.646,1.339,9.969
			c-1.591-11.891-1.899-23.786-0.306-35.694c1.232-9.209-4.745-20.278-10.983-26.517c-7.001-7.001-16.611-10.983-26.517-10.983
			s-19.516,3.982-26.517,10.983C228.455,177.556,226.611,185.921,225.219,196.324L225.219,196.324z"/>
	</g>
</g>
<g opacity="0.1">
	<g>
		<path fill="#F05123" d="M324.495,246.249c0.447,0.33,0.895,0.659,1.343,0.989c-2.53-1.955-5.06-3.909-7.589-5.864
			c4.672,3.65,8.711,7.824,12.374,12.479c-1.954-2.53-3.909-5.06-5.863-7.59c4.751,6.272,8.699,13.045,12.599,19.866
			c10.13,17.719,33.803,23.708,51.307,13.454c17.747-10.396,23.603-33.556,13.453-51.307c-3.639-6.365-7.319-12.688-11.649-18.614
			c-8.431-11.536-16.615-19.702-28.119-28.173c-7.698-5.668-20.059-6.211-28.896-3.78c-9.374,2.579-17.501,8.851-22.411,17.234
			c-5.074,8.661-6.443,19.217-3.781,28.896C310.061,234.017,316.294,240.21,324.495,246.249L324.495,246.249z"/>
	</g>
</g>
<g opacity="0.1">
	<g>
		<path fill="#F05123" d="M355.043,238.429c2.146,21.51,4.194,43.123,8.357,64.355c3.935,20.07,27.556,31.3,46.129,26.191
			c9.374-2.578,17.501-8.851,22.411-17.233c5.38-9.184,5.776-18.717,3.78-28.896c-1.289-6.578-2.334-13.191-3.238-19.833
			c0.446,3.323,0.894,6.646,1.34,9.969c-1.515-11.49-2.629-23.023-3.779-34.553c-1.027-10.304-3.419-18.952-10.983-26.517
			c-7.001-7.001-16.61-10.983-26.517-10.983s-19.516,3.982-26.517,10.983C359.598,218.342,354.106,229.031,355.043,238.429
			L355.043,238.429z"/>
	</g>
</g>
<g opacity="0.1">
	<g>
		<path fill="#F05123" d="M355.5,243.492c-0.441,0.342-0.883,0.685-1.324,1.027c2.53-1.955,5.061-3.909,7.59-5.864
			c-13.096,10.109-26.631,19.848-41.83,26.564c2.986-1.26,5.972-2.52,8.958-3.78c-3.676,1.55-7.394,2.894-11.231,3.988
			c-19.644,5.603-31.649,26.29-26.192,46.129c5.38,19.559,26.48,31.796,46.129,26.191c27.026-7.708,49.107-24.286,70.934-41.223
			c7.363-5.713,10.983-17.659,10.983-26.517c0-9.906-3.982-19.516-10.983-26.517s-16.61-10.983-26.517-10.983
			C371.083,232.508,363.765,237.079,355.5,243.492L355.5,243.492z"/>
	</g>
</g>
<g opacity="0.1">
	<g>
		<path fill="#F05123" d="M341.868,190.86c-2.168-1.974-4.107-4.128-5.918-6.433c1.955,2.53,3.909,5.06,5.864,7.589
			c-3.263-4.312-5.944-8.958-8.078-13.925c1.26,2.986,2.52,5.972,3.78,8.958c-1.617-3.959-2.835-8.003-3.485-12.234
			c0.447,3.323,0.894,6.646,1.34,9.969c-0.373-2.938-0.447-5.827-0.076-8.77c-0.446,3.323-0.893,6.646-1.339,9.969
			c0.302-1.828,0.761-3.557,1.443-5.28c-1.26,2.986-2.521,5.972-3.78,8.958c0.627-1.387,1.354-2.651,2.245-3.885
			c-1.954,2.53-3.908,5.06-5.863,7.589c0.991-1.231,2.062-2.297,3.287-3.294c-2.529,1.955-5.059,3.909-7.589,5.864
			c1.4-1.024,2.845-1.856,4.417-2.588c-2.985,1.26-5.972,2.52-8.958,3.78c1.447-0.596,2.896-1.077,4.407-1.485
			c19.72-5.341,31.594-26.49,26.191-46.129c-5.434-19.756-26.41-31.532-46.129-26.192c-26.881,7.28-46.874,33.013-43.257,61.464
			c1.701,13.378,4.663,23.93,10.938,36.102c4.357,8.452,10.506,16.612,17.526,23.007c15.099,13.753,38.082,14.951,53.033,0
			C355.811,229.95,356.983,204.628,341.868,190.86L341.868,190.86z"/>
	</g>
</g>
<g opacity="0.1">
	<g>
		<path fill="#F05123" d="M372.173,183.486c5.045,20.384,8.572,41.122,14.035,61.404c5.313,19.727,26.511,31.587,46.129,26.191
			c19.776-5.44,31.505-26.403,26.191-46.13c-5.462-20.282-8.989-41.02-14.035-61.403c-4.909-19.837-26.818-31.503-46.129-26.192
			C378.288,142.879,367.265,163.659,372.173,183.486L372.173,183.486z"/>
	</g>
</g>
<g opacity="0.1">
	<g>
		<path fill="#F05123" d="M412.4,249.637c-13.841,4.584-28.841,8.828-40.537,17.815c-8.142,6.257-14.392,12.08-17.233,22.411
			c-2.663,9.679-1.293,20.235,3.78,28.896c4.91,8.383,13.037,14.655,22.411,17.233c8.674,2.386,21.389,1.988,28.896-3.78
			c4.199-3.228,8.786-5.641,13.643-7.725c-2.986,1.261-5.972,2.521-8.958,3.78c5.875-2.403,11.915-4.316,17.937-6.311
			c19.387-6.42,31.822-25.659,26.191-46.13C453.319,256.888,431.809,243.209,412.4,249.637L412.4,249.637z"/>
	</g>
</g>
<g opacity="0.1">
	<g>
		<path fill="#F05123" d="M321.568,401.216c3.701,7.514,6.824,15.293,10.525,22.807c9.026,18.329,34.629,23.223,51.307,13.453
			c8.383-4.91,14.655-13.037,17.233-22.411c2.821-10.254,0.797-19.602-3.78-28.896c-3.7-7.514-6.824-15.294-10.525-22.807
			c-9.028-18.328-34.628-23.224-51.307-13.453c-8.383,4.91-14.655,13.037-17.234,22.411
			C314.967,382.574,316.989,391.923,321.568,401.216L321.568,401.216z"/>
	</g>
</g>
<g opacity="0.1">
	<g>
		<path fill="#F05123" d="M427.631,409.263c0.098,0.005,0.195,0.011,0.293,0.016c-3.323-0.446-6.646-0.893-9.97-1.339
			c0.308,0.049,0.583,0.121,0.878,0.225c-2.986-1.261-5.973-2.521-8.958-3.78c0.527,0.23,0.995,0.52,1.462,0.855
			c-2.53-1.955-5.06-3.909-7.59-5.864c0.943,0.733,1.788,1.57,2.632,2.413c7.006,6.999,16.606,10.983,26.517,10.983
			c9.906,0,19.516-3.982,26.517-10.983s10.983-16.61,10.983-26.517c0-9.901-3.98-19.521-10.983-26.517
			c-3.118-3.114-6.613-5.674-10.222-8.276c-6.163-4.444-14.199-5.814-21.559-6.216c-3.323,0.446-6.646,0.893-9.969,1.34
			c-6.353,1.781-11.869,4.996-16.548,9.644c-7.001,7.001-10.983,16.61-10.983,26.517s3.982,19.516,10.983,26.517
			c2.53,1.954,5.06,3.909,7.59,5.863C414.553,407.536,420.862,409.242,427.631,409.263L427.631,409.263z"/>
	</g>
</g>
<g opacity="0.1">
	<g>
		<path fill="#F05123" d="M330.483,485.797c0,5.264,0,10.526,0,15.79c0,20.442,17.058,37.5,37.5,37.5s37.5-17.058,37.5-37.5
			c0-5.264,0-10.526,0-15.79c0-20.442-17.058-37.5-37.5-37.5S330.483,465.355,330.483,485.797L330.483,485.797z"/>
	</g>
</g>
<g opacity="0.1">
	<g>
		<path fill="#F05123" d="M296.734,549.513c-0.943,3.713-1.996,7.372-3.453,10.92c1.26-2.986,2.52-5.972,3.78-8.958
			c-1.016,2.314-2.191,4.502-3.565,6.624c-11.119,17.178-3.57,41.335,13.454,51.307c8.661,5.073,19.217,6.443,28.896,3.78
			c9.721-2.674,17.021-8.906,22.411-17.233c5.17-7.986,8.463-17.308,10.798-26.502c5.029-19.798-6.204-40.632-26.191-46.129
			C323.461,517.985,301.765,529.708,296.734,549.513L296.734,549.513z"/>
	</g>
</g>
</svg>
