<?xml version="1.0" encoding="utf-8"?>
<!-- Generator: Adobe Illustrator 16.0.0, SVG Export Plug-In . SVG Version: 6.00 Build 0)  -->
<!DOCTYPE svg PUBLIC "-//W3C//DTD SVG 1.1//EN" "http://www.w3.org/Graphics/SVG/1.1/DTD/svg11.dtd">
<svg version="1.1" id="Layer_1" xmlns="http://www.w3.org/2000/svg" xmlns:xlink="http://www.w3.org/1999/xlink" x="0px" y="0px"
	 width="603.827px" height="597.16px" viewBox="0 0 603.827 597.16" enable-background="new 0 0 603.827 597.16"
	 xml:space="preserve">
<g opacity="0.1">
	<g>
		<path fill="#F05123" d="M325.889,467.047c-12.848-44.165-25.461-89.781-50.337-128.984c-7.599-11.976-16.202-23.641-26.215-33.711
			c-9.785-9.842-21.416-18.066-32.596-26.142c-12.816-9.257-26.556-17.158-39.135-26.754c5.06,3.909,10.12,7.818,15.179,11.727
			c-6.837-5.302-13.229-11.08-18.646-17.85c3.909,5.06,7.818,10.12,11.727,15.179c-3.142-4.067-5.833-8.366-8.04-13.01
			c-7.996-16.828-27.429-29.683-44.822-34.467c-19.358-5.325-40.471-2.586-57.792,7.561c-16.766,9.821-29.31,26.075-34.467,44.823
			c-0.893,6.646-1.786,13.291-2.679,19.938c0.042,13.538,3.456,26.156,10.24,37.854c5.798,12.203,14.921,23.165,23.906,33.032
			c9.468,10.397,21.767,18.907,32.876,27.131c13.442,9.952,28.053,18.206,41.35,28.37c-5.06-3.909-10.12-7.818-15.179-11.727
			c7.299,5.67,14.093,11.879,19.787,19.188c-3.909-5.06-7.818-10.119-11.727-15.179c10,13.298,17.758,28.229,24.294,43.483
			c-2.52-5.972-5.041-11.943-7.561-17.916c10.549,25.039,17.622,51.293,25.196,77.332c11.41,39.226,52.421,63.341,92.259,52.383
			C312.469,548.589,337.303,506.29,325.889,467.047L325.889,467.047z"/>
	</g>
</g>
<g opacity="0.1">
	<g>
		<path fill="#F05123" d="M350.677,484.049c-1.801-5.195-3.08-10.454-3.878-15.896c0.894,6.646,1.786,13.292,2.68,19.938
			c-1.023-8.246-0.873-16.439,0.126-24.681c-0.894,6.646-1.786,13.292-2.68,19.938c3.213-23.526,12.753-45.363,20.378-67.664
			c-2.521,5.973-5.04,11.944-7.561,17.916c15.53-36.752,43.665-65.309,63.21-99.679c20.215-35.549,8.646-81.787-26.907-102.614
			c-34.947-20.472-82.435-8.578-102.614,26.906c-18.635,32.77-45.315,60.187-61.051,94.701
			c-10.576,23.196-20.154,48.35-26.656,73.111c-8.221,31.309-10.445,66.858,0.311,97.898c6.56,18.931,16.803,34.475,34.467,44.822
			c17.322,10.146,38.434,12.885,57.792,7.561c18.747-5.157,35.001-17.702,44.823-34.468
			C352.724,525.44,357.055,502.458,350.677,484.049L350.677,484.049z"/>
	</g>
</g>
<g opacity="0.1">
	<g>
		<path fill="#F05123" d="M387.36,149.484c-16.745,3.484-32.855,12.305-46.574,22.432c-9.088,6.709-17.762,14.231-28.039,19.106
			c5.972-2.521,11.944-5.041,17.916-7.561c-14.117,5.512-28.861,8.726-43.844,10.796c6.646-0.893,13.292-1.786,19.938-2.679
			c-31.449,4.151-63.373,5.407-94.893,1.371c6.646,0.893,13.292,1.786,19.938,2.679c-14.906-2.007-29.597-5.138-43.928-9.724
			c-38.939-12.461-81.757,14.204-92.259,52.383c-5.325,19.358-2.586,40.47,7.561,57.792c10.156,17.337,25.944,28.427,44.822,34.468
			c26.391,8.444,54.475,12.237,82.015,14.208c21.474,1.536,42.938,0.339,64.33-1.737c33.626-3.263,66.089-8.26,96.523-23.655
			c16.531-8.363,28.956-23.088,46.185-30.363c-5.973,2.521-11.944,5.041-17.916,7.561c2.651-1.033,5.313-1.853,8.102-2.433
			c18.461-3.842,35.517-18.582,44.822-34.467c10.146-17.321,12.885-38.434,7.561-57.792c-5.157-18.747-17.702-35.001-34.468-44.822
			C426.945,146.378,407.573,145.278,387.36,149.484L387.36,149.484z"/>
	</g>
</g>
<g opacity="0.1">
	<g>
		<path fill="#F05123" d="M82.351,306.002c12.775-1.357,26.125-2.564,38.452-6.661c11.696-3.889,23.562-8.84,34.2-15.235
			c15.909-9.564,30.984-22.191,42.703-36.702c12.301-15.234,23.411-30.499,32.389-47.852c8.823-17.053,16.027-35.012,23.188-52.792
			c0.893-6.646,1.786-13.292,2.679-19.938c-0.042-13.538-3.456-26.156-10.24-37.854c-9.821-16.766-26.075-29.31-44.822-34.467
			c-19.358-5.325-40.471-2.586-57.792,7.561c-5.06,3.909-10.119,7.818-15.179,11.727c-9.295,9.358-15.724,20.39-19.288,33.095
			c-1.283,3.184-2.585,6.36-3.913,9.525c2.52-5.972,5.041-11.944,7.561-17.916c-8.298,19.636-17.765,38.948-30.752,55.954
			c3.909-5.06,7.818-10.12,11.727-15.179c-6.114,7.86-12.934,15.068-20.765,21.239c5.06-3.909,10.12-7.818,15.179-11.728
			c-6.124,4.695-12.69,8.615-19.795,11.637c5.972-2.521,11.944-5.041,17.916-7.561c-6.642,2.7-13.496,4.515-20.596,5.506
			c6.646-0.893,13.292-1.786,19.938-2.679c-0.928,0.122-1.857,0.228-2.789,0.319c-6.646,0.893-13.292,1.786-19.938,2.679
			c-12.706,3.563-23.737,9.993-33.095,19.288C15.316,191.971,7.351,211.19,7.351,231.002s7.965,39.031,21.967,53.033
			C42.103,296.821,63.625,307.991,82.351,306.002L82.351,306.002z"/>
	</g>
</g>
<g opacity="0.1">
	<g>
		<path fill="#F05123" d="M150.725,306.125c35.672-0.032,66.958-20.776,89.851-46.632c15.479-17.483,29.884-36.925,41.555-57.247
			c20.367-35.465,8.537-81.853-26.906-102.614c-35.061-20.538-82.287-8.491-102.614,26.906
			c-6.379,11.109-13.609,21.746-21.436,31.882c3.909-5.06,7.818-10.119,11.727-15.179c-7.512,9.624-15.635,18.961-25.325,26.462
			c5.06-3.909,10.119-7.818,15.179-11.727c-3.338,2.503-6.818,4.731-10.65,6.405c5.972-2.521,11.944-5.041,17.916-7.561
			c-2.208,0.89-4.426,1.546-6.788,1.868c6.646-0.893,13.292-1.786,19.938-2.679c-0.82,0.076-1.623,0.115-2.446,0.116
			c-40.883,0.037-75,34.088-75,75C75.725,271.982,109.841,306.162,150.725,306.125L150.725,306.125z"/>
	</g>
</g>
<g opacity="0.1">
	<g>
		<path fill="#F05123" d="M185.898,397.558c15.084-6.021,30.117-12.203,44.138-20.44c14.338-8.424,27.754-18.922,40.259-29.776
			c12.444-10.802,22.805-24.363,32.076-37.822c2.933-4.258,5.422-8.803,7.566-13.502c4.496-9.852,9.401-20.368,12.024-31.078
			c4.837-19.749,2.819-40.072-7.561-57.792c-9.821-16.766-26.075-29.31-44.822-34.467c-38.548-10.604-82.536,12.684-92.259,52.383
			c-0.998,4.072-2.303,8.01-3.907,11.882c2.521-5.972,5.041-11.944,7.561-17.916c-3.025,6.949-6.912,13.371-11.467,19.421
			c3.909-5.06,7.818-10.12,11.727-15.179c-6.9,8.911-14.997,16.693-23.844,23.654c5.06-3.909,10.12-7.818,15.179-11.727
			c-12.514,9.659-26.243,17.584-40.782,23.776c5.972-2.521,11.944-5.041,17.916-7.561c-1.223,0.51-2.449,1.011-3.68,1.502
			c-5.972,2.52-11.944,5.041-17.916,7.561c-11.27,6.667-20.239,15.636-26.906,26.907c-10.146,17.321-12.885,38.434-7.561,57.791
			c5.157,18.747,17.701,35.002,34.467,44.823c5.972,2.52,11.944,5.04,17.916,7.561C159.314,401.129,172.606,401.129,185.898,397.558
			L185.898,397.558z"/>
	</g>
</g>
<g opacity="0.1">
	<g>
		<path fill="#F05123" d="M270.482,424.034c42.041-28.006,78.329-61.636,106.225-103.95c5.229-7.933,9.809-16.282,13.771-24.915
			c6.395-13.932,12.6-28.278,16.563-43.149c4.03-15.122,5.926-31.061,6.995-46.608c1.143-16.603-1.596-33.123-4.02-49.49
			c-2.521-5.972-5.041-11.944-7.561-17.916c-6.668-11.27-15.637-20.239-26.907-26.906c-17.321-10.147-38.434-12.885-57.792-7.561
			c-18.747,5.157-35.001,17.701-44.822,34.467c-2.52,5.972-5.041,11.944-7.561,17.916c-3.572,13.292-3.572,26.584,0,39.876
			c0.163,1.056,0.313,2.114,0.451,3.173c-0.893-6.646-1.786-13.292-2.679-19.938c1.472,11.797,1.484,23.621,0.017,35.419
			c0.893-6.646,1.786-13.292,2.679-19.938c-1.812,13.375-5.465,26.312-10.652,38.763c2.521-5.972,5.041-11.944,7.561-17.916
			c-6.516,15.254-15.141,29.404-25.208,42.566c3.909-5.06,7.818-10.119,11.728-15.179c-14.569,18.79-31.793,35.284-50.569,49.826
			c5.06-3.909,10.12-7.818,15.179-11.728c-6.217,4.77-12.586,9.322-19.108,13.666c-16.608,11.064-29.063,25.178-34.467,44.822
			c-5.325,19.358-2.586,40.471,7.561,57.792c9.821,16.766,26.075,29.311,44.822,34.468
			C231.119,436.663,254.214,434.871,270.482,424.034L270.482,424.034z"/>
	</g>
</g>
<g opacity="0.1">
	<g>
		<path fill="#F05123" d="M331.588,460.001c20.695-21.835,39.333-47.146,51.579-74.765c7.552-17.032,14.763-34.028,18.682-52.273
			c3.861-17.977,6.413-36.906,5.725-55.365c-0.751-20.142-7.538-38.604-21.967-53.033c-14.002-14.001-33.222-21.967-53.033-21.967
			c-39.731,0-76.524,34.123-75,75c0.302,8.104-0.098,16.158-1.122,24.2c0.893-6.646,1.786-13.292,2.679-19.938
			c-2.031,14.668-6.1,28.865-11.744,42.544c2.52-5.973,5.041-11.944,7.561-17.916c-7.083,16.751-16.373,32.396-27.488,46.782
			c3.909-5.06,7.818-10.119,11.728-15.179c-4.313,5.494-8.86,10.773-13.666,15.843c-13.792,14.552-21.967,32.774-21.967,53.033
			c0,19.812,7.965,39.031,21.967,53.033C253.837,488.317,303.466,489.669,331.588,460.001L331.588,460.001z"/>
	</g>
</g>
<g opacity="0.1">
	<g>
		<path fill="#F05123" d="M285.86,302.859c12.145-18.401,23.612-37.22,34.564-56.355c20.313-35.495,8.574-81.83-26.907-102.614
			c-35.021-20.515-82.338-8.521-102.614,26.906c-10.951,19.135-22.419,37.953-34.563,56.355
			c-10.789,16.348-12.649,39.293-7.561,57.792c5.157,18.747,17.701,35.002,34.467,44.823c17.322,10.146,38.434,12.885,57.792,7.561
			C260.616,331.941,274.889,319.483,285.86,302.859L285.86,302.859z"/>
	</g>
</g>
<g opacity="0.1">
	<g>
		<path fill="#F05123" d="M298.521,382.994c24.313-17.229,44.653-35.894,60.132-61.758c15.427-25.779,22.472-55.627,23.409-85.426
			c1.285-40.881-35.09-75-75-75c-19.812,0-39.031,7.965-53.033,21.967c-14.362,14.363-21.335,32.941-21.967,53.033
			c-0.126,4.011-0.435,7.992-0.947,11.972c0.893-6.646,1.786-13.292,2.679-19.938c-1.211,8.459-3.392,16.642-6.659,24.541
			c2.52-5.972,5.041-11.944,7.561-17.916c-3.292,7.636-7.491,14.727-12.536,21.334c3.909-5.06,7.818-10.119,11.728-15.179
			c-6.223,7.926-13.447,14.859-21.407,21.025c5.06-3.909,10.12-7.818,15.179-11.728c-1.597,1.21-3.211,2.392-4.846,3.55
			c-5.06,3.909-10.119,7.818-15.179,11.727c-9.295,9.358-15.724,20.39-19.288,33.096c-5.325,19.357-2.586,40.47,7.561,57.791
			c9.821,16.766,26.075,29.311,44.822,34.468C258.694,395.496,282.786,394.143,298.521,382.994L298.521,382.994z"/>
	</g>
</g>
<g opacity="0.1">
	<g>
		<path fill="#F05123" d="M197.457,303.224c32.122-35.286,62.249-72.281,91.584-109.898c3.909-5.06,7.818-10.12,11.727-15.179
			c6.785-11.698,10.198-24.316,10.24-37.854c0-19.812-7.965-39.031-21.967-53.033c-14.002-14.001-33.221-21.967-53.033-21.967
			c-6.646,0.893-13.292,1.786-19.938,2.679c-12.706,3.563-23.737,9.993-33.095,19.288c-29.335,37.618-59.462,74.612-91.584,109.898
			c-13.62,14.962-21.967,32.439-21.967,53.033c0,19.812,7.965,39.031,21.967,53.033C119.271,331.104,169.93,333.462,197.457,303.224
			L197.457,303.224z"/>
	</g>
</g>
<g opacity="0.1">
	<g>
		<path fill="#F05123" d="M400.8,542.116c7.692-42.857,20.252-84.819,37.139-124.947c-2.521,5.973-5.041,11.944-7.561,17.916
			c13.217-31.138,28.792-62.423,49.354-89.431c-3.909,5.06-7.818,10.119-11.728,15.18c17.688-22.892,39.621-41.83,60.496-61.687
			c10.403-9.896,20.495-20.129,29.663-31.191c13.343-16.098,26.307-32.863,35.424-51.776c2.521-5.972,5.041-11.944,7.562-17.916
			c3.571-13.292,3.571-26.584,0-39.876c-5.157-18.747-17.702-35.001-34.468-44.822c-17.321-10.147-38.434-12.885-57.791-7.561
			c-17.482,4.809-36.709,17.638-44.823,34.467c-5.268,10.927-11.721,21.139-19.068,30.781c3.909-5.06,7.818-10.12,11.728-15.179
			c-15.204,19.656-33.586,36.408-51.688,53.315c-22.684,21.185-43.283,43.427-61.011,69.074
			c-16.049,23.218-29.081,48.71-40.414,74.507c-14.083,32.059-26.608,64.563-35.92,98.335c-4.629,16.788-8.458,33.796-11.535,50.935
			c-0.893,6.646-1.786,13.293-2.679,19.938c0.042,13.538,3.455,26.156,10.24,37.854c9.821,16.766,26.075,29.311,44.822,34.468
			c19.358,5.324,40.47,2.586,57.792-7.561C381.834,577.857,397.513,560.424,400.8,542.116L400.8,542.116z"/>
	</g>
</g>
<g opacity="0.1">
	<g>
		<path fill="#F05123" d="M381.76,428.913c18.706-36.799,37.297-74.58,62.471-107.504c-3.909,5.061-7.818,10.12-11.728,15.18
			c33.099-42.711,78.102-73.474,114.726-112.794c13.719-14.73,21.967-32.628,21.967-53.033c0-19.812-7.965-39.031-21.967-53.033
			c-28.127-28.126-78.201-29.917-106.066,0c-31.107,33.399-68.297,60.44-99.088,94.162c-38.126,41.756-64.417,91.313-89.835,141.316
			c-9.339,18.372-13.147,37.482-7.561,57.791c5.157,18.747,17.701,35.002,34.467,44.823c17.322,10.146,38.434,12.885,57.792,7.561
			C354.749,458.481,373.205,445.742,381.76,428.913L381.76,428.913z"/>
	</g>
</g>
<g opacity="0.1">
	<g>
		<path fill="#F05123" d="M144.181,128.033c39.33,34.604,88.924,56.938,140.781,64.32c26.817,3.817,53.094,6.698,80.13,3.842
			c15.817-1.67,31.879-3.669,47.343-7.618c15.117-3.86,29.687-10.217,43.754-16.785c16.825-7.854,29.712-27.535,34.468-44.822
			c5.324-19.358,2.586-40.471-7.561-57.792c-9.821-16.766-26.076-29.31-44.823-34.467c-6.646-0.893-13.291-1.786-19.938-2.679
			c-13.538,0.042-26.156,3.455-37.854,10.24c-1.838,0.857-3.688,1.679-5.557,2.467c5.973-2.521,11.944-5.041,17.916-7.561
			c-13.555,5.577-27.809,9.034-42.309,11.04c6.646-0.893,13.292-1.786,19.938-2.679c-21.302,2.806-42.871,2.479-64.157-0.314
			c6.646,0.893,13.292,1.786,19.938,2.679c-21.441-2.933-42.491-8.365-62.475-16.71c5.972,2.52,11.944,5.041,17.916,7.561
			c-14.179-6.029-27.692-13.498-39.903-22.926c5.06,3.909,10.119,7.818,15.179,11.727c-2.292-1.803-4.532-3.662-6.722-5.589
			C234.942,8.5,218.088,0,197.214,0c-19.812,0-39.031,7.965-53.033,21.967C130.18,35.969,122.214,55.188,122.214,75
			C122.214,93.742,129.761,115.345,144.181,128.033L144.181,128.033z"/>
	</g>
</g>
<g opacity="0.1">
	<g>
		<path fill="#F05123" d="M268.124,200.642c35.563,12.572,73.957,18.275,111.473,20.452c16.45,0.955,32.979,0.638,49.374-1.004
			c21.406-2.144,43.184-5.008,63.802-11.451c18.859-5.894,34.722-17.224,44.822-34.467c10.146-17.322,12.885-38.434,7.561-57.792
			c-10.558-38.38-53.24-64.576-92.26-52.383c-11.732,3.667-23.748,6.161-35.921,7.831c6.646-0.893,13.292-1.786,19.938-2.679
			c-28.384,3.713-57.192,3.037-85.528-0.768c6.646,0.893,13.292,1.786,19.938,2.679C349.787,68.067,328.513,63.251,308,56
			c-18.313-6.474-41.479-1.996-57.792,7.561c-16.766,9.821-29.31,26.075-34.467,44.822c-5.325,19.358-2.586,40.47,7.561,57.792
			C233.698,183.923,249.182,193.946,268.124,200.642L268.124,200.642z"/>
	</g>
</g>
<g opacity="0.1">
	<g>
		<path fill="#F05123" d="M355.65,452.218c10.843-8.724,20.412-18.8,29.059-29.685c13.178-16.588,25.537-33.296,35.774-51.844
			c9.989-18.098,18.007-37.362,25.548-56.564c5.3-13.495,9.671-27.359,13.126-41.439c4.844-19.744,2.815-40.079-7.561-57.792
			c-9.821-16.766-26.076-29.31-44.822-34.467c-38.562-10.607-82.52,12.688-92.259,52.383c-4.205,17.137-9.835,33.872-16.659,50.142
			c2.52-5.973,5.04-11.944,7.561-17.916c-9.859,23.205-22.12,45.419-37.553,65.4c3.909-5.06,7.818-10.119,11.727-15.179
			c-8.888,11.348-18.763,21.849-30.007,30.895c-3.909,5.06-7.818,10.119-11.727,15.18c-6.784,11.697-10.198,24.315-10.24,37.854
			c0,19.812,7.965,39.031,21.967,53.033c14.002,14.002,33.221,21.967,53.033,21.967c6.646-0.893,13.292-1.786,19.938-2.679
			C335.261,467.943,346.293,461.513,355.65,452.218L355.65,452.218z"/>
	</g>
</g>
<g opacity="0.1">
	<g>
		<path fill="#F05123" d="M376.473,552.864c12.813-13.134,23.348-30.381,26.784-48.605c2.488-13.194,2.909-26.266,4.676-39.444
			c-0.894,6.646-1.786,13.292-2.68,19.938c4.173-26.4,5.755-53.121,9.229-79.611c-0.894,6.646-1.786,13.292-2.68,19.938
			c3.457-25.71,8.695-51.27,18.731-75.291c-2.521,5.972-5.041,11.944-7.561,17.916c15.46-36.151,40.967-66.333,61.479-99.544
			c21.498-34.808,7.696-82.344-26.907-102.614c-17.321-10.147-38.434-12.885-57.791-7.561
			c-19.113,5.257-34.499,17.753-44.823,34.467c-10.412,16.859-22.072,32.883-33.146,49.304c-5.495,8.148-10.777,16.436-15.688,24.95
			c-8.276,14.353-14.473,29.482-20.86,44.77c-8.571,20.515-13.388,42.469-16.752,64.373c-4.463,29.066-7.102,58.268-10.319,87.474
			c0.893-6.646,1.786-13.292,2.679-19.938c-2.025,12.812-3.025,25.251-4.482,38.011c0.893-6.646,1.786-13.292,2.679-19.938
			c-0.522,3.884-1.326,7.592-2.849,11.214c2.521-5.972,5.041-11.943,7.561-17.916c-0.864,1.774-1.835,3.377-3.013,4.96
			c3.909-5.06,7.818-10.119,11.728-15.179c-0.638,0.799-1.325,1.553-2.064,2.26c-28.533,29.245-29.162,76.904,0,106.066
			C299.035,581.492,347.932,582.117,376.473,552.864L376.473,552.864z"/>
	</g>
</g>
<g opacity="0.1">
	<g>
		<path fill="#F05123" d="M348.845,365.055c-0.314-10.844,0.396-21.65,1.836-32.397c-0.894,6.646-1.786,13.292-2.68,19.938
			c3.282-23.366,9.896-46.133,18.948-67.901c-2.521,5.972-5.04,11.944-7.561,17.916c8.712-20.641,19.617-40.351,33.271-58.146
			c-3.909,5.06-7.818,10.119-11.728,15.179c4.078-5.239,8.376-10.28,12.953-15.09c13.807-14.514,21.967-32.804,21.967-53.033
			c0-19.812-7.965-39.031-21.967-53.033c-28.355-28.355-77.892-29.616-106.066,0c-14.725,15.479-27.813,32.944-38.997,51.147
			c-12.054,19.618-21.087,41.074-29.445,62.453c-6.002,15.352-10.62,31.252-13.819,47.42c-4.228,21.36-7.346,43.681-6.713,65.549
			c0.582,20.071,7.633,38.699,21.967,53.033c14.002,14.002,33.221,21.967,53.033,21.967
			C313.832,440.055,350.028,405.938,348.845,365.055L348.845,365.055z"/>
	</g>
</g>
<g opacity="0.1">
	<g>
		<path fill="#F05123" d="M272.436,317.141c-0.47-14.878,0.422-29.727,2.37-44.478c-0.893,6.646-1.786,13.292-2.679,19.938
			c3.806-27.674,11.255-54.756,22.099-80.499c-2.521,5.972-5.041,11.944-7.561,17.916c8.555-20.01,19.147-39.119,32.415-56.403
			c2.52-5.972,5.04-11.944,7.561-17.916c3.571-13.292,3.571-26.584,0-39.876c-5.157-18.747-17.702-35.001-34.467-44.822
			c-17.322-10.147-38.434-12.885-57.792-7.561c-5.972,2.52-11.944,5.041-17.916,7.561c-11.27,6.667-20.239,15.636-26.906,26.906
			c-9.698,12.634-17.957,26.243-25.087,40.474c-10.062,20.081-18.686,41.187-25.446,62.623
			c-5.001,15.859-8.661,32.138-11.101,48.583c-3.331,22.454-6.207,44.827-5.489,67.554c0.634,20.093,7.603,38.669,21.967,53.033
			c14.002,14.002,33.221,21.967,53.033,21.967C237.343,392.141,273.726,358.022,272.436,317.141L272.436,317.141z"/>
	</g>
</g>
<g opacity="0.1">
	<g>
		<path fill="#F05123" d="M220.253,251.662c0.331-2.883,0.688-5.761,1.07-8.638c-0.893,6.646-1.786,13.292-2.679,19.938
			c5.492-40.009,16.413-79.302,31.965-116.559c-2.52,5.972-5.041,11.944-7.561,17.916c2.215-5.248,4.522-10.452,6.93-15.614
			c2.521-5.972,5.041-11.944,7.561-17.916c3.572-13.292,3.572-26.584,0-39.876c-5.157-18.747-17.701-35.001-34.467-44.822
			c-17.321-10.147-38.434-12.885-57.792-7.561c-17.284,4.754-36.973,17.642-44.822,34.467
			c-12.897,27.644-24.221,56.112-32.71,85.426c-8.837,30.516-13.875,61.703-17.495,93.237c0.893,6.646,1.786,13.292,2.679,19.938
			c3.563,12.706,9.993,23.737,19.288,33.096c14.002,14.002,33.221,21.967,53.033,21.967s39.031-7.965,53.033-21.967
			c3.909-5.06,7.818-10.119,11.727-15.18C216.798,277.818,220.211,265.2,220.253,251.662L220.253,251.662z"/>
	</g>
</g>
<g opacity="0.1">
	<g>
		<path fill="#F05123" d="M374.075,266.5c6.562-47.21,29.827-89.663,43.285-134.933c11.646-39.177-13.593-81.589-52.383-92.259
			c-40.015-11.007-80.62,13.226-92.259,52.383c-13.458,45.271-36.723,87.723-43.285,134.934c-0.893,6.646-1.786,13.292-2.679,19.938
			c0.042,13.538,3.455,26.156,10.24,37.854c9.821,16.766,26.075,29.311,44.822,34.468c19.358,5.324,40.47,2.586,57.792-7.561
			c5.061-3.909,10.12-7.818,15.18-11.728C364.082,290.238,370.512,279.207,374.075,266.5L374.075,266.5z"/>
	</g>
</g>
<g opacity="0.1">
	<g>
		<path fill="#F05123" d="M429.258,486.418c2.512-24.249,3.853-48.596,7.075-72.773c-0.446,3.322-0.894,6.646-1.34,9.969
			c2.957-21.714,7.064-43.601,15.605-63.889c-1.26,2.986-2.52,5.972-3.78,8.958c3.341-7.729,7.345-15.107,12.485-21.795
			c-1.955,2.529-3.909,5.06-5.864,7.59c0.464-0.595,0.938-1.183,1.421-1.762c6.56-8.002,10.983-15.796,10.983-26.517
			c0-9.906-3.982-19.516-10.983-26.517S438.25,288.7,428.344,288.7c-9.08,0-20.53,3.682-26.517,10.983
			c-12.233,14.923-20.26,30.293-26.817,48.494c-5.143,14.274-8.245,29.256-10.675,44.201c-5.07,31.198-6.825,62.647-10.077,94.04
			c-0.972,9.377,4.576,20.109,10.983,26.517c7.001,7.001,16.61,10.983,26.517,10.983s19.516-3.982,26.517-10.983
			C425.86,505.349,428.189,496.735,429.258,486.418L429.258,486.418z"/>
	</g>
</g>
<g opacity="0.1">
	<g>
		<path fill="#F05123" d="M334.008,353.706c8.474-27.636,17.079-55.252,28.315-81.915c-1.26,2.986-2.52,5.972-3.78,8.958
			c0.727-1.704,1.46-3.404,2.2-5.102c4.222-9.676,6.7-18.284,3.78-28.896c-2.578-9.373-8.851-17.5-17.233-22.411
			c-8.66-5.073-19.217-6.442-28.896-3.78c-8.446,2.323-18.746,8.831-22.411,17.234c-13.646,31.278-24.303,63.381-34.296,95.975
			c-5.991,19.54,6.923,40.829,26.192,46.129C308.015,385.436,328.021,373.233,334.008,353.706L334.008,353.706z"/>
	</g>
</g>
<g opacity="0.1">
	<g>
		<path fill="#F05123" d="M352.195,477.637c-5.029-48.268-8.868-96.499-4.127-144.965c0.921-9.408-4.543-20.076-10.983-26.517
			c-7.001-7.001-16.61-10.983-26.517-10.983c-9.906,0-19.516,3.982-26.517,10.983c-7.554,7.555-9.976,16.219-10.983,26.517
			c-4.741,48.466-0.902,96.697,4.127,144.965c1.075,10.318,3.395,18.928,10.983,26.517c7.001,7.001,16.611,10.983,26.517,10.983
			c9.906,0,19.516-3.982,26.517-10.983C347.616,497.75,353.172,487.011,352.195,477.637L352.195,477.637z"/>
	</g>
</g>
<g opacity="0.1">
	<g>
		<path fill="#F05123" d="M469.084,373.351c40.684-60.47,53.839-134.375,60.949-205.526c0.939-9.397-4.556-20.088-10.983-26.517
			c-7.001-7.001-16.61-10.983-26.517-10.983s-19.516,3.982-26.517,10.983c-7.565,7.566-9.953,16.212-10.983,26.517
			c-0.975,9.751-2.083,19.487-3.372,29.202c0.446-3.323,0.893-6.646,1.34-9.969c-5.213,38.59-13.401,76.99-28.537,113.002
			c1.26-2.986,2.52-5.972,3.78-8.958c-6.623,15.509-14.503,30.397-23.92,44.396c-11.427,16.982-3.338,41.471,13.453,51.307
			C436.256,397.629,457.698,390.275,469.084,373.351L469.084,373.351z"/>
	</g>
</g>
<g opacity="0.1">
	<g>
		<path fill="#F05123" d="M432.07,265.342c4.424-25.298,12.098-49.742,20.895-73.826c7.02-19.216-7.698-41.042-26.191-46.129
			c-9.679-2.662-20.235-1.293-28.896,3.78c-8.944,5.24-13.771,12.933-17.233,22.412c-8.798,24.083-16.472,48.528-20.895,73.826
			c-1.802,10.305-1.682,19.571,3.78,28.896c4.91,8.383,13.037,14.655,22.411,17.233c9.679,2.663,20.235,1.293,28.896-3.78
			C422.557,283.232,430.473,274.484,432.07,265.342L432.07,265.342z"/>
	</g>
</g>
<g opacity="0.1">
	<g>
		<path fill="#F05123" d="M240.022,420.362c-5.812-10.283-11.623-20.565-17.434-30.849c-10.042-17.771-33.869-23.668-51.307-13.453
			c-17.813,10.434-23.513,33.505-13.453,51.307c5.811,10.283,11.621,20.566,17.433,30.849c10.043,17.77,33.869,23.669,51.307,13.453
			C244.38,461.235,250.083,438.163,240.022,420.362L240.022,420.362z"/>
	</g>
</g>
<g opacity="0.1">
	<g>
		<path fill="#F05123" d="M358.633,227.622c-28.765-16.482-60.86-25.856-91.282-38.661c-8.707-3.665-21.15-0.757-28.896,3.78
			c-8.383,4.911-14.655,13.038-17.234,22.412c-2.662,9.679-1.293,20.235,3.781,28.896c5.426,9.264,12.923,13.241,22.411,17.233
			c18.233,7.675,36.997,14.001,55.242,21.646c-2.986-1.26-5.972-2.521-8.958-3.78c9.264,3.935,18.345,8.228,27.082,13.234
			c17.741,10.166,40.919,4.28,51.307-13.453C382.348,261.412,376.341,237.769,358.633,227.622L358.633,227.622z"/>
	</g>
</g>
<g opacity="0.1">
	<g>
		<path fill="#F05123" d="M324.15,131.668c-6.805-1.969-13.609-3.939-20.414-5.907c-19.629-5.678-40.764,6.688-46.129,26.192
			c-5.473,19.896,6.57,40.454,26.192,46.129c6.805,1.968,13.609,3.938,20.414,5.907c19.628,5.68,40.765-6.689,46.129-26.192
			C355.815,157.9,343.772,137.346,324.15,131.668L324.15,131.668z"/>
	</g>
</g>
<g opacity="0.1">
	<g>
		<path fill="#F05123" d="M333.382,235.641c-11.04,12.85-18.435,27.06-22.916,43.43c-5.394,19.705,6.476,40.706,26.192,46.129
			c19.68,5.414,40.735-6.486,46.129-26.191c1.095-3.999,2.385-7.906,3.961-11.742c-1.26,2.985-2.52,5.972-3.78,8.958
			c1.961-4.485,4.289-8.672,7.211-12.604c-1.954,2.53-3.909,5.06-5.863,7.59c0.669-0.871,1.369-1.716,2.1-2.535
			c6.677-7.771,10.983-15.983,10.983-26.517c0-9.906-3.982-19.516-10.983-26.517C372.785,222.011,346.714,220.125,333.382,235.641
			L333.382,235.641z"/>
	</g>
</g>
<g opacity="0.1">
	<g>
		<path fill="#F05123" d="M368.613,403.438c-23.24,3.38-45.708,10.264-68.097,17.16c-19.519,6.012-31.735,25.974-26.191,46.129
			c5.295,19.25,26.597,32.208,46.13,26.191c22.388-6.896,44.856-13.78,68.096-17.16c9.054-1.316,18.005-9.712,22.411-17.233
			c5.073-8.66,6.443-19.217,3.78-28.896c-2.578-9.374-8.851-17.501-17.233-22.411C387.992,401.643,379.084,401.915,368.613,403.438
			L368.613,403.438z"/>
	</g>
</g>
<g opacity="0.1">
	<g>
		<path fill="#F05123" d="M363.087,353.021c-11.887-7.874-26.115-12.749-40.106-15.25c-10.283-1.839-19.598-1.667-28.896,3.78
			c-8.383,4.91-14.655,13.037-17.234,22.411c-2.662,9.679-1.293,20.235,3.78,28.896c4.538,7.746,13.259,15.598,22.411,17.233
			c7.124,1.274,14.059,3.088,20.761,5.842c-2.986-1.26-5.973-2.52-8.958-3.78c3.636,1.599,7.077,3.434,10.389,5.628
			c17.063,11.303,41.416,3.432,51.307-13.453C387.309,385.945,380.093,364.286,363.087,353.021L363.087,353.021z"/>
	</g>
</g>
<g opacity="0.1">
	<g>
		<path fill="#F05123" d="M371.591,309.142c-1.668-0.091-3.303-0.241-4.959-0.457c3.323,0.446,6.646,0.893,9.97,1.339
			c-7.802-1.308-14.997-4.405-22.262-7.417c-8.748-3.628-21.112-0.779-28.896,3.78c-8.383,4.91-14.655,13.037-17.234,22.411
			c-2.662,9.679-1.293,20.235,3.781,28.896c5.406,9.229,12.922,13.3,22.411,17.233c12.322,5.109,23.611,8.474,37.188,9.215
			c20.429,1.114,37.5-17.901,37.5-37.5C409.091,325.358,391.994,310.255,371.591,309.142L371.591,309.142z"/>
	</g>
</g>
<g opacity="0.1">
	<g>
		<path fill="#F05123" d="M344.909,235.066c-19.641,1.74-39.647,3.467-58.539,9.405c-19.483,6.125-31.76,25.888-26.192,46.129
			c5.272,19.165,26.63,32.321,46.129,26.191c8.528-2.681,17.229-4.446,26.072-5.704c-3.322,0.446-6.646,0.894-9.969,1.34
			c7.478-1.002,14.984-1.695,22.498-2.361c10.267-0.91,19.013-3.48,26.517-10.983c7.001-7.001,10.983-16.61,10.983-26.517
			C382.409,253.491,365.303,233.259,344.909,235.066L344.909,235.066z"/>
	</g>
</g>
<g opacity="0.1">
	<g>
		<path fill="#F05123" d="M237.809,233.569c-10.637,0.408-21.284,0.187-31.92,0.594c-20.42,0.781-37.5,16.467-37.5,37.5
			c0,19.851,17.062,38.281,37.5,37.5c10.637-0.406,21.284-0.187,31.92-0.594c20.42-0.782,37.5-16.466,37.5-37.5
			C275.309,251.219,258.247,232.786,237.809,233.569L237.809,233.569z"/>
	</g>
</g>
<g opacity="0.1">
	<g>
		<path fill="#F05123" d="M315.901,146.8c-6.343,0.736-12.625,0.759-18.965-0.025c3.323,0.446,6.646,0.893,9.969,1.339
			c-2.927-0.442-5.784-1.039-8.64-1.817c-19.71-5.374-40.702,6.461-46.129,26.191c-5.409,19.665,6.482,40.756,26.192,46.13
			c12.071,3.291,25.111,4.628,37.574,3.182c10.354-1.201,18.864-3.331,26.516-10.983c7.001-7.001,10.984-16.611,10.984-26.517
			s-3.983-19.516-10.984-26.517C336.08,151.446,325.209,145.72,315.901,146.8L315.901,146.8z"/>
	</g>
</g>
<g opacity="0.1">
	<g>
		<path fill="#F05123" d="M342.887,175.541c20.442,0,37.5-17.058,37.5-37.5s-17.058-37.5-37.5-37.5s-37.5,17.058-37.5,37.5
			S322.444,175.541,342.887,175.541L342.887,175.541z"/>
	</g>
</g>
<g opacity="0.1">
	<g>
		<path fill="#F05123" d="M366.998,104.596c-0.116,0.065-0.235,0.121-0.359,0.168c2.985-1.26,5.972-2.521,8.958-3.78
			c-0.257,0.088-0.51,0.149-0.777,0.193c3.323-0.446,6.646-0.893,9.97-1.339c-0.563,0.065-1.118,0.047-1.68-0.025
			c3.323,0.447,6.646,0.893,9.97,1.34c-0.3-0.045-0.599-0.097-0.891-0.179c-9.632-2.718-20.281-1.266-28.896,3.78
			c-8.383,4.911-14.655,13.038-17.233,22.411c-2.663,9.679-1.293,20.235,3.78,28.896c4.937,8.429,13.025,14.585,22.411,17.234
			c3.675,1.037,7.574,1.256,11.372,1.573c3.279,0.273,12.443-1.583,11.135-1.369c3.584-0.585,6.882-2.49,10.094-4.141
			c2.53-1.955,5.06-3.909,7.59-5.864c4.647-4.679,7.862-10.195,9.644-16.547c2.663-9.679,1.293-20.235-3.78-28.896
			c-4.91-8.383-13.037-14.655-22.411-17.234c-3.322-0.446-6.646-0.893-9.969-1.339C379.155,99.498,372.847,101.204,366.998,104.596
			L366.998,104.596z"/>
	</g>
</g>
<g opacity="0.1">
	<g>
		<path fill="#F05123" d="M422.982,96.218c-3.356,1.896-6.713,3.792-10.068,5.688c-17.77,10.043-23.668,33.869-13.453,51.307
			c10.434,17.812,33.506,23.514,51.307,13.454c3.356-1.897,6.712-3.793,10.068-5.688c17.772-10.039,23.667-33.873,13.453-51.307
			C463.854,91.857,440.785,86.163,422.982,96.218L422.982,96.218z"/>
	</g>
</g>
<g opacity="0.1">
	<g>
		<path fill="#F05123" d="M460.771,119.44c-15.285,10.747-29.03,23.347-43.761,34.787c2.529-1.955,5.06-3.909,7.589-5.864
			c-2.347,1.793-4.721,3.542-7.137,5.241c-8.254,5.802-14.479,12.397-17.233,22.412c-2.663,9.679-1.293,20.235,3.78,28.896
			c9.678,16.522,34.555,25.23,51.307,13.454c15.285-10.746,29.031-23.346,43.762-34.787c-2.53,1.955-5.061,3.909-7.59,5.863
			c2.347-1.793,4.721-3.542,7.137-5.241c8.254-5.803,14.479-12.397,17.233-22.412c2.663-9.679,1.293-20.235-3.78-28.896
			C502.399,116.373,477.521,107.663,460.771,119.44L460.771,119.44z"/>
	</g>
</g>
<g opacity="0.1">
	<g>
		<path fill="#F05123" d="M446.399,177.952c-16.146,9.172-31.756,19.411-48.844,26.802c2.986-1.26,5.973-2.521,8.958-3.78
			c-2.195,0.917-4.403,1.787-6.636,2.61c-9.48,3.496-17.16,8.269-22.411,17.234c-5.073,8.661-6.443,19.217-3.78,28.896
			c5.074,18.448,26.933,33.27,46.129,26.191c23-8.479,43.254-21.159,64.438-33.192c17.747-10.082,23.686-33.84,13.453-51.307
			C487.289,173.623,464.179,167.853,446.399,177.952L446.399,177.952z"/>
	</g>
</g>
<g opacity="0.1">
	<g>
		<path fill="#F05123" d="M435.783,232.712c0.791-25.108-7.205-48.819-13.966-72.604c-5.584-19.649-26.303-31.646-46.129-26.192
			c-19.572,5.384-31.777,26.476-26.191,46.129c4.331,15.24,9.525,30.257,11.781,45.997c-0.446-3.323-0.893-6.646-1.339-9.969
			c0.703,5.541,1.02,11.054,0.844,16.638c-0.645,20.44,17.546,37.5,37.5,37.5C419.212,270.212,435.14,253.139,435.783,232.712
			L435.783,232.712z"/>
	</g>
</g>
<g opacity="0.1">
	<g>
		<path fill="#F05123" d="M480.067,152.387c-4.281-17.841-11.817-34.645-17.938-51.886c-3.362-9.472-8.351-17.208-17.233-22.411
			c-8.66-5.073-19.217-6.442-28.896-3.78c-18.627,5.124-33.034,26.854-26.191,46.13c6.12,17.241,13.655,34.044,17.938,51.885
			c4.77,19.874,26.925,31.474,46.129,26.192C474.058,192.965,484.834,172.248,480.067,152.387L480.067,152.387z"/>
	</g>
</g>
<g opacity="0.1">
	<g>
		<path fill="#F05123" d="M509.94,154.886c-2.395-12.789-8.076-25.485-15.635-36.064c-9.81-13.729-20.688-23.75-34.139-33.856
			c-7.607-5.716-20.136-6.19-28.896-3.78c-9.374,2.579-17.501,8.851-22.411,17.234c-5.073,8.661-6.443,19.217-3.78,28.896
			c2.819,10.251,9.06,16.27,17.233,22.411c0.836,0.619,1.664,1.25,2.482,1.892c-2.529-1.955-5.06-3.909-7.589-5.864
			c6.434,5.112,12.271,10.798,17.304,17.304c-1.954-2.53-3.909-5.06-5.863-7.589c3.584,4.817,6.6,9.907,8.976,15.425
			c-1.26-2.986-2.52-5.972-3.78-8.958c1.689,4.189,2.945,8.447,3.777,12.887c3.766,20.107,27.684,31.266,46.129,26.192
			c9.374-2.579,17.501-8.851,22.411-17.234C511.574,174.54,511.857,165.118,509.94,154.886L509.94,154.886z"/>
	</g>
</g>
<g opacity="0.1">
	<g>
		<path fill="#F05123" d="M374.345,61.026c-4.096,1.398-8.215,2.371-12.496,2.991c3.323-0.447,6.646-0.893,9.969-1.34
			c-9.035,1.057-17.995,0.447-26.982-0.756c3.322,0.446,6.646,0.893,9.969,1.339c-5.942-0.845-11.854-1.876-17.779-2.827
			c-10.388-1.666-19.477-1.737-28.896,3.78c-8.383,4.911-14.655,13.038-17.234,22.412c-2.662,9.679-1.293,20.235,3.781,28.896
			c4.465,7.623,13.312,15.774,22.411,17.234c25.667,4.117,51.785,9.27,77.195,0.593c19.326-6.6,31.861-25.52,26.191-46.129
			C415.302,68.414,393.696,54.418,374.345,61.026L374.345,61.026z"/>
	</g>
</g>
<g opacity="0.1">
	<g>
		<path fill="#F05123" d="M318.37,125.437c20.442,0,37.5-17.058,37.5-37.5s-17.058-37.5-37.5-37.5c-20.442,0-37.5,17.058-37.5,37.5
			S297.928,125.437,318.37,125.437L318.37,125.437z"/>
	</g>
</g>
<g opacity="0.1">
	<g>
		<path fill="#F05123" d="M320.811,53.244c-7.792-4.552-15.336-9.511-23.128-14.065c-17.655-10.319-40.984-4.168-51.307,13.454
			c-10.329,17.632-4.166,41.009,13.453,51.307c7.792,4.554,15.335,9.513,23.128,14.065c17.658,10.314,40.982,4.171,51.307-13.454
			C344.591,86.922,338.433,63.537,320.811,53.244L320.811,53.244z"/>
	</g>
</g>
<g opacity="0.1">
	<g>
		<path fill="#F05123" d="M179.64,117.204c-4.202,0.335-8.291,0.135-12.465-0.421c3.323,0.446,6.646,0.893,9.969,1.339
			c-8.455-1.339-16.659-3.826-25.042-5.517c-10.146-2.045-19.75-1.578-28.896,3.78c-8.383,4.911-14.655,13.038-17.234,22.412
			c-5.131,18.653,6.145,42.087,26.191,46.129c15.625,3.15,31.326,8.566,47.477,7.277c10.236-0.817,19.062-3.529,26.517-10.983
			c7.001-7.001,10.983-16.611,10.983-26.517C217.14,135.495,200.045,115.574,179.64,117.204L179.64,117.204z"/>
	</g>
</g>
<g opacity="0.1">
	<g>
		<path fill="#F05123" d="M118.906,104.229c-5.721-1.698-11.299-3.738-16.799-6.051c2.986,1.26,5.972,2.52,8.958,3.78
			c-8.096-3.504-15.926-7.528-23.644-11.794c-17.894-9.891-40.801-4.482-51.307,13.454c-10.141,17.312-4.413,41.431,13.453,51.307
			c15.701,8.679,32.17,16.512,49.401,21.626c19.591,5.814,40.792-6.79,46.129-26.192C150.6,130.357,138.487,110.041,118.906,104.229
			L118.906,104.229z"/>
	</g>
</g>
<g opacity="0.1">
	<g>
		<path fill="#F05123" d="M47.374,160.767c22.026-4.646,44.375-7.862,66.049-14.065c19.638-5.621,31.652-26.275,26.191-46.13
			c-5.376-19.545-26.485-31.814-46.13-26.191C71.811,80.584,49.462,83.8,27.437,88.446c-20.007,4.22-31.36,27.342-26.192,46.13
			C6.908,155.164,27.392,164.982,47.374,160.767L47.374,160.767z"/>
	</g>
</g>
<g opacity="0.1">
	<g>
		<path fill="#F05123" d="M80.406,199.588c20.299-11.408,40.556-21.912,57.703-38.058c14.881-14.013,14.123-38.911,0-53.033
			c-14.772-14.772-38.163-14.003-53.033,0c-2.53,2.382-5.147,4.638-7.866,6.801c2.53-1.955,5.06-3.909,7.589-5.864
			c-13.077,10.086-27.908,17.334-42.247,25.393c-17.794,10-23.65,33.901-13.454,51.307
			C39.551,203.978,62.582,209.606,80.406,199.588L80.406,199.588z"/>
	</g>
</g>
<g opacity="0.1">
	<g>
		<path fill="#F05123" d="M104.479,221.528c18.056-4.526,35.675-10.495,53.27-16.536c19.314-6.632,31.867-25.495,26.191-46.129
			c-5.166-18.78-26.788-32.833-46.13-26.192c-17.594,6.041-35.213,12.01-53.27,16.536c-19.821,4.968-31.515,26.774-26.191,46.13
			C63.86,215.37,84.666,226.494,104.479,221.528L104.479,221.528z"/>
	</g>
</g>
<g opacity="0.1">
	<g>
		<path fill="#F05123" d="M180.581,94.491c0.776-1.149,1.579-2.273,2.414-3.381c-1.955,2.53-3.909,5.06-5.864,7.589
			c3.128-4.025,6.681-7.651,10.086-11.434c6.785-7.539,10.983-16.172,10.983-26.517c0-9.906-3.982-19.516-10.983-26.517
			c-13.878-13.878-39.354-15.199-53.033,0c-6.499,7.221-12.889,14.294-18.362,22.406c-5.452,8.079-6.302,19.729-3.781,28.896
			c2.579,9.374,8.851,17.501,17.234,22.412c8.661,5.073,19.217,6.442,28.896,3.78C168.038,109.01,174.985,102.784,180.581,94.491
			L180.581,94.491z"/>
	</g>
</g>
<g opacity="0.1">
	<g>
		<path fill="#F05123" d="M160.428,82.658c1.918-1.083,3.835-2.167,5.753-3.251c8.396-4.746,14.688-13.159,17.234-22.412
			c2.662-9.679,1.293-20.235-3.78-28.896c-4.911-8.383-13.038-14.655-22.411-17.234c-9.803-2.696-20.097-1.193-28.896,3.78
			c-1.917,1.084-3.835,2.168-5.753,3.251c-8.396,4.743-14.689,13.161-17.234,22.412c-2.662,9.679-1.293,20.235,3.78,28.896
			c4.911,8.383,13.038,14.655,22.411,17.234C141.337,89.135,151.627,87.629,160.428,82.658L160.428,82.658z"/>
	</g>
</g>
<g opacity="0.1">
	<g>
		<path fill="#F05123" d="M207.262,168.566c0.868-1.31,1.741-2.613,2.696-3.862c-1.955,2.53-3.909,5.06-5.864,7.589
			c0.926-1.168,1.917-2.243,3.088-3.169c-2.53,1.955-5.06,3.909-7.589,5.864c0.386-0.28,0.774-0.538,1.184-0.782
			c8.375-4.999,14.638-12.973,17.234-22.412c2.662-9.679,1.293-20.235-3.781-28.896c-4.91-8.383-13.038-14.655-22.411-17.234
			c-9.612-2.644-20.31-1.345-28.896,3.78c-4.048,2.416-8.1,5.415-11.223,9.026c-3.324,3.843-6.387,7.992-9.198,12.241
			c-5.402,8.162-6.322,19.657-3.781,28.896c2.579,9.373,8.851,17.5,17.234,22.411c8.661,5.073,19.217,6.442,28.896,3.78
			c2.986-1.26,5.972-2.521,8.958-3.78C199.444,178.686,203.928,174.202,207.262,168.566L207.262,168.566z"/>
	</g>
</g>
<g opacity="0.1">
	<g>
		<path fill="#F05123" d="M193.47,151.202c11.39-6.681,20.085-15.834,28.717-25.555c6.754-7.607,10.983-16.117,10.983-26.517
			c0-9.906-3.982-19.516-10.983-26.517c-13.806-13.806-39.455-15.292-53.033,0c-4.909,5.528-9.652,11.207-15.43,15.865
			c2.53-1.955,5.06-3.909,7.589-5.864c-1.831,1.396-3.711,2.662-5.697,3.827c-17.603,10.325-23.794,33.654-13.453,51.307
			C152.473,155.35,175.83,161.548,193.47,151.202L193.47,151.202z"/>
	</g>
</g>
<g opacity="0.1">
	<g>
		<path fill="#F05123" d="M169.898,129.636c17.597-9.991,34.617-20.973,53.265-28.975c-2.986,1.26-5.972,2.52-8.958,3.78
			c1.69-0.706,3.386-1.393,5.09-2.063c9.489-3.733,17.076-8.125,22.411-17.234c5.074-8.661,6.443-19.217,3.781-28.896
			c-2.579-9.374-8.851-17.501-17.234-22.412c-7.911-4.634-20.006-7.277-28.896-3.78c-23.854,9.384-45.127,22.223-67.313,34.818
			c-17.75,10.077-23.684,33.843-13.454,51.307C129.01,133.968,152.117,139.73,169.898,129.636L169.898,129.636z"/>
	</g>
</g>
<g opacity="0.1">
	<g>
		<path fill="#F05123" d="M124.543,146.232c12.306-3.089,24.44-6.848,37.021-8.692c-3.323,0.446-6.646,0.893-9.969,1.339
			c6.808-0.882,13.558-1.137,20.399-0.5c9.433,0.879,20.05-4.518,26.517-10.983c7.001-7.001,10.983-16.611,10.983-26.517
			s-3.982-19.516-10.983-26.517c-7.529-7.529-16.234-10.024-26.517-10.983c-22.966-2.142-45.4,5.011-67.389,10.531
			c-19.82,4.975-31.517,26.769-26.192,46.129C83.923,140.069,104.732,151.205,124.543,146.232L124.543,146.232z"/>
	</g>
</g>
<g opacity="0.1">
	<g>
		<path fill="#F05123" d="M194.123,200.179c1.227-8.83,2.435-17.282,2.146-26.17c-0.284-8.726-1.662-17.495-3.313-26.054
			c-3.875-20.084-27.602-31.288-46.129-26.192c-9.374,2.579-17.501,8.851-22.411,17.234c-5.392,9.204-5.749,18.697-3.781,28.896
			c0.453,2.348,0.846,4.697,1.181,7.064c-0.447-3.323-0.893-6.646-1.34-9.969c0.97,7.823,1.135,15.613,0.233,23.451
			c0.447-3.323,0.893-6.646,1.34-9.969c-0.083,0.591-0.165,1.181-0.247,1.772c-1.46,10.505-1.819,19.336,3.78,28.896
			c4.911,8.383,13.038,14.655,22.411,17.234c9.679,2.662,20.235,1.293,28.896-3.78C184.367,218.21,192.867,209.213,194.123,200.179
			L194.123,200.179z"/>
	</g>
</g>
<g opacity="0.1">
	<g>
		<path fill="#F05123" d="M153.648,230.149c20.442,0,37.5-17.058,37.5-37.5s-17.058-37.5-37.5-37.5s-37.5,17.058-37.5,37.5
			S133.207,230.149,153.648,230.149L153.648,230.149z"/>
	</g>
</g>
<g opacity="0.1">
	<g>
		<path fill="#F05123" d="M178.919,234.091c10.888,1.95,21.508,5.028,31.757,9.188c8.806,3.575,21.061,0.809,28.896-3.78
			c8.383-4.911,14.655-13.038,17.234-22.412c2.662-9.679,1.293-20.235-3.781-28.896c-5.377-9.181-12.921-13.381-22.411-17.234
			c-10.248-4.161-20.868-7.239-31.756-9.188c-10.281-1.841-19.6-1.665-28.896,3.78c-8.383,4.911-14.655,13.038-17.234,22.412
			c-2.662,9.679-1.293,20.235,3.78,28.896C161.047,224.605,169.766,232.452,178.919,234.091L178.919,234.091z"/>
	</g>
</g>
<g opacity="0.1">
	<g>
		<path fill="#F05123" d="M236.247,298.602c1.512,0.438,3.024,0.875,4.535,1.313c9.579,2.78,20.335,1.235,28.896-3.78
			c8.383-4.91,14.655-13.037,17.234-22.411c2.662-9.679,1.293-20.235-3.78-28.896c-4.968-8.48-13.013-14.506-22.411-17.234
			c-1.512-0.438-3.024-0.876-4.536-1.313c-9.587-2.77-20.326-1.24-28.896,3.78c-8.383,4.911-14.655,13.038-17.234,22.412
			c-2.662,9.679-1.293,20.235,3.781,28.896C218.798,289.84,226.851,295.887,236.247,298.602L236.247,298.602z"/>
	</g>
</g>
<g opacity="0.1">
	<g>
		<path fill="#F05123" d="M265.25,320.196c2.746,0.12,5.469,0.336,8.198,0.661c-3.323-0.446-6.646-0.893-9.969-1.34
			c5.546,0.779,10.882,2.064,16.069,4.198c-2.986-1.26-5.972-2.52-8.958-3.78c1.5,0.682,2.948,1.407,4.39,2.203
			c17.897,9.885,40.798,4.487,51.307-13.453c10.139-17.307,4.417-41.438-13.453-51.307c-14.841-8.197-30.759-11.443-47.584-12.182
			c-20.435-0.897-37.5,17.737-37.5,37.5C227.75,303.816,244.835,319.299,265.25,320.196L265.25,320.196z"/>
	</g>
</g>
<g opacity="0.1">
	<g>
		<path fill="#F05123" d="M287.017,380.022c13.755-5.463,26.33-11.63,38.106-20.597c11.952-9.101,22.968-18.764,33.255-29.711
			c13.986-14.886,14.784-38.249,0-53.033c-14.111-14.11-39.036-14.896-53.033,0c-8.016,8.53-16.422,16.647-25.665,23.848
			c2.53-1.954,5.06-3.909,7.59-5.863c-8.085,6.156-16.667,11.454-25.989,15.529c2.986-1.26,5.972-2.52,8.958-3.78
			c-1.046,0.447-2.099,0.876-3.16,1.287c-9.489,3.769-17.063,8.103-22.411,17.233c-5.073,8.66-6.442,19.217-3.78,28.896
			c2.579,9.374,8.851,17.501,17.234,22.411C266.008,380.863,278.152,383.543,287.017,380.022L287.017,380.022z"/>
	</g>
</g>
<g opacity="0.1">
	<g>
		<path fill="#F05123" d="M290.741,268.161c0.067-0.593,0.133-1.186,0.2-1.779c-0.446,3.323-0.893,6.646-1.339,9.97
			c0.827-5.709,2.397-11.121,4.563-16.462c-1.26,2.986-2.52,5.973-3.78,8.958c2.868-6.679,6.454-12.964,10.11-19.235
			c10.3-17.667,4.183-40.976-13.453-51.307c-17.618-10.32-41.028-4.177-51.307,13.454c-3.656,6.271-7.243,12.557-10.11,19.235
			c-2.404,5.599-4.846,11.087-6.586,16.917c-1.944,6.514-2.546,13.573-3.298,20.25c-1.05,9.327,4.626,20.159,10.983,26.517
			c7.001,7.001,16.611,10.983,26.517,10.983s19.516-3.982,26.517-10.983C287.392,287.042,289.577,278.504,290.741,268.161
			L290.741,268.161z"/>
	</g>
</g>
<g opacity="0.1">
	<g>
		<path fill="#F05123" d="M269.059,248.032c16.656-11.788,33.385-23.593,48.851-36.933c15.489-13.361,13.65-39.382,0-53.033
			c-7.001-7.001-16.611-10.983-26.517-10.983c-10.518,0-18.765,4.297-26.517,10.983c-4.185,3.609-8.477,7.078-12.846,10.461
			c2.53-1.955,5.06-3.909,7.589-5.864c-9.29,7.12-18.863,13.849-28.415,20.608c-8.247,5.836-14.473,12.374-17.234,22.412
			c-2.662,9.679-1.293,20.235,3.78,28.896C227.407,251.06,252.343,259.862,269.059,248.032L269.059,248.032z"/>
	</g>
</g>
<g opacity="0.1">
	<g>
		<path fill="#F05123" d="M262.073,242.218c15.194,6.544,30.335,13.605,43.522,23.729c-2.53-1.955-5.06-3.909-7.59-5.864
			c2.837,2.252,5.536,4.622,8.099,7.182c14.457,14.438,38.579,14.455,53.033,0c14.44-14.44,14.457-38.594,0-53.033
			c-16.724-16.703-37.759-27.535-59.211-36.775c-9.713-4.183-18.248-6.709-28.896-3.78c-9.374,2.579-17.501,8.851-22.411,17.234
			c-5.074,8.661-6.443,19.217-3.781,28.896C247.153,228.217,253.673,238.6,262.073,242.218L262.073,242.218z"/>
	</g>
</g>
<g opacity="0.1">
	<g>
		<path fill="#F05123" d="M233.24,280.071c-0.671,3.048-1.65,5.962-2.854,8.84c1.26-2.985,2.52-5.972,3.78-8.958
			c-1.914,4.303-4.259,8.316-7.056,12.105c1.955-2.53,3.909-5.061,5.864-7.59c-2.577,3.328-5.415,6.33-8.727,8.937
			c2.53-1.955,5.06-3.909,7.59-5.864c-1.884,1.383-3.819,2.569-5.938,3.558c2.986-1.26,5.972-2.52,8.958-3.78
			c-1.7,0.701-3.383,1.216-5.192,1.549c3.323-0.446,6.646-0.893,9.969-1.339c-1.801,0.224-3.504,0.228-5.304-0.004
			c3.323,0.446,6.646,0.893,9.969,1.34c-1.487-0.292-2.854-0.711-4.255-1.288c2.986,1.261,5.972,2.521,8.958,3.78
			c-1.504-0.734-2.86-1.575-4.208-2.566c2.53,1.954,5.06,3.909,7.589,5.863c-1.092-0.9-2.1-1.833-3.094-2.842
			c-14.347-14.551-38.662-14.371-53.033,0c-14.524,14.524-14.344,38.485,0,53.033c19.28,19.554,50.693,24.151,73.437,7.457
			c17.287-12.69,31.173-30.977,35.87-52.293c4.394-19.944-5.735-40.502-26.191-46.129
			C260.447,248.674,237.639,260.105,233.24,280.071L233.24,280.071z"/>
	</g>
</g>
<g opacity="0.1">
	<g>
		<path fill="#F05123" d="M215.966,259.017c14.32-13.665,29.656-26.234,43.694-40.197c14.486-14.41,14.418-38.614,0-53.033
			c-14.477-14.476-38.548-14.409-53.033,0c-14.038,13.963-29.374,26.533-43.694,40.197c-14.787,14.109-14.194,38.839,0,53.033
			C177.634,273.717,201.187,273.118,215.966,259.017L215.966,259.017z"/>
	</g>
</g>
<g opacity="0.1">
	<g>
		<path fill="#F05123" d="M248.332,195.251c10.363,9.52,21.009,20.091,34.039,25.805c9.66,4.236,18.297,6.695,28.896,3.78
			c9.374-2.579,17.501-8.851,22.411-17.234c5.073-8.661,6.443-19.217,3.78-28.896c-2.327-8.46-8.829-18.726-17.233-22.411
			c-4.596-2.015-8.698-4.694-12.666-7.749c2.53,1.954,5.06,3.909,7.589,5.863c-4.797-3.837-9.262-8.039-13.783-12.191
			c-15.042-13.817-38.127-14.906-53.033,0C234.343,156.207,233.276,181.421,248.332,195.251L248.332,195.251z"/>
	</g>
</g>
<g opacity="0.1">
	<g>
		<path fill="#F05123" d="M418.701,200.255c4.402-6.58,9.314-12.799,13.717-19.378c11.383-17.011,3.371-41.452-13.453-51.307
			c-8.66-5.073-19.217-6.442-28.896-3.78c-9.839,2.707-16.857,8.933-22.411,17.234c-4.403,6.579-9.314,12.798-13.717,19.378
			c-11.382,17.011-3.372,41.451,13.453,51.307c8.66,5.073,19.217,6.442,28.896,3.78
			C406.128,214.783,413.147,208.556,418.701,200.255L418.701,200.255z"/>
	</g>
</g>
<g opacity="0.1">
	<g>
		<path fill="#F05123" d="M375.209,105.58c-0.046-0.095-0.093-0.19-0.139-0.285c1.26,2.986,2.52,5.972,3.78,8.958
			c-0.114-0.321-0.186-0.62-0.237-0.957c0.447,3.323,0.894,6.646,1.34,9.969c-0.036-0.497-0.02-0.974,0.029-1.47
			c-0.447,3.323-0.894,6.646-1.34,9.969c0.156-1.127,0.44-2.222,0.731-3.321c2.587-9.741,1.33-20.172-3.78-28.896
			c-4.91-8.383-13.037-14.655-22.411-17.234c-9.679-2.662-20.235-1.293-28.896,3.78c-8.321,4.875-14.749,13.055-17.234,22.412
			c-1.153,4.341-1.632,8.816-2.071,13.29c-0.76,7.737,2.179,14.915,5.467,21.638c1.954,2.53,3.909,5.06,5.863,7.59
			c4.679,4.647,10.195,7.862,16.548,9.644c9.679,2.662,20.235,1.293,28.896-3.78c8.383-4.911,14.655-13.038,17.233-22.412
			c0.447-3.323,0.894-6.646,1.34-9.969C380.308,117.737,378.602,111.428,375.209,105.58L375.209,105.58z"/>
	</g>
</g>
<g opacity="0.1">
	<g>
		<path fill="#F05123" d="M483.459,154.008c4.314-2.438,8.63-4.877,12.944-7.314c17.772-10.039,23.666-33.873,13.453-51.307
			c-10.436-17.815-33.504-23.509-51.307-13.454c-4.315,2.438-8.63,4.876-12.944,7.314c-17.771,10.042-23.668,33.87-13.453,51.307
			C442.586,158.367,465.657,164.067,483.459,154.008L483.459,154.008z"/>
	</g>
</g>
<g opacity="0.1">
	<g>
		<path fill="#F05123" d="M551.507,153.036c3.188-0.848,6.379-1.597,9.648-2.058c-3.322,0.446-6.646,0.893-9.969,1.339
			c2.694-0.308,5.346-0.377,8.052-0.192c9.566,0.653,19.908-4.375,26.517-10.983c7.001-7.001,10.983-16.611,10.983-26.517
			s-3.982-19.516-10.983-26.517c-7.39-7.39-16.323-10.288-26.517-10.983c-9.251-0.631-18.745,1.216-27.669,3.589
			c-19.745,5.251-31.575,26.559-26.191,46.13C510.83,146.667,531.765,158.286,551.507,153.036L551.507,153.036z"/>
	</g>
</g>
</svg>
