<?xml version="1.0" encoding="utf-8"?>
<!-- Generator: Adobe Illustrator 16.0.0, SVG Export Plug-In . SVG Version: 6.00 Build 0)  -->
<!DOCTYPE svg PUBLIC "-//W3C//DTD SVG 1.1//EN" "http://www.w3.org/Graphics/SVG/1.1/DTD/svg11.dtd">
<svg version="1.1" id="Layer_1" xmlns="http://www.w3.org/2000/svg" xmlns:xlink="http://www.w3.org/1999/xlink" x="0px" y="0px"
	 width="1308.131px" height="986.098px" viewBox="0 0 1308.131 986.098" enable-background="new 0 0 1308.131 986.098"
	 xml:space="preserve">
<path fill="#FFFFFF" d="M1284.942,179.503c-22.029-10.677-158.256-50.497-170.034-57.092c0.46-2.882,0.689-5.799,0.689-8.738
	c0-58.395-91.899-105.74-205.26-105.74c-113.37,0-205.27,47.345-205.27,105.74c0,4.548,0.56,9.029,1.64,13.42
	c-20.41,12.168-38.94,26.08-55.18,41.444c-12.59-16.382-27.13-31.556-43.34-45.277c1.85-5.699,2.81-11.554,2.81-17.532
	C610.998,47.333,519.098,0,405.738,0c-102,0-186.62,38.316-202.56,88.543c-17.347,9.769-156.48,61.929-171.307,74.294
	c-0.03-0.543,0.149-1.58,0.498-3.007c-1.286,0.684-2.587,1.338-3.911,1.944C9.962,220.798,0,283.452,0,348.377
	C0,700.58,292.835,986.098,654.065,986.098s654.065-285.518,654.065-637.721C1308.131,289.913,1300.054,233.291,1284.942,179.503z"
	/>
</svg>
