<?xml version="1.0" encoding="utf-8"?>
<!-- Generator: Adobe Illustrator 16.0.0, SVG Export Plug-In . SVG Version: 6.00 Build 0)  -->
<!DOCTYPE svg PUBLIC "-//W3C//DTD SVG 1.1//EN" "http://www.w3.org/Graphics/SVG/1.1/DTD/svg11.dtd">
<svg version="1.1" xmlns="http://www.w3.org/2000/svg" xmlns:xlink="http://www.w3.org/1999/xlink" x="0px" y="0px"
	 width="364.912px" height="163.593px" viewBox="0 0 364.912 163.593" enable-background="new 0 0 364.912 163.593"
	 xml:space="preserve">
<g id="Layer_1" display="none">
	<g id="Layer_2" display="inline">
		<path opacity="0.1" fill="#FF0000" enable-background="new    " d="M25.54,122.019c13.381-13.137,36.391-14.68,54.071-16.51
			c17.056-1.766,35.726-3.154,52.161,2.865c17.521,6.418,28.744,19.771,34.996,37.094c0.292,0.811,0.369,1.556,0.286,2.23
			c1.324,2.129,2.558,4.316,3.812,6.53c1.51,2.667,3.883,8.222,7.41,8.747c8.438,1.259,17.754-7.979,21.354-14.702
			c0.23-0.433,0.499-0.797,0.788-1.11c2.739-10.896,9.274-20.32,19.14-26.883c8.896-5.92,19.17-9.509,29.711-11.521
			c11.364-3.822,23.537-4.909,35.082-1.686c10.027,0.859,19.916,2.908,29.416,6.334c-30.332-35.536-82.06-58.945-140.78-58.945
			c-63.522,0-118.856,27.394-147.779,67.899C25.32,122.25,25.425,122.13,25.54,122.019z"/>
		<path opacity="0.1" fill="#FF0000" enable-background="new    " d="M79.611,105.509c17.056-1.766,35.726-3.155,52.161,2.863
			c17.521,6.418,28.744,19.771,34.996,37.096c0.292,0.81,0.369,1.555,0.286,2.229c1.324,2.129,2.558,4.317,3.812,6.531
			c1.51,2.667,3.883,8.221,7.41,8.747c8.438,1.259,17.754-7.978,21.354-14.702c0.23-0.434,0.499-0.797,0.788-1.109
			c2.739-10.896,9.274-20.322,19.14-26.885c3.188-2.121,6.56-3.939,10.051-5.498c-12.854-37.853-51.023-65.319-96.16-65.319
			c-44.819,0-82.781,27.077-95.902,64.514C50.425,108.074,66.485,106.869,79.611,105.509z"/>
		<path opacity="0.1" fill="#FF0000" enable-background="new    " d="M284.347,107.072c7.11,0.611,14.149,1.819,21.03,3.692
			c-3.633-51.683-24.377-91.301-49.43-91.301c-27.614,0-50,48.129-50,107.5c0,2.363,0.043,4.703,0.112,7.027
			c3.375-5.32,7.893-9.98,13.496-13.709c8.896-5.92,19.172-9.509,29.713-11.521C260.631,104.938,272.802,103.85,284.347,107.072z"/>
		<path opacity="0.1" fill="#FF0000" enable-background="new    " d="M189.28,29.463c-47.864,0-86.667,26.49-86.667,59.167
			c0,5.324,1.031,10.481,2.962,15.39c8.972,0.161,17.871,1.306,26.196,4.354c17.521,6.418,28.744,19.771,34.996,37.094
			c0.039,0.109,0.066,0.215,0.098,0.32c7.151,1.305,14.661,2.008,22.413,2.008c3.728,0,7.396-0.166,10.996-0.48
			c0.047-0.054,0.096-0.1,0.143-0.15c2.74-10.896,9.273-20.322,19.139-26.885c8.896-5.92,19.172-9.509,29.713-11.521
			c7.52-2.528,15.394-3.863,23.205-3.543c2.252-5.264,3.474-10.826,3.474-16.586C275.947,55.953,237.146,29.463,189.28,29.463z"/>
		<path opacity="0.1" fill="#FF0000" enable-background="new    " d="M79.611,105.509c17.056-1.766,35.726-3.155,52.161,2.863
			c3.951,1.447,7.565,3.266,10.891,5.383c2.113-6.506,3.284-13.569,3.284-20.961c0-32.215-22.013-58.333-49.167-58.333
			c-27.154,0-49.167,26.117-49.167,58.333c0,5.924,0.75,11.64,2.134,17.026C59.738,107.343,70.397,106.462,79.611,105.509z"/>
		<path opacity="0.1" fill="#FF0000" enable-background="new    " d="M247.613,64.463c-39.58,0-71.666,23.505-71.666,52.5
			c0,14.172,7.704,27,20.167,36.438c1.441-1.732,2.646-3.502,3.516-5.125c0.241-0.449,0.521-0.826,0.823-1.146
			c2.739-10.879,9.253-20.293,19.104-26.848c8.896-5.919,19.17-9.508,29.711-11.52c11.369-3.824,23.545-4.911,35.094-1.684
			c11.963,1.027,23.726,3.752,34.869,8.479C318.21,87.214,286.55,64.463,247.613,64.463z"/>
		<path opacity="0.1" fill="#FF0000" enable-background="new    " d="M145.114,22.796c-23.473,0-42.5,26.117-42.5,58.333
			c0,8.128,1.214,15.865,3.402,22.896c8.823,0.189,17.567,1.35,25.756,4.348c13.688,5.014,23.517,14.274,30.15,26.34
			c15.111-8.94,25.69-29.563,25.69-53.583C187.614,48.913,168.586,22.796,145.114,22.796z"/>
		<ellipse opacity="0.1" fill="#FF0000" enable-background="new    " cx="196.78" cy="41.963" rx="15.833" ry="19.167"/>
		<path opacity="0.1" fill="#FF0000" enable-background="new    " d="M314.085,113.521c2.415,0.879,4.807,1.842,7.166,2.902"/>
		<ellipse opacity="0.1" fill="#FF0000" enable-background="new    " cx="299.28" cy="75.296" rx="15" ry="15.833"/>
		<path opacity="0.1" fill="#FF0000" enable-background="new    " d="M280.715,36.963c-18.516,0-33.646,32.058-34.704,72.476
			c1.023-0.229,2.055-0.421,3.084-0.62c11.408-3.868,23.639-4.983,35.236-1.75c10.641,0.912,21.122,3.167,31.152,6.979
			c0-0.027,0-0.055,0-0.082C315.485,71.438,299.918,36.963,280.715,36.963z"/>
		<path opacity="0.1" fill="#FF0000" enable-background="new    " d="M342.614,121.962c0-18.869-13.059-34.166-29.167-34.166
			c-11.638,0-21.677,7.99-26.355,19.539c11.745,1.265,23.265,4.192,34.16,9.086"/>
		<path opacity="0.1" fill="#FF0000" enable-background="new    " d="M75.561,105.919C73.54,96.565,63.666,89.462,51.78,89.462
			c-13.347,0-24.167,8.955-24.167,20c0,3.154,0.885,6.137,2.456,8.789C42.569,109.371,60.477,107.44,75.561,105.919z"/>
		<path opacity="0.1" fill="#FF0000" enable-background="new    " d="M25.54,122.019c6.097-5.984,14.195-9.559,22.875-11.854
			c-3.23-1.51-6.902-2.369-10.801-2.369c-12.887,0-23.333,9.328-23.333,20.834"/>
		<path opacity="0.1" fill="#FF0000" enable-background="new    " d="M166.768,145.468c0.292,0.811,0.369,1.556,0.286,2.23
			c1.324,2.129,2.558,4.316,3.812,6.53c1.51,2.667,3.883,8.222,7.41,8.747c8.438,1.259,17.754-7.979,21.354-14.702
			c0.236-0.442,0.51-0.812,0.807-1.128c0.996-3.959,2.486-7.725,4.469-11.229c-7.489-11.069-18.801-18.123-31.457-18.123
			c-6.949,0-13.49,2.133-19.219,5.881C159.637,129.822,163.778,137.184,166.768,145.468z"/>
		<path opacity="0.1" fill="#FF0000" enable-background="new    " d="M131.772,108.375c1.446,0.529,2.833,1.123,4.194,1.746
			c1.063-3.592,1.647-7.459,1.647-11.49c0-18.871-12.685-34.167-28.333-34.167c-15.648,0-28.333,15.297-28.333,34.167
			c0,2.289,0.19,4.525,0.546,6.688C98.034,103.654,115.938,102.574,131.772,108.375z"/>
		<ellipse opacity="0.1" fill="#FF0000" enable-background="new    " cx="185.947" cy="83.63" rx="31.667" ry="15.833"/>
		<path opacity="0.1" fill="#FF0000" enable-background="new    " d="M219.572,120.271c6.032-4.012,12.704-6.945,19.657-9.051
			c4.137-6.526,6.718-15.723,6.718-25.924c0-19.791-9.7-35.833-21.666-35.833c-11.968,0-21.667,16.043-21.667,35.833
			C202.614,102.412,209.871,116.712,219.572,120.271z"/>
	</g>
	<g id="mask">
		<path display="inline" fill="#FFFFFF" d="M182.456,0C81.688,0,0,63.366,0,141.533c0,2.077,0.061,4.145,0.176,6.201
			c4.892-4.08,10.208-7.779,15.856-11.092c2.255-5.379,5.191-10.385,9.508-14.624c6.522-6.401,15.333-10.046,24.697-12.315
			c11.92-4.109,26.245-6.509,41.664-6.509c5.527,0,10.908,0.317,16.095,0.901c8.148,0.314,16.201,1.504,23.776,4.279
			c2.997,1.098,5.795,2.412,8.43,3.9c16.341,7.09,26.732,17.701,26.732,29.568c0,1.121-0.1,2.229-0.282,3.324
			c0.037,0.103,0.079,0.199,0.116,0.301c0.295,0.818,0.37,1.57,0.283,2.25c0.677,1.084,1.338,2.181,1.981,3.293
			c4.125,3.764,7.922,7.795,11.351,12.064c1.43-0.066,2.87-0.389,4.288-0.921c3.58-3.142,7.434-6.1,11.527-8.856
			c1.404-1.7,2.58-3.432,3.432-5.022c0.23-0.433,0.498-0.794,0.786-1.106c0.278-1.098,0.594-2.183,0.947-3.25
			c0.661-16.146,20.536-29.849,48.321-35.297c9.987-3.295,20.584-4.471,30.82-2.461c29.783,0.836,54.93,10.619,65.512,24.225
			c6.367,4.178,12.604,8.582,18.865,12.916c0.01-0.59,0.029-1.178,0.029-1.768C364.912,63.366,283.224,0,182.456,0z"/>
		<path display="inline" fill="#FFFFFF" d="M351.343,145.985c-0.04,0.656-0.101,1.31-0.203,1.957
			c4.514,2.526,8.788,5.283,12.805,8.243c0.059-0.439,0.101-0.883,0.152-1.323C359.833,151.947,355.599,148.953,351.343,145.985z"/>
	</g>
</g>
<g id="cerebellum">
	<g id="Layer_1_1_">
		<g>
			<g>
				<path fill="none" stroke="#000000" stroke-miterlimit="10" d="M250.058,44.221c-1.509-0.149-3.031-0.154-4.546-0.268
					c-0.448-0.034-0.888-0.236-1.321-0.389c-0.465-0.164-0.957-0.579-1.369-0.504c-1.465,0.266-2.899,0.689-4.342,1.067
					c-0.1,0.025-0.151,0.191-0.252,0.245c-0.361,0.196-0.727,0.396-1.105,0.552c-1.324,0.545-2.65,1.088-3.989,1.598
					c-0.487,0.186-1.026,0.402-1.51,0.339c-0.179-0.023-0.335-0.798-0.371-1.241c-0.13-1.62-1.062-2.439-2.626-2.655
					c-1.355-0.187-2.669-0.683-4-1.048c-0.07-0.02-0.135-0.083-0.189-0.138c-1.039-1.021-2.076-2.045-3.113-3.067
					c-0.249-0.245-0.456-0.598-0.756-0.715c-1.368-0.534-2.397-1.478-3.344-2.556c-0.32-0.367-1.01-0.663-1.021-1.008
					c-0.035-1.15-0.913-1.536-1.604-2.077c-0.676-0.527-1.104-0.453-1.455,0.516c-0.74,2.043,0.743,3.416,1.434,4.953
					c0.484,1.082,1.679,1.853,2.576,2.74c0.816,0.806,1.605,1.655,2.513,2.348c0.877,0.671,1.885,1.173,2.842,1.739
					c0.794,0.47,1.595,0.929,2.397,1.383c0.511,0.289,1.062,0.518,1.539,0.853c0.406,0.285,0.681,0.784,1.107,1.011
					c1.176,0.623,1.667,1.575,1.727,2.863c0.021,0.452,0.142,0.992,0.42,1.322c0.777,0.927,0.58,1.814,0.16,2.79
					c-0.26,0.603-0.487,1.252-0.556,1.898c-0.139,1.311-0.151,2.634-0.229,3.951c-0.02,0.316,0.022,0.801-0.153,0.916
					c-0.958,0.623-0.708,1.596-0.854,2.469c-0.307,1.822-0.659,3.636-0.998,5.452c-0.021,0.114-0.06,0.274-0.141,0.32
					c-0.938,0.517-0.679,1.438-0.771,2.238c-0.06,0.513,0.094,1.277-0.188,1.497c-0.845,0.66-0.504,1.661-0.897,2.36
					c-0.762,1.346-0.773,2.799-1.012,4.23c-0.041,0.234-0.256,0.439-0.362,0.615c-1.109-0.592-2.097-1.189-3.146-1.64
					c-0.39-0.168-1.083-0.179-1.37,0.06c-1.051,0.871-2.261,0.621-3.432,0.719c-0.467,0.039-0.939,0.119-1.386,0.261
					c-0.64,0.203-1.243,0.521-1.886,0.712c-0.718,0.212-1.47,0.304-2.188,0.51c-0.572,0.163-1.114,0.597-1.675,0.605
					c-4.314,0.067-8.629,0.067-12.943,0.071c-1.583,0.001-3.171-2.52-2.188-3.721c1.18-1.441,0.637-2.949,0.701-4.441
					c0.013-0.288-0.361-0.807-0.623-0.854c-1.114-0.203-1.34-0.955-1.481-1.894c-0.063-0.43-0.492-0.805-0.554-1.234
					c-0.094-0.64-0.079-1.317,0.023-1.957c0.074-0.464,0.475-0.876,0.545-1.34c0.408-2.687,0.752-5.383,1.144-8.072
					c0.056-0.383,0.259-0.744,0.388-1.116c0.227-0.65,0.557-1.288,0.645-1.956c0.106-0.825,0.021-1.677,0-2.516
					c-0.047-1.827-0.052-1.81-1.903-1.876c-0.751-0.027-1.601,0.113-2.05-0.672c0.81-1.194,1.431-2.418,2.789-3.018
					c0.609-0.269,1.017-1.05,1.629-1.253c1.52-0.502,3.093-0.868,4.666-1.164c0.892-0.167,1.83-0.061,2.742-0.139
					c0.315-0.027,0.616-0.241,1.021-0.41c-1.001-0.579-1.955-0.891-2.556-1.533c-1.016-1.087-2.213-0.858-3.416-0.865
					c-0.961-0.005-1.93-0.082-2.877,0.026c-0.651,0.075-1.267,0.437-1.91,0.624c-0.318,0.093-0.715,0.202-0.993,0.095
					c-0.593-0.229-1.144-0.578-1.688-0.917c-0.176-0.109-0.349-0.322-0.398-0.519c-0.633-2.467,0.646-4.661,1.033-6.984
					c0.016-0.096,0.16-0.169,0.238-0.257c0.76-0.848,0.739-1.524-0.056-2.338c-0.701-0.719-1.444-1.297-1.39-2.565
					c0.066-1.531,0.729-2.541,1.824-3.45c0.611-0.507,1.142-1.117,1.686-1.701c0.471-0.504,0.361-0.862-0.331-0.979
					c-0.272-0.046-0.562-0.066-0.837-0.042c-1.248,0.109-2.436,0.152-2.473-1.607c-0.002-0.058-0.188-0.111-0.43-0.245
					c-0.201,0.256-0.357,0.649-0.639,0.78c-1.721,0.807-2.795,2.021-2.826,4.014c-0.005,0.333-0.182,0.669-0.307,0.992
					c-0.189,0.486-0.598,0.971-0.575,1.441c0.112,2.444-0.177,4.827,0.638,7.343c0.807,2.488,0.447,5.383,0.444,8.099
					c-0.007,5.711-0.146,11.422-0.169,17.133c-0.028,6.518,0.016,13.035-0.002,19.552c-0.002,0.474-0.248,0.947-0.381,1.42
					c-0.284-0.318-0.578-0.627-0.853-0.955c-0.854-1.025-0.705-3.878-0.262-5.012c0.391-1,0.182-2.258,0.131-3.397
					c-0.022-0.509-0.433-1.001-0.452-1.51c-0.055-1.399,0.426-2.761,0.6-4.088c0.428-3.266,0.182-6.621,0.181-9.939
					c0-0.335-0.156-0.677-0.276-1.002c-0.181-0.487-0.531-0.952-0.566-1.443c-0.107-1.474-0.079-2.958-0.14-4.437
					c-0.021-0.556,0.046-1.251-0.25-1.634c-0.828-1.074-0.59-2.264-0.63-3.43c-0.043-1.239,0.045-2.489-0.092-3.716
					c-0.106-0.95-0.539-1.859-0.699-2.808c-0.123-0.73-0.349-1.716,0.004-2.195c0.749-1.017,0.709-2.087,0.731-3.175
					c0.042-2.038-0.23-4.111,0.049-6.11c0.398-2.855-1.357-4.695-2.865-7.17c-0.443,1.309-1.038,2.35-1.11,3.425
					c-0.153,2.268-0.079,4.556,0.005,6.832c0.023,0.641,0.483,1.255,0.597,1.906c0.101,0.579,0.063,1.21-0.076,1.777
					c-0.025,0.101-1.198,0.132-1.256-0.022c-0.578-1.546-1.787-2.006-3.257-2.126c-0.099-0.008-0.176-0.172-0.283-0.211
					c-0.506-0.184-1.025-0.513-1.529-0.496c-2.454,0.084-4.98-0.568-7.318,0.84c-0.696,0.419-1.304,1.175-0.779,1.834
					c0.652,0.818,1.401,1.667,2.297,2.156c1.089,0.595,2.378,0.819,3.573,1.229c0.328,0.113,0.635,0.301,0.937,0.479
					c1.869,1.106,3.395,2.73,5.434,3.592c0.229,0.097,0.343,0.49,0.482,0.76c0.143,0.28,0.169,0.718,0.388,0.845
					c1.231,0.715,0.729,1.852,0.583,2.775c-0.043,0.271-1.103,0.499-1.71,0.537c-0.977,0.062-1.229,0.607-0.959,1.352
					c0.322,0.887,0.87,1.69,1.275,2.55c0.521,1.104,1.299,2.198,1.417,3.353c0.147,1.431,0.493,2.566,1.558,3.55
					c0.658,0.607,0.607,1.404,0.034,2.13c-0.239,0.303-0.429,0.644-0.668,0.947c-0.561,0.709-1.052,1.508-1.729,2.087
					c-1.258,1.077-2.694,1.947-3.933,3.042c-1.277,1.13-2.472,1.265-3.638,0.206c-0.42,0.232-0.813,0.463-1.218,0.669
					c-0.5,0.254-0.989,0.576-1.522,0.712c-1.2,0.305-2.059,1.497-3.478,1.24c-2.386-0.432-4.386,1.366-6.733,1.23
					c-0.108-0.006-0.277,0.048-0.325,0.129c-0.654,1.088-1.72,0.781-2.686,0.809c-1.397,0.04-2.956-0.307-4.152,0.201
					c-1.689,0.718-3.364,0.511-5.031,0.638c-1.538,0.116-2.355-0.904-2.351-2.452c0.001-0.56-0.104-1.146,0.027-1.675
					c0.433-1.754-0.682-3.138-1.297-4.509c-0.427-0.951-0.649-1.804-0.671-2.765c-0.039-1.639,0.047-3.284-0.056-4.917
					c-0.037-0.595-0.453-1.169-0.713-1.746c-0.309-0.686-0.887-1.36-0.897-2.047c-0.021-1.182,0.373-2.364,0.474-3.556
					c0.109-1.277-0.19-2.602,0.994-3.625c0.478-0.412,0.627-1.186,1.073-1.656c0.944-0.995,1.985-1.898,2.988-2.836
					c0.025-0.023,0.082-0.008,0.115-0.027c0.992-0.575,2.083-1.035,2.951-1.759c1.121-0.936,1.961-2.217,3.107-3.113
					c2.25-1.759,4.167-3.779,5.523-6.285c0.25-0.463,0.143-1.139,0.119-1.712c-0.003-0.084-0.533-0.284-0.706-0.199
					c-1.011,0.495-2.104,0.92-2.949,1.632c-1.147,0.968-1.979,2.239-2.298,3.773c-0.029,0.139-0.147,0.286-0.265,0.376
					c-1.122,0.862-1.828,2.342-3.519,2.373c-0.136,0.002-0.271,0.157-0.404,0.245c-1.37,0.912-2.698,1.93-4.515,1.601
					c-0.221-0.04-0.596-0.018-0.684,0.117c-0.716,1.099-1.847,0.942-2.813,0.787c-1.876-0.303-3.102,1.277-3.532,3.222
					c-0.261,1.182-0.871,1.882-2.094,1.804c-0.852-0.054-1.688-0.353-2.669-0.573c0.044-0.054-0.079,0.054-0.149,0.19
					c-0.808,1.538-2.057,2.321-3.813,2.317c-1.6-0.003-3.201,0.016-4.799,0.08c-0.793,0.032-1.583,0.188-2.373,0.288l0.01,0.362
					c0.747,0.192,1.53,0.296,2.232,0.593c2.029,0.856,3.968,1.966,6.053,2.63c1.438,0.458,2.606,1.275,3.87,1.972
					c0.455,0.251,0.748,0.798,1.204,1.046c1.499,0.815,2.686,2.742,2.389,4.418c-0.362,2.042,1.264,3.53,1.321,5.428
					c0.001,0.057,0.132,0.1,0.162,0.167c0.182,0.413,0.46,0.821,0.505,1.251c0.096,0.912,0.042,1.838,0.104,2.756
					c0.023,0.335,0.188,0.666,0.312,0.989c0.188,0.49,0.534,0.963,0.568,1.46c0.08,1.154,0.061,2.321-0.019,3.477
					c-0.029,0.422-0.321,0.834-0.526,1.233c-0.421,0.818-0.9,1.609-1.292,2.441c-0.488,1.035-0.905,2.103-1.375,3.146
					c-0.055,0.123-0.248,0.267-0.373,0.263c-1.184-0.037-1.635,0.973-2.354,1.602c-0.201,0.176-0.436,0.387-0.681,0.426
					c-0.974,0.155-1.197,0.76-1.362,1.658c-0.278,1.523,0.324,2.483,1.482,3.178c1.608-0.664,2.978-1.771,4.814-1.803
					c0.608-0.01,1.238-0.385,1.805-0.69c0.607-0.33,1.164-0.76,1.721-1.174c0.769-0.572,1.624-1.075,2.253-1.777
					c1.286-1.432,2.937-2.383,4.604-3.097c1.724-0.739,3.697-0.932,5.58-1.253c1.781-0.304,3.575-0.282,5.392-0.669
					c3.3-0.703,6.78-0.291,10.135-1.074c1.139-0.266,2.391-0.063,3.59-0.043c1.156,0.019,2.235-0.066,3.419,0.542
					c0.928,0.477,1.189,1.33,1.916,1.831c0.721,0.499,1.141,1.155,1.532,2.007c0.494,1.079-0.083,1.691-0.322,2.504
					c-0.13,0.443-0.203,0.932-0.169,1.39c0.07,0.949,0.23,1.889,0.352,2.833c0.051,0.394-0.047,0.957,0.177,1.15
					c1.021,0.881,0.632,2.049,0.83,3.107c0.144,0.771,0.454,1.607,0.948,2.201c1.031,1.24,1.23,3.648,0.414,5.035
					c-0.274,0.467-0.144,1.229-0.059,1.834c0.083,0.598,0.506,1.176,0.492,1.756c-0.036,1.511-1.52,2.912-0.344,4.535
					c0.027,0.037-0.054,0.144-0.069,0.221c-0.58,2.882-1.041,5.758,0.307,8.574c0.097,0.205,0.125,0.483,0.08,0.707
					c-0.308,1.519-0.644,3.031-0.976,4.545c-0.016,0.07-0.108,0.121-0.135,0.192c-0.238,0.634-0.585,1.251-0.675,1.905
					c-0.125,0.904,0.019,1.846-0.098,2.752c-0.062,0.48-0.404,0.938-0.668,1.376c-0.541,0.899-1.444,0.828-2.335,0.876
					c-1.137,0.061-2.22-0.161-3.34,0.755c-1.038,0.849-2.464,1.433-4.041,1.229c-0.75-0.096-1.58,0.17-2.331,0.408
					c-1.719,0.545-3.235,1.701-5.205,1.496c-0.589-0.063-1.191-0.021-1.793,0.045c1.536,2.215,2.952,4.539,4.229,6.985
					c1.123-0.046,2.249-0.209,3.38-0.735c2.025-0.941,4.49-0.584,6.769-0.291c0.459,0.061,0.892,0.314,1.34,0.471
					c0.627,0.219,1.27,0.4,1.884,0.65c0.703,0.286,1.718,0.457,1.992,0.988c0.402,0.779,0.382,1.788-0.294,2.7
					c-0.358,0.483-0.566,1.676-0.285,1.927c1.038,0.93,1.135,2.297,0.686,3.057c-0.883,1.492-0.323,2.68,0.091,3.982
					c0.146,0.461,0.533,0.882,0.563,1.338c0.089,1.29,0.384,2.719-0.053,3.84c-0.306,0.784-0.499,1.178,0.04,1.813
					c0.822,0.97,0.729,2.975-0.313,3.715c-1.062,0.753-1.327,1.691-1.239,2.873c0.007,0.1,0.009,0.199,0.016,0.3
					c0.341,0.153,0.692,0.272,1.058,0.328c5.036,0.751,10.383-2.235,14.643-6.196c-0.374-0.453-0.582-1.082-0.549-1.867
					c0.027-0.627,0.423-1.24,0.646-1.861c0.446-1.247,1.347-1.945,2.667-1.786c0.611,0.073,1.221,0.202,1.821,0.356
					c0.836-1.146,1.554-2.277,2.126-3.348c0.234-0.439,0.507-0.809,0.801-1.124c0.028-0.11,0.049-0.224,0.077-0.334
					c-0.468-0.125-0.92-0.397-1.362-0.622c-0.785-0.396-1.742-0.67-2.274-1.295c-0.774-0.908-1.438-1.879-2.529-2.451
					c-0.073-0.039-0.051-0.306-0.035-0.463c0.146-1.428-0.344-2.615-1.347-3.615c-1.28-1.277-1.299-3.121-1.68-4.662
					c-0.502-2.035-0.135-4.289-0.104-6.449c0.006-0.375,0.094-0.817,0.307-1.112c0.897-1.25,0.842-4.243-0.168-5.369
					c-0.692-0.774-1.291-1.552-1.168-2.71c0.039-0.365-0.287-0.77-0.447-1.154c-0.131-0.317-0.368-0.633-0.375-0.951
					c-0.055-3-0.092-6-0.067-8.998c0.004-0.4,0.364-0.809,0.599-1.191c0.414-0.684,1.013-1.297,1.26-2.033
					c0.479-1.429,0.765-2.921,1.139-4.386c0.027-0.108,0.136-0.196,0.188-0.304c0.627-1.303,1.231-2.617,1.887-3.906
					c0.189-0.375,0.465-0.755,0.799-0.999c0.701-0.513,1.488-0.903,2.201-1.403c0.822-0.578,1.744-1.004,2.021-2.195
					c0.188-0.815,0.619-1.875,1.265-2.219c1.299-0.693,2.814-0.981,4.248-1.412c0.341-0.103,0.761-0.01,1.059-0.168
					c1.768-0.938,3.486-1.969,5.611-1.84c0.248,0.014,0.508-0.303,0.775-0.436c0.918-0.451,1.814-1.188,2.771-1.275
					c2.741-0.253,5.508-0.313,8.264-0.302c1.215,0.005,2.509,0.089,3.437,1.173c0.312,0.363,0.805,0.828,1.201,0.814
					c1.979-0.063,3.398,1.15,4.764,2.201c0.894,0.687,1.695,1.039,2.748,1.109c0.26,0.018,0.498,0.307,0.75,0.463
					c0.707,0.442,1.367,1.076,2.139,1.27c0.904,0.229,1.907,0.105,2.865,0.072c1.085-0.039,1.965-0.994,1.984-2.072
					c0.024-1.42-1.023-2.6-2.718-2.864c-1.522-0.237-3.014-0.108-4.554-0.854c-1.32-0.639-3.018-0.189-4.59-0.998
					c-1.984-1.021-3.211-4.146-1.834-5.973c0.367-0.487,0.566-1.144,0.699-1.754c0.409-1.875,0.746-3.767,1.125-5.649
					c0.028-0.14,0.196-0.246,0.267-0.385c0.497-0.986,1.237-1.931,1.428-2.975c0.486-2.671,0.913-5.38,1.009-8.087
					c0.084-2.342,1.857-3.598,2.817-5.363c0.76-1.397,2.313-1.97,3.56-2.831c0.748-0.517,1.688-0.768,2.564-1.078
					c1.225-0.435,2.279-1.379,3.697-1.236c0.031,0.003,0.068-0.037,0.104-0.056c1.176-0.623,2.37-1.211,3.512-1.89
					c0.342-0.204,0.532-0.661,0.793-1.001C250.755,44.686,250.426,44.258,250.058,44.221z M185.969,116.876
					c-1.016,2.162-0.602,4.478-0.685,6.717c-0.172,4.595-0.151,9.195-0.223,13.794c-0.009,0.491-0.097,0.979-0.156,1.567
					c-0.342-0.131-0.473-0.148-0.479-0.188c-0.332-2.137-1.562-4.066-1.396-6.324c0.092-1.258,0.197-2.544-0.619-3.68
					c-0.138-0.193-0.071-0.545-0.071-0.824c-0.007-5.598-0.335-11.225,0.125-16.783c0.232-2.809,0.167-5.797,1.013-8.434
					c0.623-1.941,0.404-3.787,0.74-5.646c0.059-0.318,0.254-0.611,0.387-0.916c0.219,0.281,0.498,0.537,0.637,0.854
					c0.123,0.277,0.117,0.625,0.119,0.941c0.023,5.476,0.029,10.951,0.078,16.428c0.004,0.566,0.267,1.129,0.398,1.695
					C185.901,116.346,186.063,116.675,185.969,116.876z"/>
				<path fill="none" stroke="#000000" stroke-miterlimit="10" d="M227.608,108.947c0.58,0.945,1.576,0.979,2.6,1.072
					c1.113,0.104,2.199,0.504,3.299,0.764c1.363,0.321,2.727,0.647,4.094,0.944c3.783-1.226,7.662-2.185,11.576-2.937
					c6.2-2.095,12.643-3.377,19.094-3.59c0.14-0.578,0.369-1.146,0.754-1.701c0.141-0.201,0.1-0.543,0.106-0.822
					c0.021-0.719,0.063-1.44,0.022-2.157c-0.108-1.952,1.035-3.334,2.365-4.388c0.97-0.768,0.651-1.153,0.22-1.92
					c-0.492-0.871-1.032-1.83-1.116-2.791c-0.096-1.09,0.138-2.279,0.512-3.324c0.364-1.016,0.91-2.495,1.688-2.727
					c1.805-0.539,3.8-0.774,5.661,0.291c0.393,0.223,1.517,0.03,1.541-0.104c0.156-0.884,0.221-1.828,0.057-2.704
					c-0.063-0.336-0.811-0.535-1.232-0.818c-0.218-0.146-0.39-0.359-0.607-0.502c-0.311-0.202-0.631-0.478-0.973-0.523
					c-0.67-0.088-1.356-0.027-2.037-0.051c-1.209-0.041-2.412,0.147-3.543-0.687c-0.475-0.351-1.529-0.4-2.051-0.106
					c-1.23,0.696-2.385,1.592-3.404,2.578c-0.699,0.676-1.279,1.575-1.635,2.483c-0.576,1.474-1.117,3.011-1.316,4.567
					c-0.248,1.932-0.096,3.912-0.201,5.869c-0.025,0.486-0.348,0.977-0.598,1.428c-0.375,0.678-0.842,1.304-1.209,1.984
					c-0.744,1.377-1.567,2.614-3.238,3.043c-0.842,0.215-1.635,0.633-2.428,1.006c-0.725,0.342-1.623,0.584-2.082,1.158
					c-0.908,1.141-2.08,1.555-3.389,1.713c-1.967,0.236-3.994,0.055-5.849,0.996c-0.263,0.133-0.63,0.065-0.949,0.071
					c-1.358,0.026-2.721,0.005-4.075,0.09c-0.47,0.029-0.91,0.384-1.386,0.472c-0.672,0.125-1.658,0.453-1.991,0.142
					c-0.878-0.824-1.838-0.617-2.799-0.679c-1.952-0.123-3.904-0.231-5.857-0.338c-1.043-0.058-1.932,0.267-2.662,1.033
					C225.667,108.089,226.878,107.759,227.608,108.947z"/>
				<path fill="none" stroke="#000000" stroke-miterlimit="10" d="M88.156,84.925c1.559,0.189,2.743-0.854,4.061-1.398
					c0.737-0.305,3.116-0.548,3.841-0.1c0.928,0.574,1.94,1.447,2.906,1.435c2.26-0.028,2.35,1.837,3.137,3.062
					c0.972,1.512,1.778,3.129,2.673,4.691c0.092,0.159,0.306,0.247,0.461,0.372c0.636,0.513,1.272,1.025,1.908,1.537
					c0.208,0.167,0.403,0.458,0.626,0.481c1.2,0.125,1.797,1.121,2.677,1.709c1.169,0.783,1.578,2.516,3.291,2.601
					c0.11,0.006,0.289,0.304,0.292,0.468c0.015,0.854,0.363,1.311,1.266,1.406c0.256,0.027,0.486,0.475,0.693,0.753
					c0.233,0.313,0.385,0.697,0.647,0.979c0.684,0.736,1.407,1.44,2.1,2.168c4.449,0.688,8.817,1.74,13.037,3.285
					c3.571,1.308,6.867,2.918,9.926,4.777c1.887-1.656,3.805-3.279,5.721-4.902c0.137-0.117,0.378-0.179,0.561-0.162
					c1.988,0.186,2.936-1.328,4.157-2.396c-0.028-0.152-0.056-0.305-0.084-0.457c-0.587,0.051-1.234-0.044-1.749,0.176
					c-1.931,0.822-3.756,1.957-5.748,2.545c-0.957,0.282-1.594,0.791-2.242,1.342c-0.987,0.838-2.128,0.828-3.111,0.059
					c-1.74-1.365-1.079-3.159-1.058-4.852c0.001-0.137,0.119-0.297,0.227-0.402c1.359-1.316,2.732-2.617,4.086-3.938
					c0.228-0.224,0.38-0.522,0.567-0.787c-0.339-0.142-0.741-0.477-1.008-0.391c-1.245,0.4-2.454,0.911-3.668,1.398
					c-0.083,0.033-0.107,0.203-0.167,0.305c-0.427,0.725-0.861,1.443-1.281,2.171c-0.242,0.42-0.609,0.835-0.662,1.283
					c-0.091,0.771-0.464,0.957-1.159,1.067c-0.704,0.11-1.369,0.457-2.055,0.687c-0.261,0.088-0.533,0.198-0.8,0.202
					c-1.159,0.016-2.319,0.016-3.477-0.02c-1.169-0.035-1.978-0.795-2.367-1.732c-0.493-1.188-1.647-2.161-1.346-3.655
					c0.027-0.135-0.217-0.312-0.299-0.485c-0.5-1.062-1.284-2.09-1.42-3.199c-0.291-2.368-2.056-3.527-3.495-5
					c-0.889-0.908-1.945-1.752-2.522-2.84c-0.511-0.963-1.023-1.734-2.038-2.055c-0.67-0.211-1.122-0.438-1.218-1.244
					c-0.037-0.312-0.586-0.808-0.892-0.801c-1.21,0.028-2.261-0.238-3.176-1.055c-1.222-1.092-2.655-2.009-3.658-3.271
					c-1.324-1.666-2.544-3.16-4.966-2.727c-0.662,0.119-1.357,0.032-2.036,0.074c-0.27,0.017-0.671,0.039-0.778,0.208
					c-0.572,0.897-1.454,0.642-2.263,0.724c-0.901,0.092-1.843,0.116-2.681,0.414c-1.001,0.356-1.949,0.91-2.851,1.487
					c-1.135,0.728-2.229,1.531-3.27,2.387c-0.215,0.177-0.229,0.776-0.12,1.11C87.432,84.658,87.86,84.89,88.156,84.925z"/>
				<path fill="none" stroke="#000000" stroke-miterlimit="10" d="M329.19,117.914c-0.109-0.301-0.326-0.563-0.494-0.845
					c-0.162,0.313-0.387,0.612-0.475,0.945"/>
				<path fill="none" stroke="#000000" stroke-miterlimit="10" d="M270.946,70.723c-0.434-0.019-0.762,0.005-1.074-0.055
					c-0.915-0.175-1.819-0.529-2.734-0.551c-3.147-0.076-6.305-0.153-9.445,0.007c-1.233,0.063-2.642,0.49-3.594,1.234
					c-0.916,0.716-1.357,2.046-1.983,3.122c-0.479,0.823-0.902,1.556-2.054,1.695c-2.504,0.301-4-1.011-3.989-3.494
					c0.003-0.584-0.474-1.164-0.694-1.758c-0.122-0.33-0.162-0.688-0.257-1.029c-0.14-0.502-0.294-1-0.532-1.803
					c0.852-0.577,1.905-1.276,2.941-2.001c0.304-0.212,0.563-0.488,0.832-0.748c0.709-0.687,1.355-1.454,2.529-1.253
					c0.323,0.056,0.748-0.032,1.024-0.21c2.062-1.327,3.474-1.215,5.547-0.049c0.884,0.497,1.731,0.762,2.015,1.854
					c0.043,0.163,0.543,0.269,0.842,0.292c0.835,0.063,1.683,0.011,2.511,0.118c0.468,0.061,0.909,0.339,1.354,0.536
					c0.178,0.078,0.32,0.245,0.5,0.295c1.338,0.377,2.696,0.684,4.011,1.13c0.437,0.148,0.805,0.599,1.12,0.98
					C270.199,69.5,270.495,70.039,270.946,70.723z"/>
				<path fill="none" stroke="#000000" stroke-miterlimit="10" d="M76.687,93.968c-0.727-0.981-0.649-2.747,0.111-3.682
					c-0.322-0.396-0.642-0.781-0.951-1.176c-1.057-1.349-2.573-0.875-3.94-1.01c-1.546-0.152-2.894,0.125-3.785,1.557
					c-0.076,0.121-0.251,0.268-0.372,0.26c-1.793-0.104-2.324,1.658-3.546,2.396c-1.374,0.831-2.708,1.743-3.977,2.727
					c-1.338,1.039-3.125,1.231-4.359,2.533c-0.398,0.42-1.516,0.326-2.242,0.174c-0.248-0.052-0.352-0.998-0.44-1.547
					c-0.13-0.81,0.43-1.021,1.072-1.31c0.763-0.341,1.406-0.944,2.115-1.412c0.641-0.424,1.279-0.86,1.959-1.214
					c0.909-0.473,1.867-0.85,2.783-1.309c0.352-0.176,0.809-0.398,0.938-0.715c0.481-1.176,1.311-1.738,2.479-2.265
					c1.566-0.707,2.959-1.845,4.313-2.94c0.35-0.283,0.311-1.092,0.378-1.666c0.078-0.666,0.229-0.981,1.053-0.836
					c1.385,0.241,2.802,0.322,4.208,0.418c1.268,0.086,2.811-0.336,3.749,0.246c1.422,0.883,2.838,0.663,4.255,0.955
					c0.614,0.127,1.346,0.939,1.526,1.583c0.214,0.757,0.52,1.707-0.472,2.476c-1.186,0.918-2.137,2.135-3.272,3.127
					c-0.742,0.65-1.638,1.119-2.449,1.693C77.447,93.294,77.111,93.615,76.687,93.968z"/>
				<path fill="none" stroke="#000000" stroke-miterlimit="10" d="M99.475,65.634c0.902-0.773,1.728-1.671,2.728-2.283
					c0.954-0.583,2.114-0.817,3.14-1.296c1.235-0.577,2.413-1.279,3.645-1.864c0.337-0.16,0.813-0.209,1.17-0.111
					c0.99,0.27,1.939,0.149,2.926-0.004c0.811-0.126,1.622,0.03,2.285-0.739c0.253-0.293,0.973-0.232,1.482-0.243
					c0.756-0.015,1.321-0.126,1.372-1.079c0.06-1.136,0.98-0.799,1.644-0.832c0.704-0.035,1.141,0.254,1.155,1.036
					c0.053,2.834,0.175,5.669,0.161,8.503c-0.009,1.67-2.675,3.559-4.283,3.067c-0.526-0.16-0.974-0.645-1.403-1.039
					c-0.828-0.761-1.566-1.628-2.44-2.327c-0.611-0.488-1.361-0.838-2.096-1.128c-1.082-0.428-2.208-1.038-3.313-1.033
					c-1.101,0.005-2.204,0.658-3.295,1.055c-0.519,0.188-1,0.594-1.521,0.639c-1.149,0.099-2.313,0.031-3.471,0.031
					C99.398,65.869,99.437,65.752,99.475,65.634z"/>
				<path fill="none" stroke="#000000" stroke-miterlimit="10" d="M90.141,51.348c1.325-0.462,2.668-1.35,3.971-1.293
					c2.263,0.099,4.246-0.841,6.382-1.129c0.397-0.053,0.741-0.507,1.067-0.444c0.983,0.177,1.973,0.327,2.948,0.542
					c0.535,0.118,1.467,0.3,1.492,0.532c0.089,0.818-0.013,1.711-0.271,2.502c-0.382,1.171-0.946,2.285-1.459,3.411
					c-0.235,0.516-0.452,1.076-0.82,1.489c-1.569,1.763-3.257,3.423-4.33,5.577c-0.24,0.481-0.673,0.861-0.971,1.319
					c-0.324,0.498-0.523,1.093-0.906,1.534c-0.514,0.592-1.136,1.095-1.744,1.598c-0.27,0.223-0.604,0.389-0.934,0.513
					c-0.34,0.128-0.71,0.173-1.068,0.254c-0.048-0.453-0.298-1.029-0.109-1.337c0.81-1.325,1.676-2.634,2.669-3.823
					c0.578-0.691,1.475-1.105,2.155-1.724c0.407-0.37,0.761-0.857,0.972-1.361c0.158-0.377,0.012-0.871,0.069-1.304
					c0.202-1.529-0.535-2.461-1.766-3.272c-1.388-0.915-2.721-1.765-4.443-2.005c-0.973-0.135-1.873-0.799-2.806-1.225
					C90.207,51.584,90.174,51.466,90.141,51.348z"/>
				<path fill="none" stroke="#000000" stroke-miterlimit="10" d="M313.328,95.427c-0.704,0.646-1.125,1.322-1.697,1.496
					c-1.096,0.332-1.685-0.723-2.434-1.286c-0.146-0.109-0.189-0.433-0.324-0.462c-1.833-0.416-2.729-2.137-4.24-3.014
					c-0.957-0.557-1.764-1.371-2.655-2.043c-0.143-0.107-0.418-0.029-0.571-0.127c-0.421-0.271-1.017-0.515-1.162-0.91
					c-0.272-0.744-0.699-0.992-1.421-0.988c-1.52,0.005-3.039-0.059-4.557-0.012c-1.987,0.061-3.432,1.26-4.024,3.172
					c-0.072,0.232-0.493,0.592-0.576,0.549c-0.87-0.448-1.705-0.965-2.547-1.467c-0.099-0.058-0.188-0.221-0.263-0.209
					c-2.207,0.318-1.484-1.989-2.457-2.832c-0.463-0.399-0.133-1.41,0.951-1.362c0.199,0.009,0.406-0.04,0.6-0.002
					c1.359,0.267,2.309-0.353,3.139-1.351c0.221-0.265,0.646-0.476,0.99-0.498c1.234-0.078,2.523-0.287,3.7-0.029
					c1.245,0.275,2.387,1.023,3.569,1.57c0.104,0.049,0.172,0.17,0.274,0.223c1.213,0.619,2.424,1.246,3.653,1.83
					c0.216,0.103,0.533,0.072,0.779,0.007c0.631-0.167,1.233-0.466,1.871-0.571c1.838-0.304,2.559,0.275,3.276,1.969
					c0.937,2.203,2.116,4.301,4.127,5.738C311.774,95.134,312.423,95.164,313.328,95.427z"/>
				<path fill="none" stroke="#000000" stroke-miterlimit="10" d="M340.049,121.47c-0.026-0.109-0.126-0.198-0.176-0.305
					c-0.241-0.508-0.508-1.006-0.706-1.531c-0.152-0.405-0.171-0.862-0.331-1.264c-0.554-1.396-1.437-2.736-1.636-4.175
					c-0.193-1.394-0.942-2.321-1.586-3.405c-0.53-0.892-1.096-1.82-1.34-2.81c-0.373-1.501,0.27-3.151-1.01-4.573
					c-0.645-0.716-0.645-1.976-1.104-2.906c-0.269-0.543-0.854-0.939-1.341-1.353c-0.059-0.048-0.557,0.222-0.557,0.345
					c-0.004,0.426,0.09,0.863,0.209,1.277c0.202,0.701,0.492,1.378,0.674,2.083c0.177,0.687,0.172,1.427,0.404,2.087
					c0.477,1.352,1.143,2.641,1.557,4.008c0.184,0.605-0.053,1.34-0.101,2.016c-0.089,0.033-0.179,0.066-0.269,0.102
					c0.563,1.58,1.068,3.186,1.713,4.732c0.433,1.041,1.365,1.953,1.529,3.009"/>
				<path fill="none" stroke="#000000" stroke-miterlimit="10" d="M274.228,51.845c-1.824,1.48-3.646,2.962-5.472,4.442
					c-0.823,0.668-1.735,1.238-1.583,2.568c0.039,0.351-0.373,0.968-0.717,1.1c-0.674,0.258-1.055-0.195-1.264-0.883
					c-0.107-0.358-0.438-0.795-0.768-0.913c-0.906-0.324-1.23-0.935-1.24-1.823c-0.008-0.679,0.018-1.367-0.084-2.034
					c-0.064-0.431-0.414-0.816-0.49-1.248c-0.16-0.903-0.235-1.822-0.313-2.736c-0.006-0.07,0.296-0.26,0.351-0.226
					c0.179,0.109,0.36,0.273,0.442,0.459c0.207,0.471,0.359,0.965,0.533,1.45c0.444-0.365,1.021-0.65,1.306-1.113
					c0.541-0.879,0.863-1.892,1.387-2.785c0.235-0.404,0.733-0.656,1.113-0.978c0.252,0.335,0.5,0.675,0.758,1.006
					c0.445,0.571,0.784,1.36,1.371,1.656c1.121,0.567,2.387,0.851,3.592,1.259c0.321,0.109,0.637,0.238,0.953,0.358
					C274.146,51.552,274.187,51.698,274.228,51.845z"/>
				<path fill="none" stroke="#000000" stroke-miterlimit="10" d="M113.237,29.576c0.721-1.164,1.687-1.633,3.009-1.443
					c2.017,0.29,3.637-0.516,5.097-1.854c0.277-0.253,1.046-0.358,1.312-0.161c0.714,0.531,1.458,0.985,1.641,2.134
					c0.279,1.757-0.483,3.086-1.413,4.265c-0.592,0.751-1.718,1.109-2.65,1.545c-0.222,0.104-0.761-0.101-0.905-0.325
					c-0.112-0.173,0.093-0.652,0.282-0.899c0.83-1.08,0.469-1.287-0.517-1.942c-1.701-1.13-3.48-0.695-5.229-0.904
					c-0.152-0.018-0.304-0.085-0.443-0.155C113.359,29.807,113.33,29.713,113.237,29.576z"/>
				<path fill="none" stroke="#000000" stroke-miterlimit="10" d="M51.689,73.822c0.189-0.655,0.229-1.319,0.549-1.794
					c0.709-1.052,1.436-2.158,2.394-2.955c0.7-0.583,1.723,0.206,2.321,1.567c0.747,1.7,0.158,4.419-1.216,5.617
					c-0.979,0.854-2.278,0.412-2.557-0.87C52.889,74.053,52.889,74.053,51.689,73.822z"/>
				<path fill="none" stroke="#000000" stroke-miterlimit="10" d="M33.001,116.349c0.026-0.085,0.052-0.174,0.074-0.275
					c0.142-0.671,0.203-1.519,0.637-1.936c0.965-0.928,1.646-1.857,1.49-3.258c-0.039-0.348,0.027-0.719,0.096-1.068
					c0.262-1.332,0.599-2.65,0.804-3.991c0.165-1.081-0.082-2.221,0.786-3.163c0.216-0.234,0.126-0.85,0.013-1.24
					c-0.046-0.16-0.618-0.352-0.795-0.252c-0.329,0.188-0.613,0.541-0.785,0.89c-0.151,0.306-0.088,0.709-0.184,1.051
					c-0.082,0.289-0.254,0.554-0.389,0.827c-0.494,1.011-1.243,1.979-1.426,3.042c-0.303,1.753-0.124,3.585-0.367,5.354
					c-0.195,1.422-0.713,2.801-1.151,4.432c0.088,0.068,0.171,0.121,0.253,0.164C32.37,116.728,32.684,116.537,33.001,116.349z"/>
				<path fill="none" stroke="#000000" stroke-miterlimit="10" d="M218.087,21.748c-1.352,0.301-2.675,0.685-3.996-0.342
					c-0.568-0.443-1.367-0.584-1.953-1.014c-0.637-0.468-1.221-1.055-1.69-1.69c-0.625-0.844-0.316-1.502,0.711-1.692
					c0.849-0.157,1.505-0.016,2.221,0.688c0.931,0.914,2.197,1.475,3.277,2.248c0.584,0.418,1.077,0.96,1.612,1.446
					C218.208,21.509,218.147,21.629,218.087,21.748z"/>
				<path fill="none" stroke="#000000" stroke-miterlimit="10" d="M314.209,73.203c0,0.637,0.036,1.278-0.017,1.911
					c-0.023,0.289-0.225,0.563-0.344,0.843c-0.261-0.128-0.525-0.247-0.779-0.386c-0.237-0.13-0.449-0.316-0.697-0.418
					c-1.249-0.513-1.583-1.66-0.841-2.831c0.286-0.451,0.427-1.007,0.76-1.412c0.282-0.343,0.731-0.7,1.134-0.734
					c0.241-0.021,0.707,0.534,0.771,0.884c0.122,0.694,0.036,1.426,0.036,2.143C314.224,73.203,314.216,73.203,314.209,73.203z"/>
				<path fill="none" stroke="#000000" stroke-miterlimit="10" d="M269.127,62.439c0.831,1.036,1.547,1.71,1.978,2.534
					c0.323,0.618,0.584,0.956,1.309,1.141c0.607,0.156,1.105,0.767,1.634,1.2c0.207,0.17,0.413,0.38,0.527,0.617
					c0.169,0.351,0.257,0.743,0.379,1.117c-0.466-0.003-1.026,0.159-1.379-0.043c-0.675-0.387-1.279-0.932-1.821-1.5
					c-0.631-0.662-1.061-1.411-2.072-1.773c-0.623-0.223-0.982-1.302-1.342-2.054C268.259,63.513,268.688,63.105,269.127,62.439z"/>
				<path fill="none" stroke="#000000" stroke-miterlimit="10" d="M316.901,84.794c-1.461-1.053-2.791-1.92-3.996-2.935
					c-0.41-0.345-0.67-1.054-0.694-1.609c-0.017-0.383,0.448-1.066,0.772-1.115c0.41-0.063,0.988,0.295,1.324,0.638
					c0.393,0.4,0.569,1.002,0.896,1.477c0.434,0.628,0.84,1.312,1.404,1.801C317.338,83.686,317.092,84.229,316.901,84.794z"/>
				<path fill="none" stroke="#000000" stroke-miterlimit="10" d="M248.896,31.282c-0.238,0.757-0.404,1.421-0.666,2.046
					c-0.113,0.272-0.537,0.697-0.621,0.655c-0.789-0.395-1.719-0.734-2.228-1.385c-0.325-0.415-0.136-1.369,0.056-2.013
					c0.198-0.668,2.185-0.735,2.74-0.15C248.469,30.741,248.726,31.08,248.896,31.282z"/>
				<path fill="none" stroke="#000000" stroke-miterlimit="10" d="M259.492,31.62c0.705-0.644,3.893-0.982,4.479-0.399
					c0.219,0.217,0.279,0.744,0.193,1.072c-0.083,0.315-0.428,0.757-0.696,0.786c-0.573,0.063-1.222,0.009-1.752-0.208
					C260.937,32.552,260.231,32.047,259.492,31.62z"/>
				<path fill="none" stroke="#000000" stroke-miterlimit="10" d="M307.915,75.927c-0.436,0.336-0.995,0.019-1.518-0.428
					c-0.621-0.529-1.308-1.018-1.787-1.658c-0.271-0.363-0.188-0.994-0.266-1.504c0.313,0.15,0.709,0.225,0.924,0.463
					C306.175,73.811,307.028,74.869,307.915,75.927z"/>
				<path fill="none" stroke="#000000" stroke-miterlimit="10" d="M163.355,31.891c-0.914,0-1.828,0.015-2.74-0.02
					c-0.108-0.004-0.26-0.272-0.288-0.436c-0.017-0.098,0.167-0.33,0.263-0.331c0.929-0.009,1.858,0.018,2.788,0.034
					C163.37,31.389,163.363,31.64,163.355,31.891z"/>
			</g>
		</g>
		<path fill="none" stroke="#000000" stroke-miterlimit="10" d="M15.978,130.296c-4.355-11.732,8.71-37.371,21.969-23.5"/>
		<path fill="none" stroke="#000000" stroke-miterlimit="10" d="M347.088,127.212c4.858-5.414,7.858-11.414,6.858-18.414
			c-1-16-17-27-33-26"/>
		<path fill="none" stroke="#000000" stroke-miterlimit="10" d="M25.947,91.798c5.942-9.616,6.863-24.305,15.003-32.571
			c6.484-6.584,23.406-9.321,27.997,0.571"/>
		<path fill="none" stroke="#000000" stroke-miterlimit="10" d="M83.947,45.798c-15.54-22.848,20.018-29.901,34-18"/>
		<path fill="none" stroke="#000000" stroke-miterlimit="10" d="M175.947,14.798c-1.988-2.403-18.992-8.1-23.016-6.039
			c-4.062,2.08-3.157,8.943-2.964,13.737c-2.038-5.306-12.208-9.823-18.146-6.746c-5.883,3.049-4.434,7.401-5.874,13.048"/>
		<path fill="none" stroke="#000000" stroke-miterlimit="10" d="M181.947,14.798c3.243-0.198,26.788-14.205,22.952,1.701
			c3.449-7.644,15.55-5.261,20.873-0.726c6.334,5.396,5.254,11.052,3.175,18.025"/>
		<path fill="none" stroke="#000000" stroke-miterlimit="10" d="M227.947,25.798c11.696-1.094,19.182-12.67,30.948-10.997
			c10.522,1.497,16.104,13.617,14.976,23.794c-3.722,0.746-7.617,1.078-9.86,3.08c9.383-2.64,30.989-18.398,37.73-1.926
			c6.018,14.706-14.561,18.324-23.516,21.1c9.049-0.45,6.059,8.17,15.467,3.749c2.947-1.385,5.664-7.107,10.009-9.023
			c5.021-2.213,15.712-5.82,14.285,4.274c-1.003,7.095-15.554,5.646-8.017,14.721c2.266-8.331,0.656-13.07,9.944-11.521
			c5.679,0.947,11.17,6.489,13.833,11.297c2.818,5.089,4.495,8.896,7.229,12.622c4.539,6.191,9.629,11.701,11.972,18.83"/>
		<path fill="none" stroke="#000000" stroke-miterlimit="10" d="M64.947,59.798c-3.525-7.174-6.785-10.038-0.246-15.052
			c6.624-5.078,12.627-1.446,18.246,2.052"/>
		<path fill="none" stroke="#000000" stroke-miterlimit="10" d="M28.947,94.798c5.854-1.35,10.129-7.44,8.977-13.698
			c3.977,13.614-0.783,11.75-11.2,14.698c-6.447,1.824-4.888-0.409-7.749,6.199c-1.584,3.66-1.448,9.051-0.603,12.752
			c1.261-0.486,1.473-1.248,2.575-1.951"/>
		<path fill="none" stroke="#000000" stroke-miterlimit="10" d="M9.947,133.798"/>
		<path fill="none" stroke="#000000" stroke-miterlimit="10" d="M350.947,123.798c0.327,2.472,1.169,4.824,2.148,7.105"/>
	</g>
</g>
</svg>
