<?xml version="1.0" encoding="utf-8"?>
<!-- Generator: Adobe Illustrator 16.0.0, SVG Export Plug-In . SVG Version: 6.00 Build 0)  -->
<!DOCTYPE svg PUBLIC "-//W3C//DTD SVG 1.1//EN" "http://www.w3.org/Graphics/SVG/1.1/DTD/svg11.dtd">
<svg version="1.1" id="Layer_1" xmlns="http://www.w3.org/2000/svg" xmlns:xlink="http://www.w3.org/1999/xlink" x="0px" y="0px"
	 width="998.245px" height="450.834px" viewBox="0 0 998.245 450.834" enable-background="new 0 0 998.245 450.834"
	 xml:space="preserve">
<path fill="#FFFFFF" d="M550.732,395.969c0-58.395,91.899-105.74,205.27-105.74c113.36,0,205.26,47.345,205.26,105.74
	c0,2.938-0.229,5.855-0.689,8.738c12.346,6.913,24.043,14.453,35.026,22.55c1.747-13.178,2.646-26.551,2.646-40.087
	C998.245,173.342,774.78,0,499.123,0S0,173.342,0,387.17c0,5.686,0.167,11.341,0.48,16.968
	c14.827-12.366,31.015-23.53,48.362-33.299c15.94-50.228,100.56-88.543,202.56-88.543c113.36,0,205.26,47.333,205.26,105.729
	c0,5.978-0.96,11.833-2.81,17.532c16.21,13.722,30.75,28.896,43.34,45.277c16.24-15.364,34.77-29.276,55.18-41.444
	C551.292,404.998,550.732,400.517,550.732,395.969z"/>
</svg>
