<?xml version="1.0" encoding="utf-8"?>
<!-- Generator: Adobe Illustrator 16.0.0, SVG Export Plug-In . SVG Version: 6.00 Build 0)  -->
<!DOCTYPE svg PUBLIC "-//W3C//DTD SVG 1.1//EN" "http://www.w3.org/Graphics/SVG/1.1/DTD/svg11.dtd">
<svg version="1.1" id="Layer_1" xmlns="http://www.w3.org/2000/svg" xmlns:xlink="http://www.w3.org/1999/xlink" x="0px" y="0px"
	 width="364.912px" height="163.593px" viewBox="0 0 364.912 163.593" enable-background="new 0 0 364.912 163.593"
	 xml:space="preserve">
<g id="Layer_2">
	<path opacity="0.1" fill="#FF0000" enable-background="new    " d="M25.54,122.019c13.381-13.137,36.391-14.68,54.071-16.51
		c17.056-1.766,35.726-3.154,52.161,2.865c17.521,6.418,28.744,19.771,34.996,37.094c0.292,0.811,0.369,1.556,0.286,2.23
		c1.324,2.129,2.558,4.316,3.812,6.53c1.51,2.667,3.883,8.222,7.41,8.747c8.438,1.259,17.754-7.979,21.354-14.702
		c0.23-0.433,0.499-0.797,0.788-1.11c2.739-10.896,9.274-20.32,19.14-26.883c8.896-5.92,19.17-9.509,29.711-11.521
		c11.364-3.822,23.537-4.909,35.082-1.686c10.027,0.859,19.916,2.908,29.416,6.334c-30.332-35.536-82.06-58.945-140.78-58.945
		c-63.522,0-118.856,27.394-147.779,67.899C25.32,122.25,25.425,122.13,25.54,122.019z"/>
	<path opacity="0.1" fill="#FF0000" enable-background="new    " d="M79.611,105.509c17.056-1.766,35.726-3.155,52.161,2.863
		c17.521,6.418,28.744,19.771,34.996,37.096c0.292,0.81,0.369,1.555,0.286,2.229c1.324,2.129,2.558,4.317,3.812,6.531
		c1.51,2.667,3.883,8.221,7.41,8.747c8.438,1.259,17.754-7.978,21.354-14.702c0.23-0.434,0.499-0.797,0.788-1.109
		c2.739-10.896,9.274-20.322,19.14-26.885c3.188-2.121,6.56-3.939,10.051-5.498c-12.854-37.853-51.023-65.319-96.16-65.319
		c-44.819,0-82.781,27.077-95.902,64.514C50.425,108.074,66.485,106.869,79.611,105.509z"/>
	<path opacity="0.1" fill="#FF0000" enable-background="new    " d="M284.347,107.072c7.11,0.611,14.149,1.819,21.03,3.692
		c-3.633-51.683-24.377-91.301-49.43-91.301c-27.614,0-50,48.129-50,107.5c0,2.363,0.043,4.703,0.112,7.027
		c3.375-5.32,7.893-9.98,13.496-13.709c8.896-5.92,19.172-9.509,29.713-11.521C260.631,104.938,272.802,103.85,284.347,107.072z"/>
	<path opacity="0.1" fill="#FF0000" enable-background="new    " d="M189.28,29.463c-47.864,0-86.667,26.49-86.667,59.167
		c0,5.324,1.031,10.481,2.962,15.39c8.972,0.161,17.871,1.306,26.196,4.354c17.521,6.418,28.744,19.771,34.996,37.094
		c0.039,0.109,0.066,0.215,0.098,0.32c7.151,1.305,14.661,2.008,22.413,2.008c3.728,0,7.396-0.166,10.996-0.48
		c0.047-0.054,0.096-0.1,0.143-0.15c2.74-10.896,9.273-20.322,19.139-26.885c8.896-5.92,19.172-9.509,29.713-11.521
		c7.52-2.528,15.394-3.863,23.205-3.543c2.252-5.264,3.474-10.826,3.474-16.586C275.947,55.953,237.146,29.463,189.28,29.463z"/>
	<path opacity="0.1" fill="#FF0000" enable-background="new    " d="M79.611,105.509c17.056-1.766,35.726-3.155,52.161,2.863
		c3.951,1.447,7.565,3.266,10.891,5.383c2.113-6.506,3.284-13.569,3.284-20.961c0-32.215-22.013-58.333-49.167-58.333
		c-27.154,0-49.167,26.117-49.167,58.333c0,5.924,0.75,11.64,2.134,17.026C59.738,107.343,70.397,106.462,79.611,105.509z"/>
	<path opacity="0.1" fill="#FF0000" enable-background="new    " d="M247.613,64.463c-39.58,0-71.666,23.505-71.666,52.5
		c0,14.172,7.704,27,20.167,36.438c1.441-1.732,2.646-3.502,3.516-5.125c0.241-0.449,0.521-0.826,0.823-1.146
		c2.739-10.879,9.253-20.293,19.104-26.848c8.896-5.919,19.17-9.508,29.711-11.52c11.369-3.824,23.545-4.911,35.094-1.684
		c11.963,1.027,23.726,3.752,34.869,8.479C318.21,87.214,286.55,64.463,247.613,64.463z"/>
	<path opacity="0.1" fill="#FF0000" enable-background="new    " d="M145.114,22.796c-23.473,0-42.5,26.117-42.5,58.333
		c0,8.128,1.214,15.865,3.402,22.896c8.823,0.189,17.567,1.35,25.756,4.348c13.688,5.014,23.517,14.274,30.15,26.34
		c15.111-8.94,25.69-29.563,25.69-53.583C187.614,48.913,168.586,22.796,145.114,22.796z"/>
	<ellipse opacity="0.1" fill="#FF0000" enable-background="new    " cx="196.78" cy="41.963" rx="15.833" ry="19.167"/>
	<path opacity="0.1" fill="#FF0000" enable-background="new    " d="M314.085,113.521c2.415,0.879,4.807,1.842,7.166,2.902"/>
	<ellipse opacity="0.1" fill="#FF0000" enable-background="new    " cx="299.28" cy="75.296" rx="15" ry="15.833"/>
	<path opacity="0.1" fill="#FF0000" enable-background="new    " d="M280.715,36.963c-18.516,0-33.646,32.058-34.704,72.476
		c1.023-0.229,2.055-0.421,3.084-0.62c11.408-3.868,23.639-4.983,35.236-1.75c10.641,0.912,21.122,3.167,31.152,6.979
		c0-0.027,0-0.055,0-0.082C315.485,71.438,299.918,36.963,280.715,36.963z"/>
	<path opacity="0.1" fill="#FF0000" enable-background="new    " d="M342.614,121.962c0-18.869-13.059-34.166-29.167-34.166
		c-11.638,0-21.677,7.99-26.355,19.539c11.745,1.265,23.265,4.192,34.16,9.086"/>
	<path opacity="0.1" fill="#FF0000" enable-background="new    " d="M75.561,105.919C73.54,96.565,63.666,89.462,51.78,89.462
		c-13.347,0-24.167,8.955-24.167,20c0,3.154,0.885,6.137,2.456,8.789C42.569,109.371,60.477,107.44,75.561,105.919z"/>
	<path opacity="0.1" fill="#FF0000" enable-background="new    " d="M25.54,122.019c6.097-5.984,14.195-9.559,22.875-11.854
		c-3.23-1.51-6.902-2.369-10.801-2.369c-12.887,0-23.333,9.328-23.333,20.834"/>
	<path opacity="0.1" fill="#FF0000" enable-background="new    " d="M166.768,145.468c0.292,0.811,0.369,1.556,0.286,2.23
		c1.324,2.129,2.558,4.316,3.812,6.53c1.51,2.667,3.883,8.222,7.41,8.747c8.438,1.259,17.754-7.979,21.354-14.702
		c0.236-0.442,0.51-0.812,0.807-1.128c0.996-3.959,2.486-7.725,4.469-11.229c-7.489-11.069-18.801-18.123-31.457-18.123
		c-6.949,0-13.49,2.133-19.219,5.881C159.637,129.822,163.778,137.184,166.768,145.468z"/>
	<path opacity="0.1" fill="#FF0000" enable-background="new    " d="M131.772,108.375c1.446,0.529,2.833,1.123,4.194,1.746
		c1.063-3.592,1.647-7.459,1.647-11.49c0-18.871-12.685-34.167-28.333-34.167c-15.648,0-28.333,15.297-28.333,34.167
		c0,2.289,0.19,4.525,0.546,6.688C98.034,103.654,115.938,102.574,131.772,108.375z"/>
	<ellipse opacity="0.1" fill="#FF0000" enable-background="new    " cx="185.947" cy="83.63" rx="31.667" ry="15.833"/>
	<path opacity="0.1" fill="#FF0000" enable-background="new    " d="M219.572,120.271c6.032-4.012,12.704-6.945,19.657-9.051
		c4.137-6.526,6.718-15.723,6.718-25.924c0-19.791-9.7-35.833-21.666-35.833c-11.968,0-21.667,16.043-21.667,35.833
		C202.614,102.412,209.871,116.712,219.572,120.271z"/>
</g>
<g id="mask" display="none">
	<path display="inline" fill="#FFFFFF" d="M182.456,0C81.688,0,0,63.366,0,141.533c0,2.077,0.061,4.145,0.176,6.201
		c4.892-4.08,10.208-7.779,15.856-11.092c2.255-5.379,5.191-10.385,9.508-14.624c6.522-6.401,15.333-10.046,24.697-12.315
		c11.92-4.109,26.245-6.509,41.664-6.509c5.527,0,10.908,0.317,16.095,0.901c8.148,0.314,16.201,1.504,23.776,4.279
		c2.997,1.098,5.795,2.412,8.43,3.9c16.341,7.09,26.732,17.701,26.732,29.568c0,1.121-0.1,2.229-0.282,3.324
		c0.037,0.103,0.079,0.199,0.116,0.301c0.295,0.818,0.37,1.57,0.283,2.25c0.677,1.084,1.338,2.181,1.981,3.293
		c4.125,3.764,7.922,7.795,11.351,12.064c1.43-0.066,2.87-0.389,4.288-0.921c3.58-3.142,7.434-6.1,11.527-8.856
		c1.404-1.7,2.58-3.432,3.432-5.022c0.23-0.433,0.498-0.794,0.786-1.106c0.278-1.098,0.594-2.183,0.947-3.25
		c0.661-16.146,20.536-29.849,48.321-35.297c9.987-3.295,20.584-4.471,30.82-2.461c29.783,0.836,54.93,10.619,65.512,24.225
		c6.367,4.178,12.604,8.582,18.865,12.916c0.01-0.59,0.029-1.178,0.029-1.768C364.912,63.366,283.224,0,182.456,0z"/>
	<path display="inline" fill="#FFFFFF" d="M351.343,145.985c-0.04,0.656-0.101,1.31-0.203,1.957
		c4.514,2.526,8.788,5.283,12.805,8.243c0.059-0.439,0.101-0.883,0.152-1.323C359.833,151.947,355.599,148.953,351.343,145.985z"/>
</g>
</svg>
