<?xml version="1.0" encoding="utf-8"?>
<!-- Generator: Adobe Illustrator 16.0.0, SVG Export Plug-In . SVG Version: 6.00 Build 0)  -->
<!DOCTYPE svg PUBLIC "-//W3C//DTD SVG 1.1//EN" "http://www.w3.org/Graphics/SVG/1.1/DTD/svg11.dtd">
<svg version="1.1" xmlns="http://www.w3.org/2000/svg" xmlns:xlink="http://www.w3.org/1999/xlink" x="0px" y="0px" width="750.9px"
	 height="317.5px" viewBox="0 0 750.9 317.5" style="enable-background:new 0 0 750.9 317.5;" xml:space="preserve">
<style type="text/css">
<![CDATA[
	.st0{opacity:0.1;}
	.st1{fill:none;stroke:#000000;stroke-miterlimit:10;}
	.st2{fill:#FFFFFF;}
	.st3{opacity:2.000000e-002;}
]]>
</style>
<g id="lids">
	<g>
		<g>
			<path class="st2" d="M122.8,173.2c91,4.1,146.3-78.3,213.4-125.1c17.2-12,35.1-21.3,55.2-26.8c22.4-6.1,45.7-7.5,68.8-5.7
				c45.9,3.5,92.1,21.5,127.6,50.9c15.7,12.9,28.4,28.1,39.8,44.8c14,20.4,26.6,41.7,42.5,60.7c4.8,5.7,15.1,2.6,16.7-4.4
				c4.1-18.4,0.1-36.8-11.2-51.9c-11.7-15.6-27.9-27-44.8-36.2C596,60.4,556.5,47.3,517.6,40.2c-57.5-10.5-118.9-12.4-176.4-0.7
				c3.2,5.6,6.5,11.1,9.7,16.7c0.6-0.6,1.2-1.2,1.9-1.8c0.4-0.4,0.9-0.8,1.3-1.2c-0.8,0.6-0.8,0.6,0.1-0.1c1.8-1.3,3.8-2.4,5.7-3.4
				c2.6-1.4,2.3-1.2,5.2-2.2c2.4-0.9,4.9-1.6,7.4-2.3c11.4-3.1,22.2-4.1,34-4.6c21.8-1,43.7,0.3,65.4,2.7c0-6.7,0-13.3,0-20
				c-35.9,4.2-72,6.1-107.9,10.7c-36,4.7-71,12.7-104.2,27.5c-9.8,4.3-4,18.2,5,18.6c25.3,1.3,48.7-9.3,72.1-17.4
				c25.4-8.8,52.8-7.8,79.2-5.2c27,2.7,53.9,9.2,80.5,14.5c27.6,5.5,55.2,10.8,83.1,14.7c4.5,0.6,8.8-0.4,11.3-4.6
				c2.8-4.8,1-10.8-3.6-13.7c-25.7-16.3-55.7-21.9-85.5-25.4c-28.5-3.4-57.7-4.1-85.3-12.5c0,6.4,0,12.9,0,19.3
				c22.6-8.6,45.6-12.3,69.7-9.5c23,2.7,45.4,11.7,66.5,20.8c2.6-6.1,5.1-12.2,7.7-18.3c-30-10.7-58.2-26.2-89.5-33.3
				c-12.5-2.9-17.8,15.8-5.3,19.3c23.3,6.6,47.7,11.1,69.5,21.8c0.8-6.1,1.6-12.2,2.4-18.3c-7.3,1.4-15.3,0.1-22.6-1.4
				c-9.8-2.1-19.5-5-29.2-7.4c-9.8-2.4-19.9-4.1-30-3.9c-11.4,0.3-22.8,1.3-34.2,2.3c-10.9,1-21.8,1-32.7,2.1
				c-12,1.2-23.8,3.5-35.6,5.9c-22.3,4.5-44.5,10-67.4,9.1c3.3,3.3,6.7,6.7,10,10c-0.1-0.9-0.1-1.8,0-2.8c-0.2,3.3,0,0.4,0.3-0.5
				c0.4-1,0.2-0.7-0.4,0.9c0.2-0.5,0.5-1,0.8-1.5c0.3-0.5,0.6-1,1-1.4c-1.7,2.4-0.5,0.7,0,0.2c0.7-0.8,1.5-1.5,2.3-2.2
				c2.1-1.9-1.1,0.7,1.2-0.9c2.3-1.6,4.8-2.9,7.3-4.2c0.5-0.2,4.3-1.9,2.2-1.1c1.4-0.6,2.8-1.1,4.2-1.6c3.3-1.2,6.6-2.2,10-3.2
				c7.3-2.1,14.8-3.7,22.3-5.1c23.5-4.4,48.8-6.9,74-6.9c12.9,0,12.9-20,0-20c-27.8,0-56.2,3.1-83.5,8.4
				c-14.4,2.8-29.1,6.7-42.1,13.6c-10.4,5.6-20.6,15.5-19.5,28.3c0.5,5.6,4.2,9.8,10,10c23.3,0.9,46.3-4.3,69-9
				c11.3-2.3,22.5-4.6,34-5.9c11.5-1.3,23-1.2,34.5-2.3c11.3-1,22.5-1.9,33.8-2.2c9.5-0.2,18.8,2.1,27.9,4.4
				c18.8,4.8,38.2,11.5,57.8,7.7c8.3-1.6,10-14.6,2.4-18.3c-23.5-11.6-49.3-16.7-74.3-23.8c-1.8,6.4-3.5,12.9-5.3,19.3
				c31.2,7.1,59.5,22.6,89.5,33.3c10.6,3.8,18.1-13.8,7.7-18.3c-23.3-10-47.1-19.4-72.3-22.9c-27-3.7-53.8-0.1-79.2,9.6
				c-9,3.4-10,16.2,0,19.3c54.1,16.5,116.5,4.5,166,35.8c2.6-6.1,5.1-12.2,7.7-18.3c-27.9-3.9-55.5-9.2-83.1-14.7
				c-27.8-5.5-55.7-12-83.9-15.1c-26.7-2.9-55.7-4.1-81.6,4.1c-23.4,7.4-46.5,19.6-71.7,18.3c1.7,6.2,3.4,12.4,5,18.6
				c63.6-28.2,134.1-27.5,202-35.5c12.8-1.5,12.9-18.6,0-20c-23-2.5-46.2-3.8-69.3-2.5c-22.1,1.3-49.7,4.3-65.9,21.2
				c-7.2,7.5,0.1,18.7,9.7,16.7c49.8-10.1,103.1-8.8,153.2-1.4c39.8,6,79.6,18.2,114.8,36.1c16.1,8.1,30.5,17.1,42.2,30.4
				c4,4.5,8.5,12.2,10.2,17.7c2.2,7,2.2,13.7,0.7,20.7c5.6-1.5,11.1-2.9,16.7-4.4c-18.6-22.2-32.3-47.9-49.6-71
				c-14.6-19.5-32.5-35.9-52.7-49.5C541.8,10.2,492.8-4.5,444.5-5.2C420.7-5.5,396.6-2,374.1,5.7c-19.9,6.8-38.2,17.8-55.1,30.2
				c-34.3,25.2-63.6,56.8-97.7,82c-29.3,21.7-61.7,36.8-98.5,35.2C109.9,152.6,110,172.6,122.8,173.2L122.8,173.2z"/>
		</g>
	</g>
	<g>
		<g>
			<path class="st2" d="M202.6,200.9c27.8,3.9,52.8,17.7,76.7,31.6c24.7,14.4,49.2,28.4,76,38.7c27.5,10.6,56.4,15.8,85.9,16.3
				c15,0.3,29.9-0.9,44.8-2.7c15.2-1.8,30.3-5.2,45.5-6.5c10.7-0.9,21.5-0.8,32.2-2c11.8-1.3,22.6-4.7,33.4-9.6
				c8.9-4,16.6-10,24.1-16.1c6.7-5.4,13.6-11.4,21.8-14.6c-4.1-2.3-8.2-4.7-12.3-7c5.1,22.9-5.6,48.4-16.1,68.2
				c-9.7,18.3-19.8,32.7-37.7,42c-16.2,8.4-36.7,11.6-55.3,12.9c-21.3,1.5-42.7,0.6-64-0.5c-19-1-38-1.7-57-2
				c-20.3-0.3-41.4-1.8-60.9-4.8c-39-5.9-77.1-17.2-109.2-40.4c-16-11.5-29.9-27.3-39.7-45.1c-11-20-16.3-43.2-17.6-66.4
				c-0.7-12.8-20.7-12.9-20,0c2.4,42.8,17.6,83.4,48.8,113.5c28.8,27.7,67.2,43.6,105.6,52.5c20.7,4.8,41.8,7.6,63,9.2
				c19.6,1.5,39.2,1.1,58.7,1.9c41.8,1.8,84.4,6.2,125.8-2.6c13.1-2.8,26.1-7.4,37.7-14.4c12.4-7.5,21.4-17.8,29.4-29.7
				c9.8-14.6,17.5-30.7,23.1-47.3c5.7-16.7,8.5-35.1,4.7-52.6c-1.1-5-7.4-8.9-12.3-7c-12.1,4.6-21.8,12.5-31.8,20.6
				c-9.5,7.7-20,13.5-31.8,16.8c-13.2,3.8-27.4,3.1-41,4c-15.2,1-30.3,4.5-45.4,6.5c-29.2,3.7-58.9,4.5-87.9-1.2
				c-28-5.5-54.5-16.7-79.5-30.3c-36-19.5-70.9-45.8-112.4-51.5c-5.4-0.7-10.7,1.2-12.3,7C194.3,193.3,197.2,200.1,202.6,200.9
				L202.6,200.9z"/>
		</g>
	</g>
	<g>
		<g>
			<path class="st2" d="M162.3,245.1c10.6,6.2,20.7,13.2,30.4,20.7c-2.7-2.1-5.4-4.2-8.1-6.3c46.8,36.3,90.3,83.9,150.9,95.4
				c29.9,5.7,60.8,6.4,91.1,8.9c23.9,1.9,47.9,4.1,72,4.1c28.8,0.1,58.6-3.2,85.7-13.3c15.7-5.8,30.8-13,44.7-22.2
				c8.7-5.8,17-12.3,25-19c6.1-5,11.5-10.7,17.5-15.8c-2.7,2.1-5.4,4.2-8.1,6.3c1.3-1,2.7-1.8,4.2-2.6
				c19.1-10.4,25.1-36.4,14.4-54.7c-11.3-19.2-35.6-24.8-54.7-14.4c-8.1,4.4-14.5,11.1-21.2,17.3c-4.7,4.3-9.6,8.4-14.6,12.3
				c2.7-2.1,5.4-4.2,8.1-6.3c-12.4,9.5-25.6,17.5-40,23.6c3.2-1.3,6.4-2.7,9.6-4c-14.7,6.1-30.1,10.1-45.9,12.2
				c3.5-0.5,7.1-1,10.6-1.4c-27.1,3.5-54.4,2-81.6,0c-15.4-1.1-30.8-2.5-46.2-3.8c-16.7-1.4-33.4-2-50-4.1c3.5,0.5,7.1,1,10.6,1.4
				c-12.5-1.7-24.8-4.4-36.5-9.2c3.2,1.3,6.4,2.7,9.6,4c-18-7.8-34.5-19.1-50-31.1c2.7,2.1,5.4,4.2,8.1,6.3
				c-31.6-24.5-60.4-53.1-95.1-73.4c-18.9-11-43.7-4.5-54.7,14.4C136.9,209.1,143.5,234.1,162.3,245.1L162.3,245.1z"/>
		</g>
	</g>
	<g>
		<g>
			<path class="st2" d="M210.5,212.3c20.9,17.9,48.9,17.3,73.3,27.8c12.9,5.6,24.9,13.1,37.5,19.4c13.3,6.6,27.4,10.9,41.5,15.5
				c28.7,9.3,58.1,16.8,88.4,16.4c29.4-0.4,58.7-5.1,87-12.9c35.8-9.9,70-25.2,103.3-41.4c6.1-3,7.7-11.6,4.5-17.1
				c-3.6-6.2-11-7.5-17.1-4.5C578.3,240,525.5,261.3,469,265.6c-14.1,1.1-28.5,1.5-42.5-0.4c-14.8-2-29.3-5.8-43.6-10.1
				c-13.7-4.1-27.6-8.2-40.9-13.4c-12.7-5-24.4-12.5-36.6-18.8c-13.5-6.9-27.7-11.9-42.5-15.3c-12.3-2.8-25.6-5.1-34.8-13
				c-5.2-4.4-12.6-5.1-17.7,0C205.9,199.2,205.3,207.9,210.5,212.3L210.5,212.3z"/>
		</g>
	</g>
	<g>
		<g>
			<path class="st2" d="M245.6,82.7c30.9-0.3,59.9-11.8,89.3-20.2c14.5-4.2,28.8-6.7,43.9-7.5c15.9-0.9,31.9-0.2,47.8,1.7
				c15.4,1.8,30.5,5.8,45.8,8.1c16.4,2.4,33,4.3,49.5,6.3c14.3,1.8,28.7,3.8,42.8,6.9c11.1,2.4,21,6.4,30.4,11
				c31.2,14.9,60.2,35.4,83.8,60.3c11.1,11.7,28.8-6,17.7-17.7c-16.8-17.7-36.5-32.8-56.9-46.1C619.1,72,596.4,60,572.5,54.1
				c-29.9-7.3-61.1-8.9-91.5-13.2c-15.9-2.3-31.5-6.1-47.3-8.3c-16.3-2.3-32.6-3.3-49.1-2.9c-25,0.7-48.4,6-72.1,13.4
				c-21.8,6.7-43.8,14.4-66.9,14.6C229.5,57.8,229.5,82.8,245.6,82.7L245.6,82.7z"/>
		</g>
	</g>
</g>
<g id="Layer_1">
	<path class="st1" d="M700,147.4c-23.5-24.1-41.7-54.3-76.8-61.4c-42.1-8.5-82.2-20.3-123.6-33.3c-43.1-13.5-90.8-9.9-135-4
		c-27.7,3.7-45.7,14.7-71.6,22.9c-16.5,5.2-35.2,5.1-50.5,14c-10.7,6.2-19.1,16.3-29.8,22.8c-23.9,14.7-45,32.4-71.7,42.9
		c-15.2,6-30.7,10.6-46.1,15.3c-11.3,3.4-31.9,4.8-40.4,10.6"/>
	<path class="st1" d="M700,196.5c-31.8-11-43.4-23.5-59.3-52.2c-13-23.5-29.2-46.5-54.9-57.9C548.5,69.7,494.4,69.1,454.3,65
		c-38.1-3.9-73.8-12.9-112.5-9.3c-38.8,3.6-67.9,24.6-103.2,38.5c-31.7,12.5-37.4,39-68.4,52.3c-19.6,8.4-47.4,59.3-135.1,27.1"/>
	<path class="st1" d="M87.7,177.2c16.5-1.3,31-8.6,49.5-8.8c20.3-0.2,38.8,2,58.6,4.9c46.6,6.7,78.2,29.1,119.5,51.7
		c29.1,15.9,59,32.1,91.7,36.7c28.8,4.1,60.5,1.9,89.4-0.8c70.4-6.6,136.6-60.5,207.1-36.4"/>
	<path class="st1" d="M687.7,222.8c-6.6-2.9-24-9.6-26.4-17.1c-5.4-16.3,15-11,26.4-11"/>
	<path class="st1" d="M698.2,236.4c-35.8-23.6-66.5,11.1-100,28.2c-31,15.8-73.1,19.4-107.5,22.8c-82.5,8-145-34.6-216.8-67.6
		c-6.2-2.8-12.1-5.5-17.9-7.5"/>
	<path class="st1" d="M221.1,205.3c-19.7-36.7-87.6-18.3-119.3-19.3"/>
	<path class="st1" d="M631.6,101.8c-11.3-17.7,6.7-39.6-7-57.9"/>
	<path class="st1" d="M594.7,77.2c-16.6-2.4-37.9-26.7-49.1-38.6"/>
	<path class="st1" d="M470.2,49.1c8.4,3.9,16.8,8.1,26.3,7"/>
	<path class="st1" d="M445.6,57.9c-6.6-10.8-10.2-22.1-10.5-35.1"/>
	<path class="st1" d="M417.5,54.4c-13.1-3.7-36.7-10-33.3-28.1"/>
	<path class="st1" d="M357.9,56.1c-10.5-2.5-20-9.7-24.6-19.3"/>
	<path class="st1" d="M324.6,66.7c-11-1.2-30.6-7.5-36.8-17.5"/>
	<path class="st1" d="M229.8,77.2c7.5,3.6,14.6,6.9,22.8,7"/>
	<path class="st1" d="M170.2,110.5c5.4,4.7,13.7,7.1,21.1,10.5"/>
	<path class="st1" d="M170.2,135.1c-9.7,0.2-20.7,2.3-26.3-7"/>
	<path class="st1" d="M138.6,152.6c-9.6-0.9-18.1-5-24.6-12.3"/>
	<path class="st1" d="M473.7,28.1c13,3.6,20.5,14.7,24.6,28.1"/>
	<path class="st1" d="M470.2,52.6c-7.9-11.3-14.1-21.6-17.5-35.1"/>
	<path class="st1" d="M505.3,26.3c3.1,13.1,2.8,24.4,10.5,36.8"/>
	<path class="st1" d="M543.9,64.9c-1.6-9.9-7.2-21.6-12.3-29.8"/>
	<path class="st1" d="M450.9,275.4c-13.2,0.3-24.8,5.5-33.3,15.8"/>
	<path class="st1" d="M310.5,250.9c12.4,0,27.8-2.9,38.6,3.5"/>
	<path class="st1" d="M308.8,228.1c-16.7,0-35.9-1.1-50.9,5.3"/>
	<path class="st1" d="M254.4,207c-12.8,2.8-19.8,5.4-29.8,14"/>
	<path class="st1" d="M147.4,198.2c10-10.9,27.5-20.1,42.1-19.3"/>
	<g class="st0">
		<g>
			<path d="M706.2,192.1c-4.3-0.8-6.6-1.8-9.4-3.2c-4-2-7.8-4.6-11.4-7.3c-7.9-5.9-15.6-14.2-22.3-21.9c-6.7-7.7-12.8-16-18.4-24.5
				c-2.6-3.9-5-8-7.3-12.1c-1-1.8-2-3.7-2.9-5.6c-0.4-0.9-0.8-1.7-1.3-2.6c-0.3-0.6-0.5-1.1-0.8-1.7c0.4,1,0.4,1,0,0
				c-2.1-5-6.6-8.6-12.3-7c-4.8,1.3-9,7.2-7,12.3c8.3,20.4,21.5,38.7,35.7,55.3c13.3,15.5,31.1,33.6,52,37.7c5.3,1,10.8-1.4,12.3-7
				C714.5,199.5,711.5,193.1,706.2,192.1L706.2,192.1z"/>
		</g>
	</g>
	<g class="st0">
		<g>
			<path d="M706.2,160.5c-18.5-5.2-34-17.1-49.1-28.6c-16.4-12.5-32.9-24.6-52.7-31c-12.3-4-17.5,15.3-5.3,19.3
				c18.4,6,33.9,18.3,49.1,29.9c16.2,12.4,32.8,24.1,52.7,29.7C713.3,183.3,718.6,164,706.2,160.5L706.2,160.5z"/>
		</g>
	</g>
	<g class="st0">
		<g>
			<path d="M717.4,158.1c-32.5-45.2-86.9-66-137.6-83.5c-5.2-1.8-10.9,2-12.3,7c-1.5,5.5,1.8,10.5,7,12.3
				c45.1,15.6,96.6,33.9,125.6,74.4c3.2,4.4,8.6,6.5,13.7,3.6C718.2,169.2,720.6,162.5,717.4,158.1L717.4,158.1z"/>
		</g>
	</g>
	<g class="st0">
		<g>
			<path d="M712.3,216.3c-12.4-1-24.9,2.8-36.6,6.3c-6,1.8-12,3.7-18.1,5.4c-6.5,1.8-13.1,2.8-19.7,4.4
				c-13.7,3.4-26.4,9.8-39.5,14.7c-8.7,3.2-17.8,5.5-26.7,8.2c-24.5,7.6-49.8,11.4-74.9,14.8c-25.3,3.4-51.1,8.8-76.7,5.8
				c-23.3-2.7-45.7-12.1-66.6-22.2c-45.8-22.4-87.9-52.7-136.7-68.6c-31.3-10.2-63.3-9.2-95.8-9.2c-12.9,0-12.9,20,0,20
				c15.3,0,30.6-0.5,45.9,0.2c14.3,0.7,28.1,3.2,41.8,7.4c23.5,7.1,45.5,18.7,67,30.5c43.5,24,87.4,53.2,137.5,61
				c26.3,4.1,52-0.7,78.1-4.1c17.3-2.3,34.6-4.5,51.7-7.6c10.2-1.9,20.2-4.4,30.2-7.4c6.9-2.1,13.7-4.3,20.6-6.2
				c13.7-3.8,26.4-10.3,39.7-15c6.9-2.4,13.8-3.8,21-5.2c6.9-1.4,13.7-3.6,20.4-5.7c12-3.7,24.7-8.5,37.4-7.5c5.4,0.4,10-4.9,10-10
				C722.3,220.6,717.8,216.8,712.3,216.3L712.3,216.3z"/>
		</g>
	</g>
	<g class="st0">
		<g>
			<path d="M226.1,168.6c-9.7-4.2-20.6-9.6-26.9-18.6c-5.9-8.4-3.4-18.2,4.5-25.7c7.7-7.3,19.4-10.1,29.3-13.3
				c12.1-3.9,23.7-8.3,33.8-16.2c4.3-3.4,3.5-10.6,0-14.1c-4.2-4.2-9.9-3.4-14.1,0c-9.6,7.6-22.8,10.3-34.2,14.1
				c-13.6,4.5-26.6,10.8-35.1,22.7c-8.8,12.5-9.9,28.4-2.1,41.6c7.6,12.7,21.6,21,34.8,26.8c5,2.2,10.7,1.5,13.7-3.6
				C232.2,178,231.1,170.7,226.1,168.6L226.1,168.6z"/>
		</g>
	</g>
	<g class="st0">
		<g>
			<path d="M315.8,67.2c-20.4,2.4-40,9.5-57.9,19.6c-18.1,10.2-34.8,24.5-43,43.9c-7.8,18.4-5.7,38.2,9.7,51.8
				c13.9,12.3,32.7,17.9,50,23.6c12.3,4.1,17.5-15.2,5.3-19.3c-13.5-4.5-29.2-9.2-39.5-17.2c-5.4-4.2-8.1-7.7-9.5-12.6
				c-0.9-3.1-0.8-5.2-0.4-9.3c0.3-2.6,1.9-7.4,3.2-10.5C240,122.4,254.2,112,268,104c7.8-4.5,16.1-8.2,24.6-11.1
				c7.3-2.5,16.6-4.9,23.2-5.7c5.4-0.6,10-4.1,10-10C325.8,72.2,321.2,66.6,315.8,67.2L315.8,67.2z"/>
		</g>
	</g>
	<g class="st0">
		<g>
			<path d="M307.1,207c-15.4-12.6-29-27.6-38.9-44.8c-9.5-16.4-15-36.3-5.1-53.6c6.4-11.2-10.4-20.9-17.3-10.1
				c-8.2,12.9-13.5,27.1-12.8,42.6c0.6,15.1,6.1,29.7,10.1,44.1c3.5,12.5,21.9,7.2,19.3-5.3c-3.7-17.4-13.4-33.6-13.7-51.7
				c-0.2-10.4-13.1-13.1-18.6-5c-8.5,12.3-11.2,26.5-13.3,41c6.1-0.8,12.2-1.6,18.3-2.4c-4.6-9.3-7.7-19-9.5-29.2
				c-0.8-4.3-5.5-7.3-9.6-7.3c-4.8,0-8,3.1-9.6,7.3c-3.5,8.8-7,17.5-10.5,26.3c6.5,0.9,13.1,1.8,19.6,2.7c-0.2-3.6-1.1-6.8-2.4-10.1
				c-0.8-2-2.8-6.2-2.8-7.4c-0.6-8.7-10.4-13.2-17.1-7.1c-3.8,3.5-12.5,7.6-17.5,12.3c5.7,2.4,11.4,4.7,17.1,7.1
				c-0.4-2.9-1.5-5.9-1.8-8.8c-0.6-8.6-10.4-13.3-17.1-7.1c-7.9,7.5-20.4,8.3-30.7,9.7c-5.4,0.8-8.3,7.6-7,12.3
				c1.6,5.8,6.9,7.8,12.3,7c14.3-2,28.6-4.6,39.5-14.9c-5.7-2.4-11.4-4.7-17.1-7.1c0.2,2.7,1.6,7.4,1.8,8.8
				c1.1,8.4,10.1,13.5,17.1,7.1c3.8-3.5,12.5-7.6,17.5-12.3c-5.7-2.4-11.4-4.7-17.1-7.1c0.2,3.6,1.1,6.8,2.4,10.1
				c0.8,2,2.8,6.2,2.8,7.4c0.8,11.7,15.5,13,19.6,2.7c3.5-8.8,7-17.5,10.5-26.3c-6.4,0-12.9,0-19.3,0c2.1,11.9,6.2,23.1,11.5,34
				c3.6,7.3,17.1,6.2,18.3-2.4c1.8-12.8,3.8-25.3,11.3-36.2c-6.2-1.7-12.4-3.4-18.6-5c0.3,20.2,10.3,37.7,14.4,57
				c6.4-1.8,12.9-3.5,19.3-5.3c-3.3-11.8-7.9-24.1-9.2-36.2c-1.3-13,3-24.2,9.9-35.1c-5.8-3.4-11.5-6.7-17.3-10.1
				c-25.3,44.3,13.8,95.3,47.2,122.6c4.2,3.4,10,4.1,14.1,0C310.6,217.5,311.3,210.4,307.1,207L307.1,207z"/>
		</g>
	</g>
	<g class="st0">
		<g>
			<path d="M656.7,177.2c-0.1,14.3-4.7,31.1-17.9,38.7c-11.1,6.5-1.1,23.8,10.1,17.3c19.3-11.3,27.5-34.6,27.8-56
				C676.8,164.3,656.8,164.3,656.7,177.2L656.7,177.2z"/>
		</g>
	</g>
	<g class="st0">
		<g>
			<path d="M628.6,159.6c0.1,19.7,3.9,44.1-11.1,59.6c-9,9.3,5.2,23.4,14.1,14.1c19.5-20.2,17-47.9,17-73.7
				C648.6,146.8,628.6,146.8,628.6,159.6L628.6,159.6z"/>
		</g>
	</g>
	<g class="st0">
		<g>
			<path d="M634.2,120.2c15.7,48-4.4,119.6-59.7,129.8c-5.4,1-8.3,7.4-7,12.3c1.5,5.6,6.9,8,12.3,7c66.1-12.2,92.5-96.9,73.7-154.4
				C649.5,102.7,630.2,107.9,634.2,120.2L634.2,120.2z"/>
		</g>
	</g>
	<g class="st0">
		<g>
			<path d="M689.5,225.1c-23.5-1.5-46.5-7.5-70-2.3c-11.5,2.5-22.4,8.2-33,13.1c-10.2,4.7-20.4,9-31.2,12
				c-49.6,13.5-102.8,7.2-153.5,7.1c-12.9,0-12.9,20,0,20C453.5,275,506.1,280,557,268c11.8-2.8,22.9-7.3,33.9-12.3
				c10.1-4.5,19.9-9.7,30.6-12.8c22-6.4,45.7,0.8,67.9,2.2C702.4,245.9,702.3,225.9,689.5,225.1L689.5,225.1z"/>
		</g>
	</g>
	<g class="st3">
		<g>
			<path d="M208.4,112.8c-7,14-18.8,38.2-0.9,49c2.8,1.7,5.3-2.7,2.5-4.3c-14.8-8.9-2.9-31,2.7-42.2
				C214.1,112.4,209.8,109.9,208.4,112.8L208.4,112.8z"/>
		</g>
	</g>
	<g class="st3">
		<g>
			<path d="M230.3,117.1c-15.9,7.4-24.9,22.7-32.5,37.7c-1.4,2.9,2.9,5.4,4.3,2.5c7.2-14.4,15.5-28.9,30.7-35.9
				C235.8,120.1,233.2,115.8,230.3,117.1L230.3,117.1z"/>
		</g>
	</g>
</g>
</svg>
