<?xml version="1.0" encoding="utf-8"?>
<!-- Generator: Adobe Illustrator 16.0.0, SVG Export Plug-In . SVG Version: 6.00 Build 0)  -->
<!DOCTYPE svg PUBLIC "-//W3C//DTD SVG 1.1//EN" "http://www.w3.org/Graphics/SVG/1.1/DTD/svg11.dtd">
<svg version="1.1" xmlns="http://www.w3.org/2000/svg" xmlns:xlink="http://www.w3.org/1999/xlink" x="0px" y="0px" width="750.9px"
	 height="317.5px" viewBox="0 0 750.9 317.5" enable-background="new 0 0 750.9 317.5" xml:space="preserve">
<g id="eyelid">
	<g>
		<g>
			<path fill="#FFFFFF" d="M122.308,118.411c1.175-1.983,2.451-3.861,3.858-5.687c-1.772,2.294-3.544,4.587-5.316,6.881
				c2.894-3.539,6.153-6.625,9.743-9.448c-2.293,1.772-4.587,3.544-6.881,5.316c10.914-8.245,23.597-13.523,35.751-19.613
				c8.313-4.165,15.74-9.148,22.731-15.383c5.565-4.964,9.966-11.052,15.742-15.811c-2.294,1.772-4.588,3.544-6.881,5.316
				c2.165-1.654,4.354-3.044,6.82-4.207c-2.708,1.142-5.415,2.285-8.122,3.427c9.054-3.779,18.698-4.365,28.235-6.168
				c18.224-3.445,28.354-25.077,23.747-41.824c-2.338-8.499-8.025-15.867-15.625-20.319c-8.369-4.902-16.932-5.18-26.199-3.428
				c-14.301,2.704-28.037,3.891-40.754,12.027c-11.224,7.18-18.331,17.838-28.617,25.889c2.293-1.772,4.587-3.544,6.881-5.316
				c-10.655,7.722-23.599,12.217-35.132,18.453C86.695,56.95,72.7,68.72,63.592,84.089c-9.453,15.952-3.708,37.202,12.197,46.519
				C91.85,140.016,112.876,134.327,122.308,118.411L122.308,118.411z"/>
		</g>
	</g>
	<g>
		<g>
			<path fill="#FFFFFF" d="M162.95,86.25c10.057-0.252,19.762-2.368,29.199-5.666c7.206-2.518,14.268-5.32,21.84-6.548
				c-3.013,0.405-6.026,0.81-9.039,1.214c22.321-2.042,44.181-6.389,66.357-9.393c-3.013,0.405-6.026,0.81-9.039,1.214
				c19.429-2.549,38.5-2.726,58.041-2.778c22.527-0.061,44.971-4.229,67.223-7.257c-3.013,0.405-6.025,0.81-9.038,1.214
				c20.114-2.698,40.382-4.707,60.629-2.248c-3.013-0.405-6.025-0.81-9.038-1.215c15.645,2.122,30.414,7.641,44.9,13.719
				c-2.708-1.143-5.415-2.285-8.122-3.428c15.96,6.759,31.684,14.208,48.048,19.957c17.496,6.146,37.167-6.815,41.824-23.747
				c5.173-18.806-6.278-35.688-23.746-41.824c-5.814-2.042-11.525-4.337-17.202-6.729c2.707,1.143,5.414,2.285,8.121,3.427
				c-14.122-6.002-28.095-12.376-42.416-17.9c-14.466-5.581-28.815-8.614-44.196-10.482c-29.25-3.552-59.121,2.564-88.002,6.478
				c3.013-0.405,6.025-0.81,9.039-1.214c-10.844,1.447-21.707,2.683-32.643,3.129c-11.529,0.47-23.058-0.304-34.599,0.212
				c-25.859,1.157-51.047,6.631-76.602,10.111c3.013-0.405,6.026-0.81,9.039-1.214c-12.001,1.545-24.336,1.758-36.016,5.095
				c-9.608,2.745-18.619,7.162-28.56,8.727c3.013-0.405,6.026-0.81,9.039-1.215c-1.688,0.198-3.341,0.319-5.04,0.361
				c-18.524,0.465-34,15.114-34,34C128.95,70.432,144.416,86.715,162.95,86.25L162.95,86.25z"/>
		</g>
	</g>
	<g>
		<g>
			<path fill="#FFFFFF" d="M396.95,62.25c11.479-0.604,22.944,0.84,34.301,2.361c-3.013-0.405-6.026-0.81-9.039-1.214
				c9.577,1.303,19.143,2.699,28.738,3.853c-3.013-0.405-6.025-0.81-9.039-1.214c7.003,1.047,13.648,3.113,20.175,5.827
				c-2.707-1.142-5.414-2.285-8.122-3.427c16.274,7.029,31.371,16.14,47.947,22.601c-2.707-1.143-5.414-2.285-8.121-3.428
				c16.629,7.248,31.748,17.236,46.489,27.712c14.953,10.628,29.945,21.233,45.178,31.463
				c15.445,10.373,31.504,18.364,48.551,25.718c17.083,7.37,34.194,14.845,49.782,25.106c15.498,10.202,37.53,3.146,46.519-12.198
				c9.743-16.633,3.25-36.349-12.198-46.518c-15.588-10.262-32.7-17.732-49.781-25.106c-17.642-7.616-34.096-16.01-50.074-26.741
				c-15.718-10.557-31.123-21.585-46.581-32.515c-17.347-12.265-35.107-22.296-54.807-30.309c2.708,1.143,5.415,2.285,8.122,3.427
				c-11.081-4.685-21.439-10.826-32.303-15.965c-7.467-3.533-15.173-6.828-23.104-9.185c-8.102-2.407-16.632-2.95-24.974-4.052
				c3.013,0.405,6.025,0.81,9.038,1.214c-18.662-2.514-37.771-6.409-56.696-5.412c-18.501,0.975-34,14.729-34,34
				C362.95,46.046,378.427,63.226,396.95,62.25L396.95,62.25z"/>
		</g>
	</g>
	<g>
		<g>
			<path fill="#FFFFFF" d="M54.992,150.292c30.281-28.543,43.421-68.885,68.411-101.274c-1.772,2.293-3.544,4.587-5.316,6.881
				c4.345-5.514,9.236-10.313,14.741-14.669c-2.294,1.772-4.587,3.544-6.881,5.316c12.667-9.704,27.097-16.561,41.166-23.938
				c16.397-8.599,21.235-31.089,12.197-46.519c-4.452-7.6-11.821-13.287-20.319-15.625c-9.638-2.651-17.41-0.382-26.199,3.428
				c-16.209,7.026-29.424,20.057-40.415,33.595c-9.843,12.125-18.77,25.172-31.119,34.96c2.293-1.772,4.587-3.544,6.881-5.316
				c-1.737,1.326-3.511,2.577-5.348,3.761c16.649,6.773,33.297,13.546,49.946,20.319c-0.104-0.546-0.189-1.095-0.257-1.646
				c0.405,3.013,0.81,6.025,1.214,9.038c-0.192-1.816-0.209-3.592-0.014-5.409c-0.405,3.013-0.81,6.026-1.215,9.039
				c0.245-1.688,0.659-3.29,1.268-4.883c-1.143,2.707-2.285,5.415-3.428,8.122c0.757-1.785,1.706-3.415,2.855-4.976
				c-1.772,2.294-3.544,4.587-5.316,6.881c1.584-2.023,3.395-3.775,5.398-5.38c-2.294,1.772-4.588,3.544-6.881,5.316
				c3.933-3.017,8.296-5.303,12.844-7.244c-2.708,1.143-5.415,2.285-8.122,3.427c15.671-6.481,32.745-9.133,49.456-11.383
				c-3.013,0.405-6.025,0.81-9.038,1.214c16.137-2.151,32.204-4.276,48.225-7.206c25.775-4.714,51.382-10.334,77.354-13.914
				c-3.013,0.405-6.026,0.81-9.039,1.214c11.263-1.508,22.56-2.622,33.911-3.172c-5.72-21.119-11.44-42.239-17.161-63.358
				c-1.622,0.705-3.248,1.401-4.877,2.09c2.708-1.143,5.415-2.285,8.122-3.427c-34.027,14.186-69.793,23.451-105.442,32.534
				c-17.191,4.38-34.305,9.069-51.5,13.428c-18.789,4.763-38.396,9.78-54.303,21.375c13.734,17.8,27.468,35.6,41.202,53.399
				c3.249-3.712,6.821-7.05,10.698-10.097c-2.293,1.772-4.587,3.544-6.881,5.316c6.947-5.303,14.572-9.485,22.588-12.938
				c-2.708,1.143-5.415,2.285-8.122,3.428c18.241-7.656,37.786-11.549,57.312-14.208c-3.013,0.405-6.025,0.81-9.039,1.214
				c20.785-2.76,41.713-4.01,62.62-5.424c27.052-1.83,53.731-6.018,80.586-9.635c-3.013,0.405-6.026,0.81-9.039,1.214
				c30.857-4.099,61.351-6.093,92.308-1.964c-3.013-0.405-6.026-0.81-9.039-1.214c33.865,4.649,67.274,13.148,98.807,26.436
				c-2.707-1.142-5.415-2.285-8.122-3.427c18.659,7.979,36.762,17.569,52.884,29.963c-2.294-1.772-4.588-3.544-6.881-5.316
				c16.207,12.589,31.663,26.48,49.401,36.927c16.648,9.805,34.797,16.742,51.717,26.042c16.244,8.93,36.977,4.092,46.519-12.197
				c9.178-15.668,4.022-37.602-12.198-46.519c-11.971-6.581-24.487-12.057-36.74-18.074c-12.325-6.053-23.765-13.145-34.67-21.481
				c2.293,1.772,4.587,3.544,6.881,5.316c-12.698-9.813-24.809-20.532-38.092-29.557c-10.742-7.298-22.186-13.533-33.912-19.089
				c-25.809-12.228-52.888-21.533-80.706-27.929c-28.073-6.455-57.294-10.868-86.14-10.436
				c-33.274,0.499-66.259,6.625-99.151,11.077c3.013-0.405,6.025-0.81,9.038-1.214c-16.19,2.162-32.52,3.002-48.808,4.104
				c-20.217,1.367-40.306,3.307-60.37,6.181C135.107-2.005,94.943,9.6,69.909,38.208c-10.145,11.593-13.432,27.348-5.316,41.202
				c8.656,14.776,31.51,23.138,46.519,12.197c5.016-3.657,10.377-6.563,16.084-8.989c-2.707,1.143-5.415,2.285-8.122,3.428
				c14.391-5.822,29.857-8.863,44.815-12.882c16.928-4.549,33.949-8.746,50.92-13.128c35.623-9.197,70.516-19.75,104.303-34.429
				c13.754-5.976,19.299-25.038,15.625-38.396C330.871-26.84,316.95-38.477,301.95-37.75c-28.074,1.36-55.935,5.978-83.51,11.234
				c-20.131,3.837-40.229,8.306-60.547,11.064c3.013-0.405,6.026-0.81,9.039-1.214c-22.633,3.028-45.873,4.908-67.651,12.22
				C85.55,0.164,71.979,6.549,61.693,17.034c-6.777,6.908-10.923,14.511-14.017,23.583c-3.216,9.428-2.158,19.14-0.511,28.672
				c1.431,8.283,8.639,16.227,15.625,20.319c10.141,5.94,24.23,6.504,34.321,0c13.953-8.993,24.77-20.437,34.929-33.354
				c8.604-10.94,17.007-22.165,28.054-30.801c-2.293,1.772-4.587,3.544-6.881,5.316c4.334-3.264,8.917-6.002,13.898-8.161
				C155.67,3.036,144.23-16.536,132.79-36.108c-12.639,6.627-25.535,12.835-37.259,21.037C87.875-9.715,80.39-3.854,73.997,2.991
				c-6.182,6.619-11.506,14.29-16.588,21.794c-15.291,22.579-26.03,47.963-42.63,69.698c1.772-2.294,3.544-4.588,5.316-6.881
				c-4.05,5.191-8.394,10.088-13.187,14.606c-13.485,12.711-12.81,35.273,0,48.083C20.297,163.68,41.516,162.995,54.992,150.292
				L54.992,150.292z"/>
		</g>
	</g>
	<g>
		<g>
			<path fill="#FFFFFF" d="M120.95,34.25c-10.636-0.784-21.786-0.323-32.063,2.681c-17.896,5.231-31.344,18.435-36.723,36.281
				c-5.348,17.741,6.213,37.001,23.747,41.824c18.192,5.004,36.479-6.017,41.824-23.747c0.208-0.785,0.467-1.553,0.777-2.303
				c-1.143,2.708-2.285,5.415-3.428,8.122c0.634-1.395,1.354-2.637,2.263-3.871c-1.772,2.293-3.544,4.587-5.316,6.881
				c0.943-1.112,1.935-2.069,3.076-2.978c-2.293,1.772-4.587,3.544-6.881,5.316c1.506-1.06,3.055-1.901,4.746-2.629
				c-2.708,1.143-5.415,2.285-8.122,3.428c2.532-0.961,5.097-1.583,7.769-2.01c-3.013,0.405-6.025,0.81-9.039,1.214
				c5.778-0.772,11.57-0.637,17.37-0.209c18.506,1.364,34-16.498,34-34C154.95,48.686,139.426,35.611,120.95,34.25L120.95,34.25z"/>
		</g>
	</g>
	<g>
		<g>
			<path fill="#FFFFFF" d="M116.592,33.089c-0.338,0.455-0.677,0.91-1.016,1.365c1.772-2.293,3.544-4.587,5.316-6.881
				c-4.934,6.35-10.604,11.98-16.523,17.405c-2.945,2.699-5.955,5.328-8.942,7.979c-5.096,4.523-8.957,9.728-13.075,15.203
				c-5.086,6.762-7.935,15.268-10.526,23.239c-2.438,7.497-5.163,14.806-8.224,22.074c1.143-2.708,2.285-5.415,3.428-8.122
				c-4.181,9.86-8.557,19.652-12.273,29.7c-4.041,10.926-6.085,22.061-7.426,33.617c-2.422,20.878,1.986,40.453,12.392,58.702
				c3.849,6.75,8.729,12.826,12.729,19.468c5.731,9.516,12.949,18.356,20.589,26.401c13.382,14.093,29.655,25.605,45.749,36.37
				c12.605,8.43,30.889,4.996,41.202-5.316c6.348-6.348,9.958-15.061,9.958-24.042c0-8.15-3.314-18.715-9.958-24.042
				c-10.2-8.178-21.26-14.905-31.675-22.749c2.293,1.771,4.587,3.544,6.881,5.316c-4.168-3.246-7.858-6.762-11.249-10.813
				c1.772,2.294,3.544,4.588,5.316,6.881c-1.571-2.117-2.847-4.297-3.961-6.686c1.142,2.707,2.285,5.414,3.427,8.122
				c-1.771-4.235-2.905-8.631-4.006-13.077c-1.824-7.368-4.612-13.935-7.591-20.972c-3.887-9.186-9.511-17.529-13.518-26.669
				c1.143,2.708,2.285,5.415,3.428,8.122c-2.282-5.488-3.731-10.896-4.548-16.782c0.405,3.013,0.81,6.025,1.214,9.038
				c-1.439-11.857-1.275-23.835-2.761-35.69c-1.179-9.412-2.975-17.058-9.958-24.042c-6.347-6.348-15.06-9.958-24.042-9.958
				s-17.694,3.611-24.042,9.958c-5.699,5.699-11.01,15.648-9.958,24.042c2.224,17.748,0.794,36.333,5.679,53.689
				c4.449,15.808,14.069,29.095,20.391,44.034c-1.143-2.707-2.285-5.414-3.427-8.122c2.427,6.101,3.677,12.487,5.494,18.774
				c3.371,11.664,9.039,20.669,16.808,29.829c10.756,12.683,26.698,20.153,39.701,30.196c-2.293-1.772-4.587-3.545-6.881-5.316
				c0.397,0.318,0.795,0.638,1.193,0.957c13.734-17.8,27.468-35.601,41.202-53.4c-6.442-4.309-12.79-8.745-18.949-13.451
				c2.294,1.772,4.587,3.545,6.881,5.316c-10.523-8.154-20.332-17.111-28.585-27.594c1.772,2.294,3.544,4.588,5.316,6.882
				c-4.646-6.081-8.653-12.636-12.949-18.965c-4.061-5.981-7.899-12.104-10.788-18.748c1.142,2.708,2.285,5.415,3.427,8.122
				c-1.775-4.344-3.034-8.758-3.75-13.398c0.405,3.013,0.81,6.026,1.215,9.039c-0.82-6.536-0.355-12.909,0.401-19.428
				c-0.405,3.013-0.81,6.025-1.214,9.038c1.742-12.888,6.093-24.934,11.106-36.868c-1.142,2.708-2.285,5.415-3.427,8.122
				c4.035-9.533,8.218-19.009,11.94-28.67c2.272-5.899,3.808-12.056,6.226-17.9c-1.143,2.708-2.285,5.415-3.427,8.122
				c1.466-3.302,3.248-6.32,5.42-9.207c-1.772,2.293-3.544,4.587-5.316,6.881c4.942-6.133,11.297-10.984,17.085-16.288
				c8.136-7.456,14.993-15.626,21.585-24.486c5.162-6.938,5.622-18.223,3.428-26.199c-2.338-8.499-8.025-15.867-15.625-20.319
				c-7.853-4.6-17.423-5.841-26.199-3.428C127.649,20.013,122.114,25.667,116.592,33.089L116.592,33.089z"/>
		</g>
	</g>
	<g>
		<g>
			<path fill="#FFFFFF" d="M78.909,263.292c21.917,19.065,49.583,29.269,76.891,38.056c30.392,9.778,61.201,15.623,92.806,19.868
				c61.392,8.246,124.208,2.885,182.219-19.382c30.402-11.669,59.492-26.265,88.56-40.858c21.47-10.779,44.732-20.753,60.867-39.291
				c22.314-25.64,28.353-60.312,27.961-93.462c-0.228-19.211-3.094-38.092-11.45-55.461c-6.783-14.098-19.526-25.307-32.527-33.494
				c-14.139-8.904-30.653-14.045-46.246-19.803c-6.026,21.857-12.052,43.714-18.078,65.571c9.835,1.475,19.43,3.924,28.623,7.741
				c-2.707-1.143-5.414-2.285-8.121-3.428c6.91,2.973,13.409,6.655,19.42,11.185c-2.294-1.772-4.588-3.544-6.882-5.316
				c5.526,4.285,10.453,9.167,14.768,14.67c-1.772-2.293-3.544-4.587-5.316-6.881c4.359,5.717,7.932,11.899,10.79,18.494
				c-1.143-2.707-2.285-5.415-3.428-8.122c3.546,8.458,5.819,17.301,7.063,26.38c-0.405-3.013-0.811-6.026-1.215-9.039
				c1.457,11.475,1.257,23.023-0.208,34.487c0.405-3.013,0.81-6.026,1.215-9.039c-1.966,14.47-5.902,28.545-11.454,42.044
				c22.262,3.013,44.523,6.025,66.785,9.038c0.153-1.516,0.334-3.027,0.534-4.537c-0.405,3.013-0.81,6.025-1.215,9.038
				c4.406-32.015,13.497-63.207,14.255-95.734c0.46-19.74-3.059-38.727-11.447-56.586c-9.369-19.946-28.637-33.386-49.088-39.966
				c-14.438-4.645-30.942,2.9-38.397,15.625c-7.604,12.982-5.668,30.662,5.316,41.202c8.281,7.947,16.03,16.386,23.088,25.44
				c-1.771-2.294-3.544-4.587-5.316-6.881c8.393,10.951,15.654,22.667,21.033,35.396c-1.143-2.708-2.285-5.415-3.428-8.122
				c3.448,8.452,5.971,17.154,7.28,26.196c-0.404-3.013-0.81-6.025-1.214-9.039c0.959,7.477,1.044,14.925,0.164,22.414
				c0.404-3.013,0.81-6.026,1.214-9.039c-1.065,7.819-3.155,15.317-6.203,22.594c1.143-2.708,2.285-5.415,3.428-8.122
				c-3.298,7.484-7.472,14.41-12.362,20.961c19.572,11.44,39.145,22.88,58.717,34.32c16.416-36.526,30.369-75.592,27.786-116.318
				c-1.373-21.642-7.048-40.321-15.918-59.948c-6.695-14.816-15.356-28.656-22.868-43.055
				c-15.507,15.506-31.013,31.013-46.519,46.519c9.8,4.953,19.021,10.884,27.74,17.549c-2.293-1.772-4.587-3.544-6.881-5.316
				c13.197,10.237,25.063,22.039,35.305,35.235c-1.771-2.293-3.544-4.587-5.316-6.881c8.328,10.901,15.451,22.628,20.808,35.273
				c-1.143-2.708-2.285-5.415-3.428-8.122c3.821,9.28,6.606,18.88,7.982,28.831c-0.405-3.013-0.81-6.026-1.215-9.039
				c0.947,7.583,1.04,15.162,0.134,22.752c0.404-3.013,0.81-6.026,1.215-9.039c-0.981,7.265-2.86,14.272-5.65,21.052
				c1.143-2.708,2.285-5.415,3.428-8.122c-2.924,6.785-6.657,13.072-11.106,18.967c1.772-2.294,3.544-4.588,5.316-6.881
				c-3.431,4.402-7.176,8.487-11.213,12.34c19.348,8.015,38.694,16.028,58.042,24.042c-0.868-7.981-0.382-15.903,0.66-23.844
				c-0.404,3.013-0.81,6.025-1.215,9.038c1.363-9.688,3.395-19.264,4.826-28.94c1.072-7.243,2.107-14.526,2.487-21.846
				c0.382-7.355-0.651-14.432-1.646-21.724c-2.961-21.722-16.242-39.83-30.763-55.475c-13.056-14.067-28.362-26.278-44.1-37.181
				c-14.343-9.937-31.032-19.195-48.212-22.814c-12.083-2.544-24.108-0.229-33.081,8.744c-9.205,9.206-10.876,20.792-8.743,33.08
				c2.45,14.121,13.516,26.901,22.45,37.335c7.375,8.613,15.63,16.483,22.634,25.412c-1.771-2.294-3.544-4.587-5.316-6.881
				c7.142,9.378,12.367,20.534,16.938,31.339c-1.143-2.708-2.285-5.415-3.428-8.122c6.542,15.81,11.215,32.312,13.548,49.273
				c-0.404-3.013-0.81-6.026-1.214-9.039c1.505,11.769,1.843,23.604,0.384,35.395c0.404-3.013,0.81-6.026,1.214-9.039
				c-0.517,3.756-1.003,7.514-2.449,11.038c1.143-2.708,2.285-5.415,3.428-8.122c-2.721,6.269-6.72,11.955-10.845,17.367
				c1.771-2.294,3.544-4.587,5.316-6.881c-6.798,8.782-14.447,16.977-23.181,23.864c2.294-1.771,4.588-3.544,6.882-5.316
				c-3.826,2.944-7.834,5.613-12.261,7.57c2.707-1.143,5.414-2.285,8.122-3.428c-1.968,0.813-3.949,1.45-6.05,1.813
				c3.013-0.405,6.025-0.81,9.039-1.215c-1.396,0.185-2.745,0.229-4.146,0.084c3.014,0.405,6.026,0.81,9.039,1.215
				c-1.094-0.174-2.104-0.451-3.126-0.875c2.707,1.142,5.414,2.284,8.121,3.427c-6.242-3.054-11.166-5.252-18.314-5.252
				c-5.267,0-10.932,1.589-16.11,2.817c-5.346,1.268-10.645,2.732-15.923,4.254c-10.748,3.098-21.365,6.641-31.979,10.168
				c-20.379,6.772-40.688,13.483-61.799,17.59c-41.015,7.978-82.817,11.834-120.35,31.813c-10.45,5.563-16.839,17.751-16.839,29.358
				c0,14.107,10.263,30.101,24.961,32.785c11.784,2.152,22.165,1.43,33.857-1.322c7.029-1.654,13.945-3.844,20.944-5.633
				c18.097-4.626,36.308-8.807,54.612-12.533c17.566-3.576,35.271-6.359,52.889-9.657c17.938-3.357,35.861-6.8,53.948-9.275
				c-3.014,0.405-6.026,0.81-9.039,1.215c18.173-2.415,36.502-3.861,54.827-2.579c-8.014-19.348-16.027-38.694-24.042-58.042
				c-1.541,1.598-3.159,3.066-4.883,4.465c2.294-1.772,4.588-3.544,6.882-5.316c-6.012,4.615-12.75,7.961-19.707,10.901
				c2.707-1.143,5.415-2.285,8.122-3.428c-14.134,5.83-28.77,10.314-42.532,17.062c-13.545,6.641-19.441,24.522-15.625,38.396
				c2.338,8.499,8.024,15.868,15.625,20.32c7.116,4.168,18.2,6.655,26.199,3.427c15.759-6.361,31.114-13.611,46.761-20.228
				c-2.707,1.143-5.414,2.285-8.121,3.428c7.678-3.202,15.19-6.715,22.836-9.977c-2.708,1.143-5.415,2.285-8.122,3.428
				c11.06-4.655,22.288-8.918,33.177-13.974c9.912-4.603,20.57-10.855,27.473-19.421c7.84-9.729,12.231-20.4,8.743-33.08
				c-3.815-13.874-17.832-25.93-32.785-24.962c-25.674,1.661-53.077,9.511-74.16,24.642c-12.546,9.004-19.96,22.641-15.625,38.396
				c3.827,13.915,17.821,25.873,32.785,24.962c16.969-1.033,32.116-6.974,46.426-15.972c9.848-6.191,19.051-13.524,29.73-18.289
				c-2.707,1.143-5.414,2.285-8.122,3.428c2.292-0.959,4.598-1.765,7.005-2.382c-11.027-18.942-22.054-37.885-33.081-56.827
				c-2.693,2.633-5.533,5.057-8.509,7.364c2.294-1.772,4.588-3.545,6.881-5.316c-11.01,8.279-23.244,14.703-34.49,22.636
				c-12.604,8.891-19.935,22.732-15.625,38.396c4.814,17.504,24.095,29.136,41.824,23.747c13.578-4.127,26.848-9.281,40.962-11.349
				c-3.013,0.404-6.025,0.81-9.038,1.214c5.149-0.662,10.256-0.88,15.422-0.271c-3.013-0.405-6.025-0.81-9.038-1.215
				c3.086,0.467,6.013,1.216,8.911,2.377c-2.707-1.143-5.414-2.285-8.122-3.428c2.469,1.115,4.674,2.467,6.834,4.099
				c-2.294-1.772-4.588-3.544-6.881-5.316c1.396,1.179,2.645,2.412,3.833,3.799c-1.771-2.294-3.544-4.588-5.316-6.881
				c1.61,2.087,2.894,4.267,3.987,6.664c-1.143-2.708-2.285-5.415-3.428-8.122c2.043,4.975,3.043,10.172,3.767,15.48
				c-0.404-3.013-0.81-6.025-1.215-9.039c1.113,8.751,1.852,17.567,3.498,26.241c21.856-6.025,43.714-12.051,65.57-18.076
				c-5.813-14.775-9.209-30.275-11.393-45.969c0.404,3.013,0.81,6.025,1.215,9.038c-3.119-23.416-3.579-47.051-3.618-70.642
				c-0.042-25.68,0.417-51.208,3.765-76.707c-0.404,3.013-0.81,6.026-1.214,9.039c2.63-19.338,6.666-38.413,12.174-57.137
				c4.27-14.515,8.514-29.272,14.352-43.242c-1.143,2.708-2.285,5.415-3.428,8.122c2.695-6.267,5.779-12.321,9.837-17.824
				c-1.772,2.293-3.545,4.587-5.316,6.881c1.51-1.947,3.109-3.768,4.884-5.479c-18.942-5.001-37.885-10.002-56.827-15.003
				c0.99,3.701,1.732,7.431,2.289,11.221c-0.405-3.013-0.811-6.026-1.215-9.039c2.643,20.029,0.23,40.347-2.422,60.244
				c0.405-3.013,0.81-6.025,1.215-9.039c-2.049,15.188-4.386,30.347-5.977,45.593c-1.326,12.709-1.445,25.531-1.872,38.293
				c-1.033,30.897-0.86,62.83,7.981,92.726c4.302,14.547,17.442,24.962,32.785,24.962c14.226,0,29.946-10.271,32.785-24.962
				c8.509-44.019,8.996-90.313,26.231-132.271c-1.143,2.708-2.285,5.415-3.427,8.122c2.28-5.401,4.838-10.648,7.769-15.728
				c-19.572,0-39.145,0-58.717,0c0.325,0.672,0.635,1.353,0.929,2.04c-1.143-2.708-2.285-5.415-3.428-8.122
				c2.501,6.036,3.926,12.357,4.827,18.813c-0.405-3.013-0.81-6.026-1.215-9.039c4.034,31.739-2.915,63.675-5.326,95.26
				c-3.104,40.662-7.659,82.766,1.786,122.925c2.683,11.407,12.652,20.696,23.746,23.747c13.864,3.813,31.771-2.075,38.397-15.625
				c18-36.806,18.061-79.116,18.361-119.249c0.145-19.257,1.64-38.347,2.755-57.563c1.435-24.706,1.01-48.881-2.689-73.386
				c-2.221-14.714-19.031-24.961-32.785-24.961c-15.439,0-28.356,10.434-32.785,24.961c-11.888,38.991-13.572,80.24-18.864,120.43
				c0.404-3.013,0.81-6.025,1.214-9.038c-0.972,7.226-2.063,14.431-3.35,21.608c21.856,0,43.714,0,65.57,0
				c-15.471-51.095-25.866-104.43-54.873-150.205c-12.27-19.362-27.825-35.809-47.443-47.801
				c-18.501-11.309-39.59-16.268-59.371-24.543c2.708,1.143,5.415,2.285,8.122,3.428c-11.352-4.818-22.802-10.143-32.753-17.51
				c2.294,1.772,4.588,3.544,6.882,5.316c-1.503-1.162-2.94-2.369-4.307-3.688c-8.015,19.347-16.028,38.694-24.042,58.042
				c2.296,0.029,4.561,0.2,6.838,0.489c-3.013-0.405-6.025-0.81-9.038-1.214c6.692,0.993,13.101,2.996,19.352,5.553
				c-2.707-1.143-5.414-2.285-8.121-3.428c12.2,5.169,23.444,12.246,33.935,20.303c-2.294-1.772-4.588-3.544-6.881-5.316
				c10.456,8.161,20.233,17.286,28.418,27.753c-1.771-2.293-3.544-4.587-5.316-6.881c1.949,2.549,3.784,5.163,5.456,7.902
				c9.641,15.788,30.298,21.699,46.519,12.197c15.748-9.225,21.862-30.69,12.198-46.519C663.37,31.9,644.396,15.282,624.45,0.936
				c-20.577-14.8-45.785-26.365-71.5-26.686c-29.426-0.367-45.338,37.476-24.042,58.042c11.734,11.332,26.608,18.964,41.409,25.433
				c14.701,6.425,30.015,10.852,44.79,17.033c-2.708-1.143-5.415-2.285-8.122-3.427c9.435,4.024,18.436,8.84,26.601,15.081
				c-2.294-1.772-4.587-3.544-6.881-5.316c7.033,5.51,13.179,11.898,18.653,18.951c-1.772-2.294-3.544-4.587-5.316-6.881
				c10.529,13.857,18.642,29.504,25.489,45.455c-1.143-2.708-2.284-5.415-3.427-8.122c14.529,34.441,22.261,71.126,33.061,106.792
				c4.399,14.532,17.368,24.962,32.785,24.962c14.069,0,30.15-10.261,32.785-24.962c5.391-30.077,7.614-60.576,11.656-90.837
				c-0.404,3.013-0.81,6.025-1.214,9.039c2.362-17.297,5.46-34.481,10.558-51.201c-21.856,0-43.714,0-65.57,0
				c0.176,1.127,0.34,2.256,0.493,3.386c-0.405-3.013-0.81-6.025-1.215-9.038c4.362,33.417-0.621,66.436-1.526,99.842
				c-0.743,27.435,0.242,54.92-3.381,82.202c0.405-3.013,0.811-6.025,1.215-9.038c-1.617,11.591-4.017,23.099-8.475,33.959
				c1.143-2.707,2.285-5.415,3.428-8.122c-0.667,1.556-1.368,3.09-2.112,4.61c20.715,2.707,41.43,5.414,62.144,8.122
				c-1.183-5.031-2.087-10.097-2.776-15.219c0.405,3.014,0.81,6.026,1.215,9.039c-2.651-21.428-1.522-43.046-0.036-64.517
				c1.235-17.845,2.154-35.697,4.148-53.477c4.271-38.082,9.883-78.012-6.978-113.95c-4.954-10.559-18.224-16.839-29.358-16.839
				c-11.928,0-23.382,6.48-29.358,16.839c-27.508,47.683-27.265,103.545-37.427,156.123c21.856,0,43.714,0,65.57,0
				c-2.283-7.721-3.882-15.569-5.012-23.537c0.404,3.013,0.81,6.026,1.214,9.039c-2.643-19.948-2.401-40.083-1.754-60.151
				c0.582-18.061,1.362-35.893,3.743-53.819c-0.405,3.013-0.811,6.025-1.215,9.039c4.889-36.343,12.74-74.286,3.023-110.57
				c-6.722-25.103-38.61-32.577-56.827-15.003C654.87,2.54,647.568,31.114,639.57,56.84c-9.546,30.703-15.282,62.091-18.037,94.133
				c-2.466,28.688-2.081,57.854-1.162,86.616c0.961,30.054,3.739,61.178,13.571,89.762c0.688,1.999,1.449,3.971,2.223,5.937
				c3.384,8.604,7.366,15.482,15.625,20.32c7.852,4.6,17.423,5.841,26.199,3.427c8.498-2.337,15.867-8.024,20.319-15.625
				c4.899-8.364,5.185-16.935,3.427-26.198c-0.323-1.705-0.599-3.413-0.844-5.131c0.405,3.013,0.811,6.025,1.215,9.039
				c-0.985-7.483-1.817-14.978-2.837-22.459c-1.085-7.959-3.661-14.917-7.011-22.255c-7.281-15.956-23.283-27.428-39.951-31.828
				c-26.779-7.068-53.113,3.202-78.396,10.887c8.733,20.714,17.467,41.429,26.199,62.144c16.7-11.779,35.111-20.883,49.882-35.316
				c10.9-10.653,12.974-28.13,5.316-41.202c-7.804-13.32-23.582-19.423-38.397-15.625c-22.223,5.696-38.06,22.474-58.533,31.562
				c2.708-1.143,5.415-2.285,8.122-3.428c-4.188,1.752-8.429,3.044-12.934,3.654c3.013-0.405,6.025-0.81,9.038-1.215
				c-0.882,0.104-1.767,0.175-2.654,0.212c5.72,21.119,11.44,42.238,17.16,63.358c6.181-4.437,12.888-7.931,19.881-10.898
				c-2.707,1.142-5.414,2.284-8.121,3.427c9.69-3.967,19.749-6.881,30.117-8.406c-3.014,0.405-6.026,0.81-9.039,1.215
				c2.33-0.307,4.657-0.544,7.002-0.695c-8.014-19.348-16.027-38.694-24.042-58.042c-1.567,1.945-3.337,3.613-5.279,5.18
				c2.293-1.771,4.587-3.544,6.881-5.316c-6.922,5.285-14.935,8.898-22.905,12.294c2.708-1.143,5.415-2.285,8.122-3.428
				c-11.651,4.905-23.724,9.089-34.937,14.954c2.707-1.142,5.414-2.284,8.121-3.427c-15.759,6.361-31.114,13.611-46.761,20.228
				c2.707-1.143,5.414-2.285,8.121-3.428c-1.782,0.743-3.568,1.477-5.36,2.2c8.733,20.714,17.467,41.429,26.199,62.144
				c1.985-0.974,3.992-1.884,6.024-2.754c-2.708,1.143-5.415,2.285-8.122,3.428c23.601-9.839,49.604-15.951,67.979-34.99
				c8.463-8.77,12.007-21.217,8.743-33.08c-4.224-15.357-17.545-23.896-32.785-24.962c-44.181-3.091-88.444,7.854-131.645,15.614
				c-21.925,3.938-43.778,7.868-65.506,12.826c-10.667,2.435-21.292,5.048-31.888,7.774c-8.074,2.077-16.026,4.828-24.292,6.062
				c3.013-0.405,6.025-0.81,9.039-1.215c-2.556,0.305-5.038,0.428-7.6,0.141c3.013,0.405,6.026,0.81,9.039,1.215
				c-0.369-0.067-0.739-0.135-1.108-0.202c2.708,20.714,5.415,41.429,8.122,62.144c3.618-1.926,7.304-3.683,11.067-5.305
				c-2.708,1.142-5.415,2.284-8.122,3.427c32.593-13.646,68.339-16.696,102.72-23.384c39.35-7.653,76.051-24.857,115.213-33.312
				c-8.733-1.143-17.467-2.285-26.199-3.427c27.086,15.414,55.317-1.012,75.393-19.717c8.627-8.038,15.949-17.39,22.934-26.848
				c5.688-7.701,10.234-16.118,13.229-25.252c2.293-6.994,2.608-15.015,3.306-22.244c0.64-6.623,0.585-13.303,0.206-19.938
				c-0.898-15.734-3.643-31.582-7.92-46.75c-7.739-27.441-20.303-54.282-39.322-75.679c-7.306-8.22-15.082-16.015-21.882-24.675
				c1.772,2.293,3.544,4.587,5.316,6.881c-2.924-3.811-5.689-7.752-7.576-12.191c1.143,2.708,2.285,5.415,3.428,8.122
				c-0.516-1.349-0.918-2.682-1.165-4.105c-13.941,13.941-27.883,27.883-41.824,41.824c4.688,0.987,9.184,2.542,13.598,4.387
				c-2.707-1.142-5.414-2.285-8.121-3.427c13.283,5.744,25.455,13.799,36.892,22.602c-2.294-1.772-4.588-3.544-6.882-5.316
				c13.005,10.136,25.342,21.427,35.549,34.422c-1.772-2.294-3.545-4.587-5.316-6.881c3.556,4.619,6.688,9.395,9.103,14.718
				c-1.143-2.707-2.285-5.415-3.428-8.122c2.099,5.04,3.45,10.186,4.188,15.592c-0.404-3.013-0.81-6.025-1.214-9.039
				c0.888,7.995,0.417,15.931-0.618,23.887c0.405-3.013,0.81-6.026,1.215-9.039c-2.92,20.924-9.237,42.164-6.925,63.429
				c1.338,12.3,5.639,22.797,16.84,29.358c13.422,7.862,30.124,5.256,41.202-5.316c18.27-17.438,32.73-40.847,36.543-66.107
				c2.359-15.638,2.037-28.979-0.331-44.617c-1.9-12.54-6.647-24.043-11.564-35.651c-9.131-21.557-24.064-41.082-40.263-57.791
				C634.485,15.733,615.515,1.203,595.11-9.108c-13.758-6.953-29.905-5.98-41.202,5.316c-11.19,11.191-12.434,27.56-5.316,41.202
				c8.265,15.839,17.759,31.045,24.825,47.49c-1.143-2.708-2.285-5.415-3.428-8.122c4.009,9.594,7.029,19.448,8.51,29.756
				c-0.405-3.013-0.811-6.025-1.215-9.039c1.592,12.647,1.365,25.34-0.308,37.963c0.405-3.013,0.81-6.025,1.215-9.039
				c-2.985,20.734-9.602,40.611-17.688,59.873c1.143-2.708,2.285-5.415,3.428-8.122c-1.412,3.321-2.86,6.626-4.34,9.918
				c-3.906,8.692-6.053,16.653-3.427,26.198c2.338,8.499,8.024,15.868,15.625,20.32c7.853,4.6,17.423,5.841,26.199,3.427
				c9.273-2.551,14.78-8.206,20.319-15.625c22.876-30.642,29.171-70.293,18.645-106.847c-9.71-33.722-31.953-63.357-56.961-87.354
				c-11.027,18.942-22.054,37.885-33.081,56.827c1.739,0.56,3.446,1.178,5.137,1.87c-2.707-1.143-5.414-2.285-8.122-3.427
				c3.708,1.605,7.173,3.562,10.411,5.979c-2.294-1.772-4.588-3.544-6.881-5.316c2.961,2.313,5.585,4.919,7.92,7.863
				c-1.772-2.294-3.545-4.588-5.316-6.881c2.63,3.461,4.739,7.195,6.45,11.188c-1.143-2.707-2.285-5.415-3.428-8.122
				c2.354,5.756,3.797,11.761,4.678,17.907c-0.405-3.013-0.81-6.025-1.215-9.038c1.906,14.418,0.852,29.03-1.043,43.392
				c0.405-3.013,0.81-6.026,1.215-9.039c-3.447,25.42-10.182,50.29-12.767,75.838c-1.501,14.836,11.486,29.079,24.961,32.785
				c8.776,2.414,18.347,1.173,26.199-3.427c8.351-4.893,12.087-11.717,15.625-20.32c14.664-35.65,19.559-79.052,6.569-115.962
				c-6.946-19.735-18.175-38.408-34.501-51.801c-18.741-15.375-40.771-25.455-64.814-29.061c-9.472-1.42-17.598-1.611-26.199,3.428
				c-7.601,4.452-13.287,11.821-15.625,20.319c-2.414,8.776-1.173,18.347,3.427,26.199c4.764,8.131,11.725,12.451,20.319,15.625
				c7.532,2.781,15.104,5.455,22.519,8.542c-2.708-1.143-5.415-2.285-8.122-3.428c7.767,3.302,15.272,7.098,21.979,12.267
				c-2.294-1.772-4.588-3.544-6.882-5.316c3.352,2.698,6.361,5.662,9.042,9.03c-1.771-2.293-3.544-4.587-5.316-6.881
				c2.432,3.231,4.428,6.645,6.077,10.336c-1.143-2.707-2.284-5.415-3.427-8.122c2.345,5.671,3.409,11.51,4.273,17.565
				c-0.405-3.013-0.81-6.026-1.215-9.039c1.885,14.511,1.746,29.104-0.091,43.612c0.405-3.013,0.81-6.026,1.215-9.039
				c-1.306,9.523-3.065,19.036-6.701,27.972c1.143-2.707,2.285-5.414,3.427-8.122c-2.192,5.09-4.922,9.809-8.304,14.199
				c1.771-2.293,3.544-4.587,5.315-6.881c-3.531,4.397-7.555,8.245-11.991,11.721c2.294-1.771,4.588-3.544,6.881-5.316
				c-14.137,10.752-30.905,17.783-46.689,25.713c-21.027,10.564-42.054,21.148-63.723,30.354c2.707-1.143,5.414-2.285,8.122-3.428
				c-27.766,11.68-56.363,20.38-86.245,24.546c3.013-0.404,6.026-0.81,9.039-1.215c-33.302,4.433-67.237,3.576-100.488-0.89
				c3.013,0.405,6.026,0.81,9.039,1.215c-38.747-5.372-77.032-14.269-113.246-29.313c2.707,1.143,5.415,2.285,8.122,3.428
				c-10.382-4.391-20.617-9.38-29.579-16.291c2.293,1.771,4.587,3.544,6.881,5.316c-0.96-0.771-1.902-1.555-2.831-2.363
				c-13.969-12.151-34.304-13.779-48.083,0C66.491,227.626,64.917,251.12,78.909,263.292L78.909,263.292z"/>
		</g>
	</g>
	<g>
		<g>
			<path fill="#FFFFFF" d="M26.736,107.289c5.528-15.885,10.031-32.136,16.503-47.682c-1.143,2.708-2.285,5.415-3.427,8.122
				c3.891-9.166,8.489-17.976,14.531-25.92c-1.772,2.293-3.544,4.587-5.316,6.881c3.803-4.85,8.058-9.213,12.891-13.042
				c-2.293,1.772-4.587,3.544-6.881,5.316c4.853-3.701,10.067-6.706,15.673-9.116c-2.707,1.143-5.415,2.285-8.122,3.428
				c3.08-1.257,6.203-2.324,9.401-3.239C58.047,24.12,44.106,16.204,30.165,8.289c0.545,1.594,0.924,3.185,1.196,4.846
				c-0.405-3.013-0.81-6.025-1.214-9.038c0.532,4.197,0.316,8.354-0.222,12.539c0.405-3.013,0.81-6.025,1.214-9.039
				c-2.173,14.86-7.773,28.984-12.535,43.146c-5.302,15.77-9.813,32.402-12.859,48.743c-4.598,24.659-4.618,49.156,1.866,73.502
				c5.921,22.235,16.084,43.061,25.034,64.172c-1.143-2.707-2.285-5.414-3.427-8.122c4.456,10.607,8.392,21.253,11.525,32.326
				c3.899,13.78,8.256,27.253,14.85,40.046c8.483,16.46,31.175,21.186,46.519,12.198c7.6-4.452,13.287-11.821,15.625-20.32
				c2.651-9.638,0.382-17.409-3.428-26.198c-18.659-43.051-50.958-78.534-69.393-121.701c1.143,2.707,2.285,5.415,3.428,8.122
				c-3.033-7.269-5.617-14.676-7.607-22.299c-21.857,6.026-43.714,12.051-65.571,18.077c14.008,36.81,32.258,71.516,52.58,105.189
				c9.066,15.022,18.201,30.116,28.027,44.656C66.494,315,78.708,330.479,93.909,342.292c4.242,4.214,9.243,7.128,15.003,8.743
				c8.776,2.414,18.347,1.173,26.199-3.427c12.16-7.124,21.052-24.357,15.625-38.396c-3.562-9.214-7.438-15.654-14.283-22.999
				c-3.524-3.782-7.574-7.083-11.607-10.299c-12.5-9.967-25.592-19.133-38.253-28.883c2.294,1.771,4.587,3.544,6.881,5.316
				c-9.253-7.166-18.559-14.673-25.849-23.904c1.772,2.293,3.544,4.587,5.316,6.881c-2.198-2.864-4.147-5.87-5.578-9.194
				c1.143,2.707,2.285,5.414,3.428,8.122c-0.752-1.878-1.301-3.773-1.578-5.779c0.405,3.014,0.81,6.026,1.215,9.039
				c-0.151-1.479-0.142-2.919,0.048-4.395c-0.405,3.013-0.81,6.025-1.214,9.038c0.217-1.274,0.556-2.479,1.026-3.683
				c-1.143,2.707-2.285,5.414-3.428,8.122c0.657-1.503,1.473-2.866,2.448-4.185c5.149-6.961,5.627-18.202,3.428-26.198
				c-2.338-8.499-8.025-15.868-15.625-20.32c-7.853-4.6-17.423-5.841-26.199-3.427c-9.244,2.543-14.824,8.195-20.319,15.625
				c-8.614,11.644-10.266,28.701-6.09,42.299c3.975,12.944,12.164,23.924,21.566,33.459c16.271,16.503,36.312,29.06,54.609,43.146
				c-2.294-1.772-4.587-3.544-6.881-5.316c6.069,4.7,12.335,9.544,17.143,15.586c-1.772-2.293-3.544-4.587-5.316-6.881
				c1.1,1.438,2.082,2.928,2.801,4.595c-1.142-2.707-2.285-5.414-3.427-8.122c0.056,0.145,0.112,0.289,0.167,0.434
				c18.942-11.026,37.885-22.053,56.827-33.08c-9.406-7.31-17.524-15.927-24.857-25.289c1.772,2.293,3.544,4.587,5.316,6.881
				c-15.688-20.404-28.718-43.256-41.81-65.377c-14.05-23.74-27.073-48.129-37.828-73.55c1.142,2.708,2.285,5.415,3.427,8.122
				c-1.908-4.566-3.745-9.158-5.505-13.783c-3.273-8.6-7.434-15.521-15.625-20.319c-7.853-4.6-17.423-5.841-26.199-3.428
				c-18.034,4.96-28.425,23.904-23.747,41.824c14.822,56.777,57.502,99.226,80.428,152.122c19.572-11.44,39.144-22.88,58.716-34.32
				c-1.124-2.181-2.171-4.382-3.16-6.627c1.142,2.708,2.285,5.415,3.427,8.122c-5.481-13.092-8.256-27.047-12.938-40.412
				c-5.736-16.375-13.302-32.119-20.069-48.083c1.143,2.707,2.285,5.414,3.427,8.122c-6.62-15.759-12.611-32.013-15.062-49.004
				c0.405,3.013,0.81,6.025,1.214,9.039c-1.465-11.472-0.915-22.866,0.529-34.313c-0.405,3.013-0.81,6.026-1.215,9.039
				c1.792-12.582,5.466-24.722,8.807-36.952c2.407-8.814,4.968-17.449,7.947-26.102c7.4-21.491,16.241-47.112,8.519-69.707
				c-5.941-17.381-23.191-29.077-41.824-23.747C25.101-25.294,2.156-6.226-12.396,19.826
				c-12.117,21.692-18.327,46.077-26.439,69.385c-6.094,17.513,6.776,37.156,23.747,41.824
				C3.677,136.197,20.65,124.775,26.736,107.289L26.736,107.289z"/>
		</g>
	</g>
</g>
<g id="Layer_1">
	<g id="lids" display="none">
		<g display="inline">
			<g>
				<path fill="#FFFFFF" d="M634.601,173.2c12.801-0.601,12.9-20.6,0-20.1c-36.801,1.6-69.199-13.5-98.5-35.2
					c-34.1-25.2-63.399-56.8-97.699-82C421.501,23.5,403.2,12.5,383.3,5.7C360.8-2,336.7-5.5,312.9-5.2
					c-48.3,0.7-97.3,15.4-137.4,42.3c-20.2,13.6-38.1,30-52.7,49.5c-17.3,23.1-31,48.8-49.6,71c5.6,1.5,11.1,2.9,16.7,4.4
					c-1.5-7-1.5-13.7,0.7-20.7c1.699-5.5,6.199-13.2,10.199-17.7c11.7-13.3,26.101-22.3,42.2-30.4c35.2-17.9,75-30.1,114.8-36.1
					c50.101-7.4,103.4-8.7,153.2,1.4c9.602,2,16.9-9.2,9.7-16.7c-16.199-16.9-43.8-19.9-65.9-21.2c-23.1-1.3-46.3,0-69.3,2.5
					c-12.899,1.4-12.8,18.5,0,20c67.9,8,138.4,7.3,202.001,35.5c1.6-6.2,3.299-12.4,5-18.6c-25.2,1.3-48.3-10.9-71.7-18.3
					c-25.898-8.2-54.899-7-81.6-4.1c-28.2,3.1-56.1,9.6-83.9,15.1c-27.6,5.5-55.199,10.8-83.1,14.7c2.601,6.1,5.101,12.2,7.7,18.3
					c49.5-31.3,111.899-19.3,166-35.8c10-3.1,9-15.9,0-19.3c-25.4-9.7-52.2-13.3-79.2-9.6c-25.2,3.5-49,12.9-72.3,22.9
					c-10.4,4.5-2.9,22.1,7.7,18.3c30-10.7,58.3-26.2,89.5-33.3c-1.8-6.4-3.5-12.9-5.3-19.3c-25,7.1-50.801,12.2-74.301,23.8
					c-7.6,3.7-5.899,16.7,2.4,18.3c19.6,3.8,39-2.9,57.8-7.7c9.101-2.3,18.4-4.6,27.9-4.4c11.3,0.3,22.5,1.2,33.8,2.2
					c11.5,1.1,23,1,34.5,2.3c11.5,1.3,22.7,3.6,34,5.9c22.699,4.7,45.699,9.9,69,9c5.8-0.2,9.5-4.4,10-10
					c1.101-12.8-9.102-22.7-19.5-28.3c-13-6.9-27.7-10.8-42.102-13.6c-27.299-5.3-55.699-8.4-83.499-8.4c-12.9,0-12.9,20,0,20
					c25.2,0,50.499,2.5,73.999,6.9c7.5,1.4,15,3,22.301,5.1c3.4,1,6.699,2,10,3.2c1.4,0.5,2.801,1,4.199,1.6
					c-2.1-0.8,1.701,0.9,2.201,1.1c2.5,1.3,5,2.6,7.299,4.2c2.301,1.6-0.898-1,1.201,0.9c0.799,0.7,1.6,1.4,2.299,2.2
					c0.5,0.5,1.701,2.2,0-0.2c0.4,0.4,0.701,0.9,1,1.4c0.301,0.5,0.602,1,0.801,1.5c-0.6-1.6-0.801-1.9-0.399-0.9
					c0.301,0.9,0.5,3.8,0.301,0.5c0.1,1,0.1,1.9,0,2.8c3.299-3.3,6.699-6.7,10-10c-22.9,0.9-45.101-4.6-67.399-9.1
					C392.299,27.5,380.5,25.2,368.5,24c-10.9-1.1-21.801-1.1-32.7-2.1c-11.4-1-22.801-2-34.2-2.3c-10.101-0.2-20.2,1.5-30,3.9
					c-9.7,2.4-19.4,5.3-29.2,7.4c-7.3,1.5-15.3,2.8-22.6,1.4c0.8,6.1,1.6,12.2,2.399,18.3c21.8-10.7,46.2-15.2,69.5-21.8
					c12.5-3.5,7.2-22.2-5.3-19.3c-31.3,7.1-59.5,22.6-89.5,33.3c2.6,6.1,5.1,12.2,7.7,18.3c21.1-9.1,43.5-18.1,66.5-20.8
					c24.1-2.8,47.1,0.9,69.699,9.5c0-6.4,0-12.9,0-19.3c-27.6,8.4-56.8,9.1-85.3,12.5c-29.8,3.5-59.8,9.1-85.5,25.4
					c-4.6,2.9-6.399,8.9-3.6,13.7c2.5,4.2,6.8,5.2,11.3,4.6c27.9-3.9,55.5-9.2,83.101-14.7c26.6-5.3,53.5-11.8,80.499-14.5
					c26.4-2.6,53.801-3.6,79.201,5.2c23.398,8.1,46.799,18.7,72.1,17.4c9-0.4,14.8-14.3,5-18.6C464.4,46.7,429.4,38.7,393.399,34
					c-35.898-4.6-72-6.5-107.899-10.7c0,6.7,0,13.3,0,20c21.7-2.4,43.601-3.7,65.4-2.7c11.8,0.5,22.601,1.5,34,4.6
					c2.5,0.7,5,1.4,7.399,2.3c2.9,1,2.601,0.8,5.201,2.2c1.899,1,3.899,2.1,5.699,3.4c0.899,0.7,0.899,0.7,0.1,0.1
					c0.4,0.4,0.9,0.8,1.302,1.2c0.698,0.6,1.299,1.2,1.899,1.8c3.199-5.6,6.5-11.1,9.699-16.7c-57.5-11.7-118.899-9.8-176.399,0.7
					c-38.9,7.1-78.4,20.2-113.2,39.3c-16.9,9.2-33.1,20.6-44.8,36.2c-11.3,15.1-15.3,33.5-11.2,51.899c1.6,7,11.9,10.101,16.7,4.399
					c15.899-19,28.5-40.3,42.5-60.7c11.399-16.7,24.1-31.9,39.8-44.8c35.5-29.4,81.7-47.4,127.6-50.9
					c23.101-1.8,46.4-0.4,68.801,5.7c20.1,5.5,38,14.8,55.199,26.8C488.3,94.9,543.601,177.3,634.601,173.2L634.601,173.2z"/>
			</g>
		</g>
		<g display="inline">
			<g>
				<path fill="#FFFFFF" d="M554.8,200.9c5.4-0.801,8.301-7.602,7-12.602c-1.6-5.8-6.898-7.699-12.3-7
					c-41.5,5.7-76.399,32-112.399,51.5c-25,13.602-51.5,24.801-79.5,30.301c-29,5.699-58.7,4.899-87.9,1.199
					c-15.1-2-30.2-5.5-45.4-6.5c-13.6-0.898-27.8-0.199-41-4c-11.8-3.3-22.3-9.1-31.8-16.8c-10-8.101-19.7-16-31.8-20.601
					c-4.899-1.899-11.2,2-12.3,7c-3.8,17.5-1,35.899,4.7,52.601c5.6,16.601,13.3,32.7,23.1,47.3c8,11.9,17,22.2,29.4,29.7
					c11.6,7,24.6,11.6,37.7,14.4c41.399,8.8,84,4.398,125.8,2.6c19.5-0.8,39.1-0.4,58.699-1.9c21.201-1.6,42.301-4.398,63-9.198
					c38.4-8.9,76.801-24.802,105.602-52.5c31.199-30.102,46.398-70.7,48.8-113.5c0.7-12.9-19.3-12.801-20,0
					c-1.3,23.199-6.601,46.398-17.601,66.398C556.8,277.1,542.901,292.9,526.901,304.4C494.8,327.6,456.7,338.9,417.7,344.8
					c-19.5,3-40.6,4.5-60.9,4.8c-19,0.302-37.999,1-56.999,2c-21.301,1.102-42.7,2-64,0.5C217.2,350.8,196.7,347.6,180.5,339.2
					c-17.899-9.3-28-23.7-37.699-42c-10.5-19.8-21.2-45.3-16.101-68.2c-4.1,2.3-8.2,4.7-12.3,7c8.2,3.2,15.1,9.2,21.8,14.6
					c7.5,6.102,15.2,12.102,24.101,16.102c10.8,4.898,21.6,8.3,33.399,9.6c10.7,1.2,21.5,1.102,32.2,2c15.2,1.301,30.3,4.7,45.5,6.5
					c14.9,1.801,29.8,3,44.8,2.7c29.5-0.5,58.4-5.7,85.9-16.3c26.8-10.301,51.3-24.301,75.999-38.7
					C502.001,218.6,527.001,204.8,554.8,200.9L554.8,200.9z"/>
			</g>
		</g>
		<g display="inline">
			<g>
				<path fill="#FFFFFF" d="M595.101,245.1c18.801-11,25.4-36,14.199-54.699c-11-18.899-35.799-25.399-54.699-14.399
					c-34.699,20.3-63.5,48.899-95.1,73.399c2.699-2.101,5.399-4.199,8.1-6.301c-15.5,12-32,23.301-50,31.102
					c3.199-1.301,6.4-2.7,9.601-4c-11.699,4.8-24,7.5-36.5,9.199c3.5-0.399,7.1-0.899,10.6-1.399c-16.6,2.101-33.299,2.7-50,4.101
					c-15.399,1.301-30.8,2.699-46.199,3.801c-27.2,2-54.5,3.5-81.601,0c3.5,0.398,7.101,0.898,10.601,1.398
					c-15.8-2.1-31.2-6.1-45.9-12.199c3.2,1.301,6.4,2.699,9.601,4c-14.4-6.101-27.601-14.101-40-23.601
					c2.699,2.101,5.399,4.2,8.1,6.3c-5-3.898-9.9-8-14.6-12.3c-6.7-6.2-13.101-12.899-21.2-17.3C111,221.8,86.7,227.4,75.4,246.6
					C64.7,264.9,70.7,290.9,89.8,301.3c1.5,0.8,2.9,1.602,4.2,2.602c-2.699-2.102-5.399-4.2-8.1-6.302
					c6,5.102,11.4,10.802,17.5,15.802c8,6.698,16.3,13.198,25,19c13.9,9.198,29,16.398,44.7,22.198
					C200.2,364.7,230,368,258.801,367.9c24.1,0,48.1-2.2,72-4.102c30.3-2.5,61.2-3.2,91.101-8.898
					c60.601-11.5,104.101-59.102,150.898-95.4c-2.699,2.1-5.398,4.2-8.1,6.3C574.4,258.3,584.501,251.3,595.101,245.1L595.101,245.1
					z"/>
			</g>
		</g>
		<g display="inline">
			<g>
				<path fill="#FFFFFF" d="M546.9,212.3c5.199-4.399,4.601-13.1,0.101-17.7c-5.101-5.1-12.5-4.398-17.701,0
					c-9.199,7.9-22.5,10.2-34.799,13c-14.801,3.4-29,8.4-42.5,15.301c-12.201,6.301-23.9,13.801-36.602,18.801
					c-13.299,5.199-27.199,9.3-40.898,13.398C360.2,259.4,345.7,263.2,330.9,265.2c-14,1.899-28.4,1.5-42.5,0.399
					c-56.5-4.301-109.3-25.601-159.9-50.101c-6.1-3-13.5-1.7-17.1,4.5c-3.2,5.5-1.6,14.101,4.5,17.101
					c33.3,16.199,67.5,31.5,103.3,41.399c28.3,7.8,57.601,12.5,87,12.899c30.301,0.399,59.7-7.101,88.4-16.399
					c14.1-4.601,28.198-8.899,41.499-15.5c12.601-6.3,24.601-13.8,37.5-19.399C498.001,229.6,526.001,230.2,546.9,212.3L546.9,212.3
					z"/>
			</g>
		</g>
		<g display="inline">
			<g>
				<path fill="#FFFFFF" d="M511.8,82.7c16.102,0.1,16.102-24.9,0-25c-23.1-0.2-45.1-7.9-66.898-14.6
					C421.2,35.7,397.8,30.4,372.8,29.7c-16.5-0.4-32.799,0.6-49.1,2.9c-15.8,2.2-31.399,6-47.3,8.3c-30.4,4.3-61.6,5.9-91.5,13.2
					C161,60,138.301,72,117.7,85.5c-20.4,13.3-40.1,28.4-56.9,46.1c-11.1,11.7,6.6,29.4,17.7,17.7
					c23.601-24.9,52.601-45.4,83.801-60.3c9.399-4.6,19.3-8.6,30.399-11c14.101-3.1,28.5-5.1,42.8-6.9c16.5-2,33.101-3.9,49.5-6.3
					c15.301-2.3,30.4-6.3,45.801-8.1c15.899-1.9,31.899-2.6,47.8-1.7c15.101,0.8,29.4,3.3,43.9,7.5
					C451.9,70.9,480.9,82.4,511.8,82.7L511.8,82.7z"/>
			</g>
		</g>
	</g>
	<g id="Layer_1_1_">
		<path fill="none" stroke="#000000" stroke-miterlimit="10" d="M702.9,177.2c-8.5-5.8-29.102-7.2-40.399-10.601
			c-15.4-4.699-30.9-9.301-46.101-15.301c-26.7-10.5-47.801-28.2-71.7-42.9c-10.699-6.5-19.101-16.6-29.8-22.8
			c-15.301-8.9-34-8.8-50.5-14c-25.899-8.2-43.899-19.2-71.602-22.9c-44.199-5.9-91.899-9.5-134.999,4
			c-41.4,13-81.5,24.8-123.601,33.3c-35.1,7.1-53.3,37.3-76.8,61.4"/>
		<path fill="none" stroke="#000000" stroke-miterlimit="10" d="M722.3,173.6c-87.699,32.2-115.5-18.7-135.1-27.1
			c-31-13.3-36.699-39.8-68.4-52.3C483.501,80.3,454.4,59.3,415.601,55.7c-38.699-3.6-74.399,5.4-112.5,9.3
			c-40.101,4.1-94.2,4.7-131.5,21.4c-25.7,11.4-41.9,34.4-54.9,57.9c-15.899,28.7-27.5,41.2-59.3,52.2"/>
		<path fill="none" stroke="#000000" stroke-miterlimit="10" d="M53.9,224.5c70.5-24.1,136.7,29.8,207.1,36.4
			c28.9,2.699,60.601,4.898,89.4,0.8c39.451-20.476,62.601-20.8,91.7-36.7c41.301-22.6,72.9-45,119.5-51.7
			C581.4,170.4,599.9,168.2,620.2,168.4c18.5,0.199,33,7.5,49.5,8.801"/>
		<path fill="none" stroke="#000000" stroke-miterlimit="10" d="M69.7,194.7c11.4,0,31.801-5.3,26.4,11
			c-2.4,7.5-19.801,14.2-26.4,17.1"/>
		<path fill="none" stroke="#000000" stroke-miterlimit="10" d="M501.4,212.3c-5.801,2-11.7,4.7-17.899,7.5
			C411.7,252.8,349.2,295.4,266.7,287.4c-34.399-3.4-76.5-7-107.5-22.801c-33.5-17.101-64.2-51.801-100-28.199"/>
		<path fill="none" stroke="#000000" stroke-miterlimit="10" d="M655.601,186c-31.699,1-99.6-17.4-119.301,19.3"/>
		<path fill="none" stroke="#000000" stroke-miterlimit="10" d="M132.801,43.9c-37.932,50.671-11.595,65.107-7,57.9"/>
		<path fill="none" stroke="#000000" stroke-miterlimit="10" d="M211.801,38.6c-11.2,11.9-32.5,36.2-49.101,38.6"/>
		<path fill="none" stroke="#000000" stroke-miterlimit="10" d="M260.9,56.1c9.5,1.1,17.9-3.1,26.3-7"/>
		<path fill="none" stroke="#000000" stroke-miterlimit="10" d="M322.301,22.8c-0.301,13-3.9,24.3-10.5,35.1"/>
		<path fill="none" stroke="#000000" stroke-miterlimit="10" d="M373.2,26.3c3.4,18.1-20.199,24.4-33.3,28.1"/>
		<path fill="none" stroke="#000000" stroke-miterlimit="10" d="M411.801,35.05c-4.6,9.6-1.8,18.55-12.3,21.05"/>
		<path fill="none" stroke="#000000" stroke-miterlimit="10" d="M487.668,50C468.95,49.1,443.8,65.5,432.8,66.7"/>
		<path fill="none" stroke="#000000" stroke-miterlimit="10" d="M504.8,84.2c-8.702,0.106-6.538-28.021,22.801-7"/>
		<path fill="none" stroke="#000000" stroke-miterlimit="10" d="M566.101,121c7.4-3.4,15.699-5.8,21.101-10.5"/>
		<path fill="none" stroke="#000000" stroke-miterlimit="10" d="M613.501,128.1c5.299,8.747-16.601,7.2-26.301,7"/>
		<path fill="none" stroke="#000000" stroke-miterlimit="10" d="M643.4,140.3c-16.45-12.2-15,11.4-24.602,12.3"/>
		<path fill="none" stroke="#000000" stroke-miterlimit="10" d="M259.101,56.2c4.1-13.4,11.6-24.5,24.6-28.1"/>
		<path fill="none" stroke="#000000" stroke-miterlimit="10" d="M304.7,17.5c-3.399,13.5-9.6,23.8-17.5,35.1"/>
		<path fill="none" stroke="#000000" stroke-miterlimit="10" d="M241.601,63.1c7.7-12.4,7.399-23.7,10.5-36.8"/>
		<path fill="none" stroke="#000000" stroke-miterlimit="10" d="M225.801,35.1c-5.101,8.2-10.7,19.9-12.301,29.8"/>
		<path fill="none" stroke="#000000" stroke-miterlimit="10" d="M339.8,291.2c-8.499-10.3-20.1-15.5-33.3-15.8"/>
		<path fill="none" stroke="#000000" stroke-miterlimit="10" d="M408.3,254.4c10.801-6.4,26.201-3.5,38.602-3.5"/>
		<path fill="none" stroke="#000000" stroke-miterlimit="10" d="M499.501,233.4c-15-6.4-34.201-5.301-50.9-5.301"/>
		<path fill="none" stroke="#000000" stroke-miterlimit="10" d="M532.8,221c-10-8.6-17-11.2-29.799-14"/>
		<path fill="none" stroke="#000000" stroke-miterlimit="10" d="M567.9,178.9c14.601-0.801,32.101,8.398,42.101,19.3"/>
		<g opacity="0.1">
			<g>
				<path d="M51.2,192.1c-5.3,1-8.3,7.4-6.899,12.4c1.5,5.6,7,8,12.3,7c20.9-4.1,38.7-22.2,52-37.7c14.2-16.6,27.399-34.9,35.7-55.3
					c2-5.1-2.2-11-7-12.3c-5.7-1.6-10.2,2-12.301,7c-0.399,1-0.399,1,0,0c-0.3,0.6-0.5,1.1-0.8,1.7c-0.5,0.9-0.899,1.7-1.3,2.6
					c-0.9,1.9-1.9,3.8-2.9,5.6c-2.3,4.1-4.699,8.2-7.3,12.1c-5.6,8.5-11.699,16.8-18.399,24.5c-6.7,7.7-14.4,16-22.3,21.899
					c-3.601,2.699-7.4,5.301-11.4,7.301C57.8,190.3,55.5,191.3,51.2,192.1L51.2,192.1z"/>
			</g>
		</g>
		<g opacity="0.1">
			<g>
				<path d="M51.2,160.5c-12.399,3.5-7.1,22.8,5.3,19.3c19.9-5.6,36.5-17.3,52.7-29.7c15.2-11.6,32.945-42.3,51.345-48.3
					c12.199-4,4.755-4.9-7.545-0.9c-19.8,6.4-36.3,18.5-52.7,31C85.2,143.4,69.7,155.3,51.2,160.5L51.2,160.5z"/>
			</g>
		</g>
		<g opacity="0.1">
			<g>
				<path d="M49.036,162.509c-3.199,4.399-0.8,11.101,3.601,13.8c5.1,2.9,10.5,0.801,13.699-3.6c29-40.5,80.501-58.8,125.601-74.4
					c5.2-1.8,8.5-6.8,7-12.3c-1.4-5-7.1-8.8-12.3-7C135.936,96.509,81.536,117.309,49.036,162.509L49.036,162.509z"/>
			</g>
		</g>
		<g opacity="0.1">
			<g>
				<path d="M45.101,216.3c-5.5,0.5-6.57-13.661-6.57-7.961c0,5.101,19.219,7.89,15.37,16.161c12.699-1,16.6,15.6,28.6,19.3
					c6.7,2.101,13.5,4.3,20.4,5.7c7.2,1.4,14.1,2.8,21,5.2c13.3,4.7,26,11.2,39.7,15c6.899,1.899,13.7,4.1,20.6,6.2
					c10,3,20,5.5,30.2,7.398c17.1,3.102,34.4,5.301,51.7,7.602c26.1,3.398,51.8,8.198,78.1,4.1c50.1-7.8,94-37,137.5-61
					c21.5-11.8,43.5-23.4,67-30.5c13.7-4.2,27.5-6.7,41.801-7.4c15.299-0.699,30.601-0.199,45.899-0.199c12.898,0,12.898-20,0-20
					c-32.5,0-64.5-1-95.801,9.199C491.8,201,449.7,231.3,403.899,253.7c-20.898,10.1-43.299,19.5-66.601,22.2
					c-25.6,3-51.399-2.4-76.699-5.801c-25.101-3.399-50.4-7.199-74.9-14.801c-8.899-2.699-18-5-26.7-8.199
					c-13.1-4.899-25.8-11.301-39.5-14.699c-6.6-1.602-13.2-2.602-19.7-4.4c-6.1-1.7-12.1-3.6-18.1-5.4
					C70.001,219.1,57.501,215.3,45.101,216.3L45.101,216.3z"/>
			</g>
		</g>
		<g opacity="0.1">
			<g>
				<path d="M531.3,168.6c-5,2.102-6.1,9.4-3.699,13.7c3,5.101,8.699,5.8,13.699,3.601c13.201-5.801,27.201-14.101,34.801-26.799
					c7.801-13.2,6.699-29.1-2.1-41.6c-8.5-11.9-21.5-18.2-35.101-22.7c-11.399-3.8-24.602-6.5-34.2-14.1
					c-4.199-3.4-9.9-4.2-14.101,0c-3.5,3.5-4.301,10.7,0,14.1c10.101,7.9,21.699,12.3,33.801,16.2c9.898,3.2,21.601,6,29.3,13.3
					c7.899,7.5,10.399,17.3,4.5,25.7C551.9,159,541.001,164.4,531.3,168.6L531.3,168.6z"/>
			</g>
		</g>
		<g opacity="0.1">
			<g>
				<path d="M441.601,67.2c-5.399-0.6-76.325-7.3-76.325-2.3c0,5.9,70.924,21.7,76.325,22.3c6.601,0.8,15.9,3.2,23.199,5.7
					c8.5,2.9,16.801,6.6,24.602,11.1c13.8,8,28,18.4,34.3,33.2c1.301,3.1,2.899,7.9,3.2,10.5c0.398,4.1,0.5,6.2-0.399,9.3
					c-1.399,4.9-4.101,8.4-9.5,12.6c-10.301,8-26,12.7-39.5,17.2c-12.201,4.101-7,23.4,5.299,19.3c17.302-5.699,36.102-11.3,50-23.6
					c15.4-13.6,17.5-33.4,9.701-51.8c-8.201-19.4-24.899-33.7-43-43.9C481.601,76.7,462.001,69.6,441.601,67.2L441.601,67.2z"/>
			</g>
		</g>
		<g opacity="0.1">
			<g>
				<path d="M427.601,232.848c-4.198,3.4,19.199-15.348,22.699-11.646c4.102,4.1,9.9,3.398,14.102,0
					c33.398-27.301,72.5-78.3,47.199-122.6c-5.801,3.4-11.5,6.7-17.301,10.1c6.9,10.9,11.201,22.1,9.9,35.1
					c-1.3,12.1-5.9,24.4-9.199,36.2c6.399,1.8,12.899,3.5,19.299,5.3c4.102-19.3,14.102-36.8,14.4-57c-6.199,1.6-12.4,3.3-18.6,5
					c7.5,10.9,9.5,23.4,11.3,36.2c1.2,8.601,14.7,9.7,18.3,2.399c5.301-10.899,9.4-22.101,11.5-34c-6.4,0-12.9,0-19.3,0
					c3.5,8.8,7,17.5,10.5,26.3c4.101,10.3,18.8,9,19.601-2.7c0-1.2,2-5.4,2.799-7.4c1.302-3.3,2.201-6.5,2.4-10.1
					c-5.699,2.4-11.4,4.7-17.1,7.1c5,4.7,13.698,8.799,17.5,12.299c7,6.399,16,1.301,17.1-7.101c0.2-1.4,1.6-6.1,1.801-8.8
					c-5.701,2.4-11.399,4.7-17.101,7.1c10.898,10.3,25.2,12.9,39.5,14.9c5.398,0.8,10.7-1.2,12.3-7c1.301-4.7-1.6-11.5-7-12.3
					c-10.3-1.4-22.8-2.2-30.699-9.7c-6.701-6.2-16.5-1.5-17.101,7.1c-0.3,2.9-1.399,5.9-1.8,8.8c5.698-2.4,11.399-4.7,17.1-7.1
					c-5-4.7-13.699-8.8-17.5-12.3c-6.699-6.1-16.5-1.6-17.1,7.1c0,1.2-2,5.4-2.802,7.4c-1.299,3.3-2.198,6.5-2.398,10.1
					c6.5-0.898,13.101-1.8,19.601-2.7c-3.5-8.8-7-17.5-10.5-26.3c-1.601-4.2-4.801-7.3-9.601-7.3c-4.102,0-8.8,3-9.602,7.3
					c-1.799,10.2-4.898,19.9-9.5,29.2c6.102,0.8,12.201,1.601,18.302,2.4c-2.101-14.5-4.802-28.7-13.302-41
					c-5.5-8.1-18.398-5.4-18.6,5c-0.3,18.1-10,34.3-13.699,51.7c-2.601,12.5,15.799,17.8,19.299,5.3c4-14.4,9.5-29,10.102-44.1
					c0.7-15.5-4.602-29.7-12.8-42.6c-6.9-10.8-23.7-1.1-17.302,10.1c9.9,17.3,4.4,37.2-5.1,53.6c-9.9,17.2-23.5,32.2-38.9,44.8
					L427.601,232.848z"/>
			</g>
		</g>
		<g opacity="0.1">
			<g>
				<path d="M100.7,177.2c-0.1-12.9-20.1-12.9-20,0c0.301,21.399,8.5,44.7,27.801,56c11.199,6.5,21.199-10.8,10.1-17.3
					C105.4,208.3,100.8,191.5,100.7,177.2L100.7,177.2z"/>
			</g>
		</g>
		<g opacity="0.1">
			<g>
				<path d="M128.801,159.6c0-12.8-20-12.8-20,0c0,25.801-2.5,53.5,17,73.7c8.899,9.3,23.1-4.8,14.1-14.1
					C124.9,203.7,128.7,179.3,128.801,159.6L128.801,159.6z"/>
			</g>
		</g>
		<g opacity="0.1">
			<g>
				<path d="M123.2,120.2c4-12.3-15.3-17.5-19.3-5.3c-18.8,57.5,7.601,142.2,73.7,154.4c5.399,1,10.8-1.399,12.3-7
					c1.3-4.899-1.6-11.3-7-12.3C127.601,239.8,107.5,168.2,123.2,120.2L123.2,120.2z"/>
			</g>
		</g>
		<g opacity="0.1">
			<g>
				<path d="M67.9,225.1C55.1,225.9,55,245.9,68,245.1c22.2-1.398,45.9-8.6,67.9-2.199c10.7,3.101,20.5,8.301,30.6,12.801
					c11,5,22.101,9.5,33.9,12.3c50.9,12,103.5,7,155.2,7c12.9,0,12.9-20,0-20c-50.7,0.101-103.9,6.399-153.5-7.101
					c-10.8-3-21-7.301-31.2-12c-10.6-4.899-21.5-10.601-33-13.101C114.4,217.6,91.4,223.6,67.9,225.1L67.9,225.1z"/>
			</g>
		</g>
		<g opacity="0.02">
			<g>
				<path d="M549.001,112.8c-1.4-2.9-5.701-0.4-4.301,2.5c5.6,11.2,17.5,33.3,2.7,42.2c-2.801,1.6-0.301,6,2.5,4.3
					C567.8,151,556.001,126.8,549.001,112.8L549.001,112.8z"/>
			</g>
		</g>
		<g opacity="0.02">
			<g>
				<path d="M527.101,117.1c-2.899-1.3-5.5,3-2.5,4.3c15.199,7,23.5,21.5,30.699,35.9c1.4,2.9,5.701,0.4,4.301-2.5
					C552.001,139.8,543.001,124.5,527.101,117.1L527.101,117.1z"/>
			</g>
		</g>
	</g>
</g>
</svg>
