<svg xmlns="http://www.w3.org/2000/svg" version="1.1" x="0" y="0" width="750.9" height="317.5" viewBox="0 0 750.9 317.5" xml:space="preserve"><style type="text/css">
	.st0{fill:none;stroke:#000000;stroke-miterlimit:10;}
	.st1{opacity:9.999999e-002;}
</style><path class="st0" d="M700 147.4c-23.5-24.1-41.7-54.3-76.8-61.4 -42.1-8.5-82.2-20.3-123.6-33.3 -43.1-13.5-90.8-9.9-135-4 -27.7 3.7-45.7 14.7-71.6 22.9 -16.5 5.2-35.2 5.1-50.5 14 -10.7 6.2-19.1 16.3-29.8 22.8 -23.9 14.7-45 32.4-71.7 42.9 -15.2 6-30.7 10.6-46.1 15.3 -11.3 3.4-31.9 4.8-40.4 10.6M700 196.5c-31.8-11-43.4-23.5-59.3-52.2 -13-23.5-29.2-46.5-54.9-57.9C548.5 69.7 494.4 69.1 454.3 65c-38.1-3.9-73.8-12.9-112.5-9.3 -38.8 3.6-67.9 24.6-103.2 38.5 -31.7 12.5-37.4 39-68.4 52.3 -19.6 8.4-47.4 59.3-135.1 27.1M87.7 177.2c16.5-1.3 31-8.6 49.5-8.8 20.3-0.2 38.8 2 58.6 4.9 46.6 6.7 78.2 29.1 119.5 51.7 29.1 15.9 59 32.1 91.7 36.7 28.8 4.1 60.5 1.9 89.4-0.8 70.4-6.6 136.6-60.5 207.1-36.4M687.7 222.8c-6.6-2.9-24-9.6-26.4-17.1 -5.4-16.3 15-11 26.4-11M384 230.7c-40.8-4.9-57.4-48.3-49.1-82.7 10.1-41.5 52-55.7 92-55 44.2 0.7 102 23.5 98.2 75.6 -3 40.4-41.9 61.6-77.5 65.7 -25.4 2.9-45.5-6.7-70.1-8.1M421.7 188c-19.5 0.9-46.2-9.3-36-35 7.5-19.1 39.1-21.6 57.1-17.1 14.1 3.5 41.5 30 28.9 47.8 -9.5 13.4-51.5 4.1-65.6 2.2M698.2 236.4c-35.8-23.6-66.5 11.1-100 28.2 -31 15.8-73.1 19.4-107.5 22.8 -82.5 8-145-34.6-216.8-67.6 -6.2-2.8-12.1-5.5-17.9-7.5M221.1 205.3c-19.7-36.7-87.6-18.3-119.3-19.3M631.6 101.8c-11.3-17.7 6.7-39.6-7-57.9M594.7 77.2c-16.6-2.4-37.9-26.7-49.1-38.6M470.2 49.1c8.4 3.9 16.8 8.1 26.3 7M445.6 57.9c-6.6-10.8-10.2-22.1-10.5-35.1M417.5 54.4c-13.1-3.7-36.7-10-33.3-28.1M357.9 56.1c-10.5-2.5-20-9.7-24.6-19.3M324.6 66.7c-11-1.2-30.6-7.5-36.8-17.5M229.8 77.2c7.5 3.6 14.6 6.9 22.8 7M170.2 110.5c5.4 4.7 13.7 7.1 21.1 10.5M170.2 135.1c-9.7 0.2-20.7 2.3-26.3-7M138.6 152.6c-9.6-0.9-18.1-5-24.6-12.3M473.7 28.1c13 3.6 20.5 14.7 24.6 28.1M470.2 52.6c-7.9-11.3-14.1-21.6-17.5-35.1M505.3 26.3c3.1 13.1 2.8 24.4 10.5 36.8M543.9 64.9c-1.6-9.9-7.2-21.6-12.3-29.8M450.9 275.4c-13.2 0.3-24.8 5.5-33.3 15.8M310.5 250.9c12.4 0 27.8-2.9 38.6 3.5M308.8 228.1c-16.7 0-35.9-1.1-50.9 5.3M254.4 207c-12.8 2.8-19.8 5.4-29.8 14M147.4 198.2c10-10.9 27.5-20.1 42.1-19.3"/><path d="M423.6 158.4c-4.6 4.8-10 7.2-9.6 14.7 0.1 1.5 1.6 3 3.2 2.4 3.6-1.3 7.2-3.1 8.7-6.9 1.1-2.9-1-5.8-3.4-7.2 -8.6-5.2-16.6 4.1-19.1 11.3 -0.3 1 0.2 2.3 1.1 2.8 6.3 3.4 13.9 2.7 19-2.6 4-4.2 2.2-10-3.6-10.8 0.6 0.8 1.2 1.6 1.8 2.4 0 0 0 0 0 0 -0.8 0.8-1.7 1.7-2.5 2.5 6.8 0.3 9.7-5.6 3.5-10 -6.5-4.7-4.1 10.4-4.2 11.1 1-0.6 2-1.2 3.1-1.7 0.5 0.4 1 0.8 1.5 1.2 -1.1-3-5.4-1.9-4.8 1.3 0 0.1 0 0.1 0 0.2 0.1 0.8 1 1.6 1.7 1.7 3.6 0.6 9.8-6.2 11.2-9.2 0.8-1.7-0.2-3.7-2.2-3.8 -3.3-0.1-4.7 5.9-5.7 8.2 -0.9 2.1-1.8 4.4-0.7 6.5 2.1 4.1 11-1.2 13.9-1.4 3.1-0.3 3.3-5.1 0-5 -1.8 0-3.5-3.6-4.3-4.9 -1.5-2.4-3-5.1-5.3-6.8 -7-5.3-12.6 4.9-15.1 10 -0.6 1.2-0.4 2.8 0.9 3.4 9.1 4.8 17.6 3.8 25.8-2.2 1.3-1 1.7-2.7 0.5-3.9 -4.7-5.1-11.5-11.5-19.1-9.6 -5.1 1.3-7.9 6.8-8.9 11.5 -0.7 3.4-1.1 9.7 2.7 11.5 5.7 2.7 9.8-6.9 11.5-10.6 0.5-1.2 0.4-2.8-0.9-3.4 -3.6-1.8-7.7-4.5-11.9-4.4 -4.4 0.2-7.4 4.9-9.6 8.1 -0.6 0.9-0.4 2.3 0.4 3 4.4 3.9 11.2 10.1 17.7 8.2 4.3-1.3 5.4-6.3 4.8-10.1 -0.5-3.4-2.3-7.3-6.2-7.6 -5.8-0.4-8 9.7-8.9 13.5 -0.4 1.7 0.8 2.9 2.4 3.2 3.5 0.5 7.2 1.3 10.6 0.1 3.5-1.1 5.8-4.8 8-7.5 0.8-1 1.1-2.6 0-3.5 -9.4-7.8-20.8-9.3-27.2 2.7 -0.5 1-0.4 2.2 0.4 3 4.8 4.6 14.3 10.7 18.9 2.3 3-5.6 0.1-13.6-5.7-15.9 -6.7-2.8-20.7 1.6-19.3 10.6 1.4 8.8 12.8 14.1 20.7 14.3 1 0 2.2-0.8 2.4-1.8 0.7-3.5 2.4-6.7 3.1-10.2 0.6-2.8-3-4.3-4.6-1.9 -1.5 2.3-4.1 5.2-3.9 8.1 0.2 2.7 2.8 5.3 3.5 7.9 0.6 1.9 3.6 2.6 4.6 0.6 1.8-3.8 3.3-7.9 5.1-11.7 1.1-2.4-2-5.4-3.9-3 -3.1 3.7-4.7 7.9-7.2 12 -1.1 1.8 0.4 3.5 2.2 3.8 11.4 1.4 21.2-1.2 25.1-12.9 0.9-2.8-3.1-4.3-4.6-1.9 -7.2 11.9-26.7 18.9-39.2 11.3 -7.1-4.3-8.4-15.2-4.9-22.2 4.4-8.5 15.5-11.2 24.3-11.3 9.2 0 16.5 3.7 22.8 10.2 3.3 3.5 6.4 7.9 6.1 12.9 -0.6 8.9-13.7 12.4-20.6 13.7 -10.3 1.9-22.4 1.1-31.6-4.3 -9.8-5.8-11.5-19.2-4-27.8 6-6.9 16.2-9.8 25-11.2 8.8-1.4 18.6-1 25.9 4.6 9.3 7.2 12.7 18.1 3.9 27.1 -7.9 8.1-21 10.4-31.7 8.2 -9.3-1.9-24.4-9.2-18.5-20.9 4.8-9.6 17.2-14.7 27.3-15.5 14.1-1.1 25.1 7.3 30.1 20.2 2.8 7.3 5 16.7-4.3 20 -8 2.8-17.7 0.8-25.7-0.9 -3.2-0.7-4.2 3.6-1.3 4.8 13.5 5.6 32.7 2.4 41.7-10 9.2-12.7 0-27-11.9-33.8 -12.2-7-27.6-9.8-41.5-9.2 -11.9 0.6-25.4 5.2-28.3 18.2 -0.6 2.8 3 4.3 4.6 1.9 9.8-14.5 26.1-18.9 42.5-13.7 13.4 4.2 27 14.8 31.4 28.5 4.8 14.9-7.8 25.1-21.3 27.2 -15.4 2.4-34.4-2.1-46.6-12.1 -10.7-8.8-9.7-20.6-1-30.5 -1.4-0.8-2.8-1.6-4.2-2.4 -8 35.4 36.6 50.1 63.7 39.6 -0.6-1.5-1.3-3-1.9-4.6 -10.5 5.2-21.4 6.4-32.6 2.7 -10.5-3.4-19.6-10.8-27.8-17.9 -2.2-1.9-5.1 0.5-3.9 3 6.1 13.9 21.2 16.2 34.6 18 0.4-1.6 0.9-3.2 1.3-4.8 -7.6-1-15.2-2-22.4-4.8 -0.4 1.6-0.9 3.2-1.3 4.8 2.9 0.6 5.3 2.4 8.1 3.3 2.7 0.9 4.5-3.3 1.9-4.6 -0.5-0.2-0.9-0.5-1.4-0.7 -2.9-1.4-5.4 2.9-2.5 4.3 0.5 0.2 0.9 0.4 1.4 0.7 0.6-1.5 1.3-3 1.9-4.6 1 0.4-0.6-0.3-0.6-0.3 -1-0.5-2-0.9-3-1.3 -1.5-0.6-2.9-1.4-4.5-1.7 -3.2-0.7-4.3 3.7-1.3 4.8 7.2 2.7 14.8 3.8 22.4 4.8 3.2 0.4 4.5-4.4 1.3-4.8 -12.1-1.6-26.1-3.1-31.6-15.7 -1.3 1-2.6 2-3.9 3 9.4 8.2 19.4 15.8 31.4 19.7 11.8 3.9 24.1 1.7 35.1-3.7 2.5-1.2 0.7-5.6-1.9-4.6 -23.1 9-64.7-1.7-57.5-33.4 0.5-2.3-2.4-4.4-4.2-2.4 -10 11.4-11.8 25.4-0.2 36.5 11.2 10.7 28.6 15 43.6 15.1 13.8 0.1 28.5-4.8 33.8-18.7 4.7-12.4-3.5-25.6-12.2-33.9 -9.6-9.2-22.5-15.1-35.7-15.9 -14.5-0.8-27.1 6.6-35.1 18.4 1.5 0.6 3 1.3 4.6 1.9 2.4-10.8 13.8-13.9 23.5-14.5 11.8-0.8 24.2 1.7 35 6.5 10.2 4.5 22.1 15.5 15.2 27.3 -7 12-25.5 14.1-37.2 9.3 -0.4 1.6-0.9 3.2-1.3 4.8 12.6 2.7 37.4 6.5 38.9-12.3 0.6-8.3-4.1-18.3-9.3-24.7 -4.4-5.4-10.1-9.2-16.8-11 -12-3.3-26.1 0.5-35.7 8.2 -7.9 6.3-13.4 17.1-6.1 26 11.2 13.7 33.8 14.5 48.6 7.2 7.3-3.6 14.3-10.7 14.9-19.3 0.7-9.9-6.3-17.7-13.9-23.1 -6.5-4.6-16-4.7-23.5-4.1 -8.9 0.8-18 3.4-25.5 8.3 -10.3 6.6-15.2 20.5-9.4 31.7 4.7 9.1 15.9 12.8 25.4 14 10.6 1.3 22 0.1 31.6-4.7 7.8-3.9 13.4-11.4 10.6-20.3 -4.3-13.7-19.5-21.8-33.1-22.1 -10.9-0.3-22.9 4-28.6 13.7 -4.9 8.3-2.9 20.9 4.3 27.2 13.9 12.4 39.7 3 48.4-11.4 -1.5-0.6-3-1.3-4.6-1.9 -3.2 9.6-11.4 10.4-20.3 9.3 0.7 1.3 1.4 2.5 2.2 3.8 2.3-3.7 3.7-7.6 6.5-11 -1.3-1-2.6-2-3.9-3 -1.8 3.8-3.3 7.9-5.1 11.7 1.5 0.2 3 0.4 4.6 0.6 -0.6-2.2-1.4-4.3-2.7-6.2 -0.6-0.9-0.8-0.5-0.4-1.4 0.8-1.6 1.9-3.2 3-4.7 -1.5-0.6-3-1.3-4.6-1.9 -0.7 3.5-2.4 6.7-3.1 10.2 0.8-0.6 1.6-1.2 2.4-1.8 -5.6-0.1-11.7-3.1-14.8-7.8 -4.1-6.1 7.4-8.9 11.6-7.6 3.3 1 4.3 5.5 3.5 8.4 -1.6 5.7-9.3-1.2-11.2-3 0.1 1 0.3 2 0.4 3 4.8-9 12.4-7.5 19.4-1.7 0-1.2 0-2.4 0-3.5 -1.7 2.1-3.4 4.7-5.8 6.1 -2.3 1.4-6.9 0-9.3-0.3 0.8 1.1 1.6 2.1 2.4 3.2 0.6-2.2 1.8-9.1 4.3-9.9 -0.6 0.2-0.2 0 0.2 0.7 0.5 0.9 0.8 2 0.9 3 1 9.9-11.5-0.4-14.1-2.6 0.1 1 0.3 2 0.4 3 1.3-1.9 3.3-5.6 6-5.7 2.8-0.1 6.3 2.5 8.7 3.7 -0.3-1.1-0.6-2.3-0.9-3.4 -1.1 2.5-2.3 5.1-4.1 7.2 -1.2 1.4-1.6 0.7-0.6 1.6 -1.1-0.9-0.6-5-0.2-6.8 0.7-2.9 2.2-6.1 5.2-7.1 5.3-1.7 11.2 5 14.3 8.3 0.2-1.3 0.3-2.6 0.5-3.9 -6.8 4.9-13.2 6.2-20.8 2.2 0.3 1.1 0.6 2.3 0.9 3.4 1.1-2.3 3.6-8.6 6.7-8.9 1.8-0.2 3.6 3.4 4.4 4.6 2.2 3.4 4.7 8.8 9.4 8.6 0-1.7 0-3.3 0-5 -3.2 0.3-6.2 1.3-9.2 2.4 -0.5 0.2-1.1 0.4-1.6 0.5 0 0 1.1 2.3 1.6 0.6 0.4-1.3 3.8-6.7 1.8-6.8 -0.7-1.3-1.4-2.5-2.2-3.8 -0.6 1.2-2.1 2.3-3 3.3 -0.8 0.8-1.6 1.6-2.4 2.3 -1.1 1.1-2 0.9-0.2 1.3 0.6 0.6 1.2 1.2 1.7 1.7 0-0.1 0-0.1 0-0.2 -1.6 0.4-3.2 0.9-4.8 1.3 0.4 1 0.8 2 2 2.3 1.3 0.3 2.8-0.4 3.1-1.7 0.5-2.3-0.3-5.1-0.4-7.5 0-0.5-0.1-1.1 0-1.7 -1 0.3-1.9 0.7-2.9 1 0.6 1.4 1.1 1.6 1.7 0.5 -0.6 0.4-1.9 0.2-2.5 0.2 -1.3 0-2.6 1.2-2.5 2.5 0 0 0 0 0 0 0.1 1 0.7 2.3 1.8 2.4 3.3 0.5 1.9 2.3-0.1 3.8 -3.4 2.6-7.8 2.4-11.4 0.4 0.4 0.9 0.8 1.9 1.1 2.8 1.5-4.3 4.8-9.7 10.1-8.9 5.9 0.9-0.1 4.6-2.5 5.5 1.1 0.8 2.1 1.6 3.2 2.4 -0.3-5.6 4.7-7.6 8.1-11.2C429.4 159.6 425.8 156.1 423.6 158.4L423.6 158.4z"/><path d="M414.9 137.7c-9.8-2.2-20.8-1.2-26.7 7.9 -5.1 7.8-3.8 17.8-0.1 25.8 4 8.5 11.3 14.5 19.7 18.3 8.5 3.8 18.7 6.1 25.7 10.1 0.8-6.1 1.6-12.2 2.4-18.3 -6.3 2.3-12 2.1-17.9-1.1 -5-2.7-9.2-8-9.8-13.8 -0.6-5.4-4.1-10-10-10 -5 0-10.6 4.6-10 10 1.5 12.9 7.8 23.3 18.7 30.5 9.9 6.5 23.3 7.9 34.3 3.7 7.8-2.9 10.4-13.7 2.4-18.3 -6.1-3.5-13-5.5-19.6-7.8 -2.9-1-5.7-2.1-8.4-3.4 -3.3-1.6-4.8-2.5-6.8-4.8 -0.5-0.5-0.9-1-1.3-1.5 0.5 0.7 0.5 0.6-0.2-0.4 -0.2-0.3-1.9-3.6-1.2-1.9 -0.5-1.2-0.8-2.4-1.1-3.6 -0.2-1.2-0.2-1.2 0 0 -0.1-0.9-0.1-1.7 0-2.6 -0.1 2.9 1-2.3-0.2 0.4 0.6-0.9 0.5-0.9-0.3 0.1 1.4-1.9-1.7 0.9 0.4-0.4 0.6-0.4 0.8-0.2 0.2-0.1 1.8-0.2 3.1 0.1 4.7 0.4C422.2 159.9 427.5 140.6 414.9 137.7L414.9 137.7z"/><path d="M430.2 127.8c-18.7-2.1-32.9 9.8-41.5 25.3 -6.2 11.3 11.1 21.4 17.3 10.1 5.6-10.1 12.2-16.8 24.2-15.4 5.4 0.6 10-5 10-10C440.2 131.9 435.6 128.4 430.2 127.8L430.2 127.8z"/><g class="st1"><path d="M706.2 192.1c-4.3-0.8-6.6-1.8-9.4-3.2 -4-2-7.8-4.6-11.4-7.3 -7.9-5.9-15.6-14.2-22.3-21.9 -6.7-7.7-12.8-16-18.4-24.5 -2.6-3.9-5-8-7.3-12.1 -1-1.8-2-3.7-2.9-5.6 -0.4-0.9-0.8-1.7-1.3-2.6 -0.3-0.6-0.5-1.1-0.8-1.7 0.4 1 0.4 1 0 0 -2.1-5-6.6-8.6-12.3-7 -4.8 1.3-9 7.2-7 12.3 8.3 20.4 21.5 38.7 35.7 55.3 13.3 15.5 31.1 33.6 52 37.7 5.3 1 10.8-1.4 12.3-7C714.5 199.5 711.5 193.1 706.2 192.1L706.2 192.1z"/></g><g class="st1"><path d="M709.1 177.3c-10.3-3.5-19.9-8.7-28-16 -7.5-6.9-13.2-14.8-18.9-23.1 -7.1-10.2-13.8-20.9-22.9-29.5C630 100 619 94.4 607.5 89.5c-25.2-10.6-51.2-20-77.2-28.5 -26.9-8.9-54.6-14.7-83.1-15.6 -49.1-1.6-99.1-1.5-147.6 7.2 -44.3 8-88 26.1-115.3 63.4 -11.8 16.1-32.1 22.9-50.5 28 -22.2 6.1-44.8 10.4-65.8 20.2 -4.9 2.3-6.2 9.3-3.6 13.7 2.9 5 8.8 5.9 13.7 3.6 20.9-9.9 44.3-13.3 66.3-19.7 22.9-6.7 43.5-17.1 57.8-36.7 25.7-35 71.5-48.4 112.4-54.8 23.7-3.7 47.7-4.8 71.7-5.2 25.4-0.5 51.4-0.9 76.7 1.4 27.2 2.5 53.5 10.8 79.2 19.9 13.7 4.8 27.3 9.7 40.7 15.1 10.7 4.3 21.5 7.9 31.4 13.7 17.6 10.3 26.6 28.9 38.6 44.5 13.4 17.5 29.7 29.8 50.7 36.9C716.1 200.7 721.3 181.4 709.1 177.3L709.1 177.3z"/></g><g class="st1"><path d="M706.2 160.5c-18.5-5.2-34-17.1-49.1-28.6 -16.4-12.5-32.9-24.6-52.7-31 -12.3-4-17.5 15.3-5.3 19.3 18.4 6 33.9 18.3 49.1 29.9 16.2 12.4 32.8 24.1 52.7 29.7C713.3 183.3 718.6 164 706.2 160.5L706.2 160.5z"/></g><g class="st1"><path d="M717.4 158.1c-32.5-45.2-86.9-66-137.6-83.5 -5.2-1.8-10.9 2-12.3 7 -1.5 5.5 1.8 10.5 7 12.3 45.1 15.6 96.6 33.9 125.6 74.4 3.2 4.4 8.6 6.5 13.7 3.6C718.2 169.2 720.6 162.5 717.4 158.1L717.4 158.1z"/></g><g class="st1"><path d="M712.3 216.3c-12.4-1-24.9 2.8-36.6 6.3 -6 1.8-12 3.7-18.1 5.4 -6.5 1.8-13.1 2.8-19.7 4.4 -13.7 3.4-26.4 9.8-39.5 14.7 -8.7 3.2-17.8 5.5-26.7 8.2 -24.5 7.6-49.8 11.4-74.9 14.8 -25.3 3.4-51.1 8.8-76.7 5.8 -23.3-2.7-45.7-12.1-66.6-22.2 -45.8-22.4-87.9-52.7-136.7-68.6 -31.3-10.2-63.3-9.2-95.8-9.2 -12.9 0-12.9 20 0 20 15.3 0 30.6-0.5 45.9 0.2 14.3 0.7 28.1 3.2 41.8 7.4 23.5 7.1 45.5 18.7 67 30.5 43.5 24 87.4 53.2 137.5 61 26.3 4.1 52-0.7 78.1-4.1 17.3-2.3 34.6-4.5 51.7-7.6 10.2-1.9 20.2-4.4 30.2-7.4 6.9-2.1 13.7-4.3 20.6-6.2 13.7-3.8 26.4-10.3 39.7-15 6.9-2.4 13.8-3.8 21-5.2 6.9-1.4 13.7-3.6 20.4-5.7 12-3.7 24.7-8.5 37.4-7.5 5.4 0.4 10-4.9 10-10C722.3 220.6 717.8 216.8 712.3 216.3L712.3 216.3z"/></g><g class="st1"><path d="M226.1 168.6c-9.7-4.2-20.6-9.6-26.9-18.6 -5.9-8.4-3.4-18.2 4.5-25.7 7.7-7.3 19.4-10.1 29.3-13.3 12.1-3.9 23.7-8.3 33.8-16.2 4.3-3.4 3.5-10.6 0-14.1 -4.2-4.2-9.9-3.4-14.1 0 -9.6 7.6-22.8 10.3-34.2 14.1 -13.6 4.5-26.6 10.8-35.1 22.7 -8.8 12.5-9.9 28.4-2.1 41.6 7.6 12.7 21.6 21 34.8 26.8 5 2.2 10.7 1.5 13.7-3.6C232.2 178 231.1 170.7 226.1 168.6L226.1 168.6z"/></g><g class="st1"><path d="M315.8 67.2c-20.4 2.4-40 9.5-57.9 19.6 -18.1 10.2-34.8 24.5-43 43.9 -7.8 18.4-5.7 38.2 9.7 51.8 13.9 12.3 32.7 17.9 50 23.6 12.3 4.1 17.5-15.2 5.3-19.3 -13.5-4.5-29.2-9.2-39.5-17.2 -5.4-4.2-8.1-7.7-9.5-12.6 -0.9-3.1-0.8-5.2-0.4-9.3 0.3-2.6 1.9-7.4 3.2-10.5C240 122.4 254.2 112 268 104c7.8-4.5 16.1-8.2 24.6-11.1 7.3-2.5 16.6-4.9 23.2-5.7 5.4-0.6 10-4.1 10-10C325.8 72.2 321.2 66.6 315.8 67.2L315.8 67.2z"/></g><g class="st1"><path d="M307.1 207c-15.4-12.6-29-27.6-38.9-44.8 -9.5-16.4-15-36.3-5.1-53.6 6.4-11.2-10.4-20.9-17.3-10.1 -8.2 12.9-13.5 27.1-12.8 42.6 0.6 15.1 6.1 29.7 10.1 44.1 3.5 12.5 21.9 7.2 19.3-5.3 -3.7-17.4-13.4-33.6-13.7-51.7 -0.2-10.4-13.1-13.1-18.6-5 -8.5 12.3-11.2 26.5-13.3 41 6.1-0.8 12.2-1.6 18.3-2.4 -4.6-9.3-7.7-19-9.5-29.2 -0.8-4.3-5.5-7.3-9.6-7.3 -4.8 0-8 3.1-9.6 7.3 -3.5 8.8-7 17.5-10.5 26.3 6.5 0.9 13.1 1.8 19.6 2.7 -0.2-3.6-1.1-6.8-2.4-10.1 -0.8-2-2.8-6.2-2.8-7.4 -0.6-8.7-10.4-13.2-17.1-7.1 -3.8 3.5-12.5 7.6-17.5 12.3 5.7 2.4 11.4 4.7 17.1 7.1 -0.4-2.9-1.5-5.9-1.8-8.8 -0.6-8.6-10.4-13.3-17.1-7.1 -7.9 7.5-20.4 8.3-30.7 9.7 -5.4 0.8-8.3 7.6-7 12.3 1.6 5.8 6.9 7.8 12.3 7 14.3-2 28.6-4.6 39.5-14.9 -5.7-2.4-11.4-4.7-17.1-7.1 0.2 2.7 1.6 7.4 1.8 8.8 1.1 8.4 10.1 13.5 17.1 7.1 3.8-3.5 12.5-7.6 17.5-12.3 -5.7-2.4-11.4-4.7-17.1-7.1 0.2 3.6 1.1 6.8 2.4 10.1 0.8 2 2.8 6.2 2.8 7.4 0.8 11.7 15.5 13 19.6 2.7 3.5-8.8 7-17.5 10.5-26.3 -6.4 0-12.9 0-19.3 0 2.1 11.9 6.2 23.1 11.5 34 3.6 7.3 17.1 6.2 18.3-2.4 1.8-12.8 3.8-25.3 11.3-36.2 -6.2-1.7-12.4-3.4-18.6-5 0.3 20.2 10.3 37.7 14.4 57 6.4-1.8 12.9-3.5 19.3-5.3 -3.3-11.8-7.9-24.1-9.2-36.2 -1.3-13 3-24.2 9.9-35.1 -5.8-3.4-11.5-6.7-17.3-10.1 -25.3 44.3 13.8 95.3 47.2 122.6 4.2 3.4 10 4.1 14.1 0C310.6 217.5 311.3 210.4 307.1 207L307.1 207z"/></g><g class="st1"><path d="M656.7 177.2c-0.1 14.3-4.7 31.1-17.9 38.7 -11.1 6.5-1.1 23.8 10.1 17.3 19.3-11.3 27.5-34.6 27.8-56C676.8 164.3 656.8 164.3 656.7 177.2L656.7 177.2z"/></g><g class="st1"><path d="M628.6 159.6c0.1 19.7 3.9 44.1-11.1 59.6 -9 9.3 5.2 23.4 14.1 14.1 19.5-20.2 17-47.9 17-73.7C648.6 146.8 628.6 146.8 628.6 159.6L628.6 159.6z"/></g><g class="st1"><path d="M634.2 120.2c15.7 48-4.4 119.6-59.7 129.8 -5.4 1-8.3 7.4-7 12.3 1.5 5.6 6.9 8 12.3 7 66.1-12.2 92.5-96.9 73.7-154.4C649.5 102.7 630.2 107.9 634.2 120.2L634.2 120.2z"/></g><g class="st1"><path d="M689.5 225.1c-23.5-1.5-46.5-7.5-70-2.3 -11.5 2.5-22.4 8.2-33 13.1 -10.2 4.7-20.4 9-31.2 12 -49.6 13.5-102.8 7.2-153.5 7.1 -12.9 0-12.9 20 0 20C453.5 275 506.1 280 557 268c11.8-2.8 22.9-7.3 33.9-12.3 10.1-4.5 19.9-9.7 30.6-12.8 22-6.4 45.7 0.8 67.9 2.2C702.4 245.9 702.3 225.9 689.5 225.1L689.5 225.1z"/></g></svg>