<?xml version="1.0" encoding="utf-8"?>
<!-- Generator: Adobe Illustrator 16.0.0, SVG Export Plug-In . SVG Version: 6.00 Build 0)  -->
<!DOCTYPE svg PUBLIC "-//W3C//DTD SVG 1.1//EN" "http://www.w3.org/Graphics/SVG/1.1/DTD/svg11.dtd">
<svg version="1.1" id="Layer_1" xmlns="http://www.w3.org/2000/svg" xmlns:xlink="http://www.w3.org/1999/xlink" x="0px" y="0px"
	 width="750.9px" height="317.5px" viewBox="0 0 750.9 317.5" enable-background="new 0 0 750.9 317.5" xml:space="preserve">
<path fill="#FFFFFF" d="M41.728,206.49c-3.565,4.536-6.649,9.436-9.024,14.766c-5.391,12.096-8.043,24.984-10.634,37.909
	c-0.564,2.824,0.983,5.015,3.058,5.862c-0.734,2.025-1.426,4.068-2.058,6.138c-0.584,1.919,0.053,3.585,1.237,4.72
	c-2.372,3.948-4.642,7.961-6.732,12.086c-2.384,4.702,2.302,8.884,6.841,6.842c3.879-1.746,7.579-3.809,11.15-6.117
	c3.108-2.01,7.297-3.979,9.86-6.665c3.18-3.331,5.857-7.161,8.636-10.829c2.649,2.057,6.983,1.771,7.65-2.377
	c0.072-0.449,0.165-0.893,0.244-1.34c2.455,2.897,5.531,5.277,9.604,6.832c2.441,0.932,5.624-1.008,6.15-3.492
	c0.606-2.867,1.09-5.764,1.479-8.678c4.618-0.215,9.147-0.282,13.027-0.83c0.686-0.096,1.277-0.385,1.781-0.783
	c8.505,0.082,17.187-1.014,25.575-1.936c10.777-0.148,21.559-0.285,32.313-1.104c1.848-0.141,3.148-0.996,3.937-2.141
	c3.964-0.349,7.928-0.687,11.895-1.002c0.782,0.685,1.836,1.125,3.17,1.143c2.194,0.027,4.386,0.135,6.574,0.275
	c0.562,1.264,1.596,2.269,3.097,2.545c16.294,3.014,32.774,5.084,49.329,3.18c1.704-0.196,3.238-1.34,4.169-2.786
	c2.592,0.231,5.184,0.46,7.773,0.681c-2.423,0.432-4.848,0.861-7.271,1.284c-5.832,1.017-4.012,9.513,1.329,9.821
	c16.601,0.959,34.104-1.607,49.429-8.217c6.55,0.132,13.096-0.104,19.518-0.518c7.01-0.453,13.994-1.109,20.973-1.807
	c20.542,3.146,41.758-0.303,62.287-4.313c0.859,1.105,2.158,1.868,3.795,1.853c4.698-0.045,9.346-0.396,13.952-0.974
	c0.594,0.857,1.497,1.521,2.719,1.795c12.277,2.754,24.915,2.482,37.538,1.064c0.449,2.258,2.141,4.281,4.791,4.113
	c6.794-0.432,13.604-1.176,20.404-2.174c3.986-0.366,7.968-0.775,11.93-1.365c6.329-0.941,12.619-2.268,18.916-3.418
	c12.49-2.283,24.958-4.768,37.257-7.934c13.522-3.48,27.04-7.582,39.673-13.605c0.367-0.175,0.732-0.355,1.099-0.533
	c0.805,0.585,1.747,0.967,2.722,1.029c9.991,0.628,19.661-2.706,28.764-6.944c6.719-2.13,13.484-4.487,20.025-7.315
	c1.999,0.603,4.268,0.023,5.527-2.217c0.084-0.146,0.162-0.297,0.244-0.443c1.39-0.684,2.766-1.387,4.121-2.124
	c4.733-1.83,9.418-3.75,13.972-5.894c1.954,3.713,7.416,4.032,9.168-0.732c0.562-1.526,1.084-3.064,1.6-4.604
	c0.242-0.234,0.451-0.498,0.632-0.779c3.06-1.893,6.006-3.967,8.817-6.265c-0.004,2.103,0.024,4.207,0.129,6.318
	c0.279,5.567,8.238,6.894,9.821,1.329c0.9-3.166,1.771-6.369,2.682-9.569c-1.056,8.39-2.04,16.788-2.503,25.24
	c-0.313,5.723,8.372,6.694,9.821,1.329c0.671-2.483,1.268-4.982,1.82-7.489c2.055,0.205,4.215-0.869,5.18-3.511
	c2.164-5.924,3.76-12.09,5.384-18.247c-0.106,2.304-0.188,4.608-0.206,6.918c-0.042,5.616,8.459,6.851,9.821,1.329
	c0.538-2.184,1.04-4.372,1.522-6.563c1.5-0.344,2.848-1.433,3.478-3.438c2.171-6.924,3.085-14.088,3.179-21.329
	c0.027-2.052-0.845-3.421-2.083-4.158c0.024-0.28,0.058-0.562,0.083-0.842c0.21-2.382-0.975-3.854-2.594-4.46
	c-0.428-2.641-0.906-5.272-1.585-7.869c-0.859-3.284-4.513-4.402-7.345-2.988c-4.887,2.44-8.453,6.026-11.437,10.126
	c-1.962-2.338-6.385-2.142-8.358,0.669c-1.613,2.297-3.052,4.692-4.354,7.16c0.553-4.211,1.134-8.421,1.671-12.638
	c0.629-4.943-7.226-6.828-9.317-2.523c-0.596,1.226-1.156,2.465-1.701,3.709c-1.489-2.024-4.436-2.667-6.621-1.313
	c-1.25-0.399-2.502-0.781-3.758-1.149c-0.067-0.285-0.153-0.565-0.271-0.836c2.106-2.334,1.948-7.145-2.002-8.708
	c-12.822-5.074-25.866-8.894-39.071-11.776c-2.667-1.747-5.388-3.406-8.107-5.013c-0.81-0.478-1.616-0.97-2.424-1.452
	c3.399-0.713,6.01-5.208,2.813-8.469c-4.976-5.078-10.563-9.465-16.52-13.317c0.1-1.238-0.314-2.541-1.48-3.683
	c-11.582-11.348-25.805-18.657-41.086-23.084c-11.078-11.67-28.573-15.107-43.899-16.8c-10.753-1.188-21.569-1.479-32.385-1.332
	c-16.793-2.994-33.995-4.073-51.245-4.291c-0.191-1.286-0.932-2.489-2.396-3.274c-17.985-9.646-38.97-12.688-59.135-13.404
	c-20.652-0.733-41.288,0.93-61.718,3.9c-6.362,0.925-3.646,10.56,2.658,9.643c18.994-2.762,38.333-4.279,57.532-3.597
	c14.486,0.515,29.517,2.035,43.361,6.796c-7.491,0.123-14.963,0.332-22.391,0.541c-28.205-2.934-56.969-2.228-84.832,0.438
	c-1.348,0.129-2.48,0.79-3.324,1.707c-25.75,1.014-51.452,2.796-77.005,6.472c-5.295,0.762-4.215,8.232,0,9.643
	c23.51,7.864,48.661,7.012,73.413,5.583c-11.771,2.63-23.872,5.824-34.629,11.345c-2.234,0.569-4.493,1.061-6.788,1.425
	c-0.415,0.066-0.789,0.17-1.128,0.304c-18.352,1.077-36.663,2.921-54.873,5.416c-7.57,0.847-15.143,1.677-22.729,2.414
	c-3.216,0.313-6.449,0.592-9.69,0.854c-0.449-0.277-0.894-0.561-1.331-0.855c-3.42-7.305-7.283-14.388-13.383-19.846
	c-3.558-3.184-9.905-0.17-8.356,4.865c2.048,6.653,5.037,12.225,9.146,16.863c-32.316,2.221-65.232,3.892-95.653,14.987
	c-4.409,1.609-5.109,8.341,0,9.643c1.026,0.261,2.058,0.507,3.089,0.738c-4.642,4.846-7.927,10.826-10.523,17.164
	c-0.791,0.923-1.151,1.966-1.174,2.995c-0.545,1.463-1.067,2.933-1.563,4.41c-3.832,1.897-7.526,4.058-11.021,6.556
	c-3.586,2.563-3.068,7.64,1.193,9.139c1.187,0.416,2.39,0.736,3.602,0.998c0.356,0.854,0.975,1.57,1.746,2.096
	c-0.312,0.027-0.619,0.051-0.933,0.088c-0.028-0.001-0.058-0.002-0.086-0.003c0.001,0.005,0.001,0.009,0.002,0.015
	c-0.442,0.053-0.884,0.094-1.331,0.164c-2.393,0.379-3.479,2.061-3.582,3.926c-2.558,0.317-5.064,0.629-7.418,1.074
	c-5.964,1.131-3.863,9.283,1.329,9.821c4.5,0.466,9.07,0.696,13.56,0.354c0.505,0.242,1.019,0.457,1.529,0.685
	c-0.953,1.302-1.255,3.022-0.736,4.583c-13.249,6.547-25.771,15.214-32.67,27.855c-3.091,5.662,5.546,10.707,8.636,5.047
	C27.366,217.406,34.073,211.387,41.728,206.49z M459.77,70.626c5.544-0.282,11.103-0.537,16.668-0.715
	c-11.938,1.472-24.05,1.926-36.14,2.101c0.087-0.178,0.156-0.362,0.221-0.551C446.938,71.219,453.355,70.952,459.77,70.626z
	 M261.207,70.602c17.508-1.497,35.073-2.321,52.652-2.849c2.373,0.337,4.75,0.656,7.131,0.946
	C301.415,69.614,281.064,71.751,261.207,70.602z M525.527,72.344c-5.883-0.289-11.75-0.296-17.527-0.085
	c0.367-0.576,0.61-1.217,0.721-1.883c1.316,0.1,2.634,0.187,3.948,0.313C516.776,71.083,521.148,71.576,525.527,72.344z
	 M231.885,173.868c1.005-1.886,2.273-3.673,3.827-5.325c21.46-2.318,42.852-5.25,64.443-6.104
	c9.416-0.373,18.834-0.504,28.254-0.467c0.905,2.058,3.021,3.725,5.811,3.344c3.524-0.479,7.005-1.221,10.445-2.135
	c1.324-0.291,2.646-0.588,3.967-0.896c15.661,0.411,31.316,1.164,46.958,1.956c32.214,1.632,64.56,3.674,96.8,1.52
	c0.38-0.025,0.762-0.052,1.141-0.078c6.48,0.862,13.019,1.33,19.56,1.69c12.535,1.851,25.03,3.974,37.526,6.101
	c-10.633,1.99-20.328,6.621-30.609,10.267c-4.163,0.907-8.316,1.864-12.443,2.935c-0.716,0.187-1.32,0.553-1.83,1.021
	c-3.957,0.777-7.978,1.35-12.027,1.802c-18.697,0.022-37.385,0.554-56.072,1.081c-18.292,0.516-37.057,2.003-55.328,0.741
	c-9.374-0.647-18.6-2.396-27.932-3.41c-8.885-0.966-17.423-0.494-26.314-0.159c-11.188,0.421-22.358,0.479-33.519,0.066
	c-14.265-1.446-28.426-3.838-42.382-7.217C245.429,178.973,237.979,177.383,231.885,173.868z M39.222,274.007
	c-1.119,1.196-2.521,2.239-4.003,3.194c0.888-1.422,1.786-2.838,2.699-4.244C38.278,273.423,38.718,273.773,39.222,274.007z"/>
<g id="Layer_3">
	<g id="Layer_1_2_">
		<g id="eyelid" display="none">
			<path display="inline" fill="none" d="M167.903,267.293c58.458,25.335,139.217,41.005,228.422,41.005
				c89.203,0,169.963-15.67,228.42-41.005c58.459-25.335,94.615-60.335,94.615-98.995s-36.156-73.66-94.615-98.995
				c-58.457-25.335-139.215-41.005-228.42-41.005c-89.205,0-169.965,15.67-228.423,41.005s-94.613,60.335-94.613,98.995
				S109.445,241.958,167.903,267.293z"/>
		</g>
		<g id="Layer_1_1_">
			<path fill="none" stroke="#000000" stroke-miterlimit="10" d="M706.388-165.352c-8.5-5.8-29.1-7.2-40.398-10.6
				c-15.4-4.7-30.9-9.3-46.102-15.3c-26.699-10.5-47.799-28.2-71.699-42.9c-10.699-6.5-19.1-16.6-29.801-22.8
				c-15.299-8.9-34-8.8-50.5-14c-25.898-8.2-43.898-19.2-71.6-22.9c-44.2-5.9-91.9-9.5-135,4c-41.4,13-81.5,24.8-123.601,33.3
				c-35.1,7.1-53.3,37.3-76.8,61.4"/>
			<path fill="none" stroke="#000000" stroke-miterlimit="10" d="M725.788-168.852c-87.699,32.2-115.5-18.7-135.1-27.1
				c-31-13.3-36.699-39.8-68.4-52.3c-35.299-13.9-64.4-34.9-103.199-38.5c-38.701-3.6-74.401,5.4-112.5,9.3
				c-40.103,4.1-94.2,4.7-131.5,21.3c-25.7,11.4-41.9,34.4-54.9,57.9c-15.899,28.7-27.5,41.2-59.3,52.2"/>
			<path fill="none" stroke="#000000" stroke-miterlimit="10" d="M57.388-118.052c70.5-24.1,136.702,29.8,207.1,36.4
				c28.9,2.7,60.601,4.9,89.4,0.8c32.701-4.6,62.601-20.8,91.701-36.7c41.299-22.6,72.9-45,119.5-51.7
				c19.799-2.9,38.299-5.1,58.6-4.9c18.5,0.2,33,7.5,49.5,8.8"/>
			<path fill="none" stroke="#000000" stroke-miterlimit="10" d="M73.188-147.752c11.4,0,31.801-5.3,26.4,11
				c-2.4,7.5-19.801,14.2-26.4,17.1"/>
			<path fill="none" stroke="#000000" stroke-miterlimit="10" d="M383.39-116.252c-24.602,1.4-44.702,11-70.099,8.1
				c-35.603-4.1-74.5-25.3-77.5-65.7c-3.803-52.1,54-74.9,98.197-75.6c40.001-0.7,81.9,13.5,92.001,55
				c8.299,34.4-8.301,77.8-49.102,82.7"/>
			<path fill="none" stroke="#000000" stroke-miterlimit="10" d="M354.788-156.652c-14.1,1.9-56.1,11.2-65.6-2.2
				c-12.6-17.8,14.798-44.3,28.9-47.8c18-4.5,49.6-2,57.1,17.1c10.2,25.7-16.5,35.9-36,35"/>
			<path fill="none" stroke="#000000" stroke-miterlimit="10" d="M504.888-130.152c-5.799,2-11.699,4.7-17.898,7.5
				c-71.801,33-134.301,75.6-216.801,67.6c-34.397-3.4-76.5-7-107.5-22.8c-33.5-17.1-64.2-51.8-100-28.2"/>
			<path fill="none" stroke="#000000" stroke-miterlimit="10" d="M659.089-156.552c-31.701,1-99.6-17.4-119.301,19.3"/>
			<path fill="none" stroke="#000000" stroke-miterlimit="10" d="M136.289-298.652c-13.7,18.3,4.3,40.2-7,57.9"/>
			<path fill="none" stroke="#000000" stroke-miterlimit="10" d="M215.291-303.952c-11.202,11.9-32.5,36.2-49.103,38.6"/>
			<path fill="none" stroke="#000000" stroke-miterlimit="10" d="M264.388-286.352c9.5,1.1,17.902-3.1,26.3-7"/>
			<path fill="none" stroke="#000000" stroke-miterlimit="10" d="M325.789-319.652c-0.303,13-3.9,24.3-10.5,35.1"/>
			<path fill="none" stroke="#000000" stroke-miterlimit="10" d="M376.688-316.252c3.4,18.1-20.2,24.4-33.3,28.1"/>
			<path fill="none" stroke="#000000" stroke-miterlimit="10" d="M427.589-305.652c-4.6,9.6-14.1,16.8-24.6,19.3"/>
			<path fill="none" stroke="#000000" stroke-miterlimit="10" d="M473.089-293.352c-6.201,10-25.801,16.3-36.801,17.5"/>
			<path fill="none" stroke="#000000" stroke-miterlimit="10" d="M508.288-258.352c8.201-0.1,15.301-3.4,22.801-7"/>
			<path fill="none" stroke="#000000" stroke-miterlimit="10" d="M569.589-221.452c7.4-3.4,15.699-5.8,21.1-10.5"/>
			<path fill="none" stroke="#000000" stroke-miterlimit="10" d="M616.989-214.452c-5.602,9.3-16.602,7.2-26.301,7"/>
			<path fill="none" stroke="#000000" stroke-miterlimit="10" d="M646.888-202.152c-6.5,7.3-15,11.4-24.6,12.3"/>
			<path fill="none" stroke="#000000" stroke-miterlimit="10" d="M262.588-286.352c4.1-13.4,11.6-24.5,24.6-28.1"/>
			<path fill="none" stroke="#000000" stroke-miterlimit="10" d="M308.188-324.952c-3.397,13.5-9.6,23.8-17.5,35.1"/>
			<path fill="none" stroke="#000000" stroke-miterlimit="10" d="M245.088-279.352c7.7-12.4,7.397-23.7,10.5-36.8"/>
			<path fill="none" stroke="#000000" stroke-miterlimit="10" d="M229.291-307.352c-5.103,8.2-10.7,19.9-12.303,29.8"/>
			<path fill="none" stroke="#000000" stroke-miterlimit="10" d="M343.288-51.252c-8.497-10.3-20.1-15.5-33.3-15.8"/>
			<path fill="none" stroke="#000000" stroke-miterlimit="10" d="M411.788-88.152c10.801-6.4,26.201-3.5,38.6-3.5"/>
			<path fill="none" stroke="#000000" stroke-miterlimit="10" d="M502.989-109.152c-15-6.4-34.201-5.3-50.9-5.3"/>
			<path fill="none" stroke="#000000" stroke-miterlimit="10" d="M536.288-121.452c-10-8.6-17-11.2-29.799-14"/>
			<path fill="none" stroke="#000000" stroke-miterlimit="10" d="M571.388-163.552c14.602-0.8,32.102,8.4,42.102,19.3"/>
			<g display="none">
				<g display="inline">
					<path d="M337.289-184.052c-2.2-2.4-5.801,1.2-4.096,2.5c3.401,3.6,8.401,5.6,8.1,11.2c1.101-0.8,2.101-1.6,3.201-2.4
						c-2.399-0.9-8.399-4.6-2.5-5.5c5.299-0.8,8.601,4.6,10.101,8.9c0.301-0.9,0.701-1.9,1.102-2.8c-3.6,2-8,2.2-11.4-0.4
						c-1.999-1.5-3.401-3.3-0.1-3.8c1.1-0.1,1.699-1.4,1.801-2.4l0,0c0.1-1.3-1.201-2.5-2.5-2.5c-0.602,0-1.9,0.2-2.502-0.2
						c0.6,1.1,1.1,0.9,1.701-0.5c-1.001-0.3-1.899-0.7-2.899-1c0.101,0.6,0,1.2,0,1.7c-0.1,2.4-0.899,5.2-0.399,7.5
						c0.3,1.3,1.8,2,3.101,1.7c1.198-0.3,1.601-1.3,2-2.3c-1.601-0.4-3.199-0.9-4.801-1.3c0,0.1,0,0.1,0,0.2
						c0.5-0.5,1.1-1.1,1.7-1.7c1.799-0.4,0.901-0.2-0.2-1.3c-0.798-0.7-1.599-1.5-2.398-2.3c-0.899-1-2.399-2.1-3-3.3
						c-0.8,1.3-1.5,2.5-2.2,3.8c-2,0.1,1.402,5.5,1.801,6.8c0.5,1.7,1.602-0.6,1.602-0.6c-0.5-0.1-1.102-0.3-1.602-0.5
						c-3-1.1-6-2.1-9.2-2.4c0,1.7,0,3.3,0,5c4.7,0.2,7.2-5.2,9.399-8.6c0.798-1.2,2.599-4.8,4.399-4.6
						c3.099,0.3,5.599,6.6,6.698,8.9c0.301-1.1,0.6-2.3,0.9-3.4c-7.6,4-14,2.7-20.8-2.2c0.2,1.3,0.3,2.6,0.5,3.9
						c3.1-3.3,9-10,14.3-8.3c3,1,4.5,4.2,5.199,7.1c0.4,1.8,0.9,5.9-0.199,6.8c1-0.9,0.6-0.2-0.6-1.6c-1.803-2.1-3-4.7-4.103-7.2
						c-0.298,1.1-0.598,2.3-0.899,3.4c2.4-1.2,5.9-3.8,8.701-3.7c2.699,0.1,4.699,3.8,6,5.7c0.097-1,0.298-2,0.398-3
						c-2.601,2.2-15.101,12.5-14.101,2.6c0.099-1,0.398-2.1,0.898-3c0.399-0.7,0.8-0.5,0.2-0.7c2.5,0.8,3.699,7.7,4.3,9.9
						c0.798-1.1,1.601-2.1,2.399-3.2c-2.401,0.3-7,1.7-9.301,0.3c-2.4-1.4-4.101-4-5.801-6.1c0,1.1,0,2.3,0,3.5
						c7-5.8,14.599-7.3,19.4,1.7c0.098-1,0.298-2,0.398-3c-1.898,1.8-9.599,8.7-11.2,3c-0.8-2.9,0.2-7.4,3.5-8.4
						c4.204-1.3,15.704,1.5,11.602,7.6c-3.102,4.7-9.2,7.7-14.8,7.8c0.798,0.6,1.598,1.2,2.398,1.8c-0.701-3.5-2.4-6.7-3.101-10.2
						c-1.6,0.6-3.1,1.3-4.6,1.9c1.1,1.5,2.198,3.1,3,4.7c0.399,0.9,0.2,0.5-0.4,1.4c-1.3,1.9-2.098,4-2.7,6.2
						c1.603-0.2,3.103-0.4,4.601-0.6c-1.8-3.8-3.3-7.9-5.101-11.7c-1.298,1-2.598,2-3.897,3c2.8,3.4,4.198,7.3,6.5,11
						c0.8-1.3,1.5-2.5,2.198-3.8c-8.9,1.1-17.101,0.3-20.301-9.3c-1.6,0.6-3.1,1.3-4.6,1.9c8.7,14.4,34.5,23.8,48.4,11.4
						c7.197-6.3,9.197-18.9,4.299-27.2c-5.701-9.7-17.701-14-28.602-13.7c-13.6,0.3-28.8,8.4-33.1,22.1
						c-2.798,8.9,2.8,16.4,10.6,20.3c9.603,4.8,21,6,31.602,4.7c9.5-1.2,20.701-4.9,25.398-14c5.803-11.2,0.902-25.1-9.398-31.7
						c-7.5-4.9-16.602-7.5-25.499-8.3c-7.5-0.6-17-0.5-23.5,4.1c-7.601,5.4-14.601,13.2-13.9,23.1c0.599,8.6,7.599,15.7,14.9,19.3
						c14.8,7.3,37.399,6.5,48.6-7.2c7.298-8.9,1.798-19.7-6.101-26c-9.6-7.7-23.699-11.5-35.699-8.2c-6.7,1.8-12.402,5.6-16.8,11
						c-5.2,6.4-9.902,16.4-9.302,24.7c1.5,18.8,26.3,15,38.899,12.3c-0.401-1.6-0.901-3.2-1.3-4.8c-11.7,4.8-30.2,2.7-37.2-9.3
						c-6.901-11.8,5-22.8,15.2-27.3c10.8-4.8,23.2-7.3,35-6.5c9.697,0.6,21.1,3.7,23.5,14.5c1.6-0.6,3.1-1.3,4.6-1.9
						c-8-11.8-20.6-19.2-35.1-18.4c-13.2,0.8-26.1,6.7-35.7,15.9c-8.7,8.3-16.899,21.5-12.2,33.9c5.301,13.9,20,18.8,33.801,18.7
						c15.002-0.1,32.401-4.4,43.602-15.1c11.6-11.1,9.799-25.1-0.2-36.5c-1.8-2-4.7,0.1-4.2,2.4c7.2,31.7-34.397,42.4-57.5,33.4
						c-2.598-1-4.397,3.4-1.897,4.6c11,5.4,23.3,7.6,35.1,3.7c12-3.9,22-11.5,31.397-19.7c-1.295-1-2.598-2-3.897-3
						c-5.5,12.6-19.5,14.1-31.6,15.7c-3.2,0.4-1.9,5.2,1.3,4.8c7.598-1,15.197-2.1,22.398-4.8c3-1.1,1.899-5.5-1.301-4.8
						c-1.6,0.3-3,1.1-4.5,1.7c-1,0.4-2,0.8-3,1.3c0,0-1.6,0.7-0.6,0.3c0.598,1.6,1.298,3.1,1.9,4.6c0.5-0.3,0.897-0.5,1.397-0.7
						c2.897-1.4,0.397-5.7-2.5-4.3c-0.5,0.2-0.897,0.5-1.397,0.7c-2.603,1.3-0.803,5.5,1.897,4.6c2.8-0.9,5.202-2.7,8.103-3.3
						c-0.402-1.6-0.902-3.2-1.303-4.8c-7.197,2.8-14.798,3.8-22.397,4.8c0.399,1.6,0.899,3.2,1.3,4.8c13.4-1.8,28.5-4.1,34.6-18
						c1.202-2.5-1.699-4.9-3.9-3c-8.197,7.1-17.299,14.5-27.799,17.9c-11.2,3.7-22.101,2.5-32.601-2.7c-0.598,1.6-1.298,3.1-1.9,4.6
						c27.101,10.5,71.701-4.2,63.7-39.6c-1.4,0.8-2.8,1.6-4.199,2.4c8.699,9.9,9.7,21.7-1,30.5c-12.201,10-31.2,14.5-46.601,12.1
						c-13.5-2.1-26.1-12.3-21.3-27.2c4.397-13.7,18-24.3,31.397-28.5c16.4-5.2,32.7-0.8,42.503,13.7c1.6,2.4,5.2,0.9,4.6-1.9
						c-2.903-13-16.403-17.6-28.301-18.2c-13.899-0.6-29.302,2.2-41.499,9.2c-11.9,6.8-21.101,21.1-11.9,33.8
						c9,12.4,28.2,15.6,41.7,10c2.9-1.2,1.9-5.5-1.3-4.8c-8,1.7-17.7,3.7-25.7,0.9c-9.3-3.3-7.1-12.7-4.3-20
						c5-12.9,16-21.3,30.1-20.2c10.101,0.8,22.5,5.9,27.3,15.5c5.9,11.7-9.199,19-18.5,20.9c-10.699,2.2-23.8-0.1-31.699-8.2
						c-8.801-9-5.4-19.9,3.899-27.1c7.298-5.6,17.098-6,25.899-4.6c8.801,1.4,19,4.3,25,11.2c7.5,8.6,5.801,22-4,27.8
						c-9.201,5.4-21.299,6.2-31.602,4.3c-6.899-1.3-20-4.8-20.6-13.7c-0.298-5,2.8-9.4,6.1-12.9c6.3-6.5,13.603-10.2,22.8-10.2
						c8.802,0.1,19.902,2.8,24.302,11.3c3.5,7,2.201,17.9-4.899,22.2c-12.5,7.6-32,0.6-39.2-11.3c-1.5-2.4-5.5-0.9-4.6,1.9
						c3.899,11.7,13.702,14.3,25.1,12.9c1.801-0.3,3.301-2,2.2-3.8c-2.5-4.1-4.098-8.3-7.2-12c-1.897-2.4-5,0.6-3.897,3
						c1.8,3.8,3.3,7.9,5.1,11.7c1,2,4,1.3,4.603-0.6c0.697-2.6,3.299-5.2,3.5-7.9c0.199-2.9-2.4-5.8-3.9-8.1
						c-1.602-2.4-5.202-0.9-4.602,1.9c0.701,3.5,2.401,6.7,3.102,10.2c0.2,1,1.4,1.8,2.4,1.8c7.897-0.2,19.299-5.5,20.697-14.3
						c1.4-9-12.6-13.4-19.3-10.6c-5.8,2.3-8.7,10.3-5.7,15.9c4.598,8.4,14.098,2.3,18.9-2.3c0.798-0.8,0.898-2,0.398-3
						c-6.398-12-17.801-10.5-27.198-2.7c-1.103,0.9-0.803,2.5,0,3.5c2.197,2.7,4.5,6.4,8,7.5c3.399,1.2,7.1,0.4,10.6-0.1
						c1.599-0.3,2.798-1.5,2.397-3.2c-0.897-3.8-3.098-13.9-8.897-13.5c-3.9,0.3-5.7,4.2-6.2,7.6c-0.598,3.8,0.5,8.8,4.803,10.1
						c6.5,1.9,13.299-4.3,17.697-8.2c0.799-0.7,1-2.1,0.4-3c-2.202-3.2-5.202-7.9-9.602-8.1c-4.201-0.1-8.299,2.6-11.898,4.4
						c-1.298,0.6-1.4,2.2-0.9,3.4c1.7,3.7,5.803,13.3,11.5,10.6c3.803-1.8,3.4-8.1,2.7-11.5c-1-4.7-3.798-10.2-8.897-11.5
						c-7.603-1.9-14.402,4.5-19.103,9.6c-1.2,1.2-0.8,2.9,0.5,3.9c8.2,6,16.7,7,25.8,2.2c1.299-0.6,1.5-2.2,0.9-3.4
						c-2.5-5.1-8.102-15.3-15.103-10c-2.3,1.7-3.8,4.4-5.3,6.8c-0.8,1.3-2.5,4.9-4.3,4.9c-3.3-0.1-3.1,4.7,0,5
						c2.9,0.2,11.798,5.5,13.9,1.4c1.1-2.1,0.197-4.4-0.7-6.5c-1-2.3-2.4-8.3-5.7-8.2c-2,0.1-3,2.1-2.2,3.8
						c1.4,3,7.601,9.8,11.2,9.2c0.7-0.1,1.601-0.9,1.7-1.7c0-0.1,0-0.1,0-0.2c0.598-3.2-3.7-4.3-4.8-1.3c0.5-0.4,1-0.8,1.5-1.2
						c1.1,0.5,2.1,1.1,3.1,1.7c-0.101-0.7,2.3-15.8-4.2-11.1c-6.2,4.4-3.3,10.3,3.5,10c-0.8-0.8-1.699-1.7-2.5-2.5l0,0
						c0.603-0.8,1.2-1.6,1.801-2.4c-5.801,0.8-7.601,6.6-3.601,10.8c5.101,5.3,12.7,6,19,2.6c0.899-0.5,1.399-1.8,1.101-2.8
						c-2.5-7.2-10.5-16.5-19.101-11.3c-2.4,1.4-4.5,4.3-3.4,7.2c1.5,3.8,5.101,5.6,8.7,6.9c1.6,0.6,3.1-0.9,3.2-2.4
						C347.288-176.852,341.888-179.252,337.289-184.052L337.289-184.052z"/>
				</g>
			</g>
			<g display="none">
				<g display="inline">
					<path d="M345.989-204.752c-12.601,2.8-7.301,22.1,5.105,19.2c1.598-0.3,2.898-0.6,4.698-0.4c-0.601-0.1-0.4-0.3,0.2,0.1
						c2.1,1.3-1-1.5,0.399,0.4c-0.8-1-0.899-1-0.3-0.1c-1.2-2.7-0.1,2.5-0.2-0.4c0.101,0.9,0.101,1.7,0,2.6c0.2-1.2,0.2-1.2,0,0
						c-0.3,1.2-0.601,2.4-1.101,3.6c0.701-1.7-1,1.6-1.199,1.9c-0.7,1-0.7,1.1-0.2,0.4c-0.399,0.5-0.8,1-1.3,1.5
						c-2,2.3-3.5,3.2-6.801,4.8c-2.699,1.3-5.499,2.4-8.399,3.4c-6.6,2.3-13.5,4.3-19.6,7.8c-8,4.6-5.402,15.4,2.397,18.3
						c11,4.2,24.402,2.8,34.303-3.7c10.897-7.2,17.197-17.6,18.697-30.5c0.602-5.4-5-10-10-10c-5.898,0-9.398,4.6-10,10
						c-0.6,5.8-4.8,11.1-9.8,13.8c-5.899,3.2-11.598,3.4-17.899,1.1c0.8,6.1,1.6,12.2,2.399,18.3c7-4,17.2-6.3,25.7-10.1
						c8.398-3.8,15.697-9.8,19.697-18.3c3.702-8,5-18-0.1-25.8C366.788-205.952,355.788-206.952,345.989-204.752L345.989-204.752z"
						/>
				</g>
			</g>
			<g display="none">
				<g display="inline">
					<path d="M330.688-214.652c-5.399,0.6-10,4-10,10c0,5,4.603,10.6,10,10c12-1.4,18.6,5.3,24.2,15.4c6.2,11.3,23.5,1.2,17.3-10.1
						C363.588-204.852,349.388-216.752,330.688-214.652L330.688-214.652z"/>
				</g>
			</g>
			<g opacity="0.1">
				<g>
					<path d="M54.688-150.352c-5.3,1-8.3,7.3-6.899,12.4c1.5,5.6,7,8,12.3,7c20.9-4.1,38.7-22.2,52-37.7
						c14.2-16.6,27.397-34.9,35.7-55.3c2-5.1-2.2-11-7-12.3c-5.7-1.6-10.2,2-12.303,7c-0.397,1-0.397,1,0,0
						c-0.3,0.6-0.5,1.1-0.8,1.7c-0.5,0.9-0.899,1.7-1.3,2.6c-0.9,1.9-1.9,3.8-2.9,5.6c-2.3,4.1-4.697,8.2-7.3,12.1
						c-5.598,8.5-11.697,16.8-18.397,24.5c-6.7,7.7-14.402,16-22.3,21.9c-3.601,2.7-7.4,5.3-11.4,7.3
						C61.288-152.152,58.988-151.152,54.688-150.352L54.688-150.352z"/>
				</g>
			</g>
			<g opacity="0.1">
				<g>
					<path d="M51.789-165.252c-12.2,4.2-7,23.5,5.5,19.4c21-7.1,37.3-19.4,50.7-36.9c11.997-15.6,20.997-34.2,38.6-44.5
						c9.897-5.8,20.7-9.4,31.397-13.7c13.4-5.4,27-10.3,40.7-15.1c25.7-9.1,52-17.4,79.2-19.9c25.3-2.3,51.3-1.9,76.7-1.4
						c24,0.4,48,1.5,71.7,5.2c40.9,6.4,86.701,19.8,112.4,54.8c14.301,19.6,34.9,30,57.801,36.7c22,6.4,45.398,9.8,66.299,19.7
						c4.9,2.3,10.801,1.4,13.701-3.6c2.6-4.4,1.299-11.4-3.602-13.7c-21-9.8-43.6-14.1-65.799-20.2c-18.4-5.1-38.701-11.9-50.5-28
						c-27.301-37.3-71-55.4-115.301-63.4c-48.5-8.7-98.499-8.8-147.6-7.2c-28.5,0.9-56.201,6.7-83.1,15.6c-26,8.5-52,17.9-77.2,28.5
						c-11.6,4.8-22.5,10.5-31.8,19.1c-9.098,8.6-15.798,19.3-22.9,29.5c-5.697,8.3-11.397,16.2-18.897,23.1
						C71.686-173.952,62.088-168.752,51.789-165.252L51.789-165.252z"/>
				</g>
			</g>
			<g opacity="0.1">
				<g>
					<path d="M54.688-181.952c-12.399,3.5-7.1,22.8,5.3,19.3c19.9-5.6,36.5-17.3,52.7-29.7c15.202-11.6,30.702-23.9,49.103-29.9
						c12.197-4,7-23.3-5.303-19.3c-19.8,6.4-36.3,18.5-52.7,31C88.688-199.052,73.188-187.152,54.688-181.952L54.688-181.952z"/>
				</g>
			</g>
			<g opacity="0.1">
				<g>
					<path d="M43.488-184.352c-3.199,4.4-0.8,11.1,3.603,13.8c5.098,2.9,10.5,0.8,13.697-3.6c29-40.5,80.503-58.8,125.603-74.4
						c5.2-1.8,8.5-6.8,7-12.3c-1.402-5-7.1-8.8-12.3-7C130.388-250.352,75.988-229.552,43.488-184.352L43.488-184.352z"/>
				</g>
			</g>
			<g opacity="0.1">
				<g>
					<path d="M48.588-126.152c-5.5,0.4-10,4.2-9.998,10c0,5.1,4.6,10.4,10,10c12.697-1,25.397,3.8,37.397,7.5
						c6.7,2.1,13.5,4.3,20.4,5.7c7.2,1.4,14.1,2.8,21,5.2c13.3,4.7,26,11.2,39.7,15c6.899,1.9,13.702,4.1,20.6,6.2
						c10,3,20,5.5,30.2,7.4c17.098,3.1,34.4,5.3,51.7,7.6c26.1,3.4,51.8,8.2,78.1,4.1c50.1-7.8,94-37,137.5-61
						c21.5-11.8,43.5-23.4,67-30.5c13.699-4.2,27.5-6.7,41.801-7.4c15.299-0.7,30.6-0.2,45.898-0.2c12.9,0,12.9-20,0-20
						c-32.5,0-64.5-1-95.799,9.2c-48.801,15.9-90.9,46.2-136.701,68.6c-20.898,10.1-43.299,19.5-66.6,22.2
						c-25.6,3-51.399-2.4-76.699-5.8c-25.101-3.4-50.4-7.2-74.9-14.8c-8.897-2.7-18-5-26.7-8.2c-13.1-4.9-25.8-11.3-39.5-14.7
						c-6.598-1.6-13.2-2.6-19.7-4.4c-6.1-1.7-12.1-3.6-18.1-5.4C73.489-123.352,60.989-127.152,48.588-126.152L48.588-126.152z"/>
				</g>
			</g>
			<g opacity="0.1">
				<g>
					<path d="M534.788-173.952c-5,2.2-6.1,9.4-3.699,13.7c3,5.1,8.699,5.8,13.699,3.6c13.201-5.8,27.201-14.1,34.801-26.8
						c7.799-13.2,6.699-29.1-2.1-41.6c-8.5-11.9-21.5-18.2-35.102-22.7c-11.398-3.8-24.6-6.5-34.199-14.1c-4.199-3.4-9.9-4.2-14.1,0
						c-3.5,3.5-4.301,10.7,0,14.1c10.1,7.9,21.699,12.3,33.799,16.2c9.9,3.2,21.602,6,29.301,13.3c7.9,7.5,10.4,17.3,4.5,25.7
						C555.388-183.552,544.489-178.152,534.788-173.952L534.788-173.952z"/>
				</g>
			</g>
			<g opacity="0.1">
				<g>
					<path d="M445.089-275.352c-5.4-0.6-10,5.1-10,9.9c0,5.9,4.6,9.4,10,10c6.6,0.8,15.9,3.2,23.199,5.7
						c8.5,2.9,16.801,6.6,24.6,11.1c13.701,7.9,27.9,18.4,34.301,33.3c1.301,3.1,2.9,7.9,3.199,10.5c0.4,4.1,0.5,6.2-0.398,9.3
						c-1.4,4.9-4.102,8.4-9.5,12.6c-10.301,8-26,12.7-39.5,17.2c-12.201,4.1-7,23.4,5.299,19.3c17.301-5.7,36.1-11.3,50-23.6
						c15.4-13.6,17.5-33.4,9.701-51.8c-8.201-19.4-24.9-33.7-43-43.9C485.089-265.852,465.489-272.952,445.089-275.352
						L445.089-275.352z"/>
				</g>
			</g>
			<g opacity="0.1">
				<g>
					<path d="M453.788-135.552c-4.199,3.5-3.5,10.6,0,14.2c4.1,4.1,9.9,3.4,14.1,0c33.4-27.3,72.5-78.3,47.201-122.6
						c-5.801,3.4-11.5,6.7-17.301,10.1c6.9,10.9,11.201,22.1,9.9,35.1c-1.301,12.1-5.9,24.4-9.199,36.2
						c6.398,1.8,12.898,3.5,19.299,5.3c4.1-19.3,14.1-36.8,14.4-57c-6.199,1.6-12.4,3.3-18.6,5c7.5,10.9,9.5,23.4,11.299,36.2
						c1.201,8.6,14.701,9.7,18.301,2.4c5.301-10.9,9.4-22.1,11.5-34c-6.4,0-12.9,0-19.301,0c3.5,8.8,7,17.5,10.5,26.3
						c4.102,10.3,18.801,9,19.602-2.7c0-1.2,2-5.4,2.799-7.4c1.301-3.3,2.201-6.5,2.4-10.1c-5.699,2.4-11.4,4.7-17.1,7.1
						c5,4.7,13.699,8.8,17.5,12.3c7,6.4,16,1.3,17.1-7.1c0.199-1.4,1.6-6.1,1.801-8.8c-5.701,2.4-11.4,4.7-17.102,7.1
						c10.9,10.3,25.201,12.9,39.5,14.9c5.4,0.8,10.701-1.2,12.301-7c1.301-4.7-1.6-11.5-7-12.3c-10.301-1.4-22.801-2.2-30.699-9.7
						c-6.701-6.2-16.5-1.5-17.102,7.1c-0.299,2.9-1.398,5.9-1.799,8.8c5.699-2.4,11.4-4.7,17.1-7.1c-5-4.7-13.699-8.8-17.5-12.3
						c-6.699-6.1-16.5-1.6-17.1,7.1c0,1.2-2,5.4-2.801,7.4c-1.299,3.3-2.199,6.5-2.4,10.1c6.5-0.9,13.102-1.8,19.602-2.7
						c-3.5-8.8-7-17.5-10.5-26.3c-1.602-4.2-4.801-7.3-9.602-7.3c-4.1,0-8.799,3-9.6,7.3c-1.799,10.2-4.9,19.9-9.5,29.2
						c6.1,0.8,12.201,1.6,18.301,2.4c-2.1-14.5-4.801-28.7-13.301-41c-5.5-8.1-18.4-5.4-18.6,5c-0.301,18.1-10,34.3-13.699,51.7
						c-2.602,12.5,15.799,17.8,19.299,5.3c4-14.4,9.5-29,10.1-44.1c0.701-15.5-4.6-29.7-12.799-42.6
						c-6.9-10.8-23.701-1.1-17.301,10.1c9.9,17.3,4.4,37.2-5.1,53.6C482.788-163.152,469.188-148.152,453.788-135.552
						L453.788-135.552z"/>
				</g>
			</g>
			<g opacity="0.1">
				<g>
					<path d="M104.188-165.352c-0.1-12.8-20.1-12.9-20.002,0c0.303,21.4,8.5,44.7,27.803,56c11.199,6.5,21.199-10.8,10.1-17.3
						C108.888-134.252,104.288-151.052,104.188-165.352L104.188-165.352z"/>
				</g>
			</g>
			<g opacity="0.1">
				<g>
					<path d="M132.289-182.852c0-12.9-20-12.9-20,0c0,25.8-2.5,53.5,17,73.7c8.899,9.3,23.1-4.8,14.1-14.1
						C128.388-138.752,132.186-163.152,132.289-182.852L132.289-182.852z"/>
				</g>
			</g>
			<g opacity="0.1">
				<g>
					<path d="M126.688-222.352c4-12.3-15.3-17.5-19.3-5.3c-18.8,57.5,7.601,142.2,73.7,154.4c5.399,1,10.8-1.4,12.3-7
						c1.3-4.9-1.6-11.3-7-12.3C131.088-102.752,110.988-174.352,126.688-222.352L126.688-222.352z"/>
				</g>
			</g>
			<g opacity="0.1">
				<g>
					<path d="M71.388-117.452c-12.8,0.9-12.9,20.9,0,20.1c22.2-1.4,45.9-8.6,67.9-2.2c10.699,3.1,20.5,8.3,30.6,12.8
						c11,5,22.1,9.5,33.9,12.3c50.899,12,103.5,7,155.3,6.9c12.9,0,12.9-20,0-20c-50.7,0.1-103.9,6.4-153.5-7.1
						c-10.8-3-21-7.3-31.2-12c-10.6-4.9-21.5-10.6-33-13.1C117.888-124.952,94.888-118.952,71.388-117.452L71.388-117.452z"/>
				</g>
			</g>
			<path fill="none" stroke="#000000" stroke-miterlimit="10" d="M706.489,172.348c-8.5-5.8-29.102-7.2-40.4-10.6
				c-15.4-4.7-30.9-9.3-46.1-15.3c-26.801-10.6-37.801,16-61.701,1.3c-28.299-17.4-23.6,28.399-56.799,9.1
				c-15.301-8.899-33.102,4.3-50.201,2.101c-51.5-6.798-55.699-6.698-74.6-9.198c-44.3-6-78.701,1.598-128.5,4.897
				c-43.3,2.9-70.7-0.1-112.8,8.4c-35.101,7.1-38.7,24.1-62.2,48.2"/>
			<path fill="none" stroke="#000000" stroke-miterlimit="10" d="M725.888,168.748c-87.699,32.2-123.199-5.601-142.799-14
				c-31-13.3-53.4,12.7-87.5,12.7c-75.5,0-62.701-6.9-102.201-10.601c-52.299-4.9-71.902-4.4-114.599,0
				c-40.101,4.101-93.9-14.4-131.2,2.2c-25.7,11.4-14.4-43.2-27.4-19.7c-15.899,28.7-27.5,41.2-59.3,52.2"/>
			<path fill="none" stroke="#000000" stroke-miterlimit="10" d="M47.979,187.536c70.5-24.102,132.111,15.908,202.508,22.51
				c28.9,2.7,60.601,4.902,89.4,0.8c32.7-4.598,62.601-20.8,91.701-36.698c41.299-22.702,52.9,0.198,99.5-6.5
				c19.799-2.8,41.1-20.1,61.4-19.899c18.398,0.2,56.898,16.2,73.398,17.5"/>
			<path fill="none" stroke="#000000" stroke-miterlimit="10" d="M73.188,189.748c11.4,0,31.801-5.3,26.4,11
				c-2.4,7.5-19.801,14.2-26.4,17.1"/>
			<path fill="none" stroke="#000000" stroke-miterlimit="10" d="M396.188,187.147c-24.1-0.199-49-2-73.3-3.5
				c-34.2-2.098-47.1,0.402-81.5-8.897c-37.598-10.202,68.7-14.5,111.8-13.603c39.1,0.801,71.5-0.3,76.1,12.301
				C433.089,183.848,436.589,186.75,396.188,187.147"/>
			<path fill="none" stroke="#000000" stroke-miterlimit="10" d="M515.388,205.348c-5.799,2,50.701-40.6,44.5-37.8
				c-71.799,33-200.6,15.7-283.099,7.7c-49-4.7-96.101-10-118.601-6.601c-43.6,6.601-49.1,37.2-84.899,60.801"/>
			<path fill="none" stroke="#000000" stroke-miterlimit="10" d="M659.089,181.048c-31.701,1-99.6-17.4-119.301,19.3"/>
			<path fill="none" stroke="#000000" stroke-miterlimit="10" d="M141.95,96.151c-4.303,5.8,35.638,30.497,16.338,60.697"/>
			<path fill="none" stroke="#000000" stroke-miterlimit="10" d="M215.088,165.647c-9.5,13.4-27-19.399-43.101-14.7"/>
			<path fill="none" stroke="#000000" stroke-miterlimit="10" d="M266.289,116.048c9.5-0.3,17.197,54.4,25,49.3"/>
			<path fill="none" stroke="#000000" stroke-miterlimit="10" d="M331.699,135.303c1.5,12.9-9.91,23.445-14.91,35.145"/>
			<path fill="none" stroke="#000000" stroke-miterlimit="10" d="M377.437,113.74c5.9,17.402-20.948,43.708-33.348,49.208"/>
			<path fill="none" stroke="#000000" stroke-miterlimit="10" d="M424.888,133.548c-3.1,10.1-11.5,18.6-21.5,22.6"/>
			<path fill="none" stroke="#000000" stroke-miterlimit="10" d="M471.788,139.048c-4.699,10.9-23.199,19.9-33.9,22.7"/>
			<path fill="none" stroke="#000000" stroke-miterlimit="10" d="M471.989,119.75c-7.801,7.5,14.199,53.198,20.6,47.897"/>
			<path fill="none" stroke="#000000" stroke-miterlimit="10" d="M540.188,141.548c6.4-5.1,14-9.3,18.1-15.1"/>
			<path fill="none" stroke="#000000" stroke-miterlimit="10" d="M587.989,137.448c-3.301,10.4-14.5,10.9-24,12.9"/>
			<path fill="none" stroke="#000000" stroke-miterlimit="10" d="M619.788,142.548c-4.699,8.5-12,14.6-21.1,17.6"/>
			<path fill="none" stroke="#000000" stroke-miterlimit="10" d="M264.486,116.248c2.103-13.8,7.902,34.1,20.303,28.7"/>
			<path fill="none" stroke="#000000" stroke-miterlimit="10" d="M304.088,131.548c-1.5,13.8-6.103,24.9-12.3,37.2"/>
			<path fill="none" stroke="#000000" stroke-miterlimit="10" d="M248.186,125.748c5.902-13.5,3.902,35.5,5.103,22"/>
			<path fill="none" stroke="#000000" stroke-miterlimit="10" d="M228.486,160.248c-3.798,8.899-7.697-38.7-7.897-28.7"/>
			<path fill="none" stroke="#000000" stroke-miterlimit="10" d="M338.988,220.93c-6.697-11.5-17.3-23.981-30.3-26.481"/>
			<path fill="none" stroke="#000000" stroke-miterlimit="10" d="M412.489,190.348c11.799-4.5,26.5,0.9,38.699,2.9"/>
			<path fill="none" stroke="#000000" stroke-miterlimit="10" d="M505.989,184.548c-13.701-8.7-32.801-10.8-49.301-13.5"/>
			<path fill="none" stroke="#000000" stroke-miterlimit="10" d="M536.288,216.048c-10-8.6-17-11.2-29.799-14"/>
			<path fill="none" stroke="#000000" stroke-miterlimit="10" d="M571.388,173.948c14.602-0.801,32.102,8.399,42.102,19.3"/>
			<g display="none">
				<g display="inline">
					<path d="M328.289,166.348c-5.4,0.7-10,4-9.9,9.998c0,4.9,4.6,10.7,10,10c6.2-0.8,12.5-1.5,18.8-1.5
						c2.1,0,4.301,0.103,6.4,0.302c3,0.301-1.902-0.399,0.699,0.101c0.398,0.1,0.898,0.2,1.398,0.3c12.5,2.8,17.902-16.5,5.303-19.3
						C350.288,163.848,339.088,164.948,328.289,166.348L328.289,166.348z"/>
				</g>
			</g>
			<g opacity="0.1">
				<g>
					<path d="M43.789,229.248c-5.301,1-8.301,7.399-6.902,12.399c1.5,5.601,7,8,12.3,7c20.9-4.1,38.7-22.199,52-37.699
						c14.2-16.603,27.4-34.902,35.7-55.301c2-5.102-2.2-11.001-7-12.302c-5.7-1.6-10.2,2-12.3,7c-0.4,1-0.4,1,0,0
						c-0.3,0.6-0.5,1.1-0.8,1.7c-0.5,0.9-0.902,1.702-1.302,2.602c-0.898,1.9-1.898,3.801-2.898,5.601c-2.3,4.1-4.7,8.2-7.3,12.1
						c-5.601,8.5-11.7,16.8-18.4,24.5s-14.401,16-22.3,21.9c-3.598,2.7-7.4,5.3-11.4,7.3
						C50.388,227.448,48.088,228.448,43.789,229.248L43.789,229.248z"/>
				</g>
			</g>
			<g opacity="0.1">
				<g>
					<path d="M44.515,250.939c-12.1,4.1-23.1,20.034,13.524,12.123c2.766-19.549-4.362-8.053-0.622,4.377
						c11.2-4.5,21.6-10.801,30.3-19.2c7.798-7.5,14.2-16.3,20.4-25.2c6.698-9.6,12.8-19.8,21.697-27.5
						c8.301-7.1,18.301-11.702,28.4-15.6c12.3-4.801,24.5-10.4,37.6-12.7c11-1.9,22.5-1.7,33.5,0c25.803,4,50.7,11.2,77,11.3
						c0-6.7,0-13.3,0-20c-4,0.1-7.798,1.6-9.897,5.2c-2.798,4.899-1,11.598,4.1,14.2c3.4,1.699,7.2,2.699,10.9,3.699
						c13.898,3.601,28.098,6.4,42.197,9.101c26.701,5,67.574-1.293,94.574,1.807c26.6,3.1,39.526,15.894,66.327,15.093
						c11.301-0.3,22.699-1.199,33.801-3.5c8.1-1.699,16.799-4.199,23.398-9.199c7.102-5.4,12.201-12.5,12.301-21.801
						c0.1-9.3-4.4-18.1-9.699-25.5c-5.801,3.4-11.5,6.7-17.301,10.1c7.199,9.6,16.4,16.7,28,20.3c10.4,3.2,21.4,3.9,32.199,3.9
						c21.4-0.101,15.62,8.177,32.348-4.632c2.563-7.898,43.854,11.632,46.754,6.632c2.5-4.4,1.299-11.4-3.602-13.7
						c-2.828-14.746-44.5-9-67.5-8.5c-18.1,0.3-39.398,1.1-50.898-14.3c-3.301-4.4-8.602-6.6-13.701-3.6
						c-4.4,2.6-6.799,9.3-3.6,13.7c1.801,2.4,3.4,4.9,4.801,7.6c0.299,0.603,0.6,1.2,0.898,1.801c1.102,2.401-0.699-1.801-0.1-0.198
						c0.301,1,0.6,1.897,0.9,2.897c0.301,1.103,0.699,4.902,0.301,0.801c0.1,1,0.199,1.899,0.1,2.899c-0.201,2.7,0.699-2.7-0.1,0.4
						c-0.201,0.8-0.4,1.5-0.701,2.2c1.5-3.801,0.201-0.7-0.4,0.199c-1.398,2.198,1.9-1.901-0.299,0.398c-0.701,0.7-1.4,1.398-2.1,2
						c-1.201,1,2.398-1.7,0.5-0.398c-0.4,0.301-0.701,0.5-1,0.698c-1.701,1.099-3.602,2.099-5.5,2.9c3.5-1.5-0.602,0.198-1.5,0.5
						c-1.102,0.3-2.201,0.698-3.301,1c-4.4,1.198-8.9,2.1-13.5,2.8c-2.801,0.5,1.6-0.098-0.301,0.102
						c-0.6,0.099-1.199,0.099-1.799,0.198c-1.301,0.099-2.5,0.298-3.801,0.4c-2.699,0.202-5.299,0.5-8,0.6
						c-12.5,0.7-24.9,0.603-37.4,0c-13.799-0.698-27.6-1.8-41.398-3.3c-7.102-0.8-14.102-1.602-21.102-2.5
						c-1.1-0.098-2.199-0.298-3.299-0.398c-2.801-0.401,2.1,0.297-0.701-0.102c-1.699-0.2-3.299-0.5-5-0.7
						c-3.199-0.397-6.5-0.897-9.799-1.397c-23.302-3.5-46.501-7.603-69.501-12.603c-6.8-1.5-13.601-3-20.3-4.897
						c-1.601-0.5-7.2-2.7-2.7-0.7c-0.202-0.101-0.402-0.2-0.603-0.3c-0.897-0.603,2.5,2.098,1.803,1.397c3,3.2,5.197,9.7-0.103,13.9
						c-0.397,0.298-4.6,2.5-4,2.397c-4.397,0.603-2.897,0.301-1.897,0.301c12.897-0.301,12.897-19.898,0-20
						c-4.103,0-8.2-0.099-12.303-0.398c-24.8-1.8-44.341-4.53-69.039-6.33c-12.7-0.9-29.961-5.371-42.359-2.07
						c-12.3,3.298-24.5,8.6-36.3,13.6c-11.603,4.8-22.5,10.5-31.8,19.1c-9.101,8.603-15.801,19.302-22.9,29.5
						c-5.7,8.302-11.4,16.202-18.9,23.103C64.415,242.239,54.814,247.439,44.515,250.939L44.515,250.939z"/>
				</g>
			</g>
			<g opacity="0.1">
				<g>
					<path d="M59.988,188.848c-12.399,3.3-7.199,22.601,5.304,19.202c41.198-11.098,83.599-17,125.898-22.2
						c18.7-2.3,37.4-4.397,56-7.198c13.2-1.899,26.5-4,39.2-8c12.3-3.901,7-23.202-5.3-19.302c-13.2,4.099-26.9,6.2-40.5,8.2
						c-18,2.598-36.103,4.7-54.103,6.898C143.988,171.748,101.388,177.647,59.988,188.848L59.988,188.848z"/>
				</g>
			</g>
			<g opacity="0.1">
				<g>
					<path d="M95.388,205.448c-3.2,4.399-0.8,11.1,3.6,13.8c5.101,2.899,10.5,0.798,13.7-3.601c14.5-20.1,42.298-29.3,66.4-35.399
						c26.6-6.8,54.2-10.3,80.3-19.2c12.098-4.2,6.9-23.5-5.3-19.3c-27.3,9.3-56.4,12.7-84.2,20.2
						C141.688,169.548,113.088,180.948,95.388,205.448L95.388,205.448z"/>
				</g>
			</g>
			<g opacity="0.1">
				<g>
					<path d="M131.188,140.148c-5.5,0.5-10,4.1-10.196,10.098c0,5.1,4.603,10.5,10,10c1-0.099,1.9-0.2,2.9-0.2
						c2.598-0.102-0.1,0.898-3.8-1.3c-1.5-2-3.103-4-4.603-6l0,0c0.902-3.2,1.702-6.5,2.603-9.7c1-1.2,2.3-1.7,3.7-2.2
						c-0.202,0.1-0.402,0.1-0.603,0.2c-0.5,0.2-1,0.3-1.5,0.5c-1.3,0.5-2.701,0.9-4.1,1.3c-3.5,1.1-7.402,2.2-10.602,4.2
						c-5.5,3.399-8.601,9.798-5,15.898c3.3,5.699,10.199,6,15.899,7.302c13.8,3.1,26.5,9.3,39.7,14.3c9.202,3.5,18.9,6.5,28.6,8.602
						c11.103,2.4,22.103,2.7,33.301,2.101c15.199-0.902,30.302-1.402,45.5-0.8c27.399,1.199,54.602,6.897,82,6.5
						c55-0.7,105.1-22.2,156.2-39.801c13.6-4.701,27.199-9.001,41-12.702c10.6-2.8,19.6-3.6,30.9-1.7
						c23,3.9,45.799,13.3,69.299,13.5c12.9,0.1,12.9-19.9,0-20c-31.398-0.4-62.699-19.7-95.199-13.6c-13.5,2.5-26.9,7.1-40,11.4
						s-26.1,9-39.1,13.7c-24.9,9-49.9,18.198-75.9,23.698c-27.3,5.802-48.901-3.199-76.6-6.599c-22.8-2.898-51.3,4.802-74.3,5.2
						c-12,0.2-24.103,1.598-36.103,1.398c-2.6,0-5.2-0.099-7.8-0.398c-0.6-0.098-1.2-0.098-1.8-0.2c-2.298-0.3,2.399,0.4,0.1,0
						c-1.298-0.198-2.598-0.397-3.897-0.698c-8.7-1.699-17.5-4.199-25.803-7.199c-13.197-4.801-25.897-11.301-39.5-14.9
						c-3.6-0.9-7.3-1.5-11-2.3c-0.697-0.1-1.397-0.3-2-0.5c-1.5-0.5,2.402,1.5,2.603,1.7c3.202,5,3.202,9.2,0.1,12.5
						c0-0.101,0.101-0.101,0.2-0.2c-2.7,2.098-1.4,1.098-0.7,0.7c2.7-1.4-1.6,0.5,0.9-0.4c4.5-1.7,9.399-2.5,13.6-4.7
						c6.9-3.5,6.7-13.6,0.2-17.5C137.488,139.648,134.291,139.848,131.188,140.148L131.188,140.148z"/>
				</g>
			</g>
			<g opacity="0.1">
				<g>
					<path d="M490.688,174.348c-5,2.2-6,9.4-3.6,13.494c3,5.103,8.699,5.702,13.699,3.603c6.9-2.9,13.801-5.701,20.5-8.9
						c4.9-2.301,10.4-4.9,14.1-9c5.602-6.301,4.602-14.7-2.199-19.6c-5.9-4.2-15.1-4.5-22-5c-14.199-1-25.6-1.8-38.5-4.5
						c-6.4-1.3-11.699-1.6-18.199-0.6c-5.4,0.902-8.301,7.5-7,12.3c1.6,5.7,6.898,7.801,12.299,7c2.6-0.397-1.9,0.2-0.299,0
						c0.5,0,1.1-0.1,1.6-0.1c0.9-0.1,1.799-0.1,2.699,0c1.5,0.202-3-0.6,0.301,0.1c1,0.202,1.9,0.402,2.799,0.603
						c9.4,2,18.9,3.202,28.5,4.1c8,0.7,16.5,0.5,24.4,2.4c1.201,0.3,2.4,0.5,3.5,1c-1.4-0.5-1.6-0.603-0.699-0.103
						c-1.6-1-2.701-2.5-3.201-4.397c-0.6-2.099-0.299-4.099,0.701-5.9c-0.5,0.802-0.301,0.5,0.699-0.897c-0.4,0.5-2,1.6,0.1,0.1
						C511.888,166.348,500.788,170.048,490.688,174.348L490.688,174.348z"/>
				</g>
			</g>
			<g opacity="0.1">
				<g>
					<path d="M370.895,135.653c-5.5-0.6-10,5-9.7,9.998c0,5.9,4.6,9.4,10,10c21.2,2.5,42.6,8.599,61.6,18.4
						c4,2,7.9,4.203,11.701,6.6c1.898,1.104,3.699,2.303,5.5,3.604c0.898,0.6,1.699,1.199,2.5,1.799
						c-0.701-0.6-0.602-0.5,0.299,0.201c2.4,2,4.801,4.098,6.801,6.396c0.299,0.4,1.799,2.4,0.199,0.201
						c0.4,0.5-44.202-1.854-43.903-1.354c0.5,0.801,46.604,6.756,45.503,3.555c0.102,0.5,0.301,0.9,0.4,1.4
						c0.301,1.801-0.1-2.699-0.199-1c-0.1,1.697,0.699-2.703,0.1-1.102c0.801-1.701,1-2.201,0.5-1.301
						c1.699-2.602,1.199-1.402,0.5-0.801c2.4-2,1.301-0.898,0.5-0.5c-1.699,0.9,2.4-0.801,0.4-0.199
						c-0.4,0.1-0.801,0.199-1.201,0.301c-0.6,0.102-2.799,0.402-0.1,0.102c-0.6,0.098-1.299,0.098-1.9,0.197
						c-1,0.104-1.898,0.201-2.898,0.303c-1.602,0.197-3.201,0.297-4.801,0.398c-0.9,0-1.9,0.098-2.801,0
						c-0.898-0.098-1.6-0.5,2.102,0.299c-1-0.201-0.5-0.6,2,0.9c9.5,5.898,3.5,15.199,0.398,16.699
						c-1.299,0.6-2.6,0.898-0.199,0.199c1.1-0.398,2.301-0.699,3.4-1c20.9-5.598,42.4-9.398,63.699-13.199c5.5-1,11-2,16.6-2.898
						c2.5-0.398,4.9-0.801,7.4-1.201c1-0.098,2-0.297,3-0.396c0.5-0.102,0.9-0.102,1.4-0.201c1.9-0.299-2.699,0.301-0.9,0.1
						c2.5-0.299,5.1-0.799,7.6-0.699c1.9,0-2.699-0.699-1.699-0.301c-13.1-5.199-7.5-14.699-2.5-17.799
						c-0.1,0.1-0.199,0.1-0.301,0.199c-1.699,0.801,2.801-1.199,1.102-0.5c-0.602,0.201-1.102,0.4-1.701,0.6
						c-12.199,4.102-7,23.402,5.301,19.301c3.799-1.301,7.4-2.699,9.6-6.199c4.5-7.297-1.9-15.199-9.6-15.398
						c-7.4-0.201-15,1.602-22.201,2.799c-11.6,1.803-23,3.902-34.5,6.104c-11.398,2.199-22.799,4.5-34.199,7
						c-7.1,1.598-14.6,2.797-21.199,5.896c-8.801,4-6.5,16.201,1.799,19c2.701,0.902,12.799-15.504,15.5-15.701
						c6-0.402,17.636,5.9,11.301,12.402c6.4-3.701,9.699-11.102,7.5-18.301c-4.701-15.201-22.5-25.701-35.701-32.602
						C421.795,145.853,396.695,138.653,370.895,135.653L370.895,135.653z"/>
				</g>
			</g>
			<g opacity="0.1">
				<g>
					<path d="M407.489,181.748c-10.801,7-0.801,24.3,10.5,17.304c15.199-9.798,30.898-7.6,48.199-10.9
						c6.4-1.199,14.199-5.1,15.4-12.3c1.5-9.1-3-16.8-8.1-24c-5.201,4-10.5,8.101-15.701,12.101
						c5.701,7.199,12.701,13.199,22.1,14.399c2.201,0.3,4.801,0.101,6.9-0.7c1.201-0.397,2.4-0.897,3.6-1.5c2.301-1.1,0,0.801-4,0.9
						c-1.6-0.5-3.299-0.9-5-1.4l0,0c-1.5-2-3.1-4-4.6-6c-1.299-4.199,0.701-6.598-0.4-3.897c-0.299,0.601-0.5,1.3-0.799,2
						c-1.201,3-2.301,6.098-3.4,9.198c6.4,1.802,12.9,3.5,19.301,5.302c0.199-0.798,1.5-4.599,1.1-3.899c1.199-2.301-1.5,1,0-0.301
						c1.4-1.3-2.201,1.5-0.301,0.2c0.1-0.103,2-1.402,2.6-2.103c4.201-5.098,4.5-11,4.602-17.397
						c-5.701,2.401-11.4,4.702-17.102,7.101c4.5,4.699,10.5,7.699,17.102,7c2.799-0.301,5.199-1,7.799-1.699
						c1.201-0.301,2.301,0.099,0.1-0.102c-3.299-0.3-5.5-1.699-6.5-4.199c0,0.401,0.102,0.701,0.201,1.102
						c1.9,8.898,13.9,9.298,18.299,2.398c2.701-4.199,0.4,0.098-4.199,0.199c2.9-0.102,5-1.199,7.199-3
						c2.701-2.102,3.201-6,3.801-9.102c-6.1,0.8-12.199,1.6-18.301,2.399c3,5.2,8.201,8.3,14.301,7.9c2.4-0.101,4.6-0.7,7-1.2
						c2.1-0.4-0.6,0-1.199-0.2c-1.102-0.399-2-1-2.801-1.7c5.301,9.2,17.801,4.5,18.6-5c-0.1,1.402,1.201-2.199,1.201-2.199
						c0.6-1.198,1.299-2.5,1.898-3.801c1.5-3.399,2.4-6.1,2.701-9.8c-5,2.8-10,5.7-15,8.6c5.9,4.5,13.4,6.6,19.299,11.1
						c4.801,3.7,13.801,0,14.701-6c0.6-3.6,2-6.9,2.299-10.6c-5.699,2.4-11.398,4.7-17.1,7.1c13.301,10.3,29.4,12.1,45.701,14
						c5.398,0.6,10-5,10-10c0-5.9-4.602-9.4-10-10c-10.102-1.2-23.201-1.7-31.602-8.2c-7.1-5.5-16.299-2.1-17.1,7.1
						c-0.199,1.8-1.299,3.5-1.6,5.3c4.9-2,9.801-4,14.699-6c-5.898-4.5-13.398-6.6-19.299-11.1c-6.6-5.1-14.4,2-15,8.6
						c0.1-1.4-1.201,2.2-1.201,2.2c-0.6,1.2-1.299,2.5-1.898,3.8c-1.5,3.4-2.4,6.101-2.701,9.8c6.201-1.6,12.4-3.3,18.6-5
						c-3-5.2-8.199-8.3-14.299-7.9c-2.4,0.1-4.6,0.7-7,1.2c-2.1,0.4,0.6,0,1.199,0.2c1.1,0.4,2,1,2.801,1.7
						c-4.1-7.1-16.5-6.3-18.301,2.4c-0.199,1.2-0.4,2.4-0.699,3.5c-0.5,1.9,0.199,0.9,2.1-3.2c1.5-0.9,2.9-1.7,4.4-2.6
						c5.5-1.1,0.1-0.2-0.801,0.1c-2.299,0.8-3,1.3-4.799,2.8c-2.102,1.7-3.602,4.2-5,6.399c6.1,0.797,12.199,1.599,18.299,2.398
						c-1.799-8-8.199-12.3-16.299-11.1c-2.102,0.3-4.201,1.2-6.301,1.6c0.9-0.1,0.301,0.1-0.5-0.2c1.301,0.5-1.5-1.9-0.699-1.1
						c-6.102-6.4-17-1.4-17.102,7.1c0,2,0.102,4-0.199,6c0.199-1.897-1.4,1.402,0.4-1.397c1.1-1.801,0.199-0.902,2.1-2.103
						c-0.9,0.603-1.801,1.302-2.699,2c-4.102,3.202-5.9,8.802-7.102,13.603c-3.299,12.6,15.201,17.4,19.301,5.3
						c1.4-4,3.199-8,4.5-12.101c3-9.5-6.9-15.199-14.801-11.802c-2.299,1,0.801-0.3,0.301-0.1c-1,0.3-2.5,0.202,0.6,0.1
						c-1,0.099-2.9-0.5-0.1,0.2c-2.6-0.7,0.6,0.598-1.1-0.3c-0.4-0.2-2.801-1.802-2.1-1.2c-2.602-2.2-4.801-4.7-6.9-7.3
						c-7.1-8.8-22.301,2.9-15.701,12.1c1.5,2,3,4.2,4.201,6.4c0.5,0.897,1,1.8,1.4,2.698c-0.5-1-0.5-1-0.102,0
						c0.201,0.602,0.4,1.302,0.5,2c-0.199-1.599-0.199-1.898-0.199-0.898c0.199-1.8,0.1-2.3,1.5-3.602
						c-1.4,1.203,2.1-1.297,0.4-0.398c-0.9,0.5-0.701,0.398,0.799-0.3c-1,0.397-2.1,0.698-3.199,0.897
						c-0.801,0.2-1.5,0.301-2.301,0.4c1.301-0.1,1.4-0.1,0.201,0c-1.5,0.1-3,0.298-4.5,0.4
						C438.188,170.848,421.688,172.548,407.489,181.748L407.489,181.748z"/>
				</g>
			</g>
			<g opacity="0.1">
				<g>
					<path d="M122.289,164.647c12.899,0,12.899-20,0-20C109.388,144.648,109.388,164.647,122.289,164.647L122.289,164.647z"/>
				</g>
			</g>
			<g opacity="0.1">
				<g>
					<path d="M71.388,220.147c-5.4,0.4-10,4.2-9.804,10.404c0,5.1,4.6,10.4,10,10c11.201-0.8,20.3-6.3,26.1-16.1
						c4.2-7.103,6.4-15.2,10.9-22c0.3-0.402,2.398-3,0.699-1.103c0.701-0.698,1.301-1.5,2.101-2.198c2-1.802-0.399,0.099,1-0.802
						c0.901-0.6,1.8-1.202,2.8-1.6c-2.199,0.901,1.301-0.298,1.7-0.4c0.601-0.198,1.2-0.298,1.8-0.397c-1.098,0.1-1,0.1,0.301,0
						c3.199-0.202,6.302,0.098,9.5,0.397c16.102,1.302,31.899-3.598,48-3.897c12.5-0.301,24.699,3.3,37.302,3.199
						c13.3-0.102,26.5-1.199,39.698-2.5c35-3.401,70-8.302,105-12.302c34.299-4,68.899-7.897,103.399-7.5
						c6.801,0,13.701,0.298,20.5,0.9c1.801,0.202,3.5,0.401,5.201,0.6c2.5,0.302-2.201-0.397,0.199,0c0.701,0.103,1.4,0.2,2.1,0.302
						c2.5,0.398,5.102,0.898,7.602,1.5c2.398,0.599,4.898,1.301,7.199,2.198c3.1,1.2-1.199-0.6,1,0.4c0.9,0.401,1.801,0.8,2.6,1.3
						c0.9,0.5,1.801,1.098,2.701,1.7c1.398,1.1-2-1.603-0.701-0.5c0.301,0.198,0.6,0.5,0.9,0.8c0.5,0.602,1.1,1.2,1.6,1.8
						c-2.299-3-0.6-0.6-0.1,0.2c6.4,11.2,23.699,1.098,17.301-10.102c-6.701-11.898-21.602-16.398-34.201-18.5
						c-19.199-3.198-38.799-3.099-58.199-2.198c-69.201,3.1-137.401,16.698-206.401,21c-10.6,0.698-21.5,1.3-32.1,0
						c3.8,0.5,0,0-0.9-0.2c-1.199-0.3-2.3-0.602-3.5-0.8c-6.5-1.302-13.199-1.802-19.8-1.5c-13.2,0.698-26.3,3.8-39.5,4
						c-10.598,0.198-20.298-1.902-30.399,2.897c-7,3.301-12.398,9.5-15.898,16.301c-3.102,5.8-5.102,12.199-8.5,17.899
						c-0.5,0.8-1,1.7-1.602,2.5c-1.398,2,1.5-1.598-0.198,0.3c-0.601,0.7-3.802,3.301-1.7,1.9c-0.598,0.4-1.2,0.9-1.9,1.2
						c-2.3,1.098,2-0.601-0.5,0.2c-0.798,0.199-1.598,0.399-2.397,0.6C69.488,220.548,74.388,219.948,71.388,220.147L71.388,220.147
						z"/>
				</g>
			</g>
			<path fill="none" stroke="#000000" stroke-miterlimit="10" d="M-64.512,172.348c-8.5-5.8-29.098-7.2-40.397-10.6
				c-15.402-4.7-30.902-9.3-46.103-15.3c-26.8-10.6-37.8,16-61.7,1.3c-28.399-17.5-18.6-5.3-51.8-24.6
				c-15.3-8.9-39.6-12.6-56.1-17.8c-49.6-15.7-38.1-22.5-57-25c-44.3-6-94.598,11.7-137.7,25.2c-41.399,13-80.7,33.6-122.8,42.1
				c-35,7.1-36.1,39.5-59.6,63.6"/>
			<path fill="none" stroke="#000000" stroke-miterlimit="10" d="M-45.212,168.748c-87.699,32.2-123.199-5.601-142.8-14
				c-30.901-13.2-34.102-13.1-65.802-25.6c-64.098-25.3-65.898-28.6-105.398-32.3c-52.199-4.9-83,17.5-125.699,21.9
				c-40,4.1-101.1,23.7-138.4,40.3c-25.7,11.4-14.397-43.2-27.397-19.7c-15.902,28.7-27.5,41.2-59.303,52.2"/>
			<path fill="none" stroke="#000000" stroke-miterlimit="10" d="M-727.509,173.647c70.5-24.102,136.701,29.797,207.102,36.398
				c28.898,2.7,60.598,4.902,89.398,0.8c32.699-4.598,62.6-20.8,91.699-36.698c41.3-22.702,52.9,0.198,99.5-6.5
				c19.798-2.8,41.098-20.1,61.4-19.899c18.397,0.2,56.897,16.2,73.397,17.5"/>
			<path fill="none" stroke="#000000" stroke-miterlimit="10" d="M-697.711,189.748c11.397,0,31.798-5.3,26.397,11
				c-2.397,7.5-19.798,14.2-26.397,17.1"/>
			<path display="none" fill="none" stroke="#000000" stroke-miterlimit="10" d="M-372.612,191.548c-24.6,1.3-50.6-2.4-76.002-5.2
				c-35.5-4.1-47.601,5.2-86.5-22.6c-42.5-30.4,63.401-54.2,107.6-54.9c40.103-0.7,72.5-7.2,82.603,34.3
				C-336.612,177.448-331.812,186.647-372.612,191.548"/>
			<path fill="none" stroke="#000000" stroke-miterlimit="10" d="M-416.012,180.948c-14.1,1.899-56.1,11.199-65.6-2.2
				c-12.6-17.8,14.798-44.3,28.9-47.8c18-4.5,49.6-2,57.1,17.1c10.2,25.7-16.5,35.9-36,35"/>
			<path fill="none" stroke="#000000" stroke-miterlimit="10" d="M-266.112,207.348c-5.8,2,50.7-40.6,44.5-37.8
				c-71.8,33-200.6,15.7-283.1,7.7c-49-4.702-96.103-10-118.603-6.601c-43.598,6.601-49.098,37.198-84.897,60.801"/>
			<path fill="none" stroke="#000000" stroke-miterlimit="10" d="M-111.712,181.048c-31.697,1-99.6-17.4-119.3,19.3"/>
			<path fill="none" stroke="#000000" stroke-miterlimit="10" d="M-605.612,98.948c-4.3,5.8,12.3,27.7-7,57.9"/>
			<path fill="none" stroke="#000000" stroke-miterlimit="10" d="M-555.709,105.648c-9.5,13.4-27,40.6-43.103,45.3"/>
			<path fill="none" stroke="#000000" stroke-miterlimit="10" d="M-504.612,116.048c9.5-0.3,17.2-5.6,25-10.7"/>
			<path fill="none" stroke="#000000" stroke-miterlimit="10" d="M-448.612,74.248c1.5,12.9-0.4,24.5-5.4,36.2"/>
			<path fill="none" stroke="#000000" stroke-miterlimit="10" d="M-397.812,70.348c5.9,17.4-16.6,27.1-29,32.6"/>
			<path fill="none" stroke="#000000" stroke-miterlimit="10" d="M-346.012,73.548c-3.1,10.1-11.5,18.6-21.5,22.6"/>
			<path fill="none" stroke="#000000" stroke-miterlimit="10" d="M-299.112,79.048c-4.7,10.9-23.2,19.9-33.9,22.7"/>
			<path fill="none" stroke="#000000" stroke-miterlimit="10" d="M-298.912,119.748c-7.798,7.5,14.202-6.8,20.6-12.1"/>
			<path fill="none" stroke="#000000" stroke-miterlimit="10" d="M-230.612,141.548c6.399-5.1,14-9.3,18.1-15.1"/>
			<path fill="none" stroke="#000000" stroke-miterlimit="10" d="M-182.912,137.448c-3.3,10.4-14.5,10.9-24,12.9"/>
			<path fill="none" stroke="#000000" stroke-miterlimit="10" d="M-151.012,142.548c-4.699,8.5-12,14.6-21.1,17.6"/>
			<path fill="none" stroke="#000000" stroke-miterlimit="10" d="M-506.412,116.248c2.1-13.8,7.899-25.9,20.3-31.3"/>
			<path fill="none" stroke="#000000" stroke-miterlimit="10" d="M-466.812,71.548c-1.5,13.8-6.1,24.9-12.3,37.2"/>
			<path fill="none" stroke="#000000" stroke-miterlimit="10" d="M-522.711,125.748c5.899-13.5,3.899-24.5,5.1-38"/>
			<path fill="none" stroke="#000000" stroke-miterlimit="10" d="M-542.314,100.248c-3.798,8.9-7.7,21.3-7.897,31.3"/>
			<path fill="none" stroke="#000000" stroke-miterlimit="10" d="M-431.812,215.448c-6.7-11.5-17.3-18.5-30.3-21"/>
			<path fill="none" stroke="#000000" stroke-miterlimit="10" d="M-358.412,190.348c11.8-4.5,26.5,0.9,38.7,2.9"/>
			<path fill="none" stroke="#000000" stroke-miterlimit="10" d="M-264.912,184.548c-13.7-8.7-32.8-10.8-49.3-13.5"/>
			<path fill="none" stroke="#000000" stroke-miterlimit="10" d="M-234.612,216.048c-10-8.6-17-11.2-29.8-14"/>
			<path fill="none" stroke="#000000" stroke-miterlimit="10" d="M-199.412,173.948c14.6-0.801,32.1,8.399,42.1,19.3"/>
			<g>
				<g>
					<path d="M-433.612,153.448c-2.2-2.3-5.8,1.2-3.894,2.507c3.402,3.598,8.402,5.598,8.102,11.198
						c1.099-0.799,2.099-1.599,3.199-2.398c-2.399-0.9-8.399-4.602-2.5-5.5c5.301-0.8,8.601,4.598,10.101,8.898
						c0.3-0.9,0.702-1.9,1.101-2.801c-3.598,2-8,2.202-11.398-0.397c-2-1.5-3.402-3.302-0.102-3.802
						c1.102-0.198,1.7-1.398,1.8-2.398l0,0c0.103-1.3-1.198-2.5-2.5-2.5c-0.6,0-1.897,0.2-2.5-0.2c0.6,1.101,1.1,0.9,1.7-0.5
						c-1-0.3-1.898-0.7-2.898-1c0.101,0.599,0,1.2,0,1.7c-0.1,2.398-0.899,5.2-0.399,7.5c0.3,1.3,1.8,2,3.1,1.7
						c1.2-0.302,1.603-1.302,2-2.302c-1.601-0.4-3.198-0.9-4.8-1.301c0,0.1,0,0.1,0,0.2c0.5-0.5,1.099-1.098,1.699-1.7
						c1.801-0.4,0.902-0.199-0.199-1.3c-0.798-0.7-1.598-1.5-2.398-2.3c-0.899-1-2.399-2.1-3-3.3c-0.802,1.3-1.5,2.5-2.199,3.8
						c-2,0.1,1.399,5.5,1.8,6.8c0.5,1.7,1.6-0.601,1.6-0.601c-0.5-0.102-1.1-0.301-1.6-0.5c-3-1.1-6-2.1-9.2-2.399c0,1.7,0,3.3,0,5
						c4.7,0.2,7.2-5.202,9.4-8.601c0.798-1.201,2.598-4.801,4.398-4.602c3.1,0.3,5.6,6.6,6.699,8.9c0.298-1.1,0.6-2.299,0.9-3.4
						c-7.603,4-14,2.7-20.801-2.199c0.198,1.299,0.301,2.6,0.5,3.899c3.101-3.3,9-10,14.301-8.3c3,1,4.5,4.201,5.199,7.1
						c0.4,1.801,0.9,5.902-0.199,6.801c1-0.9,0.598-0.201-0.603-1.601c-1.8-2.099-3-4.7-4.1-7.2c-0.298,1.1-0.599,2.299-0.9,3.4
						c2.4-1.2,5.9-3.801,8.7-3.7c2.7,0.099,4.7,3.8,6,5.7c0.1-1,0.299-2,0.4-3c-2.602,2.201-15.102,12.5-14.102,2.6
						c0.1-1,0.399-2.1,0.899-3c0.399-0.699,0.8-0.5,0.2-0.699c2.5,0.799,3.699,7.699,4.3,9.899c0.798-1.099,1.598-2.099,2.399-3.2
						c-2.401,0.301-7,1.7-9.302,0.301c-2.399-1.4-4.1-4-5.8-6.101c0,1.101,0,2.3,0,3.5c7-5.8,14.6-7.3,19.4,1.7
						c0.098-1,0.298-2,0.398-3c-1.898,1.8-9.599,8.699-11.199,3c-0.801-2.9,0.199-7.4,3.5-8.4c4.101-1.298,15.601,1.5,11.5,7.602
						c-3.102,4.699-9.199,7.699-14.801,7.801c0.799,0.6,1.6,1.199,2.399,1.8c-0.702-3.5-2.402-6.7-3.101-10.2
						c-1.602,0.6-3.102,1.299-4.602,1.9c1.102,1.5,2.2,3.098,3,4.699c0.402,0.898,0.202,0.5-0.398,1.398c-1.3,1.9-2.1,4-2.699,6.2
						c1.6-0.202,3.1-0.401,4.6-0.601c-1.8-3.801-3.3-7.899-5.1-11.699c-1.299,1-2.599,2-3.9,3c2.802,3.398,4.2,7.3,6.5,11
						c0.801-1.301,1.5-2.5,2.2-3.801c-8.902,1.099-17.101,0.301-20.3-9.301c-1.603,0.6-3.103,1.299-4.603,1.899
						c8.7,14.399,34.5,23.798,48.4,11.399c7.2-6.301,9.2-18.899,4.3-27.199c-5.7-9.7-17.7-14-28.6-13.7
						c-13.601,0.3-28.801,8.4-33.101,22.101c-2.8,8.901,2.8,16.401,10.601,20.301c9.6,4.801,21,6,31.6,4.699
						c9.5-1.199,20.7-4.898,25.4-14c5.8-11.201,0.901-25.101-9.4-31.701c-7.5-4.9-16.6-7.5-25.5-8.3c-7.5-0.6-17-0.5-23.5,4.1
						c-7.598,5.4-14.598,13.2-13.898,23.1c0.599,8.602,7.599,15.7,14.898,19.301c14.8,7.301,37.402,6.5,48.602-7.199
						c7.299-8.899,1.799-19.699-6.102-26c-9.598-7.7-23.698-11.5-35.698-8.2c-6.7,1.8-12.401,5.6-16.802,11
						c-5.2,6.4-9.9,16.398-9.3,24.699c1.5,18.801,26.298,15,38.899,12.301c-0.401-1.602-0.901-3.2-1.301-4.801
						c-11.699,4.801-30.199,2.699-37.199-9.301c-6.901-11.801,5-22.801,15.199-27.301c10.699-4.8,23.199-7.3,35-6.5
						c9.699,0.6,21.101,3.7,23.5,14.5c1.601-0.6,3.101-1.3,4.601-1.9c-18.1-26.7-52.298-13.1-71.399,4.9
						c-7.101,6.6-16.3,16.7-16.101,27.2c0.301,13.601,16.601,12.899,26.301,13c11.798,0.099,23.7-0.202,35.399-2.101
						c8-1.301,17-3.102,23.699-8.102c14.099-10.5,5.599-25.8-3.801-36.4c-1.8-2-4.699,0.1-4.199,2.4
						c7.199,31.7-34.399,42.4-57.5,33.4c-2.599-1-4.399,3.4-1.899,4.6c11,5.4,23.3,7.6,35.101,3.7
						c11.902-3.899,21.902-11.5,31.3-19.7c-1.298-1-2.598-2-3.897-3c-5.5,12.6-19.5,14.1-31.603,15.7
						c-3.198,0.401-1.897,5.2,1.302,4.8c7.598-1,15.2-2.1,22.398-4.8c3-1.101,1.899-5.5-1.301-4.8c-1.6,0.3-3,1.098-4.5,1.699
						c-1,0.4-2,0.801-3,1.301c0,0-1.6,0.699-0.6,0.3c0.598,1.601,1.298,3.101,1.898,4.601c0.5-0.301,0.899-0.5,1.399-0.699
						c2.9-1.401,0.4-5.699-2.5-4.301c-0.5,0.199-0.899,0.5-1.399,0.699c-2.601,1.301-0.801,5.5,1.899,4.602
						c2.8-0.901,5.202-2.699,8.101-3.301c-0.4-1.601-0.9-3.199-1.301-4.801c-7.199,2.7-14.798,3.801-22.398,4.801
						c0.4,1.602,0.9,3.199,1.301,4.801c13.4-1.801,28.5-4.102,34.6-18c1.202-2.5-1.699-4.899-3.899-3
						c-8.198,7.099-17.3,14.5-27.8,17.898c-11.201,3.7-22.101,2.5-32.601-2.699c-0.6,1.602-1.298,3.102-1.899,4.602
						c27.1,10.5,71.699-4.2,63.699-39.6c-1.399,0.8-2.8,1.6-4.199,2.4c4.8,5.401,13.5,15.601,9.199,23.601
						c-3.798,7.301-13.5,9.899-20.899,11.5c-11.5,2.5-23.398,3.102-35.198,3.102c-5.702,0-11.902,0.5-17.603-0.5
						c-2.1-0.301-4.3-0.9-6.1-2.2c-7.5-5.7,2.8-18.899,6.8-23.399c15.9-18,51.1-37.9,68.9-11.5c1.6,2.4,5.2,0.9,4.6-1.9
						c-2.9-13-16.4-17.6-28.3-18.2c-13.9-0.6-29.3,2.2-41.5,9.2c-11.9,6.8-21.1,21.1-11.9,33.8c9,12.399,28.2,15.601,41.7,10
						c2.9-1.2,1.9-5.5-1.3-4.8c-8,1.699-17.7,3.699-25.7,0.898c-9.3-3.199-7.1-12.699-4.3-20c5-12.9,16-21.301,30.1-20.201
						c10.103,0.801,22.5,5.899,27.3,15.5c5.9,11.699-9.197,19-18.5,20.899c-10.697,2.2-23.8-0.098-31.697-8.2
						c-8.803-9-5.402-19.899,3.897-27.1c7.3-5.6,17.101-6,25.9-4.6s19,4.3,25,11.2c7.5,8.6,5.8,22-4,27.8
						c-9.202,5.399-21.3,6.199-31.601,4.3c-6.901-1.3-20-4.8-20.602-13.7c-0.298-5,2.8-9.4,6.102-12.9
						c6.301-6.5,13.601-10.2,22.801-10.2c8.8,0.1,19.899,2.8,24.3,11.3c3.5,7,2.202,17.899-4.9,22.2c-12.5,7.6-32,0.6-39.197-11.293
						c-1.5-2.399-5.5-0.899-4.603,1.9c3.902,11.7,13.702,14.299,25.103,12.9c1.8-0.301,3.3-2,2.197-3.801
						c-2.5-4.102-4.098-8.301-7.197-12c-1.9-2.399-5,0.601-3.9,3c1.8,3.801,3.3,7.898,5.1,11.699c1,2,4,1.297,4.603-0.601
						c0.699-2.599,3.3-5.2,3.5-7.899c0.2-2.901-2.4-5.801-3.9-8.101c-1.6-2.402-5.202-0.902-4.6,1.897c0.7,3.5,2.4,6.7,3.1,10.2
						c0.2,1,1.4,1.8,2.4,1.8c8-0.199,19.3-5.5,20.699-14.3c1.398-9-12.602-13.4-19.302-10.6c-5.8,2.298-8.698,10.298-5.698,15.899
						c4.599,8.398,14.099,2.301,18.898-2.302c0.798-0.8,0.9-2,0.4-3c-6.4-12-17.8-10.5-27.2-2.698c-1.1,0.898-0.8,2.5,0,3.5
						c2.2,2.698,4.5,6.398,8,7.5c3.402,1.198,7.101,0.398,10.601-0.102c1.6-0.3,2.8-1.5,2.399-3.2c-0.899-3.8-3.098-13.9-8.899-13.5
						c-3.898,0.302-5.698,4.202-6.198,7.603c-0.601,3.8,0.5,8.8,4.8,10.1c6.5,1.901,13.3-4.3,17.7-8.199
						c0.798-0.701,1-2.101,0.397-3c-2.201-3.201-5.201-7.901-9.6-8.101c-4.2-0.202-8.298,2.598-11.9,4.399
						c-1.298,0.599-1.397,2.198-0.897,3.398c1.698,3.702,5.8,13.3,11.5,10.602c3.8-1.802,3.397-8.102,2.698-11.5
						c-1-4.701-3.799-10.201-8.898-11.5c-7.602-1.9-14.402,4.5-19.102,9.6c-1.198,1.199-0.801,2.898,0.5,3.898
						c8.199,6,16.699,7,25.802,2.199c1.298-0.598,1.5-2.199,0.897-3.398c-2.5-5.101-8.1-15.3-15.1-10c-2.3,1.7-3.8,4.4-5.3,6.8
						c-0.803,1.298-2.5,4.897-4.303,4.897c-3.3-0.1-3.197,4.7,0,5c2.9,0.2,11.801,5.5,13.9,1.4c1.101-2.1,0.2-4.4-0.7-6.5
						c-1-2.3-2.397-8.3-5.699-8.2c-2,0.1-3,2.101-2.198,3.8c1.397,3,7.598,9.801,11.198,9.2c0.699-0.098,1.6-0.899,1.699-1.7
						c0-0.098,0-0.098,0-0.199c0.601-3.198-3.7-4.301-4.8-1.301c0.5-0.397,1-0.8,1.5-1.199c1.1,0.5,2.1,1.1,3.1,1.699
						c-0.098-0.699,2.303-15.8-4.197-11.1c-6.2,4.4-3.303,10.3,3.5,10c-0.803-0.8-1.7-1.7-2.5-2.5l0,0c0.6-0.798,1.198-1.6,1.8-2.4
						c-5.8,0.801-7.602,6.603-3.602,10.801c5.102,5.302,12.699,6,19,2.602c0.901-0.5,1.401-1.8,1.102-2.8
						c-2.5-7.2-10.5-16.5-19.102-11.302c-2.398,1.399-4.5,4.302-3.398,7.199c1.5,3.801,5.098,5.601,8.7,6.9
						c1.598,0.6,3.098-0.9,3.197-2.4C-423.612,160.647-429.012,158.248-433.612,153.448L-433.612,153.448z"/>
				</g>
			</g>
			<g>
				<g>
					<path d="M-425.711,125.248c-12.601,2.9-7.301,22.2,5.104,19.2c1.601-0.3,2.9-0.6,4.7-0.4c-0.602-0.1-0.402-0.3,0.2,0.1
						c2.098,1.3-1-1.5,0.397,0.4c-0.8-1-0.899-1-0.3-0.1c-1.2-2.7-0.098,2.5-0.2-0.4c0.103,0.9,0.103,1.7,0,2.6c0.2-1.2,0.2-1.2,0,0
						c-0.3,1.2-0.6,2.4-1.1,3.6c0.7-1.7-1,1.6-1.2,1.9c-0.7,1-0.7,1.1-0.2,0.4c-0.399,0.5-0.8,1-1.3,1.5c-2,2.3-3.5,3.2-6.8,4.8
						c-2.7,1.3-5.5,2.4-8.4,3.4c-6.6,2.3-13.5,4.3-19.6,7.8c-8,4.6-5.402,15.4,2.399,18.3c11,4.2,24.4,2.8,34.301-3.7
						c10.897-7.199,17.199-17.6,18.699-30.5c0.601-5.4-5-10-10-10c-5.899,0-9.399,4.6-10,10c-0.602,5.8-4.802,11.1-9.802,13.8
						c-5.897,3.199-11.598,3.399-17.897,1.1c0.798,6.1,1.598,12.2,2.397,18.3c7-4,17.2-6.3,25.7-10.1c8.399-3.8,15.7-9.8,19.7-18.3
						c3.7-8,5-18-0.103-25.8C-404.912,124.048-415.912,123.048-425.711,125.248L-425.711,125.248z"/>
				</g>
			</g>
			<g>
				<g>
					<path d="M-440.211,122.848c-5.4,0.6-10,4.1-10,10c0,5,4.6,10.6,10,10c12-1.4,18.598,5.3,24.197,15.4
						c6.2,11.3,23.5,1.2,17.303-10.1C-407.314,132.648-421.514,120.748-440.211,122.848L-440.211,122.848z"/>
				</g>
			</g>
			<g opacity="0.1">
				<g>
					<path d="M-727.012,229.248c-5.399,1-8.399,7.399-6.899,12.399c1.5,5.601,7,8,12.3,7c20.9-4.1,38.7-22.199,52-37.699
						c14.2-16.603,27.4-34.902,35.7-55.301c2-5.102-2.2-11.001-7-12.302c-5.7-1.6-10.2,2-12.3,7c-0.4,1-0.4,1,0,0
						c-0.3,0.6-0.5,1.1-0.8,1.7c-0.5,0.9-0.902,1.702-1.303,2.602c-0.897,1.9-1.897,3.801-2.897,5.601c-2.3,4.1-4.7,8.2-7.3,12.1
						c-5.601,8.5-11.7,16.8-18.4,24.5s-14.402,16-22.3,21.9c-3.601,2.7-7.4,5.3-11.4,7.3
						C-720.41,227.448-722.709,228.448-727.012,229.248L-727.012,229.248z"/>
				</g>
			</g>
			<g opacity="0.1">
				<g>
					<path d="M-731.112,237.248c-12.1,4.1-6.9,23.399,5.1,19.3c12.103-4.1,23.301-9.7,33.103-17.9
						c8.298-6.899,15.098-15.3,21.397-24.1c6.5-9,12.2-19.298,19.9-27.4c7.8-8.098,16.899-13.8,27.2-18.199
						c24.7-10.601,50.3-19.7,75.8-28.101c26.3-8.6,53.202-14.9,81.1-15.4c48.2-0.9,95.5-11,143.5-13.7c21.2-1.1,42.5-1.2,62.7,4.5
						c9.3,2.7,16.9,5.7,25,11.2c7.6,5.1,14,12.4,19.9,19.8c30.3,38.3,84.8,8.899,123.203,26.798c5,2.298,10.801,1.398,13.699-3.602
						c2.5-4.398,1.3-11.398-3.601-13.698c-23.1-10.8-48-8.6-72.8-8.4c-10.702,0-20.602,0-30.602-3.6c-3.4-1.2-7.7-3.5-10.601-6.2
						c-4-3.7-6.798-8.2-10.399-12.3c-29.198-33.3-76.4-37-117.801-34.4c-24,1.4-47.8,4.8-71.6,7.8c-24.103,3-48,5-72.3,5.8
						c-28.5,0.9-56.202,6.7-83.103,15.6c-26,8.5-52,17.9-77.198,28.5c-11.602,4.8-22.5,10.5-31.802,19.102
						c-9.098,8.601-15.798,19.301-22.897,29.5c-5.7,8.301-11.4,16.2-18.9,23.101C-711.211,228.548-720.812,233.748-731.112,237.248
						L-731.112,237.248z"/>
				</g>
			</g>
			<g opacity="0.1">
				<g>
					<path d="M-710.912,188.848c-12.4,3.4-7.101,22.7,5.399,19.2c44.301-12.202,86.198-32.1,127.198-52.6
						c18.5-9.2,36.9-18.8,55.5-28c7.402-3.7,15-7.3,22.603-10.7c4.397-1.9,9.697-4.2,15.697-6.1c12.2-4,7-23.3-5.3-19.3
						c-14.5,4.7-28.398,11.6-42,18.3c-18,8.9-35.898,18.2-53.898,27.2C-626.112,157.048-667.212,176.848-710.912,188.848
						L-710.912,188.848z"/>
				</g>
			</g>
			<g opacity="0.1">
				<g>
					<path d="M-675.512,205.448c-3.199,4.5-0.8,11.1,3.603,13.8c5.098,2.899,10.5,0.798,13.7-3.601c29-40.5,80.5-58.8,125.6-74.399
						c5.2-1.8,8.5-6.8,7-12.3c-1.402-5-7.102-8.8-12.3-7C-588.612,139.448-643.012,160.248-675.512,205.448L-675.512,205.448z"/>
				</g>
			</g>
			<g opacity="0.1">
				<g>
					<path d="M-648.612,144.648c-5.4,0.6-10,4.2-10,9.8c0,5.1,4.6,10.5,10,10c1-0.101,1.899-0.2,2.899-0.2
						c2.599-0.101-0.102,0.899-3.802-1.3c-1.5-2-3.1-4-4.6-6l0,0c0.901-3.2,1.702-6.5,2.6-9.7c1-1.2,2.301-1.7,3.7-2.2
						c-0.202,0.1-0.402,0.1-0.6,0.2c-0.7,0.2-1.303,0.4-2,0.6c-1.8,0.6-3.601,1.1-5.4,1.7c-4,1.4-9.1,2.8-12,6.1
						c-6.298,7.1-2.798,16.2,5.601,19.1c3.802,1.3,7.901,1.6,11.802,2.6c4.897,1.3,9.8,2.9,14.5,4.7c6.8,2.6,13.5,5.6,20.3,8.2
						c6.598,2.598,13.2,4.298,19.899,6.399c5.801,1.797,11.5,3.698,17.301,5.398c10,3,20.098,5.5,30.399,7.3
						c17.898,3.2,35.898,5.402,53.898,7.802c14.202,1.801,28.402,4.198,42.602,5.301c13.601,1,27,0.399,40.5-1.4
						c52-7.1,97.698-34.3,145.698-53.3c12.5-4.9,25.302-9.5,38.302-13c10.298-2.8,19.298-3.5,30.398-1.6c23,3.9,45.8,13.3,69.3,13.5
						c12.9,0.101,12.9-19.899,0-20c-17.8-0.2-36.198-7.1-54-10.9c-9.4-2-19.1-3.8-28.8-3.8c-9.798,0-19.099,2.5-28.398,5.3
						c-50.401,15.198-95.699,43.598-146.302,57.899c-25.3,7.099-50.7,9.599-76.8,6.198c-22.598-2.897-44.8-5.6-67.2-9
						c-11.5-1.8-23-3.698-34.3-6.698c-5.101-1.302-10-2.802-15-4.302c-8.5-2.698-17.3-4.897-25.7-7.897
						c-13.198-4.801-25.897-11.301-39.5-14.9c-3.6-0.9-7.3-1.5-11-2.3c-0.698-0.1-1.397-0.3-2-0.5c-1.5-0.5,2.402,1.5,2.603,1.7
						c3.199,5,3.199,9.199,0.1,12.5c0-0.101,0.098-0.101,0.2-0.2c-2.7,2.098-1.4,1.098-0.7,0.7c2.7-1.4-1.6,0.5,0.9-0.4
						c4.5-1.7,9.399-2.5,13.6-4.7c6.899-3.5,6.7-13.6,0.2-17.5C-642.312,144.148-645.512,144.348-648.612,144.648L-648.612,144.648z
						"/>
				</g>
			</g>
			<g opacity="0.1">
				<g>
					<path d="M-280.112,174.348c-5,2.3-6.2,9.4-3.704,13.8c3,5.101,8.7,5.9,13.7,3.601c19-8.7,19.6-36.601,21.3-54.2
						c0.202-1.7,0.402-3.5,0.6-5.2c0.303-2.4-0.397,2.3,0,0c0.103-0.6,0.2-1.2,0.303-1.8c0.197-1.1,0.397-2.1,0.697-3.1
						c0.303-0.9,1.103-2-0.397,0.8c0.5-0.9,1.2-1.2-0.8,0.9c-1.9,2-6,2.7-9,1c1.5,0.9-1.7-1.8,0.5,0.5c0.399,0.5,0.899,1,1.3,1.5
						c0.7,0.8,0.598,0.7-0.103-0.2c0.603,0.7,1.103,1.3,1.603,2c0.5,0.7,1,1.3,1.5,1.9c1.5,1.9-1.2-1.7,0.1,0.1
						c0.7,0.9,1.4,1.9,2,2.9c1.2,2.1,0.101,0.2-0.1-0.4c-1.3-4.5,3.7-11.9,8.897-11.4c4.103,0.4,2.202,0.4,1.103-0.1
						c3.897,1.6,0.598,0.2-0.3-0.3c-0.902-0.5-1.803-1-2.603-1.5c-2.1-1.3-4.2-2.7-6.3-4.1c-11.6-7.8-22.8-16.1-34.5-23.8
						c-5-3.4-10.1-6.7-15.5-9.5c-4-2-9.2-4.9-13.9-4.3c-5.397,0.7-10,4-10,10c0,5,4.603,10.7,10,10c2.402-0.3-1.5-0.4-0.697-0.2
						c0.697,0.2,1.5,0.4,2.197,0.7c2.103,0.8-2.098-1.1,0.803,0.4c1,0.5,2.1,1,3.1,1.6c5,2.8,9.8,5.9,14.6,9.1
						c11,7.3,21.603,15.1,32.603,22.5c3.8,2.6,7.6,5.4,11.8,7.3c6.1,2.8,16.5,3.5,18-5.6c1.1-6.8-2.5-11.4-6.4-16.5
						c-0.6-0.8-1.197-1.5-1.8-2.3c1.7,2.2-0.897-1.2-1.5-1.9c-0.8-1-1.6-2-2.6-2.8c-2.9-2.6-6-4.6-10-4.6
						c-15.603-0.1-14.7,22.5-15.8,33c-0.2,2-0.4,4.1-0.7,6.1c-0.402,3,0.298-2.1-0.101,0.9c-0.1,0.9-0.199,1.8-0.399,2.7
						c-0.603,3.4-1.3,6.9-2.3,10.2c-0.402,1-0.702,2.1-1.103,3.1c-0.897,2.603,1-1.798-0.198,0.603
						c-0.6,1.298-1.302,2.698-2.199,3.897c-1.4,2,1.5-1.6-0.2,0.2c-0.5,0.5-1,1.101-1.5,1.5
						C-276.012,171.647-279.312,173.948-280.112,174.348L-280.112,174.348z"/>
				</g>
			</g>
			<g opacity="0.1">
				<g>
					<path d="M-325.812,62.248c-5.399-0.6-10,5-10.002,9.9c0,5.9,4.602,9.4,10,10c6.601,0.8,15.9,3.2,23.2,5.7
						c8.5,2.9,16.8,6.6,24.6,11.1c13.7,7.9,27.902,18.4,34.302,33.3c1.301,3.1,2.898,7.9,3.198,10.5c0.402,4.1,0.5,6.2-0.397,9.3
						c-1.4,4.9-4.103,8.4-9.5,12.6c-10.301,8-26,12.7-39.5,17.2c-12.2,4.101-7,23.402,5.3,19.3c17.3-5.699,36.101-11.3,50-23.6
						c15.4-13.6,17.5-33.4,9.7-51.8c-8.2-19.4-24.9-33.7-43-43.9C-285.812,71.748-305.412,64.648-325.812,62.248L-325.812,62.248z"
						/>
				</g>
			</g>
			<g opacity="0.1">
				<g>
					<path d="M-363.412,181.748c-10.7,7.1-0.7,24.399,10.3,17.1c28.3-18.7,102-50.9,70.603-95.799c-5.199,4-10.5,8.1-15.699,12.1
						c6.801,8.8,10.898,18.3,9.5,29.2c-1.3,10.2-6.699,22-10.199,32.4c6.401,1.8,12.901,3.5,19.3,5.3
						c4.602-17.7,15.401-32.9,15.802-51.8c-5.702,2.4-11.402,4.7-17.102,7.1c7.3,8.6,9.102,19.7,11,30.5
						c1.602,8.9,14.199,9.299,18.3,2.4c5.702-9.6,10.202-19.9,12.602-30.9c-6.102,0.8-12.2,1.6-18.3,2.4
						c3.9,7.9,7.701,15.9,11.6,23.8c2,4,7.2,5.702,11.301,4.601c4.5-1.201,6.901-5.101,7.301-9.601
						c-0.102,1.401,1.199-2.2,1.199-2.2c0.6-1.199,1.298-2.5,1.899-3.8c1.5-3.4,2.398-6.1,2.7-9.8c-5,2.8-10,5.7-15,8.6
						c5.9,4.5,13.4,6.602,19.3,11.102c4.8,3.699,13.8,0,14.7-6c0.6-3.602,2-6.901,2.3-10.602
						c-5.702,2.402-11.401,4.702-17.102,7.102c13.302,10.301,29.399,12.101,45.7,14c5.399,0.601,10-5,10-10c0-5.9-4.601-9.4-10-10
						c-10.101-1.2-23.201-1.7-31.601-8.2c-7.101-5.5-16.3-2.1-17.101,7.1c-0.201,1.8-1.301,3.5-1.602,5.3c4.9-2,9.801-4,14.7-6
						c-5.901-4.5-13.401-6.6-19.3-11.1c-6.602-5.1-14.4,2-15,8.6c0.1-1.4-1.2,2.2-1.2,2.2c-0.599,1.2-1.298,2.5-1.899,3.8
						c-1.5,3.4-2.398,6.1-2.699,9.798c6.201-1.601,12.4-3.301,18.601-5c-3.901-7.898-7.702-15.898-11.601-23.798
						c-3.801-7.7-16.5-5.8-18.301,2.4c-2,9.5-5.702,17.9-10.601,26.2c6.101,0.798,12.2,1.598,18.3,2.397
						c-2.5-14.6-6.401-27.7-16.1-39.3c-5.902-7-16.902-1-17.102,7.1c-0.301,16.5-11.101,30.898-15.101,46.5
						c-3.2,12.6,15.2,17.399,19.3,5.3c4.5-13,10.402-26.101,11.103-40.1c0.699-15.6-6.301-28.8-15.603-40.9
						c-6.897-9-22.198,2.8-15.698,12.1c0.898,1.3,1.801,2.5,2.5,3.9c0,0,1.4,3.2,0.801,1.5c0.298,0.9,0.7,1.8,0.897,2.8
						c0.103,0.3,0.5,3.3,0.303,1.1c0.3,4.4,0.3,4.6-1.5,9c0.798-1.8-0.902,1.6-1.103,1.9c-0.5,0.8-1,1.7-1.6,2.5
						c-1.2,1.7-1.2,1.7-3,3.7c-3.101,3.4-6.5,6.5-10.101,9.4C-328.112,161.548-346.712,170.748-363.412,181.748L-363.412,181.748z"
						/>
				</g>
			</g>
			<g opacity="0.1">
				<g>
					<path d="M-648.612,164.647c12.9,0,12.9-20,0-20S-661.512,164.647-648.612,164.647L-648.612,164.647z"/>
				</g>
			</g>
			<g opacity="0.1">
				<g>
					<path d="M-699.512,220.147c-5.399,0.4-10,4.2-9.806,10.404c0,5.1,4.602,10.4,10,10c11.202-0.8,20.302-6.3,26.102-16.1
						c4.2-7.103,6.398-15.2,10.898-22c0.302-0.402,2.399-3,0.699-1.103c0.702-0.698,1.301-1.5,2.103-2.198
						c2-1.802-0.4,0.099,1-0.802c0.9-0.6,1.8-1.202,2.8-1.6c-2.2,0.901,1.3-0.298,1.7-0.4c0.601-0.198,1.198-0.298,1.8-0.397
						c-1.1,0.1-1,0.1,0.301,0c3.199-0.202,6.3,0.098,9.5,0.397c16.1,1.302,31.899-3.598,48-3.897c12.5-0.301,24.699,3.3,37.3,3.199
						c13.3-0.102,26.5-1.199,39.7-2.5c35-3.401,70-8.302,105-12.302c34.298-4,68.899-7.897,103.399-7.5c6.8,0,13.698,0.298,20.5,0.9
						c1.8,0.202,3.5,0.401,5.198,0.6c2.5,0.302-2.198-0.397,0.2,0c0.702,0.103,1.401,0.2,2.102,0.302
						c2.5,0.398,5.101,0.898,7.601,1.5c2.397,0.599,4.897,1.301,7.199,2.198c3.101,1.2-1.199-0.6,1,0.4c0.9,0.401,1.8,0.8,2.601,1.3
						c0.899,0.5,1.8,1.098,2.7,1.7c1.399,1.1-2-1.603-0.7-0.5c0.298,0.198,0.6,0.5,0.899,0.8c0.5,0.602,1.101,1.2,1.601,1.8
						c-2.3-3-0.601-0.6-0.101,0.2c6.4,11.2,23.7,1.098,17.301-10.102c-6.7-11.898-21.601-16.398-34.2-18.5
						c-19.2-3.198-38.8-3.099-58.2-2.198c-69.2,3.1-137.398,16.698-206.398,21c-10.602,0.698-21.5,1.3-32.102,0
						c3.8,0.5,0,0-0.898-0.2c-1.199-0.3-2.302-0.602-3.5-0.8c-6.5-1.302-13.199-1.802-19.802-1.5c-13.198,0.698-26.3,3.8-39.5,4
						c-10.598,0.198-20.298-1.902-30.397,2.897c-7,3.301-12.4,9.5-15.9,16.301c-3.1,5.8-5.1,12.199-8.5,17.899
						c-0.5,0.8-1,1.7-1.6,2.5c-1.4,2,1.5-1.598-0.2,0.3c-0.598,0.7-3.8,3.301-1.7,1.9c-0.598,0.4-1.2,0.9-1.897,1.2
						c-2.303,1.098,2-0.601-0.5,0.2c-0.801,0.199-1.601,0.399-2.4,0.6C-701.41,220.548-696.512,219.948-699.512,220.147
						L-699.512,220.147z"/>
				</g>
			</g>
			<path fill="none" stroke="#000000" stroke-miterlimit="10" d="M-83.414-174.052c-14.2,12.8-16.9,0.6-28.2,4.1
				c-45.298,14-27.7-18.6-42.9-24.6c-34.6-13.7-44.5,8.4-71.6-8.2c-17.8-10.9-15.702-5.3-40.103-19.5
				c-15.298-8.9-30.897-11.5-47.397-16.7c-25.9-8.2-43.8-26.5-71.5-30.2c-44.3-5.9-87.599-20-130.7-6.5
				c-41.397,13-72.598,31.5-114.7,40c-2.197,0.5-160.397,116.3-83.197,37.1"/>
			<path fill="none" stroke="#000000" stroke-miterlimit="10" d="M-54.71-155.552c-99.1,0-105.8-32-125.399-40.4
				c-31-13.3-39.401-18.4-71.101-30.9c-35.401-13.9-58.801-31.3-97.602-34.9c-38.699-3.6-77.397-19.6-115.5-15.7
				c-40.098,4.1-85.598,28.9-122.897,45.5c-25.603,11.4-50.5,10.2-63.5,33.7c-15.902,28.7-27.5,41.2-59.303,52.2"/>
			<path fill="none" stroke="#000000" stroke-miterlimit="10" d="M-713.614-117.952c64.7-40.8,134.902,3.7,205.3,10.3
				c28.9,2.7,67.7,5.6,96.5,1.5c32.601-4.6,58.2-26.7,91.2-29.4c43.8-3.6,68.2-27,114.8-33.7c19.803-2.9,38.303-5.1,58.603-4.9
				c18.5,0.2,33,7.5,49.5,8.8"/>
			<path fill="none" stroke="#000000" stroke-miterlimit="10" d="M-686.812-157.952c11.4,0,31.801-5.3,26.4,11
				c1.6-4.7-10.6,10.1-26.4,17.1"/>
			<path fill="none" stroke="#000000" stroke-miterlimit="10" d="M-387.509-116.252c-24.601,1.4-44.7,11-70.101,8.1
				c-35.6-4.1-74.5-25.3-77.5-65.7c-3.8-52.1,54-74.9,98.2-75.6c40-0.7,81.897,13.5,92,55c8.298,34.4-8.3,77.8-49.103,82.7"/>
			<path fill="none" stroke="#000000" stroke-miterlimit="10" d="M-416.012-156.652c-14.1,1.9-56.1,11.2-65.6-2.2
				c-12.6-17.8,14.798-44.3,28.9-47.8c18-4.5,49.6-2,57.1,17.1c10.2,25.7-16.5,35.9-36,35"/>
			<path fill="none" stroke="#000000" stroke-miterlimit="10" d="M-266.011-130.252c-5.801,1.1-11.7,2.5-17.9,4.1
				c-71.8,18.3-134.3,42-216.8,37.5c-34.4-1.8-76.5-3.8-107.5-12.6c-33.5-9.4-64.2-28.7-100-15.6"/>
			<path fill="none" stroke="#000000" stroke-miterlimit="10" d="M-111.712-156.552c-31.697,1-99.6-17.4-119.3,19.3"/>
			<path fill="none" stroke="#000000" stroke-miterlimit="10" d="M-638.312-272.152c-13.7,18.3,19.5,29.6,8.2,47.3"/>
			<path fill="none" stroke="#000000" stroke-miterlimit="10" d="M-577.412-289.852c-11.298,11.9-5.298,45.8-21.9,48.2"/>
			<path fill="none" stroke="#000000" stroke-miterlimit="10" d="M-499.612-268.652c7.1-6.3,9.7-15.3,12.5-24.2"/>
			<path fill="none" stroke="#000000" stroke-miterlimit="10" d="M-450.412-307.452c-0.301,13-3.9,24.3-10.5,35.1"/>
			<path fill="none" stroke="#000000" stroke-miterlimit="10" d="M-405.209-303.852c3.397,18.1-20.2,24.4-33.303,28.1"/>
			<path fill="none" stroke="#000000" stroke-miterlimit="10" d="M-359.112-279.852c-4.6,9.6-13.6,7-24.1,9.5"/>
			<path fill="none" stroke="#000000" stroke-miterlimit="10" d="M-304.112-278.152c-5.3,5.9-26.399,20.6-35.7,21.3"/>
			<path fill="none" stroke="#000000" stroke-miterlimit="10" d="M-276.814-233.052c8.202-0.2,25.103-12.9,32.603-16.5"/>
			<path fill="none" stroke="#000000" stroke-miterlimit="10" d="M-201.314-221.452c7.402-3.4,15.702-5.8,21.103-10.5"/>
			<path fill="none" stroke="#000000" stroke-miterlimit="10" d="M-153.912-214.452c-5.6,9.3-16.6,7.2-26.3,7"/>
			<path fill="none" stroke="#000000" stroke-miterlimit="10" d="M-124.012-202.152c-6.5,7.3-15,11.4-24.6,12.3"/>
			<path fill="none" stroke="#000000" stroke-miterlimit="10" d="M-508.212-267.952c4.101-13.4-0.699-26.2,12.301-29.8"/>
			<path fill="none" stroke="#000000" stroke-miterlimit="10" d="M-469.112-303.952c-3.4,13.5-9.6,23.8-17.5,35.1"/>
			<path fill="none" stroke="#000000" stroke-miterlimit="10" d="M-531.711-262.652c-4.303,6.9,1.697,0.5,10.5-36.8"/>
			<path fill="none" stroke="#000000" stroke-miterlimit="10" d="M-552.312-287.352c-5.1,8.2-1.5,24.2-3.1,34.1"/>
			<path fill="none" stroke="#000000" stroke-miterlimit="10" d="M-410.112-80.152c-8.5-10.3-20.101-15.5-33.3-15.8"/>
			<path fill="none" stroke="#000000" stroke-miterlimit="10" d="M-358.612-103.752c12.402-2.1,25.8,6.2,37.3,10.6"/>
			<path fill="none" stroke="#000000" stroke-miterlimit="10" d="M-267.814-109.152c-15-6.4-34.2-5.3-50.897-5.3"/>
			<path fill="none" stroke="#000000" stroke-miterlimit="10" d="M-234.612-121.452c-10-8.6-17-11.2-29.8-14"/>
			<path fill="none" stroke="#000000" stroke-miterlimit="10" d="M-199.412-163.552c14.6-0.8,32.1,8.4,42.1,19.3"/>
			<g display="none">
				<g display="inline">
					<path d="M-433.612-184.052c-2.2-2.4-5.8,1.2-3.996,2.5c3.4,3.6,8.4,5.6,8.101,11.2c1.1-0.8,2.1-1.6,3.199-2.4
						c-2.399-0.9-8.399-4.6-2.5-5.5c5.301-0.8,8.601,4.6,10.101,8.9c0.301-0.9,0.702-1.9,1.102-2.8c-3.6,2-8,2.2-11.399-0.4
						c-2-1.5-3.401-3.3-0.101-3.8c1.101-0.1,1.7-1.4,1.801-2.4l0,0c0.1-1.3-1.2-2.5-2.5-2.5c-0.601,0-1.9,0.2-2.5-0.2
						c0.598,1.1,1.098,0.9,1.699-0.5c-1-0.3-1.899-0.7-2.899-1c0.102,0.6,0,1.2,0,1.7c-0.098,2.4-0.898,5.2-0.398,7.5
						c0.3,1.3,1.8,2,3.101,1.7c1.199-0.3,1.6-1.3,2-2.3c-1.603-0.4-3.2-0.9-4.801-1.3c0,0.1,0,0.1,0,0.2
						c0.5-0.5,1.099-1.1,1.698-1.7c1.802-0.4,0.902-0.2-0.198-1.3c-0.8-0.7-1.6-1.5-2.399-2.3c-0.9-1-2.4-2.1-3-3.3
						c-0.8,1.3-1.5,2.5-2.2,3.8c-2,0.1,1.402,5.5,1.801,6.8c0.5,1.7,1.602-0.6,1.602-0.6c-0.5-0.1-1.102-0.3-1.602-0.5
						c-3-1.1-6-2.1-9.198-2.4c0,1.7,0,3.3,0,5c4.699,0.2,7.199-5.2,9.397-8.6c0.8-1.2,2.6-4.8,4.4-4.6
						c3.098,0.3,5.598,6.6,6.699,8.9c0.298-1.1,0.599-2.3,0.898-3.4c-7.601,4-14,2.7-20.8-2.2c0.199,1.3,0.3,2.6,0.5,3.9
						c3.102-3.3,9-10,14.3-8.3c3,1,4.5,4.2,5.2,7.1c0.401,1.8,0.901,5.9-0.2,6.8c1-0.9,0.6-0.2-0.601-1.6c-1.8-2.1-3-4.7-4.1-7.2
						c-0.3,1.1-0.6,2.3-0.9,3.4c2.399-1.2,5.899-3.8,8.7-3.7c2.699,0.1,4.699,3.8,6,5.7c0.099-1,0.298-2,0.398-3
						c-2.601,2.2-15.101,12.5-14.101,2.6c0.099-1,0.4-2.1,0.9-3c0.398-0.7,0.8-0.5,0.198-0.7c2.5,0.8,3.7,7.7,4.302,9.9
						c0.798-1.1,1.598-2.1,2.398-3.2c-2.4,0.3-7,1.7-9.301,0.3c-2.402-1.4-4.101-4-5.8-6.1c0,1.1,0,2.3,0,3.5
						c7-5.8,14.598-7.3,19.397,1.7c0.101-1,0.301-2,0.4-3c-1.899,1.8-9.598,8.7-11.2,3c-0.8-2.9,0.2-7.4,3.5-8.4
						c4.202-1.3,15.702,1.5,11.603,7.6c-3.103,4.7-9.2,7.7-14.802,7.8c0.8,0.6,1.6,1.2,2.399,1.8c-0.702-3.5-2.401-6.7-3.1-10.2
						c-1.603,0.6-3.103,1.3-4.603,1.9c1.103,1.5,2.2,3.1,3,4.7c0.402,0.9,0.202,0.5-0.397,1.4c-1.301,1.9-2.1,4-2.7,6.2
						c1.601-0.2,3.101-0.4,4.601-0.6c-1.801-3.8-3.301-7.9-5.101-11.7c-1.298,1-2.6,2-3.899,3c2.8,3.4,4.199,7.3,6.5,11
						c0.8-1.3,1.5-2.5,2.199-3.8c-8.902,1.1-17.1,0.3-20.3-9.3c-1.603,0.6-3.103,1.3-4.603,1.9c8.7,14.4,34.5,23.8,48.4,11.4
						c7.2-6.3,9.2-18.9,4.3-27.2c-5.702-9.7-17.702-14-28.6-13.7c-13.603,0.3-28.8,8.4-33.103,22.1
						c-2.798,8.9,2.803,16.4,10.603,20.3c9.6,4.8,21,6,31.6,4.7c9.5-1.2,20.7-4.9,25.4-14c5.8-11.2,0.901-25.1-9.4-31.7
						c-7.5-4.9-16.6-7.5-25.5-8.3c-7.5-0.6-17-0.5-23.5,4.1c-7.598,5.4-14.598,13.2-13.897,23.1c0.598,8.6,7.598,15.7,14.897,19.3
						c14.801,7.3,37.402,6.5,48.603-7.2c7.298-8.9,1.798-19.7-6.103-26c-9.598-7.7-23.698-11.5-35.698-8.2
						c-6.699,1.8-12.401,5.6-16.802,11c-5.2,6.4-9.899,16.4-9.3,24.7c1.5,18.8,26.298,15,38.9,12.3c-0.402-1.6-0.902-3.2-1.303-4.8
						c-11.697,4.8-30.197,2.7-37.197-9.3c-6.902-11.8,5-22.8,15.197-27.3c10.803-4.8,23.2-7.3,35-6.5c9.7,0.6,21.103,3.7,23.5,14.5
						c1.603-0.6,3.103-1.3,4.603-1.9c-8-11.8-20.603-19.2-35.103-18.4c-13.197,0.8-26.098,6.7-35.697,15.9
						c-8.7,8.3-16.9,21.5-12.2,33.9c5.3,13.9,20,18.8,33.8,18.7c15-0.1,32.402-4.4,43.602-15.1c11.601-11.1,9.801-25.1-0.199-36.5
						c-1.8-2-4.7,0.1-4.2,2.4c7.2,31.7-34.399,42.4-57.5,33.4c-2.598-1-4.399,3.4-1.899,4.6c11,5.4,23.3,7.6,35.102,3.7
						c11.9-3.9,21.9-11.5,31.3-19.7c-1.298-1-2.598-2-3.899-3c-5.5,12.6-19.5,14.1-31.601,15.7c-3.2,0.4-1.897,5.2,1.3,4.8
						c7.601-1,15.2-2.1,22.4-4.8c3-1.1,1.898-5.5-1.3-4.8c-1.603,0.3-3,1.1-4.5,1.7c-1,0.4-2,0.8-3,1.3c0,0-1.603,0.7-0.603,0.3
						c0.601,1.6,1.301,3.1,1.9,4.6c0.5-0.3,0.9-0.5,1.4-0.7c2.897-1.4,0.397-5.7-2.5-4.3c-0.5,0.2-0.9,0.5-1.4,0.7
						c-2.6,1.3-0.8,5.5,1.9,4.6c2.8-0.9,5.199-2.7,8.1-3.3c-0.402-1.6-0.902-3.2-1.3-4.8c-7.2,2.8-14.8,3.8-22.4,4.8
						c0.402,1.6,0.902,3.2,1.3,4.8c13.402-1.8,28.5-4.1,34.603-18c1.2-2.5-1.7-4.9-3.9-3c-8.2,7.1-17.3,14.5-27.8,17.9
						c-11.202,3.7-22.102,2.5-32.602-2.7c-0.599,1.6-1.299,3.1-1.898,4.6c27.098,10.5,71.698-4.2,63.698-39.6
						c-1.398,0.8-2.8,1.6-4.198,2.4c8.698,9.9,9.698,21.7-1,30.5c-12.202,10-31.202,14.5-46.602,12.1
						c-13.5-2.1-26.101-12.3-21.301-27.2c4.4-13.7,18-24.3,31.4-28.5c16.397-5.2,32.699-0.8,42.5,13.7c1.6,2.4,5.2,0.9,4.6-1.9
						c-2.9-13-16.4-17.6-28.3-18.2c-13.9-0.6-29.3,2.2-41.5,9.2c-11.9,6.8-21.1,21.1-11.9,33.8c9,12.4,28.2,15.6,41.7,10
						c2.9-1.2,1.9-5.5-1.3-4.8c-8,1.7-17.7,3.7-25.7,0.9c-9.3-3.3-7.1-12.7-4.3-20c5-12.9,16-21.3,30.1-20.2
						c10.103,0.8,22.5,5.9,27.3,15.5c5.9,11.7-9.197,19-18.5,20.9c-10.697,2.2-23.8-0.1-31.697-8.2c-8.803-9-5.402-19.9,3.897-27.1
						c7.3-5.6,17.101-6,25.9-4.6s19,4.3,25,11.2c7.5,8.6,5.8,22-4,27.8c-9.202,5.4-21.3,6.2-31.601,4.3
						c-6.901-1.3-20-4.8-20.602-13.7c-0.298-5,2.8-9.4,6.102-12.9c6.301-6.5,13.601-10.2,22.801-10.2c8.8,0.1,19.899,2.8,24.3,11.3
						c3.5,7,2.202,17.9-4.9,22.2c-12.5,7.6-32,0.6-39.197-11.3c-1.5-2.4-5.5-0.9-4.603,1.9c3.902,11.7,13.702,14.3,25.103,12.9
						c1.8-0.3,3.3-2,2.197-3.8c-2.5-4.1-4.098-8.3-7.197-12c-1.9-2.4-5,0.6-3.9,3c1.8,3.8,3.3,7.9,5.1,11.7c1,2,4,1.3,4.603-0.6
						c0.699-2.6,3.3-5.2,3.5-7.9c0.2-2.9-2.4-5.8-3.9-8.1c-1.6-2.4-5.202-0.9-4.6,1.9c0.7,3.5,2.4,6.7,3.1,10.2
						c0.2,1,1.4,1.8,2.4,1.8c7.897-0.2,19.3-5.5,20.699-14.3c1.398-9-12.5-13.4-19.302-10.6c-5.8,2.3-8.698,10.3-5.698,15.9
						c4.599,8.4,14.099,2.3,18.898-2.3c0.798-0.8,0.9-2,0.4-3c-6.4-12-17.8-10.5-27.2-2.7c-1.1,0.9-0.8,2.5,0,3.5
						c2.2,2.7,4.5,6.4,8,7.5c3.402,1.2,7.101,0.4,10.601-0.1c1.6-0.3,2.8-1.5,2.399-3.2c-0.899-3.8-3.098-13.9-8.899-13.5
						c-3.898,0.3-5.698,4.2-6.198,7.6c-0.601,3.8,0.5,8.8,4.8,10.1c6.5,1.9,13.3-4.3,17.7-8.2c0.798-0.7,1-2.1,0.397-3
						c-2.201-3.2-5.201-7.9-9.6-8.1c-4.2-0.1-8.298,2.6-11.9,4.4c-1.298,0.6-1.397,2.2-0.897,3.4c1.698,3.7,5.8,13.3,11.5,10.6
						c3.8-1.8,3.397-8.1,2.698-11.5c-1-4.7-3.799-10.2-8.898-11.5c-7.602-1.9-14.402,4.5-19.102,9.6c-1.198,1.2-0.801,2.9,0.5,3.9
						c8.199,6,16.699,7,25.802,2.2c1.298-0.6,1.5-2.2,0.897-3.4c-2.5-5.1-8.1-15.3-15.1-10c-2.3,1.7-3.8,4.4-5.3,6.8
						c-0.803,1.3-2.5,4.9-4.303,4.9c-3.3-0.1-3.197,4.7,0,5c2.9,0.2,11.801,5.5,13.9,1.4c1.101-2.1,0.2-4.4-0.7-6.5
						c-1-2.3-2.397-8.3-5.699-8.2c-2,0.1-3,2.1-2.198,3.8c1.397,3,7.598,9.8,11.198,9.2c0.699-0.1,1.6-0.9,1.699-1.7
						c0-0.1,0-0.1,0-0.2c0.601-3.2-3.7-4.3-4.8-1.3c0.5-0.4,1-0.8,1.5-1.2c1.1,0.5,2.1,1.1,3.1,1.7
						c-0.098-0.7,2.303-15.8-4.197-11.1c-6.2,4.4-3.303,10.3,3.5,10c-0.803-0.8-1.7-1.7-2.5-2.5l0,0c0.6-0.8,1.198-1.6,1.8-2.4
						c-5.8,0.8-7.602,6.6-3.602,10.8c5.102,5.3,12.699,6,19,2.6c0.901-0.5,1.401-1.8,1.102-2.8c-2.5-7.2-10.5-16.5-19.102-11.3
						c-2.398,1.4-4.5,4.3-3.398,7.2c1.5,3.8,5.098,5.6,8.7,6.9c1.598,0.6,3.098-0.9,3.197-2.4
						C-423.612-176.852-429.012-179.252-433.612-184.052L-433.612-184.052z"/>
				</g>
			</g>
			<g display="none">
				<g display="inline">
					<path d="M-424.912-204.752c-12.601,2.8-7.3,22.1,5.104,19.2c1.601-0.3,2.9-0.6,4.7-0.4c-0.601-0.1-0.402-0.3,0.2,0.1
						c2.098,1.3-1-1.5,0.397,0.4c-0.8-1-0.899-1-0.3-0.1c-1.2-2.7-0.098,2.5-0.2-0.4c0.103,0.9,0.103,1.7,0,2.6c0.2-1.2,0.2-1.2,0,0
						c-0.3,1.2-0.6,2.4-1.1,3.6c0.7-1.7-1,1.6-1.2,1.9c-0.697,1-0.697,1.1-0.197,0.4c-0.402,0.5-0.803,1-1.303,1.5
						c-2,2.3-3.5,3.2-6.8,4.8c-2.7,1.3-5.5,2.4-8.4,3.4c-6.6,2.3-13.5,4.3-19.6,7.8c-8,4.6-5.402,15.4,2.4,18.3
						c11,4.2,24.399,2.8,34.3-3.7c10.897-7.2,17.2-17.6,18.7-30.5c0.6-5.4-5-10-10-10c-5.9,0-9.4,4.6-10,10
						c-0.603,5.8-4.803,11.1-9.803,13.8c-5.897,3.2-11.598,3.4-17.897,1.1c0.798,6.1,1.598,12.2,2.397,18.3c7-4,17.2-6.3,25.7-10.1
						c8.4-3.8,15.7-9.8,19.7-18.3c3.7-8,5-18-0.101-25.8C-404.112-205.952-415.112-206.952-424.912-204.752L-424.912-204.752z"/>
				</g>
			</g>
			<g display="none">
				<g display="inline">
					<path d="M-440.211-214.652c-5.4,0.6-10,4-10,10c0,5,4.6,10.6,10,10c12-1.4,18.598,5.3,24.197,15.4
						c6.2,11.3,23.5,1.2,17.303-10.1C-407.314-204.852-421.514-216.752-440.211-214.652L-440.211-214.652z"/>
				</g>
			</g>
			<g display="none" opacity="0.1">
				<g display="inline">
					<path d="M-716.112-150.352c-5.4,1-8.4,7.3-6.899,12.4c1.5,5.6,7,8,12.3,7c20.899-4.1,38.7-22.2,52-37.7
						c14.2-16.6,27.398-34.9,35.7-55.3c2-5.1-2.2-11-7-12.3c-5.7-1.6-10.2,2-12.302,7c-0.398,1-0.398,1,0,0
						c-0.301,0.6-0.5,1.1-0.801,1.7c-0.5,0.9-0.9,1.7-1.3,2.6c-0.9,1.9-1.9,3.8-2.9,5.6c-2.3,4.1-4.698,8.2-7.3,12.1
						c-5.598,8.5-11.7,16.8-18.398,24.5c-6.699,7.7-14.401,16-22.302,21.9c-3.598,2.7-7.397,5.3-11.397,7.3
						C-709.512-152.152-711.812-151.152-716.112-150.352L-716.112-150.352z"/>
				</g>
			</g>
			<g display="none" opacity="0.1">
				<g display="inline">
					<path d="M-730.012-155.052c-12.199,4-7,23.3,5.204,19.3c7.801-2.7,15.7-5.3,23.5-8.2c10.5-3.8,20.7-8,30.9-12.4
						c10.8-4.7,22-9.1,32.3-14.6c10.601-5.6,20.2-12.7,30.5-18.8c12.3-7.3,25-12,38.3-17.2c21.2-8.3,42.2-19.5,62.7-27.1
						c9.101-3.4,18.5-6.1,28.101-7.5c11.8-1.7,25.1-1.5,37.399-1.5c58.599,0.1,117.399,6.3,173.7,23.1c27.8,8.3,54.2,19.9,81,31.1
						c29.4,12.3,58.7,24.4,87.4,38.1c4.897,2.3,10.8,1.4,13.697-3.6c2.601-4.4,1.299-11.4-3.6-13.7
						c-12.3-5.9-24.602-11.5-37.102-16.9c-29.2-12.7-58.7-24.9-88.101-37.2c-25.6-10.7-52-19.1-79-25.2
						c-28.7-6.6-58-10.9-87.399-13.3c-29.301-2.4-59.5-4-88.9-1.8c-21.2,1.6-40.5,7.7-59.9,16.4c-10.3,4.6-20.399,9.5-30.8,13.9
						c-13.3,5.7-27.2,9.9-40.3,16c-12,5.5-22.9,12.6-33.9,19.7c-10,6.5-20.399,11.4-31.3,16.3
						C-686.812-170.752-707.812-162.452-730.012-155.052L-730.012-155.052z"/>
				</g>
			</g>
			<g display="none" opacity="0.1">
				<g display="inline">
					<path d="M-716.112-181.952c-12.4,3.5-7.2,22.8,5.3,19.3c19.9-5.6,36.5-17.3,52.7-29.7c15.202-11.6,30.702-23.9,49.1-29.9
						c12.2-4,7-23.3-5.3-19.3c-19.8,6.4-36.3,18.5-52.7,31C-682.112-199.052-697.612-187.152-716.112-181.952L-716.112-181.952z"/>
				</g>
			</g>
			<g display="none" opacity="0.1">
				<g display="inline">
					<path d="M-733.812-167.752c-3.2,4.5-0.8,11.2,3.603,13.8c5.098,2.9,10.5,0.8,13.699-3.6c29-40.5,80.5-58.8,125.601-74.4
						c5.2-1.8,8.5-6.8,7-12.3c-1.402-5-7.102-8.8-12.3-7C-646.912-233.752-701.312-212.952-733.812-167.752L-733.812-167.752z"/>
				</g>
			</g>
			<g display="none" opacity="0.1">
				<g display="inline">
					<path d="M-722.312-126.152c-5.399,0.5-10,4.1-10.197,10.2c0,5,4.6,10.5,10,10c5.902-0.6,11.8-1.1,17.8-1.5
						c14.603-0.8,28.603-0.3,43,1.7c14.4,2,28.9,2.8,43.2,5c14.898,2.2,29.1,7.5,44,9.7c12.7,1.8,25.397,2.5,38.2,3.4
						c22.6,1.6,45.1,3.9,67.6,6.7c28.897,3.6,57.098,2.8,85.7-3.4c27.699-6,54.397-15.5,80.897-25.5
						c26.8-10.1,53.601-20.7,81.2-28.5c14.4-4.1,28.7-7.1,43.7-7.8c15.298-0.7,30.598-0.2,45.898-0.2c12.899,0,12.899-20,0-20
						c-6.698,0-13.301-0.2-20-0.2c-15.698-0.1-31.398,0.2-47,2.5c-14.5,2.1-28.698,6.3-42.698,10.8c-27.301,8.8-53.9,19.6-80.9,29.4
						c-26.398,9.6-53.3,18.5-81.2,22.8c-13.399,2.1-27.2,3-40.8,2.4c-14.7-0.7-29.298-3.1-43.9-4.7c-19.3-2.2-38.6-3.8-58-5.1
						c-5.899-0.4-11.899-0.8-17.8-1.4c-1.5-0.2-2.897-0.3-4.397-0.5c-0.603-0.1-2.902-0.4,0.197,0c-0.6-0.1-1.199-0.2-1.8-0.3
						c-2.5-0.4-4.899-0.8-7.399-1.3c-5.9-1.2-11.601-2.7-17.301-4.5c-13.3-4.2-27.897-5.2-41.699-6.6
						c-14.601-1.5-29.198-4.4-43.801-5C-694.011-128.552-708.209-127.552-722.312-126.152L-722.312-126.152z"/>
				</g>
			</g>
			<g display="none" opacity="0.1">
				<g display="inline">
					<path d="M-243.211-159.852c-5,2.1-6.101,9.4-3.699,13.7c3,5.1,8.698,5.8,13.698,3.6c13.2-5.8,27.2-14.1,34.802-26.8
						c7.798-13.2,6.698-29.1-2.102-41.6c-8.5-11.9-21.5-18.2-35.102-22.7c-11.399-3.8-24.599-6.5-34.2-14.1
						c-4.201-3.4-9.9-4.2-14.1,0c-3.5,3.5-4.301,10.7,0,14.1c10.1,7.9,21.7,12.3,33.8,16.2c9.902,3.2,21.603,6,29.3,13.3
						c7.9,7.5,10.4,17.3,4.5,25.7C-222.612-169.452-233.511-164.052-243.211-159.852L-243.211-159.852z"/>
				</g>
			</g>
			<g display="none" opacity="0.1">
				<g display="inline">
					<path d="M-339.812-259.552c-5.399-0.6-10,5.1-10.002,9.9c0,5.9,4.602,9.4,10,10c6.601,0.8,15.9,3.2,23.2,5.7
						c8.5,2.9,16.8,6.6,24.6,11.1c13.7,7.9,27.902,18.4,34.302,33.3c1.301,3.1,2.898,7.9,3.198,10.5c0.402,4.1,0.5,6.2-0.397,9.3
						c-1.4,4.9-4.103,8.4-9.5,12.6c-10.301,8-26,12.7-39.5,17.2c-12.2,4.1-7,23.4,5.3,19.3c17.3-5.7,36.101-11.3,50-23.6
						c15.4-13.6,17.5-33.4,9.7-51.8c-8.2-19.4-24.9-33.7-43-43.9C-299.812-250.052-319.412-257.152-339.812-259.552
						L-339.812-259.552z"/>
				</g>
			</g>
			<g display="none" opacity="0.1">
				<g display="inline">
					<path d="M-317.012-135.552c-4.3,3.5-3.6,10.6,0.002,14.2c4.103,4.1,9.902,3.4,14.103,0c33.397-27.3,72.5-78.3,47.199-122.6
						c-5.802,3.4-11.5,6.7-17.302,10.1c6.9,10.9,11.2,22.1,9.9,35.1c-1.3,12.1-5.9,24.4-9.2,36.2c6.402,1.8,12.902,3.5,19.3,5.3
						c4.101-19.3,14.101-36.8,14.4-57c-6.202,1.6-12.402,3.3-18.603,5c7.5,10.9,9.5,23.4,11.303,36.2c1.197,8.6,14.697,9.7,18.3,2.4
						c5.3-10.9,9.397-22.1,11.5-34c-6.402,0-12.902,0-19.3,0c3.5,8.8,7,17.5,10.5,26.3c4.1,10.3,18.8,9,19.6-2.7
						c0-1.2,2-5.4,2.8-7.4c1.298-3.3,2.2-6.5,2.4-10.1c-5.702,2.4-11.402,4.7-17.103,7.1c5,4.7,13.7,8.8,17.5,12.3
						c7,6.4,16,1.3,17.103-7.1c0.2-1.4,1.6-6.1,1.8-8.8c-5.702,2.4-11.402,4.7-17.1,7.1c10.897,10.3,25.197,12.9,39.5,14.9
						c5.399,0.8,10.697-1.2,12.3-7c1.3-4.7-1.603-11.5-7-12.3c-10.3-1.4-22.8-2.2-30.7-9.7c-6.702-6.2-16.5-1.5-17.1,7.1
						c-0.303,2.9-1.402,5.9-1.803,8.8c5.702-2.4,11.402-4.7,17.103-7.1c-5-4.7-13.7-8.8-17.5-12.3c-6.702-6.1-16.5-1.6-17.103,7.1
						c0,1.2-2,5.4-2.8,7.4c-1.298,3.3-2.2,6.5-2.397,10.1c6.5-0.9,13.1-1.8,19.6-2.7c-3.5-8.8-7-17.5-10.5-26.3
						c-1.6-4.2-4.8-7.3-9.6-7.3c-4.103,0-8.803,3-9.603,7.3c-1.8,10.2-4.897,19.9-9.5,29.2c6.103,0.8,12.2,1.6,18.3,2.4
						c-2.1-14.5-4.8-28.7-13.3-41c-5.5-8.1-18.399-5.4-18.6,5c-0.3,18.1-10,34.3-13.7,51.7c-2.598,12.5,15.8,17.8,19.3,5.3
						c4-14.4,9.5-29,10.103-44.1c0.697-15.5-4.603-29.7-12.803-42.6c-6.899-10.8-23.697-1.1-17.3,10.1c9.9,17.3,4.4,37.2-5.1,53.6
						C-288.012-163.152-301.612-148.152-317.012-135.552L-317.012-135.552z"/>
				</g>
			</g>
			<g display="none" opacity="0.1">
				<g display="inline">
					<path d="M-666.612-169.652c-0.2-12.9-20.2-12.9-20.002,0c0.3,21.4,8.5,44.7,27.8,56c11.202,6.5,21.202-10.8,10.103-17.3
						C-661.912-138.552-666.512-155.352-666.612-169.652L-666.612-169.652z"/>
				</g>
			</g>
			<g display="none" opacity="0.1">
				<g display="inline">
					<path d="M-638.612-182.852c0.1-12.9-19.9-12.9-20,0c0,25.8-2.5,53.5,17,73.7c8.902,9.3,23.1-4.8,14.1-14.1
						C-642.512-138.752-638.711-163.152-638.612-182.852L-638.612-182.852z"/>
				</g>
			</g>
			<g display="none" opacity="0.1">
				<g display="inline">
					<path d="M-644.211-181.652c4-12.3-15.301-17.5-19.303-5.2c-7.899,24-9.202,52.3,5.4,74.2c15.401,23.1,41.7,34.7,68.3,39.5
						c5.402,1,10.8-1.4,12.3-7c1.303-4.9-1.6-11.3-7-12.3c-12.397-2.3-24.8-5.6-35.697-11.9c-8.301-4.8-15.801-11.1-20.603-18.5
						c-5.198-8-8.1-17-8.5-26C-649.814-160.452-647.814-170.552-644.211-181.652L-644.211-181.652z"/>
				</g>
			</g>
			<g display="none" opacity="0.1">
				<g display="inline">
					<path d="M-696.512-131.052c-12.8,0.8-12.899,20.8,0.101,19.8c1.199,0,2.399-0.1,3.6-0.2c13.8-1.1,27.402-3.9,41.3-4.3
						c13.2-0.4,24.3,2.5,36.5,7.4c14.601,5.9,29.3,11.7,43.9,17.6c30.397,12.2,65,7.5,96.7,3.1c40.298-5.6,80.098-14.5,119.897-23
						c17.3-3.7,34.603-7.4,52.103-10.6c3.699-0.6,7.5-1.3,11.3-1.9c1.6-0.2,3.2-0.5,4.8-0.7c0.8-0.1,1.5-0.2,2.3-0.3
						c-2.697,0.4-0.197,0.1,0.303,0c5.197-0.7,10.5-1.2,15.697-1.2c12.9-0.1,12.9-20.1,0-20c-0.3,0-0.697,0-1,0
						c-12.897,0.2-26,2.6-38.697,4.9c-17.402,3.1-34.802,6.9-52.103,10.6c-39.798,8.6-79.598,17.5-119.897,23
						c-1.4,0.2-4,0.5-6.4,0.8c-2.3,0.3-4.5,0.6-6.7,0.8c-4.298,0.4-8.598,0.9-12.897,1.2c-8.103,0.6-16.302,1-24.5,0.9
						c-3.802,0-7.603-0.2-11.302-0.5c-1.601-0.1-3.199-0.3-4.801-0.5c2.7,0.3-1.901-0.4-2.6-0.5c-8.103-1.5-15.5-4.7-23.103-7.8
						c-13.5-5.4-27.1-10.5-40.5-16.2c-13.397-5.6-27.697-7.8-42.197-6.8C-668.709-134.552-682.512-131.952-696.512-131.052
						L-696.512-131.052z"/>
				</g>
			</g>
		</g>
	</g>
</g>
<path fill="#FFFFFF" d="M37.107,171.986c0.172,1.343,0.858,2.49,1.814,3.283c0.384,0.509,0.856,0.944,1.389,1.297
	c-2.103,5.462,6.034,9.984,8.898,4.455c1.49-2.876,2.721-5.82,3.794-8.807c0.719-0.56,1.322-1.345,1.71-2.388
	c1.398-3.767,2.746-7.611,3.737-11.523c0.696-0.217,1.367-0.615,1.959-1.24c2.296,1.878,6.297,2.111,7.8-1.042
	c4.964-10.413,12.512-18.848,20.53-26.92c1.035,1.756,3.061,2.86,5.481,2.218c4.524-1.199,8.855-3.016,13.04-5.23
	c3.15-0.35,6.283-0.914,9.379-1.659c0.524,0.039,1.058,0.009,1.581-0.111c4.376-1,8.722-2.195,13.037-3.527
	c0.671,2.556,2.976,4.627,5.963,3.527c9.489-3.493,18.398-7.941,26.983-12.931c1.694-0.109,3.389-0.231,5.082-0.367
	c8.109,2.366,17.615,1.242,26.152,0.207c34.024,3.184,68.516-2.074,102.453-4.73c5.257-0.411,7.238-8.857,1.329-9.821
	c-0.194-0.032-0.39-0.058-0.584-0.09c1.54-0.366,3.073-0.752,4.593-1.185c25.464-1.534,50.907-3.896,76.387-5.117
	c9.75-0.078,19.51-0.412,29.275-0.787c6.42-0.247,6.47-10.014,0-10c-10.484,0.022-20.961,0.358-31.433,0.873
	c-4.558,0.033-9.114,0.001-13.667-0.117c1.436-0.266,2.871-0.525,4.31-0.775c23.942,0.249,47.929-1.417,71.562-4.552
	c8.599-0.047,17.199-0.347,25.8-0.707c5.405,5.327,15.902,9.426,23.015,8.863c5.941-0.471,11.061-4.883,10.688-10.138
	c0.113-0.002,0.228-0.006,0.342-0.008c4.785,0.956,9.523,2.134,14.188,3.553c-2.698,5.403,1.175,11.411,6.742,13.958
	c7.119,3.256,17.402,3.545,24.784,0.872c2.273-0.823,4.271-3.194,3.611-5.75c0.187,0.069,0.376,0.137,0.563,0.206
	c-0.404,4.196,0.927,8.391,4.545,11.454c6.378,5.4,14.753,7.544,22.863,8.727c0.445,0.065,0.896,0.115,1.343,0.175
	c4.126,7.201,8.967,14.029,14.776,19.693c5.774,5.629,16.213,11.6,23.408,6.971c0.013,0.007,0.025,0.015,0.037,0.022
	c1.604,0.912,3.264,0.849,4.637,0.141c1.3,1.529,2.571,3.082,3.787,4.679c0.726,1.171,1.578,2.307,2.564,3.398
	c0.74,0.82,1.621,1.258,2.533,1.406c1.281,1.631,3.106,2.208,4.798,1.897c1.694,0.413,3.442-0.169,4.693-1.433
	c0.832,0.602,1.697,1.142,2.606,1.592c2.928,1.449,5.925,1.936,8.756,1.527c4.743,3.455,9.924,6.461,15.573,6.911
	c9.087,0.721,13.013-7.665,13.501-15.498c0.641-10.307-2.625-20.024-8.83-28.262c-0.631-0.837-1.289-1.665-1.964-2.486
	c-0.044-8-3.496-15.777-10.886-20.548c-6.604-4.263-14.732-6.441-23.066-7.046c-5.508-4.513-12.564-7.595-19.134-9.57
	c-10.548-3.171-22.51-4.955-33.973-4.146c-3.065-3.911-7.232-7.012-11.744-8.7c-2.718-1.017-5.266,1.124-6.15,3.492
	c-0.222,0.593-0.403,1.201-0.549,1.822c-0.202-0.103-0.405-0.209-0.606-0.311c-10.719-5.411-22.044-10.026-33.694-13.004
	c-1.96-0.501-3.702,0.153-4.851,1.37c-5.687-1.653-11.507-2.883-17.479-3.548c-4.18-0.465-5.676,4.492-4.317,7.523
	c0.337,0.752,0.713,1.484,1.112,2.204c-0.707-0.054-1.416-0.107-2.123-0.162c-0.446-1.451-1.563-2.744-3.343-3.387
	c-9.666-3.489-19.571-5.887-29.622-7.525c-0.393-1.978-1.931-3.652-4.707-3.653c-8.328-0.002-16.752-0.075-25.223-0.093
	c2.143-2.841,0.987-7.535-3.777-7.907c-28.846-2.25-57.99-3.344-86.842-0.877c-0.625-0.001-1.256-0.006-1.874-0.001
	c-15.897,0.114-32.265,1.756-47.613,6.057c-0.584,0.164-1.1,0.438-1.552,0.783c-25.614,0.631-53.327,0.944-76.643,12.721
	c-3.786,1.912-2.844,7.134,0.442,8.825c-0.017,0.007-0.034,0.013-0.052,0.02c-1.941,0.28-3.925,0.323-5.541,0.394
	c-4.775,0.21-9.548,0.095-14.326,0.079c-4.401-0.015-5.77,4.425-4.202,7.396c-5.49-0.607-11.036-0.763-16.575-0.59
	c0.439-0.421,0.885-0.834,1.313-1.271c2.882-2.939,0.968-8.853-3.535-8.536c-20.435,1.438-40.472,8.95-58.648,18.058
	c-13.104,6.566-26.284,14.344-37.545,24.08c-0.371,0.125-0.739,0.258-1.105,0.395c0.164-1.503,0.273-3.013,0.299-4.532
	c0.015-0.863-0.204-1.633-0.573-2.301c0.644-1.385,1.281-2.773,1.891-4.175c2.525-5.811-5.909-10.943-8.635-5.047
	c-3.603,7.794-7.71,15.553-11.776,23.382c-2.12,3.805-4.294,7.582-6.479,11.353c-3.451,4.195-6.27,8.836-7.943,13.751
	c-6.028,10.594-11.764,21.339-16.306,32.708C29.398,170.354,33.609,172.861,37.107,171.986z M647.708,118.018
	c0.76,1.026,1.864,2.477,2.929,4.112c-1.702,0.985-3.591,1.64-5.623,1.829c-1.088,0.102-2.187,0.128-3.29,0.12
	c-0.773-3.164-2.063-6.208-3.756-9.069c1.25-1.301,2.363-2.722,3.313-4.245C643.586,112.963,645.741,115.362,647.708,118.018z
	 M621.282,97.228c-0.252,0.466-0.479,0.951-0.682,1.453c-0.285-0.763-0.59-1.511-0.908-2.245
	C620.225,96.697,620.755,96.961,621.282,97.228z M633.393,104.358c-0.453,0.935-1.005,1.823-1.644,2.654
	c-0.75-0.759-1.527-1.497-2.332-2.205c-0.06-0.987,0.084-1.924,0.545-2.717C631.127,102.82,632.271,103.576,633.393,104.358z
	 M307.936,51.519c0.343,0.076,0.682,0.162,1.026,0.231c-3.452,0.289-6.917,0.58-10.387,0.832c-1.701-0.167-3.403-0.314-5.105-0.45
	C298.278,51.804,303.103,51.614,307.936,51.519z M658.733,111.176c-0.305,1.139-0.713,2.253-1.225,3.321
	c-3.512-5.246-7.854-9.887-12.697-13.962c0.04-0.407,0.059-0.819,0.077-1.23c2.156,0.799,4.276,1.931,6.23,3.317
	c1.235,0.964,2.43,1.974,3.579,3.023C656.36,107.323,657.752,109.192,658.733,111.176z M326.067,83.789
	c-0.152,0.011-0.304,0.022-0.456,0.033c0.084-0.311,0.135-0.627,0.164-0.947c0.069-0.016,0.14-0.031,0.21-0.047
	C325.983,83.154,326.014,83.474,326.067,83.789z M616.438,80.216c-2.001,0.382-3.948,0.84-5.827,1.369
	c-6.934-2.679-14.173-4.863-21.457-5.996c-0.309-0.128-0.617-0.256-0.928-0.382C597.883,75.188,607.696,76.999,616.438,80.216z
	 M659.989,140.542c0.084-0.104,0.174-0.198,0.257-0.304c1.751-2.238,2.713-4.709,3.077-7.262c1.55-1.32,2.925-3.001,4.063-5.128
	c0.42-0.784,0.769-1.572,1.084-2.361c1.138,3.394,1.662,6.888,1.431,10.604c-0.078,1.26-0.282,6.899-2.163,6.899
	C665.224,142.991,662.577,142,659.989,140.542z M572.387,94.981c-2.542-0.602-7.432-1.826-10.509-3.874
	c1.383,0.64,2.789,1.213,4.226,1.688c1.862,0.616,3.803,0.932,5.722,0.979C572.01,94.177,572.198,94.579,572.387,94.981z
	 M524.609,81.412c-0.325-0.178-0.778-0.394-1.173-0.658c0.413-0.143,0.829-0.275,1.25-0.394c1.896,0.723,3.438,0.221,4.465-0.872
	c0.004,0,0.008-0.001,0.012-0.002c1.967,0.976,4.221,2.154,6.123,3.629C531.44,83.384,527.419,82.949,524.609,81.412z"/>
<path fill="#FFFFFF" d="M62.688,243.997c0.228,0.33,26.384,2.659,26.674,2.945c0.077,0.227,0.138,0.458,0.23,0.679
	c1.826,4.333,5.236,6.605,9.184,7.124c-0.021,0.135,9.686-6.01,9.665-5.876c-0.535,0.362-10.771,7.076-11.196,7.583
	c-2.896,3.461-3.81,7.596-3.069,12.034c1.246,7.476,7.85,12.069,14.802,13.816c13.188,3.313,27.7,1.649,41.092-0.783
	c2.553,2.817,6.124,2.736,9.228,1.319c3.83,2.354,8.098,4.114,12.282,5.366c0.441,0.195,0.898,0.329,1.359,0.386
	c13.794,3.886,28.616,4.628,42.856,3.956c11.829-0.559,24.526-1.165,34.698-7.841c0.218-0.143,0.441-0.292,0.664-0.439
	c0.086,0.039,0.172,0.077,0.258,0.115c4.51,4.771,10.023,8.759,14.182,11.36c6.934,4.338,18.058,9.893,26.876,8.072
	c0.798,0.396,1.6,0.784,2.396,1.181c5.659,3.225,11.452,6.229,17.499,8.82c4.295,1.84,8.242-2.192,7.554-5.606
	c1.646,0.158,3.302,0.26,4.97,0.289c1.09,0.02,1.996-0.246,2.72-0.698c8.012,2.09,16.44,3.075,24.573,3.435
	c6.021,3.541,12.324,6.352,19.707,6.264c21.75-0.26,43.074-8.598,62.523-17.683c1.015-0.474,1.686-1.178,2.074-1.988
	c48.398-9.6,88.691-40.768,132.926-61.012c5.398-2.471,1.502-9.975-3.696-9.055c-1.417-1.056-3.342-1.48-5.351-0.58
	c-2.409,1.154-4.874,2.093-7.378,2.882c0.236-1.943-0.993-3.856-2.733-4.849c2.734-1.083,5.456-2.211,8.158-3.398
	c4.816-2.116,2.058-9.208-2.523-9.317c-26.096-0.625-52.023,2.611-77.93,5.28c-15.72,1.619-31.43,2.613-47.172,3.256
	c-11.578-1.191-23.359-0.783-34.924,0.363c1.098-0.39,2.199-0.813,3.326-1.31c1.094-0.481,2.176-0.995,3.25-1.522
	c10.371-3.333,21.223-7.2,29.973-13.75c4.407-3.299,1.967-10.509-3.853-9.139c-2.746,0.646-5.38,1.538-7.946,2.583
	c1.209-2.949-1.374-7.142-4.725-6.762c-10.394,1.178-17.999,6.715-26.703,11.978c-9.568,5.786-19.702,8.149-30.657,9.811
	c-11.527,1.748-23.064,3.36-34.585,5.167c-12.139,1.903-24.511,3.272-36.726,1.224c-1.968-0.33-3.674,0.377-4.818,1.553
	c-7.293-0.051-14.535,0.115-21.233-0.503c-13.691-1.263-27.214-6.719-39.911-11.68c-11.318-4.422-22.492-8.817-33.45-14.074
	c-19.111-9.169-42.229-20.935-63.003-9.844c-11.225,5.993-19.614,15.813-26.155,26.738C85.521,214.74,54.769,232.489,62.688,243.997
	z M460.91,264.519c0.925,0.021,1.85,0.055,2.772,0.1c-0.912,0.264-1.83,0.508-2.748,0.749
	C460.952,265.087,460.944,264.804,460.91,264.519z M174.361,225.367c0.066-0.162,0.129-0.325,0.19-0.488
	c0.32,0.356,0.646,0.71,0.987,1.053C175.151,225.76,174.759,225.57,174.361,225.367z M157.388,222.522
	c0.436,0.803,0.918,1.58,1.443,2.331c-0.149,0.416-0.3,0.832-0.438,1.251c-0.089-0.239-0.174-0.48-0.272-0.719
	c-0.331-0.801-0.707-1.569-1.12-2.308C157.132,222.893,157.261,222.708,157.388,222.522z M197.817,223.587
	c0.276,0.086,0.553,0.171,0.83,0.257c0.46,0.495,0.93,0.981,1.402,1.466C199.303,224.739,198.561,224.163,197.817,223.587z
	 M141.002,241.67c-0.259-0.171-0.53-0.327-0.806-0.479c0.334-0.595,0.622-1.214,0.883-1.845c0.215,0.255,0.453,0.489,0.709,0.701
	C141.524,240.584,141.262,241.125,141.002,241.67z M136.054,255.958c-0.355,0.382-0.811,0.729-1.403,1.01
	c-0.239,0.114-0.521,0.209-0.819,0.296c0.107-0.435,0.201-0.871,0.287-1.308C134.764,255.984,135.41,255.989,136.054,255.958z
	 M236.286,280.218c-5.879,1.239-11.905,1.925-17.939,2.255c1.432-0.717,2.791-1.45,4.043-2.146c2.694-1.498,5.545-3.138,8.331-4.951
	c2.989,1.258,5.973,2.532,8.949,3.822C238.567,279.627,237.438,279.975,236.286,280.218z M116.867,273.635
	c-0.074-0.009-0.156-0.02-0.231-0.028c0.045-0.029,0.089-0.063,0.133-0.095c2.627,0.26,5.28-0.218,7.617-1.786
	c1.639-1.1,3.1-2.489,4.379-4.066c3.422,0.328,6.888-0.124,9.867-1.451c0.055,2.26,0.487,4.555,1.172,6.778
	C132.195,273.973,124.438,274.488,116.867,273.635z M106.106,270.179c0.367-0.134,0.721-0.309,1.063-0.51
	c0.574,0.792,1.242,1.571,2.033,2.332C108.047,271.544,106.999,270.938,106.106,270.179z"/>
</svg>
