<?xml version="1.0" encoding="utf-8"?>
<!-- Generator: Adobe Illustrator 16.0.0, SVG Export Plug-In . SVG Version: 6.00 Build 0)  -->
<!DOCTYPE svg PUBLIC "-//W3C//DTD SVG 1.1//EN" "http://www.w3.org/Graphics/SVG/1.1/DTD/svg11.dtd">
<svg version="1.1" id="Layer_1" xmlns="http://www.w3.org/2000/svg" xmlns:xlink="http://www.w3.org/1999/xlink" x="0px" y="0px"
	 width="999.138px" height="440.153px" viewBox="0 0 999.138 440.153" enable-background="new 0 0 999.138 440.153"
	 xml:space="preserve">
<g opacity="0.1">
	<g>
		<path d="M886.494,284.528c-3.635,2.111-7.366,3.999-11.238,5.637c5.972-2.521,11.944-5.041,17.916-7.562
			c-6.127,2.496-12.447,4.269-19,5.198c6.646-0.893,13.292-1.786,19.938-2.679c-6.453,0.824-12.907,0.805-19.359-0.018
			c6.646,0.893,13.292,1.786,19.938,2.679c-7.678-1.077-15.08-3.245-22.229-6.227c5.972,2.52,11.944,5.04,17.916,7.561
			c-10.533-4.513-20.228-10.626-29.312-17.576c5.06,3.909,10.119,7.818,15.179,11.727c-26.161-20.254-46.608-46.495-67.119-72.169
			c-3.692-4.621-7.406-9.231-11.325-13.662c-7-7.914-14.976-13.465-23.645-19.966c-6.813-5.109-15.508-7.172-23.382-10.268
			c-6.368-2.504-12.888-4.613-19.443-6.561c-12.635-3.753-25.517-6.633-38.359-9.564c-19.667-4.489-39.395-9.076-58.087-16.813
			c5.973,2.52,11.944,5.04,17.916,7.561c-10.84-4.601-21.097-10.256-30.48-17.394c5.06,3.909,10.119,7.818,15.179,11.728
			c-14.073-11.003-27.435-22.961-43.184-31.559c-15.421-8.418-32.17-15.113-49.035-20.078c-11.292-3.324-22.907-5.483-34.552-7.117
			c-18.373-2.578-36.616-4.821-55.114-6.038c-25.712-1.692-51.352-2.706-76.944-5.908c-14.298-1.789-28.582-3.679-42.969-4.598
			c-21.435-1.369-42.167,1.053-63.388,4.399c6.646-0.893,13.292-1.786,19.938-2.679c-31.304,4.148-62.301,9.1-93.273,15.227
			c-25.158,4.977-50.285,10.082-75.602,14.204c-5.972,2.52-11.944,5.04-17.916,7.561c-11.27,6.667-20.239,15.636-26.906,26.906
			c-10.147,17.321-12.885,38.434-7.561,57.792c5.157,18.747,17.701,35.001,34.467,44.822c5.972,2.521,11.944,5.04,17.916,7.561
			c13.292,3.572,26.584,3.572,39.876,0c49.16-8.004,97.624-19.83,147.01-26.497c-6.646,0.893-13.292,1.786-19.938,2.679
			c8.568-1.136,17.135-2.273,25.689-3.513c-6.646,0.893-13.292,1.786-19.938,2.679c35.25-4.673,70.168,2.663,105.173,6.013
			c29.3,2.804,58.792,2.677,88.014,6.504c-6.646-0.893-13.292-1.786-19.938-2.679c18.749,2.542,37.265,6.625,54.78,13.908
			c-5.972-2.52-11.944-5.04-17.916-7.56c10.933,4.674,21.204,10.532,30.643,17.775c-5.06-3.909-10.119-7.818-15.179-11.728
			c16.085,12.665,31.245,25.907,49.864,34.652c18.509,8.693,37.408,15.823,57.151,20.991c28.479,7.455,57.73,12.089,85.163,23.134
			c-5.972-2.521-11.943-5.041-17.915-7.561c1.015,0.479,1.938,1.095,2.835,1.768c-5.06-3.909-10.119-7.818-15.179-11.728
			c8.017,6.209,14.229,15.083,20.497,22.938c9.784,12.262,19.509,24.566,29.922,36.306c15.81,17.821,33.266,32.477,52.188,46.955
			c6.713,5.136,13.838,9.733,21.35,13.612c12.527,6.468,25.957,12.418,39.748,15.732c39.438,9.48,79.85,3.389,114.928-16.986
			c35.294-20.502,47.522-67.422,26.906-102.614C968.421,276.122,921.859,263.986,886.494,284.528L886.494,284.528z"/>
	</g>
</g>
<g opacity="0.9">
	<g>
		<path fill="#606161" d="M939.59,272.304c-15.507,1.977-29.301,7.988-43.909,13.092c-16.257,5.68-31.448,4.51-47.071-2.736
			c-2.904-1.348-5.446,2.961-2.523,4.316c15.102,7.004,30.218,9.316,46.344,4.709c15.967-4.563,30.459-12.252,47.16-14.381
			C942.744,276.901,942.783,271.897,939.59,272.304L939.59,272.304z"/>
	</g>
</g>
<g opacity="0.9">
	<g>
		<path fill="#606161" d="M958.243,275.757c-7.275,31.293-49.183,23.984-73.012,25.104c-3.21,0.152-3.225,5.152,0,5
			c26.415-1.242,69.829,5.654,77.834-28.773C963.793,273.948,958.973,272.616,958.243,275.757L958.243,275.757z"/>
	</g>
</g>
<g opacity="0.9">
	<g>
		<path fill="#606161" d="M981.687,290.296c-24.497,11.734-49.416,24.998-77.346,24.307c-3.227-0.08-3.219,4.92,0,5
			c28.831,0.715,54.578-12.875,79.869-24.99C987.118,293.22,984.58,288.909,981.687,290.296L981.687,290.296z"/>
	</g>
</g>
<g opacity="0.9">
	<g>
		<path fill="#606161" d="M986.439,315.94c-25.185,11.83-53.287,15.627-80.867,13.076c-3.211-0.297-3.183,4.707,0,5
			c28.497,2.637,57.403-1.551,83.391-13.76C991.879,318.886,989.339,314.577,986.439,315.94L986.439,315.94z"/>
	</g>
</g>
<g opacity="0.9">
	<g>
		<path fill="#606161" d="M980.107,351.692c-22.277,1.178-41.209-9.945-59.138-21.832c-2.696-1.787-5.197,2.545-2.523,4.318
			c18.65,12.363,38.519,23.738,61.661,22.514C983.314,356.522,983.331,351.521,980.107,351.692L980.107,351.692z"/>
	</g>
</g>
<g opacity="0.9">
	<g>
		<path fill="#606161" d="M967.334,363.659c-7.295,11.789-25.454,6.455-36.044,3.32c-12.836-3.801-24.966-9.865-37.901-13.289
			c-3.121-0.824-4.444,3.998-1.33,4.822c14.89,3.939,28.749,11.064,43.712,14.896c12.052,3.086,28.283,5.051,35.88-7.227
			C973.353,363.433,969.027,360.923,967.334,363.659L967.334,363.659z"/>
	</g>
</g>
<g opacity="0.9">
	<g>
		<path fill="#606161" d="M978.325,395.829c-25.256,1.031-49.985-9.711-68.466-26.578c-2.376-2.17-5.922,1.357-3.535,3.535
			c19.423,17.727,45.433,29.129,72.001,28.043C981.538,400.698,981.55,395.698,978.325,395.829L978.325,395.829z"/>
	</g>
</g>
<g opacity="0.9">
	<g>
		<path fill="#606161" d="M953.19,404.415c-21.549,3.049-39.981-13.393-56.184-25.105c-2.618-1.895-5.109,2.447-2.523,4.316
			c17.696,12.795,36.662,28.918,60.035,25.611C957.701,408.786,956.341,403.97,953.19,404.415L953.19,404.415z"/>
	</g>
</g>
<g opacity="0.9">
	<g>
		<path fill="#606161" d="M907.066,410.366c-6.824-3.715-13.555-7.598-20.337-11.389c-2.817-1.576-5.338,2.744-2.523,4.316
			c6.782,3.791,13.512,7.674,20.337,11.391C907.375,416.226,909.898,411.907,907.066,410.366L907.066,410.366z"/>
	</g>
</g>
<g opacity="0.9">
	<g>
		<path fill="#606161" d="M943.961,425.813c-6.344-1.623-12.498-3.789-18.516-6.365c-2.93-1.254-5.479,3.051-2.523,4.318
			c6.42,2.748,12.938,5.137,19.711,6.869C945.758,431.437,947.083,426.612,943.961,425.813L943.961,425.813z"/>
	</g>
</g>
<g opacity="0.9">
	<g>
		<path fill="#606161" d="M904.448,435.905c-1.47-1.182-2.962-2.338-4.471-3.469c-1.093-0.82-2.791-0.178-3.42,0.896
			c-0.749,1.277-0.191,2.604,0.896,3.42c1.214,0.912,2.238,1.705,3.459,2.688c1.061,0.854,2.494,1.041,3.535,0
			C905.333,438.556,905.511,436.761,904.448,435.905L904.448,435.905z"/>
	</g>
</g>
<g opacity="0.9">
	<g>
		<path fill="#606161" d="M959.939,355.55c-22.179-0.297-43.728-5.215-65.155-10.52c-3.13-0.773-4.457,4.047-1.328,4.822
			c21.852,5.41,43.867,10.395,66.483,10.697C963.165,360.593,963.161,355.593,959.939,355.55L959.939,355.55z"/>
	</g>
</g>
<g opacity="0.9">
	<g>
		<path fill="#606161" d="M973.668,302.675c6.621,19.857-3.209,41.068-21.641,50.369c-2.879,1.451-0.348,5.766,2.523,4.316
			c20.321-10.254,31.224-34.164,23.938-56.016C977.475,298.302,972.645,299.606,973.668,302.675L973.668,302.675z"/>
	</g>
</g>
<g opacity="0.9">
	<g>
		<path fill="#606161" d="M978.445,348.995c-1.985,30.035-42.704,29.338-64.542,27.568c-3.216-0.262-3.19,4.74,0,5
			c25.224,2.045,67.321,1.035,69.542-32.568C983.658,345.774,978.657,345.796,978.445,348.995L978.445,348.995z"/>
	</g>
</g>
<g opacity="0.9">
	<g>
		<path fill="#606161" d="M978.678,381.479c-11.985,27.66-49.94,16.699-71.818,9.922c-3.089-0.955-4.399,3.871-1.33,4.822
			c24.064,7.455,64.414,17.902,77.465-12.221C984.263,381.077,979.957,378.528,978.678,381.479L978.678,381.479z"/>
	</g>
</g>
<g opacity="0.9">
	<g>
		<path fill="#606161" d="M934.137,401.345c-26.33,9.504-55.964,1.773-79.758-11.135c-2.834-1.539-5.358,2.779-2.523,4.316
			c24.898,13.51,56.053,21.586,83.609,11.641C938.474,405.081,937.177,400.247,934.137,401.345L934.137,401.345z"/>
	</g>
</g>
<g opacity="0.9">
	<g>
		<path fill="#606161" d="M898.881,388.554c-51.546,9.131-103.471-19.529-142.057-51.074c-2.474-2.023-6.033,1.492-3.535,3.535
			c40.126,32.805,93.388,61.844,146.92,52.361C903.381,392.813,902.033,387.997,898.881,388.554L898.881,388.554z"/>
	</g>
</g>
<g opacity="0.9">
	<g>
		<path fill="#606161" d="M862.678,380.417c-3.754-11.125-11.826-18.861-20.105-26.789c-9.787-9.371-19.049-19.508-28.076-29.613
			c-19.842-22.211-37.565-46.217-54.275-70.842c-1.799-2.651-6.133-0.152-4.316,2.523c15.637,23.045,32.191,45.463,50.399,66.551
			c9.077,10.514,18.717,20.539,28.323,30.559c8.666,9.039,19.07,16.615,23.229,28.941
			C858.881,384.784,863.711,383.481,862.678,380.417L862.678,380.417z"/>
	</g>
</g>
<g opacity="0.9">
	<g>
		<path fill="#606161" d="M870.709,335.839c-32.848-3.707-64.721-21.996-88.749-44.064c-2.369-2.178-5.915,1.35-3.535,3.535
			c25.1,23.053,58.018,41.662,92.284,45.529C873.911,341.2,873.875,336.196,870.709,335.839L870.709,335.839z"/>
	</g>
</g>
<g opacity="0.9">
	<g>
		<path fill="#606161" d="M879.305,308.772c-29.932-4.104-55.694-22.236-77.787-41.807c-22.527-19.957-42.058-42.957-61.863-65.53
			c-2.13-2.428-5.652,1.123-3.535,3.535c20.159,22.978,40.082,46.235,63.011,66.546c22.28,19.736,48.702,37.945,78.845,42.078
			C881.127,314.026,882.487,309.21,879.305,308.772L879.305,308.772z"/>
	</g>
</g>
<g opacity="0.9">
	<g>
		<path fill="#606161" d="M827.286,289.728c-57.441-9.6-105.882-50.768-145.905-90.575c-2.287-2.275-5.823,1.259-3.535,3.535
			c40.578,40.36,89.878,82.13,148.112,91.862C829.11,295.077,830.461,290.259,827.286,289.728L827.286,289.728z"/>
	</g>
</g>
<g opacity="0.9">
	<g>
		<path fill="#606161" d="M724.011,228.814c-33.373-17.547-62.846-40.703-87.836-68.934c-2.141-2.419-5.664,1.13-3.535,3.535
			c25.251,28.525,55.127,51.986,88.848,69.716C724.338,234.631,726.866,230.315,724.011,228.814L724.011,228.814z"/>
	</g>
</g>
<g opacity="0.9">
	<g>
		<path fill="#606161" d="M651.95,186.836c-18.549-4.193-33.071-17.794-45.629-31.326c-12.866-13.865-23.94-29.327-37.168-42.86
			c-2.257-2.309-5.79,1.229-3.535,3.535c13.558,13.871,24.952,29.697,38.144,43.911c12.786,13.778,28.036,27.306,46.858,31.561
			C653.76,192.367,655.094,187.547,651.95,186.836L651.95,186.836z"/>
	</g>
</g>
<g opacity="0.9">
	<g>
		<path fill="#606161" d="M639.096,156.332c-45.718-19.022-69.957-67.81-112.526-91.726c-2.814-1.581-5.334,2.738-2.523,4.317
			c43.03,24.175,67.356,72.939,113.72,92.23C640.743,162.392,642.028,157.552,639.096,156.332L639.096,156.332z"/>
	</g>
</g>
<g opacity="0.9">
	<g>
		<path fill="#606161" d="M722.006,218.011c0.55-16.875-8.964-31.275-19.89-43.3c-11.932-13.133-26.318-23.68-39.517-35.45
			c-2.397-2.139-5.946,1.385-3.535,3.535c12.165,10.848,25.167,20.71,36.603,32.368c11.323,11.543,21.89,25.937,21.339,42.847
			C716.901,221.237,721.902,221.227,722.006,218.011L722.006,218.011z"/>
	</g>
</g>
<g opacity="0.9">
	<g>
		<path fill="#606161" d="M659.083,164.016c-29.259-42.649-63.348-84.083-104.409-115.896c-2.515-1.949-6.081,1.563-3.535,3.535
			c40.727,31.555,74.606,72.583,103.628,114.884C656.577,169.18,660.913,166.682,659.083,164.016L659.083,164.016z"/>
	</g>
</g>
<g opacity="0.9">
	<g>
		<path fill="#606161" d="M573.555,120.358c-0.491-12.056-8.248-22.743-15.623-31.71c-11.124-13.526-24.62-25.128-38.237-36.055
			C495.68,33.32,469.939,15.665,443.21,0.352c-2.802-1.605-5.32,2.715-2.523,4.317c25.665,14.704,50.347,31.604,73.549,49.928
			c13.052,10.308,25.724,21.294,36.827,33.707c7.716,8.626,16.997,19.893,17.492,32.054
			C568.686,123.571,573.687,123.583,573.555,120.358L573.555,120.358z"/>
	</g>
</g>
<g opacity="0.9">
	<g>
		<path fill="#606161" d="M505.113,101.201c-12.52-13.25-28.777-23.516-43.729-33.739c-16.24-11.104-32.809-21.711-49.348-32.361
			c-2.72-1.751-5.224,2.579-2.523,4.317c15.783,10.163,31.578,20.304,47.116,30.841c15.374,10.426,32.111,20.89,44.95,34.477
			C503.796,107.084,507.325,103.542,505.113,101.201L505.113,101.201z"/>
	</g>
</g>
<g opacity="0.9">
	<g>
		<path fill="#606161" d="M414.271,72.276c-23.293-27.696-58.588-43.5-90.482-58.911c-2.889-1.396-5.426,2.915-2.523,4.317
			c31.519,15.229,66.455,30.764,89.47,58.129C412.814,78.282,416.333,74.727,414.271,72.276L414.271,72.276z"/>
	</g>
</g>
<g opacity="0.9">
	<g>
		<path fill="#606161" d="M372.745,57.229c-19.309-16.416-46.132-23.83-70.981-25.813c-3.216-0.257-3.191,4.745,0,5
			c23.421,1.869,49.233,8.865,67.446,24.348C371.65,62.839,375.205,59.32,372.745,57.229L372.745,57.229z"/>
	</g>
</g>
<g opacity="0.9">
	<g>
		<path fill="#606161" d="M403.89,107.389c-33.617-33.904-74.84-56.022-120.495-69.196c-3.105-0.896-4.421,3.929-1.329,4.821
			c44.861,12.945,85.255,34.594,118.289,67.91C402.627,113.216,406.162,109.68,403.89,107.389L403.89,107.389z"/>
	</g>
</g>
<g opacity="0.9">
	<g>
		<path fill="#606161" d="M332.44,90.278c-39.207-27.543-79.88-55.133-126.91-67.133c-3.126-0.798-4.452,4.024-1.329,4.821
			c46.606,11.892,86.865,39.336,125.715,66.629C332.562,96.454,335.057,92.116,332.44,90.278L332.44,90.278z"/>
	</g>
</g>
<g opacity="0.9">
	<g>
		<path fill="#606161" d="M268.419,78.574C235.748,59.7,196.065,63.089,159.877,64.856c-3.209,0.157-3.224,5.157,0,5
			c35.231-1.72,74.192-5.351,106.018,13.035C268.692,84.507,271.209,80.186,268.419,78.574L268.419,78.574z"/>
	</g>
</g>
<g opacity="0.9">
	<g>
		<path fill="#606161" d="M730.999,402.991c-7.58-0.555-15.149-1.23-22.711-1.994c-3.207-0.324-3.176,4.678,0,5
			c7.562,0.764,15.131,1.439,22.711,1.994C734.217,408.226,734.194,403.224,730.999,402.991L730.999,402.991z"/>
	</g>
</g>
<g opacity="0.9">
	<g>
		<path fill="#606161" d="M717.731,352.038c-25.343-7.541-51.483-11.949-76.825-19.49c-3.099-0.92-4.412,3.904-1.33,4.822
			c25.343,7.541,51.483,11.949,76.825,19.49C719.5,357.782,720.813,352.956,717.731,352.038L717.731,352.038z"/>
	</g>
</g>
<g opacity="0.9">
	<g>
		<path fill="#606161" d="M747.062,335.44c-33.034-5.391-65.611-13.936-97.331-24.57c-3.066-1.027-4.37,3.803-1.33,4.822
			c31.721,10.635,64.297,19.18,97.331,24.57C748.885,340.776,750.238,335.958,747.062,335.44L747.062,335.44z"/>
	</g>
</g>
<g opacity="0.9">
	<g>
		<path fill="#606161" d="M660.327,293.187c-22.188-10.699-47.04-13.357-69.937-22.09c-3.019-1.15-4.312,3.684-1.33,4.822
			c22.474,8.57,46.979,11.09,68.743,21.584C660.693,298.897,663.231,294.585,660.327,293.187L660.327,293.187z"/>
	</g>
</g>
<g opacity="0.9">
	<g>
		<path fill="#606161" d="M601.567,259.628c-4.577-0.439-9.148-0.928-13.711-1.504c-3.193-0.404-3.154,4.602,0,5
			c4.563,0.576,9.134,1.064,13.711,1.504C604.777,264.937,604.747,259.935,601.567,259.628L601.567,259.628z"/>
	</g>
</g>
<g opacity="0.9">
	<g>
		<path fill="#606161" d="M650.061,264.72c-14.982-2.35-30.101-3.422-45.193-4.783c-3.212-0.289-3.185,4.713,0,5
			c14.645,1.322,29.326,2.326,43.863,4.605C651.884,270.036,653.239,265.22,650.061,264.72L650.061,264.72z"/>
	</g>
</g>
<g opacity="0.9">
	<g>
		<path fill="#606161" d="M564.214,219.805c-17.783,0.607-35.574-0.321-53.357,0.286c-3.215,0.11-3.226,5.11,0,5
			c17.783-0.607,35.574,0.321,53.357-0.286C567.429,224.695,567.44,219.694,564.214,219.805L564.214,219.805z"/>
	</g>
</g>
<g opacity="0.9">
	<g>
		<path fill="#606161" d="M543.646,203.877c-16.486-1.491-29.629,7.705-39.001,20.537c-1.905,2.608,2.437,5.099,4.317,2.523
			c8.385-11.48,20.003-19.387,34.684-18.06C546.858,209.168,546.83,204.166,543.646,203.877L543.646,203.877z"/>
	</g>
</g>
<g opacity="0.9">
	<g>
		<path fill="#606161" d="M497.367,209.23c-8.641,1.851-16.301,5.557-23.405,10.778c-2.568,1.888-0.079,6.23,2.523,4.317
			c6.776-4.981,13.959-8.507,22.21-10.274C501.849,213.376,500.511,208.556,497.367,209.23L497.367,209.23z"/>
	</g>
</g>
<g opacity="0.9">
	<g>
		<path fill="#606161" d="M469.805,202.551c-14.273,2.354-29.634,0.327-43.935-0.813c-14.794-1.179-29.655-3.054-44.512-3.121
			c-3.225-0.015-3.224,4.985,0,5c15.315,0.069,30.645,2.016,45.896,3.231c14.375,1.146,29.542,2.888,43.879,0.524
			C474.31,206.849,472.958,202.031,469.805,202.551L469.805,202.551z"/>
	</g>
</g>
<g opacity="0.9">
	<g>
		<path fill="#606161" d="M380.694,180.314c-13.341,3.371-25.45,9.753-38.067,15.048c-2.927,1.228-1.643,6.068,1.329,4.821
			c12.609-5.291,24.74-11.68,38.067-15.048C385.148,184.346,383.822,179.524,380.694,180.314L380.694,180.314z"/>
	</g>
</g>
<g opacity="0.9">
	<g>
		<path fill="#606161" d="M367.984,162.174c-18.538,8.214-36.118,18.267-53.64,28.424c-2.788,1.616-0.271,5.938,2.523,4.317
			c17.521-10.158,35.102-20.21,53.64-28.424C373.451,165.188,370.904,160.88,367.984,162.174L367.984,162.174z"/>
	</g>
</g>
<g opacity="0.9">
	<g>
		<path fill="#606161" d="M764.586,314.296c-21.148-42.504-54.551-77.441-91.941-106.128
			c-38.654-29.657-82.281-52.744-127.549-70.529c-18.975-7.455-38.37-13.852-58.058-19.141c-3.118-0.838-4.44,3.986-1.329,4.821
			c45.772,12.295,89.964,30.578,131.151,54.013c42.607,24.244,82.42,54.727,113.418,92.95
			c11.646,14.359,21.755,29.982,29.992,46.537C761.706,319.706,766.018,317.173,764.586,314.296L764.586,314.296z"/>
	</g>
</g>
<g opacity="0.9">
	<g>
		<path fill="#606161" d="M779.333,286.021c-48.206-56.103-94.515-114.063-147.408-165.919c-2.303-2.258-5.841,1.275-3.535,3.535
			c52.893,51.857,99.201,109.818,147.408,165.919C777.903,292.005,781.423,288.452,779.333,286.021L779.333,286.021z"/>
	</g>
</g>
<g opacity="0.9">
	<g>
		<path fill="#606161" d="M634.944,214.571c-15.717-36.138-46.063-65.616-75.294-91.065
			c-34.907-30.391-73.313-56.948-113.225-80.313c-24.524-14.357-49.921-27.736-76.511-37.874c-3.018-1.151-4.311,3.685-1.329,4.821
			c37.566,14.323,72.976,34.905,106.655,56.664c39.021,25.21,76.591,53.595,109.197,86.795c18.267,18.6,35.707,39.392,46.188,63.496
			C631.909,220.045,636.215,217.497,634.944,214.571L634.944,214.571z"/>
	</g>
</g>
<g opacity="0.9">
	<g>
		<path fill="#606161" d="M540.346,135.67c-88.16-27.258-168.58-74.568-255.221-105.837c-3.04-1.097-4.338,3.735-1.329,4.821
			c86.64,31.27,167.057,78.578,255.221,105.837C542.106,141.447,543.417,136.62,540.346,135.67L540.346,135.67z"/>
	</g>
</g>
<g opacity="0.9">
	<g>
		<path fill="#606161" d="M424.147,101.982c-40.214-18.725-76.175-45.62-118.259-60.445c-3.049-1.074-4.349,3.758-1.329,4.821
			c41.653,14.673,77.255,41.404,117.064,59.941C424.527,107.651,427.068,103.342,424.147,101.982L424.147,101.982z"/>
	</g>
</g>
<g opacity="0.9">
	<g>
		<path fill="#606161" d="M348.52,102.373c-34.614-28.364-71.428-53.845-109.517-77.304c-2.753-1.696-5.263,2.63-2.523,4.317
			c37.723,23.234,74.221,48.429,108.505,76.522C347.457,107.934,351.016,104.418,348.52,102.373L348.52,102.373z"/>
	</g>
</g>
<g opacity="0.9">
	<g>
		<path fill="#606161" d="M276.474,98.386c-25.076-9.014-41.904-32.44-59.459-51.189c-2.208-2.358-5.736,1.185-3.535,3.535
			c18.272,19.516,35.58,43.099,61.665,52.476C278.186,104.3,279.484,99.468,276.474,98.386L276.474,98.386z"/>
	</g>
</g>
<g opacity="0.9">
	<g>
		<path fill="#606161" d="M279.935,110.09c-39.461-13.138-80.787-18.747-121.123-28.424c-3.134-0.752-4.464,4.069-1.329,4.821
			c40.336,9.678,81.662,15.287,121.123,28.424C281.673,115.933,282.978,111.103,279.935,110.09L279.935,110.09z"/>
	</g>
</g>
<g opacity="0.9">
	<g>
		<path fill="#606161" d="M208.326,73.216c-18.937-0.057-37.774-1.705-56.436-4.927c-3.153-0.544-4.502,4.273-1.329,4.821
			c19.099,3.297,38.381,5.047,57.765,5.105C211.55,78.226,211.549,73.226,208.326,73.216L208.326,73.216z"/>
	</g>
</g>
<g opacity="0.9">
	<g>
		<path fill="#606161" d="M196.214,98.296c-32.91-0.066-65.718-3.278-98.628-3.344c-3.225-0.006-3.224,4.994,0,5
			c32.91,0.066,65.718,3.278,98.628,3.344C199.438,103.303,199.438,98.303,196.214,98.296L196.214,98.296z"/>
	</g>
</g>
<g opacity="0.9">
	<g>
		<path fill="#606161" d="M147.765,115.017c-35.724,1.94-69.405,14.951-102.753,26.841c-3.014,1.075-1.716,5.907,1.329,4.821
			c32.885-11.725,66.192-24.75,101.424-26.663C150.971,119.842,150.988,114.842,147.765,115.017L147.765,115.017z"/>
	</g>
</g>
<g opacity="0.9">
	<g>
		<path fill="#606161" d="M102.739,150.861c-20.835,16.606-44.911,28.533-65.752,45.145c-2.521,2.009,1.042,5.523,3.535,3.535
			c20.835-16.606,44.911-28.532,65.752-45.145C108.796,152.387,105.233,148.873,102.739,150.861L102.739,150.861z"/>
	</g>
</g>
<g opacity="0.9">
	<g>
		<path fill="#606161" d="M134.391,168.862c-28.993,18.226-55.39,40.09-83.056,60.192c-2.581,1.875-0.09,6.216,2.523,4.318
			c27.666-20.103,54.063-41.966,83.056-60.192C139.636,171.469,137.129,167.141,134.391,168.862L134.391,168.862z"/>
	</g>
</g>
<g opacity="0.9">
	<g>
		<path fill="#606161" d="M148.831,135.17c-37.964,13.365-75.814,28.226-109.607,50.413c-2.683,1.761-0.181,6.093,2.523,4.317
			c33.447-21.959,70.836-36.68,108.413-49.909C153.18,138.928,151.88,134.096,148.831,135.17L148.831,135.17z"/>
	</g>
</g>
<g opacity="0.9">
	<g>
		<path fill="#606161" d="M207.661,136.842c-30.727,8.513-63.05,6.665-94.502,9.943c-3.173,0.331-3.206,5.334,0,5
			c31.897-3.325,64.666-1.487,95.831-10.122C212.093,140.803,210.774,135.979,207.661,136.842L207.661,136.842z"/>
	</g>
</g>
<g opacity="0.9">
	<g>
		<path fill="#606161" d="M186.898,108.418c-36.439,6.516-70.819,19.986-102.687,38.708c-2.777,1.632-0.263,5.954,2.523,4.317
			c31.523-18.52,65.451-31.76,101.492-38.204C191.398,112.672,190.05,107.854,186.898,108.418L186.898,108.418z"/>
	</g>
</g>
<g opacity="0.9">
	<g>
		<path fill="#606161" d="M145.37,200.378c-32.439,12.959-66.378,28.781-91.08,54.146c-2.25,2.31,1.283,5.849,3.535,3.535
			c24.064-24.71,57.262-40.231,88.874-52.86C149.655,204.019,148.367,199.181,145.37,200.378L145.37,200.378z"/>
	</g>
</g>
<g opacity="0.9">
	<g>
		<path fill="#606161" d="M517.188,194.102c-26.281-0.028-52.554-1.213-78.781,1.124c-23.189,2.066-50.695,6.38-67.468,24.188
			c-2.208,2.344,1.32,5.887,3.535,3.535c16.453-17.467,43.986-21.045,66.635-22.957c25.318-2.138,50.716-0.917,76.079-0.89
			C520.413,199.105,520.412,194.105,517.188,194.102L517.188,194.102z"/>
	</g>
</g>
<g opacity="0.9">
	<g>
		<path fill="#606161" d="M399.728,185.331c-27.1,5.617-46.127,27.587-66.856,44.115c-2.521,2.01,1.042,5.523,3.535,3.535
			c20.056-15.99,38.439-37.396,64.65-42.829C404.213,189.498,402.874,184.678,399.728,185.331L399.728,185.331z"/>
	</g>
</g>
<g opacity="0.9">
	<g>
		<path fill="#606161" d="M367.984,170.534c-27.466,13.227-56.746,24.926-78.37,47.208c-2.246,2.313,1.287,5.853,3.535,3.535
			c21.301-21.948,50.307-33.398,77.358-46.425C373.412,173.453,370.875,169.142,367.984,170.534L367.984,170.534z"/>
	</g>
</g>
<g opacity="0.9">
	<g>
		<path fill="#606161" d="M305.693,185.583c-15.798,10.232-31,21.59-43.765,35.503c-2.175,2.371,1.351,5.916,3.535,3.535
			c12.491-13.614,27.294-24.709,42.753-34.721C310.912,188.154,308.409,183.824,305.693,185.583L305.693,185.583z"/>
	</g>
</g>
<g opacity="0.9">
	<g>
		<path fill="#606161" d="M294.806,162.565c-15.345,14.735-32.217,27.865-46.72,43.472c-2.191,2.358,1.336,5.902,3.535,3.535
			c14.503-15.606,31.375-28.737,46.72-43.472C300.67,163.863,297.13,160.332,294.806,162.565L294.806,162.565z"/>
	</g>
</g>
<g opacity="0.9">
	<g>
		<path fill="#606161" d="M209.6,254.979c-2.069,5.71-3.874,11.496-5.415,17.369c-0.819,3.123,4.004,4.446,4.821,1.33
			c1.541-5.874,3.345-11.66,5.415-17.369C215.523,253.271,210.69,251.974,209.6,254.979L209.6,254.979z"/>
	</g>
</g>
<g opacity="0.9">
	<g>
		<path fill="#606161" d="M253.278,184.301c-18.099,20.311-33.079,43.125-42.892,68.571c-1.162,3.014,3.674,4.306,4.821,1.33
			c9.488-24.604,24.112-46.734,41.605-66.366C258.951,185.438,255.427,181.889,253.278,184.301L253.278,184.301z"/>
	</g>
</g>
<g opacity="0.9">
	<g>
		<path fill="#606161" d="M184.168,249.519c-3.647,5.05-7.349,10.059-11.217,14.942c-1.979,2.498,1.534,6.063,3.535,3.535
			c4.133-5.218,8.103-10.558,12-15.954C190.377,249.423,186.037,246.931,184.168,249.519L184.168,249.519z"/>
	</g>
</g>
<g opacity="0.9">
	<g>
		<path fill="#606161" d="M131.086,277.262c-4.954,4.772-0.627,13.009,1.705,17.997c1.733,3.706,11.325,17.934,7.149,21.632
			c-2.418,2.142,1.131,5.665,3.535,3.535c5.121-4.534,0.759-12.909-1.505-17.77c-1.961-4.21-4.179-8.294-6.056-12.545
			c-0.964-2.185-3.464-7.222-1.293-9.314C136.947,278.557,133.408,275.025,131.086,277.262L131.086,277.262z"/>
	</g>
</g>
<g opacity="0.9">
	<g>
		<path fill="#606161" d="M113.627,245.774c-21.352,10.189-44.278,16.446-66.885,23.156c-3.083,0.916-1.77,5.741,1.329,4.822
			c23.035-6.838,46.325-13.279,68.08-23.662C119.06,248.703,116.521,244.393,113.627,245.774L113.627,245.774z"/>
	</g>
</g>
<g opacity="0.9">
	<g>
		<path fill="#606161" d="M92.863,224.039c-9.734,6.245-19.681,12.148-29.415,18.392c-2.704,1.735-0.199,6.064,2.523,4.318
			c9.734-6.245,19.681-12.148,29.415-18.393C98.091,226.622,95.586,222.292,92.863,224.039L92.863,224.039z"/>
	</g>
</g>
<g opacity="0.9">
	<g>
		<path fill="#606161" d="M735.66,306.948c-26.857-9.814-50.912-25.82-77.776-35.637c-3.036-1.109-4.332,3.725-1.33,4.822
			c26.857,9.814,50.912,25.818,77.776,35.637C737.366,312.878,738.662,308.046,735.66,306.948L735.66,306.948z"/>
	</g>
</g>
<g opacity="0.9">
	<g>
		<path fill="#606161" d="M668.04,292.962c-13.553-13.271-25.642-28.691-43.402-36.563c-2.92-1.294-5.466,3.013-2.523,4.317
			c17.375,7.701,29.132,22.799,42.391,35.781C666.809,298.755,670.346,295.222,668.04,292.962L668.04,292.962z"/>
	</g>
</g>
<g opacity="0.9">
	<g>
		<path fill="#606161" d="M686.504,282.72c-6.973-18.27-17.396-34.867-32.349-47.641c-14.868-12.703-33.272-20.317-52.263-24.324
			c-3.146-0.664-4.483,4.156-1.33,4.821c17.83,3.762,34.832,10.68,49.076,22.221c14.864,12.043,25.275,28.516,32.043,46.252
			C682.82,287.03,687.656,285.739,686.504,282.72L686.504,282.72z"/>
	</g>
</g>
<g opacity="0.9">
	<g>
		<path fill="#606161" d="M633.45,242.962c-21.107-20.291-42.879-42.911-70.753-53.629c-3.015-1.159-4.307,3.677-1.33,4.821
			c26.978,10.374,48.13,32.715,68.548,52.343C632.238,248.73,635.778,245.199,633.45,242.962L633.45,242.962z"/>
	</g>
</g>
<g opacity="0.9">
	<g>
		<path fill="#606161" d="M538.632,204.297c-3.504-11.476-14.176-18.016-24.677-22.327c-14.87-6.105-31.377-8.282-47.275-9.696
			c-31.343-2.787-63.929-1.936-95.03,3.053c-2.771,0.444-5.538,0.955-8.259,1.644c-3.124,0.791-1.798,5.613,1.329,4.821
			c10.993-2.784,22.592-3.63,33.86-4.494c17.237-1.321,34.568-1.685,51.843-1.034c17.256,0.651,34.692,2.324,51.391,6.9
			c11.472,3.144,25.238,8.28,30.925,19.617c0.456,0.91,0.775,1.875,1.072,2.845C534.75,208.701,539.577,207.389,538.632,204.297
			L538.632,204.297z"/>
	</g>
</g>
<g opacity="0.9">
	<g>
		<path fill="#606161" d="M475.66,169.021c-4.639,0.517-9.473-0.849-13.939-1.931c-7.072-1.713-14.042-3.855-21.014-5.926
			c-6.914-2.054-13.829-4.123-20.84-5.821c-4.533-1.098-9.581-2.395-14.283-1.871c-3.167,0.353-3.202,5.357,0,5
			c4.639-0.517,9.473,0.849,13.939,1.931c7.072,1.713,14.042,3.855,21.014,5.926c6.914,2.054,13.829,4.123,20.841,5.821
			c4.533,1.098,9.581,2.395,14.283,1.871C478.828,173.668,478.862,168.664,475.66,169.021L475.66,169.021z"/>
	</g>
</g>
<g opacity="0.9">
	<g>
		<path fill="#606161" d="M523.149,206.633c3.764-32.954-30.623-55.26-56.012-67.945c-16.458-8.224-33.917-14.518-51.64-19.392
			c-13.902-3.824-28.343-6.985-42.791-7.623c-3.225-0.143-3.211,4.858,0,5c13.671,0.604,27.25,3.641,40.428,7.164
			c16.963,4.535,33.589,10.545,49.416,18.157c24.427,11.749,59.227,32.87,55.598,64.639
			C517.783,209.834,522.788,209.798,523.149,206.633L523.149,206.633z"/>
	</g>
</g>
<g opacity="0.9">
	<g>
		<path fill="#606161" d="M504.607,149.298c-22.982-11.081-46.433-21.214-69.96-31.073c-24.14-10.116-48.472-20.131-73.388-28.2
			c-3.076-0.996-4.383,3.833-1.329,4.821c23.984,7.767,47.4,17.377,70.66,27.061c24.058,10.016,48.016,20.389,71.493,31.708
			C504.974,155.009,507.511,150.698,504.607,149.298L504.607,149.298z"/>
	</g>
</g>
<g opacity="0.9">
	<g>
		<path fill="#606161" d="M365.785,131.736c-54.547,0.091-110.871,7.693-161.583,28.514c-2.94,1.207-1.654,6.046,1.329,4.821
			c50.348-20.67,106.1-28.244,160.254-28.335C369.009,136.731,369.01,131.731,365.785,131.736L365.785,131.736z"/>
	</g>
</g>
<g opacity="0.9">
	<g>
		<path fill="#606161" d="M362.362,159.221c-11.417-10.65-26.508-15.512-40.901-20.708c-3.04-1.098-4.338,3.735-1.329,4.821
			c13.547,4.891,27.943,9.392,38.695,19.421C361.181,164.953,364.725,161.425,362.362,159.221L362.362,159.221z"/>
	</g>
</g>
<g opacity="0.9">
	<g>
		<path fill="#606161" d="M337.035,116.777c-35.098-9.961-71.846-8.477-107.945-8.449c-3.224,0.002-3.225,5.002,0,5
			c35.654-0.027,71.949-1.568,106.616,8.27C338.814,122.481,340.131,117.656,337.035,116.777L337.035,116.777z"/>
	</g>
</g>
<g opacity="0.9">
	<g>
		<path fill="#606161" d="M180.642,161.833c-22.956-0.001-46.008-0.031-68.549-4.927c-3.143-0.683-4.479,4.137-1.329,4.821
			c22.982,4.991,46.469,5.104,69.878,5.105C183.866,166.833,183.866,161.833,180.642,161.833L180.642,161.833z"/>
	</g>
</g>
<g opacity="0.9">
	<g>
		<path fill="#606161" d="M136.718,150.218c-25.237,9.597-52.032,13.209-78.93,13.287c-3.224,0.009-3.225,5.009,0,5
			c27.305-0.079,54.637-3.723,80.259-13.466C141.03,153.905,139.737,149.07,136.718,150.218L136.718,150.218z"/>
	</g>
</g>
<g opacity="0.9">
	<g>
		<path fill="#606161" d="M111.428,180.225c-36.406,0.089-72.604,4.927-109.01,5.016c-3.224,0.008-3.225,5.008,0,5
			c36.406-0.089,72.604-4.927,109.01-5.016C114.652,185.217,114.653,180.217,111.428,180.225L111.428,180.225z"/>
	</g>
</g>
<g opacity="0.9">
	<g>
		<path fill="#606161" d="M156.379,192.662c-10.6,11.721-27.133,15.512-42.155,17.749c-15.819,2.355-31.856,2.264-47.785,3.255
			c-3.202,0.199-3.222,5.2,0,5c16.401-1.021,32.811-1.133,49.114-3.434c15.834-2.234,33.242-6.739,44.361-19.035
			C162.071,193.813,158.546,190.265,156.379,192.662L156.379,192.662z"/>
	</g>
</g>
<g opacity="0.9">
	<g>
		<path fill="#606161" d="M176.516,180.314c-35.12,11.78-71.604,18.63-107.28,28.424c-3.105,0.853-1.786,5.676,1.329,4.821
			c35.676-9.793,72.161-16.643,107.28-28.424C180.886,184.116,179.582,179.286,176.516,180.314L176.516,180.314z"/>
	</g>
</g>
<g opacity="0.9">
	<g>
		<path fill="#606161" d="M216.313,180.314c-31.523,6.696-63.646,10.023-95.168,16.72c-3.153,0.67-1.816,5.489,1.329,4.821
			c31.523-6.697,63.645-10.024,95.168-16.72C220.796,184.466,219.458,179.646,216.313,180.314L216.313,180.314z"/>
	</g>
</g>
<g opacity="0.9">
	<g>
		<path fill="#606161" d="M234.281,171.865c-30.057,0.036-60.106,1.661-89.977,5.016c-3.167,0.356-3.202,5.36,0,5
			c29.871-3.355,59.92-4.98,89.977-5.016C237.505,176.861,237.506,171.861,234.281,171.865L234.281,171.865z"/>
	</g>
</g>
<g opacity="0.9">
	<g>
		<path fill="#606161" d="M242.932,148.457c-17.875-1.727-35.751-3.44-53.64-5.016c-3.213-0.283-3.186,4.719,0,5
			c17.889,1.576,35.765,3.289,53.64,5.016C246.142,153.767,246.112,148.764,242.932,148.457L242.932,148.457z"/>
	</g>
</g>
<g opacity="0.9">
	<g>
		<path fill="#606161" d="M225.63,130.064c-21.625-0.144-42.848-5.07-63.358-11.615c-3.081-0.983-4.389,3.845-1.329,4.821
			c20.92,6.676,42.633,11.646,64.687,11.793C228.855,135.086,228.853,130.086,225.63,130.064L225.63,130.064z"/>
	</g>
</g>
<g opacity="0.9">
	<g>
		<path fill="#606161" d="M244.663,123.376c-23.043-1.974-43.991-13.087-65.088-21.646c-2.989-1.213-4.276,3.625-1.329,4.821
			c21.603,8.765,42.826,19.805,66.417,21.825C247.877,128.652,247.851,123.649,244.663,123.376L244.663,123.376z"/>
	</g>
</g>
<g opacity="0.9">
	<g>
		<path fill="#606161" d="M273.61,138.766c-24.583-18.368-54.648-25.479-83.653-33.692c-3.109-0.88-4.426,3.944-1.329,4.821
			c28.619,8.104,58.201,15.063,82.459,33.188C273.673,145.015,276.161,140.671,273.61,138.766L273.61,138.766z"/>
	</g>
</g>
<g opacity="0.9">
	<g>
		<path fill="#606161" d="M319.731,140.186c-30.573-6.818-55.796-26.038-84.188-38.204c-2.929-1.255-5.479,3.051-2.523,4.317
			c28.789,12.336,54.378,31.794,85.383,38.708C321.543,145.708,322.878,140.888,319.731,140.186L319.731,140.186z"/>
	</g>
</g>
<g opacity="0.9">
	<g>
		<path fill="#606161" d="M303.531,130.797c-18.137-19-41.462-31.843-64.528-43.863c-2.855-1.488-5.384,2.827-2.523,4.317
			c22.695,11.827,45.668,24.384,63.516,43.081C302.226,136.668,305.756,133.128,303.531,130.797L303.531,130.797z"/>
	</g>
</g>
<g opacity="0.9">
	<g>
		<path fill="#606161" d="M358.902,132.469c-15.981-19.113-26.792-42.098-47.225-57.239c-2.594-1.922-5.083,2.42-2.523,4.317
			c19.941,14.777,30.599,37.783,46.213,56.457C357.437,138.48,360.955,134.924,358.902,132.469L358.902,132.469z"/>
	</g>
</g>
<g opacity="0.9">
	<g>
		<path fill="#606161" d="M348.52,102.373c-12.379-10.251-24.833-20.415-38.573-28.815c-2.759-1.687-5.269,2.639-2.523,4.317
			c13.38,8.181,25.506,18.05,37.562,28.033C347.448,107.948,351.006,104.431,348.52,102.373L348.52,102.373z"/>
	</g>
</g>
<g opacity="0.9">
	<g>
		<path fill="#606161" d="M370.508,105.326c-22.946-12.021-44.536-26.435-67.482-38.456c-2.853-1.495-5.38,2.821-2.523,4.317
			c22.946,12.021,44.536,26.435,67.482,38.456C370.837,111.138,373.365,106.822,370.508,105.326L370.508,105.326z"/>
	</g>
</g>
<g opacity="0.9">
	<g>
		<path fill="#606161" d="M412.542,132.469c-14.357-15.552-29.711-30.215-47.224-42.191c-2.669-1.826-5.167,2.51-2.523,4.317
			c17.157,11.732,32.15,26.177,46.212,41.409C411.198,138.378,414.725,134.833,412.542,132.469L412.542,132.469z"/>
	</g>
</g>
<g opacity="0.9">
	<g>
		<path fill="#606161" d="M476.089,151.867c-10.516-17.417-27.986-31.215-43.433-44.019c-16.047-13.303-32.722-26.018-50.036-37.635
			c-2.686-1.802-5.186,2.531-2.523,4.317c16.969,11.385,33.267,23.853,49.023,36.853c8.775,7.24,17.345,14.747,25.471,22.711
			c6.295,6.17,12.602,12.713,17.18,20.296C473.436,157.146,477.76,154.635,476.089,151.867L476.089,151.867z"/>
	</g>
</g>
<g opacity="0.9">
	<g>
		<path fill="#606161" d="M537.89,153.341c-25.221-12.857-44.747-34.314-62.652-55.749c-2.069-2.478-5.587,1.079-3.535,3.535
			c18.166,21.748,38.076,43.488,63.664,56.531C538.232,159.12,540.763,154.806,537.89,153.341L537.89,153.341z"/>
	</g>
</g>
<g opacity="0.9">
	<g>
		<path fill="#606161" d="M539.047,147.826c-15.123-5.886-26.9-17.88-37.381-29.869c-10.301-11.783-19.405-24.57-29.937-36.155
			c-2.173-2.391-5.699,1.156-3.535,3.535c21.306,23.437,38.59,55.27,69.524,67.31C540.727,153.818,542.018,148.982,539.047,147.826
			L539.047,147.826z"/>
	</g>
</g>
<g opacity="0.9">
	<g>
		<path fill="#606161" d="M581.764,213.75c-18.574-30.756-26.609-66.486-42.782-98.412c-1.458-2.877-5.771-0.346-4.317,2.523
			c16.172,31.926,24.203,67.648,42.783,98.412C579.112,219.029,583.436,216.518,581.764,213.75L581.764,213.75z"/>
	</g>
</g>
<g opacity="0.9">
	<g>
		<path fill="#606161" d="M613.778,213.579c-22.056-30.956-30.044-69.304-47.42-102.713c-1.487-2.861-5.803-0.333-4.316,2.523
			c17.373,33.404,25.359,71.753,47.418,102.713C611.314,218.704,615.653,216.211,613.778,213.579L613.778,213.579z"/>
	</g>
</g>
<g opacity="0.9">
	<g>
		<path fill="#606161" d="M619.95,188.475c-12.613-31.608-23.347-64.886-42.139-93.534c-1.761-2.684-6.092-0.181-4.318,2.523
			c18.567,28.304,29.174,61.111,41.635,92.34C616.308,192.76,621.145,191.472,619.95,188.475L619.95,188.475z"/>
	</g>
</g>
<g opacity="0.9">
	<g>
		<path fill="#606161" d="M647.966,193.458c-22.229-15.262-37.724-39.656-51.071-62.565c-1.622-2.784-5.944-0.268-4.318,2.523
			c13.803,23.688,29.898,48.59,52.866,64.359C648.109,199.605,650.606,195.27,647.966,193.458L647.966,193.458z"/>
	</g>
</g>
<g opacity="0.9">
	<g>
		<path fill="#606161" d="M687.974,231.892c-37.33-17.091-70.319-41.887-103.034-66.361c-2.585-1.934-5.072,2.411-2.523,4.317
			c32.715,24.474,65.704,49.27,103.034,66.362C688.36,237.542,690.903,233.233,687.974,231.892L687.974,231.892z"/>
	</g>
</g>
<g opacity="0.9">
	<g>
		<path fill="#606161" d="M712.121,284.071c-49.664-38.711-96.281-81.448-135.253-131.084c-1.99-2.535-5.502,1.03-3.535,3.535
			c38.972,49.637,85.589,92.373,135.253,131.084C711.096,289.563,714.662,286.052,712.121,284.071L712.121,284.071z"/>
	</g>
</g>
<g opacity="0.9">
	<g>
		<path fill="#606161" d="M736.498,301.751c-36.188-11.574-62.539-41.092-91.54-64.043c-2.499-1.979-6.063,1.535-3.535,3.535
			c29.729,23.527,56.647,53.463,93.745,65.33C738.248,307.558,739.556,302.729,736.498,301.751L736.498,301.751z"/>
	</g>
</g>
<g opacity="0.9">
	<g>
		<path fill="#606161" d="M767.102,317.812c-36.515-32.119-84.034-47.256-126.058-70.381c-2.826-1.555-5.349,2.763-2.523,4.317
			c41.591,22.886,88.913,37.815,125.046,69.599C765.977,323.466,769.528,319.944,767.102,317.812L767.102,317.812z"/>
	</g>
</g>
<g opacity="0.9">
	<g>
		<path fill="#606161" d="M790.133,299.733c-41.473-8.523-82.14-20.361-122.753-32.223c-3.103-0.904-4.418,3.92-1.33,4.822
			c40.614,11.861,81.281,23.699,122.753,32.223C791.951,305.202,793.291,300.382,790.133,299.733L790.133,299.733z"/>
	</g>
</g>
<g opacity="0.9">
	<g>
		<path fill="#606161" d="M939.448,307.062c-9.997,11.152-22.689,18.229-36.553,23.498c-2.982,1.135-1.689,5.971,1.33,4.822
			c14.65-5.57,28.187-12.99,38.758-24.785C945.128,308.204,941.604,304.655,939.448,307.062L939.448,307.062z"/>
	</g>
</g>
<g opacity="0.9">
	<g>
		<path fill="#606161" d="M914.64,306.618c-5.859,6.891-12.15,13.248-20.164,17.602c-2.834,1.539-0.311,5.857,2.523,4.318
			c8.372-4.549,15.05-11.182,21.176-18.385C920.25,307.712,916.732,304.157,914.64,306.618L914.64,306.618z"/>
	</g>
</g>
<g opacity="0.9">
	<g>
		<path fill="#606161" d="M900.893,290.757c-4.639,7.52-10.774,13.676-17.093,19.777c-2.323,2.242,1.216,5.773,3.535,3.535
			c6.625-6.396,13.015-12.91,17.876-20.789C906.909,290.528,902.583,288.019,900.893,290.757L900.893,290.757z"/>
	</g>
</g>
<g opacity="0.9">
	<g>
		<path fill="#606161" d="M904.971,278.405c-12.372,11.73-27.352,19.65-43.758,24.113c-3.108,0.846-1.787,5.668,1.328,4.822
			c17.224-4.686,32.982-13.092,45.965-25.4C910.85,279.718,907.309,276.188,904.971,278.405L904.971,278.405z"/>
	</g>
</g>
<g opacity="0.9">
	<g>
		<path fill="#606161" d="M883.297,283.323c-9.98,5.5-20.811,8.926-31.639,12.322c-3.066,0.963-1.757,5.791,1.328,4.822
			c11.237-3.525,22.479-7.121,32.834-12.826C888.645,286.085,886.123,281.767,883.297,283.323L883.297,283.323z"/>
	</g>
</g>
<g opacity="0.9">
	<g>
		<path fill="#606161" d="M852.102,270.839c-5.354,0.756-10.78,0.197-16.146,0.953c-3.182,0.449-1.822,5.268,1.33,4.822
			c5.354-0.754,10.779-0.197,16.145-0.953C856.613,275.214,855.253,270.396,852.102,270.839L852.102,270.839z"/>
	</g>
</g>
<g opacity="0.9">
	<g>
		<path fill="#606161" d="M882.827,282.702c-24.535-2.529-47.184-20.825-58.355-42.276c-1.489-2.86-5.804-0.332-4.316,2.523
			c12.049,23.138,36.366,42.042,62.672,44.753C886.033,288.034,886.001,283.03,882.827,282.702L882.827,282.702z"/>
	</g>
</g>
<g opacity="0.9">
	<g>
		<path fill="#606161" d="M865.874,274.778c-21.381-12.508-42.243-27.365-57.049-47.536c-1.886-2.57-6.228-0.08-4.316,2.523
			c15.338,20.897,36.67,36.358,58.842,49.331C866.139,280.728,868.655,276.405,865.874,274.778L865.874,274.778z"/>
	</g>
</g>
<g opacity="0.9">
	<g>
		<path fill="#606161" d="M860.176,288.077c-15.754-9.6-28.31-22.699-39.111-37.538c-1.877-2.579-6.218-0.089-4.316,2.523
			c11.313,15.542,24.399,29.274,40.904,39.331C860.415,294.075,862.924,289.751,860.176,288.077L860.176,288.077z"/>
	</g>
</g>
<g opacity="0.9">
	<g>
		<path fill="#606161" d="M824.586,261.769c-8.718-12.066-17.436-24.135-26.152-36.201c-1.869-2.587-6.21-0.096-4.318,2.523
			c8.719,12.066,17.436,24.135,26.152,36.201C822.137,266.88,826.478,264.388,824.586,261.769L824.586,261.769z"/>
	</g>
</g>
<g opacity="0.9">
	<g>
		<path fill="#606161" d="M817.1,264.116c-12.949-22.173-28.008-43.007-43.029-63.799c-1.869-2.587-6.21-0.096-4.318,2.523
			c15.021,20.793,30.081,41.626,43.029,63.799C814.407,269.421,818.729,266.905,817.1,264.116L817.1,264.116z"/>
	</g>
</g>
<g opacity="0.9">
	<g>
		<path fill="#606161" d="M795.7,253.56c-7.951-17.344-17.088-33.81-30.065-47.937c-2.186-2.379-5.712,1.166-3.535,3.535
			c12.687,13.811,21.516,29.982,29.284,46.925C792.725,259.011,797.034,256.468,795.7,253.56L795.7,253.56z"/>
	</g>
</g>
<g opacity="0.9">
	<g>
		<path fill="#606161" d="M780.668,247.583c-6.885-13.753-14.897-26.892-23.861-39.386c-1.861-2.595-6.2-0.102-4.316,2.523
			c8.963,12.495,16.976,25.634,23.861,39.386C777.795,252.99,782.108,250.457,780.668,247.583L780.668,247.583z"/>
	</g>
</g>
<g opacity="0.9">
	<g>
		<path fill="#606161" d="M757.706,232.776c-14.621-13.686-27.303-29.248-40.904-43.909c-2.197-2.369-5.725,1.176-3.535,3.535
			c13.602,14.662,26.282,30.224,40.904,43.909C756.521,238.513,760.064,234.984,757.706,232.776L757.706,232.776z"/>
	</g>
</g>
<g opacity="0.9">
	<g>
		<path fill="#606161" d="M888.898,319.36c-24.619-13-46.392-30.42-68.896-46.643c-2.621-1.891-5.113,2.449-2.523,4.316
			c22.504,16.223,44.276,33.645,68.896,46.645C889.223,325.183,891.75,320.866,888.898,319.36L888.898,319.36z"/>
	</g>
</g>
<g opacity="0.9">
	<g>
		<path fill="#606161" d="M861.8,322.103c-32.536-17.533-67.12-30.533-102.343-41.529c-3.087-0.963-4.396,3.863-1.33,4.822
			c34.82,10.869,68.985,23.691,101.149,41.023C862.115,327.948,864.639,323.632,861.8,322.103L861.8,322.103z"/>
	</g>
</g>
<g opacity="0.9">
	<g>
		<path fill="#606161" d="M817.942,318.587c-29.42-13.52-58.869-27.041-87.332-42.506c-2.833-1.541-5.357,2.777-2.523,4.316
			c28.463,15.465,57.912,28.988,87.332,42.508C818.327,324.241,820.869,319.933,817.942,318.587L817.942,318.587z"/>
	</g>
</g>
<g opacity="0.9">
	<g>
		<path fill="#606161" d="M830.141,338.167c-29.992-10.211-58.168-25.232-88.728-33.846c-3.11-0.877-4.428,3.947-1.33,4.822
			c30.56,8.613,58.736,23.633,88.728,33.846C831.873,344.032,833.175,339.2,830.141,338.167L830.141,338.167z"/>
	</g>
</g>
<g opacity="0.9">
	<g>
		<path fill="#606161" d="M845.508,353.083c-33.614-5.512-66.105-15.887-99.342-23.119c-3.144-0.684-4.479,4.137-1.33,4.822
			c33.237,7.232,65.729,17.607,99.344,23.119C847.333,358.421,848.685,353.604,845.508,353.083L845.508,353.083z"/>
	</g>
</g>
<g opacity="0.9">
	<g>
		<path fill="#606161" d="M840.368,362.917c-27.743-4.514-55.17-10.67-82.577-16.863c-3.141-0.709-4.475,4.111-1.33,4.822
			c27.408,6.191,54.835,12.35,82.579,16.863C842.192,368.251,843.544,363.435,840.368,362.917L840.368,362.917z"/>
	</g>
</g>
<g opacity="0.9">
	<g>
		<path fill="#606161" d="M851.993,379.005c-32.367-5.215-64.743-10.572-96.436-19.094c-3.118-0.838-4.44,3.984-1.33,4.822
			c31.693,8.521,64.069,13.879,96.436,19.094C853.816,384.335,855.169,379.519,851.993,379.005L851.993,379.005z"/>
	</g>
</g>
<g opacity="0.9">
	<g>
		<path fill="#606161" d="M874.624,403.978c-63.542-10.275-126.467-23.885-189.687-35.9c-3.15-0.598-4.495,4.221-1.33,4.822
			c63.221,12.016,126.146,25.625,189.687,35.9C876.447,409.31,877.799,404.491,874.624,403.978L874.624,403.978z"/>
	</g>
</g>
</svg>
