<?xml version="1.0" encoding="utf-8"?>
<!-- Generator: Adobe Illustrator 16.0.0, SVG Export Plug-In . SVG Version: 6.00 Build 0)  -->
<!DOCTYPE svg PUBLIC "-//W3C//DTD SVG 1.1//EN" "http://www.w3.org/Graphics/SVG/1.1/DTD/svg11.dtd">
<svg version="1.1" id="Layer_1" xmlns="http://www.w3.org/2000/svg" xmlns:xlink="http://www.w3.org/1999/xlink" x="0px" y="0px"
	 width="981.055px" height="511.665px" viewBox="0 0 981.055 511.665" enable-background="new 0 0 981.055 511.665"
	 xml:space="preserve">
<g opacity="0.1">
	<g>
		<path d="M853.021,346.445c-5.483,5.736-11.232,11.188-17.496,16.07c5.061-3.909,10.12-7.818,15.18-11.728
			c-5.475,4.174-11.27,7.845-17.625,10.527c5.972-2.521,11.943-5.041,17.916-7.561c-4.006,1.615-8.113,2.782-12.393,3.393
			c6.646-0.893,13.292-1.785,19.938-2.679c-4.017,0.499-8.012,0.484-12.028-0.012c6.646,0.893,13.292,1.785,19.938,2.679
			c-5.255-0.738-10.294-2.258-15.198-4.267c5.973,2.521,11.944,5.04,17.916,7.561c-22.813-9.64-42.272-26.878-62.175-41.236
			c-13.464-9.714-27.259-18.953-41.557-27.399c-14.627-8.641-30.993-14.853-44.521-25.202c5.06,3.909,10.119,7.818,15.179,11.728
			c-8.091-6.354-15.091-13.833-21.4-21.938c3.909,5.06,7.818,10.119,11.728,15.18c-13.129-17.131-23.08-36.368-33.408-55.241
			c-12.746-23.29-27.024-46.057-45.419-65.389c-11.571-12.161-25.768-22.113-39.551-31.556
			c-10.232-7.01-21.076-13.109-32.157-18.663c-28.118-14.093-57.966-25.811-88.368-33.994c-11.532-3.104-23.227-5.606-35.021-7.477
			c-16.624-2.637-33.563-5.228-50.455-5.337c-24.948-0.162-49.946,2.538-74.675,5.568c-30.439,3.731-60.792,8.152-91.056,13.102
			c-30.286,4.953-58.326,18.279-84.933,33.218c-13.66,7.67-27.197,15.564-41.605,21.777c5.972-2.52,11.944-5.041,17.916-7.561
			c-10.849,4.576-22.024,8.063-33.647,10.02c-18.246,3.071-35.83,19.116-44.822,34.467c-10.147,17.321-12.885,38.434-7.561,57.792
			c5.157,18.747,17.701,35.001,34.467,44.822c5.972,2.521,11.944,5.04,17.916,7.561c13.292,3.572,26.584,3.572,39.876,0
			c25.592-4.308,50.048-15.746,72.751-27.942c17.142-9.208,33.65-19.592,51.608-27.207c-5.972,2.521-11.944,5.041-17.916,7.561
			c14.51-6.012,29.229-8.814,44.65-11.296c16.014-2.578,32.053-4.995,48.127-7.164c-6.646,0.893-13.292,1.786-19.938,2.679
			c37.399-5.004,76.379-10.566,114.045-5.516c-6.646-0.893-13.292-1.786-19.938-2.679c31.333,4.358,62.039,13.43,91.168,25.679
			c-5.972-2.521-11.944-5.041-17.916-7.561c21.918,9.325,43.134,20.602,62.072,35.132c-5.06-3.909-10.119-7.818-15.179-11.728
			c8.748,6.813,16.461,14.337,23.254,23.11c-3.909-5.06-7.818-10.12-11.728-15.18c12.84,16.855,22.481,35.852,32.644,54.366
			c13.076,23.823,27.909,47.009,46.675,66.825c10.992,11.605,24.179,21.879,38.059,29.762c11.917,6.767,24.388,12.442,36.189,19.475
			c20.422,12.168,39.546,26.254,58.666,40.336c10.227,7.532,20.508,15.097,31.575,21.365c9.798,5.551,20.603,9.795,31.009,13.783
			c10.574,4.053,22.545,4.728,33.513,6.085c10.672,1.32,22.85-1.41,32.794-3.013c11.064-1.783,22.483-7.652,32.089-12.239
			c10.708-5.113,20.268-13.606,29.398-20.723c6.264-4.881,12.013-10.333,17.496-16.069c13.826-14.465,21.967-32.845,21.967-53.033
			c0-19.812-7.965-39.031-21.967-53.033C930.681,318.038,881.267,316.897,853.021,346.445L853.021,346.445z"/>
	</g>
</g>
<g opacity="0.9">
	<g>
		<path fill="#606161" d="M930.83,351.652c-15.361-0.499-29.813,3.205-44.785,5.948c-17.222,3.155-32.128-0.589-46.615-10.365
			c-2.681-1.809-5.18,2.525-2.523,4.318c13.75,9.277,28.411,13.809,44.977,11.719c16.523-2.086,32.078-7.168,48.947-6.62
			C934.057,356.756,934.046,351.756,930.83,351.652L930.83,351.652z"/>
	</g>
</g>
<g opacity="0.9">
	<g>
		<path fill="#606161" d="M948.959,358.427c-12.061,29.452-52.983,15.432-76.332,12.789c-3.201-0.362-3.166,4.642,0,5
			c26.665,3.019,67.658,16.495,81.154-16.459C955.003,356.772,950.164,355.486,948.959,358.427L948.959,358.427z"/>
	</g>
</g>
<g opacity="0.9">
	<g>
		<path fill="#606161" d="M970.172,376.05c-25.985,7.681-52.783,16.943-80.195,11.856c-3.15-0.584-4.496,4.234-1.328,4.822
			c28.426,5.274,55.874-3.883,82.854-11.856C974.586,379.96,973.271,375.134,970.172,376.05L970.172,376.05z"/>
	</g>
</g>
<g opacity="0.9">
	<g>
		<path fill="#606161" d="M970.793,402.125c-26.762,7.681-55.027,7.11-81.889,0.209c-3.125-0.803-4.449,4.021-1.328,4.822
			c27.699,7.116,56.947,7.711,84.545-0.209C975.215,406.059,973.898,401.234,970.793,402.125L970.793,402.125z"/>
	</g>
</g>
<g opacity="0.9">
	<g>
		<path fill="#606161" d="M958.229,436.466c-21.872-2.325-38.773-16.39-54.346-30.749c-2.365-2.182-5.91,1.346-3.535,3.535
			c16.676,15.377,34.538,29.732,57.881,32.214C961.435,441.807,961.401,436.803,958.229,436.466L958.229,436.466z"/>
	</g>
</g>
<g opacity="0.9">
	<g>
		<path fill="#606161" d="M944.279,446.106c-9.132,10.549-25.941,2.702-36.054-2.148c-12.07-5.79-23.083-13.704-35.312-19.137
			c-2.919-1.298-5.465,3.01-2.523,4.316c14.075,6.254,26.627,15.488,40.792,21.646c11.267,4.899,27.204,9.749,36.632-1.143
			C949.914,447.216,946.393,443.664,944.279,446.106L944.279,446.106z"/>
	</g>
</g>
<g opacity="0.9">
	<g>
		<path fill="#606161" d="M949.463,479.76c-25.088-2.99-47.721-17.859-63.239-37.382c-2.006-2.523-5.52,1.039-3.535,3.535
			c16.412,20.647,40.362,35.699,66.774,38.847C952.66,485.141,952.624,480.137,949.463,479.76L949.463,479.76z"/>
	</g>
</g>
<g opacity="0.9">
	<g>
		<path fill="#606161" d="M923.953,484.263c-21.891-0.381-37.334-19.289-51.578-33.528c-2.282-2.281-5.817,1.254-3.535,3.535
			c15.312,15.308,31.648,34.584,55.113,34.993C927.18,489.32,927.174,484.319,923.953,484.263L923.953,484.263z"/>
	</g>
</g>
<g opacity="0.9">
	<g>
		<path fill="#606161" d="M876.87,482.604c-5.98-4.62-11.837-9.396-17.765-14.082c-2.5-1.977-6.063,1.536-3.535,3.535
			c6.262,4.951,12.458,9.983,18.776,14.863C876.898,488.892,879.383,484.544,876.87,482.604L876.87,482.604z"/>
	</g>
</g>
<g opacity="0.9">
	<g>
		<path fill="#606161" d="M911.395,504.057c-6.209-2.69-12.105-5.949-17.819-9.568c-2.732-1.731-5.238,2.597-2.523,4.316
			c5.714,3.62,11.609,6.879,17.819,9.57C911.797,509.643,914.346,505.336,911.395,504.057L911.395,504.057z"/>
	</g>
</g>
<g opacity="0.9">
	<g>
		<path fill="#606161" d="M870.299,507.328c-14.925-16.648-29.322-34.141-41.312-53.054c-1.607-2.534-3.132-5.125-4.485-7.804
			c-0.435-0.86-0.814-1.735-1.126-2.646c-0.749-2.193-1.233,0.778-1.915,0.588c2.266,0.632,4.519,3.151,6.214,4.638
			c4.033,3.537,7.798,7.39,11.536,11.232c2.251,2.314,5.783-1.224,3.535-3.535c-4.219-4.338-8.489-8.641-13.088-12.579
			c-2.088-1.788-4.458-3.905-7.17-4.661c-6.082-1.697-3.822,6.24-2.605,8.865c4.27,9.214,10.786,17.627,16.785,25.746
			c9.41,12.736,19.527,24.957,30.096,36.745C868.92,513.268,872.444,509.72,870.299,507.328L870.299,507.328z"/>
	</g>
</g>
<g opacity="0.9">
	<g>
		<path fill="#606161" d="M938.369,437.162c-21.849-3.81-42.388-12.03-62.703-20.669c-2.932-1.247-5.482,3.059-2.523,4.316
			c20.713,8.809,41.616,17.288,63.898,21.175C940.193,442.534,941.542,437.715,938.369,437.162L938.369,437.162z"/>
	</g>
</g>
<g opacity="0.9">
	<g>
		<path fill="#606161" d="M960.127,387.47c3.32,20.318-9.913,39.685-29.199,45.824c-3.061,0.975-1.752,5.803,1.328,4.822
			c22.087-7.032,36.465-28.891,32.691-51.977C964.429,382.964,959.611,384.317,960.127,387.47L960.127,387.47z"/>
	</g>
</g>
<g opacity="0.9">
	<g>
		<path fill="#606161" d="M957.471,433.302c-6.759,29.446-46.377,22.57-67.891,17.298c-3.131-0.767-4.459,4.055-1.328,4.822
			c24.356,5.968,66.525,11.948,74.041-20.79C963.013,431.494,958.192,430.161,957.471,433.302L957.471,433.302z"/>
	</g>
</g>
<g opacity="0.9">
	<g>
		<path fill="#606161" d="M952.26,466.006c-16.023,25.033-51.886,8.16-72.033-1.814c-2.879-1.426-5.413,2.886-2.523,4.316
			c22.996,11.387,60.95,28.024,78.873,0.021C958.32,465.805,953.991,463.3,952.26,466.006L952.26,466.006z"/>
	</g>
</g>
<g opacity="0.9">
	<g>
		<path fill="#606161" d="M904.965,478.296c-27.468,5.19-55.549-7.499-76.913-23.958c-2.555-1.969-5.039,2.379-2.523,4.316
			c22.528,17.357,51.934,29.911,80.767,24.464C909.461,482.52,908.116,477.702,904.965,478.296L904.965,478.296z"/>
	</g>
</g>
<g opacity="0.9">
	<g>
		<path fill="#606161" d="M872.852,459.983c-52.687,0.844-99.373-35.753-132.678-73.269c-2.145-2.416-5.668,1.133-3.535,3.535
			c34.181,38.503,82.21,75.599,136.213,74.733C876.072,464.931,876.078,459.931,872.852,459.983L872.852,459.983z"/>
	</g>
</g>
<g opacity="0.9">
	<g>
		<path fill="#606161" d="M838.051,445.823c-1.985-11.854-9.294-20.921-16.311-30.273c-8.177-10.897-15.734-22.458-23.044-33.956
			c-15.774-24.813-29.27-51.01-41.698-77.633c-1.363-2.92-5.673-0.379-4.318,2.523c11.941,25.576,24.914,50.661,39.821,74.646
			c7.287,11.724,15.094,23.197,23.088,34.444c7.123,10.022,15.536,19.015,17.642,31.579
			C833.762,450.327,838.58,448.976,838.051,445.823L838.051,445.823z"/>
	</g>
</g>
<g opacity="0.9">
	<g>
		<path fill="#606161" d="M853.4,403.535c-32.144-8.962-60.731-32.103-81.153-57.955c-1.998-2.529-5.511,1.034-3.535,3.535
			c20.931,26.499,50.438,50.063,83.36,59.242C855.184,409.224,856.502,404.4,853.4,403.535L853.4,403.535z"/>
	</g>
</g>
<g opacity="0.9">
	<g>
		<path fill="#606161" d="M865.541,377.984c-28.854-8.778-51.365-30.996-70.023-53.768c-18.942-23.119-34.445-48.785-50.307-74.041
			c-1.709-2.723-6.037-0.216-4.316,2.523c16.365,26.061,32.471,52.331,52.015,76.185c18.899,23.066,42.16,45.056,71.304,53.923
			C867.306,383.747,868.617,378.92,865.541,377.984L865.541,377.984z"/>
	</g>
</g>
<g opacity="0.9">
	<g>
		<path fill="#606161" d="M817.207,350.922c-14.728-5.011-26.625-15.807-36.842-27.189c-12.706-14.158-23.129-30.315-32.924-46.565
			c-18.298-30.358-32.931-63.39-53.693-92.199c-1.867-2.59-6.207-0.098-4.318,2.523c21.28,29.526,36.257,63.421,55.084,94.498
			c9.809,16.19,20.44,32.046,33.107,46.159c10.538,11.742,23.127,22.446,38.256,27.596
			C818.938,356.786,820.241,351.956,817.207,350.922L817.207,350.922z"/>
	</g>
</g>
<g opacity="0.9">
	<g>
		<path fill="#606161" d="M724.96,274.293c-9.2-7.015-15.647-17.214-21.244-27.159c-6.92-12.297-12.489-25.346-17.83-38.387
			c-9.523-23.253-17.173-48.29-30.536-69.729c-1.7-2.729-6.027-0.221-4.316,2.523c14.079,22.589,21.927,49.078,32.091,73.529
			c9.232,22.208,19.549,48.472,39.313,63.539C725.002,280.566,727.488,276.22,724.96,274.293L724.96,274.293z"/>
	</g>
</g>
<g opacity="0.9">
	<g>
		<path fill="#606161" d="M651.95,181.693c-18.549-4.193-33.071-17.794-45.629-31.326c-12.866-13.865-23.94-29.327-37.168-42.86
			c-2.257-2.309-5.79,1.229-3.535,3.535c13.558,13.871,24.952,29.697,38.144,43.911c12.786,13.778,28.036,27.306,46.858,31.561
			C653.761,187.224,655.095,182.404,651.95,181.693L651.95,181.693z"/>
	</g>
</g>
<g opacity="0.9">
	<g>
		<path fill="#606161" d="M639.097,151.189c-45.718-19.021-69.957-67.81-112.526-91.726c-2.814-1.581-5.334,2.738-2.523,4.317
			c43.03,24.175,67.355,72.939,113.72,92.23C640.743,157.249,642.028,152.409,639.097,151.189L639.097,151.189z"/>
	</g>
</g>
<g opacity="0.9">
	<g>
		<path fill="#606161" d="M724.966,263.804c2.047-10.194,0.88-20.82-0.592-31.008c-2.074-14.349-5.697-28.485-9.865-42.354
			c-4.128-13.735-9.032-27.25-14.759-40.4c-4.195-9.635-8.848-19.428-15.428-27.693c-2.008-2.522-5.521,1.041-3.535,3.535
			c6.057,7.608,10.258,16.823,14.19,25.647c5.637,12.649,10.259,25.766,14.331,38.994c4.057,13.182,7.434,26.608,9.715,40.215
			c1.717,10.243,3.189,21.43,1.12,31.733C719.512,265.623,724.331,266.963,724.966,263.804L724.966,263.804z"/>
	</g>
</g>
<g opacity="0.9">
	<g>
		<path fill="#606161" d="M659.084,158.873c-29.26-42.649-63.349-84.083-104.41-115.896c-2.515-1.949-6.081,1.563-3.535,3.535
			c40.727,31.555,74.606,72.583,103.627,114.884C656.577,164.037,660.913,161.539,659.084,158.873L659.084,158.873z"/>
	</g>
</g>
<g opacity="0.9">
	<g>
		<path fill="#606161" d="M580.653,105.57c-2.071-11.887-11.557-21.675-20.081-29.51C547.768,64.29,533,54.615,518.165,45.632
			c-26.345-15.953-54.218-30-82.73-41.669c-2.985-1.222-4.271,3.617-1.329,4.821c27.371,11.203,54.024,24.787,79.427,39.899
			c14.402,8.568,28.549,17.853,41.216,28.866c8.765,7.621,18.995,17.363,21.083,29.349
			C576.384,110.071,581.202,108.722,580.653,105.57L580.653,105.57z"/>
	</g>
</g>
<g opacity="0.9">
	<g>
		<path fill="#606161" d="M505.113,96.058c-12.52-13.25-28.776-23.516-43.729-33.739c-16.24-11.104-32.809-21.711-49.348-32.361
			c-2.72-1.751-5.224,2.579-2.523,4.317c15.783,10.163,31.579,20.304,47.116,30.841c15.373,10.426,32.111,20.89,44.949,34.477
			C503.796,101.941,507.326,98.399,505.113,96.058L505.113,96.058z"/>
	</g>
</g>
<g opacity="0.9">
	<g>
		<path fill="#606161" d="M414.271,67.133c-23.292-27.696-58.587-43.5-90.481-58.911c-2.889-1.396-5.426,2.915-2.523,4.317
			c31.519,15.229,66.455,30.764,89.47,58.129C412.814,73.14,416.333,69.583,414.271,67.133L414.271,67.133z"/>
	</g>
</g>
<g opacity="0.9">
	<g>
		<path fill="#606161" d="M372.745,52.085c-19.309-16.416-46.132-23.83-70.981-25.813c-3.216-0.257-3.191,4.745,0,5
			c23.421,1.869,49.233,8.865,67.446,24.348C371.651,57.696,375.206,54.177,372.745,52.085L372.745,52.085z"/>
	</g>
</g>
<g opacity="0.9">
	<g>
		<path fill="#606161" d="M403.891,102.246c-33.617-33.905-74.84-56.022-120.496-69.196c-3.105-0.896-4.421,3.929-1.329,4.821
			c44.861,12.945,85.256,34.594,118.29,67.91C402.628,108.073,406.163,104.537,403.891,102.246L403.891,102.246z"/>
	</g>
</g>
<g opacity="0.9">
	<g>
		<path fill="#606161" d="M332.441,85.135c-39.206-27.543-79.88-55.133-126.91-67.133c-3.126-0.798-4.452,4.024-1.329,4.821
			c46.606,11.892,86.865,39.336,125.715,66.629C332.563,91.311,335.058,86.973,332.441,85.135L332.441,85.135z"/>
	</g>
</g>
<g opacity="0.9">
	<g>
		<path fill="#606161" d="M268.42,73.431c-32.672-18.874-72.354-15.485-108.542-13.718c-3.209,0.157-3.224,5.157,0,5
			c35.231-1.72,74.193-5.35,106.019,13.035C268.693,79.364,271.21,75.042,268.42,73.431L268.42,73.431z"/>
	</g>
</g>
<g opacity="0.9">
	<g>
		<path fill="#606161" d="M704.802,447.655c-1.999-0.646-3.172-9.08-3.583-11.026c-1.42-6.721-2.376-13.54-3.449-20.322
			c-0.994-6.276-1.967-12.596-3.611-18.742c-0.893-3.334-2.134-7.896-5.754-9.185c-3.046-1.083-4.345,3.749-1.33,4.822
			c1.997,0.71,3.138,9.205,3.548,11.164c1.41,6.731,2.366,13.559,3.442,20.349c0.992,6.26,1.966,12.563,3.625,18.688
			c0.885,3.264,2.159,7.902,5.782,9.074C706.549,453.471,707.856,448.643,704.802,447.655L704.802,447.655z"/>
	</g>
</g>
<g opacity="0.9">
	<g>
		<path fill="#606161" d="M699.746,395.299c-7.482-3.794-12.878-10.817-17.624-17.523c-5.967-8.429-11.074-17.458-16.298-26.354
			c-5.129-8.731-10.292-17.481-16.368-25.599c-4.564-6.099-9.861-12.164-16.759-15.662c-2.868-1.454-5.4,2.859-2.523,4.318
			c7.482,3.794,12.878,10.817,17.624,17.523c5.967,8.429,11.074,17.458,16.298,26.354c5.129,8.731,10.292,17.481,16.368,25.599
			c4.564,6.099,9.861,12.164,16.759,15.662C700.091,401.072,702.623,396.758,699.746,395.299L699.746,395.299z"/>
	</g>
</g>
<g opacity="0.9">
	<g>
		<path fill="#606161" d="M730.743,383.317c-9.083-3.159-16.2-10.528-22.433-17.556c-7.997-9.017-14.896-18.986-21.839-28.817
			c-6.714-9.509-13.392-19.063-20.806-28.048c-5.907-7.159-12.569-14.264-20.813-18.739c-2.834-1.538-5.357,2.779-2.523,4.318
			c8.586,4.66,15.22,12.319,21.309,19.795c7.967,9.781,15.02,20.296,22.322,30.571c11.194,15.753,24.23,36.61,43.453,43.298
			C732.467,389.201,733.768,384.37,730.743,383.317L730.743,383.317z"/>
	</g>
</g>
<g opacity="0.9">
	<g>
		<path fill="#606161" d="M660.327,288.043c-22.188-10.699-47.04-13.357-69.937-22.091c-3.019-1.15-4.311,3.685-1.33,4.822
			c22.473,8.571,46.979,11.091,68.743,21.585C660.693,293.754,663.23,289.443,660.327,288.043L660.327,288.043z"/>
	</g>
</g>
<g opacity="0.9">
	<g>
		<path fill="#606161" d="M601.567,254.485c-4.577-0.439-9.148-0.928-13.711-1.504c-3.193-0.403-3.154,4.602,0,5
			c4.563,0.576,9.134,1.064,13.711,1.504C604.777,259.793,604.747,254.791,601.567,254.485L601.567,254.485z"/>
	</g>
</g>
<g opacity="0.9">
	<g>
		<path fill="#606161" d="M650.062,259.578c-14.982-2.351-30.101-3.422-45.193-4.784c-3.212-0.29-3.185,4.713,0,5
			c14.645,1.322,29.326,2.325,43.863,4.606C651.885,264.894,653.239,260.077,650.062,259.578L650.062,259.578z"/>
	</g>
</g>
<g opacity="0.9">
	<g>
		<path fill="#606161" d="M564.215,214.662c-17.783,0.607-35.574-0.321-53.357,0.286c-3.215,0.11-3.226,5.11,0,5
			c17.783-0.607,35.574,0.321,53.357-0.286C567.43,219.552,567.44,214.551,564.215,214.662L564.215,214.662z"/>
	</g>
</g>
<g opacity="0.9">
	<g>
		<path fill="#606161" d="M543.646,198.734c-16.486-1.49-29.629,7.705-39.001,20.537c-1.905,2.608,2.437,5.099,4.317,2.523
			c8.385-11.481,20.004-19.387,34.684-18.06C546.858,204.025,546.831,199.022,543.646,198.734L543.646,198.734z"/>
	</g>
</g>
<g opacity="0.9">
	<g>
		<path fill="#606161" d="M497.368,204.087c-8.641,1.851-16.301,5.557-23.405,10.778c-2.568,1.888-0.079,6.23,2.523,4.317
			c6.776-4.981,13.959-8.507,22.21-10.274C501.849,208.233,500.512,203.413,497.368,204.087L497.368,204.087z"/>
	</g>
</g>
<g opacity="0.9">
	<g>
		<path fill="#606161" d="M469.806,197.408c-14.273,2.354-29.634,0.327-43.935-0.813c-14.794-1.179-29.655-3.054-44.512-3.121
			c-3.225-0.015-3.224,4.985,0,5c15.315,0.069,30.645,2.016,45.896,3.231c14.375,1.146,29.542,2.888,43.879,0.524
			C474.311,201.706,472.959,196.888,469.806,197.408L469.806,197.408z"/>
	</g>
</g>
<g opacity="0.9">
	<g>
		<path fill="#606161" d="M380.695,175.171c-13.34,3.371-25.45,9.753-38.067,15.048c-2.927,1.228-1.643,6.068,1.329,4.821
			c12.609-5.291,24.74-11.68,38.067-15.048C385.148,179.203,383.822,174.381,380.695,175.171L380.695,175.171z"/>
	</g>
</g>
<g opacity="0.9">
	<g>
		<path fill="#606161" d="M367.984,157.031c-18.538,8.214-36.118,18.267-53.639,28.424c-2.788,1.616-0.271,5.938,2.523,4.317
			c17.521-10.158,35.102-20.21,53.639-28.424C373.451,160.044,370.904,155.737,367.984,157.031L367.984,157.031z"/>
	</g>
</g>
<g opacity="0.9">
	<g>
		<path fill="#606161" d="M751.856,365.598c-14.101-45.376-37.284-87.827-63.719-127.119
			c-28.112-41.788-61.065-80.872-98.952-114.137c-22.442-19.705-47.101-37.627-74.421-49.946c-2.915-1.314-5.459,2.994-2.523,4.317
			c41.746,18.823,77.312,50.106,108.484,83.107c35.333,37.407,65.944,79.57,90.946,124.528
			c14.266,25.65,26.645,52.519,35.363,80.579C747.988,369.997,752.815,368.686,751.856,365.598L751.856,365.598z"/>
	</g>
</g>
<g opacity="0.9">
	<g>
		<path fill="#606161" d="M770.959,339.987c-23.223-38.031-38.338-80.861-54.909-122.031
			c-16.345-40.607-32.469-83.348-58.581-118.887c-1.887-2.569-6.229-0.079-4.316,2.523c26.161,35.607,42.273,78.432,58.646,119.109
			c16.54,41.092,31.665,83.852,54.843,121.81C768.318,345.256,772.644,342.747,770.959,339.987L770.959,339.987z"/>
	</g>
</g>
<g opacity="0.9">
	<g>
		<path fill="#606161" d="M634.943,209.428c-15.716-36.138-46.062-65.616-75.293-91.065
			c-34.907-30.391-73.313-56.948-113.225-80.313c-24.524-14.357-49.921-27.736-76.511-37.874c-3.018-1.151-4.311,3.685-1.329,4.821
			c37.566,14.323,72.976,34.905,106.655,56.664c39.021,25.21,76.591,53.595,109.197,86.795c18.267,18.6,35.707,39.392,46.189,63.496
			C631.909,214.902,636.216,212.354,634.943,209.428L634.943,209.428z"/>
	</g>
</g>
<g opacity="0.9">
	<g>
		<path fill="#606161" d="M540.347,130.527C452.186,103.269,371.766,55.959,285.125,24.69c-3.04-1.097-4.338,3.735-1.329,4.821
			c86.639,31.27,167.057,78.578,255.22,105.837C542.105,136.304,543.417,131.477,540.347,130.527L540.347,130.527z"/>
	</g>
</g>
<g opacity="0.9">
	<g>
		<path fill="#606161" d="M424.148,96.839c-40.214-18.725-76.175-45.62-118.259-60.445c-3.049-1.074-4.349,3.758-1.329,4.821
			c41.653,14.673,77.255,41.404,117.065,59.941C424.528,102.508,427.069,98.199,424.148,96.839L424.148,96.839z"/>
	</g>
</g>
<g opacity="0.9">
	<g>
		<path fill="#606161" d="M348.521,97.23c-34.614-28.365-71.428-53.845-109.517-77.304c-2.753-1.696-5.263,2.63-2.523,4.317
			c37.723,23.234,74.222,48.429,108.505,76.522C347.457,102.791,351.017,99.275,348.521,97.23L348.521,97.23z"/>
	</g>
</g>
<g opacity="0.9">
	<g>
		<path fill="#606161" d="M276.474,93.243c-25.076-9.014-41.904-32.44-59.458-51.189c-2.208-2.358-5.736,1.185-3.535,3.535
			c18.272,19.516,35.58,43.099,61.665,52.476C278.187,99.157,279.485,94.325,276.474,93.243L276.474,93.243z"/>
	</g>
</g>
<g opacity="0.9">
	<g>
		<path fill="#606161" d="M279.935,104.947C240.474,91.809,199.148,86.2,158.812,76.522c-3.134-0.752-4.464,4.069-1.329,4.821
			c40.336,9.678,81.662,15.286,121.123,28.424C281.674,110.79,282.979,105.96,279.935,104.947L279.935,104.947z"/>
	</g>
</g>
<g opacity="0.9">
	<g>
		<path fill="#606161" d="M208.326,68.073c-18.937-0.057-37.774-1.705-56.435-4.927c-3.153-0.544-4.502,4.273-1.329,4.821
			c19.099,3.297,38.38,5.047,57.764,5.105C211.551,73.083,211.55,68.083,208.326,68.073L208.326,68.073z"/>
	</g>
</g>
<g opacity="0.9">
	<g>
		<path fill="#606161" d="M196.215,93.153c-32.91-0.066-65.719-3.278-98.629-3.344c-3.225-0.006-3.224,4.994,0,5
			c32.91,0.066,65.719,3.278,98.629,3.344C199.439,98.16,199.439,93.16,196.215,93.153L196.215,93.153z"/>
	</g>
</g>
<g opacity="0.9">
	<g>
		<path fill="#606161" d="M147.766,109.874c-35.724,1.94-69.405,14.951-102.754,26.841c-3.014,1.075-1.716,5.907,1.329,4.821
			c32.886-11.725,66.192-24.75,101.425-26.663C150.972,114.699,150.989,109.699,147.766,109.874L147.766,109.874z"/>
	</g>
</g>
<g opacity="0.9">
	<g>
		<path fill="#606161" d="M102.74,145.718c-20.835,16.607-44.911,28.533-65.753,45.145c-2.521,2.009,1.042,5.523,3.535,3.535
			c20.835-16.606,44.912-28.532,65.753-45.145C108.797,147.244,105.234,143.73,102.74,145.718L102.74,145.718z"/>
	</g>
</g>
<g opacity="0.9">
	<g>
		<path fill="#606161" d="M134.392,163.719c-28.993,18.226-55.39,40.09-83.056,60.192c-2.581,1.875-0.09,6.216,2.523,4.318
			c27.666-20.103,54.063-41.966,83.056-60.192C139.637,166.326,137.13,161.998,134.392,163.719L134.392,163.719z"/>
	</g>
</g>
<g opacity="0.9">
	<g>
		<path fill="#606161" d="M148.832,130.027c-37.964,13.365-75.814,28.226-109.607,50.413c-2.683,1.761-0.181,6.093,2.523,4.317
			c33.447-21.959,70.836-36.68,108.413-49.909C153.181,133.785,151.881,128.953,148.832,130.027L148.832,130.027z"/>
	</g>
</g>
<g opacity="0.9">
	<g>
		<path fill="#606161" d="M207.662,131.699c-30.726,8.513-63.049,6.664-94.501,9.943c-3.173,0.331-3.206,5.334,0,5
			c31.897-3.325,64.666-1.487,95.831-10.122C212.094,135.66,210.774,130.836,207.662,131.699L207.662,131.699z"/>
	</g>
</g>
<g opacity="0.9">
	<g>
		<path fill="#606161" d="M186.899,103.275c-36.439,6.516-70.819,19.986-102.686,38.708c-2.777,1.632-0.263,5.954,2.523,4.317
			c31.522-18.52,65.451-31.76,101.492-38.204C191.398,107.529,190.051,102.711,186.899,103.275L186.899,103.275z"/>
	</g>
</g>
<g opacity="0.9">
	<g>
		<path fill="#606161" d="M145.371,195.235c-32.439,12.959-66.378,28.78-91.08,54.146c-2.25,2.31,1.283,5.849,3.535,3.535
			c24.063-24.71,57.262-40.231,88.874-52.86C149.656,198.875,148.367,194.038,145.371,195.235L145.371,195.235z"/>
	</g>
</g>
<g opacity="0.9">
	<g>
		<path fill="#606161" d="M517.188,188.958c-26.281-0.028-52.554-1.213-78.781,1.124c-23.189,2.066-50.695,6.38-67.468,24.188
			c-2.208,2.344,1.32,5.887,3.535,3.535c16.453-17.467,43.986-21.045,66.635-22.957c25.318-2.138,50.716-0.917,76.079-0.89
			C520.413,193.962,520.413,188.962,517.188,188.958L517.188,188.958z"/>
	</g>
</g>
<g opacity="0.9">
	<g>
		<path fill="#606161" d="M399.728,180.188c-27.1,5.617-46.126,27.587-66.856,44.115c-2.521,2.01,1.042,5.523,3.535,3.535
			c20.056-15.99,38.439-37.396,64.65-42.829C404.213,184.354,402.875,179.535,399.728,180.188L399.728,180.188z"/>
	</g>
</g>
<g opacity="0.9">
	<g>
		<path fill="#606161" d="M367.984,165.391c-27.465,13.226-56.745,24.926-78.369,47.208c-2.246,2.313,1.287,5.853,3.535,3.535
			c21.301-21.947,50.306-33.398,77.357-46.425C373.412,168.31,370.875,163.999,367.984,165.391L367.984,165.391z"/>
	</g>
</g>
<g opacity="0.9">
	<g>
		<path fill="#606161" d="M305.693,180.439c-15.798,10.232-30.999,21.59-43.764,35.503c-2.175,2.371,1.351,5.916,3.535,3.535
			c12.49-13.614,27.293-24.708,42.752-34.721C310.912,183.011,308.408,178.681,305.693,180.439L305.693,180.439z"/>
	</g>
</g>
<g opacity="0.9">
	<g>
		<path fill="#606161" d="M294.807,157.422c-15.345,14.735-32.217,27.866-46.721,43.472c-2.191,2.358,1.336,5.902,3.535,3.535
			c14.504-15.606,31.376-28.737,46.721-43.472C300.671,158.72,297.131,155.189,294.807,157.422L294.807,157.422z"/>
	</g>
</g>
<g opacity="0.9">
	<g>
		<path fill="#606161" d="M215.248,251.475c-5.149,3.601-10.123,7.434-14.917,11.495c-2.464,2.087,1.091,5.605,3.535,3.535
			c4.471-3.787,9.103-7.354,13.905-10.712C220.393,253.96,217.897,249.623,215.248,251.475L215.248,251.475z"/>
	</g>
</g>
<g opacity="0.9">
	<g>
		<path fill="#606161" d="M253.278,179.158c-18.099,20.311-33.079,43.125-42.892,68.571c-1.162,3.014,3.674,4.305,4.821,1.33
			c9.488-24.604,24.112-46.734,41.606-66.366C258.951,180.295,255.427,176.746,253.278,179.158L253.278,179.158z"/>
	</g>
</g>
<g opacity="0.9">
	<g>
		<path fill="#606161" d="M184.169,244.375c-3.648,5.05-7.35,10.059-11.218,14.942c-1.979,2.498,1.534,6.062,3.535,3.535
			c4.134-5.218,8.103-10.559,12-15.954C190.379,244.28,186.038,241.788,184.169,244.375L184.169,244.375z"/>
	</g>
</g>
<g opacity="0.9">
	<g>
		<path fill="#606161" d="M144.214,272.429c-6.799,1.108-7.849,11.079-8.686,16.396c-0.529,3.361-1.059,20.606-5.826,21.18
			c-3.16,0.38-3.197,5.385,0,5c7.363-0.885,8.456-10.32,9.386-16.18c0.7-4.416,1.195-8.859,2.067-13.247
			c0.505-2.543,1.217-7.81,4.388-8.326C148.72,276.733,147.368,271.916,144.214,272.429L144.214,272.429z"/>
	</g>
</g>
<g opacity="0.9">
	<g>
		<path fill="#606161" d="M100.48,224.708c-12.059,20.372-27.549,38.359-42.588,56.544c-2.038,2.464,1.479,6.022,3.535,3.535
			c15.304-18.505,31.1-36.824,43.371-57.556C106.443,224.45,102.121,221.936,100.48,224.708L100.48,224.708z"/>
	</g>
</g>
<g opacity="0.9">
	<g>
		<path fill="#606161" d="M92.863,218.896c-9.734,6.245-19.68,12.148-29.414,18.392c-2.704,1.735-0.199,6.064,2.523,4.318
			c9.734-6.245,19.68-12.148,29.414-18.393C98.091,221.478,95.586,217.149,92.863,218.896L92.863,218.896z"/>
	</g>
</g>
<g opacity="0.9">
	<g>
		<path fill="#606161" d="M724.605,353.627c-7.831-4.498-12.916-12.84-17.314-20.448c-5.757-9.959-10.454-20.521-15.278-30.951
			c-4.763-10.299-9.531-20.64-15.368-30.386c-4.433-7.4-9.835-15.065-17.463-19.447c-2.801-1.609-5.317,2.711-2.523,4.316
			c7.831,4.5,12.916,12.842,17.314,20.451c5.757,9.959,10.454,20.521,15.278,30.951c4.763,10.299,9.53,20.64,15.368,30.386
			c4.433,7.399,9.835,15.064,17.463,19.446C724.883,359.554,727.4,355.233,724.605,353.627L724.605,353.627z"/>
	</g>
</g>
<g opacity="0.9">
	<g>
		<path fill="#606161" d="M668.04,287.819c-13.553-13.271-25.642-28.69-43.402-36.563c-2.92-1.295-5.466,3.013-2.523,4.316
			c17.375,7.702,29.133,22.799,42.391,35.781C666.809,293.611,670.347,290.078,668.04,287.819L668.04,287.819z"/>
	</g>
</g>
<g opacity="0.9">
	<g>
		<path fill="#606161" d="M686.505,277.578c-6.973-18.27-17.396-34.868-32.349-47.642c-14.868-12.703-33.272-20.317-52.263-24.324
			c-3.146-0.664-4.483,4.156-1.33,4.821c17.831,3.762,34.832,10.68,49.076,22.221c14.864,12.044,25.275,28.517,32.043,46.253
			C682.82,281.888,687.656,280.596,686.505,277.578L686.505,277.578z"/>
	</g>
</g>
<g opacity="0.9">
	<g>
		<path fill="#606161" d="M633.45,237.819c-21.106-20.29-42.879-42.911-70.753-53.629c-3.015-1.159-4.307,3.677-1.33,4.821
			c26.979,10.374,48.13,32.716,68.548,52.343C632.238,243.588,635.778,240.057,633.45,237.819L633.45,237.819z"/>
	</g>
</g>
<g opacity="0.9">
	<g>
		<path fill="#606161" d="M538.634,199.154c-3.505-11.476-14.177-18.016-24.678-22.327c-14.87-6.105-31.377-8.282-47.275-9.696
			c-31.342-2.787-63.929-1.937-95.03,3.053c-2.771,0.444-5.538,0.955-8.259,1.644c-3.124,0.791-1.798,5.613,1.329,4.821
			c10.993-2.784,22.592-3.63,33.859-4.494c17.237-1.321,34.568-1.685,51.843-1.034c17.256,0.651,34.692,2.324,51.391,6.9
			c11.472,3.144,25.238,8.28,30.925,19.617c0.456,0.91,0.775,1.875,1.071,2.845C534.751,203.558,539.577,202.246,538.634,199.154
			L538.634,199.154z"/>
	</g>
</g>
<g opacity="0.9">
	<g>
		<path fill="#606161" d="M475.661,163.878c-4.639,0.517-9.473-0.849-13.939-1.931c-7.072-1.713-14.042-3.855-21.014-5.926
			c-6.914-2.054-13.829-4.123-20.84-5.821c-4.533-1.098-9.581-2.395-14.283-1.871c-3.167,0.353-3.202,5.357,0,5
			c4.639-0.517,9.473,0.849,13.939,1.931c7.072,1.713,14.041,3.855,21.014,5.926c6.914,2.054,13.829,4.123,20.841,5.821
			c4.533,1.098,9.581,2.395,14.283,1.871C478.828,168.525,478.863,163.521,475.661,163.878L475.661,163.878z"/>
	</g>
</g>
<g opacity="0.9">
	<g>
		<path fill="#606161" d="M523.149,201.49c3.764-32.954-30.623-55.26-56.012-67.945c-16.458-8.224-33.917-14.518-51.641-19.392
			c-13.901-3.824-28.343-6.985-42.79-7.623c-3.225-0.143-3.211,4.858,0,5c13.671,0.604,27.249,3.641,40.428,7.164
			c16.963,4.535,33.59,10.545,49.417,18.157c24.427,11.749,59.227,32.87,55.598,64.639
			C517.784,204.691,522.788,204.655,523.149,201.49L523.149,201.49z"/>
	</g>
</g>
<g opacity="0.9">
	<g>
		<path fill="#606161" d="M504.607,144.155c-22.982-11.081-46.433-21.214-69.96-31.073c-24.14-10.116-48.472-20.131-73.387-28.2
			c-3.076-0.996-4.383,3.833-1.329,4.821c23.983,7.767,47.4,17.377,70.66,27.061c24.058,10.016,48.016,20.389,71.493,31.708
			C504.974,149.866,507.511,145.555,504.607,144.155L504.607,144.155z"/>
	</g>
</g>
<g opacity="0.9">
	<g>
		<path fill="#606161" d="M365.785,126.593c-54.547,0.091-110.87,7.693-161.583,28.514c-2.94,1.207-1.654,6.046,1.329,4.821
			c50.348-20.671,106.099-28.244,160.253-28.335C369.009,131.588,369.01,126.588,365.785,126.593L365.785,126.593z"/>
	</g>
</g>
<g opacity="0.9">
	<g>
		<path fill="#606161" d="M362.363,154.078c-11.417-10.65-26.509-15.512-40.902-20.708c-3.04-1.098-4.338,3.735-1.329,4.821
			c13.548,4.891,27.943,9.392,38.696,19.421C361.182,159.81,364.726,156.281,362.363,154.078L362.363,154.078z"/>
	</g>
</g>
<g opacity="0.9">
	<g>
		<path fill="#606161" d="M337.036,111.634c-35.098-9.96-71.847-8.477-107.946-8.449c-3.224,0.002-3.225,5.002,0,5
			c35.654-0.027,71.949-1.568,106.617,8.27C338.815,117.338,340.132,112.513,337.036,111.634L337.036,111.634z"/>
	</g>
</g>
<g opacity="0.9">
	<g>
		<path fill="#606161" d="M180.643,156.689c-22.956-0.001-46.008-0.031-68.549-4.927c-3.143-0.683-4.479,4.137-1.329,4.821
			c22.982,4.992,46.469,5.104,69.878,5.105C183.867,161.689,183.867,156.689,180.643,156.689L180.643,156.689z"/>
	</g>
</g>
<g opacity="0.9">
	<g>
		<path fill="#606161" d="M136.718,145.075c-25.237,9.597-52.032,13.209-78.929,13.287c-3.224,0.009-3.225,5.009,0,5
			c27.304-0.079,54.637-3.723,80.258-13.466C141.03,148.762,139.737,143.926,136.718,145.075L136.718,145.075z"/>
	</g>
</g>
<g opacity="0.9">
	<g>
		<path fill="#606161" d="M111.429,175.082c-36.406,0.089-72.605,4.927-109.011,5.016c-3.224,0.008-3.225,5.008,0,5
			c36.406-0.089,72.605-4.927,109.011-5.016C114.653,180.074,114.653,175.074,111.429,175.082L111.429,175.082z"/>
	</g>
</g>
<g opacity="0.9">
	<g>
		<path fill="#606161" d="M156.38,187.519c-10.6,11.721-27.133,15.512-42.155,17.749c-15.819,2.355-31.856,2.264-47.785,3.255
			c-3.202,0.199-3.222,5.2,0,5c16.401-1.021,32.811-1.133,49.114-3.434c15.834-2.234,33.242-6.739,44.361-19.035
			C162.072,188.669,158.547,185.122,156.38,187.519L156.38,187.519z"/>
	</g>
</g>
<g opacity="0.9">
	<g>
		<path fill="#606161" d="M176.517,175.171c-35.12,11.78-71.605,18.63-107.281,28.424c-3.105,0.853-1.786,5.676,1.329,4.821
			c35.676-9.793,72.162-16.644,107.281-28.424C180.887,178.973,179.583,174.143,176.517,175.171L176.517,175.171z"/>
	</g>
</g>
<g opacity="0.9">
	<g>
		<path fill="#606161" d="M216.314,175.171c-31.523,6.696-63.646,10.023-95.168,16.72c-3.153,0.67-1.816,5.489,1.329,4.821
			c31.523-6.697,63.645-10.024,95.168-16.72C220.796,179.323,219.459,174.503,216.314,175.171L216.314,175.171z"/>
	</g>
</g>
<g opacity="0.9">
	<g>
		<path fill="#606161" d="M234.281,166.722c-30.057,0.036-60.106,1.661-89.977,5.016c-3.167,0.356-3.202,5.36,0,5
			c29.871-3.355,59.92-4.98,89.977-5.016C237.505,171.718,237.506,166.718,234.281,166.722L234.281,166.722z"/>
	</g>
</g>
<g opacity="0.9">
	<g>
		<path fill="#606161" d="M242.933,143.313c-17.875-1.727-35.751-3.44-53.64-5.016c-3.213-0.283-3.186,4.719,0,5
			c17.889,1.576,35.765,3.289,53.64,5.016C246.142,148.624,246.112,143.621,242.933,143.313L242.933,143.313z"/>
	</g>
</g>
<g opacity="0.9">
	<g>
		<path fill="#606161" d="M225.631,124.921c-21.625-0.144-42.848-5.07-63.359-11.615c-3.081-0.983-4.389,3.845-1.329,4.821
			c20.921,6.675,42.633,11.646,64.688,11.793C228.856,129.943,228.854,124.943,225.631,124.921L225.631,124.921z"/>
	</g>
</g>
<g opacity="0.9">
	<g>
		<path fill="#606161" d="M244.664,118.233c-23.044-1.974-43.992-13.087-65.088-21.646c-2.989-1.213-4.276,3.625-1.329,4.821
			c21.603,8.765,42.826,19.805,66.417,21.825C247.878,123.509,247.852,118.506,244.664,118.233L244.664,118.233z"/>
	</g>
</g>
<g opacity="0.9">
	<g>
		<path fill="#606161" d="M273.611,133.623c-24.583-18.369-54.649-25.479-83.654-33.692c-3.109-0.88-4.426,3.944-1.329,4.821
			c28.619,8.104,58.202,15.063,82.459,33.188C273.674,139.872,276.162,135.528,273.611,133.623L273.611,133.623z"/>
	</g>
</g>
<g opacity="0.9">
	<g>
		<path fill="#606161" d="M319.732,135.043c-30.573-6.818-55.796-26.038-84.189-38.204c-2.93-1.255-5.479,3.051-2.523,4.317
			c28.789,12.336,54.379,31.794,85.383,38.708C321.544,140.565,322.878,135.745,319.732,135.043L319.732,135.043z"/>
	</g>
</g>
<g opacity="0.9">
	<g>
		<path fill="#606161" d="M303.531,125.654c-18.136-19-41.462-31.843-64.527-43.863c-2.855-1.488-5.384,2.827-2.523,4.317
			c22.695,11.827,45.668,24.384,63.516,43.081C302.226,131.525,305.756,127.985,303.531,125.654L303.531,125.654z"/>
	</g>
</g>
<g opacity="0.9">
	<g>
		<path fill="#606161" d="M358.902,127.326c-15.981-19.113-26.792-42.099-47.225-57.239c-2.594-1.922-5.083,2.421-2.523,4.317
			c19.941,14.777,30.599,37.783,46.213,56.457C357.438,133.337,360.956,129.781,358.902,127.326L358.902,127.326z"/>
	</g>
</g>
<g opacity="0.9">
	<g>
		<path fill="#606161" d="M348.521,97.23c-12.379-10.251-24.833-20.415-38.573-28.815c-2.759-1.687-5.269,2.639-2.523,4.317
			c13.38,8.181,25.506,18.05,37.562,28.033C347.448,102.805,351.006,99.288,348.521,97.23L348.521,97.23z"/>
	</g>
</g>
<g opacity="0.9">
	<g>
		<path fill="#606161" d="M370.508,100.183c-22.946-12.021-44.536-26.435-67.482-38.456c-2.853-1.495-5.38,2.821-2.523,4.317
			c22.946,12.021,44.536,26.435,67.482,38.456C370.837,105.995,373.365,101.679,370.508,100.183L370.508,100.183z"/>
	</g>
</g>
<g opacity="0.9">
	<g>
		<path fill="#606161" d="M412.542,127.326c-14.357-15.552-29.71-30.215-47.224-42.191c-2.669-1.826-5.167,2.51-2.523,4.317
			c17.156,11.732,32.149,26.177,46.212,41.409C411.198,133.235,414.725,129.69,412.542,127.326L412.542,127.326z"/>
	</g>
</g>
<g opacity="0.9">
	<g>
		<path fill="#606161" d="M476.089,146.724c-10.516-17.417-27.986-31.215-43.432-44.019c-16.047-13.303-32.722-26.019-50.036-37.635
			c-2.686-1.802-5.186,2.531-2.523,4.317c16.969,11.385,33.267,23.853,49.024,36.853c8.775,7.24,17.344,14.747,25.47,22.711
			c6.295,6.17,12.602,12.713,17.18,20.296C473.436,152.003,477.761,149.492,476.089,146.724L476.089,146.724z"/>
	</g>
</g>
<g opacity="0.9">
	<g>
		<path fill="#606161" d="M537.891,148.198c-25.221-12.857-44.748-34.314-62.652-55.749c-2.069-2.478-5.587,1.079-3.535,3.535
			c18.166,21.748,38.076,43.488,63.664,56.531C538.233,153.977,540.764,149.663,537.891,148.198L537.891,148.198z"/>
	</g>
</g>
<g opacity="0.9">
	<g>
		<path fill="#606161" d="M539.048,142.683c-15.123-5.886-26.901-17.88-37.381-29.869c-10.301-11.783-19.405-24.57-29.937-36.155
			c-2.173-2.391-5.699,1.156-3.535,3.535c21.306,23.437,38.59,55.27,69.523,67.31C540.728,148.675,542.018,143.839,539.048,142.683
			L539.048,142.683z"/>
	</g>
</g>
<g opacity="0.9">
	<g>
		<path fill="#606161" d="M581.766,208.607c-18.575-30.756-26.61-66.486-42.783-98.412c-1.457-2.877-5.771-0.345-4.316,2.523
			c16.172,31.926,24.203,67.648,42.781,98.412C579.112,213.886,583.437,211.375,581.766,208.607L581.766,208.607z"/>
	</g>
</g>
<g opacity="0.9">
	<g>
		<path fill="#606161" d="M613.777,208.436c-22.055-30.956-30.043-69.304-47.418-102.713c-1.488-2.861-5.804-0.333-4.318,2.523
			c17.374,33.404,25.361,71.753,47.42,102.713C611.314,213.561,615.653,211.068,613.777,208.436L613.777,208.436z"/>
	</g>
</g>
<g opacity="0.9">
	<g>
		<path fill="#606161" d="M619.95,183.332c-12.613-31.608-23.347-64.886-42.14-93.534c-1.76-2.684-6.091-0.181-4.316,2.523
			c18.566,28.304,29.173,61.11,41.634,92.34C616.309,187.618,621.146,186.329,619.95,183.332L619.95,183.332z"/>
	</g>
</g>
<g opacity="0.9">
	<g>
		<path fill="#606161" d="M647.967,188.314c-22.229-15.262-37.723-39.656-51.072-62.565c-1.621-2.784-5.943-0.268-4.316,2.523
			c13.802,23.688,29.896,48.59,52.865,64.359C648.109,194.462,650.606,190.127,647.967,188.314L647.967,188.314z"/>
	</g>
</g>
<g opacity="0.9">
	<g>
		<path fill="#606161" d="M687.975,226.749c-37.33-17.091-70.319-41.887-103.034-66.361c-2.585-1.934-5.072,2.41-2.523,4.317
			c32.715,24.474,65.704,49.27,103.034,66.362C688.36,232.399,690.903,228.09,687.975,226.749L687.975,226.749z"/>
	</g>
</g>
<g opacity="0.9">
	<g>
		<path fill="#606161" d="M712.121,278.928c-49.664-38.712-96.281-81.448-135.253-131.084c-1.99-2.535-5.502,1.03-3.535,3.535
			c38.972,49.637,85.588,92.373,135.253,131.084C711.097,284.42,714.662,280.909,712.121,278.928L712.121,278.928z"/>
	</g>
</g>
<g opacity="0.9">
	<g>
		<path fill="#606161" d="M726.258,348.631c-9.938-5.104-16.632-14.851-22.221-24.193c-7.509-12.553-13.285-26.134-18.912-39.604
			c-5.413-12.955-10.552-26.03-16.379-38.809c-4.685-10.272-9.834-20.837-17.472-29.279c-2.167-2.396-5.692,1.151-3.535,3.535
			c7.833,8.659,12.871,19.812,17.633,30.344c6.073,13.437,11.397,27.202,17.136,40.781c5.542,13.118,11.395,26.212,18.908,38.339
			c5.614,9.062,12.646,18.234,22.318,23.203C726.597,354.419,729.127,350.106,726.258,348.631L726.258,348.631z"/>
	</g>
</g>
<g opacity="0.9">
	<g>
		<path fill="#606161" d="M753.443,368.927c-18.973-23.366-34.333-49.67-51.104-74.604c-16.15-24.013-33.117-49.957-56.034-68.132
			c-2.498-1.981-6.061,1.532-3.535,3.535c23.393,18.552,40.466,45.08,56.916,69.597c16.438,24.499,31.595,50.198,50.223,73.14
			C751.941,374.967,755.457,371.407,753.443,368.927L753.443,368.927z"/>
	</g>
</g>
<g opacity="0.9">
	<g>
		<path fill="#606161" d="M778.936,354.901c-10.954-4.267-20.057-12.163-28.275-20.367c-9.769-9.75-18.422-20.59-27.084-31.311
			c-15.508-19.194-31.633-41.978-54.414-53.072c-2.886-1.405-5.422,2.906-2.523,4.318c23.146,11.271,39.378,34.947,55.131,54.429
			c15.418,19.066,32.204,41.62,55.838,50.825C780.615,360.895,781.906,356.058,778.936,354.901L778.936,354.901z"/>
	</g>
</g>
<g opacity="0.9">
	<g>
		<path fill="#606161" d="M925.266,386.236c-11.624,9.401-25.434,14.22-39.908,17.215c-3.156,0.653-1.816,5.473,1.33,4.822
			c15.405-3.188,29.772-8.52,42.113-18.502C931.309,387.743,927.748,384.228,925.266,386.236L925.266,386.236z"/>
	</g>
</g>
<g opacity="0.9">
	<g>
		<path fill="#606161" d="M900.843,381.86c-6.705,5.718-13.786,10.881-22.161,13.839c-3.02,1.066-1.72,5.898,1.328,4.822
			c9.222-3.258,16.982-8.827,24.368-15.126C906.835,383.3,903.281,379.781,900.843,381.86L900.843,381.86z"/>
	</g>
</g>
<g opacity="0.9">
	<g>
		<path fill="#606161" d="M890.256,363.581c-5.776,6.689-12.764,11.834-19.978,16.859c-2.625,1.828-0.13,6.165,2.523,4.316
			c7.55-5.259,14.941-10.637,20.989-17.641C895.888,364.689,892.366,361.136,890.256,363.581L890.256,363.581z"/>
	</g>
</g>
<g opacity="0.9">
	<g>
		<path fill="#606161" d="M896.281,352.079c-14.057,9.592-30.069,15.171-46.961,16.979c-3.171,0.339-3.204,5.343,0,5
			c17.778-1.902,34.667-7.55,49.484-17.66C901.45,354.591,898.953,350.256,896.281,352.079L896.281,352.079z"/>
	</g>
</g>
<g opacity="0.9">
	<g>
		<path fill="#606161" d="M874.137,353.546c-10.928,3.918-22.38,5.632-33.822,7.299c-3.182,0.464-1.824,5.281,1.328,4.822
			c11.443-1.667,22.896-3.382,33.824-7.299C878.479,357.289,877.18,352.456,874.137,353.546L874.137,353.546z"/>
	</g>
</g>
<g opacity="0.9">
	<g>
		<path fill="#606161" d="M845.354,336.334c-5.412-0.098-10.678-1.526-16.092-1.622c-3.227-0.058-3.221,4.942,0,5
			c5.412,0.096,10.678,1.524,16.092,1.622C848.58,341.393,848.574,336.393,845.354,336.334L845.354,336.334z"/>
	</g>
</g>
<g opacity="0.9">
	<g>
		<path fill="#606161" d="M873.801,352.996c-23.817-6.383-43.449-27.796-51.092-50.824c-1.011-3.044-5.841-1.739-4.822,1.33
			c8.189,24.673,29.044,47.471,54.584,54.316C875.59,358.653,876.912,353.83,873.801,352.996L873.801,352.996z"/>
	</g>
</g>
<g opacity="0.9">
	<g>
		<path fill="#606161" d="M858.232,342.586c-19.325-15.912-37.597-34.021-49.131-56.512c-1.472-2.87-5.785-0.34-4.316,2.523
			c11.715,22.844,30.279,41.359,49.912,57.523C857.165,348.154,860.724,344.637,858.232,342.586L858.232,342.586z"/>
	</g>
</g>
<g opacity="0.9">
	<g>
		<path fill="#606161" d="M850.496,354.812c-14.215-12.137-24.592-27.217-33.008-43.793c-1.461-2.876-5.774-0.345-4.318,2.523
			c8.595,16.927,19.277,32.414,33.791,44.805C849.398,360.428,852.952,356.909,850.496,354.812L850.496,354.812z"/>
	</g>
</g>
<g opacity="0.9">
	<g>
		<path fill="#606161" d="M819.182,322.666c-6.691-13.298-13.383-26.597-20.074-39.895c-1.449-2.881-5.762-0.349-4.316,2.523
			c6.691,13.298,13.381,26.597,20.072,39.895C816.313,328.07,820.626,325.538,819.182,322.666L819.182,322.666z"/>
	</g>
</g>
<g opacity="0.9">
	<g>
		<path fill="#606161" d="M811.668,324.391c-9.342-24.149-20.979-47.31-32.605-70.418c-1.45-2.881-5.763-0.349-4.318,2.523
			c11.433,22.72,22.918,45.48,32.104,69.225C807.998,328.695,812.834,327.403,811.668,324.391L811.668,324.391z"/>
	</g>
</g>
<g opacity="0.9">
	<g>
		<path fill="#606161" d="M792.217,310.572c-5.094-18.371-11.455-36.137-22.02-52.138c-1.769-2.678-6.101-0.176-4.318,2.523
			c10.338,15.656,16.533,32.97,21.518,50.944C788.256,315.004,793.08,313.685,792.217,310.572L792.217,310.572z"/>
	</g>
</g>
<g opacity="0.9">
	<g>
		<path fill="#606161" d="M778.324,302.285c-4.677-14.873-10.596-29.324-17.557-43.272c-1.44-2.886-5.753-0.353-4.318,2.523
			c6.772,13.569,12.504,27.609,17.055,42.079C774.467,306.679,779.295,305.37,778.324,302.285L778.324,302.285z"/>
	</g>
</g>
<g opacity="0.9">
	<g>
		<path fill="#606161" d="M758.057,283.985c-4.253-5.657-5.885-13.322-7.565-20.051c-2.612-10.461-4.497-21.103-6.464-31.698
			c-1.899-10.236-3.761-20.488-6.16-30.621c-1.688-7.125-3.482-14.948-7.516-21.177c-1.744-2.696-6.075-0.192-4.316,2.523
			c3.99,6.165,5.584,13.956,7.251,21c2.506,10.581,4.379,21.311,6.364,31.998c1.883,10.139,3.769,20.29,6.268,30.298
			c1.695,6.787,3.537,14.553,7.822,20.252C755.652,289.052,759.996,286.565,758.057,283.985L758.057,283.985z"/>
	</g>
</g>
<g opacity="0.9">
	<g>
		<path fill="#606161" d="M873.381,389.868c-22.062-16.606-40.628-37.17-60.111-56.598c-2.285-2.278-5.82,1.257-3.535,3.535
			c19.805,19.749,38.698,40.5,61.123,57.379C873.436,396.125,875.923,391.781,873.381,389.868L873.381,389.868z"/>
	</g>
</g>
<g opacity="0.9">
	<g>
		<path fill="#606161" d="M846.191,388.272c-29.172-22.347-61.061-40.553-93.902-56.906c-2.877-1.432-5.41,2.881-2.523,4.318
			c32.842,16.353,64.73,34.559,93.902,56.906C846.229,394.551,848.714,390.205,846.191,388.272L846.191,388.272z"/>
	</g>
</g>
<g opacity="0.9">
	<g>
		<path fill="#606161" d="M803.447,377.838c-26.901-18.017-53.829-36.044-79.477-55.83c-2.553-1.97-5.038,2.377-2.523,4.316
			c25.647,19.787,52.575,37.814,79.477,55.832C803.611,383.957,806.111,379.624,803.447,377.838L803.447,377.838z"/>
	</g>
</g>
<g opacity="0.9">
	<g>
		<path fill="#606161" d="M812.932,399.454c-27.99-14.844-53.423-34.151-82.229-47.506c-2.905-1.347-5.446,2.963-2.523,4.318
			c28.806,13.354,54.238,32.661,82.229,47.504C813.255,405.28,815.781,400.964,812.932,399.454L812.932,399.454z"/>
	</g>
</g>
<g opacity="0.9">
	<g>
		<path fill="#606161" d="M825.141,416.365c-32.313-10.774-62.747-26.18-94.413-38.596c-3.006-1.178-4.296,3.659-1.33,4.822
			c31.668,12.415,62.098,27.819,94.413,38.596C826.879,422.209,828.183,417.379,825.141,416.365L825.141,416.365z"/>
	</g>
</g>
<g opacity="0.9">
	<g>
		<path fill="#606161" d="M818.504,425.258c-26.676-8.859-52.777-19.293-78.854-29.758c-2.995-1.201-4.283,3.637-1.33,4.822
			c26.077,10.464,52.179,20.897,78.855,29.758C820.244,431.099,821.549,426.27,818.504,425.258L818.504,425.258z"/>
	</g>
</g>
<g opacity="0.9">
	<g>
		<path fill="#606161" d="M827.426,442.99c-30.92-10.219-61.846-20.556-91.584-33.911c-2.916-1.31-5.461,2.998-2.523,4.316
			c30.138,13.535,61.442,24.06,92.779,34.417C829.167,448.827,830.473,443.997,827.426,442.99L827.426,442.99z"/>
	</g>
</g>
<g opacity="0.9">
	<g>
		<path fill="#606161" d="M845.805,471.236c-34.26-11.543-62.379-37.007-89.405-60.052c-26.353-22.473-53.466-47.06-86.467-59.206
			c-3.033-1.116-4.329,3.718-1.33,4.822c33.548,12.347,60.981,38.085,87.745,60.889c26.62,22.68,54.443,47.02,88.129,58.369
			C847.54,477.09,848.844,472.26,845.805,471.236L845.805,471.236z"/>
	</g>
</g>
</svg>
