<svg xmlns="http://www.w3.org/2000/svg" version="1.1" x="0" y="0" width="750.9" height="317.5" viewBox="0 0 750.9 317.5" xml:space="preserve"><style type="text/css">
	.st0{fill:none;stroke:#000000;stroke-miterlimit:10;}
	.st1{opacity:9.999999e-002;}
</style><path class="st0" d="M50.9 147.4c23.5-24.1 41.7-54.3 76.8-61.4 42.1-8.5 82.2-20.3 123.6-33.3 43.1-13.5 90.8-9.9 135-4 27.7 3.7 45.7 14.7 71.6 22.9 16.5 5.2 35.2 5.1 50.5 14 10.7 6.2 19.1 16.3 29.8 22.8 23.9 14.7 45 32.4 71.7 42.9 15.2 6 30.7 10.6 46.1 15.3 11.3 3.4 31.9 4.8 40.4 10.6M50.9 196.5c31.8-11 43.4-23.5 59.3-52.2 13-23.5 29.2-46.5 54.9-57.9 37.3-16.6 91.4-17.2 131.5-21.3 38.1-3.9 73.8-12.9 112.5-9.3 38.8 3.6 67.9 24.6 103.2 38.5 31.7 12.5 58.5 34.2 89.5 47.5 31.8 13.6 77.4 35.6 114 31.9M663.2 177.2c-16.5-1.3-31-8.6-49.5-8.8 -20.3-0.2-38.8 2-58.6 4.9 -46.6 6.7-78.2 29.1-119.5 51.7 -29.1 15.9-59 32.1-91.7 36.7 -28.8 4.1-60.5 1.9-89.4-0.8 -70.4-6.6-136.6-60.5-207.1-36.4M63.2 222.8c6.6-2.9 24-9.6 26.4-17.1 5.4-16.3-15-11-26.4-11M286 93c-41.1-0.5-63.3 40.2-59.6 75.4 4.4 42.5 44.1 62.1 83.8 66.8 43.9 5.2 104.2-9.7 107.4-61.9 2.5-40.5-33.3-66.7-68.1-75.4 -24.8-6.3-46 0.6-70.5-1.4M317.5 140.4c-19.2-3.5-47 3-40.4 29.9 4.9 19.9 35.9 26.6 54.3 24.5 14.4-1.6 45.2-24.2 35-43.5 -7.7-14.5-50.5-10.9-64.7-10.9M52.6 256.1c35.8-23.6 66.5-8.6 99.9 8.4 31 15.8 73.1 19.4 107.5 22.8 82.5 8 145-34.6 216.8-67.6 6.2-2.8 12.1-5.5 17.9-7.5M529.8 205.3c19.7-36.7 87.6-18.3 119.3-19.3M119.3 101.8c11.3-17.7 10.8-39.6 24.6-57.9M156.1 77.2c16.6-2.4 37.9-26.7 49.1-38.6M280.7 49.1c-8.4 3.9-16.8 8.1-26.3 7M305.3 57.9c6.6-10.8 10.2-22.1 10.5-35.1M333.3 54.4c13.1-3.7 36.7-10 33.3-28.1M393 56.1c10.5-2.5 20-9.7 24.6-19.3M426.3 66.7c11-1.2 30.6-7.5 36.8-17.5M521.1 77.2c-7.5 3.6-14.6 6.9-22.8 7M580.7 110.5c-5.4 4.7-13.7 7.1-21.1 10.5M580.7 135.1c9.7 0.2 20.7 2.3 26.3-7M612.3 152.6c9.6-0.9 18.1-5 24.6-12.3M277.2 28.1c-13 3.6-20.5 14.7-24.6 28.1M280.7 52.6c7.9-11.3 14.1-21.6 17.5-35.1M245.6 26.3c-3.1 13.1-2.8 24.4-10.5 36.8M207 64.9c1.6-9.9 7.2-21.6 12.3-29.8M300 275.4c13.2 0.3 24.8 5.5 33.3 15.8M440.4 250.9c-12.4 0-27.8-2.9-38.6 3.5M442.1 228.1c16.7 0 35.9-1.1 50.9 5.3M496.5 207c12.8 2.8 19.8 5.4 29.8 14M603.5 198.2c-10-10.9-27.5-20.1-42.1-19.3"/><path d="M319.7 167.2c-2.8-3.8-7.8-6.9-6.8-12.1 -1.2 0.5-2.4 1-3.7 1.5 2 1.1 8.2 5.3 2.5 5.9 -5.8 0.6-8.4-5.8-9.3-10.4 -0.6 1-1.2 2.1-1.7 3.1 3.7-1.4 7.1-1.2 10.4 1 1.8 1.1 4.9 4.6 1 4.7 -2.4 0-3.6 3.5-1.3 4.7 0.8 0.4 1.7 0.4 2.6 0.6 2 0.4-0.2 0-0.1-0.1 -1.9 2 1.9 3.6 2.1 1.3 0.2-2.6 1.8-5.4 1.5-8 -0.1-1.3-1.1-2.6-2.5-2.5 -1.2 0.1-2 0.7-2.5 1.7 1.5 0.6 3 1.3 4.6 1.9 0-0.1 0-0.1 0-0.2 -0.8 0.6-1.6 1.2-2.4 1.8 -1.5 0.1-1-0.4 0.1 0.9 0.8 0.9 1.4 1.8 2.1 2.7 0.7 0.9 2.5 3.3 2.6 3.6 0.8-1.1 1.6-2.1 2.4-3.2 2.8 0.3 1.1-1.4 0.6-3 -0.4-1.1-0.7-2.2-0.9-3.3 -0.7-2.7 0.7 0-2.1-0.4 0.4 0.1 0.9 0.3 1.2 0.5 3 1.5 5.8 3.1 9.1 3.9 0.4-1.6 0.9-3.2 1.3-4.8 -4.5-0.7-7.4 3.1-10 6.3 -1.4 1.8-2.9 3.7-4.9 4.8 -2.7 1.5-5.7-8.1-6.1-9.4 -0.6 1-1.2 2.1-1.7 3.1 8-3 14.3-1.2 20.4 4.6 0-1.2 0-2.4 0-3.5 -3.7 3.1-9.4 7.8-14.7 6.2 -3-0.9-4.2-4.8-4.5-7.5 -0.2-2.1-0.2-5.8 1.1-7.1 -0.8 0.8-1.1-0.5 0.1 1.1 1.7 2.3 2.5 5.3 3.3 8 0.6-1 1.2-2.1 1.7-3.1 -2.9 1-6 2.5-9.1 2.6 -2.8 0.1-4.6-4.8-5.6-6.7 -0.3 1.1-0.6 2.3-0.9 3.4 2.7-1.8 16.6-10.6 14.6-1.2 -0.3 1.4-1.6 3.7-1.9 3.8 0.2 0-0.6-0.9-0.9-1.6 -1.1-2.6-1.4-5.5-1.7-8.3 -0.8 0.8-1.7 1.7-2.5 2.5 2.6 0 5.9-0.4 8.3 0.6 2.5 1.1 4 4.8 5.3 6.9 0.3-1.1 0.6-2.3 0.9-3.4 -7.4 4.7-15.6 5.8-19.1-3.8 -0.4 0.9-0.8 1.9-1.1 2.8 2-1.5 9.6-7 11.4-2.5 1.2 2.9-0.4 6.7-2.9 8.3 -3.8 2.4-15-1.9-12.8-7 2.5-5.7 11.6-7.8 17-7.2 -0.8-0.8-1.7-1.7-2.5-2.5 0.3 3.6 1.5 7 1.8 10.5 1.6-0.4 3.1-0.8 4.7-1.3 -0.8-1.6-3.1-4.5-1.8-5.8 1.6-1.7 2.7-3.6 3.6-5.7 -1.5-0.2-3-0.4-4.6-0.6 1.3 4.1 2.2 8.2 3.5 12.3 1.5-0.6 3-1.3 4.6-1.9 -2.4-3.9-3.4-8.2-5.3-12.3 -0.7 1.3-1.4 2.5-2.2 3.8 9.2 0.1 16.7 2.3 18.6 12.2 1.5-0.6 3-1.3 4.6-1.9 -5.7-13.1-21.5-21.6-35.5-20.8 -15.7 0.9-24.3 18.1-17.7 32 7.3 15.1 30.4 18.9 44.6 12.9 9.2-3.9 20.2-13.9 17.9-24.9 -1.9-9.3-12.5-14.6-20.6-17.4 -10.3-3.6-22.3-4.6-32.9-1.5 -10.1 2.9-17 10.7-17.3 21.3 -0.6 17.6 16.4 27.2 31.3 31.3 7.8 2.1 17 3.1 24.7 0 8.1-3.2 15.9-10.3 17.7-19 3.7-18.6-19.3-30.2-34.4-31.1 -11.7-0.7-30.2 4.2-31.5 18.3 -1.1 11.1 10.1 20.5 18.9 25.1 16.4 8.5 35.1 4.9 46-10.2 5.7-7.9 11.7-20.8 3.1-28.9 -7.9-7.5-22.4-6.5-32.3-5.7 0.2 1.6 0.4 3.3 0.7 4.9 12.8-3.4 29.1 1.9 35.3 14.2 6.3 12.6-9 22.2-19.1 25.2 -10.9 3.2-23 3.7-34.2 1.8 -9.5-1.7-21.3-6.3-22.2-17.3 -1.6 0.4-3.1 0.8-4.7 1.3 7.2 14.5 20.8 22.9 37 22.8 14.5-0.1 29.3-6.7 39.5-16.9 8.9-8.9 13.6-21.8 7-33.4 -7.2-12.7-23.2-16.2-36.6-16.5 -13.5-0.3-28.4 2.9-39.1 11.6 -11.2 9.1-9.9 23-2.5 34.1 1.3 1.9 4.9 1.4 4.7-1.3 -2.9-32.3 39.2-38.1 61.2-25.9 2.8 1.6 5.2-2.5 2.5-4.3 -10-6.7-21.5-10.2-33.5-8.2 -12.4 2.1-23.5 8.3-33.9 15.2 1.1 1.1 2.3 2.3 3.4 3.4 7-11.4 21-11 32.9-11 3.2 0 3.2-5 0-5 -7.9 0-15.7 0-23.5 1.8 -2.7 0.6-2.2 5.2 0.7 4.9 3.2-0.3 6-1.7 9.1-2.3 -0.4-1.6-0.9-3.2-1.3-4.8 -0.5 0.2-1 0.3-1.4 0.5 -3 1-1.7 5.8 1.3 4.8 0.5-0.2 1-0.3 1.4-0.5 3.1-1.1 1.8-5.5-1.3-4.8 -2.6 0.5-5.1 1.9-7.8 2.2 0.2 1.6 0.4 3.3 0.7 4.9 7.3-1.7 14.7-1.7 22.1-1.7 0-1.7 0-3.3 0-5 -13.9 0-29.2 0.3-37.2 13.5 -1.3 2.1 1.3 4.8 3.4 3.4 9.2-6.1 18.8-11.6 29.7-14.1 11.7-2.7 23 0.6 32.7 7.1 0.8-1.4 1.7-2.9 2.5-4.3 -25.1-13.9-71.9-6-68.7 30.2 1.6-0.4 3.1-0.8 4.7-1.3 -4-6-7.2-13.4-4.2-20.6 2.6-6.1 8.7-10 14.5-12.6 13.8-6.2 31.6-6.8 45.8-1.8 13.4 4.8 20 18.4 12.7 31.1 -7.2 12.7-22.9 20.5-37 22.2 -16.1 1.9-30-5.6-37.2-20.1 -1.1-2.2-4.9-1.2-4.7 1.3 1.2 13.2 13.1 19.5 24.9 22 13.6 2.8 29 1.8 42.1-3 12.8-4.7 24-17.1 17.8-31.2 -6.4-14.6-26.7-20.3-40.9-16.5 -2.7 0.7-2.2 5.1 0.7 4.9 9-0.7 20-1.4 27.9 3.6 9 5.7 0.1 19.7-4.5 25.4 -9.4 11.7-24.9 12.8-37.7 6.5 -7.9-3.9-20.8-14.6-15.1-24.7 3.4-6.1 12.1-7.9 18.4-9 10.6-1.8 22.1 2 29.9 9.2 7.5 7 8.7 16.7 1.5 24.3 -7.3 7.7-16.7 9.1-26.7 7.4 -15.2-2.6-35.7-12.8-31.7-31.3 2.2-10.6 14-13.9 23.4-14.2 10.7-0.4 22.3 2.3 31 8.6 6.7 4.8 8.2 11.9 2.7 18.3 -10.2 12.1-26.9 14.3-40.7 7.1 -8-4.2-12.1-11.6-10.4-20.6 1.3-6.8 6-11.2 12.7-12.6 12.7-2.5 27.9 6.6 33 18.1 1.2 2.8 5.1 0.7 4.6-1.9 -2.3-12.1-12.1-15.7-23.5-15.9 -2 0-2.9 2.1-2.2 3.8 1.9 4.1 2.8 8.4 5.3 12.3 1.5 2.3 5.5 0.9 4.6-1.9 -1.3-4.1-2.2-8.2-3.5-12.3 -0.6-1.8-3.6-2.7-4.6-0.6 -1 2.4-4.1 4.9-4.6 7.3 -0.7 3.2 1.5 6.5 2.8 9.2 1.1 2.2 4.8 1.2 4.7-1.3 -0.3-3.6-1.5-7-1.8-10.5 -0.1-1.5-1.1-2.3-2.5-2.5 -7.9-0.9-20.7 3.4-22.3 12.4 -1.6 8.7 12 14.2 18.8 11.9 5.7-1.9 8.8-9.1 7-14.7 -2.9-9-13.7-4.2-18.8-0.5 -0.9 0.6-1.6 1.7-1.1 2.8 4.7 12.7 16 13.4 26.5 6.8 1.1-0.7 1.6-2.2 0.9-3.4 -1.8-3.1-3.6-6.3-6.5-8.4 -3.1-2.2-7.9-1.6-11.4-1.6 -1.3 0-2.6 1.1-2.5 2.5 0.5 4.6 1 13.1 6.5 14.8 4 1.3 6.8-3.4 7.7-6.5 1.2-3.7 0.6-8.1-2.8-10.4 -5.7-3.8-14.5 2.3-18.9 5.3 -1.2 0.8-1.5 2.1-0.9 3.4 1.9 3.6 3.9 7.6 8 9 3.8 1.3 8.9-1.4 12.4-2.6 1.3-0.4 2.2-1.7 1.7-3.1 -1.1-3.7-3.9-13.9-9.7-12.4 -4.3 1.1-4.8 7.3-4.7 10.9 0.2 4.9 2.2 10.3 6.8 12.7 7.3 3.7 15.6-2.5 21-6.9 1-0.9 0.9-2.7 0-3.5 -7.3-7-15.6-9.5-25.2-5.9 -1.2 0.4-2.2 1.7-1.7 3.1 1.8 5.1 5.5 15.7 13 12.6 2.5-1 4.3-3.2 6-5.2 0.9-1.1 3.9-5.9 5.6-5.6 3.1 0.5 4.5-4.1 1.3-4.8 -3.3-0.8-10.4-6.6-13.6-3.7 -1.9 1.7-1.1 4.6-0.5 6.8 0.7 2.8 1.4 8.6 5 9 1.6 0.2 2.9-1.7 2.4-3.2 -0.9-2.9-6.2-11.1-9.6-10.9 -1.2 0.1-2.1 0.7-2.4 1.8 0 0.1 0 0.1 0 0.2 -0.9 2.7 3.2 4.4 4.6 1.9 0.1-0.2 0.2-0.3 0.3-0.5 -0.7 0.4-1.4 0.8-2.2 1.2 0 0 0 0 0.1 0 -0.8-0.8-1.7-1.7-2.5-2.5 0.1 1.5-4.3 15.7 2.7 11.9 2.5-1.3 5.6-4.7 3.9-7.6 -0.7-1.2-2-1.8-3.2-2.2 -0.8-0.3-4.2-1.3-1.9-0.2 -0.4 1.6-0.8 3.1-1.3 4.7 5.7 0 8.4-4.3 5.9-9.4 -3.3-6.7-12.3-8.5-18.7-6.1 -1.4 0.5-2 1.6-1.7 3.1 1.5 7.8 7.9 16.6 17 13.6 2.7-0.9 4.7-3.3 4.7-6.2 -0.1-4.1-4.3-6.8-7.5-8.4 -1.3-0.7-3.4-0.2-3.7 1.5 -1.4 7.6 3.3 10.4 7.3 16C317.3 172.3 321.6 169.8 319.7 167.2L319.7 167.2z"/><path d="M341.3 157c1.3-0.3 2.1-0.4 3.6-0.5 0.8 0 1.6 0.2 0.5-0.2 0.5 0.2 1 0.5 1.4 0.8 -1-0.8-1.1-0.8-0.3 0 -0.8-1-0.9-1-0.3-0.1 -1.1-2-0.2 0 0 0.6 -0.5-2.4-0.1 0.9-0.2 1.6 0.1-2.3-0.4 1.3-0.5 1.8 -0.5 1.7-1.8 3.8-2.7 4.8 -2.2 2.5-2.7 2.9-5.4 4.4 -3 1.7-6.1 2.9-9.3 4 -7 2.5-14.4 4.5-20.8 8.2 -8 4.6-5.4 15.4 2.4 18.3 11.3 4.2 24.1 2.4 34.3-3.7 11-6.6 17.2-17.9 18.7-30.5 0.6-5.4-5-10-10-10 -5.9 0-9.4 4.6-10 10 -0.7 6-4.9 10.9-9.8 13.8 -5.7 3.4-11.7 3.4-17.9 1.1 0.8 6.1 1.6 12.2 2.4 18.3 6.7-3.8 16.4-6.1 24.6-9.6 8.6-3.7 16-9.5 20.4-17.9 4.2-8.1 5.2-17.9 0.7-26 -5.3-9.8-17.4-10.8-27.1-8.6C323.4 140.6 328.7 159.9 341.3 157L341.3 157z"/><path d="M319.3 181.2c-10.6-0.2-16.5-7.6-20.2-17.2 -2-5.1-6.6-8.5-12.3-7 -4.9 1.3-8.9 7.2-7 12.3 6.9 17.8 19.2 31.5 39.5 31.9C332.2 201.5 332.2 181.5 319.3 181.2L319.3 181.2z"/><g class="st1"><path d="M50 211.4c21-4 38.6-22.2 52-37.7 14.3-16.5 27.4-35 35.7-55.3 2.1-5.1-2.2-11-7-12.3 -5.7-1.6-10.2 1.9-12.3 7 -1.1 2.6 0.8-1.9-0.4 0.8 -0.4 0.9-0.8 1.7-1.2 2.6 -0.9 1.9-1.8 3.7-2.8 5.5 -2.2 4.1-4.6 8.1-7.1 12 -5.7 9-12.1 17.5-19 25.6 -6.8 8-14.3 15.4-22.4 22 -6.5 5.2-13.1 9-20.7 10.5 -5.4 1-8.3 7.4-7 12.3C39.3 210 44.7 212.4 50 211.4L50 211.4z"/></g><g class="st1"><path d="M55.3 199.1c12.1-4.1 23.1-9.8 33.1-17.9 8.4-6.8 15.1-15.4 21.4-24.1 6.6-9.1 12.3-19.1 19.9-27.4 7.5-8.2 17.1-14 27.3-18.3 25-10.6 50.5-19.9 75.4-30.7 23.9-10.3 48.5-19.5 74.7-21.3 58.3-4 117.8 8.7 172.4 28.2 57.7 20.5 110.4 51.8 165.1 78.8 12.1 6 24.2 11.8 36.4 17.7 4.9 2.4 10.8 1.4 13.7-3.6 2.6-4.4 1.3-11.3-3.6-13.7 -28.8-13.8-57.4-27.9-85.6-42.6 -27.1-14.1-53.9-28.5-82-40.6 -54.7-23.4-112.2-39.8-171.7-43.7 -28.9-1.9-57.8-1.2-85.7 6.9 -25.8 7.5-49.9 19.9-74.8 29.9 -23.5 9.3-49.3 16.3-69 32.6 -17.6 14.5-26.4 37-42.3 52.8 -8.4 8.3-18.7 14-29.8 17.7C37.8 184 43 203.3 55.3 199.1L55.3 199.1z"/></g><g class="st1"><path d="M50 179.8c19.4-5.5 35.7-16.8 51.5-28.8 15.6-11.9 31.3-24.6 50.2-30.8 12.2-4 7-23.3-5.3-19.3 -19.3 6.3-35.5 17.9-51.5 30.1 -15.5 11.8-31.2 24.1-50.2 29.5C32.3 164 37.6 183.3 50 179.8L50 179.8z"/></g><g class="st1"><path d="M50.7 168.2c29-40.4 80.5-58.7 125.6-74.4 5.1-1.8 8.5-6.8 7-12.3 -1.4-5-7.1-8.8-12.3-7 -50.7 17.6-105.1 38.3-137.6 83.5 -3.2 4.4-0.8 11.1 3.6 13.7C42.1 174.7 47.6 172.6 50.7 168.2L50.7 168.2z"/></g><g class="st1"><path d="M35.1 222.3c11.7-1 23.3 3.2 34.4 6.5 5.9 1.8 11.9 3.7 17.9 5.3 6.6 1.8 13.5 2.7 20.1 4.5 13.6 3.8 26.2 10.4 39.5 15 12.6 4.4 25.8 7.9 38.7 11.7 27.3 8 55.3 14.7 83.8 16.7 26.9 1.9 53.8-2.9 79.4-10.8 46.4-14.4 88.9-39.1 132.8-59.5 21.1-9.8 42.7-18.5 65.2-24.4 26.1-6.8 52.9-5.3 79.6-5.3 12.9 0 12.9-20 0-20 -15.3 0-30.6-0.5-45.9 0.2 -15.3 0.7-30.3 3.3-45 7.4 -26.2 7.3-51.3 18.6-75.8 30.4 -48.5 23.3-96.4 51-150.2 60.2 -47.1 8-95.1-6.6-139.7-20.6 -11.8-3.7-23.4-7.2-34.9-12 -11.6-4.8-22.9-8.7-35.2-11.1 -21.3-4.1-42.3-15.9-64.5-14.1 -5.4 0.4-10 4.2-10 10C25.1 217.4 29.6 222.7 35.1 222.3L35.1 222.3z"/></g><g class="st1"><path d="M534.9 185.8c13.3-5.8 25.7-13.7 34.1-25.7 8.9-12.6 7.2-28.5-0.4-41.2 -7.6-12.6-21.4-19.1-34.7-23.7 -11.8-4.1-25.4-6.6-35.5-14.5 -4.3-3.4-10-4.2-14.1 0 -3.5 3.5-4.3 10.7 0 14.1 9.7 7.7 20.8 12.1 32.5 15.8 10 3.2 21.3 5.9 29.6 12.8 4.4 3.7 7.3 8.6 8.7 14.2 1 4.1-0.4 7.7-2.5 11.3 -5.7 9.6-17.8 15.3-27.6 19.6 -5 2.2-6.1 9.4-3.6 13.7C524.2 187.4 529.9 188 534.9 185.8L534.9 185.8z"/></g><g class="st1"><path d="M435.1 87.2c15 1.8 32.4 8.3 46.6 16.1 14.2 7.8 27.9 18.3 35.1 32.9 1.6 3.3 2.7 6.9 3.5 10.5 0.3 1.4 0.4 2.6 0.5 4.5 0 0.7 0 1.5 0 2.2 -0.1 3.3 0.4-1.6-0.2 1.6 -1.1 6.3-3.7 9.3-9.2 13.9 -10.1 8.6-26.7 13.3-40.3 17.8 -12.2 4.1-7 23.4 5.3 19.3 17.2-5.7 34.9-11.4 49.1-23 15.8-12.7 18.2-32.9 11.1-51.1 -7.9-19.9-24.3-34-42.3-44.6 -18-10.6-38.4-17.8-59.1-20.3 -5.4-0.6-10 5-10 10C425.1 83.1 429.7 86.6 435.1 87.2L435.1 87.2z"/></g><g class="st1"><path d="M457.9 221.1c33.4-27.3 72.5-78.4 47.2-122.6 -5.8 3.4-11.5 6.7-17.3 10.1 6.7 10.6 10.8 21.2 10 33.8 -0.8 12.5-5.9 25.3-9.3 37.5 6.4 1.8 12.9 3.5 19.3 5.3 4.1-19.4 14.1-36.8 14.4-57 -6.2 1.7-12.4 3.4-18.6 5 7.5 10.9 9.4 23.4 11.3 36.2 1.2 8.6 14.7 9.7 18.3 2.4 5.3-10.8 9.4-22.1 11.5-34 -6.4 0-12.9 0-19.3 0 3.5 8.8 7 17.5 10.5 26.3 4.1 10.4 18.9 9.1 19.6-2.7 0.1-1.2 2-5.4 2.8-7.4 1.4-3.3 2.2-6.5 2.4-10.1 -5.7 2.4-11.4 4.7-17.1 7.1 5 4.7 13.7 8.7 17.5 12.3 6.9 6.4 16 1.4 17.1-7.1 0.2-1.3 1.6-6.1 1.8-8.8 -5.7 2.4-11.4 4.7-17.1 7.1 10.9 10.3 25.2 12.8 39.5 14.9 5.4 0.8 10.7-1.2 12.3-7 1.3-4.7-1.6-11.5-7-12.3 -10.2-1.5-22.8-2.2-30.7-9.7 -6.6-6.3-16.4-1.5-17.1 7.1 -0.2 2.9-1.4 5.8-1.8 8.8 5.7-2.4 11.4-4.7 17.1-7.1 -5-4.7-13.7-8.7-17.5-12.3 -6.6-6.1-16.5-1.6-17.1 7.1 -0.1 1.2-2 5.4-2.8 7.4 -1.4 3.3-2.2 6.5-2.4 10.1 6.5-0.9 13.1-1.8 19.6-2.7 -3.5-8.8-7-17.5-10.5-26.3 -1.7-4.2-4.8-7.3-9.6-7.3 -4.1 0-8.9 3-9.6 7.3 -1.8 10.2-5 19.9-9.5 29.2 6.1 0.8 12.2 1.6 18.3 2.4 -2.1-14.5-4.8-28.7-13.3-41 -5.5-8-18.5-5.3-18.6 5 -0.3 18.1-10 34.3-13.7 51.7 -2.7 12.5 15.8 17.8 19.3 5.3 4-14.1 8.8-28.1 10-42.8 1.3-15.7-4.5-30.8-12.8-43.9 -6.9-10.8-23.7-1.2-17.3 10.1 9.7 16.9 4.5 36-4.4 52.3 -9.7 17.8-24 33.3-39.6 46.1 -4.2 3.5-3.6 10.6 0 14.1C447.9 225.2 453.7 224.6 457.9 221.1L457.9 221.1z"/></g><g class="st1"><path d="M74.2 177.2c0.2 21.4 8.4 44.7 27.8 56 11.2 6.5 21.2-10.8 10.1-17.3 -13.1-7.6-17.7-24.5-17.9-38.7C94.1 164.3 74.1 164.3 74.2 177.2L74.2 177.2z"/></g><g class="st1"><path d="M102.3 159.6c-0.1 25.9-2.5 53.5 17 73.7 9 9.3 23.1-4.9 14.1-14.1 -15-15.5-11.2-39.9-11.1-59.6C122.3 146.8 102.3 146.8 102.3 159.6L102.3 159.6z"/></g><g class="st1"><path d="M109.7 123.7c-18.8 57.6 7.5 142.2 73.7 154.4 5.4 1 10.8-1.4 12.3-7 1.4-4.9-1.6-11.3-7-12.3 -55.2-10.2-75.4-81.8-59.7-129.8C133 116.7 113.6 111.5 109.7 123.7L109.7 123.7z"/></g><g class="st1"><path d="M61.4 245.1c22.5-1.4 45.6-8.2 67.9-2.2 10.6 2.8 20.6 8.3 30.6 12.8 11 5 22.2 9.4 33.9 12.3 50.7 12.4 103.7 7 155.3 6.9 12.9 0 12.9-20 0-20 -51 0.1-103.5 5.7-153.5-7.1 -22.4-5.8-41.8-19.6-64.2-25 -23.2-5.6-46.7 0.9-70 2.3C48.6 225.9 48.5 245.9 61.4 245.1L61.4 245.1z"/></g></svg>