<?xml version="1.0" encoding="utf-8"?>
<!-- Generator: Adobe Illustrator 16.0.0, SVG Export Plug-In . SVG Version: 6.00 Build 0)  -->
<!DOCTYPE svg PUBLIC "-//W3C//DTD SVG 1.1//EN" "http://www.w3.org/Graphics/SVG/1.1/DTD/svg11.dtd">
<svg version="1.1" id="Layer_1" xmlns="http://www.w3.org/2000/svg" xmlns:xlink="http://www.w3.org/1999/xlink" x="0px" y="0px"
	 width="973.337px" height="354.121px" viewBox="0 0 973.337 354.121" enable-background="new 0 0 973.337 354.121"
	 xml:space="preserve">
<g opacity="0.1">
	<g>
		<path d="M18.439,287.813c6.751,14.782,22.036,28.545,35.777,36.642c17.589,10.364,32.472,12.237,52.298,14.44
			c6.795,0.755,13.714,0.259,20.475-0.585c14.468-1.805,28.631-3.621,42.736-7.169c38.599-9.709,75.753-26.398,111.784-42.954
			c7.359-3.382,14.65-6.909,22-10.309c-5.972,2.52-11.944,5.04-17.916,7.561c26.923-11.223,52.767-23.669,78.463-37.428
			c21.058-11.275,42.112-22.618,64.136-31.924c-5.972,2.52-11.944,5.04-17.916,7.561c34.846-14.519,71.933-22.477,109.23-27.524
			c-6.646,0.893-13.292,1.786-19.938,2.679c38.955-5.17,79.099-10.028,118.262-4.967c-6.646-0.893-13.292-1.786-19.938-2.679
			c22.118,2.983,43.886,7.947,65.774,12.219c19.301,3.767,38.274,6.192,56.557,13.86c-5.972-2.52-11.944-5.041-17.916-7.561
			c13.431,5.786,25.877,13.371,37.464,22.271c-5.06-3.909-10.119-7.818-15.179-11.728c17.15,13.371,32.075,29.223,45.923,45.932
			c12.082,14.578,34.784,21.967,53.033,21.967c19.812,0,39.031-7.965,53.033-21.967s21.967-33.222,21.967-53.033
			c-0.894-6.646-1.786-13.292-2.679-19.938c-3.563-12.706-9.993-23.737-19.288-33.095c-20.053-24.194-42.466-44.634-68.151-62.867
			c-15.028-10.667-31.367-17.508-48.331-24.623c-11.667-4.894-23.787-8.311-36.281-10.295c-15.647-2.485-31.142-5.745-46.668-8.888
			c-21.534-4.359-43.121-7.709-64.96-10.271c-30.74-3.606-61.848-0.059-92.479,3.231c-29.099,3.125-58.297,6.985-86.908,13.258
			c-27.935,6.124-54.023,15.826-80.321,26.937c-42.26,17.857-80.823,43.257-123.077,61.122c5.972-2.521,11.944-5.041,17.916-7.561
			c-23.011,9.592-45.332,20.658-68.291,30.371c5.972-2.52,11.944-5.041,17.916-7.561c-28.454,11.996-58.234,23.691-88.999,27.933
			c6.646-0.893,13.292-1.786,19.938-2.679c-7.562,0.994-15.226,1.479-22.818,0.533c6.646,0.893,13.292,1.786,19.938,2.679
			c-3.538-0.49-6.987-1.299-10.289-2.68c5.972,2.52,11.944,5.04,17.916,7.561c-1.83-0.812-3.546-1.777-5.16-2.963
			c5.06,3.909,10.12,7.818,15.179,11.727c-1.374-1.066-2.597-2.248-3.7-3.592c3.909,5.06,7.818,10.119,11.727,15.179
			c-1.09-1.411-1.982-2.908-2.723-4.53c-7.682-16.82-27.665-29.748-44.822-34.467c-19.358-5.325-40.47-2.586-57.792,7.561
			c-16.766,9.821-29.31,26.075-34.467,44.823c-0.893,6.646-1.786,13.292-2.679,19.938C8.242,263.498,11.655,276.116,18.439,287.813
			L18.439,287.813z"/>
	</g>
</g>
<g opacity="0.9">
	<g>
		<path fill="#606161" d="M59.729,176.932c15.907,4.679,28.991,14.071,43.669,21.331c15.199,7.517,30.963,7.796,47.133,3.231
			c3.098-0.875,1.78-5.699-1.329-4.821c-16.373,4.622-31.201,3.616-46.282-4.253c-13.92-7.263-26.624-15.827-41.863-20.309
			C57.957,171.199,56.642,176.024,59.729,176.932L59.729,176.932z"/>
	</g>
</g>
<g opacity="0.9">
	<g>
		<path fill="#606161" d="M36.84,172.767c2.43,35.442,45.897,35.528,72.011,41.007c3.146,0.66,4.484-4.16,1.329-4.821
			c-23.098-4.846-66.157-4.34-68.34-36.186C41.621,169.568,36.62,169.547,36.84,172.767L36.84,172.767z"/>
	</g>
</g>
<g opacity="0.9">
	<g>
		<path fill="#606161" d="M13.517,187.207c22.841,15.845,45.95,33.257,74.282,37.094c3.151,0.427,4.512-4.391,1.329-4.822
			c-27.924-3.781-50.58-20.976-73.087-36.589C13.384,181.046,10.888,185.383,13.517,187.207L13.517,187.207z"/>
	</g>
</g>
<g opacity="0.9">
	<g>
		<path fill="#606161" d="M4.746,211.768c23.706,16.187,51.691,24.729,80.209,26.657c3.22,0.218,3.199-4.784,0-5
			c-27.663-1.87-54.707-10.283-77.686-25.974C4.598,205.627,2.101,209.962,4.746,211.768L4.746,211.768z"/>
	</g>
</g>
<g opacity="0.9">
	<g>
		<path fill="#606161" d="M7.097,248.862c22.966,4.932,44.417-3.166,65.084-12.532c2.933-1.33,0.389-5.638-2.523-4.318
			c-19.34,8.766-39.706,16.651-61.232,12.028C5.282,243.365,3.945,248.185,7.097,248.862L7.097,248.862z"/>
	</g>
</g>
<g opacity="0.9">
	<g>
		<path fill="#606161" d="M14.123,259.397c5.526,13.317,21.13,14.082,33.618,13.133c15.572-1.185,30.505-6.259,45.986-7.79
			c3.178-0.314,3.208-5.317,0-5c-12.983,1.284-25.654,5.058-38.558,6.951c-10.843,1.591-30.879,4.259-36.225-8.624
			C17.727,255.134,12.887,256.419,14.123,259.397L14.123,259.397z"/>
	</g>
</g>
<g opacity="0.9">
	<g>
		<path fill="#606161" d="M1.834,292.722c26.065,5.3,53.569-1.601,75.61-16.042c2.685-1.759,0.182-6.09-2.523-4.316
			c-20.883,13.682-46.997,20.571-71.757,15.536C0.016,287.26-1.325,292.079,1.834,292.722L1.834,292.722z"/>
	</g>
</g>
<g opacity="0.9">
	<g>
		<path fill="#606161" d="M24.641,305.003c22.411,6.915,43.999-6.312,63.331-16.042c2.881-1.45,0.348-5.764-2.523-4.318
			c-18.066,9.095-38.503,22.011-59.478,15.538C22.88,299.228,21.569,304.055,24.641,305.003L24.641,305.003z"/>
	</g>
</g>
<g opacity="0.9">
	<g>
		<path fill="#606161" d="M72.501,318.274c7.329-2.583,14.592-5.345,21.891-8.009c3.003-1.097,1.707-5.93-1.329-4.822
			c-7.299,2.665-14.562,5.427-21.891,8.009C68.152,314.517,69.452,319.349,72.501,318.274L72.501,318.274z"/>
	</g>
</g>
<g opacity="0.9">
	<g>
		<path fill="#606161" d="M32.323,327.898c6.963-0.633,13.807-1.888,20.587-3.582c3.127-0.782,1.8-5.604-1.329-4.822
			c-6.347,1.587-12.738,2.812-19.258,3.404C29.139,323.188,29.111,328.19,32.323,327.898L32.323,327.898z"/>
	</g>
</g>
<g opacity="0.9">
	<g>
		<path fill="#606161" d="M72.181,343.348c1.455-0.829,2.923-1.631,4.404-2.41c1.205-0.634,1.562-2.284,0.897-3.42
			c-0.711-1.214-2.214-1.531-3.42-0.896c-1.481,0.779-2.95,1.58-4.404,2.408c-1.183,0.674-1.58,2.256-0.897,3.421
			C69.455,343.635,70.997,344.021,72.181,343.348L72.181,343.348z"/>
	</g>
</g>
<g opacity="0.9">
	<g>
		<path fill="#606161" d="M26.395,255.88c22.405,3.3,44.866,1.956,67.333,0.089c3.189-0.265,3.215-5.268,0-5
			c-21.969,1.825-44.086,3.318-66.003,0.089C24.571,250.594,23.214,255.411,26.395,255.88L26.395,255.88z"/>
	</g>
</g>
<g opacity="0.9">
	<g>
		<path fill="#606161" d="M17.883,194.313c-10.857,20.771-3.779,46.003,14.932,59.561c2.616,1.896,5.107-2.444,2.523-4.316
			C18.9,237.645,12.69,215.03,22.2,196.836C23.692,193.982,19.377,191.454,17.883,194.313L17.883,194.313z"/>
	</g>
</g>
<g opacity="0.9">
	<g>
		<path fill="#606161" d="M5.261,241.188c-3.137,33.418,39.009,40.882,63.903,42.851c3.217,0.254,3.192-4.748,0-5
			c-22.186-1.754-61.729-7.739-58.903-37.851C10.563,237.978,5.56,238.007,5.261,241.188L5.261,241.188z"/>
	</g>
</g>
<g opacity="0.9">
	<g>
		<path fill="#606161" d="M0.088,275.187c8.163,32.186,49.778,28.124,75.005,24.553c3.182-0.451,1.823-5.269-1.329-4.822
			c-22.363,3.167-61.538,7.789-68.854-21.061C4.117,270.733-0.705,272.059,0.088,275.187L0.088,275.187z"/>
	</g>
</g>
<g opacity="0.9">
	<g>
		<path fill="#606161" d="M43.342,304.75c25.619,14.218,57.614,11.401,84.381,2.007c3.021-1.061,1.721-5.893-1.329-4.822
			c-25.48,8.943-56.072,12.071-80.529-1.501C43.044,298.867,40.523,303.186,43.342,304.75L43.342,304.75z"/>
	</g>
</g>
<g opacity="0.9">
	<g>
		<path fill="#606161" d="M80.781,297.985c51.007,17.766,108.279-2.5,152.803-28.323c2.787-1.616,0.271-5.938-2.523-4.316
			c-43.416,25.18-99.187,45.151-148.951,27.817C79.057,292.1,77.756,296.932,80.781,297.985L80.781,297.985z"/>
	</g>
</g>
<g opacity="0.9">
	<g>
		<path fill="#606161" d="M123.955,293.327c5.802-11.006,16.414-17.017,26.19-24.039c10.893-7.823,21.522-16.198,31.878-24.723
			c22.247-18.313,42.84-38.554,62.593-59.504c2.21-2.343-1.319-5.886-3.535-3.535c-19.768,20.965-40.398,41.106-62.594,59.503
			c-10.781,8.937-21.95,17.67-33.392,25.739c-9.747,6.874-19.73,13.171-25.458,24.035
			C118.135,293.653,122.451,296.181,123.955,293.327L123.955,293.327z"/>
	</g>
</g>
<g opacity="0.9">
	<g>
		<path fill="#606161" d="M118.288,250.706c34.138,1.625,69.574-11.574,97.753-30.167c2.678-1.767,0.177-6.098-2.523-4.317
			c-27.494,18.14-61.91,31.07-95.229,29.484C115.063,245.553,115.078,250.554,118.288,250.706L118.288,250.706z"/>
	</g>
</g>
<g opacity="0.9">
	<g>
		<path fill="#606161" d="M114.779,222.636c30.255,0.701,58.783-12.773,83.903-28.438c26.387-16.454,50.098-36.74,74.005-56.506
			c2.487-2.056-1.071-5.573-3.535-3.535c-22.791,18.842-45.393,37.964-70.296,54.013c-24.954,16.082-53.704,30.169-84.077,29.465
			C111.553,217.561,111.56,222.562,114.779,222.636L114.779,222.636z"/>
	</g>
</g>
<g opacity="0.9">
	<g>
		<path fill="#606161" d="M169.165,212.109c59.101-0.354,114.371-33.58,160.911-67.008c2.593-1.863,0.101-6.203-2.523-4.317
			c-45.804,32.9-100.2,65.978-158.388,66.326C165.941,207.129,165.939,212.129,169.165,212.109L169.165,212.109z"/>
	</g>
</g>
<g opacity="0.9">
	<g>
		<path fill="#606161" d="M282.11,168.16c36.354-12.222,69.685-30.726,99.349-55.029c2.496-2.044-1.063-5.561-3.535-3.535
			c-28.971,23.734-61.645,41.808-97.143,53.743C277.742,164.361,279.045,169.19,282.11,168.16L282.11,168.16z"/>
	</g>
</g>
<g opacity="0.9">
	<g>
		<path fill="#606161" d="M358.639,138.425c37.144-2.266,67.365-28.412,95.998-49.464c2.568-1.888,0.079-6.23-2.523-4.317
			c-27.741,20.396-57.456,46.584-93.475,48.781C355.436,133.62,355.417,138.621,358.639,138.425L358.639,138.425z"/>
	</g>
</g>
<g opacity="0.9">
	<g>
		<path fill="#606161" d="M376.847,110.266c46.359-11.007,82.117-45.241,126.316-61.404c3.002-1.098,1.706-5.931-1.329-4.821
			c-44.178,16.155-80.04,50.416-126.316,61.404C372.381,106.189,373.711,111.01,376.847,110.266L376.847,110.266z"/>
	</g>
</g>
<g opacity="0.9">
	<g>
		<path fill="#606161" d="M289.209,153.469c2.095-16.486,14.929-28.813,27.564-38.312c13.073-9.827,27.621-17.409,41.373-26.196
			c2.708-1.73,0.202-6.059-2.523-4.317c-26.265,16.783-66.94,33.626-71.413,68.825C283.804,156.662,288.809,156.622,289.209,153.469
			L289.209,153.469z"/>
	</g>
</g>
<g opacity="0.9">
	<g>
		<path fill="#606161" d="M358.652,113.131c34.261-35.831,77.269-62.092,120.547-85.574c2.834-1.538,0.311-5.855-2.523-4.317
			c-43.634,23.676-87.016,50.231-121.559,86.356C352.889,111.925,356.42,115.466,358.652,113.131L358.652,113.131z"/>
	</g>
</g>
<g opacity="0.9">
	<g>
		<path fill="#606161" d="M443.505,82.204c4.538-23.132,29.718-38.023,48.651-48.463c20.899-11.523,43.194-20.115,65.394-28.738
			c2.972-1.154,1.681-5.991-1.33-4.821c-23.405,9.091-46.837,18.219-68.813,30.477c-19.4,10.82-44.095,26.626-48.722,50.217
			C438.066,84.023,442.885,85.366,443.505,82.204L443.505,82.204z"/>
	</g>
</g>
<g opacity="0.9">
	<g>
		<path fill="#606161" d="M497.249,81.552c17.346-19.004,39.646-32.821,60.897-46.978c2.669-1.778,0.169-6.111-2.523-4.317
			c-21.584,14.378-44.292,28.457-61.909,47.76C491.545,80.393,495.071,83.938,497.249,81.552L497.249,81.552z"/>
	</g>
</g>
<g opacity="0.9">
	<g>
		<path fill="#606161" d="M556.898,72.78c23.136-28.48,58.598-44.95,90.722-61.012c2.885-1.442,0.352-5.755-2.523-4.317
			c-32.482,16.242-68.336,32.992-91.733,61.794C551.349,71.724,554.864,75.284,556.898,72.78L556.898,72.78z"/>
	</g>
</g>
<g opacity="0.9">
	<g>
		<path fill="#606161" d="M599.002,56.991c18.308-16.114,44.511-23.613,68.408-25.583c3.189-0.263,3.216-5.265,0-5
			c-25.302,2.086-52.566,9.992-71.943,27.048C593.042,55.59,596.592,59.112,599.002,56.991L599.002,56.991z"/>
	</g>
</g>
<g opacity="0.9">
	<g>
		<path fill="#606161" d="M567.423,109.623c33.23-34.689,74.117-57.604,119.95-71.287c3.081-0.92,1.768-5.746-1.33-4.821
			c-22.615,6.751-44.576,15.514-65.069,27.282c-21.168,12.155-40.225,27.689-57.086,45.291
			C561.659,108.415,565.189,111.955,567.423,109.623L567.423,109.623z"/>
	</g>
</g>
<g opacity="0.9">
	<g>
		<path fill="#606161" d="M638.848,92.47c39.214-28.509,79.948-57.377,127.472-69.924c3.115-0.822,1.793-5.646-1.328-4.821
			c-47.955,12.66-89.093,41.657-128.667,70.428C633.745,90.028,636.235,94.37,638.848,92.47L638.848,92.47z"/>
	</g>
</g>
<g opacity="0.9">
	<g>
		<path fill="#606161" d="M703.76,80.189c32.122-19.21,71.718-15.502,107.51-13.694c3.224,0.163,3.208-4.838,0-5
			c-36.735-1.856-77.083-5.328-110.033,14.376C698.473,77.524,700.986,81.848,703.76,80.189L703.76,80.189z"/>
	</g>
</g>
<g opacity="0.9">
	<g>
		<path fill="#606161" d="M245.535,339.231c7.572,0.659,15.152,1.196,22.739,1.645c3.222,0.19,3.204-4.811,0-5
			c-7.587-0.448-15.167-0.985-22.739-1.645C242.321,333.952,242.348,338.954,245.535,339.231L245.535,339.231z"/>
	</g>
</g>
<g opacity="0.9">
	<g>
		<path fill="#606161" d="M267.411,291.057c26.219-3.41,52.728-3.607,78.947-7.018c3.151-0.41,3.191-5.415,0-5
			c-26.219,3.41-52.728,3.607-78.947,7.018C264.26,286.467,264.22,291.472,267.411,291.057L267.411,291.057z"/>
	</g>
</g>
<g opacity="0.9">
	<g>
		<path fill="#606161" d="M241.094,270.004c33.695-0.066,67.436-3.372,100.665-8.86c3.175-0.525,1.824-5.343-1.329-4.822
			c-32.787,5.416-66.089,8.617-99.335,8.683C237.87,265.01,237.87,270.01,241.094,270.004L241.094,270.004z"/>
	</g>
</g>
<g opacity="0.9">
	<g>
		<path fill="#606161" d="M334.741,241.845c23.376-6.952,48.158-5.603,71.931-10.526c3.156-0.654,1.817-5.474-1.329-4.822
			c-23.776,4.925-48.537,3.569-71.931,10.526C330.329,237.939,331.643,242.766,334.741,241.845L334.741,241.845z"/>
	</g>
</g>
<g opacity="0.9">
	<g>
		<path fill="#606161" d="M396.127,218.289c4.589,0.293,9.18,0.539,13.775,0.695c3.226,0.11,3.215-4.891,0-5
			c-4.596-0.157-9.187-0.402-13.775-0.695C392.906,213.083,392.926,218.085,396.127,218.289L396.127,218.289z"/>
	</g>
</g>
<g opacity="0.9">
	<g>
		<path fill="#606161" d="M348.112,215.618c14.94,0.062,29.815,1.408,44.708,2.45c3.22,0.226,3.198-4.776,0-5
			c-14.893-1.042-29.768-2.388-44.708-2.45C344.887,210.604,344.888,215.604,348.112,215.618L348.112,215.618z"/>
	</g>
</g>
<g opacity="0.9">
	<g>
		<path fill="#606161" d="M438.676,196.23c17.46,3.429,35.172,5.343,52.632,8.772c3.149,0.619,4.491-4.2,1.329-4.821
			c-17.46-3.429-35.172-5.343-52.632-8.772C436.856,190.791,435.514,195.609,438.676,196.23L438.676,196.23z"/>
	</g>
</g>
<g opacity="0.9">
	<g>
		<path fill="#606161" d="M462.147,196.32c14.68-1.327,26.298,6.58,34.684,18.06c1.881,2.575,6.223,0.085,4.317-2.523
			c-9.372-12.832-22.515-22.027-39.001-20.537C458.963,191.608,458.935,196.61,462.147,196.32L462.147,196.32z"/>
	</g>
</g>
<g opacity="0.9">
	<g>
		<path fill="#606161" d="M507.097,201.494c8.251,1.768,15.434,5.293,22.21,10.274c2.603,1.913,5.092-2.429,2.523-4.317
			c-7.104-5.222-14.764-8.927-23.405-10.778C505.282,195.999,503.944,200.818,507.097,201.494L507.097,201.494z"/>
	</g>
</g>
<g opacity="0.9">
	<g>
		<path fill="#606161" d="M528.149,189.213c20.231,3.972,37.443,17.267,58.56,17.633c3.227,0.056,3.221-4.944,0-5
			c-20.55-0.356-37.498-13.581-57.229-17.455C526.33,183.773,524.987,188.592,528.149,189.213L528.149,189.213z"/>
	</g>
</g>
<g opacity="0.9">
	<g>
		<path fill="#606161" d="M586.043,187.458c13.353,3.492,25.414,10.072,38,15.538c2.926,1.271,5.475-3.036,2.523-4.317
			c-12.978-5.636-25.427-12.441-39.193-16.042C584.25,181.82,582.927,186.644,586.043,187.458L586.043,187.458z"/>
	</g>
</g>
<g opacity="0.9">
	<g>
		<path fill="#606161" d="M597.728,167.908c18.833,8.636,36.641,19.178,54.386,29.825c2.772,1.663,5.284-2.661,2.523-4.317
			c-17.745-10.646-35.553-21.189-54.386-29.825C597.342,162.257,594.8,166.565,597.728,167.908L597.728,167.908z"/>
	</g>
</g>
<g opacity="0.9">
	<g>
		<path fill="#606161" d="M230.973,244.204c10.253-14.419,20.565-29.957,34.871-40.717c15.287-11.499,36.68-7.158,54.421-6.719
			c40.613,1.005,82.036,3.51,120.166,18.76c2.996,1.199,4.285-3.639,1.329-4.821c-40.24-16.095-83.841-17.856-126.618-19.07
			c-18.316-0.52-37.338-3.362-52.976,8.4c-14.552,10.946-25.082,26.977-35.51,41.643
			C224.782,244.314,229.121,246.808,230.973,244.204L230.973,244.204z"/>
	</g>
</g>
<g opacity="0.9">
	<g>
		<path fill="#606161" d="M220.055,214.886c56.355-47.579,111.129-97.303,171.424-139.96c2.609-1.846,0.115-6.184-2.523-4.317
			c-60.645,42.905-115.754,92.887-172.436,140.742C214.053,213.433,217.608,216.952,220.055,214.886L220.055,214.886z"/>
	</g>
</g>
<g opacity="0.9">
	<g>
		<path fill="#606161" d="M366.061,159.994c22.937-37.017,61.4-62.199,99.424-81.628c40.779-20.837,84.562-35.81,128.779-47.445
			c11.669-3.071,23.415-5.854,35.216-8.375c3.152-0.673,1.814-5.493-1.33-4.821c-42.121,8.995-83.654,21.302-123.595,37.458
			c-41.239,16.681-82.174,37.823-114.84,68.495c-10.683,10.031-20.246,21.326-27.971,33.792
			C360.04,160.219,364.366,162.728,366.061,159.994L366.061,159.994z"/>
	</g>
</g>
<g opacity="0.9">
	<g>
		<path fill="#606161" d="M459.304,119.038c77.393-24.729,150.294-61.114,226.316-89.474c2.992-1.116,1.697-5.951-1.33-4.821
			c-76.021,28.36-148.922,64.745-226.315,89.474C454.916,115.194,456.224,120.022,459.304,119.038L459.304,119.038z"/>
	</g>
</g>
<g opacity="0.9">
	<g>
		<path fill="#606161" d="M545.866,104.75c40.407-19.467,76.312-47.458,118.701-62.906c3.004-1.095,1.707-5.928-1.33-4.821
			c-42.824,15.607-79.081,43.747-119.895,63.41C540.438,101.832,542.975,106.143,545.866,104.75L545.866,104.75z"/>
	</g>
</g>
<g opacity="0.9">
	<g>
		<path fill="#606161" d="M623.564,104.359c34.683-29.414,71.688-55.879,110.021-80.311c2.71-1.727,0.204-6.056-2.523-4.317
			c-38.689,24.66-76.027,51.406-111.032,81.093C617.566,102.913,621.121,106.432,623.564,104.359L623.564,104.359z"/>
	</g>
</g>
<g opacity="0.9">
	<g>
		<path fill="#606161" d="M694.391,101.494c26.69-9.922,44.101-34.686,62.507-55.029c2.157-2.384-1.367-5.931-3.535-3.535
			c-17.682,19.541-34.646,44.206-60.302,53.743C690.067,97.786,691.362,102.62,694.391,101.494L694.391,101.494z"/>
	</g>
</g>
<g opacity="0.9">
	<g>
		<path fill="#606161" d="M690.882,113.774c39.949-13.767,81.912-19.67,122.807-29.825c3.129-0.777,1.801-5.599-1.328-4.821
			c-40.896,10.155-82.858,16.058-122.809,29.825C686.523,109.997,687.825,114.828,690.882,113.774L690.882,113.774z"/>
	</g>
</g>
<g opacity="0.9">
	<g>
		<path fill="#606161" d="M762.148,75.267c19.658-0.06,39.211-1.893,58.559-5.353c3.171-0.567,1.823-5.385-1.328-4.821
			c-18.913,3.381-38.018,5.116-57.23,5.174C758.924,70.277,758.923,75.277,762.148,75.267L762.148,75.267z"/>
	</g>
</g>
<g opacity="0.9">
	<g>
		<path fill="#606161" d="M774.428,101.583c33.37-0.068,66.63-3.441,100-3.509c3.224-0.006,3.225-5.006,0-5
			c-33.37,0.068-66.63,3.441-100,3.509C771.205,96.589,771.204,101.589,774.428,101.583L774.428,101.583z"/>
	</g>
</g>
<g opacity="0.9">
	<g>
		<path fill="#606161" d="M823.551,119.127c35.816,2.009,69.568,15.703,102.845,27.98c3.031,1.119,4.327-3.715,1.328-4.821
			c-33.744-12.45-67.858-26.123-104.173-28.159C820.329,113.946,820.346,118.947,823.551,119.127L823.551,119.127z"/>
	</g>
</g>
<g opacity="0.9">
	<g>
		<path fill="#606161" d="M865.643,155.236c21.08,17.392,45.592,29.981,66.667,47.369c2.466,2.035,6.024-1.481,3.535-3.535
			c-21.08-17.392-45.592-29.981-66.667-47.369C866.712,149.666,863.154,153.183,865.643,155.236L865.643,155.236z"/>
	</g>
</g>
<g opacity="0.9">
	<g>
		<path fill="#606161" d="M834.57,174.926c29.46,19.162,56.162,42.068,84.211,63.158c2.58,1.939,5.067-2.405,2.523-4.318
			c-28.05-21.09-54.749-43.994-84.211-63.157C834.381,168.845,831.878,173.175,834.57,174.926L834.57,174.926z"/>
	</g>
</g>
<g opacity="0.9">
	<g>
		<path fill="#606161" d="M821.132,140.09c38.195,13.916,76.154,29.428,109.929,52.38c2.675,1.818,5.173-2.517,2.523-4.317
			c-34.119-23.187-72.539-38.827-111.124-52.884C819.424,134.162,818.127,138.996,821.132,140.09L821.132,140.09z"/>
	</g>
</g>
<g opacity="0.9">
	<g>
		<path fill="#606161" d="M761.484,141.844c31.542,9.048,64.818,7.126,97.154,10.616c3.204,0.346,3.171-4.658,0-5
			c-31.893-3.442-64.719-1.514-95.826-10.437C759.707,136.132,758.39,140.957,761.484,141.844L761.484,141.844z"/>
	</g>
</g>
<g opacity="0.9">
	<g>
		<path fill="#606161" d="M782.535,112.02c36.693,6.788,71.082,20.745,102.912,40.099c2.763,1.68,5.273-2.646,2.523-4.317
			c-32.169-19.56-67.02-33.742-104.105-40.603C780.713,106.616,779.368,111.434,782.535,112.02L782.535,112.02z"/>
	</g>
</g>
<g opacity="0.9">
	<g>
		<path fill="#606161" d="M824.64,208.511c32.229,13.324,65.915,29.763,90.126,55.497c2.213,2.353,5.742-1.189,3.535-3.535
			c-24.834-26.396-59.292-43.124-92.331-56.783C822.99,202.458,821.705,207.297,824.64,208.511L824.64,208.511z"/>
	</g>
</g>
<g opacity="0.9">
	<g>
		<path fill="#606161" d="M481.446,180.53c41.623,0.19,84.002,15.246,112.268,46.636c2.162,2.401,5.687-1.146,3.535-3.535
			c-29.113-32.332-72.936-47.905-115.803-48.101C478.221,175.516,478.222,180.516,481.446,180.53L481.446,180.53z"/>
	</g>
</g>
<g opacity="0.9">
	<g>
		<path fill="#606161" d="M566.746,192.722c26.798,5.742,45.343,28.288,65.564,44.971c2.466,2.035,6.024-1.481,3.535-3.535
			c-20.895-17.237-40.07-40.322-67.77-46.257C564.931,187.227,563.594,192.046,566.746,192.722L566.746,192.722z"/>
	</g>
</g>
<g opacity="0.9">
	<g>
		<path fill="#606161" d="M597.728,176.68c27.537,13.725,57,25.857,78.441,48.732c2.209,2.357,5.737-1.186,3.535-3.535
			c-21.75-23.205-51.518-35.59-79.453-49.514C597.375,170.929,594.842,175.242,597.728,176.68L597.728,176.68z"/>
	</g>
</g>
<g opacity="0.9">
	<g>
		<path fill="#606161" d="M660.885,192.47c15.735,10.545,30.753,22.232,43.354,36.451c2.143,2.418,5.666-1.132,3.535-3.535
			c-12.874-14.527-28.293-26.461-44.366-37.233C660.722,186.352,658.222,190.685,660.885,192.47L660.885,192.47z"/>
	</g>
</g>
<g opacity="0.9">
	<g>
		<path fill="#606161" d="M670.906,167.517c15.548,15.455,32.703,29.277,47.369,45.614c2.158,2.404,5.683-1.144,3.535-3.535
			c-14.666-16.337-31.82-30.16-47.369-45.614C672.153,161.707,668.617,165.242,670.906,167.517L670.906,167.517z"/>
	</g>
</g>
<g opacity="0.9">
	<g>
		<path fill="#606161" d="M756.001,262.226c2.1,5.995,3.928,12.065,5.49,18.224c0.792,3.123,5.614,1.798,4.82-1.33
			c-1.561-6.157-3.39-12.228-5.49-18.224C759.764,257.874,754.932,259.174,756.001,262.226L756.001,262.226z"/>
	</g>
</g>
<g opacity="0.9">
	<g>
		<path fill="#606161" d="M713.011,190.324c17.846,20.72,32.626,44.001,42.193,69.69c1.114,2.993,5.948,1.698,4.82-1.33
			c-9.882-26.537-25.04-50.488-43.479-71.896C714.439,184.342,710.918,187.895,713.011,190.324L713.011,190.324z"/>
	</g>
</g>
<g opacity="0.9">
	<g>
		<path fill="#606161" d="M782.294,257.718c3.822,5.477,7.709,10.905,11.77,16.209c1.931,2.523,6.277,0.038,4.316-2.523
			c-4.06-5.304-7.947-10.732-11.77-16.209C784.781,252.571,780.444,255.066,782.294,257.718L782.294,257.718z"/>
	</g>
</g>
<g opacity="0.9">
	<g>
		<path fill="#606161" d="M836.902,287.864c7.748,6.761,15.466,13.556,23.479,20.004c2.486,2.001,6.048-1.514,3.535-3.535
			c-8.013-6.449-15.73-13.243-23.479-20.004C838.019,282.219,834.468,285.74,836.902,287.864L836.902,287.864z"/>
	</g>
</g>
<g opacity="0.9">
	<g>
		<path fill="#606161" d="M855.623,255.627c21.994,10.865,45.646,17.635,69.018,24.814c3.091,0.949,4.402-3.878,1.33-4.822
			c-22.95-7.049-46.226-13.64-67.824-24.309C855.266,249.888,852.732,254.199,855.623,255.627L855.623,255.627z"/>
	</g>
</g>
<g opacity="0.9">
	<g>
		<path fill="#606161" d="M876.675,232.82c9.866,6.55,19.958,12.749,29.824,19.299c2.695,1.788,5.195-2.544,2.523-4.318
			c-9.866-6.549-19.958-12.748-29.824-19.297C876.503,226.715,874.003,231.047,876.675,232.82L876.675,232.82z"/>
	</g>
</g>
<g opacity="0.9">
	<g>
		<path fill="#606161" d="M257.549,243.6c28.08-5.424,54.376-17.385,82.456-22.808c3.164-0.611,1.821-5.43-1.329-4.822
			c-28.08,5.423-54.376,17.384-82.456,22.807C253.056,239.389,254.399,244.207,257.549,243.6L257.549,243.6z"/>
	</g>
</g>
<g opacity="0.9">
	<g>
		<path fill="#606161" d="M328.321,239.838c15.126-10.688,29.166-23.797,47.508-28.634c3.115-0.821,1.792-5.645-1.329-4.821
			c-18.822,4.964-33.179,18.168-48.703,29.139C323.187,237.365,325.681,241.704,328.321,239.838L328.321,239.838z"/>
	</g>
</g>
<g opacity="0.9">
	<g>
		<path fill="#606161" d="M313.429,224.906c9.485-16.393,22.037-30.527,38.357-40.331c15.824-9.506,34.179-13.687,52.466-14.571
			c3.209-0.155,3.225-5.156,0-5c-19.318,0.935-38.189,5.468-54.99,15.254c-17.076,9.946-30.336,25.161-40.151,42.125
			C307.494,225.179,311.815,227.695,313.429,224.906L313.429,224.906z"/>
	</g>
</g>
<g opacity="0.9">
	<g>
		<path fill="#606161" d="M370.426,195.979c22.906-15.642,49.623-24.111,76.596-29.573c3.159-0.64,1.818-5.458-1.329-4.821
			c-27.356,5.539-54.561,14.214-77.791,30.077C365.258,193.467,367.755,197.802,370.426,195.979L370.426,195.979z"/>
	</g>
</g>
<g opacity="0.9">
	<g>
		<path fill="#606161" d="M464.558,187.467c7.465-25.284,44.967-21.937,65.016-19.694c25.186,2.817,49.607,9.647,74.014,16.177
			c3.119,0.834,4.441-3.989,1.33-4.821c-25.932-6.938-51.821-13.964-78.613-16.706c-22.251-2.277-58.614-3.222-66.567,23.715
			C458.821,189.238,463.647,190.552,464.558,187.467L464.558,187.467z"/>
	</g>
</g>
<g opacity="0.9">
	<g>
		<path fill="#606161" d="M522.886,154.125c12.856,1.825,25.74,3.438,38.596,5.263c3.152,0.448,4.512-4.37,1.33-4.821
			c-12.856-1.825-25.74-3.438-38.596-5.263C521.064,148.856,519.705,153.673,522.886,154.125L522.886,154.125z"/>
	</g>
</g>
<g opacity="0.9">
	<g>
		<path fill="#606161" d="M480.437,188.557c-6.388-57.232,73.17-71.113,115.044-72.938c3.212-0.14,3.225-5.141,0-5
			c-44.55,1.942-126.796,17.437-120.044,77.938C475.791,191.724,480.794,191.759,480.437,188.557L480.437,188.557z"/>
	</g>
</g>
<g opacity="0.9">
	<g>
		<path fill="#606161" d="M496.743,132.82c35.563-17.634,74.163-27.636,111.684-40.099c3.044-1.011,1.739-5.841-1.33-4.821
			c-37.938,12.602-76.916,22.771-112.877,40.603C491.33,129.936,493.864,134.248,496.743,132.82L496.743,132.82z"/>
	</g>
</g>
<g opacity="0.9">
	<g>
		<path fill="#606161" d="M602.499,136.67c54.704,0.093,111.271,7.971,161.896,29.483c2.932,1.246,5.482-3.06,2.523-4.317
			c-51.471-21.873-108.768-30.071-164.419-30.166C599.274,131.665,599.275,136.665,602.499,136.67L602.499,136.67z"/>
	</g>
</g>
<g opacity="0.9">
	<g>
		<path fill="#606161" d="M609.529,164.008c10.823-10.46,25.443-15.252,39.249-20.41c2.991-1.118,1.697-5.952-1.33-4.821
			c-14.636,5.468-29.984,10.609-41.454,21.696C603.671,162.717,607.21,166.249,609.529,164.008L609.529,164.008z"/>
	</g>
</g>
<g opacity="0.9">
	<g>
		<path fill="#606161" d="M632.988,120.792c35.097-10.312,71.941-8.71,108.107-8.682c3.225,0.002,3.225-4.998,0-5
			c-36.608-0.029-73.912-1.577-109.438,8.861C628.572,116.877,629.886,121.703,632.988,120.792L632.988,120.792z"/>
	</g>
</g>
<g opacity="0.9">
	<g>
		<path fill="#606161" d="M790.217,168.25c23.739-0.001,47.563-0.121,70.841-5.353c3.145-0.707,1.811-5.527-1.33-4.821
			c-22.837,5.133-46.223,5.173-69.511,5.174C786.993,163.25,786.993,168.25,790.217,168.25L790.217,168.25z"/>
	</g>
</g>
<g opacity="0.9">
	<g>
		<path fill="#606161" d="M833.414,155.879c25.905,10.195,53.64,14.042,81.365,14.125c3.225,0.01,3.224-4.99,0-5
			c-27.32-0.082-54.514-3.902-80.037-13.946C831.738,149.876,830.449,154.713,833.414,155.879L833.414,155.879z"/>
	</g>
</g>
<g opacity="0.9">
	<g>
		<path fill="#606161" d="M860.393,187.548c36.917,0.093,73.609,5.17,110.526,5.263c3.225,0.008,3.224-4.992,0-5
			c-36.917-0.093-73.609-5.17-110.526-5.263C857.168,182.54,857.169,187.54,860.393,187.548L860.393,187.548z"/>
	</g>
</g>
<g opacity="0.9">
	<g>
		<path fill="#606161" d="M811.257,199.096c11.05,12.651,28.313,17.312,44.297,19.84c16.704,2.642,33.619,2.615,50.453,3.699
			c3.221,0.207,3.201-4.794,0-5c-15.946-1.027-31.941-1.066-47.792-3.321c-15.547-2.211-32.684-6.459-43.423-18.754
			C812.667,193.128,809.146,196.679,811.257,199.096L811.257,199.096z"/>
	</g>
</g>
<g opacity="0.9">
	<g>
		<path fill="#606161" d="M793.062,187.458c35.565,12.348,72.605,19.549,108.771,29.825c3.108,0.883,4.426-3.942,1.33-4.822
			c-36.167-10.275-73.207-17.476-108.773-29.824C791.336,181.577,790.036,186.408,793.062,187.458L793.062,187.458z"/>
	</g>
</g>
<g opacity="0.9">
	<g>
		<path fill="#606161" d="M752.71,187.458c31.947,7.024,64.545,10.52,96.492,17.544c3.142,0.691,4.478-4.129,1.328-4.821
			c-31.946-7.024-64.544-10.52-96.49-17.544C750.898,181.946,749.562,186.766,752.71,187.458L752.71,187.458z"/>
	</g>
</g>
<g opacity="0.9">
	<g>
		<path fill="#606161" d="M735.832,178.776c30.479,0.037,60.951,1.743,91.229,5.263c3.199,0.372,3.163-4.632,0-5
			c-30.277-3.521-60.749-5.226-91.229-5.263C732.607,173.772,732.607,178.772,735.832,178.776L735.832,178.776z"/>
	</g>
</g>
<g opacity="0.9">
	<g>
		<path fill="#606161" d="M727.06,154.214c18.123-1.813,36.247-3.609,54.386-5.263c3.184-0.29,3.212-5.293,0-5
			c-18.139,1.654-36.263,3.451-54.386,5.263C723.883,149.532,723.852,154.535,727.06,154.214L727.06,154.214z"/>
	</g>
</g>
<g opacity="0.9">
	<g>
		<path fill="#606161" d="M744.603,134.916c22.395-0.154,44.411-5.38,65.578-12.37c3.046-1.006,1.741-5.835-1.33-4.821
			c-20.756,6.854-42.285,12.04-64.248,12.191C741.38,129.938,741.377,134.938,744.603,134.916L744.603,134.916z"/>
	</g>
</g>
<g opacity="0.9">
	<g>
		<path fill="#606161" d="M725.305,127.898c24.009-2.128,45.472-13.717,67.331-22.896c2.927-1.229,1.643-6.069-1.328-4.821
			c-21.346,8.963-42.555,20.639-66.003,22.717C722.12,123.181,722.092,128.183,725.305,127.898L725.305,127.898z"/>
	</g>
</g>
<g opacity="0.9">
	<g>
		<path fill="#606161" d="M699.002,142.956c24.219-18.732,54.278-25.995,83.108-34.444c3.087-0.905,1.771-5.73-1.33-4.821
			c-29.786,8.729-60.313,16.394-85.313,35.73C692.919,141.391,696.486,144.902,699.002,142.956L699.002,142.956z"/>
	</g>
</g>
<g opacity="0.9">
	<g>
		<path fill="#606161" d="M650.532,145.353c31.585-7.284,57.365-27.658,86.562-40.603c2.942-1.305,0.396-5.612-2.523-4.317
			c-28.799,12.768-54.218,32.915-85.368,40.099C646.061,141.256,647.393,146.077,650.532,145.353L650.532,145.353z"/>
	</g>
</g>
<g opacity="0.9">
	<g>
		<path fill="#606161" d="M669.178,134.184c17.98-19.5,41.293-32.758,64.406-45.223c2.839-1.531,0.314-5.848-2.523-4.317
			c-23.473,12.658-47.159,26.204-65.418,46.005C663.461,133.014,666.989,136.559,669.178,134.184L669.178,134.184z"/>
	</g>
</g>
<g opacity="0.9">
	<g>
		<path fill="#606161" d="M613.038,135.938c15.825-19.577,26.49-43.649,46.862-59.258c2.522-1.933,0.037-6.279-2.523-4.317
			c-20.876,15.995-31.676,40.001-47.874,60.04C607.496,134.886,611.01,138.447,613.038,135.938L613.038,135.938z"/>
	</g>
</g>
<g opacity="0.9">
	<g>
		<path fill="#606161" d="M623.564,104.359c12.205-10.459,24.478-20.824,38.091-29.434c2.717-1.718,0.21-6.046-2.523-4.317
			c-13.969,8.835-26.577,19.482-39.103,30.216C617.577,102.925,621.13,106.445,623.564,104.359L623.564,104.359z"/>
	</g>
</g>
<g opacity="0.9">
	<g>
		<path fill="#606161" d="M600.251,108.259c23.291-12.625,45.13-27.726,68.421-40.351c2.835-1.537,0.312-5.854-2.523-4.317
			c-23.291,12.625-45.13,27.726-68.421,40.351C594.893,105.479,597.417,109.796,600.251,108.259L600.251,108.259z"/>
	</g>
</g>
<g opacity="0.9">
	<g>
		<path fill="#606161" d="M558.652,135.938c14.209-15.929,29.39-31.107,46.862-43.468c2.609-1.846,0.115-6.184-2.523-4.317
			c-17.833,12.617-33.368,27.988-47.874,44.25C552.978,134.8,556.501,138.349,558.652,135.938L558.652,135.938z"/>
	</g>
</g>
<g opacity="0.9">
	<g>
		<path fill="#606161" d="M527.464,133.678c14.599-25.159,36.816-45.746,60.506-62.261c2.624-1.83,0.129-6.167-2.523-4.317
			c-24.406,17.014-47.256,38.128-62.301,64.055C521.525,133.949,525.847,136.465,527.464,133.678L527.464,133.678z"/>
	</g>
</g>
<g opacity="0.9">
	<g>
		<path fill="#606161" d="M470.427,145.101c25.587-13.043,45.498-34.783,63.664-56.531c2.052-2.456-1.466-6.013-3.535-3.535
			c-17.905,21.435-37.431,42.892-62.652,55.749C465.03,142.249,467.561,146.562,470.427,145.101L470.427,145.101z"/>
	</g>
</g>
<g opacity="0.9">
	<g>
		<path fill="#606161" d="M468.075,140.09c30.934-12.04,48.218-43.873,69.524-67.31c2.163-2.379-1.362-5.926-3.535-3.535
			c-10.529,11.582-19.703,24.318-29.937,36.155c-10.391,12.019-22.309,24.002-37.381,29.869
			C463.775,136.425,465.066,141.261,468.075,140.09L468.075,140.09z"/>
	</g>
</g>
<g opacity="0.9">
	<g>
		<path fill="#606161" d="M427.073,174.535c21.342-25.043,38.897-52.937,58.286-79.453c1.907-2.607-2.435-5.098-4.317-2.523
			c-19.136,26.17-36.44,53.725-57.504,78.441C421.459,173.438,424.979,176.993,427.073,174.535L427.073,174.535z"/>
	</g>
</g>
<g opacity="0.9">
	<g>
		<path fill="#606161" d="M395.495,169.271c24.654-24.867,42.698-55.053,63.548-82.962c1.932-2.586-2.412-5.074-4.317-2.523
			c-20.598,27.57-38.411,57.385-62.766,81.95C389.688,168.027,393.222,171.564,395.495,169.271L395.495,169.271z"/>
	</g>
</g>
<g opacity="0.9">
	<g>
		<path fill="#606161" d="M394.131,142.45c15.897-26.347,34.933-50.557,55.749-73.178c2.179-2.368-1.348-5.913-3.535-3.535
			c-21.095,22.925-40.42,47.489-56.531,74.19C388.143,142.694,392.468,145.206,394.131,142.45L394.131,142.45z"/>
	</g>
</g>
<g opacity="0.9">
	<g>
		<path fill="#606161" d="M363.409,145.101c24.964-11.82,44.671-33.778,61.91-54.777c2.028-2.47-1.488-6.029-3.535-3.535
			c-16.989,20.692-36.303,42.349-60.898,53.995C357.972,142.163,360.512,146.473,363.409,145.101L363.409,145.101z"/>
	</g>
</g>
<g opacity="0.9">
	<g>
		<path fill="#606161" d="M317.198,176.932c39.777-10.995,76.499-30.32,112.877-49.375c2.857-1.497,0.329-5.812-2.523-4.317
			c-36.008,18.86-72.312,37.989-111.683,48.871C312.765,172.969,314.085,177.793,317.198,176.932L317.198,176.932z"/>
	</g>
</g>
<g opacity="0.9">
	<g>
		<path fill="#606161" d="M286.216,224.049c53.636-29.357,109.438-55.032,154.892-96.883c2.377-2.188-1.168-5.715-3.535-3.535
			c-45.121,41.544-100.64,66.96-153.88,96.1C280.864,221.279,283.387,225.597,286.216,224.049L286.216,224.049z"/>
	</g>
</g>
<g opacity="0.9">
	<g>
		<path fill="#606161" d="M257.549,238.336c38.255-5.792,69.478-30.995,102.352-49.375c2.814-1.573,0.294-5.893-2.523-4.317
			c-32.51,18.176-63.331,43.144-101.158,48.87C253.04,233.995,254.396,238.813,257.549,238.336L257.549,238.336z"/>
	</g>
</g>
<g opacity="0.9">
	<g>
		<path fill="#606161" d="M226.567,248.609c40.756-25.642,89.761-32.883,134.491-48.87c3.013-1.077,1.715-5.909-1.329-4.821
			c-45.143,16.134-94.548,23.493-135.685,49.375C221.322,246.005,223.829,250.332,226.567,248.609L226.567,248.609z"/>
	</g>
</g>
<g opacity="0.9">
	<g>
		<path fill="#606161" d="M204.252,227.898c42.301-1.816,84.333-7.033,126.316-12.28c3.155-0.395,3.194-5.399,0-5
			c-41.983,5.247-84.016,10.464-126.316,12.28C201.041,223.036,201.027,228.037,204.252,227.898L204.252,227.898z"/>
	</g>
</g>
<g opacity="0.9">
	<g>
		<path fill="#606161" d="M51.217,209.117c8.557,13.322,20.646,22.887,34.231,30.721c2.798,1.614,5.315-2.707,2.523-4.316
			c-12.839-7.405-24.34-16.324-32.437-28.928C53.798,203.891,49.469,206.395,51.217,209.117L51.217,209.117z"/>
	</g>
</g>
<g opacity="0.9">
	<g>
		<path fill="#606161" d="M75.778,212.625c5.035,8.311,10.694,15.979,18.441,21.949c2.554,1.969,5.039-2.378,2.523-4.316
			c-7.019-5.411-12.099-12.648-16.647-20.156C78.428,207.349,74.103,209.86,75.778,212.625L75.778,212.625z"/>
	</g>
</g>
<g opacity="0.9">
	<g>
		<path fill="#606161" d="M91.316,197.993c3.571,8.579,8.74,16.003,14.286,23.404c1.909,2.547,6.253,0.06,4.317-2.523
			c-5.249-7.004-10.398-14.08-13.782-22.21C94.917,193.732,90.078,195.017,91.316,197.993L91.316,197.993z"/>
	</g>
</g>
<g opacity="0.9">
	<g>
		<path fill="#606161" d="M89.813,186.31c10.873,14.237,24.951,25.094,41.248,32.476c2.913,1.32,5.457-2.988,2.523-4.317
			c-15.448-6.998-29.121-17.153-39.454-30.682C92.202,181.26,87.855,183.746,89.813,186.31L89.813,186.31z"/>
	</g>
</g>
<g opacity="0.9">
	<g>
		<path fill="#606161" d="M111.256,195.587c9.331,7.292,19.778,12.656,30.331,17.935c2.875,1.438,5.408-2.875,2.523-4.317
			c-10.13-5.067-20.356-10.147-29.319-17.152C112.283,190.091,108.717,193.604,111.256,195.587L111.256,195.587z"/>
	</g>
</g>
<g opacity="0.9">
	<g>
		<path fill="#606161" d="M145.693,189.213c5.171,1.606,10.618,1.902,15.789,3.509c3.087,0.959,4.398-3.868,1.329-4.821
			c-5.171-1.606-10.618-1.902-15.789-3.509C143.935,183.433,142.625,188.26,145.693,189.213L145.693,189.213z"/>
	</g>
</g>
<g opacity="0.9">
	<g>
		<path fill="#606161" d="M114.779,196.32c26.431,1.522,53.317-13.722,68.826-34.572c1.927-2.59-2.417-5.079-4.317-2.523
			c-14.479,19.467-39.937,33.511-64.508,32.095C111.556,191.134,111.574,196.135,114.779,196.32L114.779,196.32z"/>
	</g>
</g>
<g opacity="0.9">
	<g>
		<path fill="#606161" d="M134.741,190.967c23.938-9.272,47.55-21.05,66.016-39.24c2.3-2.265-1.237-5.799-3.535-3.535
			c-17.827,17.559-40.697,29.001-63.81,37.954C130.439,187.297,131.73,192.134,134.741,190.967L134.741,190.967z"/>
	</g>
</g>
<g opacity="0.9">
	<g>
		<path fill="#606161" d="M138.251,205.002c17.912-7.313,33.051-18.658,46.716-32.222c2.291-2.273-1.246-5.808-3.535-3.535
			c-13.007,12.91-27.444,23.968-44.51,30.936C133.979,201.383,135.265,206.222,138.251,205.002L138.251,205.002z"/>
	</g>
</g>
<g opacity="0.9">
	<g>
		<path fill="#606161" d="M179.705,183.307c10.526-10.526,21.053-21.053,31.579-31.579c2.282-2.282-1.253-5.817-3.535-3.535
			c-10.526,10.526-21.053,21.053-31.579,31.579C173.887,182.053,177.423,185.589,179.705,183.307L179.705,183.307z"/>
	</g>
</g>
<g opacity="0.9">
	<g>
		<path fill="#606161" d="M186.722,186.815c16.312-19.83,34.494-38.002,52.632-56.141c2.282-2.282-1.253-5.817-3.535-3.535
			c-18.139,18.138-36.321,36.311-52.632,56.141C181.156,185.749,184.672,189.308,186.722,186.815L186.722,186.815z"/>
	</g>
</g>
<g opacity="0.9">
	<g>
		<path fill="#606161" d="M209.92,179.292c10.373-15.507,21.722-29.982,36.452-41.6c2.531-1.996-1.033-5.509-3.535-3.535
			c-15.054,11.873-26.637,26.771-37.234,42.611C203.804,179.457,208.137,181.957,209.92,179.292L209.92,179.292z"/>
	</g>
</g>
<g opacity="0.9">
	<g>
		<path fill="#606161" d="M225.71,175.783c8.861-12.309,18.747-23.824,29.433-34.582c2.274-2.289-1.261-5.825-3.535-3.535
			c-10.988,11.061-21.105,22.939-30.215,35.594C219.504,175.882,223.845,178.374,225.71,175.783L225.71,175.783z"/>
	</g>
</g>
<g opacity="0.9">
	<g>
		<path fill="#606161" d="M249.374,166.154c16.788-11.307,31.947-24.791,47.875-37.233c2.539-1.983-1.026-5.496-3.535-3.535
			c-15.593,12.181-30.429,25.383-46.863,36.451C244.191,163.627,246.691,167.96,249.374,166.154L249.374,166.154z"/>
	</g>
</g>
<g opacity="0.9">
	<g>
		<path fill="#606161" d="M104.917,231.318c26.58-8.99,51.044-22.806,76.037-35.34c2.883-1.446,0.35-5.758-2.523-4.317
			c-24.604,12.339-48.676,25.985-74.842,34.835C100.551,227.523,101.854,232.354,104.917,231.318L104.917,231.318z"/>
	</g>
</g>
<g opacity="0.9">
	<g>
		<path fill="#606161" d="M131.233,238.336c34.713-12.062,70.702-19.34,107.018-24.562c3.181-0.458,1.823-5.275-1.329-4.821
			c-36.315,5.222-72.305,12.5-107.018,24.561C126.878,234.565,128.179,239.396,131.233,238.336L131.233,238.336z"/>
	</g>
</g>
<g opacity="0.9">
	<g>
		<path fill="#606161" d="M175.093,241.845c31.196-8.666,62.421-17.333,92.982-28.071c3.021-1.062,1.721-5.893-1.329-4.821
			c-30.561,10.738-61.786,19.405-92.982,28.07C170.661,237.885,171.98,242.709,175.093,241.845L175.093,241.845z"/>
	</g>
</g>
<g opacity="0.9">
	<g>
		<path fill="#606161" d="M159.304,259.389c31.008-5.275,61.009-15.589,92.318-19.209c3.164-0.366,3.2-5.37,0-5
			c-31.771,3.674-62.187,14.035-93.647,19.387C154.801,255.106,156.151,259.925,159.304,259.389L159.304,259.389z"/>
	</g>
</g>
<g opacity="0.9">
	<g>
		<path fill="#606161" d="M141.094,271.758c34.063-0.094,67.791-5.164,101.755-7.018c3.206-0.175,3.223-5.176,0-5
			c-33.964,1.854-67.692,6.924-101.755,7.018C137.871,266.767,137.87,271.767,141.094,271.758L141.094,271.758z"/>
	</g>
</g>
<g opacity="0.9">
	<g>
		<path fill="#606161" d="M144.604,282.284c28.109-0.04,56.167-1.756,84.21-3.509c3.202-0.2,3.222-5.201,0-5
			c-28.043,1.753-56.101,3.469-84.21,3.509C141.38,277.289,141.379,282.289,144.604,282.284L144.604,282.284z"/>
	</g>
</g>
<g opacity="0.9">
	<g>
		<path fill="#606161" d="M130.569,296.319c32.784-0.001,65.6-0.14,98.245-3.509c3.174-0.328,3.206-5.331,0-5
			c-32.645,3.369-65.461,3.508-98.245,3.509C127.345,291.319,127.345,296.319,130.569,296.319L130.569,296.319z"/>
	</g>
</g>
<g opacity="0.9">
	<g>
		<path fill="#606161" d="M104.252,317.372c64.367-0.035,128.655-3.459,192.982-5.263c3.217-0.09,3.226-5.091,0-5
			c-64.327,1.804-128.615,5.228-192.982,5.263C101.028,312.374,101.028,317.374,104.252,317.372L104.252,317.372z"/>
	</g>
</g>
<g opacity="0.9">
	<g>
		<path fill="#606161" d="M271.413,238.084c15.694,8.402,33.078,9.012,50.385,10.867c3.204,0.344,3.171-4.66,0-5
			c-16.387-1.757-32.996-2.227-47.861-10.186C271.095,232.245,268.569,236.562,271.413,238.084L271.413,238.084z"/>
	</g>
</g>
<g opacity="0.9">
	<g>
		<path fill="#606161" d="M193.07,255.889c6.034,15.295,17.857,27.076,30.973,36.58c2.616,1.896,5.107-2.444,2.523-4.316
			c-11.949-8.658-23.169-19.636-28.675-33.594C196.723,251.596,191.886,252.886,193.07,255.889L193.07,255.889z"/>
	</g>
</g>
<g opacity="0.9">
	<g>
		<path fill="#606161" d="M114.287,267.908c33.062-20.836,67.511-39.875,104.666-52.379c3.039-1.023,1.735-5.853-1.329-4.821
			c-37.565,12.642-72.429,31.815-105.86,52.884C109.043,265.306,111.55,269.633,114.287,267.908L114.287,267.908z"/>
	</g>
</g>
<g opacity="0.9">
	<g>
		<path fill="#606161" d="M180.348,231.327c10.886-30.422,28.075-58.013,41.854-87.123c-1.523-0.642-3.046-1.284-4.569-1.926
			c-1.594,7.297-5.079,13.876-7.018,21.053c-0.842,3.117,3.981,4.438,4.821,1.329c1.939-7.176,5.424-13.755,7.018-21.053
			c0.577-2.642-3.302-4.605-4.569-1.926c-13.967,29.508-31.322,57.477-42.357,88.316C174.438,233.041,179.27,234.34,180.348,231.327
			L180.348,231.327z"/>
	</g>
</g>
<g opacity="0.9">
	<g>
		<path fill="#606161" d="M200.34,157.47c-10.985,23.447-27.036,44.341-45.223,62.652c-2.274,2.289,1.261,5.825,3.535,3.535
			c18.458-18.583,34.856-39.866,46.005-63.664C206.017,157.093,201.707,154.552,200.34,157.47L200.34,157.47z"/>
	</g>
</g>
<g opacity="0.9">
	<g>
		<path fill="#606161" d="M150.965,172.103c-3.346,8.257-7.181,16.304-10.526,24.562c-1.211,2.99,3.627,4.277,4.821,1.329
			c3.346-8.257,7.181-16.304,10.526-24.562C156.998,170.441,152.159,169.154,150.965,172.103L150.965,172.103z"/>
	</g>
</g>
<g opacity="0.9">
	<g>
		<path fill="#606161" d="M133.673,167.997c-7.225,14.52-13.826,29.34-21.052,43.86c-1.432,2.877,2.881,5.41,4.317,2.523
			c7.226-14.52,13.827-29.34,21.052-43.86C139.422,167.643,135.109,165.109,133.673,167.997L133.673,167.997z"/>
	</g>
</g>
<g opacity="0.9">
	<g>
		<path fill="#606161" d="M112.369,173.857c-3.489,11.926-8.267,23.368-13.783,34.491c-1.428,2.878,2.885,5.412,4.317,2.523
			c5.704-11.501,10.68-23.352,14.287-35.685C118.098,172.084,113.272,170.769,112.369,173.857L112.369,173.857z"/>
	</g>
</g>
<g opacity="0.9">
	<g>
		<path fill="#606161" d="M89.813,185.541c-3.657,7.542-5.965,15.619-9.023,23.404c-1.18,3.005,3.656,4.294,4.821,1.329
			c2.898-7.378,5.055-15.065,8.52-22.21C95.531,185.176,91.22,182.64,89.813,185.541L89.813,185.541z"/>
	</g>
</g>
<g opacity="0.9">
	<g>
		<path fill="#606161" d="M73.772,175.611c-3.972,11.734-8.908,23.111-13.783,34.49c-1.255,2.93,3.051,5.479,4.317,2.523
			c5.045-11.774,10.177-23.543,14.287-35.685C79.63,173.878,74.8,172.575,73.772,175.611L73.772,175.611z"/>
	</g>
</g>
<g opacity="0.9">
	<g>
		<path fill="#606161" d="M315.184,181.046c9.251-18.261,21.336-34.911,26.567-54.983c0.814-3.123-4.009-4.447-4.821-1.329
			c-5.12,19.644-17.01,35.918-26.063,53.789C309.413,181.392,313.726,183.923,315.184,181.046L315.184,181.046z"/>
	</g>
</g>
<g opacity="0.9">
	<g>
		<path fill="#606161" d="M353.375,55.969c1.44,0.001,2.394-0.02,3.496,1.022c2.341,2.213,5.883-1.316,3.535-3.535
			c-2.019-1.908-4.319-2.484-7.031-2.487C350.151,50.965,350.151,55.965,353.375,55.969L353.375,55.969z"/>
	</g>
</g>
<g opacity="0.9">
	<g>
		<path fill="#606161" d="M341.499,128.415c25.049-35.479,61.864-66.53,103.77-79.553c3.069-0.954,1.758-5.781-1.329-4.821
			c-43.208,13.428-80.937,45.277-106.758,81.851C335.317,128.532,339.655,131.026,341.499,128.415L341.499,128.415z"/>
	</g>
</g>
<g opacity="0.9">
	<g>
		<path fill="#606161" d="M825.319,116.64c15.651-12.131,32.263-23.714,51.528-29.181c3.098-0.878,1.779-5.703-1.328-4.821
			c-20.139,5.714-37.384,17.792-53.735,30.467C819.238,115.078,822.804,118.589,825.319,116.64L825.319,116.64z"/>
	</g>
</g>
<g opacity="0.9">
	<g>
		<path fill="#606161" d="M644.604,168.25c55.696-4.765,95.149,41.863,128.057,79.969c2.11,2.444,5.632-1.108,3.535-3.535
			c-33.788-39.127-74.484-86.32-131.592-81.434C641.417,163.522,641.39,168.524,644.604,168.25L644.604,168.25z"/>
	</g>
</g>
<g opacity="0.9">
	<g>
		<path fill="#606161" d="M796.58,220.801c11.57,33.502,43.789,53.154,63.41,81.298c1.829,2.624,6.166,0.129,4.316-2.523
			c-19.249-27.611-51.586-47.329-62.906-80.104C800.355,216.443,795.524,217.744,796.58,220.801L796.58,220.801z"/>
	</g>
</g>
<g opacity="0.9">
	<g>
		<path fill="#606161" d="M459.648,181.539c0.614,20.24,24.144,28.913,35.82,42.118c2.14,2.42,5.663-1.13,3.535-3.535
			c-5.663-6.406-12.914-11.202-19.519-16.557c-6.892-5.587-14.547-12.521-14.836-22.026
			C464.55,178.322,459.55,178.313,459.648,181.539L459.648,181.539z"/>
	</g>
</g>
<g opacity="0.9">
	<g>
		<path fill="#606161" d="M415.788,204.346c-0.064,29.109-4.521,59.672,1.844,88.384c0.698,3.146,5.518,1.813,4.821-1.33
			c-3.087-13.926-2.947-28.493-2.75-42.683c0.205-14.794,1.052-29.574,1.084-44.372
			C420.794,201.122,415.794,201.122,415.788,204.346L415.788,204.346z"/>
	</g>
</g>
<g opacity="0.9">
	<g>
		<path fill="#606161" d="M324.56,244.697c0.212,9.087,3.206,17.9,9.504,24.574c2.217,2.35,5.746-1.192,3.535-3.535
			c-5.383-5.705-7.858-13.288-8.039-21.039C329.485,241.479,324.485,241.471,324.56,244.697L324.56,244.697z"/>
	</g>
</g>
<g opacity="0.9">
	<g>
		<path fill="#606161" d="M123.146,317.119c-5.78,11.475-12.208,22.618-19.298,33.334c-1.785,2.697,2.547,5.199,4.317,2.523
			c7.09-10.716,13.518-21.859,19.298-33.334C128.91,316.771,124.597,314.239,123.146,317.119L123.146,317.119z"/>
	</g>
</g>
</svg>
