<?xml version="1.0" encoding="utf-8"?>
<!-- Generator: Adobe Illustrator 16.0.0, SVG Export Plug-In . SVG Version: 6.00 Build 0)  -->
<!DOCTYPE svg PUBLIC "-//W3C//DTD SVG 1.1//EN" "http://www.w3.org/Graphics/SVG/1.1/DTD/svg11.dtd">
<svg version="1.1" id="Layer_1" xmlns="http://www.w3.org/2000/svg" xmlns:xlink="http://www.w3.org/1999/xlink" x="0px" y="0px"
	 width="750.9px" height="317.5px" viewBox="0 0 750.9 317.5" enable-background="new 0 0 750.9 317.5" xml:space="preserve">
<g id="eyelid">
	<path fill="#FFFFFF" d="M774.279,203.429c-22.962-5.501-45.651-11.953-68.191-18.921c1.578-0.523,3.167-1.013,4.767-1.46
		c3.157,1.459,6.424,2.764,9.952,2.497c5.31-0.4,8.083-4.461,9.965-8.966c1.208-2.891-1.831-6.579-4.821-6.329
		c-4.789,0.401-9.427,1.239-13.958,2.388c-2.511-1.067-4.985-1.918-7.614-2.54c-0.679-1.176-1.82-2.144-3.099-2.669
		c-9.157-3.764-19.244-5.031-28.798-7.659c0.934-0.232,1.867-0.465,2.798-0.698c6.423-1.607,3.529-10.527-2.658-9.643
		c-4.381,0.626-8.76,1.268-13.135,1.934c-8.417-9.386-17.97-17.893-27.687-25.757c-9.174-7.426-19.871-15.881-31.448-20.39
		c-0.181-0.765-0.371-1.53-0.58-2.295c-1.054-3.86-6.472-4.741-8.742-1.929c-4.587-3.026-10.344-4.053-16.408-2.563
		c-1.177,0.289-2.194,1.121-2.871,2.177c-14.574-5.33-30.261-8.508-45.522-9.203c-22.952-7.641-46.79-12.351-70.754-15.446
		c-21.175-2.735-42.768-4.036-64.139-2.746c-0.626-0.081-1.251-0.162-1.877-0.242c-19.818-2.542-39.426-5.469-59.125-8.762
		c-17.449-2.917-36.376-5.782-53.712-0.778c-0.469,0.135-0.899,0.343-1.293,0.6c-0.721-1.52-2.217-2.682-4.378-2.778
		c-20.663-0.925-41.33-0.03-62,0c-2.073,0.003-3.468,1.002-4.207,2.363c-11.179,1.543-22.522,3.32-33.721,5.724
		c-23.385,0.961-46.639,5.363-68.401,14.091c-3.751,1.504-4.079,5.951-2.287,8.384c-2.934,2.774-5.656,5.798-8.222,8.813
		c-8.458,9.935-15.283,21.136-23.697,31.089c-3.853,4.677,2.228,11.318,6.433,7.708c0.083,2.952,3.296,5.129,6.205,4.58
		c-0.543,0.573-1.084,1.148-1.638,1.711c-0.05,0.051-0.091,0.103-0.138,0.154c-1.444,0.127-2.889,0.254-4.326,0.381
		c-3.73,0.33-5.318,3.747-4.664,6.498c-9.569,1.056-19.249,1.578-28.666,3.681c-5.042,1.126-4.502,8.235,0,9.643
		c2.615,0.817,5.262,1.431,7.928,1.905c-2.916-0.119-5.828-0.104-8.732,0.074c-0.609-0.518-1.247-0.827-1.884-0.959
		c-0.15-0.124-0.296-0.254-0.447-0.377c-3.267-2.675-8.26-0.558-8.656,2.968c-3.491,1.475-3.88,7.025-0.403,8.885
		c2.42,1.294,4.891,2.515,7.382,3.703c0.608,0.918,1.213,1.837,1.821,2.755c2.051,3.729,4.345,7.313,6.982,10.716
		c0.007,0.011,0.014,0.021,0.021,0.032c0.001-0.001,0.002-0.001,0.002-0.002c0.262,0.337,0.511,0.681,0.779,1.014
		c1.659,2.061,4.092,1.937,5.941,0.742c2.136,1.915,4.457,3.634,7.071,5.04c3.363,1.808,6.504-0.483,7.328-3.286
		c1.273-0.913,2.137-2.389,2.175-4c0.701,0.254,1.404,0.511,2.104,0.764c1.08,0.39,2.163,0.77,3.245,1.152
		c0.723,0.853,1.439,1.71,2.136,2.588c1.845,2.327,4.557,1.941,6.413,0.376c3.486,1.18,6.982,2.333,10.485,3.463
		c0.415,1.573,1.488,2.954,3.309,3.447c20.264,5.492,40.24,12.018,60.492,17.54c0.583,0.659,1.406,1.181,2.508,1.46
		c13.252,3.357,26.467,7.673,39.894,10.659c8.398,2.938,16.801,5.862,25.227,8.697c10.122,5.158,20.47,9.87,31.13,13.981
		c10.621,4.097,21.839,6.542,32.896,9.416c0.738,0.374,1.479,0.73,2.216,1.109c9.486,4.886,19.231,9.309,29.966,10.315
		c4.513,0.423,6.321-5.565,3.625-8.448c13.566,1.008,27.214,1.068,40.75,0.448c5.765-0.265,11.531-0.677,17.29-1.207
		c8.137,0.775,16.272,1.559,24.38,2.574c17.897,2.242,36.771,7.18,54.57,1.987c15.802,2.574,31.695,4.07,47.714,1.467
		c1.088-0.177,1.917-0.748,2.513-1.517c7.317-0.438,14.615-1.094,21.88-1.997c0.834,1.499,2.349,2.646,4.278,2.692
		c10.402,0.254,20.854-0.253,31.185-1.588c15.104,1.074,29.737-2.487,44.553-5.371c2.332-0.355,4.57-0.79,6.592-1.22
		c1.772-0.376,2.836-1.374,3.314-2.594c0.321,0.233,0.659,0.442,1.027,0.594c6.048,2.487,12.307,1.669,18.321-0.91
		c1.018-0.16,1.817-0.569,2.423-1.131c4.827-2.462,9.449-5.956,13.625-9.668c3.271-1.323,6.493-2.755,9.581-4.425
		c0.799,0.792,1.918,1.313,3.379,1.313c2.396,0,4.788-0.014,7.18-0.035c1.75,1.161,4.162,1.134,5.852-0.093
		c0.471-0.011,0.941-0.019,1.412-0.03c1.594-0.021,3.187-0.039,4.779-0.053c-1.879,0.432-3.737,0.894-5.552,1.39
		c-5.293,1.448-4.401,10.456,1.329,9.821c1.682-0.187,3.353-0.424,5.02-0.683c0.13,1.991,1.524,3.726,3.327,4.404
		c-7.782,5.025-16.819,7.52-26.018,4.457c-6.136-2.043-8.745,7.616-2.658,9.643c16.987,5.656,33.009-2.916,44.849-14.845
		c1.309,0.336,2.625,0.643,3.942,0.931c0.611,1.749,2.151,3.117,4.538,3.093c2.566-0.026,4.923-0.251,7.329-1.179
		c2.81-1.083,4.201-4.47,3.279-6.963c0.707-1.836,0.354-4.071-1.074-5.447c0.156-0.133,0.303-0.276,0.44-0.425
		c3.198-0.204,6.236-3.679,4.343-7.51c-1.7-3.441-3.221-6.959-4.533-10.553c4.28-11.211,5.789-23.479,2.053-34.605
		c13.202,3.765,26.47,7.301,39.834,10.503C777.89,214.573,780.549,204.931,774.279,203.429z M584.931,190.569
		c-0.107,0.423-0.223,0.83-0.335,1.243c-8.929,9.879-22.863,13.188-34.986,17.352c-28.726,9.867-58.137,16.793-88.659,13.086
		c-10.286-1.249-20.876-2.295-31.483-2.622c-18.127-3.362-36.18-7.091-53.692-12.976c-9.095-3.056-16.36-8.138-24.176-13.595
		c-6.918-4.83-14.848-10.132-23.648-9.808c-0.845,0.031-1.576,0.234-2.199,0.557c-5.46-2.688-11.103-5.021-16.966-6.904
		c-14.65-4.704-29.351-4.83-44.511-5.79c-11.856-0.751-23.904-4.903-34.421-10.249c-6.951-3.533-14.268-8.309-19.119-14.705
		c28.766-14.694,60.12-24.032,89.702-36.858c14.073-3.059,28.357-5.101,42.818-5.85c0.976-0.05,1.951-0.077,2.926-0.115
		c6.407,1.08,12.813,2.158,19.287,2.888c12.183,1.373,24.792,1.896,37.146,0.651c10.347,1.492,20.647,3.316,30.878,5.285
		c43.601,8.391,86.044,20.876,128.131,34.64c0.717,0.539,1.439,1.069,2.148,1.618c6.964,5.387,13.508,11.387,18.215,18.89
		c2.734,4.358,4.659,9.112,6.122,14.022C586.666,184.297,585.699,187.561,584.931,190.569z M715.236,220.77
		c-1.489-1.853-2.992-3.695-4.504-5.529c-0.613-1.771-1.141-3.567-1.575-5.387c0.262-0.387,0.474-0.812,0.614-1.274
		c1.33-4.381,1.546-9.081-0.57-12.684c3.887,1.188,7.778,2.354,11.676,3.506C715.892,205.357,714.562,212.91,715.236,220.77z"/>
</g>
<g id="Layer_1_1_">
	<path fill="none" stroke="#000000" stroke-miterlimit="10" d="M-70.9-190.2c-23.5-24.1-41.7-54.3-76.8-61.4
		c-42.1-8.5-82.2-20.3-123.6-33.3c-43.1-13.5-90.8-9.9-135-4c-27.7,3.7-45.7,14.7-71.6,22.9c-16.5,5.2-35.2,5.1-50.5,14
		c-10.7,6.2-19.1,16.3-29.8,22.8c-23.9,14.7-45,32.4-71.7,42.9c-15.2,6-30.7,10.6-46.1,15.3c-11.3,3.4-31.9,4.8-40.4,10.6"/>
	<path fill="none" stroke="#000000" stroke-miterlimit="10" d="M-70.9-141.1c-31.8-11-43.4-23.5-59.3-52.2
		c-13-23.5-29.2-46.5-54.9-57.9c-37.3-16.6-91.4-17.2-131.5-21.3c-38.1-3.9-73.8-12.9-112.5-9.3c-38.8,3.6-67.9,24.6-103.2,38.5
		c-31.7,12.5-37.4,39-68.4,52.3c-19.6,8.4-47.4,59.3-135.1,27.1"/>
	<path fill="none" stroke="#000000" stroke-miterlimit="10" d="M-683.2-160.4c16.5-1.3,31-8.6,49.5-8.8c20.3-0.2,38.8,2,58.6,4.9
		c46.6,6.7,78.2,29.1,119.5,51.7c29.1,15.9,59,32.1,91.7,36.7c28.8,4.1,60.5,1.9,89.4-0.8c70.4-6.6,136.6-60.5,207.1-36.4"/>
	<path fill="none" stroke="#000000" stroke-miterlimit="10" d="M-83.2-114.7c-6.6-2.9-24-9.6-26.4-17.1c-5.4-16.3,15-11,26.4-11"/>
	<path fill="none" stroke="#000000" stroke-miterlimit="10" d="M-386.8-106.8c-40.8-4.9-57.4-48.3-49.1-82.7
		c10.1-41.5,52-55.7,92-55c44.2,0.7,102,23.5,98.2,75.6c-3,40.4-41.9,61.6-77.5,65.7c-25.4,2.9-45.5-6.7-70.1-8.1"/>
	<path fill="none" stroke="#000000" stroke-miterlimit="10" d="M-349.2-149.6c-19.5,0.9-46.2-9.3-36-35
		c7.5-19.1,39.1-21.6,57.1-17.1c14.1,3.5,41.5,30,28.9,47.8c-9.5,13.4-51.5,4.1-65.6,2.2"/>
	<path fill="none" stroke="#000000" stroke-miterlimit="10" d="M-72.6-101.1c-35.8-23.6-66.5,11.1-100,28.2
		c-31,15.8-73.1,19.4-107.5,22.8c-82.5,8-145-34.6-216.8-67.6c-6.2-2.8-12.1-5.5-17.9-7.5"/>
	<path fill="none" stroke="#000000" stroke-miterlimit="10" d="M-549.8-132.3c-19.7-36.7-87.6-18.3-119.3-19.3"/>
	<path fill="none" stroke="#000000" stroke-miterlimit="10" d="M-139.3-235.8c-11.3-17.7,6.7-39.6-7-57.9"/>
	<path fill="none" stroke="#000000" stroke-miterlimit="10" d="M-176.1-260.4c-16.6-2.4-37.9-26.7-49.1-38.6"/>
	<path fill="none" stroke="#000000" stroke-miterlimit="10" d="M-300.7-288.4c8.4,3.9,16.8,8.1,26.3,7"/>
	<path fill="none" stroke="#000000" stroke-miterlimit="10" d="M-325.3-279.6c-6.6-10.8-10.2-22.1-10.5-35.1"/>
	<path fill="none" stroke="#000000" stroke-miterlimit="10" d="M-353.3-283.2c-13.1-3.7-36.7-10-33.3-28.1"/>
	<path fill="none" stroke="#000000" stroke-miterlimit="10" d="M-413-281.4c-10.5-2.5-20-9.7-24.6-19.3"/>
	<path fill="none" stroke="#000000" stroke-miterlimit="10" d="M-446.3-270.9c-11-1.2-30.6-7.5-36.8-17.5"/>
	<path fill="none" stroke="#000000" stroke-miterlimit="10" d="M-541.1-260.4c7.5,3.6,14.6,6.9,22.8,7"/>
	<path fill="none" stroke="#000000" stroke-miterlimit="10" d="M-600.7-227c5.4,4.7,13.7,7.1,21.1,10.5"/>
	<path fill="none" stroke="#000000" stroke-miterlimit="10" d="M-600.7-202.5c-9.7,0.2-20.7,2.3-26.3-7"/>
	<path fill="none" stroke="#000000" stroke-miterlimit="10" d="M-632.3-184.9c-9.6-0.9-18.1-5-24.6-12.3"/>
	<path fill="none" stroke="#000000" stroke-miterlimit="10" d="M-297.2-309.5c13,3.6,20.5,14.7,24.6,28.1"/>
	<path fill="none" stroke="#000000" stroke-miterlimit="10" d="M-300.7-284.9c-7.9-11.3-14.1-21.6-17.5-35.1"/>
	<path fill="none" stroke="#000000" stroke-miterlimit="10" d="M-265.6-311.2c3.1,13.1,2.8,24.4,10.5,36.8"/>
	<path fill="none" stroke="#000000" stroke-miterlimit="10" d="M-227-272.6c-1.6-9.9-7.2-21.6-12.3-29.8"/>
	<path fill="none" stroke="#000000" stroke-miterlimit="10" d="M-320-62.1c-13.2,0.3-24.8,5.5-33.3,15.8"/>
	<path fill="none" stroke="#000000" stroke-miterlimit="10" d="M-460.4-86.7c12.4,0,27.8-2.9,38.6,3.5"/>
	<path fill="none" stroke="#000000" stroke-miterlimit="10" d="M-462.1-109.5c-16.7,0-35.9-1.1-50.9,5.3"/>
	<path fill="none" stroke="#000000" stroke-miterlimit="10" d="M-516.5-130.5c-12.8,2.8-19.8,5.4-29.8,14"/>
	<path fill="none" stroke="#000000" stroke-miterlimit="10" d="M-623.5-139.3c10-10.9,27.5-20.1,42.1-19.3"/>
	<g>
		<g>
			<path d="M-347.2-179.1c-4.6,4.8-10,7.2-9.6,14.7c0.1,1.5,1.6,3,3.2,2.4c3.6-1.3,7.2-3.1,8.7-6.9c1.1-2.9-1-5.8-3.4-7.2
				c-8.6-5.2-16.6,4.1-19.1,11.3c-0.3,1,0.2,2.3,1.1,2.8c6.3,3.4,13.9,2.7,19-2.6c4-4.2,2.2-10-3.6-10.8c0.6,0.8,1.2,1.6,1.8,2.4
				l0,0c-0.8,0.8-1.7,1.7-2.5,2.5c6.8,0.3,9.7-5.6,3.5-10c-6.5-4.7-4.1,10.4-4.2,11.1c1-0.6,2-1.2,3.1-1.7c0.5,0.4,1,0.8,1.5,1.2
				c-1.1-3-5.4-1.9-4.8,1.3c0,0.1,0,0.1,0,0.2c0.1,0.8,1,1.6,1.7,1.7c3.6,0.6,9.8-6.2,11.2-9.2c0.8-1.7-0.2-3.7-2.2-3.8
				c-3.3-0.1-4.7,5.9-5.7,8.2c-0.9,2.1-1.8,4.4-0.7,6.5c2.1,4.1,11-1.2,13.9-1.4c3.1-0.3,3.3-5.1,0-5c-1.8,0-3.5-3.6-4.3-4.9
				c-1.5-2.4-3-5.1-5.3-6.8c-7-5.3-12.6,4.9-15.1,10c-0.6,1.2-0.4,2.8,0.9,3.4c9.1,4.8,17.6,3.8,25.8-2.2c1.3-1,1.7-2.7,0.5-3.9
				c-4.7-5.1-11.5-11.5-19.1-9.6c-5.1,1.3-7.9,6.8-8.9,11.5c-0.7,3.4-1.1,9.7,2.7,11.5c5.7,2.7,9.8-6.9,11.5-10.6
				c0.5-1.2,0.4-2.8-0.9-3.4c-3.6-1.8-7.7-4.5-11.9-4.4c-4.4,0.2-7.4,4.9-9.6,8.1c-0.6,0.9-0.4,2.3,0.4,3
				c4.4,3.9,11.2,10.1,17.7,8.2c4.3-1.3,5.4-6.3,4.8-10.1c-0.5-3.4-2.3-7.3-6.2-7.6c-5.8-0.4-8,9.7-8.9,13.5
				c-0.4,1.7,0.8,2.9,2.4,3.2c3.5,0.5,7.2,1.3,10.6,0.1c3.5-1.1,5.8-4.8,8-7.5c0.8-1,1.1-2.6,0-3.5c-9.4-7.8-20.8-9.3-27.2,2.7
				c-0.5,1-0.4,2.2,0.4,3c4.8,4.6,14.3,10.7,18.9,2.3c3-5.6,0.1-13.6-5.7-15.9c-6.7-2.8-20.7,1.6-19.3,10.6
				c1.4,8.8,12.8,14.1,20.7,14.3c1,0,2.2-0.8,2.4-1.8c0.7-3.5,2.4-6.7,3.1-10.2c0.6-2.8-3-4.3-4.6-1.9c-1.5,2.3-4.1,5.2-3.9,8.1
				c0.2,2.7,2.8,5.3,3.5,7.9c0.6,1.9,3.6,2.6,4.6,0.6c1.8-3.8,3.3-7.9,5.1-11.7c1.1-2.4-2-5.4-3.9-3c-3.1,3.7-4.7,7.9-7.2,12
				c-1.1,1.8,0.4,3.5,2.2,3.8c11.4,1.4,21.2-1.2,25.1-12.9c0.9-2.8-3.1-4.3-4.6-1.9c-7.2,11.9-26.7,18.9-39.2,11.3
				c-7.1-4.3-8.4-15.2-4.9-22.2c4.4-8.5,15.5-11.2,24.3-11.3c9.2,0,16.5,3.7,22.8,10.2c3.3,3.5,6.4,7.9,6.1,12.9
				c-0.6,8.9-13.7,12.4-20.6,13.7c-10.3,1.9-22.4,1.1-31.6-4.3c-9.8-5.8-11.5-19.2-4-27.8c6-6.9,16.2-9.8,25-11.2
				c8.8-1.4,18.6-1,25.9,4.6c9.3,7.2,12.7,18.1,3.9,27.1c-7.9,8.1-21,10.4-31.7,8.2c-9.3-1.9-24.4-9.2-18.5-20.9
				c4.8-9.6,17.2-14.7,27.3-15.5c14.1-1.1,25.1,7.3,30.1,20.2c2.8,7.3,5,16.7-4.3,20c-8,2.8-17.7,0.8-25.7-0.9
				c-3.2-0.7-4.2,3.6-1.3,4.8c13.5,5.6,32.7,2.4,41.7-10c9.2-12.7,0-27-11.9-33.8c-12.2-7-27.6-9.8-41.5-9.2
				c-11.9,0.6-25.4,5.2-28.3,18.2c-0.6,2.8,3,4.3,4.6,1.9c9.8-14.5,26.1-18.9,42.5-13.7c13.4,4.2,27,14.8,31.4,28.5
				c4.8,14.9-7.8,25.1-21.3,27.2c-15.4,2.4-34.4-2.1-46.6-12.1c-10.7-8.8-9.7-20.6-1-30.5c-1.4-0.8-2.8-1.6-4.2-2.4
				c-8,35.4,36.6,50.1,63.7,39.6c-0.6-1.5-1.3-3-1.9-4.6c-10.5,5.2-21.4,6.4-32.6,2.7c-10.5-3.4-19.6-10.8-27.8-17.9
				c-2.2-1.9-5.1,0.5-3.9,3c6.1,13.9,21.2,16.2,34.6,18c0.4-1.6,0.9-3.2,1.3-4.8c-7.6-1-15.2-2-22.4-4.8c-0.4,1.6-0.9,3.2-1.3,4.8
				c2.9,0.6,5.3,2.4,8.1,3.3c2.7,0.9,4.5-3.3,1.9-4.6c-0.5-0.2-0.9-0.5-1.4-0.7c-2.9-1.4-5.4,2.9-2.5,4.3c0.5,0.2,0.9,0.4,1.4,0.7
				c0.6-1.5,1.3-3,1.9-4.6c1,0.4-0.6-0.3-0.6-0.3c-1-0.5-2-0.9-3-1.3c-1.5-0.6-2.9-1.4-4.5-1.7c-3.2-0.7-4.3,3.7-1.3,4.8
				c7.2,2.7,14.8,3.8,22.4,4.8c3.2,0.4,4.5-4.4,1.3-4.8c-12.1-1.6-26.1-3.1-31.6-15.7c-1.3,1-2.6,2-3.9,3
				c9.4,8.2,19.4,15.8,31.4,19.7c11.8,3.9,24.1,1.7,35.1-3.7c2.5-1.2,0.7-5.6-1.9-4.6c-23.1,9-64.7-1.7-57.5-33.4
				c0.5-2.3-2.4-4.4-4.2-2.4c-10,11.4-11.8,25.4-0.2,36.5c11.2,10.7,28.6,15,43.6,15.1c13.8,0.1,28.5-4.8,33.8-18.7
				c4.7-12.4-3.5-25.6-12.2-33.9c-9.6-9.2-22.5-15.1-35.7-15.9c-14.5-0.8-27.1,6.6-35.1,18.4c1.5,0.6,3,1.3,4.6,1.9
				c2.4-10.8,13.8-13.9,23.5-14.5c11.8-0.8,24.2,1.7,35,6.5c10.2,4.5,22.1,15.5,15.2,27.3c-7,12-25.5,14.1-37.2,9.3
				c-0.4,1.6-0.9,3.2-1.3,4.8c12.6,2.7,37.4,6.5,38.9-12.3c0.6-8.3-4.1-18.3-9.3-24.7c-4.4-5.4-10.1-9.2-16.8-11
				c-12-3.3-26.1,0.5-35.7,8.2c-7.9,6.3-13.4,17.1-6.1,26c11.2,13.7,33.8,14.5,48.6,7.2c7.3-3.6,14.3-10.7,14.9-19.3
				c0.7-9.9-6.3-17.7-13.9-23.1c-6.5-4.6-16-4.7-23.5-4.1c-8.9,0.8-18,3.4-25.5,8.3c-10.3,6.6-15.2,20.5-9.4,31.7
				c4.7,9.1,15.9,12.8,25.4,14c10.6,1.3,22,0.1,31.6-4.7c7.8-3.9,13.4-11.4,10.6-20.3c-4.3-13.7-19.5-21.8-33.1-22.1
				c-10.9-0.3-22.9,4-28.6,13.7c-4.9,8.3-2.9,20.9,4.3,27.2c13.9,12.4,39.7,3,48.4-11.4c-1.5-0.6-3-1.3-4.6-1.9
				c-3.2,9.6-11.4,10.4-20.3,9.3c0.7,1.3,1.4,2.5,2.2,3.8c2.3-3.7,3.7-7.6,6.5-11c-1.3-1-2.6-2-3.9-3c-1.8,3.8-3.3,7.9-5.1,11.7
				c1.5,0.2,3,0.4,4.6,0.6c-0.6-2.2-1.4-4.3-2.7-6.2c-0.6-0.9-0.8-0.5-0.4-1.4c0.8-1.6,1.9-3.2,3-4.7c-1.5-0.6-3-1.3-4.6-1.9
				c-0.7,3.5-2.4,6.7-3.1,10.2c0.8-0.6,1.6-1.2,2.4-1.8c-5.6-0.1-11.7-3.1-14.8-7.8c-4.1-6.1,7.4-8.9,11.6-7.6
				c3.3,1,4.3,5.5,3.5,8.4c-1.6,5.7-9.3-1.2-11.2-3c0.1,1,0.3,2,0.4,3c4.8-9,12.4-7.5,19.4-1.7c0-1.2,0-2.4,0-3.5
				c-1.7,2.1-3.4,4.7-5.8,6.1c-2.3,1.4-6.9,0-9.3-0.3c0.8,1.1,1.6,2.1,2.4,3.2c0.6-2.2,1.8-9.1,4.3-9.9c-0.6,0.2-0.2,0,0.2,0.7
				c0.5,0.9,0.8,2,0.9,3c1,9.9-11.5-0.4-14.1-2.6c0.1,1,0.3,2,0.4,3c1.3-1.9,3.3-5.6,6-5.7c2.8-0.1,6.3,2.5,8.7,3.7
				c-0.3-1.1-0.6-2.3-0.9-3.4c-1.1,2.5-2.3,5.1-4.1,7.2c-1.2,1.4-1.6,0.7-0.6,1.6c-1.1-0.9-0.6-5-0.2-6.8c0.7-2.9,2.2-6.1,5.2-7.1
				c5.3-1.7,11.2,5,14.3,8.3c0.2-1.3,0.3-2.6,0.5-3.9c-6.8,4.9-13.2,6.2-20.8,2.2c0.3,1.1,0.6,2.3,0.9,3.4c1.1-2.3,3.6-8.6,6.7-8.9
				c1.8-0.2,3.6,3.4,4.4,4.6c2.2,3.4,4.7,8.8,9.4,8.6c0-1.7,0-3.3,0-5c-3.2,0.3-6.2,1.3-9.2,2.4c-0.5,0.2-1.1,0.4-1.6,0.5
				c0,0,1.1,2.3,1.6,0.6c0.4-1.3,3.8-6.7,1.8-6.8c-0.7-1.3-1.4-2.5-2.2-3.8c-0.6,1.2-2.1,2.3-3,3.3c-0.8,0.8-1.6,1.6-2.4,2.3
				c-1.1,1.1-2,0.9-0.2,1.3c0.6,0.6,1.2,1.2,1.7,1.7c0-0.1,0-0.1,0-0.2c-1.6,0.4-3.2,0.9-4.8,1.3c0.4,1,0.8,2,2,2.3
				c1.3,0.3,2.8-0.4,3.1-1.7c0.5-2.3-0.3-5.1-0.4-7.5c0-0.5-0.1-1.1,0-1.7c-1,0.3-1.9,0.7-2.9,1c0.6,1.4,1.1,1.6,1.7,0.5
				c-0.6,0.4-1.9,0.2-2.5,0.2c-1.3,0-2.6,1.2-2.5,2.5l0,0c0.1,1,0.7,2.3,1.8,2.4c3.3,0.5,1.9,2.3-0.1,3.8c-3.4,2.6-7.8,2.4-11.4,0.4
				c0.4,0.9,0.8,1.9,1.1,2.8c1.5-4.3,4.8-9.7,10.1-8.9c5.9,0.9-0.1,4.6-2.5,5.5c1.1,0.8,2.1,1.6,3.2,2.4c-0.3-5.6,4.7-7.6,8.1-11.2
				C-341.5-177.9-345-181.5-347.2-179.1L-347.2-179.1z"/>
		</g>
	</g>
	<g>
		<g>
			<path d="M-355.9-199.8c-9.8-2.2-20.8-1.2-26.7,7.9c-5.1,7.8-3.8,17.8-0.1,25.8c4,8.5,11.3,14.5,19.7,18.3
				c8.5,3.8,18.7,6.1,25.7,10.1c0.8-6.1,1.6-12.2,2.4-18.3c-6.3,2.3-12,2.1-17.9-1.1c-5-2.7-9.2-8-9.8-13.8c-0.6-5.4-4.1-10-10-10
				c-5,0-10.6,4.6-10,10c1.5,12.9,7.8,23.3,18.7,30.5c9.9,6.5,23.3,7.9,34.3,3.7c7.8-2.9,10.4-13.7,2.4-18.3
				c-6.1-3.5-13-5.5-19.6-7.8c-2.9-1-5.7-2.1-8.4-3.4c-3.3-1.6-4.8-2.5-6.8-4.8c-0.5-0.5-0.9-1-1.3-1.5c0.5,0.7,0.5,0.6-0.2-0.4
				c-0.2-0.3-1.9-3.6-1.2-1.9c-0.5-1.2-0.8-2.4-1.1-3.6c-0.2-1.2-0.2-1.2,0,0c-0.1-0.9-0.1-1.7,0-2.6c-0.1,2.9,1-2.3-0.2,0.4
				c0.6-0.9,0.5-0.9-0.3,0.1c1.4-1.9-1.7,0.9,0.4-0.4c0.6-0.4,0.8-0.2,0.2-0.1c1.8-0.2,3.1,0.1,4.7,0.4
				C-348.7-177.7-343.4-197-355.9-199.8L-355.9-199.8z"/>
		</g>
	</g>
	<g>
		<g>
			<path d="M-340.7-209.7c-18.7-2.1-32.9,9.8-41.5,25.3c-6.2,11.3,11.1,21.4,17.3,10.1c5.6-10.1,12.2-16.8,24.2-15.4
				c5.4,0.6,10-5,10-10C-330.7-205.7-335.3-209.1-340.7-209.7L-340.7-209.7z"/>
		</g>
	</g>
	<g opacity="0.1">
		<g>
			<path d="M-64.7-145.4c-4.3-0.8-6.6-1.8-9.4-3.2c-4-2-7.8-4.6-11.4-7.3c-7.9-5.9-15.6-14.2-22.3-21.9c-6.7-7.7-12.8-16-18.4-24.5
				c-2.6-3.9-5-8-7.3-12.1c-1-1.8-2-3.7-2.9-5.6c-0.4-0.9-0.8-1.7-1.3-2.6c-0.3-0.6-0.5-1.1-0.8-1.7c0.4,1,0.4,1,0,0
				c-2.1-5-6.6-8.6-12.3-7c-4.8,1.3-9,7.2-7,12.3c8.3,20.4,21.5,38.7,35.7,55.3c13.3,15.5,31.1,33.6,52,37.7c5.3,1,10.8-1.4,12.3-7
				C-56.4-138.1-59.4-144.4-64.7-145.4L-64.7-145.4z"/>
		</g>
	</g>
	<g opacity="0.1">
		<g>
			<path d="M-61.7-160.3c-10.3-3.5-19.9-8.7-28-16c-7.5-6.9-13.2-14.8-18.9-23.1c-7.1-10.2-13.8-20.9-22.9-29.5
				c-9.3-8.6-20.2-14.3-31.8-19.1c-25.2-10.6-51.2-20-77.2-28.5c-26.9-8.9-54.6-14.7-83.1-15.6c-49.1-1.6-99.1-1.5-147.6,7.2
				c-44.3,8-88,26.1-115.3,63.4c-11.8,16.1-32.1,22.9-50.5,28c-22.2,6.1-44.8,10.4-65.8,20.2c-4.9,2.3-6.2,9.3-3.6,13.7
				c2.9,5,8.8,5.9,13.7,3.6c20.9-9.9,44.3-13.3,66.3-19.7c22.9-6.7,43.5-17.1,57.8-36.7c25.7-35,71.5-48.4,112.4-54.8
				c23.7-3.7,47.7-4.8,71.7-5.2c25.4-0.5,51.4-0.9,76.7,1.4c27.2,2.5,53.5,10.8,79.2,19.9c13.7,4.8,27.3,9.7,40.7,15.1
				c10.7,4.3,21.5,7.9,31.4,13.7c17.6,10.3,26.6,28.9,38.6,44.5c13.4,17.5,29.7,29.8,50.7,36.9C-54.8-136.8-49.6-156.1-61.7-160.3
				L-61.7-160.3z"/>
		</g>
	</g>
	<g opacity="0.1">
		<g>
			<path d="M-64.7-177c-18.5-5.2-34-17.1-49.1-28.6c-16.4-12.5-32.9-24.6-52.7-31c-12.3-4-17.5,15.3-5.3,19.3
				c18.4,6,33.9,18.3,49.1,29.9c16.2,12.4,32.8,24.1,52.7,29.7C-57.6-154.2-52.3-173.5-64.7-177L-64.7-177z"/>
		</g>
	</g>
	<g opacity="0.1">
		<g>
			<path d="M-53.5-179.4c-32.5-45.2-86.9-66-137.6-83.5c-5.2-1.8-10.9,2-12.3,7c-1.5,5.5,1.8,10.5,7,12.3
				c45.1,15.6,96.6,33.9,125.6,74.4c3.2,4.4,8.6,6.5,13.7,3.6C-52.7-168.3-50.3-175-53.5-179.4L-53.5-179.4z"/>
		</g>
	</g>
	<g opacity="0.1">
		<g>
			<path d="M-58.5-121.2c-12.4-1-24.9,2.8-36.6,6.3c-6,1.8-12,3.7-18.1,5.4c-6.5,1.8-13.1,2.8-19.7,4.4
				c-13.7,3.4-26.4,9.8-39.5,14.7c-8.7,3.2-17.8,5.5-26.7,8.2c-24.5,7.6-49.8,11.4-74.9,14.8c-25.3,3.4-51.1,8.8-76.7,5.8
				c-23.3-2.7-45.7-12.1-66.6-22.2c-45.8-22.4-87.9-52.7-136.7-68.6c-31.3-10.2-63.3-9.2-95.8-9.2c-12.9,0-12.9,20,0,20
				c15.3,0,30.6-0.5,45.9,0.2c14.3,0.7,28.1,3.2,41.8,7.4c23.5,7.1,45.5,18.7,67,30.5c43.5,24,87.4,53.2,137.5,61
				c26.3,4.1,52-0.7,78.1-4.1c17.3-2.3,34.6-4.5,51.7-7.6c10.2-1.9,20.2-4.4,30.2-7.4c6.9-2.1,13.7-4.3,20.6-6.2
				c13.7-3.8,26.4-10.3,39.7-15c6.9-2.4,13.8-3.8,21-5.2c6.9-1.4,13.7-3.6,20.4-5.7c12-3.7,24.7-8.5,37.4-7.5c5.4,0.4,10-4.9,10-10
				C-48.5-117-53.1-120.8-58.5-121.2L-58.5-121.2z"/>
		</g>
	</g>
	<g opacity="0.1">
		<g>
			<path d="M-544.8-169c-9.7-4.2-20.6-9.6-26.9-18.6c-5.9-8.4-3.4-18.2,4.5-25.7c7.7-7.3,19.4-10.1,29.3-13.3
				c12.1-3.9,23.7-8.3,33.8-16.2c4.3-3.4,3.5-10.6,0-14.1c-4.2-4.2-9.9-3.4-14.1,0c-9.6,7.6-22.8,10.3-34.2,14.1
				c-13.6,4.5-26.6,10.8-35.1,22.7c-8.8,12.5-9.9,28.4-2.1,41.6c7.6,12.7,21.6,21,34.8,26.8c5,2.2,10.7,1.5,13.7-3.6
				C-538.7-159.6-539.8-166.8-544.8-169L-544.8-169z"/>
		</g>
	</g>
	<g opacity="0.1">
		<g>
			<path d="M-455.1-270.4c-20.4,2.4-40,9.5-57.9,19.6c-18.1,10.2-34.8,24.5-43,43.9c-7.8,18.4-5.7,38.2,9.7,51.8
				c13.9,12.3,32.7,17.9,50,23.6c12.3,4.1,17.5-15.2,5.3-19.3c-13.5-4.5-29.2-9.2-39.5-17.2c-5.4-4.2-8.1-7.7-9.5-12.6
				c-0.9-3.1-0.8-5.2-0.4-9.3c0.3-2.6,1.9-7.4,3.2-10.5c6.4-14.9,20.6-25.4,34.3-33.3c7.8-4.5,16.1-8.2,24.6-11.1
				c7.3-2.5,16.6-4.9,23.2-5.7c5.4-0.6,10-4.1,10-10C-445.1-265.3-449.7-271-455.1-270.4L-455.1-270.4z"/>
		</g>
	</g>
	<g opacity="0.1">
		<g>
			<path d="M-463.8-130.6c-15.4-12.6-29-27.6-38.9-44.8c-9.5-16.4-15-36.3-5.1-53.6c6.4-11.2-10.4-20.9-17.3-10.1
				c-8.2,12.9-13.5,27.1-12.8,42.6c0.6,15.1,6.1,29.7,10.1,44.1c3.5,12.5,21.9,7.2,19.3-5.3c-3.7-17.4-13.4-33.6-13.7-51.7
				c-0.2-10.4-13.1-13.1-18.6-5c-8.5,12.3-11.2,26.5-13.3,41c6.1-0.8,12.2-1.6,18.3-2.4c-4.6-9.3-7.7-19-9.5-29.2
				c-0.8-4.3-5.5-7.3-9.6-7.3c-4.8,0-8,3.1-9.6,7.3c-3.5,8.8-7,17.5-10.5,26.3c6.5,0.9,13.1,1.8,19.6,2.7c-0.2-3.6-1.1-6.8-2.4-10.1
				c-0.8-2-2.8-6.2-2.8-7.4c-0.6-8.7-10.4-13.2-17.1-7.1c-3.8,3.5-12.5,7.6-17.5,12.3c5.7,2.4,11.4,4.7,17.1,7.1
				c-0.4-2.9-1.5-5.9-1.8-8.8c-0.6-8.6-10.4-13.3-17.1-7.1c-7.9,7.5-20.4,8.3-30.7,9.7c-5.4,0.8-8.3,7.6-7,12.3
				c1.6,5.8,6.9,7.8,12.3,7c14.3-2,28.6-4.6,39.5-14.9c-5.7-2.4-11.4-4.7-17.1-7.1c0.2,2.7,1.6,7.4,1.8,8.8
				c1.1,8.4,10.1,13.5,17.1,7.1c3.8-3.5,12.5-7.6,17.5-12.3c-5.7-2.4-11.4-4.7-17.1-7.1c0.2,3.6,1.1,6.8,2.4,10.1
				c0.8,2,2.8,6.2,2.8,7.4c0.8,11.7,15.5,13,19.6,2.7c3.5-8.8,7-17.5,10.5-26.3c-6.4,0-12.9,0-19.3,0c2.1,11.9,6.2,23.1,11.5,34
				c3.6,7.3,17.1,6.2,18.3-2.4c1.8-12.8,3.8-25.3,11.3-36.2c-6.2-1.7-12.4-3.4-18.6-5c0.3,20.2,10.3,37.7,14.4,57
				c6.4-1.8,12.9-3.5,19.3-5.3c-3.3-11.8-7.9-24.1-9.2-36.2c-1.3-13,3-24.2,9.9-35.1c-5.8-3.4-11.5-6.7-17.3-10.1
				c-25.3,44.3,13.8,95.3,47.2,122.6c4.2,3.4,10,4.1,14.1,0C-460.2-120-459.6-127.1-463.8-130.6L-463.8-130.6z"/>
		</g>
	</g>
	<g opacity="0.1">
		<g>
			<path d="M-114.2-160.4c-0.1,14.3-4.7,31.1-17.9,38.7c-11.1,6.5-1.1,23.8,10.1,17.3c19.3-11.3,27.5-34.6,27.8-56
				C-94.1-173.3-114.1-173.2-114.2-160.4L-114.2-160.4z"/>
		</g>
	</g>
	<g opacity="0.1">
		<g>
			<path d="M-142.3-177.9c0.1,19.7,3.9,44.1-11.1,59.6c-9,9.3,5.2,23.4,14.1,14.1c19.5-20.2,17-47.9,17-73.7
				C-122.3-190.8-142.3-190.8-142.3-177.9L-142.3-177.9z"/>
		</g>
	</g>
	<g opacity="0.1">
		<g>
			<path d="M-136.7-217.4c15.7,48-4.4,119.6-59.7,129.8c-5.4,1-8.3,7.4-7,12.3c1.5,5.6,6.9,8,12.3,7c66.1-12.2,92.5-96.9,73.7-154.4
				C-121.4-234.9-140.7-229.7-136.7-217.4L-136.7-217.4z"/>
		</g>
	</g>
	<g opacity="0.1">
		<g>
			<path d="M-81.4-112.5c-23.5-1.5-46.5-7.5-70-2.3c-11.5,2.5-22.4,8.2-33,13.1c-10.2,4.7-20.4,9-31.2,12
				c-49.6,13.5-102.8,7.2-153.5,7.1c-12.9,0-12.9,20,0,20c51.8,0.1,104.4,5.1,155.3-6.9c11.8-2.8,22.9-7.3,33.9-12.3
				c10.1-4.5,19.9-9.7,30.6-12.8c22-6.4,45.7,0.8,67.9,2.2C-68.5-91.6-68.6-111.6-81.4-112.5L-81.4-112.5z"/>
		</g>
	</g>
	<path fill="none" stroke="#000000" stroke-miterlimit="10" d="M-83.2,216.2c-23.5-24.101-27.1-41.101-62.2-48.2
		c-42.1-8.5-69.5-5.5-112.8-8.4c-49.8-3.3-84.2-10.898-128.5-4.898c-18.9,2.5-23.1,2.4-74.6,9.199c-17.1,2.199-34.9-11-50.2-2.101
		c-33.2,19.3-28.5-26.5-56.8-9.1c-23.9,14.7-34.9-11.9-61.7-1.3c-15.2,6-30.7,10.6-46.1,15.3c-11.3,3.399-31.9,4.8-40.4,10.6"/>
	<path fill="none" stroke="#000000" stroke-miterlimit="10" d="M-70.9,196.5c-31.8-11-43.4-23.5-59.3-52.2
		c-13-23.5-1.7,31.101-27.4,19.7c-37.3-16.6-91.1,1.9-131.2-2.2c-42.7-4.4-62.3-4.9-114.6,0c-39.5,3.7-26.7,10.601-102.2,10.601
		c-34.1,0-56.5-26-87.5-12.699c-19.6,8.398-55.1,46.199-142.8,14"/>
	<path fill="none" stroke="#000000" stroke-miterlimit="10" d="M-675.9,170.2c16.5-1.3,55-17.3,73.4-17.5
		c20.3-0.2,41.6,17.1,61.4,19.899c46.6,6.699,58.2-16.201,99.5,6.5c29.1,15.899,59,32.101,91.7,36.699c28.8,4.102,60.5,1.9,89.4-0.8
		c70.4-6.601,136.6-60.5,207.1-36.399"/>
	<path fill="none" stroke="#000000" stroke-miterlimit="10" d="M-83.2,222.8c-6.6-2.899-24-9.6-26.4-17.1c-5.4-16.3,15-11,26.4-11"
		/>
	<path fill="none" stroke="#000000" stroke-miterlimit="10" d="M-406.2,192.1c-40.4-0.398-36.9-3.3-33.1-13.699
		c4.6-12.601,37-11.5,76.1-12.301c43.1-0.898,149.4,3.4,111.8,13.602c-34.4,9.3-47.3,6.8-81.5,8.898
		C-357.2,190.1-382.1,191.9-406.2,192.1"/>
	<path fill="none" stroke="#000000" stroke-miterlimit="10" d="M-83.3,234.4c-35.8-23.602-41.3-54.2-84.9-60.801
		c-22.5-3.399-69.6,1.899-118.6,6.601c-82.5,8-211.3,25.3-283.1-7.7c-6.2-2.8,50.3,39.8,44.5,37.8"/>
	<path fill="none" stroke="#000000" stroke-miterlimit="10" d="M-549.8,205.3c-19.7-36.7-87.6-18.3-119.3-19.3"/>
	<path fill="none" stroke="#000000" stroke-miterlimit="10" d="M-168.3,161.8c-19.3-30.2-2.7-52.1-7-57.9"/>
	<path fill="none" stroke="#000000" stroke-miterlimit="10" d="M-182,155.9c-16.1-4.7-33.6,28.1-43.1,14.7"/>
	<path fill="none" stroke="#000000" stroke-miterlimit="10" d="M-301.3,170.3c7.8,5.101,15.5-49.6,25-49.3"/>
	<path fill="none" stroke="#000000" stroke-miterlimit="10" d="M-326.8,175.4c-5-11.7-6.9-23.3-5.4-36.2"/>
	<path fill="none" stroke="#000000" stroke-miterlimit="10" d="M-354.1,167.9c-12.4-5.5-34.9-15.2-29-32.602"/>
	<path fill="none" stroke="#000000" stroke-miterlimit="10" d="M-413.4,161.1c-10-4-18.4-12.5-21.5-22.6"/>
	<path fill="none" stroke="#000000" stroke-miterlimit="10" d="M-447.9,166.7c-10.7-2.8-29.2-11.8-33.9-22.7"/>
	<path fill="none" stroke="#000000" stroke-miterlimit="10" d="M-502.6,172.6c6.4,5.301,28.4-40.398,20.6-47.898"/>
	<path fill="none" stroke="#000000" stroke-miterlimit="10" d="M-568.3,131.4c4.1,5.8,11.7,10,18.1,15.1"/>
	<path fill="none" stroke="#000000" stroke-miterlimit="10" d="M-574,155.3c-9.5-2-20.7-2.5-24-12.9"/>
	<path fill="none" stroke="#000000" stroke-miterlimit="10" d="M-608.7,165.1c-9.1-3-16.4-9.1-21.1-17.6"/>
	<path fill="none" stroke="#000000" stroke-miterlimit="10" d="M-294.8,149.9c12.4,5.4,18.2-42.5,20.3-28.7"/>
	<path fill="none" stroke="#000000" stroke-miterlimit="10" d="M-301.8,173.7c-6.2-12.3-10.8-23.4-12.3-37.2"/>
	<path fill="none" stroke="#000000" stroke-miterlimit="10" d="M-263.3,152.7c1.2,13.5-0.8-35.5,5.1-22"/>
	<path fill="none" stroke="#000000" stroke-miterlimit="10" d="M-230.6,136.5c-0.2-10-4.1,37.6-7.9,28.7"/>
	<path fill="none" stroke="#000000" stroke-miterlimit="10" d="M-318.7,199.4c-13,2.5-23.6,9.5-30.3,21"/>
	<path fill="none" stroke="#000000" stroke-miterlimit="10" d="M-461.2,198.2c12.2-2,26.9-7.4,38.7-2.9"/>
	<path fill="none" stroke="#000000" stroke-miterlimit="10" d="M-466.7,176c-16.5,2.7-35.6,4.8-49.3,13.5"/>
	<path fill="none" stroke="#000000" stroke-miterlimit="10" d="M-516.5,207c-12.8,2.8-19.8,5.4-29.8,14"/>
	<path fill="none" stroke="#000000" stroke-miterlimit="10" d="M-623.5,198.2c10-10.9,27.5-20.101,42.1-19.3"/>
	<g>
		<g>
			<path d="M-357.8,154.2c-7.8-0.8-18.1-0.8-23.8,5.6c-5.8,6.601-4,15.9,2.3,21.4c12.2,10.6,30.3,9.2,45.1,13.2
				c0-6.4,0-12.9,0-19.301c-6.2,1.101-12.7,0.699-18.8-0.601c-2.7-0.601-4.9-1.3-7.2-2.5c-0.6-0.399-1.3-0.7-1.9-1.101
				c0.7,0.5,0.6,0.399-0.3-0.301c-1.7-1.6,0.6,2.102,0.1,0.102c-3.2-12.5-22.5-7.2-19.3,5.3c2.4,9.2,11,13.899,19.3,16.8
				c10.6,3.7,22.4,3.602,33.3,1.7c10.1-1.7,9-16.899,0-19.3c-10.8-2.9-22.1-3.2-32.8-6.5c-0.3-0.102-3.1-1.301-1-0.301
				c-1.1-0.5-2.1-1.101-3.1-1.699c1.7,1.1-0.1-0.102-0.5-0.5c0.8,1.1,0.9,1.3,0.3,0.398c0.5,1.5,0.7,1.801,0.4,0.801
				c0.7,2.5,0.1,4.5-1.5,6.301c-1.2,0.898-1.4,1-0.4,0.398c-1.2,0.5-1.2,0.5,0,0.102c1.9-0.5,6.4-0.2,9.6,0.1c5.4,0.602,10-5,10-10
				C-347.8,158.4-352.4,154.8-357.8,154.2L-357.8,154.2z"/>
		</g>
	</g>
	<g>
		<g>
			<path d="M-338.3,171.3c-10.8-1.399-22-2.5-32.7-0.1c-12.6,2.8-7.2,22.1,5.3,19.3c0.5-0.1,1-0.2,1.4-0.3
				c2.6-0.5-2.3,0.2,0.7-0.101c2.1-0.199,4.3-0.301,6.4-0.301c6.3,0,12.6,0.7,18.8,1.5c5.4,0.7,10-5.1,10-10
				C-328.3,175.3-332.9,172-338.3,171.3L-338.3,171.3z"/>
		</g>
	</g>
	<g opacity="0.1">
		<g>
			<path d="M-53.8,234.2c-4.3-0.8-6.6-1.8-9.4-3.2c-4-2-7.8-4.6-11.4-7.3c-7.9-5.9-15.6-14.2-22.3-21.9c-6.7-7.7-12.8-16-18.4-24.5
				c-2.6-3.899-5-8-7.3-12.1c-1-1.8-2-3.7-2.9-5.601c-0.4-0.899-0.8-1.701-1.3-2.601c-0.3-0.6-0.5-1.1-0.8-1.7c0.4,1,0.4,1,0,0
				c-2.1-5-6.6-8.6-12.3-7c-4.8,1.3-9,7.2-7,12.301c8.3,20.399,21.5,38.699,35.7,55.301c13.3,15.5,31.1,33.6,52,37.699
				c5.3,1,10.8-1.399,12.3-7C-45.5,241.6-48.5,235.2-53.8,234.2L-53.8,234.2z"/>
		</g>
	</g>
	<g opacity="0.1">
		<g>
			<path d="M-46.2,258.4c-10.3-3.5-19.9-8.7-28-16c-7.5-6.9-13.2-14.801-18.9-23.102c-7.1-10.199-13.8-20.898-22.9-29.5
				c-9.3-8.6-20.2-14.3-31.8-19.1c-11.8-5-24-10.301-36.3-13.6c-12.4-3.3-25.5-4.3-38.2-3.4c-24.7,1.8-48.4,10-73.2,11.8
				c-4.1,0.3-8.2,0.399-12.3,0.399c-12.9,0.101-12.9,19.699,0,20c1,0,2.5,0.301-1.9-0.301c0.6,0.102-3.6-2.1-4-2.398
				c-5.3-4.2-3.1-10.7-0.1-13.9c-0.7,0.7,2.7-2,1.8-1.398c-0.2,0.1-0.4,0.199-0.6,0.3c4.5-2-1.1,0.2-2.7,0.7
				c-6.7,1.898-13.5,3.398-20.3,4.898c-23,5-46.2,9.102-69.5,12.602c-3.3,0.5-6.6,1-9.8,1.398c-1.7,0.2-3.3,0.5-5,0.7
				c-2.8,0.399,2.1-0.3-0.7,0.101c-1.1,0.101-2.2,0.301-3.3,0.399c-7,0.899-14,1.7-21.1,2.5c-13.8,1.5-27.6,2.601-41.4,3.3
				c-12.5,0.602-24.9,0.7-37.4,0c-2.7-0.1-5.3-0.398-8-0.6c-1.3-0.102-2.5-0.301-3.8-0.4c-0.6-0.1-1.2-0.1-1.8-0.199
				c-1.9-0.199,2.5,0.399-0.3-0.101c-4.6-0.7-9.1-1.601-13.5-2.8c-1.1-0.301-2.2-0.7-3.3-1c-0.9-0.301-5-2-1.5-0.5
				c-1.9-0.801-3.8-1.801-5.5-2.9c-0.3-0.199-0.6-0.398-1-0.699c-1.9-1.301,1.7,1.399,0.5,0.399c-0.7-0.601-1.4-1.3-2.1-2
				c-2.2-2.3,1.1,1.8-0.3-0.399c-0.6-0.899-1.9-4-0.4-0.199c-0.3-0.7-0.5-1.4-0.7-2.2c-0.8-3.101,0.1,2.3-0.1-0.4
				c-0.1-1,0-1.899,0.1-2.899c-0.4,4.101,0,0.301,0.3-0.801c0.3-1,0.6-1.898,0.9-2.898c0.6-1.602-1.2,2.6-0.1,0.199
				c0.3-0.601,0.6-1.199,0.9-1.801c1.4-2.699,3-5.199,4.8-7.6c3.2-4.4,0.8-11.1-3.6-13.7c-5.1-3-10.4-0.8-13.7,3.6
				c-11.5,15.4-32.8,14.6-50.9,14.3c-23-0.5-46.1-1.5-67.5,8.5c-4.9,2.3-6.1,9.3-3.6,13.7c2.9,5,8.7,5.898,13.7,3.6
				c20.1-9.3,44-5.7,65.4-5.6c10.8,0,21.8-0.7,32.2-3.9c11.6-3.6,20.8-10.7,28-20.3c-5.8-3.4-11.5-6.7-17.3-10.1
				c-5.3,7.4-9.8,16.2-9.7,25.5c0.1,9.301,5.2,16.4,12.3,21.801c6.6,5,15.3,7.5,23.4,9.199c11.1,2.301,22.5,3.2,33.8,3.5
				c26.8,0.801,53.8-1.5,80.4-4.6c27-3.1,53.8-7.3,80.5-12.3c14.1-2.7,28.3-5.5,42.2-9.101c3.7-1,7.5-2,10.9-3.699
				c5.1-2.602,6.9-9.301,4.1-14.2c-2.1-3.601-5.9-5.101-9.9-5.2c0,6.7,0,13.3,0,20c26.3-0.1,51.2-7.3,77-11.3
				c11-1.7,22.5-1.9,33.5,0c13.1,2.3,25.3,7.899,37.6,12.7c10.1,3.898,20.1,8.5,28.4,15.6c8.9,7.7,15,17.9,21.7,27.5
				c6.2,8.9,12.6,17.7,20.4,25.2c8.7,8.399,19.1,14.7,30.3,19.2c2.5,1,5,1.898,7.5,2.8C-39.3,281.8-34.1,262.5-46.2,258.4
				L-46.2,258.4z"/>
		</g>
	</g>
	<g opacity="0.1">
		<g>
			<path d="M-70,193.8c-41.4-11.2-84-17.1-126.5-22.399c-18-2.199-36.1-4.301-54.1-6.899c-13.6-2-27.3-4.101-40.5-8.2
				c-12.3-3.9-17.6,15.4-5.3,19.301c12.7,4,26,6.101,39.2,8c18.6,2.801,37.3,4.899,56,7.199c42.3,5.2,84.7,11.102,125.9,22.2
				C-62.8,216.4-57.5,197.1-70,193.8L-70,193.8z"/>
		</g>
	</g>
	<g opacity="0.1">
		<g>
			<path d="M-105.3,210.4c-17.7-24.5-46.3-35.9-74.5-43.5c-27.8-7.5-56.9-10.9-84.2-20.2c-12.2-4.2-17.4,15.1-5.3,19.3
				c26.1,8.9,53.7,12.4,80.3,19.2c24.1,6.1,51.9,15.3,66.4,35.399c3.2,4.399,8.6,6.5,13.7,3.601
				C-104.6,221.5-102.1,214.8-105.3,210.4L-105.3,210.4z"/>
		</g>
	</g>
	<g opacity="0.1">
		<g>
			<path d="M-141.1,145.1c-3.1-0.3-6.3-0.5-9.2,1.2c-6.5,3.9-6.7,14,0.2,17.5c4.2,2.2,9.1,3,13.6,4.7c2.5,0.9-1.8-1,0.9,0.4
				c0.7,0.398,2,1.398-0.7-0.7c0.1,0.1,0.2,0.1,0.2,0.2c-3.1-3.301-3.1-7.5,0.1-12.5c0.2-0.2,4.1-2.2,2.6-1.7
				c-0.6,0.2-1.3,0.4-2,0.5c-3.7,0.8-7.4,1.4-11,2.3c-13.6,3.6-26.3,10.1-39.5,14.9c-8.3,3-17.1,5.5-25.8,7.199
				c-1.3,0.301-2.6,0.5-3.9,0.699c-2.3,0.4,2.4-0.3,0.1,0c-0.6,0.102-1.2,0.102-1.8,0.2c-2.6,0.3-5.2,0.399-7.8,0.399
				c-12,0.199-24.1-1.199-36.1-1.399c-23-0.399-46,1.5-68.8,4.399c-27.7,3.399-54.8,2.801-82.1-3c-26-5.5-51-14.699-75.9-23.699
				c-13-4.7-26-9.4-39.1-13.7s-26.5-8.9-40-11.4c-32.5-6.1-63.8,13.2-95.2,13.6c-12.9,0.1-12.9,20.1,0,20
				c23.5-0.2,46.3-9.6,69.3-13.5c11.3-1.9,20.3-1.1,30.9,1.7c13.8,3.7,27.4,8,41,12.701C-470,183.7-419.9,205.2-364.9,205.9
				c27.4,0.398,54.6-5.301,82-6.5c15.2-0.602,30.3-0.102,45.5,0.8c11.2,0.6,22.2,0.3,33.3-2.101c9.7-2.101,19.4-5.101,28.6-8.601
				c13.2-5,25.9-11.2,39.7-14.3c5.7-1.301,12.6-1.602,15.9-7.301c3.6-6.101,0.5-12.5-5-15.899c-3.2-2-7.1-3.1-10.6-4.2
				c-1.4-0.4-2.8-0.8-4.1-1.3c-0.5-0.2-1-0.3-1.5-0.5c-0.2-0.1-0.4-0.1-0.6-0.2c1.4,0.5,2.7,1,3.7,2.2c0.9,3.2,1.7,6.5,2.6,9.7l0,0
				c-1.5,2-3.1,4-4.6,6c-3.7,2.199-6.4,1.199-3.8,1.3c1,0,1.9,0.101,2.9,0.2c5.4,0.5,10-4.9,10-10
				C-131.1,149.2-135.7,145.6-141.1,145.1L-141.1,145.1z"/>
		</g>
	</g>
	<g opacity="0.1">
		<g>
			<path d="M-500.7,179.3c-10.1-4.3-21.2-8-30.2-14.3c2.1,1.5,0.5,0.4,0.1-0.1c1,1.398,1.2,1.699,0.7,0.898
				c1,1.801,1.3,3.801,0.7,5.9c-0.5,1.898-1.6,3.398-3.2,4.398c0.9-0.5,0.7-0.398-0.7,0.102c1.1-0.5,2.3-0.7,3.5-1
				c7.9-1.9,16.4-1.7,24.4-2.4c9.6-0.898,19.1-2.1,28.5-4.1c0.9-0.2,1.8-0.4,2.8-0.602c3.3-0.699-1.2,0.102,0.3-0.1
				c0.9-0.1,1.8-0.1,2.7,0c0.5,0,1.1,0.1,1.6,0.1c1.6,0.2-2.9-0.398-0.3,0c5.4,0.801,10.7-1.3,12.3-7c1.3-4.8-1.6-11.398-7-12.3
				c-6.5-1-11.8-0.7-18.2,0.6c-12.9,2.7-24.3,3.5-38.5,4.5c-6.9,0.5-16.1,0.8-22,5c-6.8,4.9-7.8,13.3-2.2,19.6
				c3.7,4.1,9.2,6.7,14.1,9c6.7,3.2,13.6,6,20.5,8.9c5,2.1,10.7,1.5,13.7-3.602C-494.6,188.7-495.7,181.5-500.7,179.3L-500.7,179.3z
				"/>
		</g>
	</g>
	<g opacity="0.1">
		<g>
			<path d="M-376.3,140.3c-25.8,3-50.9,10.2-74,22.3c-13.2,6.9-31,17.4-35.7,32.602c-2.2,7.199,1.1,14.6,7.5,18.3
				c5.4,3.101,12.1,3.2,18.1,3.601c2.7,0.199,6,0.601,8.7-0.301c8.3-2.8,10.6-15,1.8-19c-6.6-3.1-14.1-4.3-21.2-5.898
				c-11.4-2.5-22.8-4.801-34.2-7c-11.5-2.2-22.9-4.301-34.5-6.102c-7.2-1.199-14.8-3-22.2-2.8c-7.7,0.2-14.1,8.101-9.6,15.399
				c2.2,3.5,5.8,4.899,9.6,6.199c12.3,4.102,17.5-15.199,5.3-19.3c-0.6-0.2-1.1-0.399-1.7-0.6c-1.7-0.7,2.8,1.3,1.1,0.5
				c-0.1-0.101-0.2-0.101-0.3-0.2c5,3.1,10.6,12.6-2.5,17.8c1-0.399-3.6,0.3-1.7,0.3c2.5-0.1,5.1,0.4,7.6,0.7
				c1.8,0.2-2.8-0.399-0.9-0.1c0.5,0.1,0.9,0.1,1.4,0.2c1,0.1,2,0.3,3,0.398c2.5,0.4,4.9,0.801,7.4,1.2
				c5.6,0.899,11.1,1.899,16.6,2.899c21.3,3.801,42.8,7.601,63.7,13.199c1.1,0.301,2.3,0.602,3.4,1c2.4,0.7,1.1,0.4-0.2-0.199
				c-3.1-1.5-9.1-10.801,0.4-16.699c2.5-1.5,3-1.102,2-0.9c3.7-0.8,3-0.398,2.1-0.3s-1.9,0-2.8,0c-1.6-0.101-3.2-0.2-4.8-0.399
				c-1-0.101-1.9-0.199-2.9-0.301c-0.6-0.1-1.3-0.1-1.9-0.199c2.7,0.301,0.5,0-0.1-0.101c-0.4-0.101-0.8-0.2-1.2-0.3
				c-2-0.602,2.1,1.1,0.4,0.199c-0.8-0.399-1.9-1.5,0.5,0.5c-0.7-0.601-1.2-1.801,0.5,0.801c-0.5-0.9-0.3-0.4,0.5,1.3
				c-0.6-1.601,0.2,2.8,0.1,1.101s-0.5,2.801-0.2,1c0.1-0.5,0.3-0.899,0.4-1.399c-1.1,3.2,0,0.2,0.5-0.601
				c0.3-0.5,0.7-1.101,1.1-1.601c-1.6,2.2-0.1,0.2,0.2-0.2c2-2.3,4.4-4.398,6.8-6.398c0.9-0.7,1-0.801,0.3-0.2
				c0.8-0.601,1.6-1.2,2.5-1.8c1.8-1.301,3.6-2.5,5.5-3.602c3.8-2.398,7.7-4.6,11.7-6.6c19-9.801,40.4-15.9,61.6-18.4
				c5.4-0.6,10-4.1,10-10C-366.3,145.3-370.9,139.7-376.3,140.3L-376.3,140.3z"/>
		</g>
	</g>
	<g opacity="0.1">
		<g>
			<path d="M-417.5,186.7c-14.2-9.2-30.7-10.9-47.1-12.3c-1.5-0.102-3-0.301-4.5-0.4c-1.2-0.1-1.1-0.1,0.2,0
				c-0.8-0.1-1.5-0.2-2.3-0.4c-1.1-0.199-2.2-0.5-3.2-0.898c1.5,0.699,1.7,0.8,0.8,0.3c-1.7-0.899,1.8,1.601,0.4,0.399
				c1.4,1.301,1.3,1.801,1.5,3.601c0-1,0-0.7-0.2,0.899c0.1-0.699,0.3-1.399,0.5-2c0.4-1,0.4-1-0.1,0c0.4-0.899,0.9-1.801,1.4-2.699
				c1.2-2.2,2.7-4.4,4.2-6.4c6.6-9.2-8.6-20.9-15.7-12.1c-2.1,2.6-4.3,5.1-6.9,7.3c0.7-0.601-1.7,1-2.1,1.2
				c-1.7,0.898,1.5-0.4-1.1,0.3c2.8-0.7,0.9-0.101-0.1-0.2c3.1,0.102,1.6,0.2,0.6-0.1c-0.5-0.2,2.6,1.1,0.3,0.1
				c-7.9-3.398-17.8,2.301-14.8,11.801c1.3,4.101,3.1,8.101,4.5,12.101c4.1,12.1,22.6,7.3,19.3-5.3c-1.2-4.801-3-10.4-7.1-13.602
				c-0.9-0.699-1.8-1.398-2.7-2c1.9,1.2,1,0.301,2.1,2.102c1.8,2.8,0.2-0.5,0.4,1.398c-0.3-2-0.2-4-0.2-6c-0.1-8.5-11-13.5-17.1-7.1
				c0.8-0.8-2,1.6-0.7,1.1c-0.8,0.3-1.4,0.1-0.5,0.2c-2.1-0.4-4.2-1.3-6.3-1.6c-8.1-1.2-14.5,3.1-16.3,11.1
				c6.1-0.8,12.2-1.601,18.3-2.399c-1.4-2.199-2.9-4.699-5-6.399c-1.8-1.5-2.5-2-4.8-2.8c-0.9-0.3-6.3-1.2-0.8-0.1
				c1.5,0.9,2.9,1.7,4.4,2.6c1.9,4.1,2.6,5.1,2.1,3.2c-0.3-1.1-0.5-2.3-0.7-3.5c-1.8-8.7-14.2-9.5-18.3-2.4c0.8-0.7,1.7-1.3,2.8-1.7
				c0.6-0.2,3.3,0.2,1.2-0.2c-2.4-0.5-4.6-1.1-7-1.2c-6.1-0.4-11.3,2.7-14.3,7.9c6.2,1.7,12.4,3.4,18.6,5c-0.3-3.7-1.2-6.4-2.7-9.8
				c-0.6-1.3-1.3-2.6-1.9-3.8c0,0-1.3-3.6-1.2-2.2c-0.6-6.6-8.4-13.7-15-8.6c-5.9,4.5-13.4,6.6-19.3,11.1c4.9,2,9.8,4,14.7,6
				c-0.3-1.8-1.4-3.5-1.6-5.3c-0.8-9.2-10-12.6-17.1-7.1c-8.4,6.5-21.5,7-31.6,8.2c-5.4,0.6-10,4.1-10,10c0,5,4.6,10.6,10,10
				c16.3-1.9,32.4-3.7,45.7-14c-5.7-2.4-11.4-4.7-17.1-7.1c0.3,3.7,1.7,7,2.3,10.6c0.9,6,9.9,9.7,14.7,6c5.9-4.5,13.4-6.6,19.3-11.1
				c-5-2.9-10-5.8-15-8.6c0.3,3.7,1.2,6.4,2.7,9.8c0.6,1.301,1.3,2.602,1.9,3.801c0,0,1.3,3.601,1.2,2.199c0.8,9.5,13.3,14.2,18.6,5
				c-0.8,0.7-1.7,1.301-2.8,1.7c-0.6,0.2-3.3-0.2-1.2,0.2c2.4,0.5,4.6,1.1,7,1.2c6.1,0.399,11.3-2.7,14.3-7.9
				c-6.1-0.8-12.2-1.6-18.3-2.399c0.6,3.101,1.1,7,3.8,9.101c2.2,1.8,4.3,2.899,7.2,3c-4.6-0.101-6.9-4.399-4.2-0.2
				c4.4,6.9,16.4,6.5,18.3-2.398c0.1-0.4,0.2-0.7,0.2-1.102c-1,2.5-3.2,3.9-6.5,4.2c-2.2,0.2-1.1-0.2,0.1,0.101
				c2.6,0.699,5,1.399,7.8,1.699c6.6,0.7,12.6-2.3,17.1-7c-5.7-2.398-11.4-4.699-17.1-7.1c0.1,6.398,0.4,12.3,4.6,17.398
				c0.6,0.7,2.5,2,2.6,2.102c1.9,1.3-1.7-1.5-0.3-0.2c1.5,1.3-1.2-2,0,0.3c-0.4-0.699,0.9,3.102,1.1,3.9
				c6.4-1.801,12.9-3.5,19.3-5.301c-1.1-3.101-2.2-6.199-3.4-9.199c-0.3-0.7-0.5-1.4-0.8-2c-1.1-2.7,0.9-0.301-0.4,3.898
				c-1.5,2-3.1,4-4.6,6l0,0c-1.7,0.5-3.4,0.9-5,1.4c-4-0.1-6.3-2-4-0.9c1.2,0.602,2.4,1.102,3.6,1.5c2.1,0.801,4.7,1,6.9,0.7
				c9.4-1.2,16.4-7.2,22.1-14.399c-5.2-4-10.5-8.101-15.7-12.101c-5.1,7.2-9.6,14.9-8.1,24c1.2,7.2,9,11.101,15.4,12.3
				c17.3,3.301,33,1.102,48.2,10.9C-416.7,211-406.7,193.7-417.5,186.7L-417.5,186.7z"/>
		</g>
	</g>
	<g opacity="0.1">
		<g>
			<path d="M-132.3,169.6c12.9,0,12.9-20,0-20C-145.2,149.6-145.2,169.6-132.3,169.6L-132.3,169.6z"/>
		</g>
	</g>
	<g opacity="0.1">
		<g>
			<path d="M-81.4,225.1c-3-0.199,1.9,0.4-0.9-0.1c-0.8-0.2-1.6-0.4-2.4-0.6c-2.5-0.801,1.8,0.898-0.5-0.2c-0.7-0.3-1.3-0.8-1.9-1.2
				c2.1,1.4-1.1-1.2-1.7-1.9c-1.7-1.898,1.2,1.7-0.2-0.3c-0.6-0.8-1.1-1.7-1.6-2.5c-3.4-5.7-5.4-12.1-8.5-17.899
				c-3.5-6.801-8.9-13-15.9-16.301c-10.1-4.8-19.8-2.699-30.4-2.898c-13.2-0.2-26.3-3.301-39.5-4c-6.6-0.301-13.3,0.199-19.8,1.5
				c-1.2,0.199-2.3,0.5-3.5,0.8c-0.9,0.2-4.7,0.7-0.9,0.2c-10.6,1.3-21.5,0.699-32.1,0c-69-4.301-137.2-17.9-206.4-21
				c-19.4-0.9-39-1-58.2,2.199c-12.6,2.101-27.5,6.601-34.2,18.5c-6.4,11.199,10.9,21.301,17.3,10.101c0.5-0.8,2.2-3.2-0.1-0.2
				c0.5-0.6,1.1-1.199,1.6-1.8c0.3-0.3,0.6-0.601,0.9-0.8c1.3-1.102-2.1,1.6-0.7,0.5c0.9-0.602,1.8-1.2,2.7-1.7
				c0.8-0.5,1.7-0.899,2.6-1.3c2.2-1-2.1,0.8,1-0.4c2.3-0.898,4.8-1.6,7.2-2.199c2.5-0.601,5.1-1.101,7.6-1.5
				c0.7-0.101,1.4-0.199,2.1-0.301c2.4-0.398-2.3,0.301,0.2,0c1.7-0.199,3.4-0.398,5.2-0.6c6.8-0.602,13.7-0.9,20.5-0.9
				c34.5-0.398,69.1,3.5,103.4,7.5c35,4,70,8.9,105,12.301c13.2,1.301,26.4,2.399,39.7,2.5c12.6,0.101,24.8-3.5,37.3-3.199
				c16.1,0.3,31.9,5.199,48,3.898c3.2-0.3,6.3-0.6,9.5-0.398c1.3,0.1,1.4,0.1,0.3,0c0.6,0.1,1.2,0.199,1.8,0.398
				c0.4,0.102,3.9,1.301,1.7,0.4c1,0.398,1.9,1,2.8,1.6c1.4,0.9-1-1,1,0.801c0.8,0.699,1.4,1.5,2.1,2.199
				c-1.7-1.898,0.4,0.7,0.7,1.102c4.5,6.8,6.7,14.898,10.9,22c5.8,9.8,14.9,15.3,26.1,16.1c5.4,0.4,10-4.9,10-10
				C-71.4,229.3-76,225.5-81.4,225.1L-81.4,225.1z"/>
		</g>
	</g>
	<path fill="none" stroke="#000000" stroke-miterlimit="10" d="M687.7,216.2c-23.5-24.101-24.6-56.5-59.602-63.6
		c-42.1-8.5-81.398-29.1-122.8-42.1C462.2,97,411.8,79.4,367.5,85.3c-18.9,2.5-7.4,9.3-57,25c-16.5,5.2-40.8,8.9-56.1,17.8
		c-33.2,19.3-23.4,7.1-51.8,24.6c-23.9,14.7-34.9-11.9-61.7-1.3c-15.2,6-30.7,10.6-46.1,15.3c-11.3,3.399-31.9,4.8-40.4,10.6"/>
	<path fill="none" stroke="#000000" stroke-miterlimit="10" d="M700,196.5c-31.8-11-43.4-23.5-59.3-52.2
		c-13-23.5-1.7,31.101-27.4,19.7C576,147.4,514.9,127.8,474.9,123.7c-42.7-4.4-73.501-26.8-125.7-21.9c-39.5,3.7-41.3,7-105.4,32.3
		c-31.7,12.5-34.9,12.4-65.8,25.6c-19.6,8.399-55.1,46.2-142.8,14"/>
	<path fill="none" stroke="#000000" stroke-miterlimit="10" d="M95,170.2c16.5-1.3,55-17.3,73.4-17.5
		c20.3-0.2,41.6,17.1,61.4,19.899c46.6,6.699,58.2-16.201,99.5,6.5c29.1,15.899,59,32.101,91.7,36.699c28.8,4.102,60.5,1.9,89.4-0.8
		c70.398-6.601,136.6-60.5,207.1-36.399"/>
	<path fill="none" stroke="#000000" stroke-miterlimit="10" d="M687.7,222.8c-6.6-2.899-24-9.6-26.4-17.1c-5.4-16.3,15-11,26.4-11"
		/>
	<path fill="none" stroke="#000000" stroke-miterlimit="10" d="M698.2,236.4c-35.8-23.602-41.3-54.2-84.9-60.801
		c-22.5-3.399-69.6,1.899-118.6,6.601c-82.5,8-211.3,25.3-283.1-7.7c-6.2-2.8,50.3,39.8,44.5,37.8"/>
	<path fill="none" stroke="#000000" stroke-miterlimit="10" d="M221.1,205.3c-19.7-36.7-87.6-18.3-119.3-19.3"/>
	<path fill="none" stroke="#000000" stroke-miterlimit="10" d="M602.6,161.8c-19.3-30.2-2.698-52.1-7-57.9"/>
	<path fill="none" stroke="#000000" stroke-miterlimit="10" d="M588.9,155.9C572.8,151.2,555.3,124,545.8,110.6"/>
	<path fill="none" stroke="#000000" stroke-miterlimit="10" d="M469.6,110.3c7.802,5.1,15.5,10.4,25,10.7"/>
	<path fill="none" stroke="#000000" stroke-miterlimit="10" d="M444.1,115.4c-5-11.7-6.898-23.3-5.398-36.2"/>
	<path fill="none" stroke="#000000" stroke-miterlimit="10" d="M416.8,107.9c-12.4-5.5-34.9-15.2-29-32.6"/>
	<path fill="none" stroke="#000000" stroke-miterlimit="10" d="M357.5,101.1c-10-4-18.4-12.5-21.5-22.6"/>
	<path fill="none" stroke="#000000" stroke-miterlimit="10" d="M323,106.7c-10.7-2.8-29.2-11.8-33.9-22.7"/>
	<path fill="none" stroke="#000000" stroke-miterlimit="10" d="M268.3,112.6c6.4,5.3,28.4,19.6,20.6,12.1"/>
	<path fill="none" stroke="#000000" stroke-miterlimit="10" d="M202.6,131.4c4.1,5.8,11.7,10,18.1,15.1"/>
	<path fill="none" stroke="#000000" stroke-miterlimit="10" d="M196.9,155.3c-9.5-2-20.7-2.5-24-12.9"/>
	<path fill="none" stroke="#000000" stroke-miterlimit="10" d="M162.2,165.1c-9.1-3-16.4-9.1-21.1-17.6"/>
	<path fill="none" stroke="#000000" stroke-miterlimit="10" d="M476.1,89.9c12.4,5.4,18.2,17.5,20.302,31.3"/>
	<path fill="none" stroke="#000000" stroke-miterlimit="10" d="M469.1,113.7c-6.198-12.3-10.8-23.4-12.3-37.2"/>
	<path fill="none" stroke="#000000" stroke-miterlimit="10" d="M507.6,92.7c1.2,13.5-0.8,24.5,5.102,38"/>
	<path fill="none" stroke="#000000" stroke-miterlimit="10" d="M540.3,136.5c-0.2-10-4.1-22.4-7.898-31.3"/>
	<path fill="none" stroke="#000000" stroke-miterlimit="10" d="M452.2,199.4c-13,2.5-23.602,9.5-30.3,21"/>
	<path fill="none" stroke="#000000" stroke-miterlimit="10" d="M309.7,198.2c12.2-2,26.9-7.4,38.7-2.9"/>
	<path fill="none" stroke="#000000" stroke-miterlimit="10" d="M304.2,176c-16.5,2.7-35.6,4.8-49.3,13.5"/>
	<path fill="none" stroke="#000000" stroke-miterlimit="10" d="M254.4,207c-12.8,2.8-19.8,5.4-29.8,14"/>
	<path fill="none" stroke="#000000" stroke-miterlimit="10" d="M147.4,198.2c10-10.9,27.5-20.101,42.1-19.3"/>
	<g opacity="0.1">
		<g>
			<path d="M717.1,234.2c-4.3-0.8-6.6-1.8-9.398-3.2c-4-2-7.802-4.6-11.4-7.3c-7.899-5.9-15.6-14.2-22.3-21.9s-12.8-16-18.4-24.5
				c-2.6-3.899-5-8-7.3-12.1c-1-1.8-2-3.7-2.899-5.601c-0.399-0.899-0.801-1.701-1.301-2.601c-0.3-0.6-0.5-1.1-0.8-1.7
				c0.4,1,0.4,1,0,0c-2.1-5-6.6-8.6-12.3-7c-4.8,1.3-9,7.2-7,12.301c8.3,20.399,21.5,38.699,35.7,55.301
				c13.3,15.5,31.1,33.6,52,37.699c5.3,1,10.8-1.399,12.3-7C725.4,241.6,722.4,235.2,717.1,234.2L717.1,234.2z"/>
		</g>
	</g>
	<g opacity="0.1">
		<g>
			<path d="M721.1,242.2c-10.3-3.5-19.898-8.7-28-16c-7.5-6.9-13.2-14.8-18.898-23.101c-7.102-10.199-13.802-20.899-22.9-29.5
				c-9.3-8.601-20.2-14.301-31.8-19.101c-25.2-10.6-51.2-20-77.2-28.5c-26.899-8.9-54.6-14.7-83.1-15.6
				c-24.301-0.8-48.2-2.8-72.302-5.8c-23.798-3-47.6-6.4-71.6-7.8c-41.4-2.6-88.6,1.1-117.8,34.4c-3.6,4.1-6.4,8.6-10.4,12.3
				c-2.9,2.7-7.2,5-10.6,6.2c-10,3.6-19.9,3.6-30.6,3.6c-24.8-0.2-49.7-2.4-72.8,8.4c-4.9,2.3-6.1,9.3-3.6,13.699
				c2.9,5,8.7,5.899,13.7,3.601c38.4-17.899,92.9,11.5,123.2-26.8c5.9-7.4,12.3-14.7,19.9-19.8c8.1-5.5,15.7-8.5,25-11.2
				c20.2-5.7,41.5-5.6,62.7-4.5c48,2.7,95.3,12.8,143.5,13.7c27.899,0.5,54.8,6.8,81.1,15.4c25.5,8.4,51.102,17.5,75.8,28.102
				C624.7,178.3,633.8,184,641.6,192.1c7.7,8.102,13.4,18.4,19.9,27.4c6.3,8.8,13.1,17.2,21.399,24.1
				c9.801,8.2,21,13.801,33.101,17.9C728,265.6,733.2,246.3,721.1,242.2L721.1,242.2z"/>
		</g>
	</g>
	<g opacity="0.1">
		<g>
			<path d="M700.9,193.8c-43.7-12-84.802-31.8-125.2-52c-18-9-35.9-18.3-53.9-27.2c-13.6-6.7-27.5-13.6-42-18.3
				c-12.3-4-17.5,15.3-5.3,19.3c6,1.9,11.3,4.2,15.7,6.1c7.6,3.4,15.2,7,22.6,10.7c18.602,9.2,37,18.8,55.5,28
				c41,20.5,82.9,40.398,127.2,52.6C708,216.5,713.3,197.2,700.9,193.8L700.9,193.8z"/>
		</g>
	</g>
	<g opacity="0.1">
		<g>
			<path d="M665.5,210.4c-32.5-45.2-86.9-66-137.6-83.5c-5.2-1.8-10.9,2-12.302,7c-1.5,5.5,1.802,10.5,7,12.3
				C567.7,161.8,619.2,180.1,648.2,220.6c3.2,4.4,8.6,6.5,13.7,3.602C666.3,221.5,668.7,214.9,665.5,210.4L665.5,210.4z"/>
		</g>
	</g>
	<g opacity="0.1">
		<path d="M657.8,158.6c-2.9-3.3-8-4.7-12-6.1c-0.174-0.058-0.347-0.107-0.52-0.164c-1.79-1.503-4.145-2.455-6.682-2.736
			c-3.1-0.3-6.3-0.5-9.198,1.2c-4.624,2.774-6.04,8.677-4.001,13.118c-10.695,3.666-20.986,8.622-31.601,12.482
			c-8.399,3-17.2,5.199-25.7,7.898c-5,1.5-9.898,3-15,4.301c-11.3,3-22.8,4.899-34.3,6.699c-22.399,3.4-44.6,6.102-67.2,9
			c-26.1,3.4-51.498,0.9-76.8-6.199c-50.6-14.301-95.9-42.701-146.3-57.899c-9.3-2.8-18.6-5.3-28.4-5.3c-9.7,0-19.4,1.8-28.8,3.8
			c-0.382,0.082-0.766,0.172-1.148,0.256c-1.329-0.748-2.996-0.918-4.725-0.024c-2.213,1.144-4.502,2.066-6.838,2.855
			c-13.757,3.603-27.697,7.66-41.289,7.813c-12.9,0.1-12.9,20.1,0,20c23.5-0.199,46.3-9.6,69.3-13.5c11.1-1.9,20.1-1.2,30.4,1.6
			c13,3.5,25.8,8.1,38.3,13c48,19,93.7,46.2,145.7,53.3c13.5,1.8,26.899,2.4,40.5,1.4c14.2-1.102,28.399-3.5,42.6-5.301
			c18-2.399,36-4.601,53.9-7.801c10.3-1.8,20.4-4.3,30.4-7.3c5.8-1.7,11.5-3.601,17.3-5.399c6.7-2.101,13.3-3.801,19.898-6.399
			c6.802-2.601,13.5-5.601,20.302-8.2c4.698-1.8,9.6-3.4,14.5-4.7c3.898-1,7.999-1.3,11.8-2.6C660.6,174.8,664.1,165.7,657.8,158.6z
			"/>
	</g>
	<g opacity="0.1">
		<g>
			<path d="M270.2,179.3c-0.8-0.399-4.1-2.7-2-1c-0.5-0.399-1-1-1.5-1.5c-1.7-1.8,1.2,1.8-0.2-0.2c-0.9-1.199-1.6-2.6-2.2-3.898
				c-1.2-2.4,0.7,2-0.2-0.602c-0.4-1-0.7-2.1-1.1-3.1c-1-3.3-1.7-6.8-2.3-10.2c-0.2-0.9-0.3-1.8-0.4-2.7c-0.4-3,0.3,2.1-0.1-0.9
				c-0.3-2-0.5-4.1-0.7-6.1c-1.1-10.5-0.2-33.1-15.8-33c-4,0-7.1,2-10,4.6c-1,0.8-1.8,1.8-2.6,2.8c-0.6,0.7-3.2,4.1-1.5,1.9
				c-0.6,0.8-1.2,1.5-1.8,2.3c-3.9,5.1-7.5,9.7-6.4,16.5c1.5,9.1,11.9,8.4,18,5.6c4.2-1.9,8-4.7,11.8-7.3
				c11-7.4,21.6-15.2,32.6-22.5c4.8-3.2,9.6-6.3,14.6-9.1c1-0.6,2.1-1.1,3.1-1.6c2.9-1.5-1.3,0.4,0.8-0.4c0.7-0.3,1.5-0.5,2.2-0.7
				c0.8-0.2-3.1-0.1-0.7,0.2c5.4,0.7,10-5,10-10c0-6-4.6-9.3-10-10c-4.7-0.6-9.9,2.3-13.9,4.3c-5.4,2.8-10.5,6.1-15.5,9.5
				c-11.7,7.7-22.9,16-34.5,23.8c-2.1,1.4-4.2,2.8-6.3,4.1c-0.8,0.5-1.7,1-2.6,1.5s-4.2,1.9-0.3,0.3c-1.1,0.5-3,0.5,1.1,0.1
				c5.2-0.5,10.2,6.9,8.9,11.4c-0.2,0.6-1.3,2.5-0.1,0.4c0.6-1,1.3-2,2-2.9c1.3-1.8-1.4,1.8,0.1-0.1c0.5-0.6,1-1.2,1.5-1.9
				c0.5-0.7,1-1.3,1.6-2c-0.7,0.9-0.8,1-0.1,0.2c0.4-0.5,0.9-1,1.3-1.5c2.2-2.3-1,0.4,0.5-0.5c-3,1.7-7.1,1-9-1
				c-2-2.1-1.3-1.8-0.8-0.9c-1.5-2.8-0.7-1.7-0.4-0.8c0.3,1,0.5,2,0.7,3.1c0.1,0.6,0.2,1.2,0.3,1.8c0.4,2.3-0.3-2.4,0,0
				c0.2,1.7,0.4,3.5,0.6,5.2c1.7,17.6,2.3,45.5,21.3,54.2c5,2.3,10.7,1.5,13.7-3.601C276.3,188.7,275.1,181.6,270.2,179.3
				L270.2,179.3z"/>
		</g>
	</g>
	<g opacity="0.1">
		<path d="M315.8,67.2c-20.4,2.4-40,9.5-57.9,19.6c-11.502,6.482-22.43,14.627-30.979,24.678
			c-6.513,5.015-11.961,11.374-13.792,19.443c-0.296,1.303-0.11,2.448,0.375,3.393c-6.072,17.341-3.301,35.474,11.096,48.187
			c13.9,12.3,32.7,17.9,50,23.6c12.3,4.102,17.5-15.199,5.3-19.3c-13.5-4.5-29.2-9.2-39.5-17.2c-5.4-4.199-8.1-7.699-9.5-12.6
			c-0.9-3.1-0.8-5.2-0.4-9.3c0.3-2.6,1.9-7.4,3.2-10.5C240,122.4,254.2,112,268,104c2.53-1.46,5.118-2.827,7.743-4.118
			c0.09-0.04,0.174-0.084,0.26-0.128c5.386-2.636,10.945-4.926,16.597-6.854c7.3-2.5,16.6-4.9,23.2-5.7c5.4-0.6,10-4.1,10-10
			C325.8,72.2,321.2,66.6,315.8,67.2z"/>
	</g>
	<g opacity="0.1">
		<path d="M353.4,186.7c-16.7-11-35.3-20.2-50.7-32.6c-3.6-2.9-7-6-10.1-9.4c-1.8-2-1.8-2-3-3.7c-0.6-0.8-1.1-1.7-1.6-2.5
			c-0.161-0.242-1.295-2.494-1.311-2.417c-1.48-3.641-1.571-4.204-1.342-7.702c0.022,0.168,0.275-1.65,0.353-1.881
			c0.2-1,0.6-1.9,0.9-2.8c-0.6,1.7,0.8-1.5,0.8-1.5c0.7-1.4,1.6-2.6,2.5-3.9c5.292-7.571-3.863-16.795-11.173-15.11
			c2.961-1.441,5.883-2.968,8.747-4.623c4.892-2.826,1.628-10.762-3.853-9.139c-1.184,0.351-2.363,0.714-3.54,1.082
			c5.526-4.126,10.468-9.017,14.187-14.737c2.279-3.506-1.523-8.914-5.646-7.345c-13.181,5.015-26.376,10.063-38.819,16.754
			c-6.775,3.643-13.664,8.006-19.522,13.35c-1.354,0.469-2.27,1.478-2.755,2.674c-3.593,3.709-6.671,7.852-8.892,12.52
			c-0.475,0.999-0.606,1.974-0.493,2.877c-1.571,0.777-3.146,1.546-4.713,2.329c-5.77,2.881-0.704,11.507,5.047,8.635
			c5.893-2.943,11.805-5.851,17.756-8.671c13.411-4.186,26.878-8.45,39.619-14.339c-0.585,0.446-1.142,0.982-1.648,1.643
			c-0.501,0.652-0.993,1.31-1.48,1.969c-0.073-0.056-0.147-0.113-0.22-0.169c-1.042,1.49-1.96,2.965-2.776,4.427
			c-2.752,4.112-5.162,8.364-7.028,12.807c-2.134,0.141-4.221,1.078-5.896,3.066c-3.286,3.93-5.895,8.036-8.021,12.311
			c-0.125-0.537-0.265-1.065-0.379-1.609c-1.8-8.2-14.5-10.1-18.3-2.4c-0.893,1.808-1.771,3.631-2.655,5.448
			c-3.001-2.833-7.278-4.036-11.145-1.048c-2.733,2.085-5.812,3.652-8.914,5.184c-3.426-3.81-9.416-4.334-14.386-0.483
			c-8.4,6.5-21.5,7-31.6,8.2c-5.4,0.6-10,4.1-10,10c0,5,4.6,10.601,10,10c11.306-1.317,22.514-2.594,32.76-6.686
			c3.092,3.52,9.181,5.005,12.84,2.186c2.815-2.147,5.996-3.747,9.193-5.323c0.376,0.971,0.976,2.391,0.907,1.423
			c0.4,4.5,2.8,8.4,7.3,9.6c4.1,1.102,9.3-0.6,11.3-4.6c0.529-1.072,1.048-2.154,1.574-3.229c1.346,2.692,2.788,5.339,4.326,7.93
			c4.1,6.899,16.7,6.5,18.3-2.4c0.475-2.7,0.944-5.418,1.494-8.112c0.646,1.575,1.301,3.148,1.952,4.725
			c1.933,5.804,4.165,11.52,6.153,17.213c0.033,0.125,0.069,0.25,0.102,0.375c0.009-0.003,0.019-0.005,0.027-0.008
			c0.024,0.069,0.049,0.139,0.073,0.208c4.1,12.1,22.5,7.3,19.3-5.3c-1.316-5.136-3.371-10.141-5.544-15.133
			c-0.505-1.404-0.995-2.808-1.46-4.206c18.092,17.493,46.034,31.28,61.104,41.238C354.1,211.1,364.1,193.8,353.4,186.7z"/>
	</g>
	<g opacity="0.1">
		<g>
			<path d="M638.6,169.6c12.9,0,12.9-20,0-20C625.7,149.6,625.7,169.6,638.6,169.6L638.6,169.6z"/>
		</g>
	</g>
	<g opacity="0.1">
		<g>
			<path d="M689.5,225.1c-3-0.199,1.9,0.4-0.9-0.1c-0.8-0.2-1.6-0.4-2.398-0.6c-2.5-0.801,1.8,0.898-0.5-0.2
				c-0.7-0.3-1.302-0.8-1.9-1.2c2.101,1.4-1.1-1.2-1.7-1.9c-1.699-1.898,1.2,1.7-0.199-0.3c-0.601-0.8-1.101-1.7-1.601-2.5
				c-3.399-5.7-5.399-12.1-8.5-17.899c-3.5-6.801-8.899-13-15.899-16.301c-10.101-4.8-19.801-2.699-30.399-2.898
				c-13.2-0.2-26.3-3.301-39.5-4c-6.601-0.301-13.3,0.199-19.8,1.5c-1.2,0.199-2.301,0.5-3.5,0.8c-0.9,0.2-4.7,0.7-0.9,0.2
				c-10.6,1.3-21.5,0.699-32.1,0c-69-4.301-137.2-17.9-206.4-21c-19.4-0.9-39-1-58.2,2.199c-12.6,2.101-27.5,6.601-34.2,18.5
				c-6.4,11.199,10.9,21.301,17.3,10.101c0.5-0.8,2.2-3.2-0.1-0.2c0.5-0.6,1.1-1.199,1.6-1.8c0.3-0.3,0.6-0.601,0.9-0.8
				c1.3-1.102-2.1,1.6-0.7,0.5c0.9-0.602,1.8-1.2,2.7-1.7c0.8-0.5,1.7-0.899,2.6-1.3c2.2-1-2.1,0.8,1-0.4
				c2.3-0.898,4.8-1.6,7.2-2.199c2.5-0.601,5.1-1.101,7.6-1.5c0.7-0.101,1.4-0.199,2.1-0.301c2.4-0.398-2.3,0.301,0.2,0
				c1.7-0.199,3.4-0.398,5.2-0.6c6.8-0.602,13.7-0.9,20.5-0.9c34.5-0.398,69.1,3.5,103.399,7.5c35,4,70,8.9,105,12.301
				c13.199,1.301,26.399,2.399,39.699,2.5c12.602,0.101,24.801-3.5,37.301-3.199c16.101,0.3,31.899,5.199,48,3.898
				c3.199-0.3,6.301-0.6,9.5-0.398c1.301,0.1,1.399,0.1,0.301,0c0.6,0.1,1.199,0.199,1.8,0.398c0.399,0.102,3.899,1.301,1.7,0.4
				c1,0.398,1.898,1,2.8,1.6c1.399,0.9-1-1,1,0.801c0.8,0.699,1.399,1.5,2.101,2.199c-1.7-1.898,0.399,0.7,0.699,1.102
				c4.5,6.8,6.7,14.898,10.9,22c5.8,9.8,14.898,15.3,26.1,16.1c5.4,0.4,10-4.9,10-10C699.5,229.3,694.9,225.5,689.5,225.1
				L689.5,225.1z"/>
		</g>
	</g>
	<path fill="none" stroke="#000000" stroke-miterlimit="10" d="M703.7-193.6c77.2,79.2-81-36.6-83.2-37.1
		c-42.1-8.5-73.3-27-114.7-40c-43.1-13.5-86.4,0.6-130.7,6.5c-27.7,3.7-45.6,22-71.5,30.2c-16.5,5.2-32.1,7.8-47.4,16.7
		c-24.4,14.2-22.3,8.6-40.1,19.5c-27.1,16.6-37-5.5-71.6,8.2c-15.2,6,2.4,38.6-42.9,24.6c-11.3-3.5-14,8.7-28.2-4.1"/>
	<path fill="none" stroke="#000000" stroke-miterlimit="10" d="M700-141.1c-31.8-11-43.4-23.5-59.3-52.2
		c-13-23.5-37.9-22.3-63.5-33.7c-37.3-16.6-82.8-41.4-122.9-45.5c-38.1-3.9-76.8,12.1-115.5,15.7c-38.8,3.6-62.2,21-97.6,34.9
		c-31.7,12.5-40.1,17.6-71.1,30.9c-19.6,8.4-26.3,40.4-125.4,40.4"/>
	<path fill="none" stroke="#000000" stroke-miterlimit="10" d="M87.7-160.4c16.5-1.3,31-8.6,49.5-8.8c20.3-0.2,38.8,2,58.6,4.9
		c46.6,6.7,71,30.1,114.8,33.7c33,2.7,58.6,24.8,91.2,29.4c28.8,4.1,67.602,1.2,96.5-1.5c70.4-6.6,140.602-51.1,205.3-10.3"/>
	<path fill="none" stroke="#000000" stroke-miterlimit="10" d="M676.8-124.9c-15.8-7-28-21.8-26.4-17.1c-5.398-16.3,15-11,26.4-11"
		/>
	<path fill="none" stroke="#000000" stroke-miterlimit="10" d="M384-106.8c-40.8-4.9-57.4-48.3-49.1-82.7c10.1-41.5,52-55.7,92-55
		c44.198,0.7,102,23.5,98.198,75.6c-3,40.4-41.898,61.6-77.5,65.7c-25.398,2.9-45.498-6.7-70.1-8.1"/>
	<path fill="none" stroke="#000000" stroke-miterlimit="10" d="M421.7-149.6c-19.5,0.9-46.2-9.3-36-35c7.5-19.1,39.1-21.6,57.1-17.1
		c14.102,3.5,41.5,30,28.9,47.8c-9.5,13.4-51.5,4.1-65.6,2.2"/>
	<path fill="none" stroke="#000000" stroke-miterlimit="10" d="M698.2-111.9c-35.8-13.1-66.5,6.2-100,15.6
		c-31,8.8-73.102,10.8-107.5,12.6c-82.5,4.5-145-19.2-216.8-37.5c-6.2-1.6-12.1-3-17.9-4.1"/>
	<path fill="none" stroke="#000000" stroke-miterlimit="10" d="M221.1-132.3c-19.7-36.7-87.6-18.3-119.3-19.3"/>
	<path fill="none" stroke="#000000" stroke-miterlimit="10" d="M620.1-219.9c-11.3-17.7,21.9-29,8.2-47.3"/>
	<path fill="none" stroke="#000000" stroke-miterlimit="10" d="M589.4-236.7c-16.602-2.4-10.602-36.3-21.9-48.2"/>
	<path fill="none" stroke="#000000" stroke-miterlimit="10" d="M477.1-287.9c2.802,8.9,5.4,17.9,12.5,24.2"/>
	<path fill="none" stroke="#000000" stroke-miterlimit="10" d="M450.9-267.4c-6.602-10.8-10.2-22.1-10.5-35.1"/>
	<path fill="none" stroke="#000000" stroke-miterlimit="10" d="M428.5-270.8c-13.101-3.7-36.7-10-33.3-28.1"/>
	<path fill="none" stroke="#000000" stroke-miterlimit="10" d="M373.2-265.4c-10.5-2.5-19.5,0.1-24.1-9.5"/>
	<path fill="none" stroke="#000000" stroke-miterlimit="10" d="M329.8-251.9c-9.3-0.7-30.4-15.4-35.7-21.3"/>
	<path fill="none" stroke="#000000" stroke-miterlimit="10" d="M234.2-244.6c7.5,3.6,24.4,16.3,32.6,16.5"/>
	<path fill="none" stroke="#000000" stroke-miterlimit="10" d="M170.2-227c5.4,4.7,13.7,7.1,21.1,10.5"/>
	<path fill="none" stroke="#000000" stroke-miterlimit="10" d="M170.2-202.5c-9.7,0.2-20.7,2.3-26.3-7"/>
	<path fill="none" stroke="#000000" stroke-miterlimit="10" d="M138.6-184.9c-9.6-0.9-18.1-5-24.6-12.3"/>
	<path fill="none" stroke="#000000" stroke-miterlimit="10" d="M486-292.8c13,3.6,8.2,16.4,12.3,29.8"/>
	<path fill="none" stroke="#000000" stroke-miterlimit="10" d="M476.7-263.9c-7.9-11.3-14.102-21.6-17.5-35.1"/>
	<path fill="none" stroke="#000000" stroke-miterlimit="10" d="M511.2-294.5c8.8,37.3,14.8,43.7,10.5,36.8"/>
	<path fill="none" stroke="#000000" stroke-miterlimit="10" d="M545.4-248.3c-1.602-9.9,2-25.9-3.102-34.1"/>
	<path fill="none" stroke="#000000" stroke-miterlimit="10" d="M433.4-91c-13.2,0.3-24.8,5.5-33.3,15.8"/>
	<path fill="none" stroke="#000000" stroke-miterlimit="10" d="M311.3-88.2c11.5-4.4,24.9-12.7,37.3-10.6"/>
	<path fill="none" stroke="#000000" stroke-miterlimit="10" d="M308.8-109.5c-16.7,0-35.9-1.1-50.9,5.3"/>
	<path fill="none" stroke="#000000" stroke-miterlimit="10" d="M254.4-130.5c-12.8,2.8-19.8,5.4-29.8,14"/>
	<path fill="none" stroke="#000000" stroke-miterlimit="10" d="M147.4-139.3c10-10.9,27.5-20.1,42.1-19.3"/>
	<g>
		<g>
			<path d="M423.6-179.1c-4.6,4.8-9.999,7.2-9.6,14.7c0.101,1.5,1.601,3,3.2,2.4c3.6-1.3,7.2-3.1,8.7-6.9c1.1-2.9-1-5.8-3.4-7.2
				c-8.601-5.2-16.601,4.1-19.101,11.3c-0.299,1,0.201,2.3,1.101,2.8c6.3,3.4,13.899,2.7,19-2.6c4-4.2,2.2-10-3.601-10.8
				c0.601,0.8,1.199,1.6,1.801,2.4l0,0c-0.801,0.8-1.7,1.7-2.5,2.5c6.8,0.3,9.7-5.6,3.5-10c-6.5-4.7-4.1,10.4-4.2,11.1
				c1-0.6,2-1.2,3.1-1.7c0.5,0.4,1,0.8,1.5,1.2c-1.1-3-5.398-1.9-4.8,1.3c0,0.1,0,0.1,0,0.2c0.1,0.8,1,1.6,1.7,1.7
				c3.6,0.6,9.8-6.2,11.2-9.2c0.8-1.7-0.2-3.7-2.2-3.8c-3.3-0.1-4.7,5.9-5.7,8.2c-0.898,2.1-1.8,4.4-0.7,6.5
				c2.102,4.1,11-1.2,13.9-1.4c3.2-0.3,3.3-5.1,0-5c-1.8,0-3.5-3.6-4.3-4.9c-1.5-2.4-3-5.1-5.3-6.8c-7.001-5.3-12.602,4.9-15.102,10
				c-0.6,1.2-0.399,2.8,0.9,3.4c9.1,4.8,17.6,3.8,25.8-2.2c1.3-1,1.7-2.7,0.5-3.9c-4.7-5.1-11.5-11.5-19.102-9.6
				c-5.1,1.3-7.898,6.8-8.898,11.5c-0.7,3.4-1.102,9.7,2.7,11.5c5.698,2.7,9.8-6.9,11.5-10.6c0.5-1.2,0.398-2.8-0.9-3.4
				c-3.6-1.8-7.698-4.5-11.899-4.4c-4.399,0.2-7.399,4.9-9.601,8.1c-0.6,0.9-0.399,2.3,0.4,3c4.399,3.9,11.198,10.1,17.698,8.2
				c4.302-1.3,5.4-6.3,4.802-10.1c-0.5-3.4-2.3-7.3-6.2-7.6c-5.8-0.4-8,9.7-8.898,13.5c-0.4,1.7,0.799,2.9,2.398,3.2
				c3.5,0.5,7.2,1.3,10.6,0.1c3.5-1.1,5.802-4.8,8-7.5c0.802-1,1.102-2.6,0-3.5c-9.398-7.8-20.8-9.3-27.199,2.7
				c-0.5,1-0.399,2.2,0.399,3c4.802,4.6,14.302,10.7,18.9,2.3c3-5.6,0.1-13.6-5.7-15.9c-6.8-2.8-20.7,1.6-19.3,10.6
				c1.399,8.8,12.8,14.1,20.698,14.3c1,0,2.2-0.8,2.4-1.8c0.7-3.5,2.4-6.7,3.102-10.2c0.6-2.8-3-4.3-4.602-1.9
				c-1.5,2.3-4.1,5.2-3.9,8.1c0.201,2.7,2.802,5.3,3.5,7.9c0.602,1.9,3.602,2.6,4.602,0.6c1.8-3.8,3.3-7.9,5.1-11.7
				c1.102-2.4-2-5.4-3.898-3c-3.102,3.7-4.7,7.9-7.2,12c-1.101,1.8,0.399,3.5,2.2,3.8c11.398,1.4,21.2-1.2,25.1-12.9
				c0.9-2.8-3.1-4.3-4.6-1.9c-7.2,11.9-26.7,18.9-39.2,11.3c-7.101-4.3-8.399-15.2-4.899-22.2c4.399-8.5,15.5-11.2,24.301-11.3
				c9.198,0,16.5,3.7,22.8,10.2c3.3,3.5,6.398,7.9,6.1,12.9c-0.6,8.9-13.7,12.4-20.6,13.7c-10.302,1.9-22.4,1.1-31.601-4.3
				c-9.801-5.8-11.5-19.2-4-27.8c6-6.9,16.199-9.8,25-11.2s18.601-1,25.899,4.6c9.3,7.2,12.7,18.1,3.9,27.1
				c-7.9,8.1-21,10.4-31.7,8.2c-9.301-1.9-24.4-9.2-18.5-20.9c4.8-9.6,17.199-14.7,27.3-15.5c14.1-1.1,25.1,7.3,30.1,20.2
				c2.8,7.3,5,16.7-4.3,20c-8,2.8-17.7,0.8-25.7-0.9c-3.2-0.7-4.2,3.6-1.3,4.8c13.5,5.6,32.7,2.4,41.7-10c9.2-12.7,0-27-11.9-33.8
				c-12.198-7-27.6-9.8-41.499-9.2c-11.899,0.6-25.399,5.2-28.301,18.2c-0.6,2.8,3,4.3,4.6,1.9c9.802-14.5,26.102-18.9,42.502-13.7
				c13.398,4.2,27,14.8,31.398,28.5c4.8,14.9-7.8,25.1-21.3,27.2c-15.4,2.4-34.399-2.1-46.601-12.1c-10.699-8.8-9.699-20.6-1-30.5
				c-1.399-0.8-2.799-1.6-4.199-2.4c-8,35.4,36.6,50.1,63.7,39.6c-0.602-1.5-1.302-3-1.9-4.6c-10.5,5.2-21.4,6.4-32.601,2.7
				c-10.5-3.4-19.601-10.8-27.799-17.9c-2.201-1.9-5.102,0.5-3.9,3c6.1,13.9,21.199,16.2,34.6,18c0.4-1.6,0.9-3.2,1.3-4.8
				c-7.6-1-15.2-2-22.398-4.8c-0.4,1.6-0.9,3.2-1.302,4.8c2.9,0.6,5.302,2.4,8.102,3.3c2.7,0.9,4.5-3.3,1.898-4.6
				c-0.5-0.2-0.898-0.5-1.398-0.7c-2.898-1.4-5.398,2.9-2.5,4.3c0.5,0.2,0.898,0.4,1.398,0.7c0.602-1.5,1.302-3,1.9-4.6
				c1,0.4-0.6-0.3-0.6-0.3c-1-0.5-2-0.9-3-1.3c-1.5-0.6-2.9-1.4-4.5-1.7c-3.2-0.7-4.301,3.7-1.301,4.8
				c7.201,2.7,14.801,3.8,22.399,4.8c3.2,0.4,4.5-4.4,1.3-4.8c-12.1-1.6-26.1-3.1-31.6-15.7c-1.3,1-2.602,2-3.898,3
				c9.398,8.2,19.398,15.8,31.299,19.7c11.801,3.9,24.101,1.7,35.101-3.7c2.5-1.2,0.7-5.6-1.9-4.6c-23.1,9-64.7-1.7-57.499-33.4
				c0.5-2.3-2.399-4.4-4.201-2.4c-10,11.4-11.799,25.4-0.198,36.5c11.198,10.7,28.6,15,43.6,15.1c13.8,0.1,28.5-4.8,33.8-18.7
				c4.7-12.4-3.5-25.6-12.198-33.9c-9.602-9.2-22.5-15.1-35.7-15.9c-14.5-0.8-27.1,6.6-35.1,18.4c1.5,0.6,3,1.3,4.6,1.9
				c2.4-10.8,13.8-13.9,23.5-14.5c11.8-0.8,24.2,1.7,35,6.5c10.2,4.5,22.1,15.5,15.2,27.3c-7,12-25.5,14.1-37.2,9.3
				c-0.4,1.6-0.9,3.2-1.3,4.8c12.6,2.7,37.398,6.5,38.898-12.3c0.602-8.3-4.1-18.3-9.3-24.7c-4.4-5.4-10.1-9.2-16.8-11
				c-12-3.3-26.101,0.5-35.7,8.2c-7.898,6.3-13.398,17.1-6.102,26c11.201,13.7,33.802,14.5,48.602,7.2c7.3-3.6,14.3-10.7,14.9-19.3
				c0.698-9.9-6.302-17.7-13.9-23.1c-6.5-4.6-16-4.7-23.5-4.1c-8.898,0.8-18,3.4-25.5,8.3c-10.3,6.6-15.2,20.5-9.398,31.7
				c4.698,9.1,15.898,12.8,25.398,14c10.6,1.3,22,0.1,31.6-4.7c7.802-3.9,13.4-11.4,10.602-20.3c-4.3-13.7-19.5-21.8-33.102-22.1
				c-10.898-0.3-22.898,4-28.6,13.7c-4.898,8.3-2.898,20.9,4.3,27.2c13.9,12.4,39.7,3,48.4-11.4c-1.5-0.6-3-1.3-4.602-1.9
				c-3.199,9.6-11.398,10.4-20.3,9.3c0.7,1.3,1.4,2.5,2.2,3.8c2.3-3.7,3.7-7.6,6.5-11c-1.3-1-2.6-2-3.9-3c-1.8,3.8-3.3,7.9-5.1,11.7
				c1.5,0.2,3,0.4,4.6,0.6c-0.6-2.2-1.398-4.3-2.698-6.2c-0.602-0.9-0.802-0.5-0.4-1.4c0.8-1.6,1.9-3.2,3-4.7
				c-1.5-0.6-3-1.3-4.602-1.9c-0.698,3.5-2.398,6.7-3.1,10.2c0.801-0.6,1.6-1.2,2.4-1.8c-5.6-0.1-11.7-3.1-14.801-7.8
				c-4.101-6.1,7.399-8.9,11.601-7.6c3.3,1,4.3,5.5,3.5,8.4c-1.601,5.7-9.3-1.2-11.2-3c0.1,1,0.301,2,0.4,3
				c4.8-9,12.398-7.5,19.398-1.7c0-1.2,0-2.4,0-3.5c-1.699,2.1-3.398,4.7-5.8,6.1c-2.3,1.4-6.899,0-9.3-0.3
				c0.8,1.1,1.602,2.1,2.398,3.2c0.602-2.2,1.802-9.1,4.302-9.9c-0.601,0.2-0.2,0,0.198,0.7c0.5,0.9,0.802,2,0.9,3
				c1,9.9-11.5-0.4-14.1-2.6c0.1,1,0.3,2,0.4,3c1.299-1.9,3.299-5.6,6-5.7c2.799-0.1,6.299,2.5,8.698,3.7
				c-0.3-1.1-0.6-2.3-0.899-3.4c-1.101,2.5-2.299,5.1-4.101,7.2c-1.198,1.4-1.601,0.7-0.601,1.6c-1.1-0.9-0.6-5-0.199-6.8
				c0.699-2.9,2.199-6.1,5.2-7.1c5.3-1.7,11.2,5,14.3,8.3c0.2-1.3,0.3-2.6,0.5-3.9c-6.8,4.9-13.2,6.2-20.801,2.2
				c0.301,1.1,0.601,2.3,0.9,3.4c1.1-2.3,3.6-8.6,6.699-8.9c1.8-0.2,3.602,3.4,4.4,4.6c2.199,3.4,4.699,8.8,9.398,8.6
				c0-1.7,0-3.3,0-5c-3.2,0.3-6.2,1.3-9.2,2.4c-0.5,0.2-1.1,0.4-1.6,0.5c0,0,1.1,2.3,1.6,0.6c0.4-1.3,3.802-6.7,1.802-6.8
				c-0.7-1.3-1.4-2.5-2.2-3.8c-0.602,1.2-2.102,2.3-3,3.3c-0.8,0.8-1.602,1.6-2.4,2.3c-1.1,1.1-1.999,0.9-0.2,1.3
				c0.602,0.6,1.2,1.2,1.7,1.7c0-0.1,0-0.1,0-0.2c-1.6,0.4-3.2,0.9-4.8,1.3c0.4,1,0.801,2,2,2.3c1.3,0.3,2.8-0.4,3.1-1.7
				c0.5-2.3-0.3-5.1-0.398-7.5c0-0.5-0.102-1.1,0-1.7c-1,0.3-1.9,0.7-2.898,1c0.6,1.4,1.1,1.6,1.698,0.5c-0.6,0.4-1.899,0.2-2.5,0.2
				c-1.3,0-2.601,1.2-2.5,2.5l0,0c0.101,1,0.7,2.3,1.802,2.4c3.299,0.5,1.898,2.3-0.102,3.8c-3.398,2.6-7.801,2.4-11.398,0.4
				c0.398,0.9,0.799,1.9,1.1,2.8c1.5-4.3,4.8-9.7,10.1-8.9c5.9,0.9-0.1,4.6-2.5,5.5c1.1,0.8,2.1,1.6,3.2,2.4
				c-0.3-5.6,4.7-7.6,8.1-11.2C429.4-177.9,425.8-181.5,423.6-179.1L423.6-179.1z"/>
		</g>
	</g>
	<g>
		<g>
			<path d="M414.899-199.8c-9.799-2.2-20.799-1.2-26.699,7.9c-5.1,7.8-3.801,17.8-0.1,25.8c4,8.5,11.299,14.5,19.698,18.3
				c8.5,3.8,18.7,6.1,25.7,10.1c0.8-6.1,1.6-12.2,2.4-18.3c-6.302,2.3-12,2.1-17.9-1.1c-5-2.7-9.2-8-9.8-13.8
				c-0.601-5.4-4.101-10-10-10c-5,0-10.601,4.6-10,10c1.5,12.9,7.8,23.3,18.698,30.5c9.9,6.5,23.302,7.9,34.302,3.7
				c7.8-2.9,10.398-13.7,2.398-18.3c-6.1-3.5-13-5.5-19.6-7.8c-2.9-1-5.7-2.1-8.399-3.4c-3.301-1.6-4.801-2.5-6.801-4.8
				c-0.5-0.5-0.9-1-1.3-1.5c0.5,0.7,0.5,0.6-0.2-0.4c-0.199-0.3-1.9-3.6-1.199-1.9c-0.5-1.2-0.801-2.4-1.101-3.6
				c-0.2-1.2-0.2-1.2,0,0c-0.101-0.9-0.101-1.7,0-2.6c-0.101,2.9,1-2.3-0.2,0.4c0.6-0.9,0.5-0.9-0.3,0.1
				c1.399-1.9-1.7,0.9,0.399-0.4c0.601-0.4,0.801-0.2,0.201-0.1c1.799-0.2,3.1,0.1,4.698,0.4C422.2-177.7,427.5-197,414.899-199.8
				L414.899-199.8z"/>
		</g>
	</g>
	<g>
		<g>
			<path d="M430.2-209.7c-18.7-2.1-32.9,9.8-41.5,25.3c-6.2,11.3,11.1,21.4,17.3,10.1c5.601-10.1,12.2-16.8,24.2-15.4
				c5.398,0.6,10-5,10-10C440.2-205.7,435.6-209.1,430.2-209.7L430.2-209.7z"/>
		</g>
	</g>
	<g opacity="0.1">
		<g>
			<path d="M706.2-145.4c-4.3-0.8-6.6-1.8-9.4-3.2c-4-2-7.8-4.6-11.4-7.3c-7.898-5.9-15.6-14.2-22.3-21.9
				c-6.7-7.7-12.8-16-18.398-24.5c-2.602-3.9-5-8-7.3-12.1c-1-1.8-2-3.7-2.9-5.6c-0.4-0.9-0.8-1.7-1.3-2.6c-0.3-0.6-0.5-1.1-0.8-1.7
				c0.398,1,0.398,1,0,0c-2.102-5-6.602-8.6-12.302-7c-4.8,1.3-9,7.2-7,12.3c8.302,20.4,21.5,38.7,35.7,55.3
				c13.3,15.5,31.1,33.6,52,37.7c5.3,1,10.8-1.4,12.3-7C714.5-138.1,711.5-144.4,706.2-145.4L706.2-145.4z"/>
		</g>
	</g>
	<g opacity="0.1">
		<g>
			<path d="M720-150.1c-22.2-7.4-43.2-15.7-64.4-25.1c-10.898-4.9-21.3-9.8-31.3-16.3c-11-7.1-21.898-14.2-33.898-19.7
				c-13.102-6.1-27-10.3-40.302-16c-10.398-4.4-20.5-9.3-30.8-13.9c-19.398-8.7-38.7-14.8-59.898-16.4
				c-29.4-2.2-59.602-0.6-88.9,1.8c-29.4,2.4-58.7,6.7-87.4,13.3c-27,6.1-53.4,14.5-79,25.2c-29.4,12.3-58.9,24.5-88.1,37.2
				c-12.5,5.4-24.8,11-37.1,16.9c-4.9,2.3-6.2,9.3-3.6,13.7c2.9,5,8.8,5.9,13.7,3.6c28.7-13.7,58-25.8,87.4-38.1
				c26.8-11.2,53.2-22.8,81-31.1c56.3-16.8,115.1-23,173.7-23.1c12.302,0,25.602-0.2,37.4,1.5c9.6,1.4,19,4.1,28.1,7.5
				c20.5,7.6,41.5,18.8,62.7,27.1c13.3,5.2,26,9.9,38.3,17.2c10.302,6.1,19.9,13.2,30.5,18.8c10.302,5.5,21.502,9.9,32.302,14.6
				c10.2,4.4,20.398,8.6,30.898,12.4c7.802,2.9,15.7,5.5,23.5,8.2C727-126.8,732.2-146.1,720-150.1L720-150.1z"/>
		</g>
	</g>
	<g opacity="0.1">
		<g>
			<path d="M706.2-177c-18.5-5.2-34-17.1-49.1-28.6c-16.4-12.5-32.9-24.6-52.7-31c-12.302-4-17.5,15.3-5.302,19.3
				c18.4,6,33.9,18.3,49.102,29.9c16.2,12.4,32.8,24.1,52.7,29.7C713.3-154.2,718.6-173.5,706.2-177L706.2-177z"/>
		</g>
	</g>
	<g opacity="0.1">
		<g>
			<path d="M723.8-162.8c-32.5-45.2-86.898-66-137.6-83.5c-5.2-1.8-10.9,2-12.3,7c-1.5,5.5,1.8,10.5,7,12.3
				c45.1,15.6,96.6,33.9,125.6,74.4c3.2,4.4,8.6,6.5,13.7,3.6C724.6-151.6,727-158.3,723.8-162.8L723.8-162.8z"/>
		</g>
	</g>
	<g opacity="0.1">
		<g>
			<path d="M712.3-121.2c-14.1-1.4-28.3-2.4-42.5-1.9c-14.6,0.6-29.2,3.5-43.8,5c-13.8,1.4-28.4,2.4-41.7,6.6
				c-5.7,1.8-11.398,3.3-17.3,4.5c-2.5,0.5-4.9,0.9-7.4,1.3c-0.6,0.1-1.198,0.2-1.8,0.3c3.102-0.4,0.8-0.1,0.2,0
				c-1.5,0.2-2.9,0.3-4.4,0.5c-5.898,0.6-11.898,1-17.8,1.4c-19.398,1.3-38.7,2.9-58,5.1c-14.6,1.6-29.2,4-43.898,4.7
				c-13.602,0.6-27.4-0.3-40.801-2.4c-27.899-4.3-54.801-13.2-81.201-22.8c-27-9.8-53.6-20.6-80.9-29.4c-14-4.5-28.2-8.7-42.7-10.8
				c-15.6-2.3-31.3-2.6-47-2.5c-6.7,0-13.3,0.2-20,0.2c-12.9,0-12.9,20,0,20c15.3,0,30.6-0.5,45.9,0.2c15,0.7,29.3,3.7,43.7,7.8
				c27.6,7.8,54.4,18.4,81.2,28.5c26.5,10,53.2,19.5,80.9,25.5c28.601,6.2,56.8,7,85.7,3.4c22.5-2.8,45-5.1,67.6-6.7
				c12.8-0.9,25.5-1.6,38.2-3.4c14.9-2.2,29.1-7.5,44-9.7c14.3-2.2,28.8-3,43.2-5s28.4-2.5,43-1.7c6,0.4,11.9,0.9,17.8,1.5
				c5.4,0.5,10-5,10-10C722.3-117.1,717.8-120.7,712.3-121.2L712.3-121.2z"/>
		</g>
	</g>
	<g opacity="0.1">
		<g>
			<path d="M233.2-154.9c-9.7-4.2-20.6-9.6-26.9-18.6c-5.9-8.4-3.4-18.2,4.5-25.7c7.7-7.3,19.4-10.1,29.3-13.3
				c12.1-3.9,23.7-8.3,33.8-16.2c4.3-3.4,3.5-10.6,0-14.1c-4.2-4.2-9.9-3.4-14.1,0c-9.6,7.6-22.8,10.3-34.2,14.1
				c-13.6,4.5-26.6,10.8-35.1,22.7c-8.8,12.5-9.9,28.4-2.1,41.6c7.6,12.7,21.6,21,34.8,26.8c5,2.2,10.7,1.5,13.7-3.6
				C239.3-145.5,238.2-152.8,233.2-154.9L233.2-154.9z"/>
		</g>
	</g>
	<g opacity="0.1">
		<g>
			<path d="M329.8-254.6c-20.4,2.4-40,9.5-57.9,19.6c-18.1,10.2-34.8,24.5-43,43.9c-7.8,18.4-5.7,38.2,9.7,51.8
				c13.9,12.3,32.7,17.9,50,23.6c12.3,4.1,17.5-15.2,5.3-19.3c-13.5-4.5-29.2-9.2-39.5-17.2c-5.4-4.2-8.1-7.7-9.5-12.6
				c-0.9-3.1-0.8-5.2-0.4-9.3c0.3-2.6,1.9-7.4,3.2-10.5c6.4-14.9,20.6-25.4,34.3-33.3c7.8-4.5,16.1-8.2,24.6-11.1
				c7.3-2.5,16.6-4.9,23.2-5.7c5.4-0.6,10-4.1,10-10C339.8-249.5,335.3-255.2,329.8-254.6L329.8-254.6z"/>
		</g>
	</g>
	<g opacity="0.1">
		<g>
			<path d="M307.1-130.6c-15.4-12.6-29-27.6-38.9-44.8c-9.5-16.4-15-36.3-5.1-53.6c6.4-11.2-10.4-20.9-17.3-10.1
				c-8.2,12.9-13.5,27.1-12.8,42.6c0.6,15.1,6.1,29.7,10.1,44.1c3.5,12.5,21.9,7.2,19.3-5.3c-3.7-17.4-13.4-33.6-13.7-51.7
				c-0.2-10.4-13.1-13.1-18.6-5c-8.5,12.3-11.2,26.5-13.3,41c6.1-0.8,12.2-1.6,18.3-2.4c-4.6-9.3-7.7-19-9.5-29.2
				c-0.8-4.3-5.5-7.3-9.6-7.3c-4.8,0-8,3.1-9.6,7.3c-3.5,8.8-7,17.5-10.5,26.3c6.5,0.9,13.1,1.8,19.6,2.7c-0.2-3.6-1.1-6.8-2.4-10.1
				c-0.8-2-2.8-6.2-2.8-7.4c-0.6-8.7-10.4-13.2-17.1-7.1c-3.8,3.5-12.5,7.6-17.5,12.3c5.7,2.4,11.4,4.7,17.1,7.1
				c-0.4-2.9-1.5-5.9-1.8-8.8c-0.6-8.6-10.4-13.3-17.1-7.1c-7.9,7.5-20.4,8.3-30.7,9.7c-5.4,0.8-8.3,7.6-7,12.3
				c1.6,5.8,6.9,7.8,12.3,7c14.3-2,28.6-4.6,39.5-14.9c-5.7-2.4-11.4-4.7-17.1-7.1c0.2,2.7,1.6,7.4,1.8,8.8
				c1.1,8.4,10.1,13.5,17.1,7.1c3.8-3.5,12.5-7.6,17.5-12.3c-5.7-2.4-11.4-4.7-17.1-7.1c0.2,3.6,1.1,6.8,2.4,10.1
				c0.8,2,2.8,6.2,2.8,7.4c0.8,11.7,15.5,13,19.6,2.7c3.5-8.8,7-17.5,10.5-26.3c-6.4,0-12.9,0-19.3,0c2.1,11.9,6.2,23.1,11.5,34
				c3.6,7.3,17.1,6.2,18.3-2.4c1.8-12.8,3.8-25.3,11.3-36.2c-6.2-1.7-12.4-3.4-18.6-5c0.3,20.2,10.3,37.7,14.4,57
				c6.4-1.8,12.9-3.5,19.3-5.3c-3.3-11.8-7.9-24.1-9.2-36.2c-1.3-13,3-24.2,9.9-35.1c-5.8-3.4-11.5-6.7-17.3-10.1
				c-25.3,44.3,13.8,95.3,47.2,122.6c4.2,3.4,10,4.1,14.1,0C310.6-120,311.3-127.1,307.1-130.6L307.1-130.6z"/>
		</g>
	</g>
	<g opacity="0.1">
		<g>
			<path d="M656.7-164.7c-0.1,14.3-4.7,31.1-17.9,38.7c-11.1,6.5-1.1,23.8,10.1,17.3c19.302-11.3,27.5-34.6,27.802-56
				C676.8-177.6,656.8-177.6,656.7-164.7L656.7-164.7z"/>
		</g>
	</g>
	<g opacity="0.1">
		<g>
			<path d="M628.6-177.9c0.102,19.7,3.9,44.1-11.1,59.6c-9,9.3,5.2,23.4,14.1,14.1c19.5-20.2,17-47.9,17-73.7
				C648.6-190.8,628.6-190.8,628.6-177.9L628.6-177.9z"/>
		</g>
	</g>
	<g opacity="0.1">
		<g>
			<path d="M634.2-176.7c3.6,11.1,5.6,21.2,5.1,32.8c-0.398,9-3.3,18-8.5,26c-4.8,7.4-12.3,13.7-20.6,18.5
				c-10.9,6.3-23.3,9.6-35.7,11.9c-5.4,1-8.3,7.4-7,12.3c1.5,5.6,6.9,8,12.3,7c26.602-4.8,52.9-16.4,68.3-39.5
				c14.602-21.9,13.3-50.2,5.4-74.2C649.5-194.2,630.2-189,634.2-176.7L634.2-176.7z"/>
		</g>
	</g>
	<g opacity="0.1">
		<g>
			<path d="M686.5-126.1c-14-0.9-27.8-3.5-41.8-4.4c-14.5-1-28.8,1.2-42.2,6.8c-13.4,5.7-27,10.8-40.5,16.2
				c-7.6,3.1-15,6.3-23.1,7.8c-0.7,0.1-5.302,0.8-2.602,0.5c-1.6,0.2-3.2,0.4-4.8,0.5c-3.7,0.3-7.5,0.5-11.3,0.5
				c-8.2,0.1-16.4-0.3-24.5-0.9c-4.3-0.3-8.601-0.8-12.9-1.2c-2.199-0.2-4.398-0.5-6.699-0.8c-2.399-0.3-5-0.6-6.399-0.8
				c-40.3-5.5-80.1-14.4-119.9-23c-17.3-3.7-34.7-7.5-52.1-10.6c-12.7-2.3-25.8-4.7-38.7-4.9c-0.3,0-0.7,0-1,0
				c-12.9-0.1-12.9,19.9,0,20c5.2,0,10.5,0.5,15.7,1.2c0.5,0.1,3,0.4,0.3,0c0.8,0.1,1.5,0.2,2.3,0.3c1.6,0.2,3.2,0.5,4.8,0.7
				c3.8,0.6,7.6,1.3,11.3,1.9c17.5,3.2,34.8,6.9,52.1,10.6c39.8,8.5,79.6,17.4,119.9,23c31.698,4.4,66.3,9.1,96.698-3.1
				C575.7-91.7,590.4-97.5,605-103.4c12.2-4.9,23.3-7.8,36.5-7.4c13.9,0.4,27.5,3.2,41.3,4.3c1.2,0.1,2.4,0.2,3.602,0.2
				C699.4-105.3,699.3-125.3,686.5-126.1L686.5-126.1z"/>
		</g>
	</g>
</g>
</svg>
