<?xml version="1.0" encoding="utf-8"?>
<!-- Generator: Adobe Illustrator 16.0.0, SVG Export Plug-In . SVG Version: 6.00 Build 0)  -->
<!DOCTYPE svg PUBLIC "-//W3C//DTD SVG 1.1//EN" "http://www.w3.org/Graphics/SVG/1.1/DTD/svg11.dtd">
<svg version="1.1" xmlns="http://www.w3.org/2000/svg" xmlns:xlink="http://www.w3.org/1999/xlink" x="0px" y="0px" width="750.9px"
	 height="317.5px" viewBox="0 0 750.9 317.5" enable-background="new 0 0 750.9 317.5" xml:space="preserve">
<g id="eyelid_1_">
	<path fill="#FFFFFF" d="M722.312,171.394c-0.883-2.93-2.31-5.611-4.118-7.725c1.11-1.866,1.213-4.292-0.708-5.955
		c-7.922-6.857-16.396-12.959-25.258-18.49c0.647-1.371,0.781-2.993,0.04-4.498c-5.886-11.94-16.418-21.386-26.834-29.345
		c-4.357-3.329-8.872-6.475-13.531-9.383c2.228-1.58,3.207-4.709,0.583-7.284c-4.939-4.846-10.428-9.018-16.249-12.693
		c-5.353-4.032-10.789-7.949-16.339-11.699c-1.449-1.555-2.915-3.096-4.412-4.608c-1.387-1.401-3.094-1.679-4.62-1.263
		c-3.029-1.895-6.082-3.754-9.19-5.527c-15.102-8.615-32.223-16.316-49.846-17.56c-7.159-2.506-14.728-4.651-22.415-6.054
		c-1.756-0.552-3.518-1.083-5.296-1.565c-9.211-2.495-19.8-4.205-28.691,0.187c-0.38,0.188-0.699,0.413-0.984,0.658
		c-6.742-2.166-13.659-3.917-20.774-5.183c-12.675-2.255-25.363-3.13-38.061-3.185c-16.775-2.341-33.871-3.586-50.747-1.794
		c-2.213,0.235-4.46,0.538-6.713,0.908c-8.955-0.036-17.92,0.076-26.923,0.212c-21.956,0.33-44.273-0.138-65.603,5.881
		c-1.868,0.527-3.066,2.209-3.446,4.027c-4.07,0.706-8.072,1.646-11.938,2.813c-15.717-2.505-31.837-0.962-47.098,3.423
		c-4.343,1.248-8.445,2.798-12.337,4.648c-11.027,1.017-21.908,2.715-32.42,6.326c-1.616-1.381-4.078-1.905-5.954-0.733
		c-5.377,3.357-10.363,7.402-14.923,11.959c-3.799,0.218-7.424,0.733-10.621,1.456c-5.25,1.187-11.057,3.052-16.856,5.554
		c-20.313-0.018-36.755,19.395-42.844,38.38c-0.72,0.304-1.419,0.663-2.086,1.094c-7.065,4.561-5.103,12.75-1.19,19.109
		c-1.021,0.845-1.771,2.127-1.956,3.765c-0.163,1.446-0.278,2.893-0.373,4.338c-1.723-0.651-3.746-0.435-5.163,1.126
		c-1.928,2.124-3.335,4.52-4.419,7.078c-2.503-1.024-5.842-0.096-6.867,3.129c-2.203,6.934-2.768,14.543-1.938,22.169
		c-5.867,4.859-10.895,10.974-14.639,17.23c-5.056,2.543-10.294,4.747-15.37,6.766c-2.872,1.058-5.728,2.165-8.562,3.343
		c-5.824,2.42-3.408,12.006,2.658,9.643c2.652-1.033,5.388-2.093,8.164-3.196c6.993-2.59,14.092-4.843,21.268-6.839
		c1.514,1.898,4.584,2.783,6.763,1.531c2.36-1.355,4.467-3.037,6.404-4.913c0.124-0.029,0.247-0.059,0.37-0.088
		c0.255,0.5,0.517,0.996,0.784,1.489c-0.01,0.417,0.027,0.833,0.11,1.243c-0.582,0.468-1.16,0.938-1.727,1.416
		c-4.958,4.174,2.146,11.111,7.071,7.07c0.207-0.17,0.418-0.331,0.626-0.498c7.811,9.851,18.41,16.871,30.767,18.107
		c1.452,3.999,4.366,7.277,7.873,10.002c7.519,20.064,36.058,29.454,55.198,31.854c0.722,0.091,1.4-0.042,2.013-0.326
		c4.26,3.992,8.226,8.261,11.669,12.85c3.225,4.297,10.777,1.985,9.139-3.853c-1.065-3.796-2.972-7.198-5.332-10.296
		c0.956-0.074,1.903-0.203,2.845-0.374c1.984,0.635,3.976,1.247,5.99,1.804c7.997,2.21,18.137,4.539,26.821,2.577
		c10.21,2.528,20.742,3.96,31.214,4.928c13.766,3.896,28.146,6.508,42.079,8.782c34.993,5.715,70.895,8.214,106.442,8.78
		c4.737,0.59,9.505,0.979,14.238,1.078c3.939,0.774,7.879,1.545,11.823,2.294c1.838,0.349,3.677,0.716,5.517,1.086
		c0.367,0.209,0.762,0.388,1.213,0.491c2.643,0.609,5.322,1.037,8.021,1.302c7.372,1.332,14.793,2.29,22.308,1.877
		c2.446-0.135,4.271-1.98,4.82-4.066c2.541-0.612,5.05-1.319,7.509-2.112c0.583-0.188,1.097-0.477,1.55-0.824
		c5.207-0.622,10.371-1.566,15.45-3.176c0.076-0.024,0.143-0.063,0.218-0.091c11.787-1.194,23.494-2.965,34.98-5.58
		c3.697-0.842,7.363-1.79,11.007-2.816c0.614,1.603,2.086,2.795,4.466,2.666c10.208-0.554,20.418-1.357,30.573-2.581
		c2.479-0.209,4.956-0.437,7.431-0.692c1.078,0.905,2.561,1.399,4.325,1.095c1.503-0.26,3.002-0.54,4.499-0.837
		c16.555,4.146,33.404,2.345,48.026-5.862c8.106-0.418,16.025-2.688,21.669-6.805c1.212-0.884,1.935-2.101,2.199-3.364
		c1.806,0.224,3.655-0.461,4.595-2.43c0.165-0.347,0.317-0.698,0.476-1.047c1.016,0.548,2.232,0.73,3.536,0.345
		c3.249-0.962,6.88-2.229,10.307-3.929c1.613,1.271,4.185,1.34,6.021,0.28c12.482-0.057,24.611-11.52,29.687-23.297
		c3.685-8.549,3.397-17.342,0.348-25.88c1.251-3.114,1.929-6.54,2.355-9.476C723.973,185.046,724.29,177.961,722.312,171.394z
		 M597.95,73.25c0.122,0.012,0.235,0.003,0.354,0.005c0.427,0.321,0.849,0.648,1.271,0.976c-0.751-0.35-1.501-0.7-2.253-1.045
		C597.531,73.206,597.74,73.23,597.95,73.25z M583.776,105.344c1.64,0.772,3.276,1.55,4.911,2.331
		c1.043,0.899,2.133,1.753,3.247,2.583c-0.295-0.096-0.589-0.197-0.883-0.297c-3.826-1.969-7.654-3.937-11.48-5.906
		C580.978,104.473,582.381,104.899,583.776,105.344z M644.538,184.002c-0.337,0.635-0.552,1.381-0.588,2.248
		c-0.068,1.633-0.242,3.188-0.479,4.696c-3.21,4.016-6.931,7.603-11.05,10.654c-1.186-0.434-2.569-0.413-3.994,0.332
		c-26.117,13.655-54.559,22.146-83.513,27.25c-14.458,2.548-29.047,3.48-43.599,5.252c-11.489,1.399-22.934,3.133-34.429,4.464
		c0.151-2.063-0.908-4.046-3.607-4.47c-28.271-4.442-56.923-3.054-85.368-5.203c-3.25-1.104-6.486-2.247-9.705-3.425
		c-27.25-9.971-53.443-22.628-80.999-31.793c-21.324-7.092-43.194-11.872-65.312-15.358c-6.621-5.622-13.923-10.606-19.463-17.167
		c0.74-13.085,10.642-27.043,17.59-37.768c0.925-0.523,1.862-1.02,2.807-1.492c12.711-2.542,25.646-4.209,37.836-8.531
		c35.807-12.693,72.425-24.709,109.615-32.621c3.757-0.799,4.316-4.445,2.855-7.042c7.816-1.631,15.703-2.958,23.604-4.113
		c9.896-1.446,19.843-2.546,29.783-3.637c1.62-0.178,3.241-0.366,4.862-0.557c4.736,0.316,9.489,0.589,14.251,0.846
		c22.108,4.346,43.676,11.889,65.573,17.823c0.575,0.697,1.371,1.288,2.413,1.68c7.037,2.65,14.285,4.807,21.624,6.749
		c9.006,6.148,18.136,12.043,28.376,16.251c0.943,0.388,1.8,0.468,2.554,0.325c6.73,3.92,13.977,7.492,21.396,10.002
		c5.948,3.065,11.897,6.127,17.855,9.169c2.669,1.362,5.182,0.459,6.66-1.724c3.049,2.125,6.209,4.08,9.484,5.809
		c0.023,0.041,0.037,0.081,0.062,0.121c5.686,9.187,12.042,18.019,19.126,26.185C642.492,167.307,644.8,175.688,644.538,184.002z
		 M713.326,189.161c-0.204-0.727-0.42-1.45-0.649-2.169c0.193-0.522,0.297-1.102,0.273-1.742c-0.082-2.232-0.457-4.496-1.077-6.719
		c-0.025-3.025-0.544-6.076-1.345-8.952c1.713,1.944,2.761,5.842,2.972,7.612C713.966,181.113,713.874,185.189,713.326,189.161z"/>
</g>
<g id="Layer_1">
	<g id="eyelid">
		<path d="M260.621,61.429c-21.146,4.352-40.547,12.984-58.99,23.565c-0.716-0.462-1.607-0.744-2.681-0.744
			c-3.304,0-4.911,2.625-4.829,5.185c-7.604,4.626-15.059,9.535-22.422,14.563c-12.168,8.308-23.18,17.722-34.559,27.046
			c-11.081,9.08-23.625,17.495-38.19,19.206c-6.325,0.743-6.397,10.751,0,10c30.17-3.544,48.721-27.809,72.357-43.911
			c28.584-19.473,57.582-38.19,91.972-45.268C269.594,69.772,266.915,60.133,260.621,61.429z"/>
		<path fill="#FFFFFF" d="M729.269,134.727c-1.584-3.533-6.896-2.979-8.636,0c-1.216,2.08-2.312,4.193-3.321,6.33
			c-0.475-2.551-0.955-5.1-1.446-7.646c-0.267-3.055-0.562-6.108-0.914-9.161c-0.599-5.17-8.599-7.311-9.821-1.329
			c-0.505,2.467-0.937,4.937-1.316,7.409c-0.311,0.453-0.547,0.982-0.684,1.591c-0.352,1.564-0.667,3.132-0.96,4.701
			c-1.067-1.299-2.154-2.583-3.261-3.852c-1.21-4.646-2.991-9.114-5.641-13.044c-1.692-2.511-5.9-3.451-7.98-1.015
			c-6.304-5.905-12.946-11.45-19.754-16.669c-3.407-2.612-6.876-5.173-10.391-7.686c-0.096-0.091-0.192-0.18-0.289-0.27
			c4.58-0.991,5.91-8.354,0.426-9.659c-4.044-0.962-8.073-1.984-12.1-3.023c-0.633-0.48-1.377-0.796-2.17-0.918
			c-0.586-2.893-1.264-5.765-2.238-8.567c-1.707-4.9-7.829-4.594-9.644,0c-0.086,0.218-0.151,0.439-0.232,0.658
			c-0.584-2.914-1.234-5.813-2.124-8.658c-1.007-3.218-4.8-4.368-7.366-3.011c-0.087-2.34-0.269-4.672-0.634-6.989
			c-0.874-5.529-7.994-3.925-9.644,0c-0.614,1.461-1.149,2.946-1.636,4.445c-0.747-3.604-1.742-7.162-3.227-10.64
			c-1.512-3.545-6.951-2.975-8.635,0c-1.415,2.5-2.671,5.059-3.811,7.66c-0.396-3.844-1.035-7.669-2.051-11.466
			c-1.358-5.08-8.014-4.44-9.644,0c-1.176,3.204-2.077,6.456-2.799,9.74c-14.656-4.822-29.698-8.335-44.898-11.092
			c-0.629-1.632-2.13-3.004-4.48-3.319c-9.305-1.245-18.647-2.163-27.986-3.112c-12.479-2.873-25.27-3.906-38.014-4.888
			c-1.363-0.105-2.468,0.367-3.282,1.151c-11.886-1.611-23.754-3.341-35.688-4.585c-31.316-3.268-62.91-3.535-94.271-0.722
			c-30.194,2.708-60.96,7.744-89.798,17.263C224.813,49.01,211.399,55,198.637,62.077c0.41-3.857-3.371-8.057-7.21-5.145
			c-10.711,8.125-20.491,17.374-27.945,28.511c-10.963,8.553-21.334,17.915-31.164,27.859c-1.91,1.15-3.798,2.335-5.664,3.555
			c0.269-7.559,0.136-15.1-0.703-22.608c-0.591-5.288-8.338-7.187-9.821-1.329c-1.631,6.442-3.04,12.917-4.287,19.415
			c-0.194-4.031-0.478-8.06-0.892-12.086c-0.54-5.241-8.546-7.244-9.821-1.329c-2.129,9.873-3.7,19.807-4.928,29.779
			c-2.533-2.206-7.024-1.892-8.072,2.221c-1.628,6.388-3.539,12.689-5.551,18.961c-0.624-0.667-1.4-1.141-2.251-1.388
			c0.146-0.639,0.29-1.277,0.444-1.915c1.285-5.297-6.753-9.207-9.139-3.853c-1.901,4.267-3.562,8.607-5.058,12.996
			c-1.624,1.424-3.165,2.938-4.621,4.537c-0.002-1.01-0.004-2.014-0.004-3.01c0-4.299-4.096-5.699-7.199-4.227
			c-2.372-2.805-7.287-2.001-8.622,1.897c-2.859,8.348-4.902,17.571-5.819,26.945c-2.375,9.695-3.302,19.822-3.36,29.384
			c-0.021,3.603,2.999,5.226,5.755,4.751c0.144,0.525,0.27,1.059,0.424,1.578c1.148,3.861,6.294,4.895,8.724,1.802
			c2.508,1.747,6.812,0.438,7.919-2.802c2.303-6.735,4.181-13.61,5.945-20.523c1.852,2.622,6.528,2.877,8.396,0.057
			c0.129,0.031,0.26,0.043,0.39,0.065c0.386,2.495,0.887,4.97,1.627,7.401c0.796,2.615,2.983,3.745,5.152,3.525
			c0.263,0.828,0.54,1.654,0.848,2.475c0.919,2.445,3.202,3.688,5.353,3.544c0.384,3.821,0.919,7.642,1.647,11.456
			c1.133,5.934,9.321,3.896,9.821-1.329c0.926-9.681,1.589-19.388,2.183-29.103c0.099,0,0.196-0.004,0.294-0.008
			c0.285,5.711,0.765,11.414,1.522,17.109c0.806,6.059,9.404,6.604,9.953,0.422c0.768,4.648,1.809,9.286,3.226,13.907
			c1.333,4.35,8.827,5.185,9.643,0c1.14-7.247,1.967-14.521,2.626-21.81c0.23,0.938,0.47,1.875,0.731,2.81
			c1.296,4.644,8.496,4.915,9.643,0c0.338-1.448,0.642-2.9,0.932-4.354c0.355,0.123,0.71,0.248,1.066,0.369
			c-1.156,2.046-1.111,4.887,0.722,6.387c-0.868,1.924-0.668,4.439,0.923,5.805c4.795,4.111,10.026,6.98,15.519,9.121
			c-3.108,2.175-2.068,8.753,3.017,9.344c18.681,2.172,37.069,6.801,56,6c4.626-0.195,7.271-7.023,2.523-9.316
			c-4.605-2.226-9.406-3.826-14.303-5.102c2.52-2.428,2.503-7.342-1.892-8.403c-0.314-0.075-0.628-0.155-0.942-0.233
			c0.328-0.039,0.639-0.106,0.936-0.205c0.611,0.068,1.223,0.129,1.833,0.171c1.536,0.647,3.071,1.298,4.605,1.948
			c4.067,3.976,8.808,7.334,13.7,9.941c0.492,1.325,1.547,2.473,3.21,3.021c5.097,1.678,10.254,3.203,15.457,4.584
			c5.054,4.49,10.878,8.373,15.337,12.13c4.925,4.147,11.321-2.165,7.071-7.07c-0.045-0.052-0.088-0.104-0.133-0.157
			c0.178,0.03,0.355,0.065,0.534,0.096c2.392,1.757,4.782,3.466,7.19,5.041c11.645,7.615,25.667,14.447,39.811,10.482
			c0.583,0.898,1.476,1.605,2.733,1.895c31.125,7.123,62.776,11.576,94.503,15.139c0.258,1.624,1.366,3.134,3.497,3.861
			c8.321,2.845,16.945,4.57,25.678,5.621c0.597,1.946,2.22,3.576,4.651,3.559c9.045-0.07,18.019-1.004,27-2
			c2.583-0.286,4.139-2.043,4.633-4.003c6.254-1.019,12.529-1.935,18.821-2.733c-5.223,1.752-4.011,9.569,1.546,9.736
			c18.209,0.546,35.895-3.809,53.548-8.128c7.505-0.779,14.978-1.666,22.332-3c13.264-2.407,26.96-6.261,38.743-12.935
			c0.826,0.258,1.745,0.258,2.706-0.117c10.48-4.09,19.048-11.953,24.107-21.836c0.541,0.365,1.141,0.631,1.759,0.785
			c-0.338,7.762-0.712,15.508-1.195,23.229c-0.351,5.583,8.922,6.911,9.82,1.329c1.551-9.616,4.302-19.178,7.095-28.756
			c0.046,2.143,0.078,4.283,0.085,6.427c0.019,5.93,7.977,6.335,9.676,1.515c0.729,2.619,1.559,5.225,2.503,7.814
			c2.017,5.529,9.131,4.232,9.821-1.329c0.792-6.378,1.093-12.761,1.088-19.144c0.591,2.512,1.271,5.004,2.091,7.473
			c1.33,4.011,7.254,4.938,9.175,1.258c0.396,0.391,0.863,0.688,1.372,0.904c0.186,4.406,0.503,8.804,1.002,13.189
			c-0.198,7.105-0.14,14.215,0.272,21.318c0.322,5.576,8.177,6.881,9.82,1.329c2.342-7.903,4.93-15.817,7.539-23.761
			c2.866,0.912,6.539-0.601,6.641-4.568c0.021-0.813,0.049-1.626,0.07-2.438c2.578,0.967,5.974-0.113,6.75-3.232
			c1.258-5.043,2.116-10.159,2.685-15.313c0.073,2.996,0.228,5.991,0.495,8.984c0.57,6.384,9.598,6.494,10,0
			c0.632-10.185,0.542-20.356,0.137-30.524C736.624,182.896,739.58,157.744,729.269,134.727z M569.604,72.966
			c-1.427,0.745-2.522,2.192-2.653,4.284c-0.032,0.52-0.099,1.031-0.182,1.539c-0.62-0.532-1.262-1.037-1.918-1.52
			c-0.728-0.905-1.736-1.61-2.833-1.927c-2.679-1.68-5.504-3.158-8.261-4.752C559.027,71.448,564.313,72.225,569.604,72.966z
			 M427.161,49.689c-0.245,2.517,1.278,5.208,4.566,5.526c-8.763-0.19-17.522-0.008-26.244,0.557
			c-0.945-0.341-1.867-0.728-2.758-1.176c0.229-0.178,0.475-0.334,0.709-0.505c1.588-0.303,3.172-0.62,4.754-0.948
			C414.72,52.706,421.134,51.692,427.161,49.689z M305.636,39.8c31.249-4.587,62.996-5.602,94.508-3.825
			c6.929,0.391,13.846,0.956,20.754,1.632c-2.441,0.359-4.886,0.804-7.287,1.372c-0.713-0.454-1.596-0.729-2.659-0.729
			c-12.912,0.003-25.911,0.248-38.329,4.179c-3.589,1.136-4.307,4.838-2.809,7.362c-5.829,0.9-11.643,1.858-17.414,2.989
			c1.616-3.239-1.063-8.405-5.777-7.351c-13.726,3.067-27.313,8.227-41.147,11.585c-3.226,0.59-6.44,1.255-9.641,1.99
			c-5.407,0.897-10.864,1.394-16.395,1.254c-1.02-1.885-3.311-3.192-5.817-2.83c-2.588,0.374-5.244,0.99-7.853,1.853
			c-8.135,0.213-16.143,1.513-24.129,2.967c-0.031-0.145-0.073-0.286-0.115-0.427c0.85-2.881-0.777-6.11-3.763-6.536
			C259.665,47.591,282.757,43.159,305.636,39.8z M390.28,57.154c-0.62,0.072-1.241,0.139-1.86,0.215
			c-8.202,1.007-16.357,2.332-24.455,3.946c-1.08-0.046-2.159-0.086-3.239-0.12c9.735-1.791,19.564-3.198,29.349-4.776
			C390.122,56.668,390.187,56.914,390.28,57.154z M234.4,212.311c-1.347-0.709-2.722-1.36-4.128-1.945
			c0.924,0.15,1.848,0.299,2.775,0.479c0.191,0.074,0.383,0.153,0.574,0.228c0.473,0.182,0.932,0.273,1.373,0.298
			C234.764,211.663,234.564,211.979,234.4,212.311z M288.221,243.557c0.022,0.002,0.045,0.004,0.068,0.006
			c3.806,1.09,7.627,2.123,11.462,3.095c0.101,0.183,0.209,0.362,0.333,0.538C296.033,246.734,292.053,245.375,288.221,243.557z
			 M350.279,234.43c-0.605-0.092-1.178-0.082-1.714,0.004c-3.464-1.055-6.917-2.143-10.359-3.268
			c4.085,0.986,8.182,1.941,12.284,2.902c1.809,0.424,3.621,0.838,5.431,1.257C354.042,235.014,352.161,234.711,350.279,234.43z
			 M453.648,273.904c-3.715-0.174-7.424-0.43-11.115-0.807c0.645-2.082-0.092-4.645-2.115-5.977
			c8.864-0.171,17.72-0.876,26.459-2.352c3.531-0.598,7.371-1.386,11.111-2.558c0.144,2.627,2.089,5.322,4.962,5.036
			c5.357-0.533,10.691-1.415,16.036-2.111c-0.091,0.545-0.079,1.102,0.026,1.646C483.779,268.534,468.63,270.917,453.648,273.904z
			 M516.868,265.023c3.195-1.649,6.418-3.229,9.695-4.666c0.789,1.984,2.799,3.408,5.716,2.713
			c4.656-1.108,9.288-2.475,13.936-3.756c-0.222,1.401,0.111,2.889,0.855,4.043C537.002,263.645,526.926,264.193,516.868,265.023z
			 M612.943,218.24c-0.454-0.639-1.058-1.18-1.842-1.527c1.118-0.336,2.239-0.658,3.359-0.98
			C613.979,216.579,613.471,217.414,612.943,218.24z M619.483,203.984c-21.517,5.6-42.99,13.455-62.058,24.947
			c-0.035,0.021-0.061,0.049-0.096,0.069c-6.664,0.416-13.339,0.687-20.005,0.951c-13.165,0.524-26.299,1.011-39.371,2.747
			c-13.148,1.746-26.179,4.303-39.377,5.673c-53.465,5.55-105.027-18.642-155.299-32.944c-2.578-0.732-4.536,0.499-5.508,2.315
			c-5.24-2.149-10.443-4.392-15.628-6.648c-29.854-12.995-60.127-27.286-93.193-28.846c-2.783-0.131-4.356,1.657-4.734,3.757
			c-8.89-2.095-17.86-3.785-26.926-4.953c0.559-7.025,0.416-14.956,3.429-21.136c5.509-3.521,10.694-7.463,16.344-10.722
			c1.131,0.275,2.336,0.135,3.411-0.628c1.427-1.014,2.84-2.071,4.243-3.148c9.382-3.866,19.741-5.897,29.315-9.072
			c10.143-3.364,19.627-7.982,28.687-13.623c0.988-0.615,1.975-1.244,2.959-1.885c11.259-5.284,22.682-10.195,34.476-14.185
			c2.837-0.96,5.685-1.885,8.536-2.799c8.075-0.428,16.061-1.355,24.062-2.749c26.404-4.598,52.02-13.426,78.344-16.449
			c6.211-0.102,12.394-0.392,18.516-1.035c2.994,0.025,6,0.143,9.022,0.387c0.407,0.12,0.839,0.212,1.315,0.239
			c3.021,0.175,5.976,0.825,9,1c1.403,0.081,2.539-0.446,3.363-1.292c18.868-0.267,38.123,0.347,57.254,2.32
			c-2.688,2.479-1.532,8.531,3.383,8.973c16.882,1.517,33.162,5.988,49.43,10.527c-0.103,0.368-0.191,0.746-0.251,1.144
			c-0.139,0.917,0.019,1.863,0.363,2.747c-1.996,2.271-2.302,6.382,0.935,7.9c13.632,6.393,27.268,15.634,42.523,17.394
			c1.606,4.423,5.008,8.054,8.936,11.341c6.961,14.748,21.303,25.015,25.243,41.276
			C622.319,186.621,621.948,195.596,619.483,203.984z M631.267,190.393c0.037-3.496-0.188-7.062-0.715-10.694
			c-0.487-3.38-1.296-6.566-2.377-9.62c0.494,0.646,0.996,1.286,1.498,1.927c0.246,1.254,0.482,2.509,0.697,3.759
			c0.764,4.438,1.281,8.905,1.688,13.389C631.794,189.559,631.53,189.973,631.267,190.393z M632.517,216.289
			c0.38-0.797,0.759-1.594,1.142-2.389c0.045,0.726,0.097,1.449,0.146,2.175C633.374,216.146,632.945,216.217,632.517,216.289z
			 M651.077,105.139c-1.438-0.952-2.91-1.839-4.412-2.638c-0.189-0.745-0.367-1.491-0.531-2.24c1.042,0.716,2.077,1.438,3.111,2.162
			c0.826,0.823,1.582,1.702,2.275,2.626C651.373,105.081,651.225,105.108,651.077,105.139z M674.831,126.731
			c-2.568-2.795-5.199-5.53-7.905-8.184c-1.896-1.861-3.925-3.801-6.059-5.713c0.464-0.218,0.909-0.51,1.313-0.859
			c5.164,4.041,10.202,8.278,15.022,12.746C676.263,125.145,675.425,125.839,674.831,126.731z"/>
	</g>
	<g id="Layer_1_1_">
		<path fill="none" stroke="#000000" stroke-miterlimit="10" d="M-70.9,147.4c-23.5-24.1-41.7-54.3-76.8-61.4
			c-42.1-8.5-82.2-20.3-123.6-33.3c-43.1-13.5-90.8-9.9-135-4c-27.7,3.7-45.7,14.7-71.6,22.9c-16.5,5.2-35.2,5.1-50.5,14
			c-10.7,6.2-19.1,16.3-29.8,22.8c-23.9,14.7-45,32.4-71.7,42.9c-15.2,6-30.7,10.601-46.1,15.3c-11.3,3.4-31.9,4.801-40.4,10.602"/>
		<path fill="none" stroke="#000000" stroke-miterlimit="10" d="M-70.9,196.5c-31.8-11-43.4-23.5-59.3-52.2
			c-13-23.5-29.2-46.5-54.9-57.9c-37.3-16.6-91.4-17.2-131.5-21.3c-38.1-3.9-73.8-12.9-112.5-9.3c-38.8,3.6-67.9,24.6-103.2,38.5
			c-31.7,12.5-37.4,39-68.4,52.3c-19.6,8.4-47.4,59.3-135.1,27.1"/>
		<path fill="none" stroke="#000000" stroke-miterlimit="10" d="M-683.2,177.2c16.5-1.3,31-8.601,49.5-8.8
			c20.3-0.2,38.8,2,58.6,4.898c46.6,6.7,78.2,29.102,119.5,51.7c29.1,15.899,59,32.101,91.7,36.7c28.8,4.1,60.5,1.898,89.4-0.801
			c70.4-6.601,136.6-60.5,207.1-36.399"/>
		<path fill="none" stroke="#000000" stroke-miterlimit="10" d="M-83.2,222.8c-6.6-2.899-24-9.6-26.4-17.1c-5.4-16.3,15-11,26.4-11"
			/>
		<path fill="none" stroke="#000000" stroke-miterlimit="10" d="M-386.8,230.7c-40.8-4.9-57.4-48.3-49.1-82.7
			c10.1-41.5,52-55.7,92-55c44.2,0.7,102,23.5,98.2,75.6c-3,40.4-41.9,61.602-77.5,65.7c-25.4,2.9-45.5-6.7-70.1-8.1"/>
		<path fill="none" stroke="#000000" stroke-miterlimit="10" d="M-349.2,188c-19.5,0.9-46.2-9.3-36-35c7.5-19.1,39.1-21.6,57.1-17.1
			c14.1,3.5,41.5,30,28.9,47.8c-9.5,13.399-51.5,4.1-65.6,2.2"/>
		<path fill="none" stroke="#000000" stroke-miterlimit="10" d="M-72.6,236.4c-35.8-23.602-66.5,11.1-100,28.199
			c-31,15.801-73.1,19.399-107.5,22.801c-82.5,8-145-34.602-216.8-67.602c-6.2-2.8-12.1-5.5-17.9-7.5"/>
		<path fill="none" stroke="#000000" stroke-miterlimit="10" d="M-549.8,205.3c-19.7-36.7-87.6-18.3-119.3-19.3"/>
		<path fill="none" stroke="#000000" stroke-miterlimit="10" d="M-139.3,101.8c-11.3-17.7,6.7-39.6-7-57.9"/>
		<path fill="none" stroke="#000000" stroke-miterlimit="10" d="M-176.1,77.2c-16.6-2.4-37.9-26.7-49.1-38.6"/>
		<path fill="none" stroke="#000000" stroke-miterlimit="10" d="M-300.7,49.1c8.4,3.9,16.8,8.1,26.3,7"/>
		<path fill="none" stroke="#000000" stroke-miterlimit="10" d="M-325.3,57.9c-6.6-10.8-10.2-22.1-10.5-35.1"/>
		<path fill="none" stroke="#000000" stroke-miterlimit="10" d="M-353.3,54.4c-13.1-3.7-36.7-10-33.3-28.1"/>
		<path fill="none" stroke="#000000" stroke-miterlimit="10" d="M-413,56.1c-10.5-2.5-20-9.7-24.6-19.3"/>
		<path fill="none" stroke="#000000" stroke-miterlimit="10" d="M-446.3,66.7c-11-1.2-30.6-7.5-36.8-17.5"/>
		<path fill="none" stroke="#000000" stroke-miterlimit="10" d="M-541.1,77.2c7.5,3.6,14.6,6.9,22.8,7"/>
		<path fill="none" stroke="#000000" stroke-miterlimit="10" d="M-600.7,110.5c5.4,4.7,13.7,7.1,21.1,10.5"/>
		<path fill="none" stroke="#000000" stroke-miterlimit="10" d="M-600.7,135.1c-9.7,0.2-20.7,2.3-26.3-7"/>
		<path fill="none" stroke="#000000" stroke-miterlimit="10" d="M-632.3,152.6c-9.6-0.9-18.1-5-24.6-12.3"/>
		<path fill="none" stroke="#000000" stroke-miterlimit="10" d="M-297.2,28.1c13,3.6,20.5,14.7,24.6,28.1"/>
		<path fill="none" stroke="#000000" stroke-miterlimit="10" d="M-300.7,52.6c-7.9-11.3-14.1-21.6-17.5-35.1"/>
		<path fill="none" stroke="#000000" stroke-miterlimit="10" d="M-265.6,26.3c3.1,13.1,2.8,24.4,10.5,36.8"/>
		<path fill="none" stroke="#000000" stroke-miterlimit="10" d="M-227,64.9c-1.6-9.9-7.2-21.6-12.3-29.8"/>
		<path fill="none" stroke="#000000" stroke-miterlimit="10" d="M-320,275.4c-13.2,0.3-24.8,5.5-33.3,15.8"/>
		<path fill="none" stroke="#000000" stroke-miterlimit="10" d="M-460.4,250.9c12.4,0,27.8-2.9,38.6,3.5"/>
		<path fill="none" stroke="#000000" stroke-miterlimit="10" d="M-462.1,228.1c-16.7,0-35.9-1.1-50.9,5.301"/>
		<path fill="none" stroke="#000000" stroke-miterlimit="10" d="M-516.5,207c-12.8,2.8-19.8,5.4-29.8,14"/>
		<path fill="none" stroke="#000000" stroke-miterlimit="10" d="M-623.5,198.2c10-10.9,27.5-20.101,42.1-19.3"/>
		<g>
			<g>
				<path d="M-347.2,158.4c-4.6,4.8-10,7.2-9.6,14.7c0.1,1.5,1.6,3,3.2,2.4c3.6-1.3,7.2-3.1,8.7-6.9c1.1-2.898-1-5.8-3.4-7.199
					c-8.6-5.199-16.6,4.101-19.1,11.301c-0.3,1,0.2,2.3,1.1,2.8c6.3,3.399,13.9,2.7,19-2.601c4-4.199,2.2-10-3.6-10.801
					c0.6,0.801,1.2,1.602,1.8,2.4l0,0c-0.8,0.8-1.7,1.7-2.5,2.5c6.8,0.3,9.7-5.6,3.5-10c-6.5-4.7-4.1,10.4-4.2,11.1
					c1-0.6,2-1.199,3.1-1.699c0.5,0.399,1,0.801,1.5,1.199c-1.1-3-5.4-1.898-4.8,1.301c0,0.101,0,0.101,0,0.199
					c0.1,0.801,1,1.602,1.7,1.7c3.6,0.601,9.8-6.2,11.2-9.2c0.8-1.699-0.2-3.7-2.2-3.8c-3.3-0.1-4.7,5.9-5.7,8.2
					c-0.9,2.1-1.8,4.4-0.7,6.5c2.1,4.1,11-1.2,13.9-1.4c3.1-0.3,3.3-5.1,0-5c-1.8,0-3.5-3.6-4.3-4.898c-1.5-2.4-3-5.1-5.3-6.8
					c-7-5.3-12.6,4.9-15.1,10c-0.6,1.199-0.4,2.801,0.9,3.399c9.1,4.8,17.6,3.8,25.8-2.2c1.3-1,1.7-2.699,0.5-3.898
					c-4.7-5.1-11.5-11.5-19.1-9.6c-5.1,1.3-7.9,6.8-8.9,11.5c-0.7,3.399-1.1,9.699,2.7,11.5c5.7,2.699,9.8-6.899,11.5-10.601
					c0.5-1.2,0.4-2.8-0.9-3.399c-3.6-1.801-7.7-4.5-11.9-4.399c-4.4,0.2-7.4,4.899-9.6,8.1c-0.6,0.9-0.4,2.3,0.4,3
					c4.4,3.9,11.2,10.101,17.7,8.2c4.3-1.3,5.4-6.3,4.8-10.1c-0.5-3.4-2.3-7.3-6.2-7.602c-5.8-0.4-8,9.7-8.9,13.5
					c-0.4,1.7,0.8,2.9,2.4,3.2c3.5,0.5,7.2,1.3,10.6,0.101c3.5-1.101,5.8-4.801,8-7.5c0.8-1,1.1-2.601,0-3.5
					c-9.4-7.801-20.8-9.301-27.2,2.699c-0.5,1-0.4,2.2,0.4,3c4.8,4.602,14.3,10.7,18.9,2.301c3-5.601,0.1-13.601-5.7-15.899
					c-6.7-2.8-20.7,1.6-19.3,10.6c1.4,8.8,12.8,14.101,20.7,14.3c1,0,2.2-0.8,2.4-1.8c0.7-3.5,2.4-6.7,3.1-10.2
					c0.6-2.8-3-4.3-4.6-1.898c-1.5,2.3-4.1,5.199-3.9,8.1c0.2,2.7,2.8,5.301,3.5,7.9c0.6,1.898,3.6,2.6,4.6,0.6
					c1.8-3.8,3.3-7.898,5.1-11.699c1.1-2.399-2-5.399-3.9-3c-3.1,3.699-4.7,7.899-7.2,12c-1.1,1.801,0.4,3.5,2.2,3.801
					c11.4,1.398,21.2-1.2,25.1-12.9c0.9-2.8-3.1-4.3-4.6-1.9c-7.2,11.9-26.7,18.9-39.2,11.302c-7.1-4.302-8.4-15.2-4.9-22.2
					c4.4-8.5,15.5-11.2,24.3-11.3c9.2,0,16.5,3.7,22.8,10.2c3.3,3.5,6.4,7.9,6.1,12.9c-0.6,8.899-13.7,12.399-20.6,13.7
					c-10.3,1.898-22.4,1.1-31.6-4.301c-9.8-5.801-11.5-19.199-4-27.799c6-6.9,16.2-9.8,25-11.2c8.8-1.4,18.6-1,25.9,4.6
					c9.3,7.2,12.7,18.101,3.9,27.101c-7.9,8.101-21,10.399-31.7,8.199c-9.3-1.898-24.4-9.199-18.5-20.898
					c4.8-9.601,17.2-14.7,27.3-15.5c14.1-1.1,25.1,7.3,30.1,20.199c2.8,7.302,5,16.701-4.3,20c-8,2.802-17.7,0.802-25.7-0.898
					c-3.2-0.7-4.2,3.6-1.3,4.8c13.5,5.601,32.7,2.4,41.7-10c9.2-12.7,0-27-11.9-33.8c-12.2-7-27.6-9.8-41.5-9.2
					c-11.9,0.6-25.4,5.2-28.3,18.2c-0.6,2.8,3,4.3,4.6,1.9c9.8-14.5,26.1-18.9,42.5-13.7c13.4,4.2,27,14.8,31.4,28.5
					c4.8,14.899-7.8,25.1-21.3,27.198c-15.4,2.4-34.4-2.1-46.6-12.1c-10.7-8.8-9.7-20.6-1-30.5c-1.4-0.8-2.8-1.6-4.2-2.4
					c-8,35.4,36.6,50.1,63.7,39.6c-0.6-1.5-1.3-3-1.9-4.601c-10.5,5.199-21.4,6.399-32.6,2.699C-361.9,187.4-371,180-379.2,172.9
					c-2.2-1.9-5.1,0.5-3.9,3c6.1,13.898,21.2,16.199,34.6,18c0.4-1.602,0.9-3.2,1.3-4.801c-7.6-1-15.2-2-22.4-4.801
					c-0.4,1.602-0.9,3.2-1.3,4.801c2.9,0.601,5.3,2.399,8.1,3.301c2.7,0.898,4.5-3.301,1.9-4.602c-0.5-0.199-0.9-0.5-1.4-0.699
					c-2.9-1.399-5.4,2.899-2.5,4.301c0.5,0.199,0.9,0.398,1.4,0.699c0.6-1.5,1.3-3,1.9-4.601c1,0.399-0.6-0.3-0.6-0.3
					c-1-0.5-2-0.9-3-1.301c-1.5-0.601-2.9-1.399-4.5-1.699c-3.2-0.7-4.3,3.699-1.3,4.8c7.2,2.7,14.8,3.8,22.4,4.8
					c3.2,0.4,4.5-4.398,1.3-4.8c-12.1-1.601-26.1-3.101-31.6-15.7c-1.3,1-2.6,2-3.9,3c9.4,8.2,19.4,15.801,31.4,19.7
					c11.8,3.899,24.1,1.7,35.1-3.7c2.5-1.199,0.7-5.6-1.9-4.6c-23.1,9-64.7-1.7-57.5-33.4c0.5-2.3-2.4-4.4-4.2-2.4
					c-10,11.4-11.8,25.4-0.2,36.5c11.2,10.699,28.6,15,43.6,15.101c13.8,0.101,28.5-4.8,33.8-18.7c4.7-12.398-3.5-25.6-12.2-33.9
					c-9.6-9.2-22.5-15.1-35.7-15.9c-14.5-0.8-27.1,6.6-35.1,18.4c1.5,0.6,3,1.3,4.6,1.9c2.4-10.8,13.8-13.9,23.5-14.5
					c11.8-0.8,24.2,1.7,35,6.5c10.2,4.5,22.1,15.5,15.2,27.301c-7,12-25.5,14.101-37.2,9.301c-0.4,1.6-0.9,3.199-1.3,4.8
					c12.6,2.7,37.4,6.5,38.9-12.3c0.6-8.301-4.1-18.3-9.3-24.7c-4.4-5.4-10.1-9.2-16.8-11c-12-3.3-26.1,0.5-35.7,8.2
					c-7.9,6.3-13.4,17.1-6.1,26c11.2,13.699,33.8,14.5,48.6,7.199c7.3-3.601,14.3-10.699,14.9-19.301c0.7-9.9-6.3-17.7-13.9-23.1
					c-6.5-4.6-16-4.7-23.5-4.1c-8.9,0.8-18,3.4-25.5,8.3c-10.3,6.6-15.2,20.5-9.4,31.701c4.7,9.101,15.9,12.801,25.4,14
					c10.6,1.301,22,0.101,31.6-4.699c7.8-3.9,13.4-11.4,10.6-20.301c-4.3-13.701-19.5-21.801-33.1-22.101
					c-10.9-0.3-22.9,4-28.6,13.7c-4.9,8.3-2.9,20.898,4.3,27.199c13.9,12.399,39.7,3,48.4-11.399c-1.5-0.601-3-1.3-4.6-1.899
					c-3.2,9.601-11.4,10.399-20.3,9.301c0.7,1.3,1.4,2.5,2.2,3.8c2.3-3.7,3.7-7.601,6.5-11c-1.3-1-2.6-2-3.9-3
					c-1.8,3.8-3.3,7.899-5.1,11.7c1.5,0.199,3,0.398,4.6,0.6c-0.6-2.2-1.4-4.3-2.7-6.2c-0.6-0.899-0.8-0.5-0.4-1.399
					c0.8-1.601,1.9-3.199,3-4.699c-1.5-0.602-3-1.301-4.6-1.9c-0.7,3.5-2.4,6.7-3.1,10.2c0.8-0.601,1.6-1.2,2.4-1.8
					c-5.6-0.102-11.7-3.102-14.8-7.801c-4.1-6.101,7.4-8.899,11.6-7.601c3.3,1,4.3,5.5,3.5,8.4c-1.6,5.7-9.3-1.2-11.2-3
					c0.1,1,0.3,2,0.4,3c4.8-9,12.4-7.5,19.4-1.7c0-1.2,0-2.4,0-3.5c-1.7,2.1-3.4,4.7-5.8,6.1c-2.3,1.4-6.9,0-9.3-0.3
					c0.8,1.101,1.6,2.101,2.4,3.2c0.6-2.2,1.8-9.1,4.3-9.9c-0.6,0.2-0.2,0,0.2,0.7c0.5,0.9,0.8,2,0.9,3c1,9.9-11.5-0.399-14.1-2.6
					c0.1,1,0.3,2,0.4,3c1.3-1.9,3.3-5.601,6-5.7c2.8-0.1,6.3,2.5,8.7,3.7c-0.3-1.101-0.6-2.3-0.9-3.4c-1.1,2.5-2.3,5.101-4.1,7.2
					c-1.2,1.4-1.6,0.7-0.6,1.6c-1.1-0.898-0.6-5-0.2-6.8c0.7-2.899,2.2-6.1,5.2-7.1c5.3-1.7,11.2,5,14.3,8.3
					c0.2-1.3,0.3-2.6,0.5-3.9c-6.8,4.9-13.2,6.2-20.8,2.2c0.3,1.101,0.6,2.3,0.9,3.4c1.1-2.3,3.6-8.6,6.7-8.9
					c1.8-0.2,3.6,3.4,4.4,4.601c2.2,3.399,4.7,8.801,9.4,8.601c0-1.7,0-3.3,0-5c-3.2,0.3-6.2,1.3-9.2,2.399
					c-0.5,0.199-1.1,0.399-1.6,0.5c0,0,1.1,2.301,1.6,0.601c0.4-1.3,3.8-6.7,1.8-6.8c-0.7-1.301-1.4-2.5-2.2-3.8
					c-0.6,1.201-2.1,2.3-3,3.3c-0.8,0.8-1.6,1.6-2.4,2.3c-1.1,1.101-2,0.899-0.2,1.3c0.6,0.602,1.2,1.2,1.7,1.7
					c0-0.101,0-0.101,0-0.2c-1.6,0.4-3.2,0.9-4.8,1.301c0.4,1,0.8,2,2,2.301c1.3,0.3,2.8-0.4,3.1-1.7c0.5-2.3-0.3-5.101-0.4-7.5
					c0-0.5-0.1-1.101,0-1.7c-1,0.3-1.9,0.7-2.9,1c0.6,1.4,1.1,1.6,1.7,0.5c-0.6,0.4-1.9,0.2-2.5,0.2c-1.3,0-2.6,1.2-2.5,2.5l0,0
					c0.1,1,0.7,2.3,1.8,2.399c3.3,0.5,1.9,2.301-0.1,3.801c-3.4,2.6-7.8,2.398-11.4,0.398c0.4,0.9,0.8,1.9,1.1,2.801
					c1.5-4.301,4.8-9.699,10.1-8.899c5.9,0.899-0.1,4.6-2.5,5.5c1.1,0.8,2.1,1.6,3.2,2.399c-0.3-5.601,4.7-7.601,8.1-11.199
					C-341.5,159.6-345,156.1-347.2,158.4L-347.2,158.4z"/>
			</g>
		</g>
		<g>
			<g>
				<path d="M-355.9,137.7c-9.8-2.2-20.8-1.2-26.7,7.9c-5.1,7.8-3.8,17.8-0.1,25.8c4,8.5,11.3,14.5,19.7,18.3
					c8.5,3.8,18.7,6.1,25.7,10.1c0.8-6.1,1.6-12.2,2.4-18.3c-6.3,2.3-12,2.1-17.9-1.1c-5-2.7-9.2-8-9.8-13.801
					c-0.6-5.399-4.1-10-10-10c-5,0-10.6,4.6-10,10c1.5,12.899,7.8,23.301,18.7,30.5c9.9,6.5,23.3,7.899,34.3,3.699
					c7.8-2.898,10.4-13.699,2.4-18.3c-6.1-3.5-13-5.5-19.6-7.8c-2.9-1-5.7-2.102-8.4-3.4c-3.3-1.6-4.8-2.5-6.8-4.8
					c-0.5-0.5-0.9-1-1.3-1.5c0.5,0.7,0.5,0.601-0.2-0.399c-0.2-0.301-1.9-3.601-1.2-1.899c-0.5-1.2-0.8-2.4-1.1-3.6
					c-0.2-1.2-0.2-1.2,0,0c-0.1-0.9-0.1-1.7,0-2.6c-0.1,2.9,1-2.3-0.2,0.4c0.6-0.9,0.5-0.9-0.3,0.1c1.4-1.9-1.7,0.9,0.4-0.4
					c0.6-0.4,0.8-0.2,0.2-0.1c1.8-0.2,3.1,0.1,4.7,0.4C-348.7,159.9-343.4,140.6-355.9,137.7L-355.9,137.7z"/>
			</g>
		</g>
		<g>
			<g>
				<path d="M-340.7,127.8c-18.7-2.1-32.9,9.8-41.5,25.3c-6.2,11.3,11.1,21.4,17.3,10.1c5.6-10.1,12.2-16.8,24.2-15.4
					c5.4,0.6,10-5,10-10C-330.7,131.9-335.3,128.4-340.7,127.8L-340.7,127.8z"/>
			</g>
		</g>
		<g opacity="0.1">
			<g>
				<path d="M-64.7,192.1c-4.3-0.8-6.6-1.8-9.4-3.199c-4-2-7.8-4.601-11.4-7.301c-7.9-5.898-15.6-14.199-22.3-21.898
					c-6.7-7.7-12.8-16-18.4-24.5c-2.6-3.9-5-8-7.3-12.1c-1-1.8-2-3.7-2.9-5.6c-0.4-0.9-0.8-1.7-1.3-2.6c-0.3-0.6-0.5-1.1-0.8-1.7
					c0.4,1,0.4,1,0,0c-2.1-5-6.6-8.6-12.3-7c-4.8,1.3-9,7.2-7,12.3c8.3,20.4,21.5,38.7,35.7,55.3c13.3,15.5,31.1,33.602,52,37.7
					c5.3,1,10.8-1.399,12.3-7C-56.4,199.5-59.4,193.1-64.7,192.1L-64.7,192.1z"/>
			</g>
		</g>
		<g opacity="0.1">
			<g>
				<path d="M-61.7,177.3c-10.3-3.5-19.9-8.7-28-16c-7.5-6.9-13.2-14.8-18.9-23.1c-7.1-10.2-13.8-20.9-22.9-29.5
					c-9.3-8.6-20.2-14.3-31.8-19.1c-25.2-10.6-51.2-20-77.2-28.5c-26.9-8.9-54.6-14.7-83.1-15.6c-49.1-1.6-99.1-1.5-147.6,7.2
					c-44.3,8-88,26.1-115.3,63.4c-11.8,16.1-32.1,22.9-50.5,28c-22.2,6.1-44.8,10.4-65.8,20.2c-4.9,2.3-6.2,9.3-3.6,13.7
					c2.9,5,8.8,5.9,13.7,3.6c20.9-9.898,44.3-13.3,66.3-19.699c22.9-6.699,43.5-17.101,57.8-36.699c25.7-35,71.5-48.4,112.4-54.8
					c23.7-3.7,47.7-4.8,71.7-5.2c25.4-0.5,51.4-0.9,76.7,1.4c27.2,2.5,53.5,10.8,79.2,19.9c13.7,4.8,27.3,9.7,40.7,15.1
					c10.7,4.3,21.5,7.9,31.4,13.7c17.6,10.3,26.6,28.9,38.6,44.5c13.4,17.5,29.7,29.801,50.7,36.9
					C-54.8,200.7-49.6,181.4-61.7,177.3L-61.7,177.3z"/>
			</g>
		</g>
		<g opacity="0.1">
			<g>
				<path d="M-64.7,160.5c-18.5-5.2-34-17.1-49.1-28.6c-16.4-12.5-32.9-24.6-52.7-31c-12.3-4-17.5,15.3-5.3,19.3
					c18.4,6,33.9,18.3,49.1,29.9c16.2,12.4,32.8,24.1,52.7,29.7C-57.6,183.3-52.3,164-64.7,160.5L-64.7,160.5z"/>
			</g>
		</g>
		<g opacity="0.1">
			<g>
				<path d="M-53.5,158.1c-32.5-45.2-86.9-66-137.6-83.5c-5.2-1.8-10.9,2-12.3,7c-1.5,5.5,1.8,10.5,7,12.3
					c45.1,15.6,96.6,33.9,125.6,74.4c3.2,4.4,8.6,6.5,13.7,3.601C-52.7,169.2-50.3,162.5-53.5,158.1L-53.5,158.1z"/>
			</g>
		</g>
		<g opacity="0.1">
			<g>
				<path d="M-58.5,216.3c-12.4-1-24.9,2.8-36.6,6.3c-6,1.801-12,3.7-18.1,5.4c-6.5,1.8-13.1,2.8-19.7,4.4
					c-13.7,3.398-26.4,9.8-39.5,14.699c-8.7,3.199-17.8,5.5-26.7,8.199c-24.5,7.602-49.8,11.4-74.9,14.801
					c-25.3,3.399-51.1,8.801-76.7,5.801c-23.3-2.7-45.7-12.102-66.6-22.2C-463.1,231.3-505.2,201-554,185.1
					c-31.3-10.199-63.3-9.199-95.8-9.199c-12.9,0-12.9,20,0,20c15.3,0,30.6-0.5,45.9,0.199c14.3,0.7,28.1,3.2,41.8,7.4
					c23.5,7.1,45.5,18.7,67,30.5c43.5,24,87.4,53.2,137.5,61c26.3,4.1,52-0.7,78.1-4.1c17.3-2.301,34.6-4.5,51.7-7.602
					c10.2-1.898,20.2-4.398,30.2-7.398c6.9-2.102,13.7-4.301,20.6-6.2c13.7-3.8,26.4-10.3,39.7-15c6.9-2.4,13.8-3.8,21-5.2
					c6.9-1.4,13.7-3.6,20.4-5.7c12-3.7,24.7-8.5,37.4-7.5c5.4,0.4,10-4.899,10-10C-48.5,220.6-53.1,216.8-58.5,216.3L-58.5,216.3z"
					/>
			</g>
		</g>
		<g opacity="0.1">
			<g>
				<path d="M-544.8,168.6c-9.7-4.199-20.6-9.6-26.9-18.6c-5.9-8.4-3.4-18.2,4.5-25.7c7.7-7.3,19.4-10.1,29.3-13.3
					c12.1-3.9,23.7-8.3,33.8-16.2c4.3-3.4,3.5-10.6,0-14.1c-4.2-4.2-9.9-3.4-14.1,0c-9.6,7.6-22.8,10.3-34.2,14.1
					c-13.6,4.5-26.6,10.8-35.1,22.7c-8.8,12.5-9.9,28.4-2.1,41.6c7.6,12.7,21.6,21,34.8,26.8c5,2.199,10.7,1.5,13.7-3.602
					C-538.7,178-539.8,170.7-544.8,168.6L-544.8,168.6z"/>
			</g>
		</g>
		<g opacity="0.1">
			<g>
				<path d="M-455.1,67.2c-20.4,2.4-40,9.5-57.9,19.6c-18.1,10.2-34.8,24.5-43,43.9c-7.8,18.4-5.7,38.2,9.7,51.8
					c13.9,12.3,32.7,17.9,50,23.6c12.3,4.102,17.5-15.199,5.3-19.3c-13.5-4.5-29.2-9.2-39.5-17.2c-5.4-4.199-8.1-7.699-9.5-12.6
					c-0.9-3.1-0.8-5.2-0.4-9.3c0.3-2.6,1.9-7.4,3.2-10.5c6.4-14.9,20.6-25.4,34.3-33.3c7.8-4.5,16.1-8.2,24.6-11.1
					c7.3-2.5,16.6-4.9,23.2-5.7c5.4-0.6,10-4.1,10-10C-445.1,72.2-449.7,66.6-455.1,67.2L-455.1,67.2z"/>
			</g>
		</g>
		<g opacity="0.1">
			<g>
				<path d="M-463.8,207c-15.4-12.6-29-27.6-38.9-44.8c-9.5-16.4-15-36.3-5.1-53.6c6.4-11.2-10.4-20.9-17.3-10.1
					c-8.2,12.9-13.5,27.1-12.8,42.6c0.6,15.1,6.1,29.7,10.1,44.1c3.5,12.5,21.9,7.2,19.3-5.3c-3.7-17.4-13.4-33.602-13.7-51.7
					c-0.2-10.4-13.1-13.1-18.6-5c-8.5,12.3-11.2,26.5-13.3,41c6.1-0.8,12.2-1.601,18.3-2.4c-4.6-9.3-7.7-19-9.5-29.2
					c-0.8-4.3-5.5-7.3-9.6-7.3c-4.8,0-8,3.1-9.6,7.3c-3.5,8.8-7,17.5-10.5,26.3c6.5,0.9,13.1,1.8,19.6,2.7
					c-0.2-3.6-1.1-6.8-2.4-10.1c-0.8-2-2.8-6.2-2.8-7.4c-0.6-8.7-10.4-13.2-17.1-7.1c-3.8,3.5-12.5,7.6-17.5,12.3
					c5.7,2.4,11.4,4.7,17.1,7.1c-0.4-2.9-1.5-5.9-1.8-8.8c-0.6-8.6-10.4-13.3-17.1-7.1c-7.9,7.5-20.4,8.3-30.7,9.7
					c-5.4,0.8-8.3,7.6-7,12.3c1.6,5.8,6.9,7.8,12.3,7c14.3-2,28.6-4.6,39.5-14.9c-5.7-2.4-11.4-4.7-17.1-7.1
					c0.2,2.7,1.6,7.4,1.8,8.8c1.1,8.4,10.1,13.5,17.1,7.101c3.8-3.5,12.5-7.601,17.5-12.299c-5.7-2.4-11.4-4.7-17.1-7.1
					c0.2,3.6,1.1,6.8,2.4,10.1c0.8,2,2.8,6.2,2.8,7.4c0.8,11.7,15.5,13,19.6,2.7c3.5-8.8,7-17.5,10.5-26.3c-6.4,0-12.9,0-19.3,0
					c2.1,11.9,6.2,23.1,11.5,34c3.6,7.301,17.1,6.199,18.3-2.399c1.8-12.8,3.8-25.3,11.3-36.2c-6.2-1.7-12.4-3.4-18.6-5
					c0.3,20.2,10.3,37.7,14.4,57c6.4-1.8,12.9-3.5,19.3-5.3c-3.3-11.8-7.9-24.1-9.2-36.2c-1.3-13,3-24.2,9.9-35.1
					c-5.8-3.4-11.5-6.7-17.3-10.1c-25.3,44.3,13.8,95.299,47.2,122.6c4.2,3.398,10,4.1,14.1,0C-460.2,217.5-459.6,210.4-463.8,207
					L-463.8,207z"/>
			</g>
		</g>
		<g opacity="0.1">
			<g>
				<path d="M-114.2,177.2c-0.1,14.3-4.7,31.1-17.9,38.7c-11.1,6.5-1.1,23.8,10.1,17.3c19.3-11.3,27.5-34.601,27.8-56
					C-94.1,164.3-114.1,164.3-114.2,177.2L-114.2,177.2z"/>
			</g>
		</g>
		<g opacity="0.1">
			<g>
				<path d="M-142.3,159.6c0.1,19.7,3.9,44.102-11.1,59.602c-9,9.3,5.2,23.398,14.1,14.1c19.5-20.199,17-47.898,17-73.699
					C-122.3,146.8-142.3,146.8-142.3,159.6L-142.3,159.6z"/>
			</g>
		</g>
		<g opacity="0.1">
			<g>
				<path d="M-136.7,120.2c15.7,48-4.4,119.6-59.7,129.8c-5.4,1-8.3,7.4-7,12.3c1.5,5.601,6.9,8,12.3,7
					c66.1-12.2,92.5-96.899,73.7-154.4C-121.4,102.7-140.7,107.9-136.7,120.2L-136.7,120.2z"/>
			</g>
		</g>
		<g opacity="0.1">
			<g>
				<path d="M-81.4,225.1c-23.5-1.5-46.5-7.5-70-2.3c-11.5,2.5-22.4,8.2-33,13.101c-10.2,4.699-20.4,9-31.2,12
					c-49.6,13.5-102.8,7.199-153.5,7.101c-12.9,0-12.9,20,0,20c51.8,0.101,104.4,5.101,155.3-6.899
					c11.8-2.801,22.9-7.301,33.9-12.301c10.1-4.5,19.9-9.699,30.6-12.8c22-6.399,45.7,0.8,67.9,2.2
					C-68.5,245.9-68.6,225.9-81.4,225.1L-81.4,225.1z"/>
			</g>
		</g>
		<path fill="none" stroke="#000000" stroke-miterlimit="10" d="M-83.2,553.8c-23.5-24.1-27.1-41.1-62.2-48.2
			c-42.1-8.5-69.5-5.5-112.8-8.398c-49.8-3.3-84.2-10.9-128.5-4.9c-18.9,2.5-23.1,2.4-74.6,9.2c-17.1,2.2-34.9-11-50.2-2.1
			c-33.2,19.3-28.5-26.5-56.8-9.102C-592.2,505-603.2,478.4-630,489c-15.2,6-30.7,10.6-46.1,15.3c-11.3,3.4-31.9,4.8-40.4,10.602"/>
		<path fill="none" stroke="#000000" stroke-miterlimit="10" d="M-70.9,534c-31.8-11-43.4-23.5-59.3-52.2
			c-13-23.5-1.7,31.102-27.4,19.7c-37.3-16.6-91.1,1.9-131.2-2.2c-42.7-4.398-62.3-4.898-114.6,0
			c-39.5,3.7-26.7,10.602-102.2,10.602c-34.1,0-56.5-26-87.5-12.7c-19.6,8.398-55.1,46.2-142.8,14"/>
		<path fill="none" stroke="#000000" stroke-miterlimit="10" d="M-675.9,507.7c16.5-1.3,55-17.3,73.4-17.5
			c20.3-0.2,41.6,17.1,61.4,19.898c46.6,6.7,58.2-16.198,99.5,6.5c29.1,15.9,59,32.102,91.7,36.7c28.8,4.102,60.5,1.9,89.4-0.8
			c70.4-6.6,136.6-60.5,207.1-36.4"/>
		<path fill="none" stroke="#000000" stroke-miterlimit="10" d="M-83.2,560.3c-6.6-2.898-24-9.6-26.4-17.1c-5.4-16.3,15-11,26.4-11"
			/>
		<path fill="none" stroke="#000000" stroke-miterlimit="10" d="M-406.2,529.7c-40.4-0.4-36.9-3.3-33.1-13.7
			c4.6-12.6,37-11.5,76.1-12.3c43.1-0.9,149.4,3.398,111.8,13.6c-34.4,9.3-47.3,6.8-81.5,8.9C-357.2,527.7-382.1,529.4-406.2,529.7"
			/>
		<path fill="none" stroke="#000000" stroke-miterlimit="10" d="M-83.3,572c-35.8-23.6-41.3-54.2-84.9-60.8
			c-22.5-3.4-69.6,1.898-118.6,6.6c-82.5,8-211.3,25.3-283.1-7.7c-6.2-2.8,50.3,39.802,44.5,37.802"/>
		<path fill="none" stroke="#000000" stroke-miterlimit="10" d="M-549.8,542.8c-19.7-36.7-87.6-18.3-119.3-19.3"/>
		<path fill="none" stroke="#000000" stroke-miterlimit="10" d="M-168.3,499.3c-19.3-30.2-2.7-52.1-7-57.898"/>
		<path fill="none" stroke="#000000" stroke-miterlimit="10" d="M-182,493.5c-16.1-4.7-33.6,28.1-43.1,14.7"/>
		<path fill="none" stroke="#000000" stroke-miterlimit="10" d="M-301.3,507.8c7.8,5.102,15.5-49.6,25-49.3"/>
		<path fill="none" stroke="#000000" stroke-miterlimit="10" d="M-326.8,513c-5-11.7-6.9-23.3-5.4-36.2"/>
		<path fill="none" stroke="#000000" stroke-miterlimit="10" d="M-354.1,505.5c-12.4-5.5-34.9-15.2-29-32.6"/>
		<path fill="none" stroke="#000000" stroke-miterlimit="10" d="M-413.4,498.6c-10-4-18.4-12.5-21.5-22.6"/>
		<path fill="none" stroke="#000000" stroke-miterlimit="10" d="M-447.9,504.2c-10.7-2.8-29.2-11.8-33.9-22.7"/>
		<path fill="none" stroke="#000000" stroke-miterlimit="10" d="M-502.6,510.2c6.4,5.3,28.4-40.4,20.6-47.9"/>
		<path fill="none" stroke="#000000" stroke-miterlimit="10" d="M-568.3,468.9c4.1,5.8,11.7,10,18.1,15.1"/>
		<path fill="none" stroke="#000000" stroke-miterlimit="10" d="M-574,492.8c-9.5-2-20.7-2.5-24-12.898"/>
		<path fill="none" stroke="#000000" stroke-miterlimit="10" d="M-608.7,502.6c-9.1-3-16.4-9.1-21.1-17.6"/>
		<path fill="none" stroke="#000000" stroke-miterlimit="10" d="M-294.8,487.5c12.4,5.4,18.2-42.5,20.3-28.7"/>
		<path fill="none" stroke="#000000" stroke-miterlimit="10" d="M-301.8,511.3c-6.2-12.3-10.8-23.398-12.3-37.2"/>
		<path fill="none" stroke="#000000" stroke-miterlimit="10" d="M-263.3,490.3c1.2,13.5-0.8-35.5,5.1-22"/>
		<path fill="none" stroke="#000000" stroke-miterlimit="10" d="M-230.6,474c-0.2-10-4.1,37.6-7.9,28.7"/>
		<path fill="none" stroke="#000000" stroke-miterlimit="10" d="M-318.7,537c-13,2.5-23.6,9.5-30.3,21"/>
		<path fill="none" stroke="#000000" stroke-miterlimit="10" d="M-461.2,535.7c12.2-2,26.9-7.4,38.7-2.9"/>
		<path fill="none" stroke="#000000" stroke-miterlimit="10" d="M-466.7,513.5c-16.5,2.7-35.6,4.8-49.3,13.5"/>
		<path fill="none" stroke="#000000" stroke-miterlimit="10" d="M-516.5,544.6c-12.8,2.802-19.8,5.4-29.8,14"/>
		<path fill="none" stroke="#000000" stroke-miterlimit="10" d="M-623.5,535.8c10-10.898,27.5-20.1,42.1-19.3"/>
		<g>
			<g>
				<path d="M-357.8,491.8c-7.8-0.8-18.1-0.8-23.8,5.602c-5.8,6.6-4,15.898,2.3,21.398c12.2,10.602,30.3,9.2,45.1,13.2
					c0-6.4,0-12.9,0-19.3c-6.2,1.1-12.7,0.7-18.8-0.602c-2.7-0.6-4.9-1.3-7.2-2.5c-0.6-0.398-1.3-0.698-1.9-1.1
					c0.7,0.5,0.6,0.4-0.3-0.3c-1.7-1.602,0.6,2.1,0.1,0.1c-3.2-12.5-22.5-7.2-19.3,5.3c2.4,9.2,11,13.9,19.3,16.802
					c10.6,3.698,22.4,3.6,33.3,1.698c10.1-1.698,9-16.898,0-19.3c-10.8-2.898-22.1-3.2-32.8-6.5c-0.3-0.1-3.1-1.3-1-0.3
					c-1.1-0.5-2.1-1.1-3.1-1.7c1.7,1.102-0.1-0.1-0.5-0.5c0.8,1.102,0.9,1.3,0.3,0.4c0.5,1.5,0.7,1.8,0.4,0.8
					c0.7,2.5,0.1,4.5-1.5,6.3c-1.2,0.9-1.4,1-0.4,0.4c-1.2,0.5-1.2,0.5,0,0.1c1.9-0.5,6.4-0.2,9.6,0.102c5.4,0.6,10-5,10-10
					C-347.8,495.9-352.4,492.3-357.8,491.8L-357.8,491.8z"/>
			</g>
		</g>
		<g>
			<g>
				<path d="M-338.3,508.9c-10.8-1.4-22-2.5-32.7-0.102c-12.6,2.8-7.2,22.102,5.3,19.3c0.5-0.1,1-0.198,1.4-0.3
					c2.6-0.5-2.3,0.2,0.7-0.1c2.1-0.2,4.3-0.3,6.4-0.3c6.3,0,12.6,0.698,18.8,1.5c5.4,0.698,10-5.102,10-10
					C-328.3,512.9-332.9,509.6-338.3,508.9L-338.3,508.9z"/>
			</g>
		</g>
		<g opacity="0.1">
			<g>
				<path d="M-53.8,571.8c-4.3-0.8-6.6-1.8-9.4-3.2c-4-2-7.8-4.6-11.4-7.3c-7.9-5.898-15.6-14.2-22.3-21.898
					c-6.7-7.7-12.8-16-18.4-24.5c-2.6-3.9-5-8-7.3-12.102c-1-1.8-2-3.7-2.9-5.6c-0.4-0.9-0.8-1.7-1.3-2.602
					c-0.3-0.6-0.5-1.1-0.8-1.698c0.4,1,0.4,1,0,0c-2.1-5-6.6-8.602-12.3-7c-4.8,1.3-9,7.198-7,12.3c8.3,20.398,21.5,38.7,35.7,55.3
					c13.3,15.5,31.1,33.6,52,37.7c5.3,1,10.8-1.4,12.3-7C-45.5,579.1-48.5,572.8-53.8,571.8L-53.8,571.8z"/>
			</g>
		</g>
		<g opacity="0.1">
			<g>
				<path d="M-46.2,595.9c-10.3-3.5-19.9-8.7-28-16C-81.7,573-87.4,565.1-93.1,556.8c-7.1-10.2-13.8-20.898-22.9-29.5
					c-9.3-8.6-20.2-14.3-31.8-19.1c-11.8-5-24-10.3-36.3-13.602c-12.4-3.3-25.5-4.3-38.2-3.398c-24.7,1.8-48.4,10-73.2,11.8
					c-4.1,0.3-8.2,0.4-12.3,0.4c-12.9,0.1-12.9,19.698,0,20c1,0,2.5,0.3-1.9-0.302c0.6,0.102-3.6-2.1-4-2.398
					c-5.3-4.2-3.1-10.7-0.1-13.9c-0.7,0.7,2.7-2,1.8-1.398c-0.2,0.1-0.4,0.198-0.6,0.3c4.5-2-1.1,0.2-2.7,0.7
					c-6.7,1.898-13.5,3.398-20.3,4.898c-23,5-46.2,9.102-69.5,12.602c-3.3,0.5-6.6,1-9.8,1.398c-1.7,0.2-3.3,0.5-5,0.7
					c-2.8,0.4,2.1-0.3-0.7,0.1c-1.1,0.102-2.2,0.302-3.3,0.4c-7,0.9-14,1.7-21.1,2.5c-13.8,1.5-27.6,2.6-41.4,3.3
					c-12.5,0.602-24.9,0.7-37.4,0c-2.7-0.1-5.3-0.398-8-0.6c-1.3-0.102-2.5-0.3-3.8-0.4c-0.6-0.1-1.2-0.1-1.8-0.2
					c-1.9-0.198,2.5,0.4-0.3-0.1c-4.6-0.7-9.1-1.6-13.5-2.8c-1.1-0.3-2.2-0.7-3.3-1c-0.9-0.3-5-2-1.5-0.5c-1.9-0.8-3.8-1.8-5.5-2.9
					c-0.3-0.2-0.6-0.398-1-0.7c-1.9-1.3,1.7,1.4,0.5,0.4c-0.7-0.6-1.4-1.3-2.1-2c-2.2-2.3,1.1,1.8-0.3-0.4
					c-0.6-0.898-1.9-4-0.4-0.198c-0.3-0.7-0.5-1.4-0.7-2.2c-0.8-3.102,0.1,2.3-0.1-0.4c-0.1-1,0-1.898,0.1-2.898
					c-0.4,4.1,0,0.3,0.3-0.802c0.3-1,0.6-1.898,0.9-2.898c0.6-1.602-1.2,2.6-0.1,0.2c0.3-0.602,0.6-1.2,0.9-1.802
					c1.4-2.698,3-5.198,4.8-7.6c3.2-4.4,0.8-11.1-3.6-13.7c-5.1-3-10.4-0.8-13.7,3.602c-11.5,15.398-32.8,14.6-50.9,14.3
					c-23-0.5-46.1-1.5-67.5,8.5c-4.9,2.3-6.1,9.3-3.6,13.7c2.9,5,8.7,5.898,13.7,3.6c20.1-9.3,44-5.7,65.4-5.6
					c10.8,0,21.8-0.7,32.2-3.9c11.6-3.6,20.8-10.7,28-20.3c-5.8-3.4-11.5-6.7-17.3-10.102c-5.3,7.4-9.8,16.2-9.7,25.5
					c0.1,9.302,5.2,16.4,12.3,21.802c6.6,5,15.3,7.5,23.4,9.198c11.1,2.302,22.5,3.2,33.8,3.5c26.8,0.802,53.8-1.5,80.4-4.6
					c27-3.1,53.8-7.3,80.5-12.3c14.1-2.7,28.3-5.5,42.2-9.102c3.7-1,7.5-2,10.9-3.698c5.1-2.602,6.9-9.302,4.1-14.2
					c-2.1-3.602-5.9-5.102-9.9-5.2c0,6.7,0,13.3,0,20c26.3-0.1,51.2-7.3,77-11.3c11-1.7,22.5-1.9,33.5,0
					c13.1,2.3,25.3,7.898,37.6,12.7c10.1,3.898,20.1,8.5,28.4,15.6c8.9,7.7,15,17.9,21.7,27.5c6.2,8.9,12.6,17.7,20.4,25.2
					c8.7,8.398,19.1,14.7,30.3,19.2c2.5,1,5,1.898,7.5,2.8C-39.3,619.4-34.1,600-46.2,595.9L-46.2,595.9z"/>
			</g>
		</g>
		<g opacity="0.1">
			<g>
				<path d="M-70,531.3c-41.4-11.2-84-17.1-126.5-22.398c-18-2.2-36.1-4.302-54.1-6.9c-13.6-2-27.3-4.1-40.5-8.2
					c-12.3-3.898-17.6,15.4-5.3,19.3c12.7,4,26,6.102,39.2,8c18.6,2.802,37.3,4.9,56,7.2c42.3,5.2,84.7,11.102,125.9,22.2
					C-62.8,554-57.5,534.7-70,531.3L-70,531.3z"/>
			</g>
		</g>
		<g opacity="0.1">
			<g>
				<path d="M-105.3,548c-17.7-24.5-46.3-35.9-74.5-43.5c-27.8-7.5-56.9-10.9-84.2-20.2c-12.2-4.2-17.4,15.102-5.3,19.3
					c26.1,8.9,53.7,12.4,80.3,19.2c24.1,6.102,51.9,15.3,66.4,35.4c3.2,4.398,8.6,6.5,13.7,3.6C-104.6,559.1-102.1,552.4-105.3,548
					L-105.3,548z"/>
			</g>
		</g>
		<g opacity="0.1">
			<g>
				<path d="M-141.1,482.6c-3.1-0.3-6.3-0.5-9.2,1.2c-6.5,3.9-6.7,14,0.2,17.5c4.2,2.2,9.1,3,13.6,4.7c2.5,0.9-1.8-1,0.9,0.4
					c0.7,0.398,2,1.398-0.7-0.7c0.1,0.1,0.2,0.1,0.2,0.2c-3.1-3.302-3.1-7.5,0.1-12.5c0.2-0.2,4.1-2.2,2.6-1.7
					c-0.6,0.2-1.3,0.398-2,0.5c-3.7,0.8-7.4,1.398-11,2.3c-13.6,3.6-26.3,10.1-39.5,14.9c-8.3,3-17.1,5.5-25.8,7.198
					c-1.3,0.302-2.6,0.5-3.9,0.7c-2.3,0.4,2.4-0.3,0.1,0c-0.6,0.102-1.2,0.102-1.8,0.2c-2.6,0.3-5.2,0.4-7.8,0.4
					c-12,0.198-24.1-1.2-36.1-1.4c-23-0.4-46,1.5-68.8,4.4c-27.7,3.398-54.8,2.8-82.1-3c-26-5.5-51-14.7-75.9-23.7
					c-13-4.7-26-9.4-39.1-13.7s-26.5-8.9-40-11.4c-32.5-6.1-63.8,13.2-95.2,13.602c-12.9,0.1-12.9,20.1,0,20
					c23.5-0.2,46.3-9.602,69.3-13.5c11.3-1.9,20.3-1.102,30.9,1.7c13.8,3.698,27.4,8,41,12.698C-470,521.2-419.9,542.7-364.9,543.4
					c27.4,0.398,54.6-5.302,82-6.5c15.2-0.602,30.3-0.102,45.5,0.8c11.2,0.6,22.2,0.3,33.3-2.102c9.7-2.1,19.4-5.1,28.6-8.6
					c13.2-5,25.9-11.2,39.7-14.3c5.7-1.3,12.6-1.602,15.9-7.3c3.6-6.102,0.5-12.5-5-15.9c-3.2-2-7.1-3.1-10.6-4.2
					c-1.4-0.398-2.8-0.8-4.1-1.3c-0.5-0.2-1-0.3-1.5-0.5c-0.2-0.1-0.4-0.1-0.6-0.2c1.4,0.5,2.7,1,3.7,2.2c0.9,3.2,1.7,6.5,2.6,9.7
					l0,0c-1.5,2-3.1,4-4.6,6c-3.7,2.2-6.4,1.2-3.8,1.3c1,0,1.9,0.1,2.9,0.2c5.4,0.5,10-4.9,10-10
					C-131.1,486.8-135.7,483.1-141.1,482.6L-141.1,482.6z"/>
			</g>
		</g>
		<g opacity="0.1">
			<g>
				<path d="M-500.7,516.9c-10.1-4.302-21.2-8-30.2-14.302c2.1,1.5,0.5,0.4,0.1-0.1c1,1.4,1.2,1.7,0.7,0.9c1,1.8,1.3,3.8,0.7,5.898
					c-0.5,1.9-1.6,3.4-3.2,4.4c0.9-0.5,0.7-0.4-0.7,0.1c1.1-0.5,2.3-0.7,3.5-1c7.9-1.898,16.4-1.7,24.4-2.398
					c9.6-0.9,19.1-2.102,28.5-4.102c0.9-0.2,1.8-0.398,2.8-0.6c3.3-0.7-1.2,0.1,0.3-0.102c0.9-0.1,1.8-0.1,2.7,0
					c0.5,0,1.1,0.102,1.6,0.102c1.6,0.2-2.9-0.4-0.3,0c5.4,0.8,10.7-1.3,12.3-7c1.3-4.8-1.6-11.4-7-12.3c-6.5-1-11.8-0.7-18.2,0.6
					c-12.9,2.7-24.3,3.5-38.5,4.5c-6.9,0.5-16.1,0.8-22,5c-6.8,4.9-7.8,13.3-2.2,19.6c3.7,4.102,9.2,6.7,14.1,9
					c6.7,3.2,13.6,6,20.5,8.9c5,2.1,10.7,1.5,13.7-3.6C-494.6,526.3-495.7,519-500.7,516.9L-500.7,516.9z"/>
			</g>
		</g>
		<g opacity="0.1">
			<g>
				<path d="M-376.3,477.8c-25.8,3-50.9,10.2-74,22.3c-13.2,6.9-31,17.4-35.7,32.602c-2.2,7.2,1.1,14.6,7.5,18.3
					c5.4,3.1,12.1,3.2,18.1,3.6c2.7,0.2,6,0.602,8.7-0.3c8.3-2.8,10.6-15,1.8-19c-6.6-3.1-14.1-4.3-21.2-5.898
					c-11.4-2.5-22.8-4.802-34.2-7c-11.5-2.2-22.9-4.302-34.5-6.102c-7.2-1.2-14.8-3-22.2-2.8c-7.7,0.2-14.1,8.1-9.6,15.4
					c2.2,3.5,5.8,4.898,9.6,6.198c12.3,4.102,17.5-15.198,5.3-19.3c-0.6-0.2-1.1-0.398-1.7-0.6c-1.7-0.7,2.8,1.3,1.1,0.5
					c-0.1-0.102-0.2-0.102-0.3-0.2c5,3.1,10.6,12.6-2.5,17.8c1-0.398-3.6,0.3-1.7,0.3c2.5-0.1,5.1,0.4,7.6,0.7
					c1.8,0.2-2.8-0.398-0.9-0.1c0.5,0.1,0.9,0.1,1.4,0.2c1,0.1,2,0.3,3,0.398c2.5,0.4,4.9,0.8,7.4,1.2c5.6,0.9,11.1,1.9,16.6,2.9
					c21.3,3.8,42.8,7.6,63.7,13.198c1.1,0.302,2.3,0.602,3.4,1c2.4,0.7,1.1,0.4-0.2-0.198c-3.1-1.5-9.1-10.802,0.4-16.7
					c2.5-1.5,3-1.102,2-0.9c3.7-0.8,3-0.398,2.1-0.3s-1.9,0-2.8,0c-1.6-0.1-3.2-0.2-4.8-0.4c-1-0.1-1.9-0.198-2.9-0.3
					c-0.6-0.1-1.3-0.1-1.9-0.2c2.7,0.302,0.5,0-0.1-0.1c-0.4-0.1-0.8-0.2-1.2-0.3c-2-0.602,2.1,1.1,0.4,0.2
					c-0.8-0.4-1.9-1.5,0.5,0.5c-0.7-0.602-1.2-1.802,0.5,0.8c-0.5-0.9-0.3-0.4,0.5,1.3c-0.6-1.6,0.2,2.8,0.1,1.1
					c-0.1-1.698-0.5,2.802-0.2,1c0.1-0.5,0.3-0.898,0.4-1.398c-1.1,3.2,0,0.2,0.5-0.602c0.3-0.5,0.7-1.1,1.1-1.6
					c-1.6,2.2-0.1,0.2,0.2-0.2c2-2.3,4.4-4.398,6.8-6.398c0.9-0.7,1-0.802,0.3-0.2c0.8-0.602,1.6-1.2,2.5-1.8
					c1.8-1.302,3.6-2.5,5.5-3.602c3.8-2.398,7.7-4.6,11.7-6.6c19-9.8,40.4-15.9,61.6-18.4c5.4-0.6,10-4.1,10-10
					C-366.3,482.9-370.9,477.2-376.3,477.8L-376.3,477.8z"/>
			</g>
		</g>
		<g opacity="0.1">
			<g>
				<path d="M-417.5,524.2c-14.2-9.2-30.7-10.9-47.1-12.3c-1.5-0.102-3-0.302-4.5-0.4c-1.2-0.1-1.1-0.1,0.2,0
					c-0.8-0.1-1.5-0.2-2.3-0.4c-1.1-0.198-2.2-0.5-3.2-0.898c1.5,0.7,1.7,0.8,0.8,0.3c-1.7-0.9,1.8,1.6,0.4,0.4
					c1.4,1.3,1.3,1.8,1.5,3.6c0-1,0-0.7-0.2,0.9c0.1-0.7,0.3-1.4,0.5-2c0.4-1,0.4-1-0.1,0c0.4-0.9,0.9-1.802,1.4-2.7
					c1.2-2.2,2.7-4.4,4.2-6.4c6.6-9.2-8.6-20.898-15.7-12.1c-2.1,2.6-4.3,5.1-6.9,7.3c0.7-0.6-1.7,1-2.1,1.2
					c-1.7,0.898,1.5-0.4-1.1,0.3c2.8-0.7,0.9-0.1-0.1-0.2c3.1,0.102,1.6,0.2,0.6-0.1c-0.5-0.2,2.6,1.1,0.3,0.1
					c-7.9-3.398-17.8,2.3-14.8,11.8c1.3,4.102,3.1,8.102,4.5,12.102c4.1,12.1,22.6,7.3,19.3-5.3c-1.2-4.802-3-10.4-7.1-13.602
					c-0.9-0.7-1.8-1.398-2.7-2c1.9,1.2,1,0.3,2.1,2.102c1.8,2.8,0.2-0.5,0.4,1.398c-0.3-2-0.2-4-0.2-6c-0.1-8.5-11-13.5-17.1-7.1
					c0.8-0.8-2,1.6-0.7,1.1c-0.8,0.3-1.4,0.102-0.5,0.2c-2.1-0.4-4.2-1.3-6.3-1.6c-8.1-1.2-14.5,3.1-16.3,11.1
					c6.1-0.8,12.2-1.6,18.3-2.4c-1.4-2.198-2.9-4.698-5-6.398c-1.8-1.5-2.5-2-4.8-2.8c-0.9-0.301-6.3-1.2-0.8-0.102
					c1.5,0.9,2.9,1.7,4.4,2.602c1.9,4.1,2.6,5.1,2.1,3.199c-0.3-1.101-0.5-2.301-0.7-3.5c-1.8-8.699-14.2-9.5-18.3-2.399
					c0.8-0.7,1.7-1.3,2.8-1.7c0.6-0.2,3.3,0.2,1.2-0.2c-2.4-0.5-4.6-1.1-7-1.2c-6.1-0.398-11.3,2.7-14.3,7.9
					c6.2,1.7,12.4,3.4,18.6,5c-0.3-3.7-1.2-6.4-2.7-9.8c-0.6-1.3-1.3-2.602-1.9-3.8c0,0-1.3-3.602-1.2-2.2
					c-0.6-6.602-8.4-13.7-15-8.602c-5.9,4.5-13.4,6.602-19.3,11.102c4.9,2,9.8,4,14.7,6c-0.3-1.8-1.4-3.5-1.6-5.3
					c-0.8-9.2-10-12.602-17.1-7.102c-8.4,6.5-21.5,7-31.6,8.2c-5.4,0.601-10,4.101-10,10c0,5,4.6,10.601,10,10
					c16.3-1.899,32.4-3.7,45.7-14c-5.7-2.399-11.4-4.7-17.1-7.1c0.3,3.698,1.7,7,2.3,10.6c0.9,6,9.9,9.7,14.7,6
					c5.9-4.5,13.4-6.6,19.3-11.1c-5-2.9-10-5.802-15-8.602c0.3,3.7,1.2,6.4,2.7,9.8c0.6,1.302,1.3,2.602,1.9,3.802
					c0,0,1.3,3.6,1.2,2.198c0.8,9.5,13.3,14.2,18.6,5c-0.8,0.7-1.7,1.302-2.8,1.7c-0.6,0.2-3.3-0.2-1.2,0.2c2.4,0.5,4.6,1.1,7,1.2
					c6.1,0.398,11.3-2.7,14.3-7.9c-6.1-0.8-12.2-1.6-18.3-2.398c0.6,3.1,1.1,7,3.8,9.1c2.2,1.8,4.3,2.9,7.2,3
					c-4.6-0.1-6.9-4.399-4.2-0.2c4.4,6.9,16.4,6.5,18.3-2.398c0.1-0.4,0.2-0.7,0.2-1.102c-1,2.5-3.2,3.9-6.5,4.2
					c-2.2,0.2-1.1-0.2,0.1,0.101c2.6,0.699,5,1.399,7.8,1.699c6.6,0.7,12.6-2.3,17.1-7c-5.7-2.398-11.4-4.699-17.1-7.1
					c0.1,6.398,0.4,12.3,4.6,17.398c0.6,0.7,2.5,2,2.6,2.102c1.9,1.3-1.7-1.5-0.3-0.2c1.5,1.3-1.2-2,0,0.3
					c-0.4-0.699,0.9,3.102,1.1,3.9c6.4-1.8,12.9-3.5,19.3-5.3c-1.1-3.102-2.2-6.2-3.4-9.2c-0.3-0.7-0.5-1.4-0.8-2
					c-1.1-2.7,0.9-0.3-0.4,3.898c-1.5,2-3.1,4-4.6,6l0,0c-1.7,0.5-3.4,0.9-5,1.4c-4-0.1-6.3-2-4-0.9c1.2,0.602,2.4,1.102,3.6,1.5
					c2.1,0.802,4.7,1,6.9,0.7c9.4-1.2,16.4-7.2,22.1-14.398c-5.2-4-10.5-8.102-15.7-12.102c-5.1,7.2-9.6,14.9-8.1,24
					c1.2,7.2,9,11.102,15.4,12.3c17.3,3.302,33,1.102,48.2,10.9C-416.7,548.5-406.7,531.2-417.5,524.2L-417.5,524.2z"/>
			</g>
		</g>
		<g opacity="0.1">
			<g>
				<path d="M-132.3,507.2c12.9,0,12.9-20,0-20C-145.2,487.2-145.2,507.2-132.3,507.2L-132.3,507.2z"/>
			</g>
		</g>
		<g opacity="0.1">
			<g>
				<path d="M-81.4,562.6c-3-0.198,1.9,0.4-0.9-0.1c-0.8-0.2-1.6-0.4-2.4-0.6c-2.5-0.802,1.8,0.898-0.5-0.2
					c-0.7-0.3-1.3-0.8-1.9-1.2c2.1,1.4-1.1-1.2-1.7-1.9c-1.7-1.898,1.2,1.7-0.2-0.3c-0.6-0.8-1.1-1.7-1.6-2.5
					c-3.4-5.7-5.4-12.1-8.5-17.898c-3.5-6.802-8.9-13-15.9-16.302c-10.1-4.8-19.8-2.698-30.4-2.898c-13.2-0.2-26.3-3.3-39.5-4
					c-6.6-0.3-13.3,0.2-19.8,1.5c-1.2,0.2-2.3,0.5-3.5,0.8c-0.9,0.2-4.7,0.7-0.9,0.2c-10.6,1.3-21.5,0.7-32.1,0
					c-69-4.3-137.2-17.9-206.4-21c-19.4-0.9-39-1-58.2,2.2c-12.6,2.1-27.5,6.6-34.2,18.5c-6.4,11.198,10.9,21.3,17.3,10.1
					c0.5-0.8,2.2-3.2-0.1-0.2c0.5-0.6,1.1-1.2,1.6-1.8c0.3-0.3,0.6-0.6,0.9-0.8c1.3-1.102-2.1,1.6-0.7,0.5
					c0.9-0.602,1.8-1.2,2.7-1.7c0.8-0.5,1.7-0.9,2.6-1.3c2.2-1-2.1,0.8,1-0.4c2.3-0.898,4.8-1.6,7.2-2.2c2.5-0.6,5.1-1.1,7.6-1.5
					c0.7-0.1,1.4-0.198,2.1-0.3c2.4-0.398-2.3,0.3,0.2,0c1.7-0.2,3.4-0.398,5.2-0.6c6.8-0.602,13.7-0.9,20.5-0.9
					c34.5-0.398,69.1,3.5,103.4,7.5c35,4,70,8.9,105,12.3c13.2,1.302,26.4,2.4,39.7,2.5c12.6,0.102,24.8-3.5,37.3-3.198
					c16.1,0.3,31.9,5.198,48,3.898c3.2-0.3,6.3-0.6,9.5-0.398c1.3,0.1,1.4,0.1,0.3,0c0.6,0.1,1.2,0.198,1.8,0.398
					c0.4,0.102,3.9,1.3,1.7,0.4c1,0.398,1.9,1,2.8,1.6c1.4,0.9-1-1,1,0.8c0.8,0.7,1.4,1.5,2.1,2.2c-1.7-1.898,0.4,0.7,0.7,1.102
					c4.5,6.8,6.7,14.898,10.9,22c5.8,9.8,14.9,15.3,26.1,16.1c5.4,0.4,10-4.9,10-10C-71.4,566.9-76,563-81.4,562.6L-81.4,562.6z"/>
			</g>
		</g>
		<path fill="none" stroke="#000000" stroke-miterlimit="10" d="M687.7,553.8c-23.5-24.1-24.6-56.5-59.602-63.6
			C586,481.7,546.7,461.1,505.3,448.1c-43.1-13.5-93.4-31.198-137.7-25.198c-18.9,2.5-7.4,9.3-57,25
			c-16.5,5.198-40.8,8.898-56.1,17.8c-33.2,19.3-23.4,7.1-51.8,24.6C178.8,505,167.8,478.4,141,489c-15.2,6-30.7,10.6-46.1,15.3
			c-11.3,3.4-31.9,4.8-40.4,10.602"/>
		<path fill="none" stroke="#000000" stroke-miterlimit="10" d="M700,534c-31.8-11-43.4-23.5-59.3-52.2
			c-13-23.5-1.7,31.102-27.4,19.7C576,484.9,514.9,465.3,474.9,461.2c-42.7-4.4-73.501-26.8-125.7-21.9c-39.5,3.7-41.3,7-105.4,32.3
			C212.1,484.1,208.9,484,178,497.2c-19.6,8.398-55.1,46.2-142.8,14"/>
		<path fill="none" stroke="#000000" stroke-miterlimit="10" d="M95,507.7c16.5-1.3,55-17.3,73.4-17.5
			c20.3-0.2,41.6,17.1,61.4,19.898c46.6,6.7,58.2-16.198,99.5,6.5c29.1,15.9,59,32.102,91.7,36.7c28.8,4.102,60.5,1.9,89.4-0.8
			C580.8,545.9,647,492,717.5,516.1"/>
		<path fill="none" stroke="#000000" stroke-miterlimit="10" d="M687.7,560.3c-6.6-2.898-24-9.6-26.4-17.1c-5.4-16.3,15-11,26.4-11"
			/>
		<path fill="none" stroke="#000000" stroke-miterlimit="10" d="M362.6,534c-40.8-4.9-36-14.1-27.7-48.4
			c10.1-41.5,42.5-35,82.6-34.3c44.2,0.7,150.1,24.5,107.6,54.9c-38.898,27.8-51,18.5-86.5,22.6C413.2,531.7,387.2,535.4,362.6,534"
			/>
		<path fill="none" stroke="#000000" stroke-miterlimit="10" d="M421.7,525.5c-19.5,0.9-46.2-9.3-36-35
			c7.5-19.1,39.1-21.6,57.1-17.1c14.102,3.5,41.5,30,28.9,47.8c-9.5,13.398-51.5,4.1-65.6,2.2"/>
		<path fill="none" stroke="#000000" stroke-miterlimit="10" d="M698.2,574c-35.8-23.6-41.3-54.2-84.9-60.8
			c-22.5-3.4-69.6,1.898-118.6,6.6c-82.5,8-211.3,25.3-283.1-7.7c-6.2-2.8,50.3,39.802,44.5,37.802"/>
		<path fill="none" stroke="#000000" stroke-miterlimit="10" d="M221.1,542.8c-19.7-36.7-87.6-18.3-119.3-19.3"/>
		<path fill="none" stroke="#000000" stroke-miterlimit="10" d="M602.6,499.3c-19.3-30.2-2.698-52.1-7-57.898"/>
		<path fill="none" stroke="#000000" stroke-miterlimit="10" d="M588.9,493.5c-16.102-4.7-33.602-31.9-43.102-45.3"/>
		<path fill="none" stroke="#000000" stroke-miterlimit="10" d="M469.6,447.8c7.802,5.102,15.5,10.4,25,10.7"/>
		<path fill="none" stroke="#000000" stroke-miterlimit="10" d="M444.1,453c-5-11.7-6.898-23.3-5.398-36.2"/>
		<path fill="none" stroke="#000000" stroke-miterlimit="10" d="M416.8,445.5c-12.4-5.5-34.9-15.2-29-32.6"/>
		<path fill="none" stroke="#000000" stroke-miterlimit="10" d="M357.5,438.6c-10-4-18.4-12.5-21.5-22.6"/>
		<path fill="none" stroke="#000000" stroke-miterlimit="10" d="M323,444.2c-10.7-2.8-29.2-11.8-33.9-22.7"/>
		<path fill="none" stroke="#000000" stroke-miterlimit="10" d="M268.3,450.2c6.4,5.3,28.4,19.6,20.6,12.1"/>
		<path fill="none" stroke="#000000" stroke-miterlimit="10" d="M202.6,468.9c4.1,5.8,11.7,10,18.1,15.1"/>
		<path fill="none" stroke="#000000" stroke-miterlimit="10" d="M196.9,492.8c-9.5-2-20.7-2.5-24-12.898"/>
		<path fill="none" stroke="#000000" stroke-miterlimit="10" d="M162.2,502.6c-9.1-3-16.4-9.1-21.1-17.6"/>
		<path fill="none" stroke="#000000" stroke-miterlimit="10" d="M476.1,427.5c12.4,5.4,18.2,17.5,20.302,31.3"/>
		<path fill="none" stroke="#000000" stroke-miterlimit="10" d="M469.1,451.3c-6.198-12.3-10.8-23.398-12.3-37.2"/>
		<path fill="none" stroke="#000000" stroke-miterlimit="10" d="M507.6,430.3c1.2,13.5-0.8,24.5,5.102,38"/>
		<path fill="none" stroke="#000000" stroke-miterlimit="10" d="M540.3,474c-0.2-10-4.1-22.4-7.898-31.3"/>
		<path fill="none" stroke="#000000" stroke-miterlimit="10" d="M452.2,537c-13,2.5-23.602,9.5-30.3,21"/>
		<path fill="none" stroke="#000000" stroke-miterlimit="10" d="M309.7,535.7c12.2-2,26.9-7.4,38.7-2.9"/>
		<path fill="none" stroke="#000000" stroke-miterlimit="10" d="M304.2,513.5c-16.5,2.7-35.6,4.8-49.3,13.5"/>
		<path fill="none" stroke="#000000" stroke-miterlimit="10" d="M254.4,544.6c-12.8,2.802-19.8,5.4-29.8,14"/>
		<path fill="none" stroke="#000000" stroke-miterlimit="10" d="M147.4,535.8c10-10.898,27.5-20.1,42.1-19.3"/>
		<g>
			<g>
				<path d="M423.6,495.9c-4.6,4.8-9.999,7.198-9.6,14.698c0.101,1.5,1.601,3,3.2,2.4c3.6-1.3,7.2-3.1,8.7-6.9
					c1.1-2.898-1-5.8-3.4-7.198c-8.601-5.2-16.601,4.1-19.101,11.3c-0.299,1,0.201,2.3,1.101,2.8c6.3,3.4,13.899,2.7,19-2.6
					c4-4.2,2.2-10-3.601-10.802c0.601,0.802,1.199,1.602,1.801,2.4l0,0c-0.801,0.8-1.7,1.7-2.5,2.5c6.8,0.3,9.7-5.6,3.5-10
					c-6.5-4.7-4.1,10.4-4.2,11.1c1-0.6,2-1.198,3.1-1.698c0.5,0.398,1,0.8,1.5,1.198c-1.1-3-5.398-1.898-4.8,1.302
					c0,0.1,0,0.1,0,0.198c0.1,0.802,1,1.602,1.7,1.7c3.6,0.602,9.8-6.2,11.2-9.2c0.8-1.698-0.2-3.698-2.2-3.8
					c-3.3-0.1-4.7,5.9-5.7,8.2c-0.898,2.1-1.8,4.4-0.7,6.5c2.102,4.1,11-1.2,13.9-1.4c3.2-0.3,3.3-5.1,0-5c-1.8,0-3.5-3.6-4.3-4.898
					c-1.5-2.4-3-5.102-5.3-6.8c-7.001-5.302-12.602,4.898-15.102,10c-0.6,1.198-0.399,2.8,0.9,3.398c9.1,4.8,17.6,3.8,25.8-2.2
					c1.3-1,1.7-2.698,0.5-3.898c-4.7-5.102-11.5-11.5-19.102-9.602C414.8,490.9,412,496.4,411,501.1c-0.7,3.4-1.101,9.7,2.7,11.5
					c5.699,2.7,9.8-6.898,11.5-10.6c0.5-1.2,0.398-2.8-0.9-3.4c-3.6-1.8-7.699-4.6-11.9-4.398c-4.398,0.2-7.398,4.898-9.6,8.1
					c-0.6,0.9-0.4,2.3,0.4,3c4.4,3.9,11.199,10.102,17.699,8.2c4.301-1.3,5.399-6.3,4.801-10.1c-0.5-3.4-2.3-7.302-6.2-7.602
					c-5.8-0.398-8,9.7-8.899,13.5c-0.399,1.7,0.799,2.9,2.399,3.2c3.5,0.5,7.2,1.3,10.6,0.1c3.5-1.1,5.802-4.8,8-7.5
					c0.802-1,1.102-2.6,0-3.5c-9.398-7.8-20.8-9.3-27.2,2.7c-0.5,1-0.398,2.2,0.4,3c4.801,4.602,14.301,10.7,18.9,2.3
					c3-5.6,0.1-13.6-5.7-15.898c-6.7-2.8-20.7,1.6-19.3,10.6c1.4,8.8,12.699,14.102,20.699,14.3c1,0,2.199-0.8,2.399-1.8
					c0.7-3.5,2.4-6.7,3.102-10.2c0.6-2.8-3-4.3-4.602-1.898c-1.5,2.3-4.1,5.2-3.899,8.1c0.201,2.7,2.801,5.3,3.5,7.9
					c0.601,1.898,3.601,2.6,4.601,0.6c1.8-3.8,3.3-7.898,5.1-11.7c1.102-2.398-2-5.398-3.898-3c-3.102,3.7-4.7,7.9-7.2,12
					c-1.102,1.802,0.398,3.5,2.2,3.802c11.398,1.398,21.2-1.2,25.1-12.9c0.9-2.8-3.1-4.3-4.6-1.9c-7.2,11.9-26.7,18.9-39.2,11.302
					c-7.102-4.302-8.398-15.2-4.898-22.2c4.398-8.5,15.5-11.2,24.3-11.3c9.198,0,16.5,3.698,22.8,10.198c3.3,3.5,6.398,7.9,6.1,12.9
					c-0.6,8.9-13.7,12.4-20.6,13.7c-10.301,1.898-22.4,1.1-31.6-4.3c-9.802-5.802-11.5-19.2-4-27.802c6-6.898,16.198-9.8,25-11.198
					c8.8-1.4,18.6-1,25.898,4.6c9.3,7.2,12.7,18.101,3.9,27.101c-7.9,8.101-21,10.399-31.7,8.199
					c-9.302-1.898-24.4-9.199-18.5-20.898c4.8-9.602,17.198-14.7,27.3-15.5c14.1-1.102,25.1,7.3,30.1,20.199
					c2.801,7.301,5,16.801-4.3,20c-8,2.801-17.7,0.801-25.7-0.899c-3.199-0.7-4.199,3.6-1.3,4.8c13.5,5.6,32.7,2.4,41.7-10
					c9.2-12.7,0-27-11.9-33.8c-12.198-7-27.6-9.8-41.498-9.2c-11.9,0.601-25.4,5.2-28.302,18.2c-0.6,2.8,3,4.3,4.601,1.899
					c17.801-26.399,53.001-6.5,68.899,11.5c4,4.5,14.3,17.699,6.8,23.399c-1.8,1.3-4,1.9-6.1,2.2c-5.7,1-11.9,0.5-17.6,0.5
					c-11.802,0-23.7-0.602-35.2-3.102c-7.4-1.6-17.101-4.198-20.9-11.5c-4.3-8,4.4-18.198,9.2-23.6c-1.398-0.8-2.8-1.6-4.2-2.4
					C382.3,526,426.9,540.7,454,530.2c-0.6-1.5-1.3-3-1.9-4.602c-10.5,5.2-21.398,6.4-32.6,2.7c-10.5-3.398-19.601-10.8-27.8-17.898
					c-2.2-1.9-5.1,0.5-3.9,3c6.1,13.898,21.2,16.199,34.602,18c0.398-1.602,0.898-3.2,1.3-4.801c-7.601-1-15.2-2.101-22.4-4.801
					c-0.399,1.602-0.899,3.2-1.3,4.801c2.898,0.601,5.3,2.399,8.102,3.301c2.698,0.898,4.5-3.301,1.898-4.602
					c-0.5-0.199-0.898-0.5-1.398-0.699c-2.9-1.399-5.4,2.899-2.5,4.301c0.5,0.199,0.898,0.398,1.398,0.699
					c0.602-1.5,1.3-3,1.898-4.601c1,0.4-0.6-0.3-0.6-0.3c-1-0.5-2-0.9-3-1.3c-1.5-0.602-2.9-1.4-4.5-1.7c-3.199-0.7-4.3,3.7-1.3,4.8
					c7.2,2.7,14.8,3.8,22.4,4.8c3.198,0.4,4.5-4.398,1.3-4.8c-12.1-1.6-26.1-3.1-31.6-15.7c-1.302,1-2.602,2-3.9,3
					c9.4,8.2,19.4,15.801,31.3,19.7c11.8,3.9,24.1,1.7,35.1-3.7c2.5-1.199,0.7-5.6-1.898-4.6c-23.102,9-64.7-1.7-57.5-33.4
					c0.5-2.3-2.4-4.398-4.2-2.398c-9.398,10.6-17.9,25.898-3.8,36.398c6.698,5,15.698,6.801,23.698,8.102
					c11.7,1.898,23.602,2.199,35.4,2.1c9.7-0.1,26,0.602,26.3-13c0.2-10.5-9-20.6-16.1-27.2c-19.1-18-53.3-31.6-71.399-4.898
					c1.5,0.6,3,1.3,4.601,1.898c2.399-10.8,13.8-13.898,23.5-14.5c11.8-0.8,24.3,1.7,35,6.5c10.2,4.5,22.1,15.5,15.2,27.302
					c-7,12-25.5,14.1-37.2,9.3c-0.4,1.6-0.9,3.2-1.3,4.8c12.6,2.7,37.398,6.5,38.898-12.3c0.602-8.3-4.1-18.3-9.3-24.7
					c-4.4-5.4-10.1-9.2-16.8-11c-12-3.3-26.1,0.5-35.7,8.2c-7.899,6.3-13.399,17.1-6.101,26c11.201,13.7,33.801,14.5,48.601,7.2
					c7.3-3.602,14.3-10.7,14.9-19.302c0.698-9.898-6.302-17.698-13.9-23.1c-6.5-4.601-16-4.7-23.5-4.101
					c-8.899,0.801-18,3.399-25.5,8.301c-10.3,6.6-15.2,20.5-9.399,31.699C391.8,522.2,403,525.9,412.5,527.1
					c10.6,1.301,22,0.101,31.6-4.699c7.802-3.9,13.4-11.4,10.602-20.301C450.4,488.4,435.2,480.3,421.6,480
					c-10.898-0.3-22.898,4-28.6,13.7c-4.899,8.3-2.899,20.899,4.3,27.2c13.9,12.398,39.7,3,48.4-11.4c-1.5-0.6-3-1.3-4.602-1.899
					c-3.198,9.601-11.398,10.399-20.3,9.301c0.7,1.3,1.4,2.5,2.2,3.8c2.3-3.7,3.7-7.6,6.5-11c-1.3-1-2.6-2-3.9-3
					c-1.8,3.8-3.3,7.9-5.1,11.7c1.5,0.2,3,0.398,4.6,0.6c-0.6-2.2-1.398-4.3-2.698-6.2c-0.602-0.898-0.802-0.5-0.4-1.398
					c0.8-1.602,1.9-3.2,3-4.7c-1.5-0.602-3-1.3-4.601-1.9c-0.699,3.5-2.399,6.7-3.101,10.2c0.802-0.6,1.601-1.2,2.4-1.8
					c-5.601-0.101-11.7-3.101-14.802-7.8c-4.1-6.102,7.4-8.9,11.5-7.602c3.302,1,4.302,5.5,3.5,8.4c-1.6,5.7-9.299-1.2-11.198-3
					c0.1,1,0.3,2,0.399,3c4.799-9,12.399-7.5,19.399-1.7c0-1.2,0-2.399,0-3.5c-1.7,2.101-3.4,4.7-5.8,6.101
					c-2.301,1.399-6.9,0-9.301-0.301c0.801,1.102,1.601,2.102,2.399,3.2c0.601-2.2,1.802-9.1,4.302-9.899
					c-0.602,0.199-0.201,0,0.198,0.699c0.5,0.9,0.8,2,0.9,3c1,9.9-11.501-0.398-14.101-2.6c0.1,1,0.299,2,0.399,3
					c1.3-1.9,3.3-5.601,6-5.7c2.8-0.1,6.3,2.5,8.7,3.7c-0.301-1.101-0.602-2.3-0.9-3.4c-1.1,2.5-2.3,5.102-4.1,7.2
					c-1.2,1.4-1.601,0.7-0.601,1.602c-1.101-0.9-0.601-5-0.2-6.802c0.7-2.898,2.2-6.1,5.199-7.1c5.301-1.7,11.2,5,14.301,8.3
					c0.199-1.3,0.301-2.6,0.5-3.898c-6.801,4.898-13.199,6.198-20.8,2.198c0.3,1.102,0.601,2.302,0.899,3.4
					c1.101-2.3,3.601-8.6,6.7-8.9c1.8-0.198,3.6,3.4,4.398,4.602c2.2,3.398,4.7,8.8,9.4,8.6c0-1.7,0-3.3,0-5
					c-3.2,0.3-6.2,1.3-9.2,2.4c-0.5,0.2-1.1,0.398-1.6,0.5c0,0,1.1,2.3,1.6,0.6c0.4-1.3,3.8-6.7,1.8-6.8c-0.7-1.3-1.398-2.5-2.2-3.8
					c-0.6,1.2-2.1,2.3-3,3.3c-0.8,0.8-1.6,1.6-2.398,2.3c-1.102,1.102-2,0.9-0.2,1.3c0.6,0.602,1.2,1.2,1.7,1.7c0-0.1,0-0.1,0-0.2
					c-1.602,0.4-3.2,0.9-4.801,1.302c0.4,1,0.801,2,2,2.3c1.301,0.3,2.801-0.4,3.101-1.7c0.5-2.3-0.3-5.1-0.399-7.5
					c0-0.5-0.101-1.1,0-1.7c-1,0.3-1.899,0.7-2.899,1c0.6,1.4,1.1,1.602,1.7,0.5c-0.602,0.4-1.9,0.2-2.5,0.2
					c-1.301,0-2.601,1.2-2.5,2.5l0,0c0.1,1,0.699,2.2,1.8,2.4c3.3,0.5,1.899,2.3-0.101,3.8c-3.399,2.6-7.8,2.398-11.399,0.398
					c0.399,0.9,0.8,1.9,1.101,2.802c1.5-4.302,4.799-9.7,10.101-8.9c5.898,0.9-0.101,4.6-2.5,5.5c1.1,0.8,2.1,1.6,3.198,2.4
					c-0.299-5.602,4.7-7.602,8.102-11.2C429.4,497.1,425.8,493.6,423.6,495.9L423.6,495.9z"/>
			</g>
		</g>
		<g>
			<g>
				<path d="M415.8,467.8c-9.8-2.2-20.8-1.2-26.699,7.9C384,483.5,385.3,493.5,389,501.5c4,8.5,11.3,14.5,19.7,18.3
					c8.5,3.8,18.7,6.102,25.7,10.102c0.8-6.102,1.6-12.2,2.398-18.302c-6.3,2.302-12,2.102-17.899-1.1c-5-2.7-9.199-8-9.799-13.8
					c-0.602-5.4-4.102-10-10-10c-5,0-10.602,4.6-10,10c1.5,12.898,7.799,23.3,18.698,30.5c9.9,6.5,23.3,7.898,34.3,3.7
					c7.802-2.9,10.4-13.7,2.4-18.302c-6.1-3.5-13-5.5-19.6-7.8c-2.9-1-5.7-2.1-8.4-3.398c-3.3-1.602-4.8-2.5-6.8-4.802
					c-0.5-0.5-0.9-1-1.302-1.5c0.5,0.7,0.5,0.602-0.198-0.398c-0.2-0.3-1.9-3.602-1.2-1.9c-0.5-1.2-0.8-2.398-1.102-3.6
					c-0.198-1.2-0.198-1.2,0,0c-0.1-0.9-0.1-1.7,0-2.602c-0.1,2.9,1-2.3-0.198,0.4c0.6-0.9,0.5-0.9-0.302,0.1
					c1.4-1.898-1.698,0.9,0.4-0.398c0.6-0.4,0.801-0.2,0.2-0.102c1.8-0.198,3.101,0.102,4.7,0.4C423,489.9,428.3,470.6,415.8,467.8
					L415.8,467.8z"/>
			</g>
		</g>
		<g>
			<g>
				<path d="M430.2,465.3c-18.7-2.1-32.9,9.8-41.5,25.3C382.5,501.9,399.8,512,406,500.7c5.601-10.102,12.2-16.8,24.2-15.4
					c5.398,0.602,10-5,10-10C440.2,469.4,435.6,466,430.2,465.3L430.2,465.3z"/>
			</g>
		</g>
		<g opacity="0.1">
			<g>
				<path d="M717.1,571.8c-4.3-0.8-6.6-1.8-9.398-3.2c-4-2-7.802-4.6-11.4-7.3c-7.899-5.898-15.6-14.2-22.3-21.898
					c-6.7-7.7-12.8-16-18.4-24.5c-2.6-3.9-5-8-7.3-12.102c-1-1.8-2-3.7-2.899-5.6c-0.399-0.9-0.801-1.7-1.301-2.602
					c-0.3-0.6-0.5-1.1-0.8-1.698c0.4,1,0.4,1,0,0c-2.1-5-6.6-8.602-12.3-7c-4.8,1.3-9,7.198-7,12.3c8.3,20.398,21.5,38.7,35.7,55.3
					c13.3,15.5,31.1,33.6,52,37.7c5.3,1,10.8-1.4,12.3-7C725.4,579.1,722.4,572.8,717.1,571.8L717.1,571.8z"/>
			</g>
		</g>
		<g opacity="0.1">
			<g>
				<path d="M721.1,579.7c-10.3-3.5-19.898-8.7-28-16c-7.5-6.9-13.2-14.8-18.898-23.102c-7.102-10.198-13.802-20.898-22.9-29.5
					c-9.3-8.6-20.2-14.3-31.8-19.1c-25.2-10.6-51.2-20-77.2-28.5c-26.899-8.9-54.6-14.7-83.1-15.6
					c-24.301-0.802-48.2-2.802-72.302-5.802c-23.798-3-47.6-6.398-71.6-7.8c-41.4-2.6-88.6,1.102-117.8,34.4
					c-3.6,4.1-6.4,8.6-10.4,12.3c-2.9,2.7-7.2,5-10.6,6.2c-10,3.6-19.9,3.6-30.6,3.6c-24.8-0.2-49.7-2.398-72.8,8.4
					c-4.9,2.3-6.1,9.3-3.6,13.7c2.9,5,8.7,5.898,13.7,3.6c38.4-17.9,92.9,11.5,123.2-26.8c5.9-7.4,12.3-14.7,19.9-19.8
					c8.1-5.5,15.7-8.5,25-11.2c20.2-5.7,41.5-5.602,62.7-4.5c48,2.7,95.3,12.8,143.5,13.7c27.899,0.5,54.8,6.8,81.1,15.398
					c25.5,8.4,51.102,17.5,75.8,28.102c10.302,4.398,19.4,10.1,27.2,18.198c7.7,8.102,13.4,18.4,19.9,27.4
					c6.3,8.8,13.1,17.2,21.399,24.1c9.801,8.2,21,13.802,33.101,17.9C728,603.2,733.2,583.8,721.1,579.7L721.1,579.7z"/>
			</g>
		</g>
		<g opacity="0.1">
			<g>
				<path d="M700.9,531.3c-43.7-12-84.802-31.8-125.2-52c-18-9-35.9-18.3-53.9-27.2c-13.6-6.698-27.5-13.6-42-18.3
					c-12.3-4-17.5,15.3-5.3,19.3c6,1.9,11.3,4.2,15.7,6.102c7.6,3.398,15.2,7,22.6,10.7c18.602,9.198,37,18.8,55.5,28
					c41,20.5,82.9,40.398,127.2,52.6C708,554,713.3,534.7,700.9,531.3L700.9,531.3z"/>
			</g>
		</g>
		<g opacity="0.1">
			<g>
				<path d="M665.5,548c-32.5-45.2-86.9-66-137.6-83.5c-5.2-1.8-10.9,2-12.302,7c-1.5,5.5,1.802,10.5,7,12.3
					C567.7,499.4,619.2,517.7,648.2,558.2c3.2,4.398,8.6,6.5,13.7,3.6C666.3,559.1,668.7,552.4,665.5,548L665.5,548z"/>
			</g>
		</g>
		<g opacity="0.1">
			<g>
				<path d="M638.6,487.2c-3.1-0.3-6.3-0.5-9.198,1.2c-6.5,3.898-6.7,14,0.198,17.5c4.2,2.198,9.102,3,13.602,4.698
					c2.5,0.9-1.8-1,0.898,0.4c0.7,0.4,2,1.4-0.698-0.7c0.1,0.102,0.198,0.102,0.198,0.2c-3.1-3.3-3.1-7.5,0.102-12.5
					c0.2-0.2,4.1-2.2,2.6-1.7c-0.6,0.2-1.3,0.4-2,0.5c-3.7,0.8-7.399,1.4-11,2.3C619.7,502.7,607,509.2,593.8,514
					c-8.399,3-17.2,5.2-25.7,7.9c-5,1.5-9.898,3-15,4.3c-11.3,3-22.8,4.898-34.3,6.7c-22.399,3.398-44.6,6.1-67.2,9
					c-26.1,3.398-51.499,0.898-76.8-6.2c-50.6-14.3-95.9-42.7-146.3-57.9c-9.3-2.8-18.6-5.3-28.4-5.3c-9.7,0-19.4,1.8-28.8,3.8
					c-17.8,3.8-36.2,10.7-54,10.9c-12.9,0.1-12.9,20.1,0,20c23.5-0.2,46.3-9.602,69.3-13.5c11.1-1.9,20.1-1.2,30.4,1.6
					c13,3.5,25.8,8.102,38.3,13c48,19,93.7,46.2,145.7,53.3c13.5,1.802,26.899,2.4,40.5,1.4c14.2-1.1,28.399-3.5,42.6-5.3
					c18-2.4,36-4.602,53.9-7.8c10.3-1.802,20.4-4.302,30.4-7.302c5.8-1.698,11.5-3.6,17.3-5.398c6.7-2.102,13.3-3.8,19.898-6.4
					c6.802-2.6,13.5-5.6,20.302-8.2c4.698-1.8,9.6-3.398,14.5-4.698c3.898-1,7.999-1.302,11.8-2.602c8.398-2.898,11.898-12,5.6-19.1
					c-2.9-3.3-8-4.7-12-6.102c-1.8-0.6-3.6-1.1-5.399-1.698c-0.699-0.2-1.301-0.4-2-0.602c-0.199-0.1-0.399-0.1-0.601-0.2
					c1.4,0.5,2.7,1,3.7,2.2c0.9,3.2,1.7,6.5,2.6,9.7l0,0c-1.5,2-3.1,4-4.6,6c-3.7,2.2-6.4,1.2-3.8,1.3c1,0,1.898,0.102,2.898,0.2
					c5.4,0.5,10-4.9,10-10C648.6,491.3,644,487.7,638.6,487.2L638.6,487.2z"/>
			</g>
		</g>
		<g opacity="0.1">
			<g>
				<path d="M270.2,516.9c-0.8-0.4-4.1-2.7-2-1c-0.5-0.4-1-1-1.5-1.5c-1.7-1.802,1.2,1.8-0.2-0.2c-0.9-1.2-1.6-2.602-2.2-3.9
					c-1.2-2.398,0.7,2-0.2-0.6c-0.4-1-0.7-2.102-1.1-3.102c-1-3.3-1.7-6.8-2.3-10.198c-0.2-0.9-0.3-1.802-0.4-2.7
					c-0.4-3,0.3,2.1-0.1-0.9c-0.3-2-0.5-4.1-0.7-6.1c-1.1-10.5-0.2-33.102-15.8-33c-4,0-7.1,2-10,4.6c-1,0.8-1.8,1.8-2.6,2.8
					c-0.6,0.7-3.2,4.102-1.5,1.9c-0.6,0.8-1.2,1.5-1.8,2.3c-3.9,5.102-7.5,9.7-6.4,16.5c1.5,9.102,11.9,8.4,18,5.602
					c4.2-1.9,8-4.7,11.8-7.302c11-7.398,21.6-15.198,32.6-22.5c4.8-3.198,9.6-6.3,14.6-9.1c1-0.6,2.1-1.1,3.1-1.6
					c2.9-1.5-1.3,0.398,0.8-0.4c0.7-0.3,1.5-0.5,2.2-0.7c0.8-0.2-3.1-0.1-0.7,0.2c5.4,0.7,10-5,10-10c0-6-4.6-9.3-10-10
					c-4.7-0.6-9.9,2.3-13.9,4.3c-5.4,2.8-10.5,6.102-15.5,9.5c-11.7,7.7-22.9,16-34.5,23.8c-2.1,1.4-4.2,2.802-6.3,4.102
					c-0.8,0.5-1.7,1-2.6,1.5s-4.2,1.898-0.3,0.3c-1.1,0.5-3,0.5,1.1,0.1c5.2-0.5,10.2,6.9,8.9,11.4c-0.2,0.6-1.3,2.5-0.1,0.4
					c0.6-1,1.3-2,2-2.9c1.3-1.8-1.4,1.8,0.1-0.1c0.5-0.602,1-1.2,1.5-1.9s1-1.3,1.6-2c-0.7,0.9-0.8,1-0.1,0.2c0.4-0.5,0.9-1,1.3-1.5
					c2.2-2.3-1,0.398,0.5-0.5c-3,1.7-7.1,1-9-1c-2-2.102-1.3-1.8-0.8-0.9c-1.5-2.8-0.7-1.7-0.4-0.8c0.3,1,0.5,2,0.7,3.1
					c0.1,0.602,0.2,1.2,0.3,1.802c0.4,2.3-0.3-2.4,0,0c0.2,1.698,0.4,3.5,0.6,5.198c1.7,17.602,2.3,45.5,21.3,54.2
					c5,2.3,10.7,1.5,13.7-3.6C276.3,526.2,275.1,519.1,270.2,516.9L270.2,516.9z"/>
			</g>
		</g>
		<g opacity="0.1">
			<g>
				<path d="M315.8,404.7c-20.4,2.398-40,9.5-57.9,19.6c-18.1,10.2-34.8,24.5-43,43.9c-7.8,18.398-5.7,38.2,9.7,51.8
					c13.9,12.3,32.7,17.9,50,23.6c12.3,4.102,17.5-15.198,5.3-19.3c-13.5-4.5-29.2-9.2-39.5-17.2c-5.4-4.198-8.1-7.698-9.5-12.6
					c-0.9-3.1-0.8-5.2-0.4-9.3c0.3-2.602,1.9-7.4,3.2-10.5c6.4-14.9,20.6-25.4,34.3-33.3c7.8-4.5,16.1-8.2,24.6-11.102
					c7.3-2.5,16.6-4.898,23.2-5.7c5.4-0.6,10-4.1,10-10C325.8,409.8,321.2,404.1,315.8,404.7L315.8,404.7z"/>
			</g>
		</g>
		<g opacity="0.1">
			<g>
				<path d="M353.4,524.2c-16.7-11-35.3-20.2-50.7-32.602c-3.6-2.898-7-6-10.1-9.398c-1.8-2-1.8-2-3-3.7c-0.6-0.8-1.1-1.7-1.6-2.5
					c-0.2-0.3-1.9-3.7-1.1-1.9c-1.8-4.398-1.8-4.6-1.5-9c-0.2,2.2,0.2-0.8,0.3-1.1c0.2-1,0.6-1.9,0.9-2.8c-0.6,1.7,0.8-1.5,0.8-1.5
					c0.7-1.4,1.6-2.602,2.5-3.9c6.5-9.3-8.8-21.1-15.7-12.1c-9.3,12.1-16.3,25.3-15.6,40.898c0.7,14,6.6,27.102,11.1,40.102
					c4.1,12.1,22.5,7.3,19.3-5.3c-4-15.602-14.8-30-15.1-46.5c-0.2-8.102-11.2-14.102-17.1-7.102c-9.7,11.602-13.6,24.7-16.1,39.3
					c6.1-0.8,12.2-1.6,18.3-2.398c-4.9-8.3-8.6-16.7-10.6-26.2c-1.8-8.2-14.5-10.1-18.3-2.4c-3.9,7.9-7.7,15.9-11.6,23.802
					c6.2,1.698,12.4,3.398,18.6,5c-0.3-3.7-1.2-6.4-2.7-9.802c-0.6-1.3-1.3-2.6-1.9-3.8c0,0-1.3-3.6-1.2-2.2
					c-0.6-6.6-8.4-13.698-15-8.6c-5.9,4.5-13.4,6.6-19.3,11.1c4.9,2,9.8,4,14.7,6c-0.3-1.8-1.4-3.5-1.6-5.3
					c-0.8-9.2-10-12.6-17.1-7.1c-8.4,6.5-21.5,7-31.6,8.2c-5.4,0.6-10,4.1-10,10c0,5,4.6,10.6,10,10c16.3-1.9,32.4-3.7,45.7-14
					c-5.7-2.4-11.4-4.7-17.1-7.102c0.3,3.7,1.7,7,2.3,10.602c0.9,6,9.9,9.698,14.7,6c5.9-4.5,13.4-6.602,19.3-11.102
					c-5-2.898-10-5.8-15-8.6c0.3,3.7,1.2,6.398,2.7,9.8c0.6,1.3,1.3,2.6,1.9,3.8c0,0,1.3,3.602,1.2,2.2c0.4,4.5,2.8,8.4,7.3,9.6
					c4.1,1.102,9.3-0.6,11.3-4.6c3.9-7.9,7.7-15.9,11.6-23.8c-6.1-0.8-12.2-1.602-18.3-2.4c2.4,11,6.9,21.3,12.6,30.9
					c4.1,6.898,16.7,6.5,18.3-2.4c1.9-10.8,3.7-21.898,11-30.5c-5.7-2.398-11.4-4.7-17.1-7.1c0.4,18.898,11.2,34.1,15.8,51.8
					c6.4-1.8,12.9-3.5,19.3-5.3c-3.5-10.4-8.9-22.2-10.2-32.4c-1.4-10.898,2.7-20.398,9.5-29.2c-5.2-4-10.5-8.1-15.7-12.1
					c-31.4,44.9,42.3,77.1,70.6,95.8C354.1,548.6,364.1,531.3,353.4,524.2L353.4,524.2z"/>
			</g>
		</g>
		<g opacity="0.1">
			<g>
				<path d="M638.6,507.2c12.9,0,12.9-20,0-20C625.7,487.2,625.7,507.2,638.6,507.2L638.6,507.2z"/>
			</g>
		</g>
		<g opacity="0.1">
			<g>
				<path d="M689.5,562.6c-3-0.198,1.9,0.4-0.9-0.1c-0.8-0.2-1.6-0.4-2.398-0.6c-2.5-0.802,1.8,0.898-0.5-0.2
					c-0.7-0.3-1.302-0.8-1.9-1.2c2.101,1.4-1.1-1.2-1.7-1.9c-1.699-1.898,1.2,1.7-0.199-0.3c-0.601-0.8-1.101-1.7-1.601-2.5
					c-3.399-5.7-5.399-12.1-8.5-17.898c-3.5-6.802-8.899-13-15.899-16.302c-10.101-4.8-19.801-2.698-30.399-2.898
					c-13.2-0.2-26.3-3.3-39.5-4c-6.601-0.3-13.3,0.2-19.8,1.5c-1.2,0.2-2.301,0.5-3.5,0.8c-0.9,0.2-4.7,0.7-0.9,0.2
					c-10.6,1.3-21.5,0.7-32.1,0c-69-4.3-137.2-17.9-206.4-21c-19.4-0.9-39-1-58.2,2.2c-12.6,2.1-27.5,6.6-34.2,18.5
					c-6.4,11.198,10.9,21.3,17.3,10.1c0.5-0.8,2.2-3.2-0.1-0.2c0.5-0.6,1.1-1.2,1.6-1.8c0.3-0.3,0.6-0.6,0.9-0.8
					c1.3-1.102-2.1,1.6-0.7,0.5c0.9-0.602,1.8-1.2,2.7-1.7c0.8-0.5,1.7-0.9,2.6-1.3c2.2-1-2.1,0.8,1-0.4c2.3-0.898,4.8-1.6,7.2-2.2
					c2.5-0.6,5.1-1.1,7.6-1.5c0.7-0.1,1.4-0.198,2.1-0.3c2.4-0.398-2.3,0.3,0.2,0c1.7-0.2,3.4-0.398,5.2-0.6
					c6.8-0.602,13.7-0.9,20.5-0.9c34.5-0.398,69.1,3.5,103.399,7.5c35,4,70,8.9,105,12.3c13.199,1.302,26.399,2.4,39.699,2.5
					c12.602,0.102,24.801-3.5,37.301-3.198c16.101,0.3,31.899,5.198,48,3.898c3.199-0.3,6.301-0.6,9.5-0.398
					c1.301,0.1,1.399,0.1,0.301,0c0.6,0.1,1.199,0.198,1.8,0.398c0.399,0.102,3.899,1.3,1.7,0.4c1,0.398,1.898,1,2.8,1.6
					c1.399,0.9-1-1,1,0.8c0.8,0.7,1.399,1.5,2.101,2.2c-1.7-1.898,0.399,0.7,0.699,1.102c4.5,6.8,6.7,14.898,10.9,22
					c5.8,9.8,14.898,15.3,26.1,16.1c5.4,0.4,10-4.9,10-10C699.5,566.9,694.9,563,689.5,562.6L689.5,562.6z"/>
			</g>
		</g>
		<path fill="none" stroke="#000000" stroke-miterlimit="10" d="M703.7,144c77.2,79.2-81-36.6-83.2-37.1c-42.1-8.5-73.3-27-114.7-40
			c-43.1-13.5-86.4,0.6-130.7,6.5c-27.7,3.7-45.6,22-71.5,30.2c-16.5,5.2-32.1,7.8-47.4,16.7c-24.4,14.2-22.3,8.6-40.1,19.5
			c-27.1,16.6-37-5.5-71.6,8.2c-15.2,6,2.4,38.6-42.9,24.6c-11.3-3.5-14,8.7-28.2-4.1"/>
		<path fill="none" stroke="#000000" stroke-miterlimit="10" d="M700,196.5c-31.8-11-43.4-23.5-59.3-52.2
			c-13-23.5-37.9-22.3-63.5-33.7C539.9,94,494.4,69.1,454.3,65c-38.1-3.9-76.8,12.1-115.5,15.7c-38.8,3.6-62.2,21-97.6,34.9
			c-31.7,12.5-40.1,17.6-71.1,30.9c-19.6,8.4-26.3,40.4-125.4,40.4"/>
		<path fill="none" stroke="#000000" stroke-miterlimit="10" d="M87.7,177.2c16.5-1.3,31-8.601,49.5-8.8c20.3-0.2,38.8,2,58.6,4.898
			c46.6,6.7,71,30.102,114.8,33.7c33,2.7,58.6,24.8,91.2,29.399c28.8,4.101,67.602,1.199,96.5-1.5
			C568.7,228.3,638.9,183.8,703.6,224.6"/>
		<path fill="none" stroke="#000000" stroke-miterlimit="10" d="M676.8,212.7c-15.8-7-28-21.8-26.4-17.101
			c-5.398-16.301,15-11,26.4-11"/>
		<path fill="none" stroke="#000000" stroke-miterlimit="10" d="M698.2,225.7c-35.8-13.101-66.5,6.2-100,15.6
			c-31,8.8-73.102,10.8-107.5,12.601c-82.5,4.5-145-19.199-216.8-37.5c-6.2-1.601-12.1-3-17.9-4.101"/>
		<path fill="none" stroke="#000000" stroke-miterlimit="10" d="M221.1,205.3c-19.7-36.7-87.6-18.3-119.3-19.3"/>
		<path fill="none" stroke="#000000" stroke-miterlimit="10" d="M620.1,117.6c-11.3-17.7,21.9-29,8.2-47.3"/>
		<path fill="none" stroke="#000000" stroke-miterlimit="10" d="M589.4,100.9C572.8,98.5,578.8,64.6,567.5,52.7"/>
		<path fill="none" stroke="#000000" stroke-miterlimit="10" d="M477.1,49.7c2.802,8.9,5.4,17.9,12.5,24.2"/>
		<path fill="none" stroke="#000000" stroke-miterlimit="10" d="M450.9,70.2c-6.602-10.8-10.2-22.1-10.5-35.1"/>
		<path fill="none" stroke="#000000" stroke-miterlimit="10" d="M428.5,66.7c-13.101-3.7-36.7-10-33.3-28.1"/>
		<path fill="none" stroke="#000000" stroke-miterlimit="10" d="M373.2,72.1c-10.5-2.5-19.5,0.1-24.1-9.5"/>
		<path fill="none" stroke="#000000" stroke-miterlimit="10" d="M329.8,85.6c-9.3-0.7-30.4-15.4-35.7-21.3"/>
		<path fill="none" stroke="#000000" stroke-miterlimit="10" d="M234.2,93c7.5,3.6,24.4,16.3,32.6,16.5"/>
		<path fill="none" stroke="#000000" stroke-miterlimit="10" d="M170.2,110.5c5.4,4.7,13.7,7.1,21.1,10.5"/>
		<path fill="none" stroke="#000000" stroke-miterlimit="10" d="M170.2,135.1c-9.7,0.2-20.7,2.3-26.3-7"/>
		<path fill="none" stroke="#000000" stroke-miterlimit="10" d="M138.6,152.6c-9.6-0.9-18.1-5-24.6-12.3"/>
		<path fill="none" stroke="#000000" stroke-miterlimit="10" d="M486,44.7c13,3.6,8.2,16.4,12.3,29.8"/>
		<path fill="none" stroke="#000000" stroke-miterlimit="10" d="M476.7,73.7c-7.9-11.3-14.102-21.6-17.5-35.1"/>
		<path fill="none" stroke="#000000" stroke-miterlimit="10" d="M511.2,43c8.8,37.3,14.8,43.7,10.5,36.8"/>
		<path fill="none" stroke="#000000" stroke-miterlimit="10" d="M545.4,89.2c-1.602-9.9,2-25.9-3.102-34.1"/>
		<path fill="none" stroke="#000000" stroke-miterlimit="10" d="M433.4,246.6c-13.2,0.301-24.8,5.5-33.3,15.801"/>
		<path fill="none" stroke="#000000" stroke-miterlimit="10" d="M311.3,249.4c11.5-4.4,24.9-12.7,37.3-10.602"/>
		<path fill="none" stroke="#000000" stroke-miterlimit="10" d="M308.8,228.1c-16.7,0-35.9-1.1-50.9,5.301"/>
		<path fill="none" stroke="#000000" stroke-miterlimit="10" d="M254.4,207c-12.8,2.8-19.8,5.4-29.8,14"/>
		<path fill="none" stroke="#000000" stroke-miterlimit="10" d="M147.4,198.2c10-10.9,27.5-20.101,42.1-19.3"/>
		<g opacity="0.1">
			<g>
				<path d="M706.2,192.1c-4.3-0.8-6.6-1.8-9.4-3.199c-4-2-7.8-4.601-11.4-7.301C677.5,175.7,669.8,167.4,663.1,159.7
					s-12.8-16-18.398-24.5c-2.602-3.9-5-8-7.3-12.1c-1-1.8-2-3.7-2.9-5.6c-0.4-0.9-0.8-1.7-1.3-2.6c-0.3-0.6-0.5-1.1-0.8-1.7
					c0.398,1,0.398,1,0,0c-2.102-5-6.602-8.6-12.302-7c-4.8,1.3-9,7.2-7,12.3c8.302,20.4,21.5,38.7,35.7,55.3
					c13.3,15.5,31.1,33.601,52,37.7c5.3,1,10.8-1.4,12.3-7C714.5,199.5,711.5,193.1,706.2,192.1L706.2,192.1z"/>
			</g>
		</g>
		<g opacity="0.1">
			<g>
				<path d="M720,187.4c-22.2-7.4-43.2-15.7-64.4-25.102c-10.898-4.9-21.3-9.8-31.3-16.3c-11-7.1-21.898-14.2-33.898-19.7
					c-13.102-6.1-27-10.3-40.302-16c-10.398-4.4-20.5-9.3-30.8-13.9C500,87.7,480.7,81.6,459.4,80c-29.4-2.2-59.602-0.6-88.9,1.8
					c-29.4,2.4-58.7,6.7-87.4,13.3c-27,6.1-53.4,14.5-79,25.2c-29.4,12.3-58.9,24.5-88.1,37.2c-12.5,5.4-24.8,11-37.1,16.9
					c-4.9,2.3-6.2,9.3-3.6,13.699c2.9,5,8.8,5.899,13.7,3.601c28.7-13.7,58-25.8,87.4-38.1c26.8-11.2,53.2-22.8,81-31.1
					c56.3-16.8,115.1-23,173.7-23.1c12.302,0,25.602-0.2,37.4,1.5c9.6,1.4,19,4.1,28.1,7.5c20.5,7.6,41.5,18.8,62.7,27.1
					c13.3,5.2,26,9.9,38.3,17.2c10.302,6.1,19.9,13.2,30.5,18.8c10.302,5.5,21.501,9.9,32.302,14.6
					c10.199,4.4,20.398,8.602,30.898,12.4c7.801,2.9,15.7,5.5,23.5,8.2C727,210.8,732.2,191.5,720,187.4L720,187.4z"/>
			</g>
		</g>
		<g opacity="0.1">
			<g>
				<path d="M706.2,160.5c-18.5-5.2-34-17.1-49.1-28.6c-16.4-12.5-32.9-24.6-52.7-31c-12.302-4-17.5,15.3-5.302,19.3
					c18.4,6,33.9,18.3,49.102,29.9c16.2,12.4,32.8,24.1,52.7,29.7C713.3,183.3,718.6,164,706.2,160.5L706.2,160.5z"/>
			</g>
		</g>
		<g opacity="0.1">
			<g>
				<path d="M712.3,216.3c-14.1-1.399-28.3-2.399-42.5-1.899c-14.6,0.601-29.2,3.5-43.8,5c-13.8,1.399-28.4,2.399-41.7,6.601
					c-5.7,1.8-11.398,3.3-17.3,4.5c-2.5,0.5-4.9,0.899-7.4,1.3c-0.6,0.102-1.198,0.2-1.8,0.301c3.102-0.399,0.8-0.101,0.2,0
					c-1.5,0.199-2.9,0.301-4.4,0.5c-5.898,0.601-11.898,1-17.8,1.399c-19.398,1.3-38.7,2.899-58,5.101
					c-14.6,1.601-29.2,4-43.898,4.699c-13.602,0.602-27.4-0.3-40.801-2.398C365.2,237.1,338.3,228.2,311.9,218.6
					c-27-9.8-53.6-20.6-80.9-29.398c-14-4.5-28.2-8.7-42.7-10.801c-15.6-2.301-31.3-2.601-47-2.5c-6.7,0-13.3,0.199-20,0.199
					c-12.9,0-12.9,20,0,20c15.3,0,30.6-0.5,45.9,0.2c15,0.7,29.3,3.7,43.7,7.8c27.6,7.801,54.4,18.4,81.2,28.5
					c26.5,10,53.2,19.5,80.9,25.5c28.601,6.2,56.8,7,85.7,3.4c22.5-2.8,45-5.1,67.6-6.7c12.8-0.899,25.5-1.6,38.2-3.399
					c14.9-2.199,29.1-7.5,44-9.699c14.3-2.2,28.8-3,43.2-5s28.4-2.5,43-1.7c6,0.399,11.9,0.899,17.8,1.5c5.4,0.5,10-5,10-10
					C722.3,220.5,717.8,216.9,712.3,216.3L712.3,216.3z"/>
			</g>
		</g>
		<g opacity="0.1">
			<g>
				<path d="M233.2,182.6c-9.7-4.199-20.6-9.6-26.9-18.6c-5.9-8.4-3.4-18.2,4.5-25.7c7.7-7.3,19.4-10.1,29.3-13.3
					c12.1-3.9,23.7-8.3,33.8-16.2c4.3-3.4,3.5-10.6,0-14.1c-4.2-4.2-9.9-3.4-14.1,0c-9.6,7.6-22.8,10.3-34.2,14.1
					c-13.6,4.5-26.6,10.8-35.1,22.7c-8.8,12.5-9.9,28.4-2.1,41.6c7.6,12.7,21.6,21,34.8,26.801c5,2.199,10.7,1.5,13.7-3.601
					C239.3,192,238.2,184.8,233.2,182.6L233.2,182.6z"/>
			</g>
		</g>
		<g opacity="0.1">
			<g>
				<path d="M329.8,83c-20.4,2.4-40,9.5-57.9,19.6c-18.1,10.2-34.8,24.5-43,43.9c-7.8,18.4-5.7,38.2,9.7,51.8
					c13.9,12.3,32.7,17.9,50,23.601c12.3,4.101,17.5-15.199,5.3-19.301c-13.5-4.5-29.2-9.199-39.5-17.199
					c-5.4-4.199-8.1-7.699-9.5-12.601c-0.9-3.1-0.8-5.2-0.4-9.3c0.3-2.6,1.9-7.4,3.2-10.5c6.4-14.9,20.6-25.4,34.3-33.3
					c7.8-4.5,16.1-8.2,24.6-11.1c7.3-2.5,16.6-4.9,23.2-5.7c5.4-0.6,10-4.1,10-10C339.8,88,335.3,82.3,329.8,83L329.8,83z"/>
			</g>
		</g>
		<g opacity="0.1">
			<path d="M414.621,71.429c-19.289,7.195-39.374,11.261-59.66,14.451c-20.601,3.24-41.151,6.394-61.651,10.238
				c-9.682,1.816-19.312,3.874-28.896,6.129c-1.218-7.892-13.087-12.399-18.615-3.748c-2.045,3.218-3.91,6.516-5.546,9.896
				c-24.912,6.809-49.47,14.934-73.633,24.033c-5.976,2.25-3.388,11.92,2.658,9.644c1.636-0.616,3.277-1.22,4.917-1.827
				c-0.099,0.085-0.199,0.166-0.296,0.255c-7.9,7.5-20.4,8.3-30.7,9.7c-5.4,0.8-8.3,7.6-7,12.3c1.6,5.8,6.9,7.8,12.3,7
				c9.355-1.31,18.705-2.89,27.108-6.699c3.47,3.933,9.315,5.058,14.191,0.601c1.268-1.168,3.086-2.404,5.126-3.705
				c0.285,0.783,0.474,1.437,0.474,1.805c0.776,11.344,14.615,12.91,19.195,3.609c0.984,2.276,2.012,4.543,3.105,6.791
				c3.6,7.3,17.1,6.199,18.3-2.4c0.257-1.825,0.52-3.645,0.8-5.453c0.254,0.745,0.507,1.49,0.76,2.235
				c1.746,6.237,3.722,12.415,5.438,18.556c0.034,0.154,0.07,0.309,0.103,0.462c0.01-0.003,0.02-0.006,0.03-0.009
				c2.652,9.205,13.444,8.631,17.74,2.604c9.687,12.928,21.212,24.383,32.129,33.307c4.2,3.398,10,4.1,14.1,0
				c3.5-3.7,4.2-10.801,0-14.2c-15.4-12.601-29-27.601-38.9-44.8c-8.622-14.884-13.947-32.65-7.458-48.739
				c11.055-2.718,22.177-5.18,33.368-7.346c20.51-3.97,41.099-7.15,61.743-10.318c20.878-3.204,41.585-7.324,61.427-14.726
				C423.265,78.839,420.676,69.17,414.621,71.429z M225.308,131.545c-1.117-3.189-4.388-5.492-7.665-6.089
				c4.717-1.462,9.445-2.884,14.188-4.256c-0.631,0.573-1.214,1.239-1.731,2.001C228.238,125.895,226.668,128.685,225.308,131.545z
				 M209.186,128.126c-1.197,1.215-2.128,2.749-2.786,4.474c-0.399,1.003-0.798,1.997-1.197,2.997
				c-3.535-2.103-8.254-2.011-12.003,1.403c-1.286,1.185-3.14,2.44-5.215,3.762c-1.802-1.85-4.225-2.972-6.77-3.081
				C190.486,134.337,199.809,131.145,209.186,128.126z"/>
		</g>
		<g opacity="0.1">
			<g>
				<path d="M656.7,172.8c-0.1,14.3-4.7,31.101-17.9,38.7c-11.1,6.5-1.1,23.8,10.1,17.3c19.302-11.3,27.5-34.6,27.802-56
					C676.8,159.9,656.8,159.9,656.7,172.8L656.7,172.8z"/>
			</g>
		</g>
		<g opacity="0.1">
			<g>
				<path d="M628.6,159.6c0.102,19.7,3.9,44.102-11.1,59.602c-9,9.3,5.2,23.398,14.1,14.1c19.5-20.199,17-47.898,17-73.699
					C648.6,146.8,628.6,146.8,628.6,159.6L628.6,159.6z"/>
			</g>
		</g>
		<g opacity="0.1">
			<g>
				<path d="M634.2,160.8c3.6,11.101,5.6,21.2,5.1,32.8c-0.398,9-3.3,18-8.5,26c-4.8,7.4-12.3,13.7-20.6,18.5
					c-10.9,6.301-23.3,9.602-35.7,11.9c-5.4,1-8.3,7.4-7,12.3c1.5,5.601,6.9,8,12.3,7c26.602-4.8,52.9-16.399,68.3-39.5
					c14.602-21.899,13.3-50.2,5.4-74.2C649.5,143.3,630.2,148.5,634.2,160.8L634.2,160.8z"/>
			</g>
		</g>
		<g opacity="0.1">
			<g>
				<path d="M686.5,211.4c-14-0.9-27.8-3.5-41.8-4.4c-14.5-1-28.8,1.2-42.2,6.8c-13.4,5.7-27,10.8-40.5,16.2
					c-7.6,3.1-15,6.3-23.1,7.8c-0.7,0.101-5.302,0.8-2.602,0.5c-1.6,0.2-3.2,0.4-4.8,0.5c-3.7,0.3-7.5,0.5-11.3,0.5
					c-8.2,0.101-16.4-0.3-24.5-0.899c-4.3-0.301-8.601-0.801-12.9-1.199c-2.199-0.2-4.398-0.5-6.699-0.801
					c-2.399-0.301-5-0.601-6.399-0.801c-40.3-5.5-80.1-14.398-119.9-23c-17.3-3.699-34.7-7.5-52.1-10.6c-12.7-2.3-25.8-4.7-38.7-4.9
					c-0.3,0-0.7,0-1,0c-12.9-0.1-12.9,19.9,0,20c5.2,0,10.5,0.5,15.7,1.2c0.5,0.101,3,0.4,0.3,0c0.8,0.101,1.5,0.2,2.3,0.3
					c1.6,0.2,3.2,0.5,4.8,0.7c3.8,0.601,7.6,1.3,11.3,1.9c17.5,3.2,34.8,6.899,52.1,10.6c39.8,8.5,79.6,17.4,119.9,23
					c31.698,4.4,66.3,9.101,96.698-3.1C575.7,245.8,590.4,240,605,234.1c12.2-4.898,23.3-7.8,36.5-7.398
					c13.9,0.398,27.5,3.199,41.3,4.3c1.2,0.101,2.4,0.2,3.602,0.2C699.4,232.2,699.3,212.2,686.5,211.4L686.5,211.4z"/>
			</g>
		</g>
	</g>
</g>
</svg>
