<?xml version="1.0" encoding="utf-8"?>
<!-- Generator: Adobe Illustrator 16.0.0, SVG Export Plug-In . SVG Version: 6.00 Build 0)  -->
<!DOCTYPE svg PUBLIC "-//W3C//DTD SVG 1.1//EN" "http://www.w3.org/Graphics/SVG/1.1/DTD/svg11.dtd">
<svg version="1.1" id="Layer_1" xmlns="http://www.w3.org/2000/svg" xmlns:xlink="http://www.w3.org/1999/xlink" x="0px" y="0px"
	 width="999.139px" height="440.152px" viewBox="0 0 999.139 440.152" enable-background="new 0 0 999.139 440.152"
	 xml:space="preserve">
<g opacity="0.1">
	<g>
		<path d="M36.937,414.05c13.049,7.579,27.466,13.978,42.214,17.339c13.808,3.147,29.022,5.403,43.334,3.947
			c14.419-1.468,28.749-3.063,42.265-8.394c13.547-5.342,26.81-10.793,39.006-18.729c33.896-22.056,60.531-51.13,85.49-82.46
			c8.105-10.175,15.936-22.215,26.325-30.262c-5.06,3.909-10.12,7.818-15.179,11.728c0.896-0.673,1.821-1.288,2.835-1.768
			c-5.972,2.52-11.944,5.04-17.916,7.561c27.412-11.037,56.674-15.785,85.164-23.134c19.796-5.106,38.537-12.469,57.151-20.991
			c18.67-8.547,33.845-22.039,49.864-34.652c-5.06,3.909-10.119,7.818-15.179,11.728c9.439-7.243,19.71-13.101,30.643-17.775
			c-5.972,2.52-11.944,5.041-17.916,7.56c17.516-7.283,36.032-11.367,54.78-13.908c-6.646,0.893-13.292,1.786-19.938,2.679
			c29.217-3.826,58.706-3.831,88.014-6.504c35.06-3.198,69.868-10.693,105.173-6.013c-6.646-0.893-13.292-1.786-19.938-2.679
			c8.553,1.24,17.12,2.377,25.688,3.513c-6.646-0.893-13.292-1.786-19.938-2.679c49.386,6.667,97.851,18.492,147.011,26.497
			c6.646,0.894,13.291,1.786,19.938,2.68c13.538-0.043,26.156-3.456,37.854-10.24c16.766-9.821,29.311-26.075,34.468-44.822
			c5.324-19.358,2.586-40.471-7.562-57.792c-3.908-5.06-7.817-10.119-11.727-15.179c-9.358-9.295-20.39-15.724-33.096-19.288
			c-25.315-4.122-50.446-9.217-75.602-14.204c-30.969-6.14-61.971-11.079-93.273-15.227c6.646,0.893,13.292,1.786,19.938,2.679
			c-20.654-3.257-40.673-5.564-61.516-4.506c-14.385,0.73-28.688,2.665-42.968,4.47c-26.217,3.314-52.469,4.453-78.816,6.144
			c-29.516,1.894-59.626,4.815-88.196,12.735c-16.958,4.701-33.562,11.712-49.149,19.778c-16.39,8.481-30.093,20.984-44.539,32.279
			c5.06-3.909,10.119-7.818,15.179-11.728c-9.384,7.137-19.64,12.793-30.48,17.394c5.972-2.521,11.944-5.041,17.916-7.561
			c-24.073,9.965-49.797,14.717-75.028,20.742c-12.815,3.06-25.534,6.535-37.91,11.076c-18.632,6.836-30.264,12.276-44.742,25.868
			c-8.35,7.839-15.201,17.433-22.306,26.365c-10.119,12.722-20.379,25.336-31.458,37.243c-9.267,9.96-19.152,19.378-29.917,27.711
			c5.06-3.908,10.119-7.817,15.179-11.727c-9.085,6.95-18.778,13.063-29.312,17.576c5.972-2.521,11.944-5.041,17.916-7.561
			c-7.149,2.981-14.552,5.149-22.23,6.227c6.646-0.893,13.292-1.786,19.938-2.679c-6.452,0.822-12.906,0.842-19.359,0.018
			c6.646,0.893,13.292,1.786,19.938,2.679c-6.553-0.93-12.874-2.702-19-5.198c5.972,2.521,11.944,5.041,17.916,7.562
			c-3.872-1.638-7.603-3.525-11.238-5.637c-35.366-20.542-81.928-8.406-102.614,26.907C-10.585,346.628,1.643,393.548,36.937,414.05
			L36.937,414.05z"/>
	</g>
</g>
<g opacity="0.9">
	<g>
		<path fill="#606161" d="M59.548,277.304c16.653,2.124,31.283,9.605,47.161,14.381c15.978,4.806,31.401,2.223,46.343-4.709
			c2.923-1.355,0.381-5.664-2.523-4.316c-15.732,7.297-30.711,8.282-47.071,2.735c-14.677-4.976-28.363-11.108-43.909-13.091
			C56.355,271.896,56.395,276.901,59.548,277.304L59.548,277.304z"/>
	</g>
</g>
<g opacity="0.9">
	<g>
		<path fill="#606161" d="M36.074,277.086c8.004,34.429,51.417,27.533,77.833,28.774c3.225,0.151,3.21-4.85,0-5
			c-23.83-1.119-65.737,6.188-73.012-25.104C40.165,272.616,35.344,273.948,36.074,277.086L36.074,277.086z"/>
	</g>
</g>
<g opacity="0.9">
	<g>
		<path fill="#606161" d="M14.928,294.612c25.291,12.115,51.038,25.704,79.869,24.99c3.219-0.08,3.226-5.08,0-5
			c-27.93,0.691-52.849-12.572-77.346-24.307C14.559,288.91,12.021,293.22,14.928,294.612L14.928,294.612z"/>
	</g>
</g>
<g opacity="0.9">
	<g>
		<path fill="#606161" d="M10.176,320.257c25.987,12.209,54.894,16.396,83.391,13.76c3.183-0.295,3.211-5.297,0-5
			c-27.58,2.552-55.683-1.245-80.867-13.076C9.799,314.577,7.259,318.887,10.176,320.257L10.176,320.257z"/>
	</g>
</g>
<g opacity="0.9">
	<g>
		<path fill="#606161" d="M19.031,356.692c23.143,1.224,43.011-10.15,61.661-22.516c2.674-1.771,0.172-6.104-2.523-4.316
			c-17.928,11.886-36.86,23.01-59.138,21.832C15.808,351.521,15.824,356.522,19.031,356.692L19.031,356.692z"/>
	</g>
</g>
<g opacity="0.9">
	<g>
		<path fill="#606161" d="M27.487,366.183c7.648,12.36,23.774,10.188,35.88,7.227c15.011-3.672,28.819-10.956,43.711-14.896
			c3.114-0.824,1.792-5.647-1.329-4.822c-12.926,3.421-25.106,9.391-37.902,13.288c-10.551,3.215-28.782,8.416-36.043-3.32
			C30.112,360.924,25.785,363.433,27.487,366.183L27.487,366.183z"/>
	</g>
</g>
<g opacity="0.9">
	<g>
		<path fill="#606161" d="M20.813,400.829c26.568,1.085,52.578-10.316,72.001-28.043c2.387-2.178-1.16-5.704-3.535-3.535
			c-18.481,16.866-43.21,27.609-68.466,26.578C17.588,395.697,17.601,400.698,20.813,400.829L20.813,400.829z"/>
	</g>
</g>
<g opacity="0.9">
	<g>
		<path fill="#606161" d="M44.62,409.236c23.374,3.309,42.339-12.815,60.036-25.61c2.586-1.869,0.095-6.21-2.523-4.316
			c-16.203,11.713-34.635,28.155-56.183,25.104C42.796,403.968,41.438,408.785,44.62,409.236L44.62,409.236z"/>
	</g>
</g>
<g opacity="0.9">
	<g>
		<path fill="#606161" d="M94.596,414.683c6.825-3.714,13.555-7.598,20.337-11.389c2.814-1.572,0.294-5.892-2.523-4.316
			c-6.782,3.79-13.512,7.674-20.337,11.389C89.24,411.907,91.763,416.225,94.596,414.683L94.596,414.683z"/>
	</g>
</g>
<g opacity="0.9">
	<g>
		<path fill="#606161" d="M56.505,430.637c6.772-1.733,13.29-4.122,19.71-6.872c2.956-1.266,0.406-5.571-2.523-4.316
			c-6.018,2.576-12.172,4.743-18.516,6.366C52.054,426.613,53.379,431.437,56.505,430.637L56.505,430.637z"/>
	</g>
</g>
<g opacity="0.9">
	<g>
		<path fill="#606161" d="M98.226,439.44c1.221-0.982,2.245-1.776,3.459-2.688c1.088-0.815,1.646-2.143,0.897-3.42
			c-0.629-1.075-2.328-1.717-3.42-0.896c-1.509,1.131-3.001,2.286-4.471,3.469c-1.063,0.855-0.886,2.65,0,3.535
			C95.731,440.481,97.165,440.294,98.226,439.44L98.226,439.44z"/>
	</g>
</g>
<g opacity="0.9">
	<g>
		<path fill="#606161" d="M39.199,360.55c22.616-0.303,44.632-5.287,66.484-10.696c3.129-0.775,1.801-5.597-1.329-4.822
			c-21.427,5.305-42.976,10.222-65.155,10.519C35.978,355.593,35.973,360.593,39.199,360.55L39.199,360.55z"/>
	</g>
</g>
<g opacity="0.9">
	<g>
		<path fill="#606161" d="M20.649,301.344c-7.286,21.853,3.617,45.764,23.938,56.017c2.871,1.449,5.403-2.864,2.523-4.316
			c-18.432-9.301-28.261-30.512-21.64-50.37C26.493,299.605,21.664,298.302,20.649,301.344L20.649,301.344z"/>
	</g>
</g>
<g opacity="0.9">
	<g>
		<path fill="#606161" d="M15.693,348.995c2.221,33.603,44.318,34.613,69.542,32.568c3.19-0.259,3.216-5.261,0-5
			c-21.839,1.771-62.557,2.466-64.542-27.568C20.482,345.795,15.48,345.774,15.693,348.995L15.693,348.995z"/>
	</g>
</g>
<g opacity="0.9">
	<g>
		<path fill="#606161" d="M16.143,384.003c13.052,30.123,53.4,19.675,77.465,12.222c3.07-0.951,1.759-5.778-1.329-4.822
			C70.4,398.18,32.445,409.14,20.46,381.479C19.182,378.527,14.875,381.076,16.143,384.003L16.143,384.003z"/>
	</g>
</g>
<g opacity="0.9">
	<g>
		<path fill="#606161" d="M63.672,406.166c27.558,9.947,58.711,1.87,83.61-11.64c2.834-1.537,0.311-5.854-2.523-4.316
			c-23.794,12.909-53.428,20.639-79.757,11.134C61.961,400.247,60.664,405.079,63.672,406.166L63.672,406.166z"/>
	</g>
</g>
<g opacity="0.9">
	<g>
		<path fill="#606161" d="M98.928,393.377c53.532,9.48,106.793-19.559,146.92-52.362c2.498-2.042-1.062-5.558-3.535-3.535
			c-38.586,31.544-90.511,60.204-142.056,51.075C97.105,387.997,95.757,392.815,98.928,393.377L98.928,393.377z"/>
	</g>
</g>
<g opacity="0.9">
	<g>
		<path fill="#606161" d="M141.282,381.746c3.958-11.73,13.646-19.386,22.132-27.824c9.774-9.72,19.184-19.968,28.263-30.343
			c18.727-21.398,35.601-44.368,51.558-67.883c1.816-2.676-2.519-5.175-4.317-2.523c-16.392,24.155-33.794,47.607-53.104,69.522
			c-9.013,10.229-18.395,20.34-28.142,29.867c-8.576,8.383-17.268,16.17-21.21,27.854
			C135.427,383.48,140.257,384.784,141.282,381.746L141.282,381.746z"/>
	</g>
</g>
<g opacity="0.9">
	<g>
		<path fill="#606161" d="M128.429,340.839c34.266-3.866,67.184-22.476,92.284-45.529c2.379-2.186-1.166-5.712-3.535-3.535
			c-24.028,22.068-55.902,40.358-88.749,44.064C125.262,336.196,125.228,341.2,128.429,340.839L128.429,340.839z"/>
	</g>
</g>
<g opacity="0.9">
	<g>
		<path fill="#606161" d="M121.163,313.596c29.73-4.077,55.537-21.824,77.693-41.068c23.497-20.408,43.689-44.221,64.163-67.557
			c2.117-2.413-1.405-5.963-3.535-3.535c-19.487,22.211-38.746,44.673-60.72,64.507c-22.221,20.057-48.58,38.669-78.93,42.831
			C116.651,309.21,118.011,314.027,121.163,313.596L121.163,313.596z"/>
	</g>
</g>
<g opacity="0.9">
	<g>
		<path fill="#606161" d="M173.181,294.551c58.234-9.734,107.533-51.503,148.112-91.863c2.289-2.276-1.248-5.811-3.535-3.535
			c-40.024,39.809-88.464,80.975-145.906,90.576C168.677,290.26,170.028,295.077,173.181,294.551L173.181,294.551z"/>
	</g>
</g>
<g opacity="0.9">
	<g>
		<path fill="#606161" d="M277.65,233.132c33.72-17.73,63.597-41.19,88.848-69.716c2.129-2.404-1.394-5.954-3.535-3.535
			c-24.99,28.23-54.463,51.386-87.836,68.934C272.272,230.316,274.8,234.631,277.65,233.132L277.65,233.132z"/>
	</g>
</g>
<g opacity="0.9">
	<g>
		<path fill="#606161" d="M348.518,191.657c18.424-4.165,33.206-17.178,45.879-30.517c13.692-14.411,25.227-30.738,39.123-44.955
			c2.254-2.306-1.279-5.844-3.535-3.535c-12.888,13.186-23.806,28.163-36.198,41.802c-12.682,13.958-27.648,28.1-46.599,32.384
			C344.044,187.547,345.378,192.367,348.518,191.657L348.518,191.657z"/>
	</g>
</g>
<g opacity="0.9">
	<g>
		<path fill="#606161" d="M361.372,161.153c46.364-19.291,70.69-68.055,113.72-92.23c2.811-1.579,0.291-5.898-2.523-4.317
			c-42.57,23.916-66.809,72.705-112.526,91.726C357.11,157.552,358.395,162.392,361.372,161.153L361.372,161.153z"/>
	</g>
</g>
<g opacity="0.9">
	<g>
		<path fill="#606161" d="M282.132,218.011c-0.554-17.014,10.081-31.164,21.339-42.847c11.323-11.75,24.45-21.531,36.603-32.368
			c2.411-2.15-1.138-5.674-3.535-3.535c-13.22,11.789-27.436,22.424-39.517,35.45c-11.005,11.866-20.435,26.543-19.889,43.3
			C277.236,221.227,282.237,221.237,282.132,218.011L282.132,218.011z"/>
	</g>
</g>
<g opacity="0.9">
	<g>
		<path fill="#606161" d="M344.373,166.539C373.393,124.238,407.273,83.21,448,51.655c2.546-1.973-1.02-5.484-3.535-3.535
			c-41.062,31.813-75.15,73.246-104.41,115.896C338.226,166.682,342.561,169.18,344.373,166.539L344.373,166.539z"/>
	</g>
</g>
<g opacity="0.9">
	<g>
		<path fill="#606161" d="M430.583,120.358c0.484-11.886,9.369-22.741,16.804-31.275c11.158-12.807,24.242-23.948,37.515-34.486
			c23.143-18.374,47.9-35.233,73.549-49.928c2.797-1.602,0.279-5.923-2.523-4.317c-26.746,15.323-52.405,33.022-76.485,52.241
			c-13.415,10.708-26.474,22.16-37.592,35.282c-7.669,9.053-15.766,20.162-16.268,32.483
			C425.452,123.583,430.452,123.57,430.583,120.358L430.583,120.358z"/>
	</g>
</g>
<g opacity="0.9">
	<g>
		<path fill="#606161" d="M497.561,104.736c12.544-13.275,28.837-23.493,43.833-33.717c15.883-10.83,32.072-21.195,48.233-31.601
			c2.7-1.739,0.196-6.069-2.523-4.317c-16.162,10.406-32.336,20.791-48.233,31.601c-15.331,10.424-32.03,20.938-44.844,34.5
			C491.813,103.542,495.342,107.084,497.561,104.736L497.561,104.736z"/>
	</g>
</g>
<g opacity="0.9">
	<g>
		<path fill="#606161" d="M588.402,75.812c23.015-27.365,57.951-42.9,89.47-58.129c2.902-1.402,0.366-5.713-2.523-4.317
			c-31.894,15.411-67.188,31.215-90.481,58.911C582.807,74.727,586.324,78.283,588.402,75.812L588.402,75.812z"/>
	</g>
</g>
<g opacity="0.9">
	<g>
		<path fill="#606161" d="M629.929,60.764c18.213-15.483,44.025-22.479,67.446-24.348c3.191-0.255,3.217-5.257,0-5
			c-24.85,1.983-51.672,9.397-70.981,25.813C623.934,59.32,627.488,62.839,629.929,60.764L629.929,60.764z"/>
	</g>
</g>
<g opacity="0.9">
	<g>
		<path fill="#606161" d="M598.783,110.924c33.034-33.316,73.429-54.965,118.29-67.91c3.092-0.892,1.775-5.717-1.33-4.821
			c-45.655,13.174-86.878,35.291-120.495,69.196C592.977,109.68,596.511,113.216,598.783,110.924L598.783,110.924z"/>
	</g>
</g>
<g opacity="0.9">
	<g>
		<path fill="#606161" d="M669.221,94.595c38.85-27.293,79.109-54.737,125.715-66.629c3.123-0.797,1.798-5.619-1.328-4.821
			c-47.029,12-87.704,39.59-126.91,67.133C664.081,92.116,666.575,96.454,669.221,94.595L669.221,94.595z"/>
	</g>
</g>
<g opacity="0.9">
	<g>
		<path fill="#606161" d="M733.242,82.891c31.826-18.385,70.787-14.755,106.019-13.035c3.225,0.157,3.209-4.843,0-5
			c-36.188-1.767-75.87-5.156-108.542,13.718C727.929,80.186,730.445,84.507,733.242,82.891L733.242,82.891z"/>
	</g>
</g>
<g opacity="0.9">
	<g>
		<path fill="#606161" d="M268.14,407.991c7.58-0.555,15.149-1.229,22.711-1.994c3.176-0.321,3.208-5.324,0-5
			c-7.562,0.765-15.131,1.439-22.711,1.994C264.944,403.226,264.921,408.227,268.14,407.991L268.14,407.991z"/>
	</g>
</g>
<g opacity="0.9">
	<g>
		<path fill="#606161" d="M282.737,356.859c25.342-7.54,51.483-11.949,76.825-19.488c3.083-0.918,1.769-5.743-1.329-4.822
			c-25.342,7.54-51.483,11.949-76.825,19.488C278.325,352.955,279.639,357.78,282.737,356.859L282.737,356.859z"/>
	</g>
</g>
<g opacity="0.9">
	<g>
		<path fill="#606161" d="M253.406,340.262c33.034-5.39,65.611-13.936,97.331-24.57c3.041-1.02,1.737-5.85-1.329-4.822
			c-31.72,10.636-64.297,19.182-97.331,24.57C248.9,335.958,250.252,340.775,253.406,340.262L253.406,340.262z"/>
	</g>
</g>
<g opacity="0.9">
	<g>
		<path fill="#606161" d="M341.335,297.503c21.765-10.494,46.27-13.014,68.743-21.585c2.981-1.138,1.689-5.973-1.329-4.822
			c-22.897,8.733-47.749,11.392-69.937,22.091C335.908,294.586,338.445,298.897,341.335,297.503L341.335,297.503z"/>
	</g>
</g>
<g opacity="0.9">
	<g>
		<path fill="#606161" d="M397.571,264.628c4.577-0.439,9.148-0.928,13.711-1.504c3.154-0.398,3.193-5.403,0-5
			c-4.563,0.576-9.134,1.064-13.711,1.504C394.391,259.934,394.361,264.937,397.571,264.628L397.571,264.628z"/>
	</g>
</g>
<g opacity="0.9">
	<g>
		<path fill="#606161" d="M350.407,269.543c14.538-2.281,29.219-3.284,43.864-4.606c3.184-0.287,3.212-5.29,0-5
			c-15.093,1.362-30.211,2.434-45.193,4.784C345.899,265.22,347.253,270.037,350.407,269.543L350.407,269.543z"/>
	</g>
</g>
<g opacity="0.9">
	<g>
		<path fill="#606161" d="M434.924,224.805c17.783,0.607,35.574-0.321,53.357,0.286c3.226,0.11,3.215-4.89,0-5
			c-17.783-0.607-35.574,0.321-53.357-0.286C431.698,219.694,431.708,224.695,434.924,224.805L434.924,224.805z"/>
	</g>
</g>
<g opacity="0.9">
	<g>
		<path fill="#606161" d="M455.493,208.877c14.68-1.327,26.298,6.58,34.684,18.06c1.881,2.575,6.223,0.085,4.317-2.523
			c-9.372-12.832-22.515-22.027-39.001-20.537C452.309,204.166,452.28,209.168,455.493,208.877L455.493,208.877z"/>
	</g>
</g>
<g opacity="0.9">
	<g>
		<path fill="#606161" d="M500.442,214.051c8.251,1.768,15.434,5.293,22.21,10.274c2.602,1.913,5.092-2.429,2.523-4.317
			c-7.104-5.222-14.764-8.927-23.405-10.778C498.627,208.556,497.29,213.376,500.442,214.051L500.442,214.051z"/>
	</g>
</g>
<g opacity="0.9">
	<g>
		<path fill="#606161" d="M528.004,207.372c14.344,2.365,29.497,0.604,43.879-0.524c15.256-1.196,30.578-3.162,45.896-3.231
			c3.224-0.015,3.225-5.015,0-5c-14.854,0.066-29.722,1.925-44.512,3.121c-14.293,1.156-29.667,3.166-43.935,0.813
			C526.18,202.031,524.828,206.849,528.004,207.372L528.004,207.372z"/>
	</g>
</g>
<g opacity="0.9">
	<g>
		<path fill="#606161" d="M617.114,185.136c13.328,3.368,25.459,9.757,38.067,15.048c2.973,1.247,4.257-3.593,1.33-4.821
			c-12.618-5.294-24.728-11.677-38.067-15.048C615.316,179.524,613.99,184.346,617.114,185.136L617.114,185.136z"/>
	</g>
</g>
<g opacity="0.9">
	<g>
		<path fill="#606161" d="M628.631,166.491c18.537,8.214,36.117,18.267,53.639,28.424c2.795,1.62,5.312-2.701,2.523-4.317
			c-17.521-10.158-35.102-20.21-53.639-28.424C628.234,160.88,625.688,165.188,628.631,166.491L628.631,166.491z"/>
	</g>
</g>
<g opacity="0.9">
	<g>
		<path fill="#606161" d="M238.869,316.819c21.642-43.494,56.22-79.074,94.874-107.896c39.371-29.356,83.632-52.233,129.534-69.49
			c16.442-6.182,33.189-11.556,50.153-16.113c3.111-0.835,1.789-5.659-1.329-4.821c-45.215,12.146-88.949,30.131-129.763,53.052
			c-42.297,23.753-82.007,53.585-113.392,90.796c-13.423,15.916-25.115,33.301-34.394,51.949
			C233.12,317.173,237.432,319.706,238.869,316.819L238.869,316.819z"/>
	</g>
</g>
<g opacity="0.9">
	<g>
		<path fill="#606161" d="M223.34,289.556c48.207-56.102,94.516-114.063,147.408-165.919c2.306-2.26-1.232-5.793-3.535-3.535
			c-52.893,51.857-99.202,109.817-147.408,165.919C217.715,288.452,221.235,292.005,223.34,289.556L223.34,289.556z"/>
	</g>
</g>
<g opacity="0.9">
	<g>
		<path fill="#606161" d="M368.512,217.095c15.922-36.613,46.875-66.23,76.6-91.858c35.361-30.487,74.258-57.076,114.684-80.369
			c22.73-13.098,46.213-25.369,70.758-34.727c2.981-1.137,1.688-5.972-1.33-4.821c-37.13,14.157-72.14,34.26-105.508,55.658
			c-38.789,24.874-76.145,52.878-108.888,85.393c-19.948,19.808-39.317,42.181-50.633,68.201
			C362.923,217.497,367.229,220.045,368.512,217.095L368.512,217.095z"/>
	</g>
</g>
<g opacity="0.9">
	<g>
		<path fill="#606161" d="M460.121,140.492c88.164-27.259,168.582-74.568,255.222-105.837c3.008-1.086,1.711-5.918-1.33-4.821
			c-86.641,31.27-167.061,78.579-255.221,105.837C455.722,136.62,457.032,141.447,460.121,140.492L460.121,140.492z"/>
	</g>
</g>
<g opacity="0.9">
	<g>
		<path fill="#606161" d="M577.514,106.299c39.81-18.537,75.412-45.268,117.065-59.941c3.02-1.063,1.72-5.896-1.33-4.821
			c-42.083,14.825-78.045,41.72-118.259,60.445C572.069,103.342,574.61,107.651,577.514,106.299L577.514,106.299z"/>
	</g>
</g>
<g opacity="0.9">
	<g>
		<path fill="#606161" d="M654.153,105.908c34.283-28.093,70.782-53.288,108.505-76.522c2.739-1.687,0.23-6.013-2.523-4.317
			c-38.089,23.459-74.902,48.939-109.517,77.304C648.122,104.418,651.682,107.934,654.153,105.908L654.153,105.908z"/>
	</g>
</g>
<g opacity="0.9">
	<g>
		<path fill="#606161" d="M723.994,103.207c26.084-9.376,43.393-32.96,61.664-52.476c2.201-2.351-1.327-5.894-3.535-3.535
			c-17.555,18.749-34.383,42.176-59.459,51.189C719.654,99.468,720.952,104.3,723.994,103.207L723.994,103.207z"/>
	</g>
</g>
<g opacity="0.9">
	<g>
		<path fill="#606161" d="M720.533,114.911c39.461-13.138,80.786-18.747,121.123-28.424c3.134-0.752,1.805-5.573-1.33-4.821
			c-40.336,9.677-81.662,15.286-121.123,28.424C716.16,111.103,717.465,115.933,720.533,114.911L720.533,114.911z"/>
	</g>
</g>
<g opacity="0.9">
	<g>
		<path fill="#606161" d="M790.813,78.216c19.384-0.059,38.666-1.808,57.764-5.105c3.174-0.548,1.824-5.366-1.328-4.821
			c-18.662,3.222-37.499,4.87-56.436,4.927C787.589,73.226,787.588,78.226,790.813,78.216L790.813,78.216z"/>
	</g>
</g>
<g opacity="0.9">
	<g>
		<path fill="#606161" d="M802.924,103.296c32.91-0.066,65.719-3.278,98.629-3.344c3.224-0.006,3.225-5.006,0-5
			c-32.91,0.066-65.719,3.278-98.629,3.344C799.7,98.303,799.699,103.303,802.924,103.296L802.924,103.296z"/>
	</g>
</g>
<g opacity="0.9">
	<g>
		<path fill="#606161" d="M851.373,120.017c35.232,1.913,68.539,14.938,101.426,26.663c3.044,1.085,4.343-3.747,1.328-4.821
			c-33.349-11.89-67.029-24.901-102.754-26.841C848.149,114.842,848.167,119.842,851.373,120.017L851.373,120.017z"/>
	</g>
</g>
<g opacity="0.9">
	<g>
		<path fill="#606161" d="M892.863,154.396c20.842,16.612,44.917,28.538,65.753,45.145c2.493,1.988,6.057-1.526,3.535-3.535
			c-20.842-16.612-44.918-28.538-65.753-45.145C893.904,148.873,890.342,152.387,892.863,154.396L892.863,154.396z"/>
	</g>
</g>
<g opacity="0.9">
	<g>
		<path fill="#606161" d="M862.224,173.18c28.993,18.226,55.39,40.09,83.056,60.192c2.613,1.898,5.104-2.442,2.523-4.318
			c-27.666-20.102-54.063-41.966-83.056-60.192C862.009,167.141,859.502,171.469,862.224,173.18L862.224,173.18z"/>
	</g>
</g>
<g opacity="0.9">
	<g>
		<path fill="#606161" d="M848.979,139.991c37.576,13.229,74.965,27.949,108.412,49.909c2.704,1.775,5.206-2.556,2.523-4.317
			c-33.793-22.187-71.643-37.047-109.607-50.413C847.258,134.096,845.958,138.928,848.979,139.991L848.979,139.991z"/>
	</g>
</g>
<g opacity="0.9">
	<g>
		<path fill="#606161" d="M790.148,141.663c31.164,8.634,63.933,6.796,95.83,10.122c3.206,0.334,3.174-4.669,0-5
			c-31.452-3.279-63.775-1.43-94.502-9.943C788.364,135.979,787.045,140.803,790.148,141.663L790.148,141.663z"/>
	</g>
</g>
<g opacity="0.9">
	<g>
		<path fill="#606161" d="M810.91,113.239c36.041,6.444,69.97,19.685,101.492,38.204c2.786,1.637,5.301-2.686,2.523-4.317
			c-31.867-18.722-66.247-32.192-102.686-38.708C809.088,107.854,807.74,112.672,810.91,113.239L810.91,113.239z"/>
	</g>
</g>
<g opacity="0.9">
	<g>
		<path fill="#606161" d="M852.439,205.2c31.611,12.629,64.81,28.15,88.873,52.86c2.252,2.313,5.785-1.226,3.535-3.535
			c-24.701-25.366-58.641-41.187-91.08-54.146C850.771,199.181,849.482,204.019,852.439,205.2L852.439,205.2z"/>
	</g>
</g>
<g opacity="0.9">
	<g>
		<path fill="#606161" d="M481.95,199.102c24.925-0.026,49.833-1.098,74.725,0.781c22.996,1.736,51.288,5.335,67.989,23.065
			c2.215,2.352,5.744-1.191,3.535-3.535c-16.526-17.546-43.288-21.804-66.121-24.061c-26.642-2.634-53.417-1.279-80.128-1.25
			C478.726,194.105,478.726,199.105,481.95,199.102L481.95,199.102z"/>
	</g>
</g>
<g opacity="0.9">
	<g>
		<path fill="#606161" d="M598.081,190.152c26.211,5.433,44.595,26.838,64.65,42.829c2.493,1.988,6.057-1.525,3.535-3.535
			c-20.729-16.528-39.756-38.498-66.855-44.115C596.265,184.678,594.925,189.498,598.081,190.152L598.081,190.152z"/>
	</g>
</g>
<g opacity="0.9">
	<g>
		<path fill="#606161" d="M628.631,174.852c27.052,13.027,56.057,24.478,77.357,46.425c2.249,2.317,5.781-1.222,3.535-3.535
			c-21.624-22.282-50.903-33.981-78.369-47.208C628.264,169.142,625.727,173.453,628.631,174.852L628.631,174.852z"/>
	</g>
</g>
<g opacity="0.9">
	<g>
		<path fill="#606161" d="M690.922,189.9c15.458,10.013,30.262,21.107,42.752,34.721c2.184,2.381,5.71-1.165,3.535-3.535
			c-12.765-13.914-27.966-25.271-43.764-35.503C690.73,183.824,688.227,188.154,690.922,189.9L690.922,189.9z"/>
	</g>
</g>
<g opacity="0.9">
	<g>
		<path fill="#606161" d="M700.797,166.1c15.345,14.735,32.217,27.866,46.721,43.472c2.199,2.367,5.727-1.177,3.535-3.535
			c-14.504-15.606-31.376-28.737-46.721-43.472C702.008,160.332,698.467,163.863,700.797,166.1L700.797,166.1z"/>
	</g>
</g>
<g opacity="0.9">
	<g>
		<path fill="#606161" d="M784.717,256.31c2.069,5.709,3.874,11.495,5.414,17.369c0.818,3.116,5.641,1.793,4.822-1.33
			c-1.541-5.873-3.346-11.66-5.416-17.369C788.447,251.974,783.614,253.271,784.717,256.31L784.717,256.31z"/>
	</g>
</g>
<g opacity="0.9">
	<g>
		<path fill="#606161" d="M742.325,187.836c17.493,19.632,32.118,41.762,41.606,66.366c1.146,2.975,5.982,1.684,4.82-1.33
			c-9.813-25.446-24.793-48.26-42.892-68.571C743.711,181.889,740.188,185.438,742.325,187.836L742.325,187.836z"/>
	</g>
</g>
<g opacity="0.9">
	<g>
		<path fill="#606161" d="M810.652,252.042c3.896,5.396,7.866,10.736,12,15.954c2.002,2.526,5.515-1.037,3.535-3.535
			c-3.869-4.884-7.57-9.893-11.219-14.942C813.101,246.931,808.76,249.423,810.652,252.042L810.652,252.042z"/>
	</g>
</g>
<g opacity="0.9">
	<g>
		<path fill="#606161" d="M864.517,280.797c3.923,3.78-5.159,17.322-6.926,20.97c-2.403,4.964-7.253,13.944-1.929,18.659
			c2.404,2.13,5.954-1.394,3.535-3.535c-4.066-3.602,4.993-17.175,6.724-20.74c2.475-5.098,7.281-13.927,2.131-18.889
			C865.73,275.025,862.19,278.557,864.517,280.797L864.517,280.797z"/>
	</g>
</g>
<g opacity="0.9">
	<g>
		<path fill="#606161" d="M882.987,250.091c21.755,10.383,45.045,16.824,68.079,23.662c3.1,0.919,4.413-3.906,1.33-4.822
			c-22.607-6.71-45.533-12.967-66.886-23.156C882.616,244.393,880.078,248.703,882.987,250.091L882.987,250.091z"/>
	</g>
</g>
<g opacity="0.9">
	<g>
		<path fill="#606161" d="M903.752,228.356c9.733,6.245,19.681,12.148,29.414,18.393c2.723,1.746,5.228-2.583,2.523-4.318
			c-9.733-6.244-19.681-12.147-29.414-18.392C903.553,222.292,901.048,226.621,903.752,228.356L903.752,228.356z"/>
	</g>
</g>
<g opacity="0.9">
	<g>
		<path fill="#606161" d="M264.808,311.77c26.865-9.816,50.92-25.822,77.776-35.637c3.003-1.098,1.707-5.932-1.329-4.822
			c-26.864,9.818-50.919,25.823-77.776,35.637C260.476,308.045,261.772,312.878,264.808,311.77L264.808,311.77z"/>
	</g>
</g>
<g opacity="0.9">
	<g>
		<path fill="#606161" d="M334.634,296.497c13.258-12.982,25.016-28.079,42.391-35.781c2.943-1.304,0.396-5.611-2.523-4.316
			c-17.761,7.872-29.85,23.291-43.402,36.563C328.792,295.221,332.33,298.754,334.634,296.497L334.634,296.497z"/>
	</g>
</g>
<g opacity="0.9">
	<g>
		<path fill="#606161" d="M317.456,284.051c6.67-17.479,16.776-33.232,31.062-45.437c14.203-12.134,31.947-19.216,50.057-23.038
			c3.154-0.666,1.816-5.485-1.329-4.821c-18.731,3.952-36.346,11.405-51.282,23.506c-15.542,12.593-26.263,29.942-33.33,48.459
			C311.482,285.739,316.318,287.031,317.456,284.051L317.456,284.051z"/>
	</g>
</g>
<g opacity="0.9">
	<g>
		<path fill="#606161" d="M369.224,246.497c20.418-19.627,41.57-41.969,68.547-52.343c2.977-1.145,1.685-5.98-1.329-4.821
			c-27.875,10.718-49.646,33.339-70.753,53.629C363.36,245.2,366.9,248.731,369.224,246.497L369.224,246.497z"/>
	</g>
</g>
<g opacity="0.9">
	<g>
		<path fill="#606161" d="M465.327,205.626c3.63-11.89,16.836-17.646,27.666-21.169c16.143-5.251,33.404-7.004,50.272-7.94
			c17.512-0.972,35.105-0.673,52.603,0.451c12.184,0.782,24.568,1.758,36.526,4.344c0.678,0.146,1.352,0.309,2.023,0.479
			c3.128,0.792,4.454-4.03,1.33-4.821c-10.83-2.742-22.263-3.633-33.361-4.53c-17.114-1.383-34.326-1.806-51.488-1.255
			c-17.192,0.552-34.555,2.119-51.297,6.211c-12.184,2.978-25.807,7.688-34.102,17.642c-2.28,2.735-3.954,5.856-4.993,9.259
			C459.562,207.389,464.389,208.701,465.327,205.626L465.327,205.626z"/>
	</g>
</g>
<g opacity="0.9">
	<g>
		<path fill="#606161" d="M523.478,174.021c4.403,0.491,9.053-0.674,13.315-1.643c6.961-1.582,13.809-3.676,20.649-5.704
			c7.034-2.086,14.059-4.21,21.169-6.021c4.748-1.209,9.994-2.732,14.943-2.18c3.202,0.357,3.168-4.647,0-5
			c-4.403-0.491-9.053,0.674-13.315,1.643c-6.961,1.582-13.809,3.676-20.649,5.704c-7.033,2.086-14.058,4.21-21.168,6.021
			c-4.748,1.209-9.994,2.732-14.943,2.18C520.276,168.664,520.311,173.668,523.478,174.021L523.478,174.021z"/>
	</g>
</g>
<g opacity="0.9">
	<g>
		<path fill="#606161" d="M480.989,206.633c-3.639-31.865,31.206-52.758,55.598-64.639c15.789-7.69,32.481-13.564,49.417-18.157
			c13.153-3.567,26.773-6.561,40.428-7.164c3.211-0.142,3.225-5.143,0-5c-14.465,0.639-28.861,3.845-42.79,7.623
			c-17.754,4.814-35.14,11.252-51.641,19.392c-25.427,12.543-59.764,35.094-56.012,67.945
			C476.351,209.798,481.355,209.834,480.989,206.633L480.989,206.633z"/>
	</g>
</g>
<g opacity="0.9">
	<g>
		<path fill="#606161" d="M497.055,153.616c23.036-11.106,46.54-21.275,70.129-31.139c23.695-9.908,47.575-19.712,72.024-27.629
			c3.054-0.989,1.747-5.817-1.33-4.821c-24.45,7.918-48.318,17.739-72.023,27.629c-23.995,10.012-47.899,20.349-71.323,31.643
			C491.627,150.698,494.165,155.009,497.055,153.616L497.055,153.616z"/>
	</g>
</g>
<g opacity="0.9">
	<g>
		<path fill="#606161" d="M633.354,136.736c54.154,0.091,109.906,7.664,160.254,28.335c2.982,1.225,4.269-3.614,1.328-4.821
			c-50.712-20.821-107.035-28.422-161.582-28.514C630.129,131.731,630.13,136.731,633.354,136.736L633.354,136.736z"/>
	</g>
</g>
<g opacity="0.9">
	<g>
		<path fill="#606161" d="M640.311,162.756c10.752-10.029,25.148-14.531,38.696-19.421c3.008-1.086,1.711-5.919-1.33-4.821
			c-14.393,5.196-29.484,10.057-40.901,20.708C634.413,161.424,637.956,164.953,640.311,162.756L640.311,162.756z"/>
	</g>
</g>
<g opacity="0.9">
	<g>
		<path fill="#606161" d="M663.433,121.599c34.667-9.838,70.962-8.297,106.616-8.27c3.225,0.002,3.225-4.998,0-5
			c-36.1-0.028-72.848-1.512-107.946,8.449C659.006,117.656,660.324,122.481,663.433,121.599L663.433,121.599z"/>
	</g>
</g>
<g opacity="0.9">
	<g>
		<path fill="#606161" d="M818.496,166.833c23.409-0.001,46.896-0.114,69.879-5.105c3.15-0.684,1.813-5.504-1.33-4.821
			c-22.54,4.896-45.593,4.926-68.549,4.927C815.271,161.833,815.271,166.833,818.496,166.833L818.496,166.833z"/>
	</g>
</g>
<g opacity="0.9">
	<g>
		<path fill="#606161" d="M861.092,155.039c25.621,9.743,52.953,13.387,80.258,13.466c3.225,0.009,3.224-4.991,0-5
			c-26.897-0.078-53.692-3.69-78.93-13.287C859.401,149.069,858.108,153.905,861.092,155.039L861.092,155.039z"/>
	</g>
</g>
<g opacity="0.9">
	<g>
		<path fill="#606161" d="M887.71,185.225c36.405,0.089,72.604,4.927,109.011,5.016c3.225,0.008,3.224-4.992,0-5
			c-36.406-0.089-72.605-4.927-109.011-5.016C884.485,180.217,884.486,185.217,887.71,185.225L887.71,185.225z"/>
	</g>
</g>
<g opacity="0.9">
	<g>
		<path fill="#606161" d="M839.224,196.197c10.874,12.025,27.583,16.41,43.031,18.837c16.702,2.624,33.612,2.584,50.443,3.631
			c3.222,0.2,3.202-4.801,0-5c-15.275-0.95-30.575-1.054-45.781-2.978c-15.585-1.972-33.192-5.9-44.158-18.026
			C840.592,190.265,837.067,193.813,839.224,196.197L839.224,196.197z"/>
	</g>
</g>
<g opacity="0.9">
	<g>
		<path fill="#606161" d="M821.293,185.136c35.119,11.78,71.604,18.63,107.281,28.424c3.114,0.855,4.434-3.969,1.328-4.821
			c-35.676-9.793-72.161-16.644-107.281-28.424C819.556,179.286,818.252,184.116,821.293,185.136L821.293,185.136z"/>
	</g>
</g>
<g opacity="0.9">
	<g>
		<path fill="#606161" d="M781.496,185.136c31.522,6.696,63.645,10.023,95.168,16.72c3.145,0.668,4.482-4.151,1.328-4.821
			c-31.522-6.697-63.645-10.024-95.168-16.72C779.68,179.646,778.342,184.466,781.496,185.136L781.496,185.136z"/>
	</g>
</g>
<g opacity="0.9">
	<g>
		<path fill="#606161" d="M764.857,176.865c30.057,0.036,60.105,1.661,89.977,5.016c3.201,0.36,3.167-4.644,0-5
			c-29.871-3.355-59.92-4.98-89.977-5.016C761.633,171.861,761.633,176.861,764.857,176.865L764.857,176.865z"/>
	</g>
</g>
<g opacity="0.9">
	<g>
		<path fill="#606161" d="M756.206,153.457c17.875-1.727,35.751-3.44,53.64-5.016c3.186-0.281,3.213-5.283,0-5
			c-17.889,1.576-35.765,3.289-53.64,5.016C753.026,148.764,752.996,153.767,756.206,153.457L756.206,153.457z"/>
	</g>
</g>
<g opacity="0.9">
	<g>
		<path fill="#606161" d="M773.508,135.064c22.055-0.147,43.768-5.118,64.688-11.793c3.061-0.976,1.752-5.804-1.328-4.821
			c-20.511,6.544-41.734,11.471-63.359,11.615C770.285,130.086,770.282,135.086,773.508,135.064L773.508,135.064z"/>
	</g>
</g>
<g opacity="0.9">
	<g>
		<path fill="#606161" d="M754.475,128.376c23.592-2.021,44.814-13.06,66.418-21.825c2.946-1.196,1.66-6.034-1.33-4.821
			c-21.096,8.56-42.044,19.673-65.088,21.646C751.287,123.649,751.261,128.652,754.475,128.376L754.475,128.376z"/>
	</g>
</g>
<g opacity="0.9">
	<g>
		<path fill="#606161" d="M728.051,143.083c24.258-18.125,53.841-25.083,82.459-33.188c3.098-0.877,1.78-5.702-1.328-4.821
			c-29.005,8.213-59.07,15.323-83.654,33.692C722.977,140.671,725.465,145.015,728.051,143.083L728.051,143.083z"/>
	</g>
</g>
<g opacity="0.9">
	<g>
		<path fill="#606161" d="M680.736,145.007c31.004-6.914,56.594-26.372,85.383-38.708c2.956-1.267,0.406-5.573-2.523-4.317
			c-28.393,12.167-53.615,31.386-84.189,38.204C676.26,140.888,677.595,145.708,680.736,145.007L680.736,145.007z"/>
	</g>
</g>
<g opacity="0.9">
	<g>
		<path fill="#606161" d="M699.143,134.332c17.848-18.697,40.82-31.254,63.516-43.081c2.86-1.491,0.332-5.805-2.523-4.317
			c-23.065,12.02-46.391,24.863-64.527,43.863C693.382,133.128,696.913,136.668,699.143,134.332L699.143,134.332z"/>
	</g>
</g>
<g opacity="0.9">
	<g>
		<path fill="#606161" d="M643.771,136.004c15.614-18.674,26.271-41.68,46.213-56.457c2.56-1.896,0.07-6.24-2.523-4.317
			c-20.433,15.141-31.243,38.126-47.225,57.239C638.184,134.924,641.701,138.48,643.771,136.004L643.771,136.004z"/>
	</g>
</g>
<g opacity="0.9">
	<g>
		<path fill="#606161" d="M654.153,105.908c12.056-9.983,24.182-19.853,37.562-28.033c2.745-1.679,0.235-6.004-2.523-4.317
			c-13.74,8.4-26.194,18.564-38.573,28.815C648.132,104.431,651.69,107.948,654.153,105.908L654.153,105.908z"/>
	</g>
</g>
<g opacity="0.9">
	<g>
		<path fill="#606161" d="M631.154,109.643c22.946-12.021,44.536-26.435,67.482-38.456c2.857-1.497,0.329-5.812-2.523-4.317
			c-22.946,12.021-44.536,26.435-67.482,38.456C625.773,106.822,628.302,111.138,631.154,109.643L631.154,109.643z"/>
	</g>
</g>
<g opacity="0.9">
	<g>
		<path fill="#606161" d="M590.132,136.004c14.063-15.231,29.056-29.676,46.212-41.409c2.644-1.808,0.146-6.143-2.523-4.317
			c-17.513,11.976-32.866,26.639-47.224,42.191C584.413,134.833,587.94,138.378,590.132,136.004L590.132,136.004z"/>
	</g>
</g>
<g opacity="0.9">
	<g>
		<path fill="#606161" d="M527.367,154.391c10.269-17.006,27.569-30.505,42.651-43.007c15.722-13.032,32.061-25.472,49.023-36.853
			c2.662-1.786,0.162-6.12-2.523-4.317c-17.32,11.621-33.952,24.365-50.036,37.635c-15.46,12.755-32.928,26.623-43.432,44.019
			C521.378,154.635,525.703,157.146,527.367,154.391L527.367,154.391z"/>
	</g>
</g>
<g opacity="0.9">
	<g>
		<path fill="#606161" d="M463.772,157.659c25.587-13.043,45.498-34.783,63.664-56.531c2.052-2.456-1.466-6.013-3.535-3.535
			c-17.905,21.435-37.431,42.892-62.652,55.749C458.375,154.806,460.906,159.12,463.772,157.659L463.772,157.659z"/>
	</g>
</g>
<g opacity="0.9">
	<g>
		<path fill="#606161" d="M461.42,152.647c30.934-12.04,48.218-43.873,69.524-67.31c2.164-2.379-1.362-5.926-3.535-3.535
			c-10.529,11.582-19.703,24.318-29.937,36.155c-10.391,12.019-22.309,24.002-37.381,29.869
			C457.121,148.982,458.412,153.818,461.42,152.647L461.42,152.647z"/>
	</g>
</g>
<g opacity="0.9">
	<g>
		<path fill="#606161" d="M421.691,216.274c18.579-30.764,26.61-66.486,42.782-98.412c1.453-2.869-2.86-5.4-4.317-2.523
			c-16.172,31.926-24.208,67.656-42.782,98.412C415.702,216.518,420.027,219.029,421.691,216.274L421.691,216.274z"/>
	</g>
</g>
<g opacity="0.9">
	<g>
		<path fill="#606161" d="M389.678,216.102c22.059-30.96,30.046-69.31,47.419-102.713c1.486-2.856-2.829-5.385-4.317-2.523
			c-17.376,33.409-25.363,71.758-47.419,102.713C383.485,216.211,387.824,218.704,389.678,216.102L389.678,216.102z"/>
	</g>
</g>
<g opacity="0.9">
	<g>
		<path fill="#606161" d="M384.01,189.804c12.461-31.229,23.068-64.036,41.635-92.34c1.774-2.705-2.557-5.207-4.317-2.523
			c-18.792,28.648-29.526,61.926-42.139,93.534C377.993,191.472,382.831,192.761,384.01,189.804L384.01,189.804z"/>
	</g>
</g>
<g opacity="0.9">
	<g>
		<path fill="#606161" d="M353.695,197.775c22.968-15.769,39.063-40.672,52.866-64.359c1.626-2.792-2.695-5.307-4.317-2.523
			c-13.349,22.909-28.843,47.304-51.072,62.565C348.532,195.27,351.029,199.605,353.695,197.775L353.695,197.775z"/>
	</g>
</g>
<g opacity="0.9">
	<g>
		<path fill="#606161" d="M313.688,236.21c37.33-17.092,70.319-41.888,103.034-66.362c2.549-1.907,0.061-6.251-2.523-4.317
			c-32.715,24.474-65.704,49.27-103.034,66.361C308.235,233.233,310.778,237.542,313.688,236.21L313.688,236.21z"/>
	</g>
</g>
<g opacity="0.9">
	<g>
		<path fill="#606161" d="M290.553,287.606c49.665-38.711,96.282-81.447,135.253-131.084c1.967-2.505-1.545-6.07-3.535-3.535
			c-38.972,49.636-85.589,92.372-135.253,131.084C284.477,286.052,288.042,289.563,290.553,287.606L290.553,287.606z"/>
	</g>
</g>
<g opacity="0.9">
	<g>
		<path fill="#606161" d="M263.97,306.574c37.098-11.868,64.017-41.805,93.746-65.331c2.528-2-1.036-5.514-3.535-3.535
			c-29.001,22.951-55.353,52.469-91.54,64.044C259.583,302.73,260.891,307.559,263.97,306.574L263.97,306.574z"/>
	</g>
</g>
<g opacity="0.9">
	<g>
		<path fill="#606161" d="M235.571,321.347c36.133-31.782,83.455-46.713,125.046-69.6c2.825-1.554,0.303-5.872-2.523-4.316
			c-42.024,23.124-89.543,38.262-126.058,70.381C229.61,319.945,233.161,323.468,235.571,321.347L235.571,321.347z"/>
	</g>
</g>
<g opacity="0.9">
	<g>
		<path fill="#606161" d="M210.334,304.555c41.473-8.522,82.139-20.361,122.753-32.221c3.088-0.902,1.773-5.728-1.329-4.822
			c-40.614,11.86-81.28,23.699-122.753,32.221C205.848,300.382,207.188,305.201,210.334,304.555L210.334,304.555z"/>
	</g>
</g>
<g opacity="0.9">
	<g>
		<path fill="#606161" d="M56.155,310.597c10.571,11.795,24.108,19.215,38.758,24.786c3.019,1.147,4.312-3.688,1.329-4.822
			c-13.862-5.271-26.556-12.346-36.552-23.499C57.534,304.655,54.01,308.204,56.155,310.597L56.155,310.597z"/>
	</g>
</g>
<g opacity="0.9">
	<g>
		<path fill="#606161" d="M80.963,310.153c6.125,7.203,12.803,13.836,21.176,18.383c2.834,1.539,5.357-2.778,2.523-4.316
			c-8.014-4.353-14.305-10.712-20.164-17.602C82.406,304.158,78.887,307.713,80.963,310.153L80.963,310.153z"/>
	</g>
</g>
<g opacity="0.9">
	<g>
		<path fill="#606161" d="M93.927,293.28c4.86,7.879,11.25,14.393,17.875,20.789c2.319,2.239,5.858-1.292,3.535-3.535
			c-6.318-6.101-12.455-12.258-17.093-19.777C96.556,288.019,92.229,290.528,93.927,293.28L93.927,293.28z"/>
	</g>
</g>
<g opacity="0.9">
	<g>
		<path fill="#606161" d="M90.632,281.94c12.982,12.31,28.741,20.715,45.964,25.399c3.116,0.847,4.437-3.977,1.329-4.822
			c-16.407-4.462-31.386-12.382-43.758-24.112C91.829,276.188,88.288,279.718,90.632,281.94L90.632,281.94z"/>
	</g>
</g>
<g opacity="0.9">
	<g>
		<path fill="#606161" d="M113.317,287.64c10.354,5.706,21.597,9.303,32.833,12.829c3.085,0.968,4.395-3.86,1.329-4.822
			c-10.829-3.397-21.658-6.824-31.639-12.323C113.015,281.766,110.493,286.084,113.317,287.64L113.317,287.64z"/>
	</g>
</g>
<g opacity="0.9">
	<g>
		<path fill="#606161" d="M145.708,275.662c5.366,0.755,10.792,0.197,16.146,0.953c3.152,0.444,4.511-4.373,1.329-4.822
			c-5.366-0.757-10.791-0.199-16.146-0.953C143.885,270.396,142.525,275.214,145.708,275.662L145.708,275.662z"/>
	</g>
</g>
<g opacity="0.9">
	<g>
		<path fill="#606161" d="M116.312,287.702c26.306-2.711,50.623-21.616,62.672-44.753c1.487-2.855-2.828-5.384-4.317-2.523
			c-11.171,21.451-33.82,39.747-58.355,42.276C113.137,283.029,113.105,288.032,116.312,287.702L116.312,287.702z"/>
	</g>
</g>
<g opacity="0.9">
	<g>
		<path fill="#606161" d="M135.788,279.095c22.172-12.971,43.504-28.432,58.842-49.329c1.911-2.604-2.431-5.094-4.317-2.523
			c-14.805,20.171-35.667,35.027-57.048,47.536C130.484,276.404,132.999,280.727,135.788,279.095L135.788,279.095z"/>
	</g>
</g>
<g opacity="0.9">
	<g>
		<path fill="#606161" d="M141.485,292.394c16.505-10.057,29.592-23.79,40.905-39.331c1.901-2.611-2.44-5.103-4.317-2.523
			c-10.801,14.838-23.357,27.938-39.111,37.538C136.214,289.751,138.724,294.076,141.485,292.394L141.485,292.394z"/>
	</g>
</g>
<g opacity="0.9">
	<g>
		<path fill="#606161" d="M178.87,264.292c8.718-12.066,17.435-24.135,26.152-36.201c1.892-2.619-2.448-5.11-4.317-2.523
			c-8.718,12.066-17.435,24.135-26.152,36.201C172.66,264.388,177,266.879,178.87,264.292L178.87,264.292z"/>
	</g>
</g>
<g opacity="0.9">
	<g>
		<path fill="#606161" d="M186.356,266.64c12.949-22.173,28.008-43.006,43.029-63.799c1.892-2.619-2.448-5.111-4.317-2.523
			c-15.021,20.793-30.081,41.626-43.029,63.799C180.409,266.906,184.731,269.422,186.356,266.64L186.356,266.64z"/>
	</g>
</g>
<g opacity="0.9">
	<g>
		<path fill="#606161" d="M207.755,256.083c7.768-16.943,16.597-33.114,29.284-46.925c2.177-2.369-1.35-5.915-3.535-3.535
			c-12.978,14.127-22.114,30.593-30.066,47.937C202.104,256.469,206.413,259.011,207.755,256.083L207.755,256.083z"/>
	</g>
</g>
<g opacity="0.9">
	<g>
		<path fill="#606161" d="M222.787,250.106c6.885-13.752,14.898-26.891,23.861-39.386c1.884-2.625-2.456-5.118-4.317-2.523
			c-8.963,12.495-16.976,25.633-23.861,39.386C217.03,250.457,221.343,252.99,222.787,250.106L222.787,250.106z"/>
	</g>
</g>
<g opacity="0.9">
	<g>
		<path fill="#606161" d="M244.968,236.312c14.622-13.685,27.303-29.247,40.904-43.909c2.189-2.359-1.338-5.904-3.535-3.535
			c-13.602,14.661-26.283,30.223-40.904,43.909C239.074,234.983,242.617,238.512,244.968,236.312L244.968,236.312z"/>
	</g>
</g>
<g opacity="0.9">
	<g>
		<path fill="#606161" d="M112.764,323.677c24.619-12.998,46.392-30.42,68.896-46.643c2.589-1.866,0.098-6.206-2.523-4.316
			c-22.504,16.222-44.276,33.644-68.896,46.643C107.388,320.866,109.915,325.182,112.764,323.677L112.764,323.677z"/>
	</g>
</g>
<g opacity="0.9">
	<g>
		<path fill="#606161" d="M139.861,326.419c32.165-17.331,66.329-30.155,101.149-41.024c3.067-0.958,1.757-5.785-1.329-4.822
			c-35.223,10.996-69.807,23.998-102.343,41.53C134.499,323.632,137.023,327.948,139.861,326.419L139.861,326.419z"/>
	</g>
</g>
<g opacity="0.9">
	<g>
		<path fill="#606161" d="M183.72,322.903c29.42-13.518,58.869-27.041,87.332-42.506c2.834-1.539,0.31-5.856-2.523-4.316
			c-28.463,15.464-57.912,28.987-87.332,42.506C178.269,319.932,180.812,324.24,183.72,322.903L183.72,322.903z"/>
	</g>
</g>
<g opacity="0.9">
	<g>
		<path fill="#606161" d="M170.327,342.99c29.992-10.213,58.168-25.233,88.728-33.848c3.099-0.874,1.78-5.698-1.329-4.822
			c-30.56,8.615-58.736,23.636-88.728,33.848C165.963,339.201,167.266,344.032,170.327,342.99L170.327,342.99z"/>
	</g>
</g>
<g opacity="0.9">
	<g>
		<path fill="#606161" d="M154.958,357.904c33.615-5.511,66.106-15.886,99.343-23.117c3.15-0.686,1.814-5.506-1.329-4.822
			c-33.237,7.231-65.728,17.607-99.343,23.117C150.454,353.603,151.805,358.421,154.958,357.904L154.958,357.904z"/>
	</g>
</g>
<g opacity="0.9">
	<g>
		<path fill="#606161" d="M160.099,367.738c27.744-4.514,55.171-10.671,82.578-16.861c3.145-0.711,1.811-5.531-1.329-4.822
			c-27.408,6.191-54.834,12.349-82.578,16.861C155.594,363.433,156.946,368.251,160.099,367.738L160.099,367.738z"/>
	</g>
</g>
<g opacity="0.9">
	<g>
		<path fill="#606161" d="M148.475,383.828c32.367-5.216,64.743-10.574,96.436-19.096c3.111-0.837,1.789-5.66-1.329-4.822
			c-31.693,8.522-64.069,13.88-96.436,19.096C143.969,379.519,145.322,384.336,148.475,383.828L148.475,383.828z"/>
	</g>
</g>
<g opacity="0.9">
	<g>
		<path fill="#606161" d="M125.844,408.799c63.542-10.274,126.466-23.885,189.687-35.898c3.166-0.602,1.821-5.421-1.329-4.822
			c-63.221,12.015-126.145,25.625-189.687,35.898C121.338,404.49,122.691,409.309,125.844,408.799L125.844,408.799z"/>
	</g>
</g>
</svg>
