<?xml version="1.0" encoding="utf-8"?>
<!-- Generator: Adobe Illustrator 16.0.0, SVG Export Plug-In . SVG Version: 6.00 Build 0)  -->
<!DOCTYPE svg PUBLIC "-//W3C//DTD SVG 1.1//EN" "http://www.w3.org/Graphics/SVG/1.1/DTD/svg11.dtd">
<svg version="1.1" id="Layer_1" xmlns="http://www.w3.org/2000/svg" xmlns:xlink="http://www.w3.org/1999/xlink" x="0px" y="0px"
	 width="981.055px" height="511.665px" viewBox="0 0 981.055 511.665" enable-background="new 0 0 981.055 511.665"
	 xml:space="preserve">
<g opacity="0.1">
	<g>
		<path d="M21.967,452.511c20.639,21.591,46.893,41.567,76.533,48.546c21.625,5.091,36.807,4.086,58.368,0.345
			c13.042-2.264,25.597-8.596,37.25-14.487c16.463-8.322,31.109-20.213,45.904-31.099c20.238-14.892,40.952-29.047,63.007-41.135
			c7.837-4.296,16.083-7.872,23.787-12.395c11.398-6.69,21.934-15.241,31.597-24.228c5.127-4.769,9.718-10.094,14.013-15.612
			c8.421-10.817,16.723-21.394,23.979-32.99c15.808-25.267,27.54-53.099,45.669-76.898c-3.909,5.06-7.818,10.12-11.727,15.18
			c6.792-8.773,14.506-16.298,23.254-23.11c-5.06,3.909-10.12,7.818-15.179,11.728c18.938-14.53,40.154-25.808,62.071-35.132
			c-5.972,2.52-11.944,5.041-17.916,7.561c29.13-12.249,59.835-21.321,91.168-25.679c-6.646,0.893-13.292,1.786-19.938,2.679
			c37.666-5.05,76.646,0.512,114.045,5.516c-6.646-0.893-13.292-1.786-19.938-2.679c15.636,2.11,31.236,4.461,46.815,6.954
			c15.857,2.536,31.039,5.324,45.962,11.507c-5.972-2.52-11.944-5.04-17.916-7.561c17.948,7.611,34.504,17.943,51.608,27.207
			c13.955,7.559,28.507,13.7,43.235,19.626c9.514,3.828,19.405,6.615,29.516,8.316c6.646,0.894,13.291,1.786,19.938,2.68
			c13.538-0.043,26.156-3.456,37.854-10.24c16.766-9.821,29.311-26.075,34.468-44.822c5.324-19.358,2.586-40.471-7.562-57.792
			c-8.992-15.351-26.576-31.396-44.822-34.467c-11.622-1.957-22.798-5.443-33.647-10.02c5.973,2.52,11.944,5.041,17.916,7.561
			c-22.452-9.681-42.758-23.491-64.797-33.996c-16.386-7.812-33.542-15.361-51.389-19.237c-11.244-2.442-22.844-3.806-34.216-5.563
			c-31.73-4.902-63.588-9.378-95.558-12.405c-22.87-2.166-46.024-3.761-68.896-0.928c-30.528,3.782-59.969,9.324-89.107,19.285
			c-29.579,10.111-59.106,22.665-85.777,39.11c-14.922,9.201-29.104,20.023-42.284,31.526c-11.78,10.281-21.318,23.83-30.29,36.346
			c-12.425,17.334-21.854,36.651-32.224,55.227c-6.679,11.965-13.764,23.735-22.109,34.625c3.909-5.061,7.818-10.12,11.727-15.18
			c-6.31,8.105-13.31,15.585-21.4,21.938c5.06-3.909,10.119-7.818,15.179-11.728c-13.093,10.017-28.881,16.119-43.097,24.368
			c-14.837,8.609-29.062,18.223-42.982,28.233c-19.934,14.335-39.349,31.591-62.175,41.236c5.972-2.521,11.944-5.04,17.916-7.561
			c-4.903,2.009-9.942,3.528-15.198,4.267c6.646-0.894,13.292-1.786,19.938-2.679c-4.016,0.496-8.011,0.511-12.028,0.012
			c6.646,0.894,13.292,1.786,19.938,2.679c-4.586-0.654-8.974-1.95-13.238-3.75c5.972,2.52,11.944,5.04,17.916,7.561
			c-6.029-2.656-11.549-6.182-16.779-10.17c5.06,3.909,10.12,7.818,15.179,11.728c-6.263-4.882-12.013-10.334-17.496-16.07
			c-28.245-29.548-77.659-28.407-106.066,0C7.965,360.447,0,379.667,0,399.478C0,419.667,8.14,438.046,21.967,452.511
			L21.967,452.511z"/>
	</g>
</g>
<g opacity="0.9">
	<g>
		<path fill="#606161" d="M50.224,356.652c16.615-0.54,32.023,4.255,48.283,6.53c16.759,2.346,31.726-2.239,45.641-11.629
			c2.657-1.793,0.158-6.127-2.523-4.318c-14.129,9.534-28.565,13.337-45.405,10.575c-15.456-2.533-30.16-6.673-45.995-6.158
			C47.008,351.756,46.998,356.756,50.224,356.652L50.224,356.652z"/>
	</g>
</g>
<g opacity="0.9">
	<g>
		<path fill="#606161" d="M27.274,359.757c13.496,32.954,54.488,19.478,81.154,16.459c3.166-0.358,3.201-5.362,0-5
			c-23.349,2.643-64.271,16.662-76.333-12.789C30.891,355.486,26.052,356.772,27.274,359.757L27.274,359.757z"/>
	</g>
</g>
<g opacity="0.9">
	<g>
		<path fill="#606161" d="M9.553,380.873c26.979,7.973,54.427,17.131,82.853,11.856c3.167-0.588,1.822-5.406-1.329-4.822
			c-27.412,5.087-54.209-4.176-80.195-11.856C7.783,375.134,6.468,379.96,9.553,380.873L9.553,380.873z"/>
	</g>
</g>
<g opacity="0.9">
	<g>
		<path fill="#606161" d="M8.933,406.947c27.598,7.92,56.846,7.324,84.546,0.209c3.121-0.802,1.796-5.625-1.329-4.822
			c-26.861,6.901-55.127,7.472-81.888-0.209C7.156,401.234,5.839,406.059,8.933,406.947L8.933,406.947z"/>
	</g>
</g>
<g opacity="0.9">
	<g>
		<path fill="#606161" d="M22.825,441.466c23.343-2.481,41.206-16.837,57.881-32.214c2.375-2.189-1.169-5.717-3.535-3.535
			c-15.572,14.359-32.474,28.424-54.346,30.749C19.653,436.803,19.621,441.807,22.825,441.466L22.825,441.466z"/>
	</g>
</g>
<g opacity="0.9">
	<g>
		<path fill="#606161" d="M33.24,449.641c9.428,10.892,25.365,6.042,36.632,1.143c14.165-6.158,26.717-15.393,40.792-21.646
			c2.942-1.307,0.396-5.613-2.523-4.316c-12.219,5.429-23.297,13.256-35.312,19.137c-10.061,4.924-26.963,12.649-36.054,2.148
			C34.662,443.664,31.141,447.216,33.24,449.641L33.24,449.641z"/>
	</g>
</g>
<g opacity="0.9">
	<g>
		<path fill="#606161" d="M31.592,484.76c26.412-3.147,50.362-18.199,66.774-38.847c1.984-2.496-1.529-6.059-3.535-3.535
			C79.313,461.901,56.68,476.77,31.592,479.76C28.431,480.137,28.394,485.141,31.592,484.76L31.592,484.76z"/>
	</g>
</g>
<g opacity="0.9">
	<g>
		<path fill="#606161" d="M57.101,489.263c23.465-0.409,39.803-19.686,55.114-34.993c2.282-2.281-1.253-5.816-3.535-3.535
			c-14.244,14.239-29.688,33.147-51.579,33.528C53.88,484.319,53.875,489.32,57.101,489.263L57.101,489.263z"/>
	</g>
</g>
<g opacity="0.9">
	<g>
		<path fill="#606161" d="M106.708,486.92c6.318-4.88,12.515-9.912,18.777-14.863c2.529-1.999-1.035-5.512-3.535-3.535
			c-5.928,4.686-11.785,9.463-17.765,14.082C101.672,484.544,104.156,488.892,106.708,486.92L106.708,486.92z"/>
	</g>
</g>
<g opacity="0.9">
	<g>
		<path fill="#606161" d="M72.183,508.375c6.21-2.691,12.106-5.95,17.82-9.57c2.715-1.72,0.209-6.048-2.523-4.316
			c-5.714,3.619-11.61,6.878-17.82,9.568C66.708,505.336,69.257,509.643,72.183,508.375L72.183,508.375z"/>
	</g>
</g>
<g opacity="0.9">
	<g>
		<path fill="#606161" d="M114.291,510.863c10.233-11.414,19.978-23.251,29.179-35.513c6.275-8.363,12.671-16.995,17.401-26.356
			c1.409-2.79,4.149-10.49-2.037-9.529c-2.524,0.393-4.821,2.57-6.72,4.106c-4.937,3.993-9.385,8.633-13.804,13.176
			c-2.249,2.312,1.284,5.85,3.535,3.535c5.245-5.392,10.862-12.248,17.635-15.822c1.234-0.651-1.374-2.567-1.579-1.447
			c-0.142,0.772-0.459,1.532-0.773,2.246c-1.24,2.827-2.884,5.491-4.497,8.114c-11.886,19.338-26.76,37.095-41.875,53.955
			C108.61,509.72,112.134,513.268,114.291,510.863L114.291,510.863z"/>
	</g>
</g>
<g opacity="0.9">
	<g>
		<path fill="#606161" d="M44.014,441.984c22.282-3.887,43.186-12.366,63.898-21.175c2.959-1.258,0.408-5.563-2.523-4.316
			c-20.316,8.639-40.854,16.859-62.704,20.669C39.513,437.715,40.862,442.534,44.014,441.984L44.014,441.984z"/>
	</g>
</g>
<g opacity="0.9">
	<g>
		<path fill="#606161" d="M16.107,386.14c-3.772,23.086,10.605,44.944,32.691,51.977c3.081,0.98,4.39-3.848,1.329-4.822
			c-19.287-6.14-32.52-25.506-29.199-45.824C21.443,384.317,16.626,382.964,16.107,386.14L16.107,386.14z"/>
	</g>
</g>
<g opacity="0.9">
	<g>
		<path fill="#606161" d="M18.762,434.632c7.515,32.738,49.684,26.758,74.041,20.79c3.131-0.768,1.802-5.589-1.329-4.822
			c-21.513,5.272-61.131,12.148-67.89-17.298C22.862,430.161,18.042,431.494,18.762,434.632L18.762,434.632z"/>
	</g>
</g>
<g opacity="0.9">
	<g>
		<path fill="#606161" d="M24.479,468.53c17.923,28.003,55.877,11.364,78.873-0.021c2.89-1.431,0.355-5.742-2.523-4.316
			c-20.147,9.975-56.01,26.848-72.032,1.814C27.064,463.3,22.735,465.805,24.479,468.53L24.479,468.53z"/>
	</g>
</g>
<g opacity="0.9">
	<g>
		<path fill="#606161" d="M74.76,483.119c28.833,5.447,58.237-7.106,80.766-24.464c2.516-1.938,0.031-6.285-2.523-4.316
			c-21.364,16.459-49.445,29.148-76.914,23.958C72.939,477.702,71.594,482.52,74.76,483.119L74.76,483.119z"/>
	</g>
</g>
<g opacity="0.9">
	<g>
		<path fill="#606161" d="M108.203,464.983c54.003,0.865,102.032-36.229,136.212-74.733c2.133-2.402-1.391-5.951-3.535-3.535
			c-33.304,37.516-79.991,74.112-132.677,73.269C104.977,459.931,104.982,464.931,108.203,464.983L108.203,464.983z"/>
	</g>
</g>
<g opacity="0.9">
	<g>
		<path fill="#606161" d="M147.825,447.153c2.003-11.958,9.734-20.877,16.727-30.322c8.153-11.012,15.753-22.616,23.065-34.205
			c15.375-24.37,28.577-50.051,40.758-76.142c1.355-2.902-2.954-5.443-4.317-2.523c-12.189,26.109-25.457,51.707-40.758,76.141
			c-7.28,11.626-15,23.116-23.065,34.206c-7.193,9.892-15.146,19.066-17.231,31.516
			C142.475,448.976,147.293,450.327,147.825,447.153L147.825,447.153z"/>
	</g>
</g>
<g opacity="0.9">
	<g>
		<path fill="#606161" d="M128.983,408.357c32.922-9.18,62.429-32.743,83.36-59.242c1.976-2.501-1.538-6.064-3.535-3.535
			c-20.422,25.853-49.01,48.993-81.154,57.955C124.552,404.4,125.871,409.224,128.983,408.357L128.983,408.357z"/>
	</g>
</g>
<g opacity="0.9">
	<g>
		<path fill="#606161" d="M116.842,382.806c29.231-8.895,52.26-30.897,71.303-53.923c19.64-23.746,35.665-50.148,52.016-76.185
			c1.72-2.739-2.607-5.246-4.317-2.523c-15.875,25.279-31.455,50.82-50.307,74.041c-18.52,22.812-41.255,45.015-70.024,53.768
			C112.437,378.92,113.749,383.747,116.842,382.806L116.842,382.806z"/>
	</g>
</g>
<g opacity="0.9">
	<g>
		<path fill="#606161" d="M165.177,355.745c14.819-5.043,26.987-15.375,37.463-26.724c12.813-13.881,23.365-29.818,33.203-45.886
			c19.215-31.382,34.231-65.743,55.781-95.643c1.889-2.621-2.451-5.113-4.317-2.523c-20.494,28.435-35.071,61.005-53.002,91.045
			c-9.768,16.363-20.266,32.45-32.827,46.827c-10.283,11.771-22.588,22.963-37.63,28.081
			C160.813,351.956,162.116,356.786,165.177,355.745L165.177,355.745z"/>
	</g>
</g>
<g opacity="0.9">
	<g>
		<path fill="#606161" d="M258.618,278.61c19.787-15.086,30.028-41.328,39.312-63.539c10.218-24.443,18.004-50.927,32.092-73.529
			c1.711-2.745-2.616-5.252-4.317-2.523c-13.357,21.429-21.051,46.471-30.535,69.729c-5.327,13.064-10.985,26.036-17.831,38.387
			c-5.518,9.956-12.076,20.169-21.244,27.159C253.567,276.22,256.053,280.566,258.618,278.61L258.618,278.61z"/>
	</g>
</g>
<g opacity="0.9">
	<g>
		<path fill="#606161" d="M330.434,186.514c18.424-4.165,33.206-17.178,45.879-30.517c13.692-14.411,25.227-30.738,39.123-44.955
			c2.254-2.306-1.279-5.844-3.535-3.535c-12.888,13.186-23.806,28.163-36.198,41.802c-12.682,13.958-27.648,28.1-46.599,32.384
			C325.96,182.404,327.294,187.224,330.434,186.514L330.434,186.514z"/>
	</g>
</g>
<g opacity="0.9">
	<g>
		<path fill="#606161" d="M343.288,156.01c46.364-19.291,70.69-68.055,113.72-92.23c2.811-1.579,0.291-5.898-2.523-4.317
			c-42.57,23.916-66.809,72.705-112.526,91.726C339.026,152.409,340.311,157.249,343.288,156.01L343.288,156.01z"/>
	</g>
</g>
<g opacity="0.9">
	<g>
		<path fill="#606161" d="M260.911,262.474c-2.001-9.966-0.616-20.671,0.937-30.597c2.123-13.578,5.568-26.956,9.52-40.105
			c4.001-13.314,8.703-26.457,14.254-39.206c3.996-9.177,8.371-18.798,14.646-26.681c1.986-2.495-1.527-6.058-3.535-3.535
			c-6.359,7.988-10.839,17.382-14.973,26.658c-5.814,13.048-10.634,26.542-14.835,40.189c-4.281,13.908-7.826,28.095-10.075,42.479
			c-1.642,10.504-2.874,21.601-0.76,32.128C256.725,266.963,261.543,265.623,260.911,262.474L260.911,262.474z"/>
	</g>
</g>
<g opacity="0.9">
	<g>
		<path fill="#606161" d="M326.289,161.396c29.021-42.301,62.9-83.329,103.627-114.884c2.546-1.973-1.02-5.484-3.535-3.535
			c-41.062,31.813-75.15,73.246-104.41,115.896C320.142,161.539,324.477,164.037,326.289,161.396L326.289,161.396z"/>
	</g>
</g>
<g opacity="0.9">
	<g>
		<path fill="#606161" d="M405.224,106.899c2.042-11.718,11.838-21.099,20.31-28.667c12.762-11.401,27.342-20.783,41.989-29.548
			c25.352-15.17,52.073-28.704,79.428-39.899c2.941-1.204,1.655-6.043-1.33-4.821c-28.53,11.677-56.329,25.777-82.73,41.669
			c-14.602,8.79-28.922,18.371-41.655,29.746c-8.824,7.883-18.715,18.04-20.833,30.192
			C399.853,108.722,404.671,110.071,405.224,106.899L405.224,106.899z"/>
	</g>
</g>
<g opacity="0.9">
	<g>
		<path fill="#606161" d="M479.477,99.593c12.544-13.275,28.837-23.493,43.833-33.717c15.883-10.83,32.072-21.195,48.233-31.601
			c2.7-1.739,0.196-6.069-2.523-4.317c-16.162,10.406-32.336,20.791-48.233,31.601c-15.331,10.424-32.03,20.938-44.844,34.5
			C473.729,98.399,477.258,101.941,479.477,99.593L479.477,99.593z"/>
	</g>
</g>
<g opacity="0.9">
	<g>
		<path fill="#606161" d="M570.318,70.668c23.015-27.365,57.951-42.9,89.47-58.129c2.902-1.402,0.366-5.713-2.523-4.317
			c-31.894,15.411-67.188,31.215-90.481,58.911C564.723,69.583,568.24,73.14,570.318,70.668L570.318,70.668z"/>
	</g>
</g>
<g opacity="0.9">
	<g>
		<path fill="#606161" d="M611.845,55.621c18.213-15.483,44.025-22.479,67.446-24.348c3.191-0.255,3.217-5.257,0-5
			c-24.85,1.983-51.672,9.397-70.981,25.813C605.85,54.177,609.404,57.696,611.845,55.621L611.845,55.621z"/>
	</g>
</g>
<g opacity="0.9">
	<g>
		<path fill="#606161" d="M580.699,105.781c33.034-33.316,73.429-54.965,118.29-67.91c3.092-0.892,1.775-5.717-1.33-4.821
			c-45.655,13.174-86.878,35.291-120.495,69.196C574.893,104.537,578.427,108.073,580.699,105.781L580.699,105.781z"/>
	</g>
</g>
<g opacity="0.9">
	<g>
		<path fill="#606161" d="M651.137,89.452c38.85-27.293,79.109-54.737,125.715-66.629c3.123-0.797,1.798-5.619-1.328-4.821
			c-47.029,12-87.704,39.59-126.91,67.133C645.997,86.973,648.491,91.311,651.137,89.452L651.137,89.452z"/>
	</g>
</g>
<g opacity="0.9">
	<g>
		<path fill="#606161" d="M715.158,77.748c31.826-18.385,70.787-14.755,106.019-13.035c3.225,0.157,3.209-4.843,0-5
			c-36.188-1.767-75.87-5.156-108.542,13.718C709.845,75.042,712.361,79.364,715.158,77.748L715.158,77.748z"/>
	</g>
</g>
<g opacity="0.9">
	<g>
		<path fill="#606161" d="M277.583,452.477c3.449-1.115,4.653-5.291,5.587-8.392c1.795-5.962,2.673-12.233,3.659-18.366
			c1.1-6.838,2.091-13.694,3.428-20.49c0.409-2.076,1.589-11.27,3.723-12.027c3.016-1.073,1.717-5.905-1.329-4.822
			c-3.446,1.227-4.619,5.33-5.561,8.497c-1.779,5.986-2.658,12.272-3.645,18.425c-1.096,6.83-2.088,13.68-3.434,20.467
			c-0.408,2.06-1.625,11.197-3.758,11.887C273.199,448.643,274.506,453.471,277.583,452.477L277.583,452.477z"/>
	</g>
</g>
<g opacity="0.9">
	<g>
		<path fill="#606161" d="M283.833,399.618c6.936-3.518,12.115-9.585,16.759-15.662c6.147-8.045,11.244-16.887,16.367-25.599
			c5.236-8.904,10.393-17.871,16.298-26.354c4.677-6.719,10.178-13.748,17.624-17.523c2.876-1.459,0.345-5.772-2.523-4.318
			c-6.936,3.518-12.115,9.585-16.759,15.662c-6.147,8.045-11.244,16.887-16.367,25.599c-5.236,8.904-10.393,17.871-16.298,26.354
			c-4.677,6.719-10.178,13.748-17.624,17.523C278.433,396.758,280.964,401.072,283.833,399.618L283.833,399.618z"/>
	</g>
</g>
<g opacity="0.9">
	<g>
		<path fill="#606161" d="M251.641,388.139c19.239-6.693,32.232-27.55,43.454-43.298c7.089-9.948,13.961-20.068,21.568-29.635
			c6.221-7.823,13.16-15.899,22.062-20.731c2.834-1.539,0.311-5.856-2.523-4.318c-8.272,4.491-14.842,11.602-20.814,18.739
			c-7.468,8.929-14.1,18.546-20.805,28.048c-6.95,9.847-13.906,19.727-21.839,28.817c-6.154,7.053-13.394,14.412-22.432,17.556
			C247.287,384.37,248.587,389.201,251.641,388.139L251.641,388.139z"/>
	</g>
</g>
<g opacity="0.9">
	<g>
		<path fill="#606161" d="M323.251,292.36c21.765-10.494,46.27-13.014,68.743-21.585c2.981-1.138,1.689-5.973-1.329-4.822
			c-22.897,8.733-47.749,11.392-69.937,22.091C317.824,289.443,320.361,293.754,323.251,292.36L323.251,292.36z"/>
	</g>
</g>
<g opacity="0.9">
	<g>
		<path fill="#606161" d="M379.487,259.485c4.577-0.439,9.148-0.928,13.711-1.504c3.154-0.398,3.193-5.403,0-5
			c-4.563,0.576-9.134,1.064-13.711,1.504C376.307,254.791,376.277,259.793,379.487,259.485L379.487,259.485z"/>
	</g>
</g>
<g opacity="0.9">
	<g>
		<path fill="#606161" d="M332.323,264.4c14.538-2.281,29.219-3.284,43.864-4.606c3.184-0.287,3.212-5.29,0-5
			c-15.093,1.362-30.211,2.434-45.193,4.784C327.815,260.077,329.169,264.894,332.323,264.4L332.323,264.4z"/>
	</g>
</g>
<g opacity="0.9">
	<g>
		<path fill="#606161" d="M416.84,219.662c17.783,0.607,35.574-0.321,53.357,0.286c3.226,0.11,3.215-4.89,0-5
			c-17.783-0.607-35.574,0.321-53.357-0.286C413.614,214.551,413.625,219.552,416.84,219.662L416.84,219.662z"/>
	</g>
</g>
<g opacity="0.9">
	<g>
		<path fill="#606161" d="M437.409,203.734c14.68-1.327,26.298,6.58,34.684,18.06c1.881,2.575,6.223,0.085,4.317-2.523
			c-9.372-12.832-22.515-22.027-39.001-20.537C434.225,199.022,434.196,204.025,437.409,203.734L437.409,203.734z"/>
	</g>
</g>
<g opacity="0.9">
	<g>
		<path fill="#606161" d="M482.358,208.908c8.251,1.768,15.434,5.293,22.21,10.274c2.602,1.913,5.092-2.429,2.523-4.317
			c-7.104-5.222-14.764-8.927-23.405-10.778C480.543,203.413,479.206,208.233,482.358,208.908L482.358,208.908z"/>
	</g>
</g>
<g opacity="0.9">
	<g>
		<path fill="#606161" d="M509.92,202.229c14.344,2.365,29.497,0.604,43.879-0.524c15.256-1.196,30.578-3.162,45.896-3.231
			c3.224-0.015,3.225-5.015,0-5c-14.854,0.066-29.722,1.925-44.512,3.121c-14.293,1.156-29.667,3.166-43.935,0.813
			C508.096,196.888,506.744,201.706,509.92,202.229L509.92,202.229z"/>
	</g>
</g>
<g opacity="0.9">
	<g>
		<path fill="#606161" d="M599.03,179.993c13.328,3.368,25.459,9.757,38.067,15.048c2.973,1.247,4.257-3.593,1.33-4.821
			c-12.618-5.294-24.728-11.677-38.067-15.048C597.232,174.381,595.906,179.203,599.03,179.993L599.03,179.993z"/>
	</g>
</g>
<g opacity="0.9">
	<g>
		<path fill="#606161" d="M610.547,161.348c18.537,8.214,36.117,18.267,53.639,28.424c2.795,1.62,5.312-2.701,2.523-4.317
			c-17.521-10.158-35.102-20.21-53.639-28.424C610.15,155.737,607.604,160.044,610.547,161.348L610.547,161.348z"/>
	</g>
</g>
<g opacity="0.9">
	<g>
		<path fill="#606161" d="M234.02,366.928c14.277-45.945,37.999-88.837,64.95-128.485c28.56-42.016,62.107-81.246,100.766-114.306
			c20.951-17.917,43.875-34.06,69.078-45.423c2.936-1.324,0.391-5.631-2.523-4.317c-41.176,18.566-76.483,49.296-107.413,81.69
			c-35.144,36.808-65.701,78.333-90.888,122.532c-15.718,27.581-29.358,56.624-38.791,86.979
			C228.239,368.686,233.066,369.997,234.02,366.928L234.02,366.928z"/>
	</g>
</g>
<g opacity="0.9">
	<g>
		<path fill="#606161" d="M214.414,342.51c22.913-37.523,37.946-79.76,54.274-120.394c16.531-41.141,32.759-84.517,59.215-120.525
			c1.912-2.603-2.43-5.092-4.317-2.523c-25.818,35.141-41.819,77.33-58.01,117.472c-16.79,41.627-31.99,84.98-55.479,123.447
			C208.411,342.747,212.736,345.256,214.414,342.51L214.414,342.51z"/>
	</g>
</g>
<g opacity="0.9">
	<g>
		<path fill="#606161" d="M350.428,211.952c15.922-36.613,46.875-66.23,76.6-91.858c35.361-30.487,74.258-57.076,114.684-80.369
			c22.73-13.098,46.213-25.369,70.758-34.727c2.981-1.137,1.688-5.972-1.33-4.821C574.01,14.333,539,34.436,505.632,55.834
			c-38.789,24.874-76.145,52.878-108.888,85.393c-19.948,19.808-39.317,42.181-50.633,68.201
			C344.839,212.354,349.145,214.902,350.428,211.952L350.428,211.952z"/>
	</g>
</g>
<g opacity="0.9">
	<g>
		<path fill="#606161" d="M442.037,135.349c88.164-27.259,168.582-74.568,255.222-105.837c3.008-1.086,1.711-5.918-1.33-4.821
			c-86.641,31.27-167.061,78.579-255.221,105.837C437.638,131.477,438.948,136.304,442.037,135.349L442.037,135.349z"/>
	</g>
</g>
<g opacity="0.9">
	<g>
		<path fill="#606161" d="M559.43,101.156c39.81-18.537,75.412-45.268,117.065-59.941c3.02-1.063,1.72-5.896-1.33-4.821
			c-42.083,14.825-78.045,41.72-118.259,60.445C553.985,98.199,556.526,102.508,559.43,101.156L559.43,101.156z"/>
	</g>
</g>
<g opacity="0.9">
	<g>
		<path fill="#606161" d="M636.069,100.765c34.283-28.093,70.782-53.288,108.505-76.522c2.739-1.687,0.23-6.013-2.523-4.317
			c-38.089,23.459-74.902,48.939-109.517,77.304C630.038,99.275,633.598,102.791,636.069,100.765L636.069,100.765z"/>
	</g>
</g>
<g opacity="0.9">
	<g>
		<path fill="#606161" d="M705.91,98.064c26.084-9.376,43.393-32.96,61.664-52.476c2.201-2.351-1.327-5.894-3.535-3.535
			c-17.555,18.749-34.383,42.176-59.459,51.189C701.57,94.325,702.868,99.157,705.91,98.064L705.91,98.064z"/>
	</g>
</g>
<g opacity="0.9">
	<g>
		<path fill="#606161" d="M702.449,109.768c39.461-13.138,80.786-18.747,121.123-28.424c3.134-0.752,1.805-5.573-1.33-4.821
			c-40.336,9.677-81.662,15.286-121.123,28.424C698.076,105.96,699.381,110.79,702.449,109.768L702.449,109.768z"/>
	</g>
</g>
<g opacity="0.9">
	<g>
		<path fill="#606161" d="M772.729,73.073c19.384-0.059,38.666-1.808,57.764-5.105c3.174-0.548,1.824-5.366-1.328-4.821
			c-18.662,3.222-37.499,4.87-56.436,4.927C769.505,68.083,769.504,73.083,772.729,73.073L772.729,73.073z"/>
	</g>
</g>
<g opacity="0.9">
	<g>
		<path fill="#606161" d="M784.84,98.153c32.91-0.066,65.719-3.278,98.629-3.344c3.224-0.006,3.225-5.006,0-5
			c-32.91,0.066-65.719,3.278-98.629,3.344C781.616,93.16,781.615,98.16,784.84,98.153L784.84,98.153z"/>
	</g>
</g>
<g opacity="0.9">
	<g>
		<path fill="#606161" d="M833.289,114.874c35.232,1.913,68.539,14.938,101.426,26.663c3.044,1.085,4.343-3.747,1.328-4.821
			c-33.349-11.89-67.029-24.901-102.754-26.841C830.065,109.699,830.083,114.699,833.289,114.874L833.289,114.874z"/>
	</g>
</g>
<g opacity="0.9">
	<g>
		<path fill="#606161" d="M874.779,149.253c20.842,16.612,44.917,28.538,65.753,45.145c2.493,1.988,6.057-1.526,3.535-3.535
			c-20.842-16.612-44.918-28.538-65.753-45.145C875.82,143.73,872.258,147.244,874.779,149.253L874.779,149.253z"/>
	</g>
</g>
<g opacity="0.9">
	<g>
		<path fill="#606161" d="M844.14,168.037c28.993,18.226,55.39,40.09,83.056,60.192c2.613,1.898,5.104-2.442,2.523-4.318
			c-27.666-20.102-54.063-41.966-83.056-60.192C843.925,161.998,841.418,166.326,844.14,168.037L844.14,168.037z"/>
	</g>
</g>
<g opacity="0.9">
	<g>
		<path fill="#606161" d="M830.895,134.848c37.576,13.229,74.965,27.949,108.412,49.909c2.704,1.775,5.206-2.556,2.523-4.317
			c-33.793-22.187-71.643-37.047-109.607-50.413C829.174,128.953,827.874,133.785,830.895,134.848L830.895,134.848z"/>
	</g>
</g>
<g opacity="0.9">
	<g>
		<path fill="#606161" d="M772.064,136.52c31.164,8.634,63.933,6.796,95.83,10.122c3.206,0.334,3.174-4.669,0-5
			c-31.452-3.279-63.775-1.43-94.502-9.943C770.28,130.836,768.961,135.66,772.064,136.52L772.064,136.52z"/>
	</g>
</g>
<g opacity="0.9">
	<g>
		<path fill="#606161" d="M792.826,108.096c36.041,6.444,69.97,19.685,101.492,38.204c2.786,1.637,5.301-2.686,2.523-4.317
			c-31.867-18.722-66.247-32.192-102.686-38.708C791.004,102.711,789.656,107.529,792.826,108.096L792.826,108.096z"/>
	</g>
</g>
<g opacity="0.9">
	<g>
		<path fill="#606161" d="M834.355,200.057c31.611,12.629,64.81,28.15,88.873,52.86c2.252,2.313,5.785-1.226,3.535-3.535
			c-24.701-25.366-58.641-41.187-91.08-54.146C832.688,194.038,831.398,198.875,834.355,200.057L834.355,200.057z"/>
	</g>
</g>
<g opacity="0.9">
	<g>
		<path fill="#606161" d="M463.866,193.958c24.925-0.026,49.833-1.098,74.725,0.781c22.996,1.736,51.288,5.335,67.989,23.065
			c2.215,2.352,5.744-1.191,3.535-3.535c-16.526-17.546-43.288-21.804-66.121-24.061c-26.642-2.634-53.417-1.279-80.128-1.25
			C460.642,188.962,460.642,193.962,463.866,193.958L463.866,193.958z"/>
	</g>
</g>
<g opacity="0.9">
	<g>
		<path fill="#606161" d="M579.997,185.009c26.211,5.433,44.595,26.838,64.65,42.829c2.493,1.988,6.057-1.525,3.535-3.535
			c-20.729-16.528-39.756-38.498-66.855-44.115C578.181,179.535,576.841,184.354,579.997,185.009L579.997,185.009z"/>
	</g>
</g>
<g opacity="0.9">
	<g>
		<path fill="#606161" d="M610.547,169.708c27.052,13.027,56.057,24.478,77.357,46.425c2.249,2.317,5.781-1.222,3.535-3.535
			c-21.624-22.282-50.903-33.981-78.369-47.208C610.18,163.999,607.643,168.31,610.547,169.708L610.547,169.708z"/>
	</g>
</g>
<g opacity="0.9">
	<g>
		<path fill="#606161" d="M672.838,184.757c15.458,10.013,30.262,21.107,42.752,34.721c2.184,2.381,5.71-1.165,3.535-3.535
			c-12.765-13.914-27.966-25.271-43.764-35.503C672.646,178.681,670.143,183.011,672.838,184.757L672.838,184.757z"/>
	</g>
</g>
<g opacity="0.9">
	<g>
		<path fill="#606161" d="M682.713,160.957c15.345,14.735,32.217,27.866,46.721,43.472c2.199,2.367,5.727-1.177,3.535-3.535
			c-14.504-15.606-31.376-28.737-46.721-43.472C683.924,155.189,680.383,158.72,682.713,160.957L682.713,160.957z"/>
	</g>
</g>
<g opacity="0.9">
	<g>
		<path fill="#606161" d="M763.283,255.793c4.802,3.357,9.434,6.925,13.905,10.712c2.444,2.07,5.999-1.448,3.535-3.535
			c-4.794-4.062-9.768-7.895-14.917-11.495C763.157,249.623,760.662,253.96,763.283,255.793L763.283,255.793z"/>
	</g>
</g>
<g opacity="0.9">
	<g>
		<path fill="#606161" d="M724.241,182.693c17.493,19.632,32.118,41.762,41.606,66.366c1.146,2.975,5.982,1.684,4.82-1.33
			c-9.813-25.446-24.793-48.26-42.892-68.571C725.627,176.746,722.104,180.295,724.241,182.693L724.241,182.693z"/>
	</g>
</g>
<g opacity="0.9">
	<g>
		<path fill="#606161" d="M792.568,246.899c3.896,5.396,7.866,10.736,12,15.954c2.002,2.526,5.515-1.037,3.535-3.535
			c-3.869-4.884-7.57-9.893-11.219-14.942C795.017,241.788,790.676,244.28,792.568,246.899L792.568,246.899z"/>
	</g>
</g>
<g opacity="0.9">
	<g>
		<path fill="#606161" d="M835.512,277.251c2.98,0.485,3.646,5.063,4.203,7.466c1.077,4.634,1.537,9.41,2.252,14.107
			c0.893,5.858,2.048,15.298,9.386,16.18c3.197,0.385,3.16-4.62,0-5c-4.753-0.571-5.317-17.823-5.826-21.18
			c-0.805-5.314-1.909-15.291-8.687-16.396C833.688,271.916,832.335,276.733,835.512,277.251L835.512,277.251z"/>
	</g>
</g>
<g opacity="0.9">
	<g>
		<path fill="#606161" d="M876.258,227.231c12.271,20.731,28.065,39.051,43.37,57.556c2.057,2.487,5.573-1.071,3.535-3.535
			c-15.039-18.185-30.53-36.172-42.589-56.544C878.935,221.936,874.611,224.45,876.258,227.231L876.258,227.231z"/>
	</g>
</g>
<g opacity="0.9">
	<g>
		<path fill="#606161" d="M885.668,223.213c9.733,6.245,19.681,12.148,29.414,18.393c2.723,1.746,5.228-2.583,2.523-4.318
			c-9.733-6.244-19.681-12.147-29.414-18.392C885.469,217.149,882.964,221.478,885.668,223.213L885.668,223.213z"/>
	</g>
</g>
<g opacity="0.9">
	<g>
		<path fill="#606161" d="M258.973,357.946c7.366-4.231,12.508-11.471,16.91-18.541c5.966-9.582,10.665-19.948,15.403-30.171
			c4.857-10.479,9.607-21.027,15.252-31.114c4.439-7.933,9.755-16.752,17.858-21.408c2.794-1.605,0.277-5.926-2.523-4.316
			c-7.366,4.231-12.507,11.471-16.91,18.542c-5.966,9.582-10.664,19.948-15.403,30.171c-4.856,10.479-9.607,21.027-15.252,31.113
			c-4.439,7.933-9.755,16.752-17.858,21.406C253.655,355.233,256.172,359.554,258.973,357.946L258.973,357.946z"/>
	</g>
</g>
<g opacity="0.9">
	<g>
		<path fill="#606161" d="M316.55,291.354c13.258-12.982,25.016-28.079,42.391-35.781c2.943-1.304,0.396-5.611-2.523-4.316
			c-17.761,7.872-29.85,23.291-43.402,36.563C310.708,290.078,314.246,293.611,316.55,291.354L316.55,291.354z"/>
	</g>
</g>
<g opacity="0.9">
	<g>
		<path fill="#606161" d="M299.372,278.908c6.67-17.479,16.776-33.232,31.062-45.437c14.203-12.134,31.947-19.216,50.057-23.038
			c3.154-0.666,1.816-5.485-1.329-4.821c-18.731,3.952-36.346,11.405-51.282,23.506c-15.542,12.593-26.263,29.942-33.33,48.459
			C293.398,280.596,298.234,281.888,299.372,278.908L299.372,278.908z"/>
	</g>
</g>
<g opacity="0.9">
	<g>
		<path fill="#606161" d="M351.14,241.354c20.418-19.627,41.57-41.969,68.547-52.343c2.977-1.145,1.685-5.98-1.329-4.821
			c-27.875,10.718-49.646,33.339-70.753,53.629C345.276,240.057,348.816,243.588,351.14,241.354L351.14,241.354z"/>
	</g>
</g>
<g opacity="0.9">
	<g>
		<path fill="#606161" d="M447.243,200.483c3.63-11.89,16.836-17.646,27.666-21.169c16.143-5.251,33.404-7.004,50.272-7.94
			c17.512-0.972,35.105-0.673,52.603,0.451c12.184,0.782,24.568,1.758,36.526,4.344c0.678,0.146,1.352,0.309,2.023,0.479
			c3.128,0.792,4.454-4.03,1.33-4.821c-10.83-2.742-22.263-3.633-33.361-4.53c-17.114-1.383-34.326-1.806-51.488-1.255
			c-17.192,0.552-34.555,2.119-51.297,6.211c-12.184,2.978-25.807,7.688-34.102,17.642c-2.28,2.735-3.954,5.856-4.993,9.259
			C441.478,202.246,446.305,203.558,447.243,200.483L447.243,200.483z"/>
	</g>
</g>
<g opacity="0.9">
	<g>
		<path fill="#606161" d="M505.394,168.878c4.403,0.491,9.053-0.674,13.315-1.643c6.961-1.582,13.809-3.676,20.649-5.704
			c7.034-2.086,14.059-4.21,21.169-6.021c4.748-1.209,9.994-2.732,14.943-2.18c3.202,0.357,3.168-4.647,0-5
			c-4.403-0.491-9.053,0.674-13.315,1.643c-6.961,1.582-13.809,3.676-20.649,5.704c-7.033,2.086-14.058,4.21-21.168,6.021
			c-4.748,1.209-9.994,2.732-14.943,2.18C502.192,163.521,502.227,168.525,505.394,168.878L505.394,168.878z"/>
	</g>
</g>
<g opacity="0.9">
	<g>
		<path fill="#606161" d="M462.905,201.49c-3.639-31.865,31.206-52.758,55.598-64.639c15.789-7.69,32.481-13.564,49.417-18.157
			c13.153-3.567,26.773-6.561,40.428-7.164c3.211-0.142,3.225-5.143,0-5c-14.465,0.639-28.861,3.845-42.79,7.623
			c-17.754,4.814-35.14,11.252-51.641,19.392c-25.427,12.543-59.764,35.094-56.012,67.945
			C458.267,204.655,463.271,204.691,462.905,201.49L462.905,201.49z"/>
	</g>
</g>
<g opacity="0.9">
	<g>
		<path fill="#606161" d="M478.971,148.473c23.036-11.106,46.54-21.275,70.129-31.139c23.695-9.908,47.575-19.712,72.024-27.629
			c3.054-0.989,1.747-5.817-1.33-4.821c-24.45,7.918-48.318,17.739-72.023,27.629c-23.995,10.012-47.899,20.349-71.323,31.643
			C473.543,145.555,476.081,149.866,478.971,148.473L478.971,148.473z"/>
	</g>
</g>
<g opacity="0.9">
	<g>
		<path fill="#606161" d="M615.27,131.593c54.154,0.091,109.906,7.664,160.254,28.335c2.982,1.225,4.269-3.614,1.328-4.821
			c-50.712-20.821-107.035-28.422-161.582-28.514C612.045,126.588,612.046,131.588,615.27,131.593L615.27,131.593z"/>
	</g>
</g>
<g opacity="0.9">
	<g>
		<path fill="#606161" d="M622.227,157.613c10.752-10.029,25.148-14.531,38.696-19.421c3.008-1.086,1.711-5.919-1.33-4.821
			c-14.393,5.196-29.484,10.057-40.901,20.708C616.329,156.281,619.872,159.81,622.227,157.613L622.227,157.613z"/>
	</g>
</g>
<g opacity="0.9">
	<g>
		<path fill="#606161" d="M645.349,116.456c34.667-9.838,70.962-8.297,106.616-8.27c3.225,0.002,3.225-4.998,0-5
			c-36.1-0.028-72.848-1.512-107.946,8.449C640.922,112.513,642.24,117.338,645.349,116.456L645.349,116.456z"/>
	</g>
</g>
<g opacity="0.9">
	<g>
		<path fill="#606161" d="M800.412,161.689c23.409-0.001,46.896-0.114,69.879-5.105c3.15-0.684,1.813-5.504-1.33-4.821
			c-22.54,4.896-45.593,4.926-68.549,4.927C797.188,156.689,797.188,161.689,800.412,161.689L800.412,161.689z"/>
	</g>
</g>
<g opacity="0.9">
	<g>
		<path fill="#606161" d="M843.008,149.896c25.621,9.743,52.953,13.387,80.258,13.466c3.225,0.009,3.224-4.991,0-5
			c-26.897-0.078-53.692-3.69-78.93-13.287C841.317,143.926,840.024,148.762,843.008,149.896L843.008,149.896z"/>
	</g>
</g>
<g opacity="0.9">
	<g>
		<path fill="#606161" d="M869.626,180.082c36.405,0.089,72.604,4.927,109.011,5.016c3.225,0.008,3.224-4.992,0-5
			c-36.406-0.089-72.605-4.927-109.011-5.016C866.401,175.074,866.402,180.074,869.626,180.082L869.626,180.082z"/>
	</g>
</g>
<g opacity="0.9">
	<g>
		<path fill="#606161" d="M821.14,191.054c10.874,12.025,27.583,16.41,43.031,18.837c16.702,2.624,33.612,2.584,50.443,3.631
			c3.222,0.2,3.202-4.801,0-5c-15.275-0.95-30.575-1.054-45.781-2.978c-15.585-1.972-33.192-5.9-44.158-18.026
			C822.508,185.122,818.983,188.669,821.14,191.054L821.14,191.054z"/>
	</g>
</g>
<g opacity="0.9">
	<g>
		<path fill="#606161" d="M803.209,179.993c35.119,11.78,71.604,18.63,107.281,28.424c3.114,0.855,4.434-3.969,1.328-4.821
			c-35.676-9.793-72.161-16.644-107.281-28.424C801.472,174.143,800.168,178.973,803.209,179.993L803.209,179.993z"/>
	</g>
</g>
<g opacity="0.9">
	<g>
		<path fill="#606161" d="M763.412,179.993c31.522,6.696,63.645,10.023,95.168,16.72c3.145,0.668,4.482-4.151,1.328-4.821
			c-31.522-6.697-63.645-10.024-95.168-16.72C761.596,174.503,760.258,179.323,763.412,179.993L763.412,179.993z"/>
	</g>
</g>
<g opacity="0.9">
	<g>
		<path fill="#606161" d="M746.773,171.722c30.057,0.036,60.105,1.661,89.977,5.016c3.201,0.36,3.167-4.644,0-5
			c-29.871-3.355-59.92-4.98-89.977-5.016C743.549,166.718,743.549,171.718,746.773,171.722L746.773,171.722z"/>
	</g>
</g>
<g opacity="0.9">
	<g>
		<path fill="#606161" d="M738.122,148.313c17.875-1.727,35.751-3.44,53.64-5.016c3.186-0.281,3.213-5.283,0-5
			c-17.889,1.576-35.765,3.289-53.64,5.016C734.942,143.621,734.912,148.624,738.122,148.313L738.122,148.313z"/>
	</g>
</g>
<g opacity="0.9">
	<g>
		<path fill="#606161" d="M755.424,129.921c22.055-0.147,43.768-5.118,64.688-11.793c3.061-0.976,1.752-5.804-1.328-4.821
			c-20.511,6.544-41.734,11.471-63.359,11.615C752.201,124.943,752.198,129.943,755.424,129.921L755.424,129.921z"/>
	</g>
</g>
<g opacity="0.9">
	<g>
		<path fill="#606161" d="M736.391,123.233c23.592-2.021,44.814-13.06,66.418-21.825c2.946-1.196,1.66-6.034-1.33-4.821
			c-21.096,8.56-42.044,19.673-65.088,21.646C733.203,118.506,733.177,123.509,736.391,123.233L736.391,123.233z"/>
	</g>
</g>
<g opacity="0.9">
	<g>
		<path fill="#606161" d="M709.967,137.94c24.258-18.125,53.841-25.083,82.459-33.188c3.098-0.877,1.78-5.702-1.328-4.821
			c-29.005,8.213-59.07,15.323-83.654,33.692C704.893,135.528,707.381,139.872,709.967,137.94L709.967,137.94z"/>
	</g>
</g>
<g opacity="0.9">
	<g>
		<path fill="#606161" d="M662.652,139.864c31.004-6.914,56.594-26.372,85.383-38.708c2.956-1.267,0.406-5.573-2.523-4.317
			c-28.393,12.167-53.615,31.386-84.189,38.204C658.176,135.745,659.511,140.565,662.652,139.864L662.652,139.864z"/>
	</g>
</g>
<g opacity="0.9">
	<g>
		<path fill="#606161" d="M681.059,129.189c17.848-18.697,40.82-31.254,63.516-43.081c2.86-1.491,0.332-5.805-2.523-4.317
			c-23.065,12.02-46.391,24.863-64.527,43.863C675.298,127.985,678.829,131.525,681.059,129.189L681.059,129.189z"/>
	</g>
</g>
<g opacity="0.9">
	<g>
		<path fill="#606161" d="M625.688,130.861c15.614-18.674,26.271-41.68,46.213-56.457c2.56-1.896,0.07-6.24-2.523-4.317
			c-20.433,15.141-31.243,38.126-47.225,57.239C620.1,129.781,623.617,133.337,625.688,130.861L625.688,130.861z"/>
	</g>
</g>
<g opacity="0.9">
	<g>
		<path fill="#606161" d="M636.069,100.765c12.056-9.983,24.182-19.853,37.562-28.033c2.745-1.679,0.235-6.004-2.523-4.317
			c-13.74,8.4-26.194,18.564-38.573,28.815C630.048,99.288,633.606,102.805,636.069,100.765L636.069,100.765z"/>
	</g>
</g>
<g opacity="0.9">
	<g>
		<path fill="#606161" d="M613.07,104.5c22.946-12.021,44.536-26.435,67.482-38.456c2.857-1.497,0.329-5.812-2.523-4.317
			c-22.946,12.021-44.536,26.435-67.482,38.456C607.689,101.679,610.218,105.995,613.07,104.5L613.07,104.5z"/>
	</g>
</g>
<g opacity="0.9">
	<g>
		<path fill="#606161" d="M572.048,130.861c14.063-15.231,29.056-29.676,46.212-41.409c2.644-1.808,0.146-6.143-2.523-4.317
			c-17.513,11.976-32.866,26.639-47.224,42.191C566.329,129.69,569.856,133.235,572.048,130.861L572.048,130.861z"/>
	</g>
</g>
<g opacity="0.9">
	<g>
		<path fill="#606161" d="M509.283,149.248c10.269-17.006,27.569-30.505,42.651-43.007c15.722-13.032,32.061-25.472,49.023-36.853
			c2.662-1.786,0.162-6.12-2.523-4.317c-17.32,11.621-33.952,24.365-50.036,37.635c-15.46,12.755-32.928,26.623-43.432,44.019
			C503.294,149.492,507.619,152.003,509.283,149.248L509.283,149.248z"/>
	</g>
</g>
<g opacity="0.9">
	<g>
		<path fill="#606161" d="M445.688,152.516c25.587-13.043,45.498-34.783,63.664-56.531c2.052-2.456-1.466-6.013-3.535-3.535
			c-17.905,21.435-37.431,42.892-62.652,55.749C440.291,149.663,442.822,153.977,445.688,152.516L445.688,152.516z"/>
	</g>
</g>
<g opacity="0.9">
	<g>
		<path fill="#606161" d="M443.336,147.504c30.934-12.04,48.218-43.873,69.524-67.31c2.164-2.379-1.362-5.926-3.535-3.535
			c-10.529,11.582-19.703,24.318-29.937,36.155c-10.391,12.019-22.309,24.002-37.381,29.869
			C439.037,143.839,440.328,148.675,443.336,147.504L443.336,147.504z"/>
	</g>
</g>
<g opacity="0.9">
	<g>
		<path fill="#606161" d="M403.607,211.131c18.579-30.764,26.61-66.486,42.782-98.412c1.453-2.869-2.86-5.4-4.317-2.523
			c-16.172,31.926-24.208,67.656-42.782,98.412C397.618,211.375,401.943,213.886,403.607,211.131L403.607,211.131z"/>
	</g>
</g>
<g opacity="0.9">
	<g>
		<path fill="#606161" d="M371.594,210.959c22.059-30.96,30.046-69.31,47.419-102.713c1.486-2.856-2.829-5.385-4.317-2.523
			c-17.376,33.409-25.363,71.758-47.419,102.713C365.401,211.068,369.74,213.561,371.594,210.959L371.594,210.959z"/>
	</g>
</g>
<g opacity="0.9">
	<g>
		<path fill="#606161" d="M365.926,184.661c12.461-31.229,23.068-64.036,41.635-92.34c1.774-2.705-2.557-5.207-4.317-2.523
			c-18.792,28.648-29.526,61.926-42.139,93.534C359.909,186.329,364.747,187.618,365.926,184.661L365.926,184.661z"/>
	</g>
</g>
<g opacity="0.9">
	<g>
		<path fill="#606161" d="M335.611,192.632c22.968-15.769,39.063-40.672,52.866-64.359c1.626-2.792-2.695-5.307-4.317-2.523
			c-13.349,22.909-28.843,47.304-51.072,62.565C330.448,190.127,332.945,194.462,335.611,192.632L335.611,192.632z"/>
	</g>
</g>
<g opacity="0.9">
	<g>
		<path fill="#606161" d="M295.604,231.067c37.33-17.092,70.319-41.888,103.034-66.362c2.549-1.907,0.061-6.251-2.523-4.317
			c-32.715,24.474-65.704,49.27-103.034,66.361C290.151,228.09,292.694,232.399,295.604,231.067L295.604,231.067z"/>
	</g>
</g>
<g opacity="0.9">
	<g>
		<path fill="#606161" d="M272.469,282.463c49.665-38.711,96.282-81.447,135.253-131.084c1.967-2.505-1.545-6.07-3.535-3.535
			c-38.972,49.636-85.589,92.372-135.253,131.084C266.393,280.909,269.958,284.42,272.469,282.463L272.469,282.463z"/>
	</g>
</g>
<g opacity="0.9">
	<g>
		<path fill="#606161" d="M257.321,352.95c9.722-4.995,16.609-14.156,22.318-23.203c7.604-12.049,13.355-25.255,18.908-38.339
			c5.76-13.573,11.103-27.324,17.136-40.781c4.723-10.535,9.811-21.698,17.633-30.344c2.157-2.384-1.368-5.931-3.535-3.535
			c-7.4,8.179-12.389,18.332-17,28.253c-6.076,13.073-11.31,26.53-16.851,39.834c-5.481,13.161-11.203,26.296-18.353,38.652
			c-5.604,9.684-12.565,19.898-22.78,25.145C251.929,350.106,254.458,354.419,257.321,352.95L257.321,352.95z"/>
	</g>
</g>
<g opacity="0.9">
	<g>
		<path fill="#606161" d="M231.146,372.462c18.625-22.938,33.814-48.627,50.223-73.14c16.417-24.525,33.536-51.054,56.916-69.597
			c2.526-2.003-1.038-5.517-3.535-3.535c-22.93,18.185-39.848,44.128-56.035,68.132c-16.804,24.919-32.128,51.233-51.104,74.604
			C225.598,371.407,229.113,374.967,231.146,372.462L231.146,372.462z"/>
	</g>
</g>
<g opacity="0.9">
	<g>
		<path fill="#606161" d="M203.447,359.723c23.231-9.049,39.782-31.024,54.972-49.756c16.048-19.79,32.446-44.03,55.997-55.498
			c2.899-1.412,0.363-5.724-2.523-4.318c-22.38,10.899-38.313,33.132-53.55,52.001c-8.694,10.768-17.392,21.563-27.061,31.482
			c-8.367,8.584-17.86,16.864-29.165,21.267C199.148,356.058,200.438,360.895,203.447,359.723L203.447,359.723z"/>
	</g>
</g>
<g opacity="0.9">
	<g>
		<path fill="#606161" d="M52.254,389.771c12.341,9.982,26.708,15.313,42.114,18.502c3.146,0.65,4.486-4.169,1.329-4.822
			c-14.475-2.995-28.284-7.813-39.908-17.215C53.307,384.228,49.746,387.743,52.254,389.771L52.254,389.771z"/>
	</g>
</g>
<g opacity="0.9">
	<g>
		<path fill="#606161" d="M76.677,385.395c7.385,6.298,15.146,11.868,24.367,15.126c3.048,1.076,4.348-3.756,1.329-4.822
			c-8.375-2.958-15.456-8.121-22.161-13.839C77.774,379.781,74.22,383.3,76.677,385.395L76.677,385.395z"/>
	</g>
</g>
<g opacity="0.9">
	<g>
		<path fill="#606161" d="M87.264,367.116c6.047,7.004,13.439,12.382,20.989,17.641c2.653,1.849,5.148-2.488,2.523-4.316
			c-7.213-5.025-14.201-10.17-19.977-16.859C88.689,361.136,85.168,364.689,87.264,367.116L87.264,367.116z"/>
	</g>
</g>
<g opacity="0.9">
	<g>
		<path fill="#606161" d="M82.25,356.397c14.817,10.11,31.706,15.758,49.484,17.66c3.205,0.343,3.171-4.661,0-5
			c-16.892-1.808-32.904-7.387-46.961-16.979C82.102,350.256,79.604,354.591,82.25,356.397L82.25,356.397z"/>
	</g>
</g>
<g opacity="0.9">
	<g>
		<path fill="#606161" d="M105.588,358.369c10.929,3.918,22.381,5.632,33.824,7.299c3.152,0.459,4.51-4.358,1.329-4.822
			c-11.443-1.666-22.895-3.38-33.824-7.299C103.875,352.456,102.577,357.289,105.588,358.369L105.588,358.369z"/>
	</g>
</g>
<g opacity="0.9">
	<g>
		<path fill="#606161" d="M135.701,341.334c5.415-0.098,10.68-1.526,16.092-1.622c3.221-0.058,3.226-5.058,0-5
			c-5.415,0.096-10.68,1.524-16.092,1.622C132.48,336.393,132.475,341.393,135.701,341.334L135.701,341.334z"/>
	</g>
</g>
<g opacity="0.9">
	<g>
		<path fill="#606161" d="M108.583,357.818c25.541-6.846,46.394-29.644,54.584-54.316c1.019-3.069-3.811-4.374-4.821-1.33
			c-7.644,23.028-27.275,44.441-51.092,50.824C104.143,353.83,105.465,358.653,108.583,357.818L108.583,357.818z"/>
	</g>
</g>
<g opacity="0.9">
	<g>
		<path fill="#606161" d="M126.358,346.122c19.632-16.164,38.197-34.68,49.913-57.523c1.468-2.863-2.846-5.394-4.317-2.523
			c-11.534,22.489-29.805,40.6-49.13,56.512C120.332,344.637,123.89,348.154,126.358,346.122L126.358,346.122z"/>
	</g>
</g>
<g opacity="0.9">
	<g>
		<path fill="#606161" d="M134.094,358.347c14.514-12.392,25.196-27.878,33.79-44.805c1.456-2.868-2.857-5.399-4.317-2.523
			c-8.417,16.576-18.793,31.656-33.008,43.793C128.103,356.909,131.657,360.428,134.094,358.347L134.094,358.347z"/>
	</g>
</g>
<g opacity="0.9">
	<g>
		<path fill="#606161" d="M166.191,325.189c6.691-13.298,13.382-26.597,20.073-39.895c1.445-2.872-2.868-5.404-4.317-2.523
			c-6.691,13.298-13.382,26.597-20.073,39.895C160.428,325.538,164.741,328.07,166.191,325.189L166.191,325.189z"/>
	</g>
</g>
<g opacity="0.9">
	<g>
		<path fill="#606161" d="M174.207,325.721c9.186-23.744,20.671-46.505,32.103-69.225c1.445-2.872-2.868-5.404-4.317-2.523
			c-11.628,23.108-23.265,46.269-32.607,70.418C168.221,327.403,173.057,328.695,174.207,325.721L174.207,325.721z"/>
	</g>
</g>
<g opacity="0.9">
	<g>
		<path fill="#606161" d="M193.659,311.902c4.983-17.975,11.179-35.288,21.516-50.944c1.782-2.699-2.55-5.201-4.317-2.523
			c-10.565,16.001-16.927,33.766-22.02,52.138C187.975,313.685,192.799,315.004,193.659,311.902L193.659,311.902z"/>
	</g>
</g>
<g opacity="0.9">
	<g>
		<path fill="#606161" d="M207.551,303.615c4.551-14.469,10.282-28.509,17.054-42.079c1.435-2.875-2.877-5.408-4.317-2.523
			c-6.961,13.949-12.88,28.399-17.558,43.272C201.759,305.37,206.587,306.679,207.551,303.615L207.551,303.615z"/>
	</g>
</g>
<g opacity="0.9">
	<g>
		<path fill="#606161" d="M227.314,286.508c4.104-5.459,5.877-12.786,7.572-19.272c2.691-10.301,4.571-20.816,6.518-31.277
			c1.925-10.345,3.784-20.707,6.125-30.968c1.679-7.361,3.326-15.596,7.491-22.029c1.758-2.715-2.572-5.219-4.317-2.523
			c-3.861,5.964-5.594,13.366-7.273,20.174c-2.575,10.441-4.442,21.056-6.403,31.624c-1.904,10.262-3.784,20.538-6.217,30.69
			c-1.685,7.03-3.376,15.157-7.813,21.059C221.058,286.565,225.402,289.052,227.314,286.508L227.314,286.508z"/>
	</g>
</g>
<g opacity="0.9">
	<g>
		<path fill="#606161" d="M110.198,394.184c22.424-16.879,41.318-37.63,61.123-57.379c2.285-2.278-1.25-5.813-3.535-3.535
			c-19.483,19.428-38.05,39.991-60.111,56.598C105.132,391.781,107.619,396.125,110.198,394.184L110.198,394.184z"/>
	</g>
</g>
<g opacity="0.9">
	<g>
		<path fill="#606161" d="M137.387,392.59c29.172-22.348,61.061-40.554,93.903-56.906c2.887-1.438,0.353-5.75-2.523-4.318
			c-32.842,16.354-64.731,34.56-93.903,56.906C132.341,390.205,134.826,394.551,137.387,392.59L137.387,392.59z"/>
	</g>
</g>
<g opacity="0.9">
	<g>
		<path fill="#606161" d="M180.131,382.157c26.901-18.018,53.83-36.045,79.477-55.832c2.514-1.939,0.029-6.286-2.523-4.316
			c-25.647,19.786-52.576,37.813-79.477,55.83C174.943,379.624,177.443,383.957,180.131,382.157L180.131,382.157z"/>
	</g>
</g>
<g opacity="0.9">
	<g>
		<path fill="#606161" d="M170.646,403.77c27.991-14.843,53.423-34.15,82.229-47.504c2.923-1.355,0.381-5.665-2.523-4.318
			c-28.806,13.354-54.238,32.662-82.229,47.506C165.273,400.964,167.799,405.28,170.646,403.77L170.646,403.77z"/>
	</g>
</g>
<g opacity="0.9">
	<g>
		<path fill="#606161" d="M157.244,421.187c32.315-10.776,62.745-26.18,94.413-38.596c2.967-1.163,1.677-6-1.329-4.822
			c-31.667,12.416-62.1,27.821-94.413,38.596C152.872,417.379,154.176,422.209,157.244,421.187L157.244,421.187z"/>
	</g>
</g>
<g opacity="0.9">
	<g>
		<path fill="#606161" d="M163.88,430.081c26.676-8.86,52.777-19.294,78.854-29.758c2.954-1.186,1.666-6.023-1.329-4.822
			c-26.077,10.465-52.178,20.898-78.854,29.758C159.506,426.27,160.811,431.099,163.88,430.081L163.88,430.081z"/>
	</g>
</g>
<g opacity="0.9">
	<g>
		<path fill="#606161" d="M154.958,447.812c31.336-10.357,62.641-20.881,92.778-34.417c2.937-1.318,0.392-5.626-2.523-4.316
			c-29.738,13.355-60.664,23.692-91.583,33.911C150.583,443.997,151.888,448.827,154.958,447.812L154.958,447.812z"/>
	</g>
</g>
<g opacity="0.9">
	<g>
		<path fill="#606161" d="M136.578,476.058c33.212-11.19,60.693-35.033,86.966-57.38c27.158-23.1,54.879-49.354,88.907-61.878
			c3-1.104,1.704-5.938-1.329-4.822c-32.527,11.973-59.323,36.061-85.307,58.216c-27.396,23.359-55.827,49.338-90.566,61.042
			C132.21,472.26,133.514,477.09,136.578,476.058L136.578,476.058z"/>
	</g>
</g>
</svg>
