<?xml version="1.0" encoding="utf-8"?>
<!-- Generator: Adobe Illustrator 16.0.0, SVG Export Plug-In . SVG Version: 6.00 Build 0)  -->
<!DOCTYPE svg PUBLIC "-//W3C//DTD SVG 1.1//EN" "http://www.w3.org/Graphics/SVG/1.1/DTD/svg11.dtd">
<svg version="1.1" id="Layer_1" xmlns="http://www.w3.org/2000/svg" xmlns:xlink="http://www.w3.org/1999/xlink" x="0px" y="0px"
	 width="750.9px" height="317.5px" viewBox="0 0 750.9 317.5" enable-background="new 0 0 750.9 317.5" xml:space="preserve">
<g id="eyelid">
	<path fill="#FFFFFF" d="M771.622,209.223c-13.364-3.202-754.751-6.738-741.549-10.504c-3.736,11.127-2.227,23.395,2.053,34.605
		c-1.312,3.594-2.833,7.112-4.533,10.553c-1.893,3.831,1.146,7.307,4.344,7.51c0.137,0.149,0.284,0.293,0.439,0.426
		c-1.428,1.376-1.78,3.611-1.073,5.447c-0.923,2.492,0.469,5.879,3.278,6.963c2.406,0.928,4.764,1.152,7.329,1.179
		c2.388,0.024,3.927-1.345,4.538-3.093c1.317-0.288,2.633-0.596,3.942-0.932c11.84,11.93,27.862,20.502,44.849,14.846
		c6.087-2.027,3.479-11.687-2.658-9.644c-9.199,3.063-18.235,0.568-26.018-4.457c1.803-0.678,3.197-2.413,3.327-4.403
		c1.667,0.259,3.338,0.496,5.02,0.683c5.73,0.635,6.622-8.373,1.329-9.821c-1.814-0.496-3.673-0.958-5.552-1.39
		c1.592,0.014,3.185,0.032,4.778,0.053c0.472,0.011,0.941,0.019,1.412,0.03c1.69,1.227,4.103,1.254,5.853,0.093
		c2.392,0.021,4.784,0.035,7.18,0.035c1.461,0,2.58-0.521,3.379-1.313c3.089,1.67,6.311,3.103,9.581,4.426
		c4.176,3.711,8.798,7.205,13.625,9.668c0.606,0.562,1.405,0.971,2.423,1.131c6.015,2.578,12.273,3.396,18.321,0.91
		c0.368-0.152,0.706-0.361,1.027-0.594c0.478,1.219,1.542,2.217,3.313,2.594c2.022,0.43,4.261,0.865,6.592,1.22
		c14.816,2.884,29.449,6.444,44.554,5.371c10.331,1.335,6.823,17.69,17.225,17.437c-1.228,15.41-2.678,28.54,15.56,9.999
		c7.265,0.903,13.799,8.65,21.117,9.089c0.596,0.769,3.996-13.264,5.083-13.088c16.02,2.604,26.797,3.744,42.599,1.17
		c17.8,5.193,43.405,2.072,61.302-0.17c8.108-1.016,13.79-7.041,21.927-7.816c5.76,0.53,19.13,7.551,24.895,7.816
		c18.915,0.866,7.321-2.285,30.379-4c-2.696,2.884,20.337,11.423,24.85,11c10.735-1.006,3.099-11.115,12.585-16
		c6.225,22.162,6.116-7.87,6.854-8.244c11.057-2.874,19.74,0.513,30.361-3.584c10.66-4.111,28.366-11.042,38.488-16.199
		c8.426-2.836,27.603-5.31,36-8.247c13.428-2.986,7.037-24.394,20.289-27.75c1.102-0.279,1.925-0.802,2.508-1.46
		c20.252-5.522,40.229-12.049,60.492-17.54c1.82-0.493,2.895-1.874,3.309-3.447c3.504-1.13,7-2.283,10.485-3.463
		c1.856,1.565,4.567,1.951,6.413-0.376c0.697-0.878,1.413-1.735,2.136-2.588c1.082-0.383,2.165-0.762,3.245-1.152
		c0.7-0.253,1.403-0.51,2.104-0.764c0.039,1.611,0.902,3.087,2.176,4c0.824,2.803,3.965,5.094,7.328,3.285
		c2.613-1.405,4.935-3.125,7.07-5.039c1.85,1.195,4.282,1.318,5.941-0.742c0.268-0.333,0.518-0.678,0.779-1.014c0,0,0,0,0.002,0.002
		c0.007-0.012,0.014-0.021,0.021-0.032c2.638-3.403,4.931-6.987,6.982-10.716c0.608-0.918,1.213-1.838,1.821-2.756
		c2.49-1.188,4.961-2.408,7.381-3.703c3.478-1.859,3.089-7.409-0.402-8.885c-0.396-3.525-5.389-5.643-8.656-2.968
		c-0.15,0.123-0.297,0.253-0.447,0.377c-0.637,0.132-1.274,0.441-1.883,0.959c-2.904-0.178-5.816-0.192-8.732-0.073
		c2.666-0.475,5.313-1.088,7.928-1.905c4.502-1.408,5.042-8.517,0-9.644c-9.417-2.103-19.098-2.625-28.666-3.681
		c0.654-2.751-0.934-6.168-4.664-6.498c-1.438-0.127-2.882-0.254-4.326-0.381c-0.047-0.051-0.088-0.103-0.138-0.154
		c-0.554-0.563-1.095-1.138-1.638-1.711c2.908,0.549,6.121-1.628,6.205-4.58c4.205,3.61,10.285-3.031,6.433-7.708
		c-8.414-9.953-15.239-21.154-23.697-31.089c-2.565-3.015-5.288-6.039-8.222-8.813c1.792-2.433,1.464-6.88-2.287-8.384
		c-21.762-8.728,9.469-3.968-13.916-4.929c-11.199-2.404-28.217-6.499-39.396-8.042c43.294-6.364-30.317-17.206-32.391-17.208
		c-20.67-0.03-19.061-13.925-39.724-13c-2.161,0.096-10.731-10.52-11.452-9c-0.395-0.257-27.53,0.135-27.999,0
		c-17.336-5.004-19.252-11.19-36.701-8.273c-19.699,3.293-24.382-3.292-44.199-0.75c-0.626,0.08-49.085,0.942-49.711,1.023
		c-21.371-1.29-43.664,2.265-64.839,5c-23.964,3.095-54.859,6.359-77.812,14C205.839,39.1,183.404,57.98,168.83,63.31
		c-0.677-1.056-8.392,22.933-9.568,22.644c-6.064-1.49-16.305,4.474-20.892,7.5c-2.27-2.812-4.378,4.041-5.433,7.9
		c-0.209,0.765,0.182-0.765,0,0c-11.576,4.509-12.138,6.87-21.312,14.295c-9.717,7.864-0.834,22.481-9.251,31.867
		c-4.375-0.666-8.754-1.308-13.135-1.934c-6.188-0.884-9.081,8.036-2.658,9.644c0.932,0.232,1.864,0.466,2.798,0.697
		c-9.554,2.629-19.641,3.896-28.798,7.659c-1.279,0.525-2.42,1.493-3.099,2.669c-2.629,0.622-5.104,1.473-7.614,2.541
		c-4.531-1.149-9.169-1.988-13.958-2.389c-2.99-0.25-6.029,3.438-4.821,6.329c1.883,4.505,4.655,8.565,9.965,8.966
		c3.528,0.268,6.796-1.038,9.953-2.497c1.6,0.447,3.188,0.937,4.767,1.46c-22.54,6.969,695.544,13.42,718.506,18.922
		C780.549,201.086,777.89,210.728,771.622,209.223z M173.752,177.483c1.464-4.91,3.389-9.664,6.122-14.022
		c4.707-7.502,11.251-13.502,18.215-18.89c0.709-0.549,1.432-1.079,2.148-1.618c42.087-13.764,84.53-26.249,128.131-34.64
		c10.231-1.969,20.531-3.793,30.878-5.285c12.354,1.245,24.964,0.722,37.146-0.651c6.474-0.73,12.88-1.808,19.286-2.888
		c0.976,0.038,1.951,0.065,2.927,0.115c14.461,0.749,28.745,2.791,42.817,5.85c29.582,12.826,60.937,22.164,89.703,36.858
		c-4.852,6.396-12.168,11.172-19.119,14.705c-10.518,5.346-22.565,9.498-34.422,10.248c-15.16,0.961-29.86,1.087-44.511,5.791
		c-5.862,1.883-11.506,4.216-16.966,6.904c-0.623-0.324-1.354-0.526-2.199-0.558c-8.8-0.324-16.73,4.978-23.648,9.808
		c-7.815,5.457-15.08,10.539-24.176,13.596c-17.512,5.885-35.564,9.613-53.691,12.976c-10.607,0.327-21.197,1.373-31.483,2.622
		c-30.521,3.707-59.933-3.219-88.659-13.086c-12.123-4.164-26.057-7.473-34.985-17.352c-0.112-0.414-0.229-0.82-0.335-1.244
		C176.162,183.715,175.195,180.451,173.752,177.483z M40.984,195.557c3.897-1.152,7.789-2.318,11.676-3.506
		c-2.116,3.603-1.899,8.303-0.569,12.684c0.14,0.462,0.352,0.887,0.613,1.273c-0.434,1.82-0.962,3.616-1.574,5.388
		c-1.513,1.834-3.016,3.676-4.505,5.528C47.3,209.064,45.97,201.512,40.984,195.557z"/>
</g>
<g id="Layer_1_1_">
	<path fill="none" stroke="#000000" stroke-miterlimit="10" d="M-70.9-190.2c-23.5-24.1-41.7-54.3-76.8-61.4
		c-42.1-8.5-82.2-20.3-123.6-33.3c-43.1-13.5-90.8-9.9-135-4c-27.7,3.7-45.7,14.7-71.6,22.9c-16.5,5.2-35.2,5.1-50.5,14
		c-10.7,6.2-19.1,16.3-29.8,22.8c-23.9,14.7-45,32.4-71.7,42.9c-15.2,6-30.7,10.6-46.1,15.3c-11.3,3.4-31.9,4.8-40.4,10.6"/>
	<path fill="none" stroke="#000000" stroke-miterlimit="10" d="M-70.9-141.1c-31.8-11-43.4-23.5-59.3-52.2
		c-13-23.5-29.2-46.5-54.9-57.9c-37.3-16.6-91.4-17.2-131.5-21.3c-38.1-3.9-73.8-12.9-112.5-9.3c-38.8,3.6-67.9,24.6-103.2,38.5
		c-31.7,12.5-37.4,39-68.4,52.3c-19.6,8.4-47.4,59.3-135.1,27.1"/>
	<path fill="none" stroke="#000000" stroke-miterlimit="10" d="M-683.2-160.4c16.5-1.3,31-8.6,49.5-8.8c20.3-0.2,38.8,2,58.6,4.9
		c46.6,6.7,78.2,29.1,119.5,51.7c29.1,15.9,59,32.1,91.7,36.7c28.8,4.1,60.5,1.9,89.4-0.8c70.4-6.6,136.6-60.5,207.1-36.4"/>
	<path fill="none" stroke="#000000" stroke-miterlimit="10" d="M-83.2-114.7c-6.6-2.9-24-9.6-26.4-17.1c-5.4-16.3,15-11,26.4-11"/>
	<path fill="none" stroke="#000000" stroke-miterlimit="10" d="M-386.8-106.8c-40.8-4.9-57.4-48.3-49.1-82.7
		c10.1-41.5,52-55.7,92-55c44.2,0.7,102,23.5,98.2,75.6c-3,40.4-41.9,61.6-77.5,65.7c-25.4,2.9-45.5-6.7-70.1-8.1"/>
	<path fill="none" stroke="#000000" stroke-miterlimit="10" d="M-349.2-149.6c-19.5,0.9-46.2-9.3-36-35
		c7.5-19.1,39.1-21.6,57.1-17.1c14.1,3.5,41.5,30,28.9,47.8c-9.5,13.4-51.5,4.1-65.6,2.2"/>
	<path fill="none" stroke="#000000" stroke-miterlimit="10" d="M-72.6-101.1c-35.8-23.6-66.5,11.1-100,28.2
		c-31,15.8-73.1,19.4-107.5,22.8c-82.5,8-145-34.6-216.8-67.6c-6.2-2.8-12.1-5.5-17.9-7.5"/>
	<path fill="none" stroke="#000000" stroke-miterlimit="10" d="M-549.8-132.3c-19.7-36.7-87.6-18.3-119.3-19.3"/>
	<path fill="none" stroke="#000000" stroke-miterlimit="10" d="M-139.3-235.8c-11.3-17.7,6.7-39.6-7-57.9"/>
	<path fill="none" stroke="#000000" stroke-miterlimit="10" d="M-176.1-260.4c-16.6-2.4-37.9-26.7-49.1-38.6"/>
	<path fill="none" stroke="#000000" stroke-miterlimit="10" d="M-300.7-288.4c8.4,3.9,16.8,8.1,26.3,7"/>
	<path fill="none" stroke="#000000" stroke-miterlimit="10" d="M-325.3-279.6c-6.6-10.8-10.2-22.1-10.5-35.1"/>
	<path fill="none" stroke="#000000" stroke-miterlimit="10" d="M-353.3-283.2c-13.1-3.7-36.7-10-33.3-28.1"/>
	<path fill="none" stroke="#000000" stroke-miterlimit="10" d="M-413-281.4c-10.5-2.5-20-9.7-24.6-19.3"/>
	<path fill="none" stroke="#000000" stroke-miterlimit="10" d="M-446.3-270.9c-11-1.2-30.6-7.5-36.8-17.5"/>
	<path fill="none" stroke="#000000" stroke-miterlimit="10" d="M-541.1-260.4c7.5,3.6,14.6,6.9,22.8,7"/>
	<path fill="none" stroke="#000000" stroke-miterlimit="10" d="M-600.7-227c5.4,4.7,13.7,7.1,21.1,10.5"/>
	<path fill="none" stroke="#000000" stroke-miterlimit="10" d="M-600.7-202.5c-9.7,0.2-20.7,2.3-26.3-7"/>
	<path fill="none" stroke="#000000" stroke-miterlimit="10" d="M-632.3-184.9c-9.6-0.9-18.1-5-24.6-12.3"/>
	<path fill="none" stroke="#000000" stroke-miterlimit="10" d="M-297.2-309.5c13,3.6,20.5,14.7,24.6,28.1"/>
	<path fill="none" stroke="#000000" stroke-miterlimit="10" d="M-300.7-284.9c-7.9-11.3-14.1-21.6-17.5-35.1"/>
	<path fill="none" stroke="#000000" stroke-miterlimit="10" d="M-265.6-311.2c3.1,13.1,2.8,24.4,10.5,36.8"/>
	<path fill="none" stroke="#000000" stroke-miterlimit="10" d="M-227-272.6c-1.6-9.9-7.2-21.6-12.3-29.8"/>
	<path fill="none" stroke="#000000" stroke-miterlimit="10" d="M-320-62.1c-13.2,0.3-24.8,5.5-33.3,15.8"/>
	<path fill="none" stroke="#000000" stroke-miterlimit="10" d="M-460.4-86.7c12.4,0,27.8-2.9,38.6,3.5"/>
	<path fill="none" stroke="#000000" stroke-miterlimit="10" d="M-462.1-109.5c-16.7,0-35.9-1.1-50.9,5.3"/>
	<path fill="none" stroke="#000000" stroke-miterlimit="10" d="M-516.5-130.5c-12.8,2.8-19.8,5.4-29.8,14"/>
	<path fill="none" stroke="#000000" stroke-miterlimit="10" d="M-623.5-139.3c10-10.9,27.5-20.1,42.1-19.3"/>
	<g>
		<g>
			<path d="M-347.2-179.1c-4.6,4.8-10,7.2-9.6,14.7c0.1,1.5,1.6,3,3.2,2.4c3.6-1.3,7.2-3.1,8.7-6.9c1.1-2.9-1-5.8-3.4-7.2
				c-8.6-5.2-16.6,4.1-19.1,11.3c-0.3,1,0.2,2.3,1.1,2.8c6.3,3.4,13.9,2.7,19-2.6c4-4.2,2.2-10-3.6-10.8c0.6,0.8,1.2,1.6,1.8,2.4
				l0,0c-0.8,0.8-1.7,1.7-2.5,2.5c6.8,0.3,9.7-5.6,3.5-10c-6.5-4.7-4.1,10.4-4.2,11.1c1-0.6,2-1.2,3.1-1.7c0.5,0.4,1,0.8,1.5,1.2
				c-1.1-3-5.4-1.9-4.8,1.3c0,0.1,0,0.1,0,0.2c0.1,0.8,1,1.6,1.7,1.7c3.6,0.6,9.8-6.2,11.2-9.2c0.8-1.7-0.2-3.7-2.2-3.8
				c-3.3-0.1-4.7,5.9-5.7,8.2c-0.9,2.1-1.8,4.4-0.7,6.5c2.1,4.1,11-1.2,13.9-1.4c3.1-0.3,3.3-5.1,0-5c-1.8,0-3.5-3.6-4.3-4.9
				c-1.5-2.4-3-5.1-5.3-6.8c-7-5.3-12.6,4.9-15.1,10c-0.6,1.2-0.4,2.8,0.9,3.4c9.1,4.8,17.6,3.8,25.8-2.2c1.3-1,1.7-2.7,0.5-3.9
				c-4.7-5.1-11.5-11.5-19.1-9.6c-5.1,1.3-7.9,6.8-8.9,11.5c-0.7,3.4-1.1,9.7,2.7,11.5c5.7,2.7,9.8-6.9,11.5-10.6
				c0.5-1.2,0.4-2.8-0.9-3.4c-3.6-1.8-7.7-4.5-11.9-4.4c-4.4,0.2-7.4,4.9-9.6,8.1c-0.6,0.9-0.4,2.3,0.4,3
				c4.4,3.9,11.2,10.1,17.7,8.2c4.3-1.3,5.4-6.3,4.8-10.1c-0.5-3.4-2.3-7.3-6.2-7.6c-5.8-0.4-8,9.7-8.9,13.5
				c-0.4,1.7,0.8,2.9,2.4,3.2c3.5,0.5,7.2,1.3,10.6,0.1c3.5-1.1,5.8-4.8,8-7.5c0.8-1,1.1-2.6,0-3.5c-9.4-7.8-20.8-9.3-27.2,2.7
				c-0.5,1-0.4,2.2,0.4,3c4.8,4.6,14.3,10.7,18.9,2.3c3-5.6,0.1-13.6-5.7-15.9c-6.7-2.8-20.7,1.6-19.3,10.6
				c1.4,8.8,12.8,14.1,20.7,14.3c1,0,2.2-0.8,2.4-1.8c0.7-3.5,2.4-6.7,3.1-10.2c0.6-2.8-3-4.3-4.6-1.9c-1.5,2.3-4.1,5.2-3.9,8.1
				c0.2,2.7,2.8,5.3,3.5,7.9c0.6,1.9,3.6,2.6,4.6,0.6c1.8-3.8,3.3-7.9,5.1-11.7c1.1-2.4-2-5.4-3.9-3c-3.1,3.7-4.7,7.9-7.2,12
				c-1.1,1.8,0.4,3.5,2.2,3.8c11.4,1.4,21.2-1.2,25.1-12.9c0.9-2.8-3.1-4.3-4.6-1.9c-7.2,11.9-26.7,18.9-39.2,11.3
				c-7.1-4.3-8.4-15.2-4.9-22.2c4.4-8.5,15.5-11.2,24.3-11.3c9.2,0,16.5,3.7,22.8,10.2c3.3,3.5,6.4,7.9,6.1,12.9
				c-0.6,8.9-13.7,12.4-20.6,13.7c-10.3,1.9-22.4,1.1-31.6-4.3c-9.8-5.8-11.5-19.2-4-27.8c6-6.9,16.2-9.8,25-11.2
				c8.8-1.4,18.6-1,25.9,4.6c9.3,7.2,12.7,18.1,3.9,27.1c-7.9,8.1-21,10.4-31.7,8.2c-9.3-1.9-24.4-9.2-18.5-20.9
				c4.8-9.6,17.2-14.7,27.3-15.5c14.1-1.1,25.1,7.3,30.1,20.2c2.8,7.3,5,16.7-4.3,20c-8,2.8-17.7,0.8-25.7-0.9
				c-3.2-0.7-4.2,3.6-1.3,4.8c13.5,5.6,32.7,2.4,41.7-10c9.2-12.7,0-27-11.9-33.8c-12.2-7-27.6-9.8-41.5-9.2
				c-11.9,0.6-25.4,5.2-28.3,18.2c-0.6,2.8,3,4.3,4.6,1.9c9.8-14.5,26.1-18.9,42.5-13.7c13.4,4.2,27,14.8,31.4,28.5
				c4.8,14.9-7.8,25.1-21.3,27.2c-15.4,2.4-34.4-2.1-46.6-12.1c-10.7-8.8-9.7-20.6-1-30.5c-1.4-0.8-2.8-1.6-4.2-2.4
				c-8,35.4,36.6,50.1,63.7,39.6c-0.6-1.5-1.3-3-1.9-4.6c-10.5,5.2-21.4,6.4-32.6,2.7c-10.5-3.4-19.6-10.8-27.8-17.9
				c-2.2-1.9-5.1,0.5-3.9,3c6.1,13.9,21.2,16.2,34.6,18c0.4-1.6,0.9-3.2,1.3-4.8c-7.6-1-15.2-2-22.4-4.8c-0.4,1.6-0.9,3.2-1.3,4.8
				c2.9,0.6,5.3,2.4,8.1,3.3c2.7,0.9,4.5-3.3,1.9-4.6c-0.5-0.2-0.9-0.5-1.4-0.7c-2.9-1.4-5.4,2.9-2.5,4.3c0.5,0.2,0.9,0.4,1.4,0.7
				c0.6-1.5,1.3-3,1.9-4.6c1,0.4-0.6-0.3-0.6-0.3c-1-0.5-2-0.9-3-1.3c-1.5-0.6-2.9-1.4-4.5-1.7c-3.2-0.7-4.3,3.7-1.3,4.8
				c7.2,2.7,14.8,3.8,22.4,4.8c3.2,0.4,4.5-4.4,1.3-4.8c-12.1-1.6-26.1-3.1-31.6-15.7c-1.3,1-2.6,2-3.9,3
				c9.4,8.2,19.4,15.8,31.4,19.7c11.8,3.9,24.1,1.7,35.1-3.7c2.5-1.2,0.7-5.6-1.9-4.6c-23.1,9-64.7-1.7-57.5-33.4
				c0.5-2.3-2.4-4.4-4.2-2.4c-10,11.4-11.8,25.4-0.2,36.5c11.2,10.7,28.6,15,43.6,15.1c13.8,0.1,28.5-4.8,33.8-18.7
				c4.7-12.4-3.5-25.6-12.2-33.9c-9.6-9.2-22.5-15.1-35.7-15.9c-14.5-0.8-27.1,6.6-35.1,18.4c1.5,0.6,3,1.3,4.6,1.9
				c2.4-10.8,13.8-13.9,23.5-14.5c11.8-0.8,24.2,1.7,35,6.5c10.2,4.5,22.1,15.5,15.2,27.3c-7,12-25.5,14.1-37.2,9.3
				c-0.4,1.6-0.9,3.2-1.3,4.8c12.6,2.7,37.4,6.5,38.9-12.3c0.6-8.3-4.1-18.3-9.3-24.7c-4.4-5.4-10.1-9.2-16.8-11
				c-12-3.3-26.1,0.5-35.7,8.2c-7.9,6.3-13.4,17.1-6.1,26c11.2,13.7,33.8,14.5,48.6,7.2c7.3-3.6,14.3-10.7,14.9-19.3
				c0.7-9.9-6.3-17.7-13.9-23.1c-6.5-4.6-16-4.7-23.5-4.1c-8.9,0.8-18,3.4-25.5,8.3c-10.3,6.6-15.2,20.5-9.4,31.7
				c4.7,9.1,15.9,12.8,25.4,14c10.6,1.3,22,0.1,31.6-4.7c7.8-3.9,13.4-11.4,10.6-20.3c-4.3-13.7-19.5-21.8-33.1-22.1
				c-10.9-0.3-22.9,4-28.6,13.7c-4.9,8.3-2.9,20.9,4.3,27.2c13.9,12.4,39.7,3,48.4-11.4c-1.5-0.6-3-1.3-4.6-1.9
				c-3.2,9.6-11.4,10.4-20.3,9.3c0.7,1.3,1.4,2.5,2.2,3.8c2.3-3.7,3.7-7.6,6.5-11c-1.3-1-2.6-2-3.9-3c-1.8,3.8-3.3,7.9-5.1,11.7
				c1.5,0.2,3,0.4,4.6,0.6c-0.6-2.2-1.4-4.3-2.7-6.2c-0.6-0.9-0.8-0.5-0.4-1.4c0.8-1.6,1.9-3.2,3-4.7c-1.5-0.6-3-1.3-4.6-1.9
				c-0.7,3.5-2.4,6.7-3.1,10.2c0.8-0.6,1.6-1.2,2.4-1.8c-5.6-0.1-11.7-3.1-14.8-7.8c-4.1-6.1,7.4-8.9,11.6-7.6
				c3.3,1,4.3,5.5,3.5,8.4c-1.6,5.7-9.3-1.2-11.2-3c0.1,1,0.3,2,0.4,3c4.8-9,12.4-7.5,19.4-1.7c0-1.2,0-2.4,0-3.5
				c-1.7,2.1-3.4,4.7-5.8,6.1c-2.3,1.4-6.9,0-9.3-0.3c0.8,1.1,1.6,2.1,2.4,3.2c0.6-2.2,1.8-9.1,4.3-9.9c-0.6,0.2-0.2,0,0.2,0.7
				c0.5,0.9,0.8,2,0.9,3c1,9.9-11.5-0.4-14.1-2.6c0.1,1,0.3,2,0.4,3c1.3-1.9,3.3-5.6,6-5.7c2.8-0.1,6.3,2.5,8.7,3.7
				c-0.3-1.1-0.6-2.3-0.9-3.4c-1.1,2.5-2.3,5.1-4.1,7.2c-1.2,1.4-1.6,0.7-0.6,1.6c-1.1-0.9-0.6-5-0.2-6.8c0.7-2.9,2.2-6.1,5.2-7.1
				c5.3-1.7,11.2,5,14.3,8.3c0.2-1.3,0.3-2.6,0.5-3.9c-6.8,4.9-13.2,6.2-20.8,2.2c0.3,1.1,0.6,2.3,0.9,3.4c1.1-2.3,3.6-8.6,6.7-8.9
				c1.8-0.2,3.6,3.4,4.4,4.6c2.2,3.4,4.7,8.8,9.4,8.6c0-1.7,0-3.3,0-5c-3.2,0.3-6.2,1.3-9.2,2.4c-0.5,0.2-1.1,0.4-1.6,0.5
				c0,0,1.1,2.3,1.6,0.6c0.4-1.3,3.8-6.7,1.8-6.8c-0.7-1.3-1.4-2.5-2.2-3.8c-0.6,1.2-2.1,2.3-3,3.3c-0.8,0.8-1.6,1.6-2.4,2.3
				c-1.1,1.1-2,0.9-0.2,1.3c0.6,0.6,1.2,1.2,1.7,1.7c0-0.1,0-0.1,0-0.2c-1.6,0.4-3.2,0.9-4.8,1.3c0.4,1,0.8,2,2,2.3
				c1.3,0.3,2.8-0.4,3.1-1.7c0.5-2.3-0.3-5.1-0.4-7.5c0-0.5-0.1-1.1,0-1.7c-1,0.3-1.9,0.7-2.9,1c0.6,1.4,1.1,1.6,1.7,0.5
				c-0.6,0.4-1.9,0.2-2.5,0.2c-1.3,0-2.6,1.2-2.5,2.5l0,0c0.1,1,0.7,2.3,1.8,2.4c3.3,0.5,1.9,2.3-0.1,3.8c-3.4,2.6-7.8,2.4-11.4,0.4
				c0.4,0.9,0.8,1.9,1.1,2.8c1.5-4.3,4.8-9.7,10.1-8.9c5.9,0.9-0.1,4.6-2.5,5.5c1.1,0.8,2.1,1.6,3.2,2.4c-0.3-5.6,4.7-7.6,8.1-11.2
				C-341.5-177.9-345-181.5-347.2-179.1L-347.2-179.1z"/>
		</g>
	</g>
	<g>
		<g>
			<path d="M-355.9-199.8c-9.8-2.2-20.8-1.2-26.7,7.9c-5.1,7.8-3.8,17.8-0.1,25.8c4,8.5,11.3,14.5,19.7,18.3
				c8.5,3.8,18.7,6.1,25.7,10.1c0.8-6.1,1.6-12.2,2.4-18.3c-6.3,2.3-12,2.1-17.9-1.1c-5-2.7-9.2-8-9.8-13.8c-0.6-5.4-4.1-10-10-10
				c-5,0-10.6,4.6-10,10c1.5,12.9,7.8,23.3,18.7,30.5c9.9,6.5,23.3,7.9,34.3,3.7c7.8-2.9,10.4-13.7,2.4-18.3
				c-6.1-3.5-13-5.5-19.6-7.8c-2.9-1-5.7-2.1-8.4-3.4c-3.3-1.6-4.8-2.5-6.8-4.8c-0.5-0.5-0.9-1-1.3-1.5c0.5,0.7,0.5,0.6-0.2-0.4
				c-0.2-0.3-1.9-3.6-1.2-1.9c-0.5-1.2-0.8-2.4-1.1-3.6c-0.2-1.2-0.2-1.2,0,0c-0.1-0.9-0.1-1.7,0-2.6c-0.1,2.9,1-2.3-0.2,0.4
				c0.6-0.9,0.5-0.9-0.3,0.1c1.4-1.9-1.7,0.9,0.4-0.4c0.6-0.4,0.8-0.2,0.2-0.1c1.8-0.2,3.1,0.1,4.7,0.4
				C-348.7-177.7-343.4-197-355.9-199.8L-355.9-199.8z"/>
		</g>
	</g>
	<g>
		<g>
			<path d="M-340.7-209.7c-18.7-2.1-32.9,9.8-41.5,25.3c-6.2,11.3,11.1,21.4,17.3,10.1c5.6-10.1,12.2-16.8,24.2-15.4
				c5.4,0.6,10-5,10-10C-330.7-205.7-335.3-209.1-340.7-209.7L-340.7-209.7z"/>
		</g>
	</g>
	<g opacity="0.1">
		<g>
			<path d="M-64.7-145.4c-4.3-0.8-6.6-1.8-9.4-3.2c-4-2-7.8-4.6-11.4-7.3c-7.9-5.9-15.6-14.2-22.3-21.9c-6.7-7.7-12.8-16-18.4-24.5
				c-2.6-3.9-5-8-7.3-12.1c-1-1.8-2-3.7-2.9-5.6c-0.4-0.9-0.8-1.7-1.3-2.6c-0.3-0.6-0.5-1.1-0.8-1.7c0.4,1,0.4,1,0,0
				c-2.1-5-6.6-8.6-12.3-7c-4.8,1.3-9,7.2-7,12.3c8.3,20.4,21.5,38.7,35.7,55.3c13.3,15.5,31.1,33.6,52,37.7c5.3,1,10.8-1.4,12.3-7
				C-56.4-138.1-59.4-144.4-64.7-145.4L-64.7-145.4z"/>
		</g>
	</g>
	<g opacity="0.1">
		<g>
			<path d="M-61.7-160.3c-10.3-3.5-19.9-8.7-28-16c-7.5-6.9-13.2-14.8-18.9-23.1c-7.1-10.2-13.8-20.9-22.9-29.5
				c-9.3-8.6-20.2-14.3-31.8-19.1c-25.2-10.6-51.2-20-77.2-28.5c-26.9-8.9-54.6-14.7-83.1-15.6c-49.1-1.6-99.1-1.5-147.6,7.2
				c-44.3,8-88,26.1-115.3,63.4c-11.8,16.1-32.1,22.9-50.5,28c-22.2,6.1-44.8,10.4-65.8,20.2c-4.9,2.3-6.2,9.3-3.6,13.7
				c2.9,5,8.8,5.9,13.7,3.6c20.9-9.9,44.3-13.3,66.3-19.7c22.9-6.7,43.5-17.1,57.8-36.7c25.7-35,71.5-48.4,112.4-54.8
				c23.7-3.7,47.7-4.8,71.7-5.2c25.4-0.5,51.4-0.9,76.7,1.4c27.2,2.5,53.5,10.8,79.2,19.9c13.7,4.8,27.3,9.7,40.7,15.1
				c10.7,4.3,21.5,7.9,31.4,13.7c17.6,10.3,26.6,28.9,38.6,44.5c13.4,17.5,29.7,29.8,50.7,36.9C-54.8-136.8-49.6-156.1-61.7-160.3
				L-61.7-160.3z"/>
		</g>
	</g>
	<g opacity="0.1">
		<g>
			<path d="M-64.7-177c-18.5-5.2-34-17.1-49.1-28.6c-16.4-12.5-32.9-24.6-52.7-31c-12.3-4-17.5,15.3-5.3,19.3
				c18.4,6,33.9,18.3,49.1,29.9c16.2,12.4,32.8,24.1,52.7,29.7C-57.6-154.2-52.3-173.5-64.7-177L-64.7-177z"/>
		</g>
	</g>
	<g opacity="0.1">
		<g>
			<path d="M-53.5-179.4c-32.5-45.2-86.9-66-137.6-83.5c-5.2-1.8-10.9,2-12.3,7c-1.5,5.5,1.8,10.5,7,12.3
				c45.1,15.6,96.6,33.9,125.6,74.4c3.2,4.4,8.6,6.5,13.7,3.6C-52.7-168.3-50.3-175-53.5-179.4L-53.5-179.4z"/>
		</g>
	</g>
	<g opacity="0.1">
		<g>
			<path d="M-58.5-121.2c-12.4-1-24.9,2.8-36.6,6.3c-6,1.8-12,3.7-18.1,5.4c-6.5,1.8-13.1,2.8-19.7,4.4
				c-13.7,3.4-26.4,9.8-39.5,14.7c-8.7,3.2-17.8,5.5-26.7,8.2c-24.5,7.6-49.8,11.4-74.9,14.8c-25.3,3.4-51.1,8.8-76.7,5.8
				c-23.3-2.7-45.7-12.1-66.6-22.2c-45.8-22.4-87.9-52.7-136.7-68.6c-31.3-10.2-63.3-9.2-95.8-9.2c-12.9,0-12.9,20,0,20
				c15.3,0,30.6-0.5,45.9,0.2c14.3,0.7,28.1,3.2,41.8,7.4c23.5,7.1,45.5,18.7,67,30.5c43.5,24,87.4,53.2,137.5,61
				c26.3,4.1,52-0.7,78.1-4.1c17.3-2.3,34.6-4.5,51.7-7.6c10.2-1.9,20.2-4.4,30.2-7.4c6.9-2.1,13.7-4.3,20.6-6.2
				c13.7-3.8,26.4-10.3,39.7-15c6.9-2.4,13.8-3.8,21-5.2c6.9-1.4,13.7-3.6,20.4-5.7c12-3.7,24.7-8.5,37.4-7.5c5.4,0.4,10-4.9,10-10
				C-48.5-117-53.1-120.8-58.5-121.2L-58.5-121.2z"/>
		</g>
	</g>
	<g opacity="0.1">
		<g>
			<path d="M-544.8-169c-9.7-4.2-20.6-9.6-26.9-18.6c-5.9-8.4-3.4-18.2,4.5-25.7c7.7-7.3,19.4-10.1,29.3-13.3
				c12.1-3.9,23.7-8.3,33.8-16.2c4.3-3.4,3.5-10.6,0-14.1c-4.2-4.2-9.9-3.4-14.1,0c-9.6,7.6-22.8,10.3-34.2,14.1
				c-13.6,4.5-26.6,10.8-35.1,22.7c-8.8,12.5-9.9,28.4-2.1,41.6c7.6,12.7,21.6,21,34.8,26.8c5,2.2,10.7,1.5,13.7-3.6
				C-538.7-159.6-539.8-166.8-544.8-169L-544.8-169z"/>
		</g>
	</g>
	<g opacity="0.1">
		<g>
			<path d="M-455.1-270.4c-20.4,2.4-40,9.5-57.9,19.6c-18.1,10.2-34.8,24.5-43,43.9c-7.8,18.4-5.7,38.2,9.7,51.8
				c13.9,12.3,32.7,17.9,50,23.6c12.3,4.1,17.5-15.2,5.3-19.3c-13.5-4.5-29.2-9.2-39.5-17.2c-5.4-4.2-8.1-7.7-9.5-12.6
				c-0.9-3.1-0.8-5.2-0.4-9.3c0.3-2.6,1.9-7.4,3.2-10.5c6.4-14.9,20.6-25.4,34.3-33.3c7.8-4.5,16.1-8.2,24.6-11.1
				c7.3-2.5,16.6-4.9,23.2-5.7c5.4-0.6,10-4.1,10-10C-445.1-265.3-449.7-271-455.1-270.4L-455.1-270.4z"/>
		</g>
	</g>
	<g opacity="0.1">
		<g>
			<path d="M-463.8-130.6c-15.4-12.6-29-27.6-38.9-44.8c-9.5-16.4-15-36.3-5.1-53.6c6.4-11.2-10.4-20.9-17.3-10.1
				c-8.2,12.9-13.5,27.1-12.8,42.6c0.6,15.1,6.1,29.7,10.1,44.1c3.5,12.5,21.9,7.2,19.3-5.3c-3.7-17.4-13.4-33.6-13.7-51.7
				c-0.2-10.4-13.1-13.1-18.6-5c-8.5,12.3-11.2,26.5-13.3,41c6.1-0.8,12.2-1.6,18.3-2.4c-4.6-9.3-7.7-19-9.5-29.2
				c-0.8-4.3-5.5-7.3-9.6-7.3c-4.8,0-8,3.1-9.6,7.3c-3.5,8.8-7,17.5-10.5,26.3c6.5,0.9,13.1,1.8,19.6,2.7c-0.2-3.6-1.1-6.8-2.4-10.1
				c-0.8-2-2.8-6.2-2.8-7.4c-0.6-8.7-10.4-13.2-17.1-7.1c-3.8,3.5-12.5,7.6-17.5,12.3c5.7,2.4,11.4,4.7,17.1,7.1
				c-0.4-2.9-1.5-5.9-1.8-8.8c-0.6-8.6-10.4-13.3-17.1-7.1c-7.9,7.5-20.4,8.3-30.7,9.7c-5.4,0.8-8.3,7.6-7,12.3
				c1.6,5.8,6.9,7.8,12.3,7c14.3-2,28.6-4.6,39.5-14.9c-5.7-2.4-11.4-4.7-17.1-7.1c0.2,2.7,1.6,7.4,1.8,8.8
				c1.1,8.4,10.1,13.5,17.1,7.1c3.8-3.5,12.5-7.6,17.5-12.3c-5.7-2.4-11.4-4.7-17.1-7.1c0.2,3.6,1.1,6.8,2.4,10.1
				c0.8,2,2.8,6.2,2.8,7.4c0.8,11.7,15.5,13,19.6,2.7c3.5-8.8,7-17.5,10.5-26.3c-6.4,0-12.9,0-19.3,0c2.1,11.9,6.2,23.1,11.5,34
				c3.6,7.3,17.1,6.2,18.3-2.4c1.8-12.8,3.8-25.3,11.3-36.2c-6.2-1.7-12.4-3.4-18.6-5c0.3,20.2,10.3,37.7,14.4,57
				c6.4-1.8,12.9-3.5,19.3-5.3c-3.3-11.8-7.9-24.1-9.2-36.2c-1.3-13,3-24.2,9.9-35.1c-5.8-3.4-11.5-6.7-17.3-10.1
				c-25.3,44.3,13.8,95.3,47.2,122.6c4.2,3.4,10,4.1,14.1,0C-460.2-120-459.6-127.1-463.8-130.6L-463.8-130.6z"/>
		</g>
	</g>
	<g opacity="0.1">
		<g>
			<path d="M-114.2-160.4c-0.1,14.3-4.7,31.1-17.9,38.7c-11.1,6.5-1.1,23.8,10.1,17.3c19.3-11.3,27.5-34.6,27.8-56
				C-94.1-173.3-114.1-173.2-114.2-160.4L-114.2-160.4z"/>
		</g>
	</g>
	<g opacity="0.1">
		<g>
			<path d="M-142.3-177.9c0.1,19.7,3.9,44.1-11.1,59.6c-9,9.3,5.2,23.4,14.1,14.1c19.5-20.2,17-47.9,17-73.7
				C-122.3-190.8-142.3-190.8-142.3-177.9L-142.3-177.9z"/>
		</g>
	</g>
	<g opacity="0.1">
		<g>
			<path d="M-136.7-217.4c15.7,48-4.4,119.6-59.7,129.8c-5.4,1-8.3,7.4-7,12.3c1.5,5.6,6.9,8,12.3,7c66.1-12.2,92.5-96.9,73.7-154.4
				C-121.4-234.9-140.7-229.7-136.7-217.4L-136.7-217.4z"/>
		</g>
	</g>
	<g opacity="0.1">
		<g>
			<path d="M-81.4-112.5c-23.5-1.5-46.5-7.5-70-2.3c-11.5,2.5-22.4,8.2-33,13.1c-10.2,4.7-20.4,9-31.2,12
				c-49.6,13.5-102.8,7.2-153.5,7.1c-12.9,0-12.9,20,0,20c51.8,0.1,104.4,5.1,155.3-6.9c11.8-2.8,22.9-7.3,33.9-12.3
				c10.1-4.5,19.9-9.7,30.6-12.8c22-6.4,45.7,0.8,67.9,2.2C-68.5-91.6-68.6-111.6-81.4-112.5L-81.4-112.5z"/>
		</g>
	</g>
	<path fill="none" stroke="#000000" stroke-miterlimit="10" d="M-83.2,216.2c-23.5-24.101-27.1-41.101-62.2-48.2
		c-42.1-8.5-69.5-5.5-112.8-8.4c-49.8-3.3-84.2-10.897-128.5-4.897c-18.9,2.5-23.1,2.4-74.6,9.198c-17.1,2.199-34.9-11-50.2-2.101
		c-33.2,19.3-28.5-26.5-56.8-9.1c-23.9,14.7-34.9-11.9-61.7-1.3c-15.2,6-30.7,10.6-46.1,15.3c-11.3,3.399-31.9,4.8-40.4,10.6"/>
	<path fill="none" stroke="#000000" stroke-miterlimit="10" d="M-70.9,196.5c-31.8-11-43.4-23.5-59.3-52.2
		c-13-23.5-1.7,31.101-27.4,19.7c-37.3-16.6-91.1,1.9-131.2-2.2c-42.7-4.4-62.3-4.9-114.6,0c-39.5,3.7-26.7,10.601-102.2,10.601
		c-34.1,0-56.5-26-87.5-12.698c-19.6,8.397-55.1,46.198-142.8,14"/>
	<path fill="none" stroke="#000000" stroke-miterlimit="10" d="M-675.9,170.2c16.5-1.3,55-17.3,73.4-17.5
		c20.3-0.2,41.6,17.1,61.4,19.899c46.6,6.698,58.2-16.202,99.5,6.5c29.1,15.898,59,32.101,91.7,36.698c28.8,4.103,60.5,1.9,89.4-0.8
		c70.4-6.602,136.6-60.5,207.1-36.398"/>
	<path fill="none" stroke="#000000" stroke-miterlimit="10" d="M-83.2,222.8c-6.6-2.899-24-9.6-26.4-17.1c-5.4-16.3,15-11,26.4-11"
		/>
	<path fill="none" stroke="#000000" stroke-miterlimit="10" d="M-406.2,192.1c-40.4-0.397-36.9-3.3-33.1-13.699
		c4.6-12.601,37-11.5,76.1-12.301c43.1-0.897,149.4,3.4,111.8,13.603c-34.4,9.3-47.3,6.8-81.5,8.897
		C-357.2,190.1-382.1,191.9-406.2,192.1"/>
	<path fill="none" stroke="#000000" stroke-miterlimit="10" d="M-83.3,234.4c-35.8-23.603-41.3-54.2-84.9-60.801
		c-22.5-3.399-69.6,1.898-118.6,6.601c-82.5,8-211.3,25.3-283.1-7.7c-6.2-2.8,50.3,39.8,44.5,37.8"/>
	<path fill="none" stroke="#000000" stroke-miterlimit="10" d="M-549.8,205.3c-19.7-36.7-87.6-18.3-119.3-19.3"/>
	<path fill="none" stroke="#000000" stroke-miterlimit="10" d="M-168.3,161.8c-19.3-30.2-2.7-52.1-7-57.9"/>
	<path fill="none" stroke="#000000" stroke-miterlimit="10" d="M-182,155.9c-16.1-4.7-33.6,28.1-43.1,14.7"/>
	<path fill="none" stroke="#000000" stroke-miterlimit="10" d="M-301.3,170.3c7.8,5.101,15.5-49.6,25-49.3"/>
	<path fill="none" stroke="#000000" stroke-miterlimit="10" d="M-326.8,175.4c-5-11.7-6.9-23.3-5.4-36.2"/>
	<path fill="none" stroke="#000000" stroke-miterlimit="10" d="M-354.1,167.9c-12.4-5.5-34.9-15.2-29-32.603"/>
	<path fill="none" stroke="#000000" stroke-miterlimit="10" d="M-413.4,161.1c-10-4-18.4-12.5-21.5-22.6"/>
	<path fill="none" stroke="#000000" stroke-miterlimit="10" d="M-447.9,166.7c-10.7-2.8-29.2-11.8-33.9-22.7"/>
	<path fill="none" stroke="#000000" stroke-miterlimit="10" d="M-502.6,172.6c6.4,5.301,28.4-40.397,20.6-47.897"/>
	<path fill="none" stroke="#000000" stroke-miterlimit="10" d="M-568.3,131.4c4.1,5.8,11.7,10,18.1,15.1"/>
	<path fill="none" stroke="#000000" stroke-miterlimit="10" d="M-574,155.3c-9.5-2-20.7-2.5-24-12.9"/>
	<path fill="none" stroke="#000000" stroke-miterlimit="10" d="M-608.7,165.1c-9.1-3-16.4-9.1-21.1-17.6"/>
	<path fill="none" stroke="#000000" stroke-miterlimit="10" d="M-294.8,149.9c12.4,5.4,18.2-42.5,20.3-28.7"/>
	<path fill="none" stroke="#000000" stroke-miterlimit="10" d="M-301.8,173.7c-6.2-12.3-10.8-23.4-12.3-37.2"/>
	<path fill="none" stroke="#000000" stroke-miterlimit="10" d="M-263.3,152.7c1.2,13.5-0.8-35.5,5.1-22"/>
	<path fill="none" stroke="#000000" stroke-miterlimit="10" d="M-230.6,136.5c-0.2-10-4.1,37.6-7.9,28.7"/>
	<path fill="none" stroke="#000000" stroke-miterlimit="10" d="M-318.7,199.4c-13,2.5-23.6,9.5-30.3,21"/>
	<path fill="none" stroke="#000000" stroke-miterlimit="10" d="M-461.2,198.2c12.2-2,26.9-7.4,38.7-2.9"/>
	<path fill="none" stroke="#000000" stroke-miterlimit="10" d="M-466.7,176c-16.5,2.7-35.6,4.8-49.3,13.5"/>
	<path fill="none" stroke="#000000" stroke-miterlimit="10" d="M-516.5,207c-12.8,2.8-19.8,5.4-29.8,14"/>
	<path fill="none" stroke="#000000" stroke-miterlimit="10" d="M-623.5,198.2c10-10.9,27.5-20.101,42.1-19.3"/>
	<g>
		<g>
			<path d="M-357.8,154.2c-7.8-0.8-18.1-0.8-23.8,5.6c-5.8,6.601-4,15.9,2.3,21.4c12.2,10.6,30.3,9.2,45.1,13.2
				c0-6.4,0-12.9,0-19.301c-6.2,1.101-12.7,0.698-18.8-0.602c-2.7-0.602-4.9-1.3-7.2-2.5c-0.6-0.398-1.3-0.7-1.9-1.102
				c0.7,0.5,0.6,0.399-0.3-0.301c-1.7-1.6,0.6,2.103,0.1,0.103c-3.2-12.5-22.5-7.2-19.3,5.3c2.4,9.2,11,13.898,19.3,16.8
				c10.6,3.7,22.4,3.603,33.3,1.7c10.1-1.7,9-16.898,0-19.3c-10.8-2.9-22.1-3.2-32.8-6.5c-0.3-0.103-3.1-1.302-1-0.302
				c-1.1-0.5-2.1-1.101-3.1-1.698c1.7,1.1-0.1-0.103-0.5-0.5c0.8,1.1,0.9,1.3,0.3,0.397c0.5,1.5,0.7,1.801,0.4,0.801
				c0.7,2.5,0.1,4.5-1.5,6.302c-1.2,0.897-1.4,1-0.4,0.397c-1.2,0.5-1.2,0.5,0,0.103c1.9-0.5,6.4-0.2,9.6,0.1c5.4,0.603,10-5,10-10
				C-347.8,158.4-352.4,154.8-357.8,154.2L-357.8,154.2z"/>
		</g>
	</g>
	<g>
		<g>
			<path d="M-338.3,171.3c-10.8-1.399-22-2.5-32.7-0.1c-12.6,2.8-7.2,22.1,5.3,19.3c0.5-0.1,1-0.2,1.4-0.3
				c2.6-0.5-2.3,0.2,0.7-0.101c2.1-0.199,4.3-0.302,6.4-0.302c6.3,0,12.6,0.7,18.8,1.5c5.4,0.7,10-5.1,10-10
				C-328.3,175.3-332.9,172-338.3,171.3L-338.3,171.3z"/>
		</g>
	</g>
	<g opacity="0.1">
		<g>
			<path d="M-53.8,234.2c-4.3-0.8-6.6-1.8-9.4-3.2c-4-2-7.8-4.6-11.4-7.3c-7.9-5.9-15.6-14.2-22.3-21.9c-6.7-7.7-12.8-16-18.4-24.5
				c-2.6-3.899-5-8-7.3-12.1c-1-1.8-2-3.7-2.9-5.601c-0.4-0.899-0.8-1.702-1.3-2.602c-0.3-0.6-0.5-1.1-0.8-1.7c0.4,1,0.4,1,0,0
				c-2.1-5-6.6-8.6-12.3-7c-4.8,1.3-9,7.2-7,12.302c8.3,20.398,21.5,38.698,35.7,55.301c13.3,15.5,31.1,33.6,52,37.699
				c5.3,1,10.8-1.399,12.3-7C-45.5,241.6-48.5,235.2-53.8,234.2L-53.8,234.2z"/>
		</g>
	</g>
	<g opacity="0.1">
		<g>
			<path d="M-46.2,258.4c-10.3-3.5-19.9-8.7-28-16c-7.5-6.9-13.2-14.801-18.9-23.103c-7.1-10.198-13.8-20.897-22.9-29.5
				c-9.3-8.6-20.2-14.3-31.8-19.1c-11.8-5-24-10.302-36.3-13.6c-12.4-3.3-25.5-4.3-38.2-3.4c-24.7,1.8-48.4,10-73.2,11.8
				c-4.1,0.3-8.2,0.398-12.3,0.398c-12.9,0.102-12.9,19.699,0,20c1,0,2.5,0.302-1.9-0.301c0.6,0.103-3.6-2.1-4-2.397
				c-5.3-4.2-3.1-10.7-0.1-13.9c-0.7,0.7,2.7-2,1.8-1.397c-0.2,0.1-0.4,0.199-0.6,0.3c4.5-2-1.1,0.2-2.7,0.7
				c-6.7,1.897-13.5,3.397-20.3,4.897c-23,5-46.2,9.103-69.5,12.603c-3.3,0.5-6.6,1-9.8,1.397c-1.7,0.2-3.3,0.5-5,0.7
				c-2.8,0.398,2.1-0.3-0.7,0.102c-1.1,0.101-2.2,0.301-3.3,0.398c-7,0.898-14,1.7-21.1,2.5c-13.8,1.5-27.6,2.602-41.4,3.3
				c-12.5,0.603-24.9,0.7-37.4,0c-2.7-0.1-5.3-0.397-8-0.6c-1.3-0.103-2.5-0.302-3.8-0.4c-0.6-0.1-1.2-0.1-1.8-0.198
				c-1.9-0.199,2.5,0.398-0.3-0.102c-4.6-0.7-9.1-1.602-13.5-2.8c-1.1-0.302-2.2-0.7-3.3-1c-0.9-0.302-5-2-1.5-0.5
				c-1.9-0.802-3.8-1.802-5.5-2.9c-0.3-0.198-0.6-0.397-1-0.698c-1.9-1.302,1.7,1.398,0.5,0.398c-0.7-0.602-1.4-1.3-2.1-2
				c-2.2-2.3,1.1,1.8-0.3-0.398c-0.6-0.899-1.9-4-0.4-0.199c-0.3-0.7-0.5-1.4-0.7-2.2c-0.8-3.101,0.1,2.3-0.1-0.4
				c-0.1-1,0-1.899,0.1-2.899c-0.4,4.102,0,0.302,0.3-0.801c0.3-1,0.6-1.897,0.9-2.897c0.6-1.603-1.2,2.6-0.1,0.198
				c0.3-0.601,0.6-1.198,0.9-1.801c1.4-2.699,3-5.199,4.8-7.6c3.2-4.4,0.8-11.1-3.6-13.7c-5.1-3-10.4-0.8-13.7,3.6
				c-11.5,15.4-32.8,14.6-50.9,14.3c-23-0.5-46.1-1.5-67.5,8.5c-4.9,2.3-6.1,9.3-3.6,13.7c2.9,5,8.7,5.897,13.7,3.6
				c20.1-9.3,44-5.7,65.4-5.6c10.8,0,21.8-0.7,32.2-3.9c11.6-3.6,20.8-10.7,28-20.3c-5.8-3.4-11.5-6.7-17.3-10.1
				c-5.3,7.4-9.8,16.2-9.7,25.5c0.1,9.301,5.2,16.4,12.3,21.801c6.6,5,15.3,7.5,23.4,9.199c11.1,2.301,22.5,3.2,33.8,3.5
				c26.8,0.801,53.8-1.5,80.4-4.6c27-3.1,53.8-7.3,80.5-12.3c14.1-2.7,28.3-5.5,42.2-9.101c3.7-1,7.5-2,10.9-3.699
				c5.1-2.603,6.9-9.301,4.1-14.2c-2.1-3.601-5.9-5.101-9.9-5.2c0,6.7,0,13.3,0,20c26.3-0.1,51.2-7.3,77-11.3
				c11-1.7,22.5-1.9,33.5,0c13.1,2.3,25.3,7.899,37.6,12.7c10.1,3.897,20.1,8.5,28.4,15.6c8.9,7.7,15,17.9,21.7,27.5
				c6.2,8.9,12.6,17.7,20.4,25.2c8.7,8.399,19.1,14.7,30.3,19.2c2.5,1,5,1.897,7.5,2.8C-39.3,281.8-34.1,262.5-46.2,258.4
				L-46.2,258.4z"/>
		</g>
	</g>
	<g opacity="0.1">
		<g>
			<path d="M-70,193.8c-41.4-11.2-84-17.1-126.5-22.399c-18-2.198-36.1-4.301-54.1-6.898c-13.6-2-27.3-4.102-40.5-8.2
				c-12.3-3.9-17.6,15.4-5.3,19.302c12.7,4,26,6.101,39.2,8c18.6,2.801,37.3,4.898,56,7.198c42.3,5.2,84.7,11.103,125.9,22.2
				C-62.8,216.4-57.5,197.1-70,193.8L-70,193.8z"/>
		</g>
	</g>
	<g opacity="0.1">
		<g>
			<path d="M-105.3,210.4c-17.7-24.5-46.3-35.9-74.5-43.5c-27.8-7.5-56.9-10.9-84.2-20.2c-12.2-4.2-17.4,15.1-5.3,19.3
				c26.1,8.9,53.7,12.4,80.3,19.2c24.1,6.1,51.9,15.3,66.4,35.399c3.2,4.398,8.6,6.5,13.7,3.601
				C-104.6,221.5-102.1,214.8-105.3,210.4L-105.3,210.4z"/>
		</g>
	</g>
	<g opacity="0.1">
		<g>
			<path d="M-141.1,145.1c-3.1-0.3-6.3-0.5-9.2,1.2c-6.5,3.9-6.7,14,0.2,17.5c4.2,2.2,9.1,3,13.6,4.7c2.5,0.9-1.8-1,0.9,0.4
				c0.7,0.397,2,1.397-0.7-0.7c0.1,0.1,0.2,0.1,0.2,0.2c-3.1-3.301-3.1-7.5,0.1-12.5c0.2-0.2,4.1-2.2,2.6-1.7
				c-0.6,0.2-1.3,0.4-2,0.5c-3.7,0.8-7.4,1.4-11,2.3c-13.6,3.6-26.3,10.1-39.5,14.9c-8.3,3-17.1,5.5-25.8,7.199
				c-1.3,0.301-2.6,0.5-3.9,0.698c-2.3,0.4,2.4-0.3,0.1,0c-0.6,0.103-1.2,0.103-1.8,0.2c-2.6,0.3-5.2,0.398-7.8,0.398
				c-12,0.199-24.1-1.198-36.1-1.398c-23-0.398-46,1.5-68.8,4.398c-27.7,3.399-54.8,2.802-82.1-3c-26-5.5-51-14.698-75.9-23.698
				c-13-4.7-26-9.4-39.1-13.7s-26.5-8.9-40-11.4c-32.5-6.1-63.8,13.2-95.2,13.6c-12.9,0.1-12.9,20.1,0,20
				c23.5-0.2,46.3-9.6,69.3-13.5c11.3-1.9,20.3-1.1,30.9,1.7c13.8,3.7,27.4,8,41,12.702C-470,183.7-419.9,205.2-364.9,205.9
				c27.4,0.397,54.6-5.301,82-6.5c15.2-0.603,30.3-0.103,45.5,0.8c11.2,0.6,22.2,0.3,33.3-2.101c9.7-2.102,19.4-5.102,28.6-8.602
				c13.2-5,25.9-11.2,39.7-14.3c5.7-1.302,12.6-1.603,15.9-7.302c3.6-6.101,0.5-12.5-5-15.898c-3.2-2-7.1-3.1-10.6-4.2
				c-1.4-0.4-2.8-0.8-4.1-1.3c-0.5-0.2-1-0.3-1.5-0.5c-0.2-0.1-0.4-0.1-0.6-0.2c1.4,0.5,2.7,1,3.7,2.2c0.9,3.2,1.7,6.5,2.6,9.7l0,0
				c-1.5,2-3.1,4-4.6,6c-3.7,2.198-6.4,1.198-3.8,1.3c1,0,1.9,0.102,2.9,0.2c5.4,0.5,10-4.9,10-10
				C-131.1,149.2-135.7,145.6-141.1,145.1L-141.1,145.1z"/>
		</g>
	</g>
	<g opacity="0.1">
		<g>
			<path d="M-500.7,179.3c-10.1-4.3-21.2-8-30.2-14.3c2.1,1.5,0.5,0.4,0.1-0.1c1,1.397,1.2,1.699,0.7,0.897
				c1,1.802,1.3,3.802,0.7,5.9c-0.5,1.897-1.6,3.397-3.2,4.397c0.9-0.5,0.7-0.397-0.7,0.103c1.1-0.5,2.3-0.7,3.5-1
				c7.9-1.9,16.4-1.7,24.4-2.4c9.6-0.897,19.1-2.1,28.5-4.1c0.9-0.2,1.8-0.4,2.8-0.603c3.3-0.699-1.2,0.103,0.3-0.1
				c0.9-0.1,1.8-0.1,2.7,0c0.5,0,1.1,0.1,1.6,0.1c1.6,0.2-2.9-0.397-0.3,0c5.4,0.801,10.7-1.3,12.3-7c1.3-4.8-1.6-11.397-7-12.3
				c-6.5-1-11.8-0.7-18.2,0.6c-12.9,2.7-24.3,3.5-38.5,4.5c-6.9,0.5-16.1,0.8-22,5c-6.8,4.9-7.8,13.299-2.2,19.6
				c3.7,4.1,9.2,6.699,14.1,9c6.7,3.199,13.6,6,20.5,8.9c5,2.1,10.7,1.5,13.7-3.603C-494.6,188.7-495.7,181.5-500.7,179.3
				L-500.7,179.3z"/>
		</g>
	</g>
	<g opacity="0.1">
		<g>
			<path d="M-376.3,140.3c-25.8,3-50.9,10.2-74,22.3c-13.2,6.9-31,17.4-35.7,32.603c-2.2,7.198,1.1,14.6,7.5,18.3
				c5.4,3.102,12.1,3.2,18.1,3.602c2.7,0.198,6,0.601,8.7-0.302c8.3-2.8,10.6-15,1.8-19c-6.6-3.1-14.1-4.3-21.2-5.897
				c-11.4-2.5-22.8-4.801-34.2-7c-11.5-2.2-22.9-4.301-34.5-6.103c-7.2-1.198-14.8-3-22.2-2.8c-7.7,0.2-14.1,8.102-9.6,15.398
				c2.2,3.5,5.8,4.899,9.6,6.199c12.3,4.103,17.5-15.199,5.3-19.3c-0.6-0.2-1.1-0.399-1.7-0.6c-1.7-0.7,2.8,1.3,1.1,0.5
				c-0.1-0.101-0.2-0.101-0.3-0.2c5,3.1,10.6,12.6-2.5,17.8c1-0.399-3.6,0.3-1.7,0.3c2.5-0.1,5.1,0.4,7.6,0.7
				c1.8,0.2-2.8-0.399-0.9-0.1c0.5,0.1,0.9,0.1,1.4,0.2c1,0.1,2,0.3,3,0.397c2.5,0.4,4.9,0.802,7.4,1.2
				c5.6,0.898,11.1,1.898,16.6,2.898c21.3,3.802,42.8,7.602,63.7,13.199c1.1,0.301,2.3,0.603,3.4,1c2.4,0.7,1.1,0.4-0.2-0.199
				c-3.1-1.5-9.1-10.801,0.4-16.698c2.5-1.5,3-1.103,2-0.9c3.7-0.8,3-0.397,2.1-0.3s-1.9,0-2.8,0c-1.6-0.102-3.2-0.2-4.8-0.398
				c-1-0.102-1.9-0.199-2.9-0.302c-0.6-0.1-1.3-0.1-1.9-0.198c2.7,0.301,0.5,0-0.1-0.102c-0.4-0.102-0.8-0.2-1.2-0.3
				c-2-0.603,2.1,1.1,0.4,0.198c-0.8-0.398-1.9-1.5,0.5,0.5c-0.7-0.601-1.2-1.801,0.5,0.802c-0.5-0.9-0.3-0.4,0.5,1.3
				c-0.6-1.602,0.2,2.8,0.1,1.102c-0.1-1.699-0.5,2.801-0.2,1c0.1-0.5,0.3-0.899,0.4-1.399c-1.1,3.2,0,0.2,0.5-0.601
				c0.3-0.5,0.7-1.102,1.1-1.602c-1.6,2.2-0.1,0.2,0.2-0.2c2-2.3,4.4-4.397,6.8-6.397c0.9-0.7,1-0.801,0.3-0.2
				c0.8-0.601,1.6-1.2,2.5-1.8c1.8-1.301,3.6-2.5,5.5-3.603c3.8-2.397,7.7-4.6,11.7-6.6c19-9.802,40.4-15.9,61.6-18.4
				c5.4-0.6,10-4.1,10-10C-366.3,145.3-370.9,139.7-376.3,140.3L-376.3,140.3z"/>
		</g>
	</g>
	<g opacity="0.1">
		<g>
			<path d="M-417.5,186.7c-14.2-9.2-30.7-10.9-47.1-12.3c-1.5-0.103-3-0.301-4.5-0.4c-1.2-0.1-1.1-0.1,0.2,0
				c-0.8-0.1-1.5-0.2-2.3-0.4c-1.1-0.199-2.2-0.5-3.2-0.897c1.5,0.698,1.7,0.8,0.8,0.3c-1.7-0.898,1.8,1.602,0.4,0.398
				c1.4,1.302,1.3,1.802,1.5,3.602c0-1,0-0.7-0.2,0.898c0.1-0.698,0.3-1.398,0.5-2c0.4-1,0.4-1-0.1,0c0.4-0.898,0.9-1.801,1.4-2.698
				c1.2-2.2,2.7-4.4,4.2-6.4c6.6-9.2-8.6-20.9-15.7-12.1c-2.1,2.6-4.3,5.1-6.9,7.3c0.7-0.602-1.7,1-2.1,1.2
				c-1.7,0.897,1.5-0.4-1.1,0.3c2.8-0.7,0.9-0.102-0.1-0.2c3.1,0.103,1.6,0.2,0.6-0.1c-0.5-0.2,2.6,1.1,0.3,0.1
				c-7.9-3.397-17.8,2.302-14.8,11.802c1.3,4.101,3.1,8.101,4.5,12.101c4.1,12.101,22.6,7.3,19.3-5.3c-1.2-4.801-3-10.4-7.1-13.603
				c-0.9-0.698-1.8-1.397-2.7-2c1.9,1.2,1,0.302,2.1,2.103c1.8,2.8,0.2-0.5,0.4,1.397c-0.3-2-0.2-4-0.2-6c-0.1-8.5-11-13.5-17.1-7.1
				c0.8-0.8-2,1.6-0.7,1.1c-0.8,0.3-1.4,0.1-0.5,0.2c-2.1-0.4-4.2-1.3-6.3-1.6c-8.1-1.2-14.5,3.1-16.3,11.1
				c6.1-0.8,12.2-1.602,18.3-2.398c-1.4-2.199-2.9-4.699-5-6.399c-1.8-1.5-2.5-2-4.8-2.8c-0.9-0.3-6.3-1.2-0.8-0.1
				c1.5,0.9,2.9,1.7,4.4,2.6c1.9,4.1,2.6,5.1,2.1,3.2c-0.3-1.1-0.5-2.3-0.7-3.5c-1.8-8.7-14.2-9.5-18.3-2.4c0.8-0.7,1.7-1.3,2.8-1.7
				c0.6-0.2,3.3,0.2,1.2-0.2c-2.4-0.5-4.6-1.1-7-1.2c-6.1-0.4-11.3,2.7-14.3,7.9c6.2,1.7,12.4,3.4,18.6,5
				c-0.3-3.699-1.2-6.4-2.7-9.8c-0.6-1.3-1.3-2.6-1.9-3.8c0,0-1.3-3.6-1.2-2.2c-0.6-6.6-8.4-13.7-15-8.6
				c-5.9,4.5-13.4,6.6-19.3,11.1c4.9,2,9.8,4,14.7,6c-0.3-1.8-1.4-3.5-1.6-5.3c-0.8-9.2-10-12.6-17.1-7.1c-8.4,6.5-21.5,7-31.6,8.2
				c-5.4,0.6-10,4.1-10,10c0,5,4.6,10.6,10,10c16.3-1.9,32.4-3.7,45.7-14c-5.7-2.4-11.4-4.7-17.1-7.1c0.3,3.7,1.7,7,2.3,10.6
				c0.9,6,9.9,9.7,14.7,6c5.9-4.5,13.4-6.6,19.3-11.1c-5-2.9-10-5.8-15-8.6c0.3,3.7,1.2,6.4,2.7,9.8c0.6,1.301,1.3,2.603,1.9,3.801
				c0,0,1.3,3.602,1.2,2.199c0.8,9.5,13.3,14.2,18.6,5c-0.8,0.7-1.7,1.301-2.8,1.7c-0.6,0.2-3.3-0.2-1.2,0.2c2.4,0.5,4.6,1.1,7,1.2
				c6.1,0.399,11.3-2.7,14.3-7.9c-6.1-0.8-12.2-1.6-18.3-2.399c0.6,3.102,1.1,7,3.8,9.102c2.2,1.801,4.3,2.898,7.2,3
				c-4.6-0.102-6.9-4.398-4.2-0.199c4.4,6.899,16.4,6.5,18.3-2.398c0.1-0.4,0.2-0.7,0.2-1.102c-1,2.5-3.2,3.899-6.5,4.199
				c-2.2,0.2-1.1-0.199,0.1,0.102c2.6,0.699,5,1.398,7.8,1.699c6.6,0.699,12.6-2.301,17.1-7c-5.7-2.398-11.4-4.699-17.1-7.101
				c0.1,6.397,0.4,12.3,4.6,17.397c0.6,0.7,2.5,2,2.6,2.103c1.9,1.3-1.7-1.5-0.3-0.2c1.5,1.301-1.2-2,0,0.301
				c-0.4-0.699,0.9,3.102,1.1,3.899c6.4-1.802,12.9-3.5,19.3-5.302c-1.1-3.101-2.2-6.198-3.4-9.198c-0.3-0.7-0.5-1.399-0.8-2
				c-1.1-2.7,0.9-0.302-0.4,3.897c-1.5,2-3.1,4-4.6,6l0,0c-1.7,0.5-3.4,0.9-5,1.4c-4-0.1-6.3-2-4-0.9c1.2,0.603,2.4,1.103,3.6,1.5
				c2.1,0.801,4.7,1,6.9,0.7c9.4-1.2,16.4-7.2,22.1-14.399c-5.2-4-10.5-8.101-15.7-12.101c-5.1,7.2-9.6,14.9-8.1,24
				c1.2,7.2,9,11.101,15.4,12.3c17.3,3.301,33,1.103,48.2,10.9C-416.7,211-406.7,193.7-417.5,186.7L-417.5,186.7z"/>
		</g>
	</g>
	<g opacity="0.1">
		<g>
			<path d="M-132.3,169.6c12.9,0,12.9-20,0-20C-145.2,149.6-145.2,169.6-132.3,169.6L-132.3,169.6z"/>
		</g>
	</g>
	<g opacity="0.1">
		<g>
			<path d="M-81.4,225.1c-3-0.199,1.9,0.4-0.9-0.1c-0.8-0.2-1.6-0.4-2.4-0.6c-2.5-0.801,1.8,0.897-0.5-0.2c-0.7-0.3-1.3-0.8-1.9-1.2
				c2.1,1.4-1.1-1.2-1.7-1.9c-1.7-1.897,1.2,1.7-0.2-0.3c-0.6-0.8-1.1-1.7-1.6-2.5c-3.4-5.7-5.4-12.1-8.5-17.899
				c-3.5-6.801-8.9-13-15.9-16.301c-10.1-4.8-19.8-2.699-30.4-2.897c-13.2-0.2-26.3-3.302-39.5-4c-6.6-0.302-13.3,0.198-19.8,1.5
				c-1.2,0.198-2.3,0.5-3.5,0.8c-0.9,0.2-4.7,0.7-0.9,0.2c-10.6,1.3-21.5,0.698-32.1,0c-69-4.302-137.2-17.9-206.4-21
				c-19.4-0.9-39-1-58.2,2.198c-12.6,2.102-27.5,6.602-34.2,18.5c-6.4,11.199,10.9,21.302,17.3,10.102c0.5-0.8,2.2-3.2-0.1-0.2
				c0.5-0.6,1.1-1.198,1.6-1.8c0.3-0.3,0.6-0.602,0.9-0.8c1.3-1.103-2.1,1.6-0.7,0.5c0.9-0.603,1.8-1.2,2.7-1.7
				c0.8-0.5,1.7-0.898,2.6-1.3c2.2-1-2.1,0.8,1-0.4c2.3-0.897,4.8-1.6,7.2-2.198c2.5-0.602,5.1-1.102,7.6-1.5
				c0.7-0.102,1.4-0.199,2.1-0.302c2.4-0.397-2.3,0.302,0.2,0c1.7-0.198,3.4-0.397,5.2-0.6c6.8-0.603,13.7-0.9,20.5-0.9
				c34.5-0.397,69.1,3.5,103.4,7.5c35,4,70,8.9,105,12.302c13.2,1.301,26.4,2.398,39.7,2.5c12.6,0.101,24.8-3.5,37.3-3.199
				c16.1,0.3,31.9,5.199,48,3.897c3.2-0.3,6.3-0.6,9.5-0.397c1.3,0.1,1.4,0.1,0.3,0c0.6,0.1,1.2,0.199,1.8,0.397
				c0.4,0.103,3.9,1.302,1.7,0.4c1,0.397,1.9,1,2.8,1.6c1.4,0.9-1-1,1,0.802c0.8,0.698,1.4,1.5,2.1,2.198
				c-1.7-1.897,0.4,0.7,0.7,1.103c4.5,6.8,6.7,14.897,10.9,22c5.8,9.8,14.9,15.3,26.1,16.1c5.4,0.4,10-4.9,10-10
				C-71.4,229.3-76,225.5-81.4,225.1L-81.4,225.1z"/>
		</g>
	</g>
	<path fill="none" stroke="#000000" stroke-miterlimit="10" d="M707.462,177.3c-8.5-5.8-29.101-7.2-40.4-10.6
		c-15.4-4.7-30.9-9.3-46.1-15.3c-26.801-10.6-37.801,16-61.701,1.3c-28.399-17.5-18.6-5.3-51.799-24.6
		c-15.301-8.9-39.601-12.6-56.101-17.8c-49.601-15.7-38.101-22.5-57-25c-44.3-5.9-94.7,11.7-137.798,25.2
		c-41.402,13-80.7,33.6-122.8,42.1c-35.003,7.1-36.103,39.5-59.603,63.6"/>
	<path fill="none" stroke="#000000" stroke-miterlimit="10" d="M726.661,173.7c-87.699,32.2-123.199-5.601-142.8-14
		c-30.899-13.2-34.101-13.1-65.8-25.6c-64.1-25.3-65.9-28.6-105.4-32.3c-52.199-4.9-83,17.5-125.7,21.9
		c-40,4.1-101.1,23.7-138.399,40.3c-25.7,11.4-14.4-43.2-27.4-19.7c-15.899,28.7-27.5,41.2-59.3,52.2"/>
	<path fill="none" stroke="#000000" stroke-miterlimit="10" d="M44.361,178.6c70.5-24.102,136.702,29.797,207.1,36.398
		c28.9,2.7,60.601,4.902,89.4,0.8c32.7-4.598,62.601-20.8,91.7-36.698c41.3-22.702,52.9,0.198,99.5-6.5
		c19.8-2.8,41.1-20.1,61.4-19.899c18.399,0.2,56.899,16.2,73.399,17.5"/>
	<path fill="none" stroke="#000000" stroke-miterlimit="10" d="M74.161,194.7c11.4,0,31.801-5.3,26.4,11
		c-2.4,7.5-19.801,14.2-26.4,17.1"/>
	<path fill="none" stroke="#000000" stroke-miterlimit="10" d="M505.761,212.3c-5.799,2,50.701-40.6,44.5-37.8
		c-71.799,33-200.6,15.7-283.1,7.7c-49-4.702-96.1-10-118.6-6.601c-43.601,6.601-49.101,37.198-84.9,60.801"/>
	<path fill="none" stroke="#000000" stroke-miterlimit="10" d="M660.062,186c-31.7,1-99.6-17.4-119.301,19.3"/>
	<path fill="none" stroke="#000000" stroke-miterlimit="10" d="M166.262,103.9c-4.303,5.8,12.3,27.7-7,57.9"/>
	<path fill="none" stroke="#000000" stroke-miterlimit="10" d="M216.062,110.6c-9.5,13.4-27,40.6-43.101,45.3"/>
	<path fill="none" stroke="#000000" stroke-miterlimit="10" d="M267.262,121c9.5-0.3,17.197-5.6,25-10.7"/>
	<path fill="none" stroke="#000000" stroke-miterlimit="10" d="M323.159,79.2c1.5,12.9-0.397,24.5-5.397,36.2"/>
	<path fill="none" stroke="#000000" stroke-miterlimit="10" d="M374.062,75.3c5.9,17.4-16.6,27.1-29,32.6"/>
	<path fill="none" stroke="#000000" stroke-miterlimit="10" d="M425.861,78.5c-3.101,10.1-11.5,18.6-21.5,22.6"/>
	<path fill="none" stroke="#000000" stroke-miterlimit="10" d="M472.761,84c-4.699,10.9-23.199,19.9-33.899,22.7"/>
	<path fill="none" stroke="#000000" stroke-miterlimit="10" d="M472.962,124.7c-7.801,7.5,14.199-6.8,20.6-12.1"/>
	<path fill="none" stroke="#000000" stroke-miterlimit="10" d="M541.161,146.5c6.4-5.1,14-9.3,18.1-15.1"/>
	<path fill="none" stroke="#000000" stroke-miterlimit="10" d="M588.962,142.4c-3.301,10.4-14.5,10.9-24,12.9"/>
	<path fill="none" stroke="#000000" stroke-miterlimit="10" d="M620.761,147.5c-4.699,8.5-12,14.6-21.1,17.6"/>
	<path fill="none" stroke="#000000" stroke-miterlimit="10" d="M265.459,121.2c2.103-13.8,7.902-25.9,20.303-31.3"/>
	<path fill="none" stroke="#000000" stroke-miterlimit="10" d="M305.062,76.5c-1.5,13.8-6.103,24.9-12.3,37.2"/>
	<path fill="none" stroke="#000000" stroke-miterlimit="10" d="M249.159,130.7c5.902-13.5,3.902-24.5,5.103-38"/>
	<path fill="none" stroke="#000000" stroke-miterlimit="10" d="M229.459,105.2c-3.798,8.9-7.697,21.3-7.897,31.3"/>
	<path fill="none" stroke="#000000" stroke-miterlimit="10" d="M339.961,220.4c-6.697-11.5-17.3-18.5-30.3-21"/>
	<path fill="none" stroke="#000000" stroke-miterlimit="10" d="M413.462,195.3c11.799-4.5,26.5,0.9,38.699,2.9"/>
	<path fill="none" stroke="#000000" stroke-miterlimit="10" d="M506.962,189.5c-13.701-8.7-32.801-10.8-49.301-13.5"/>
	<path fill="none" stroke="#000000" stroke-miterlimit="10" d="M537.261,221c-10-8.6-17-11.2-29.799-14"/>
	<path fill="none" stroke="#000000" stroke-miterlimit="10" d="M572.361,178.9c14.601-0.801,32.101,8.399,42.101,19.3"/>
	<g opacity="0.1">
		<g>
			<path d="M44.762,234.2c-5.301,1-8.301,7.399-6.902,12.399c1.5,5.601,7,8,12.3,7c20.9-4.1,38.7-22.199,52-37.699
				c14.2-16.603,27.4-34.902,35.7-55.301c2-5.102-2.2-11.001-7-12.302c-5.7-1.6-10.2,2-12.3,7c-0.4,1-0.4,1,0,0
				c-0.3,0.6-0.5,1.1-0.8,1.7c-0.5,0.9-0.902,1.702-1.302,2.602c-0.898,1.9-1.898,3.801-2.898,5.601c-2.3,4.1-4.7,8.2-7.3,12.1
				c-5.601,8.5-11.7,16.8-18.4,24.5s-14.401,16-22.3,21.9c-3.598,2.7-7.4,5.3-11.4,7.3C51.361,232.4,49.062,233.4,44.762,234.2
				L44.762,234.2z"/>
		</g>
	</g>
	<g opacity="0.1">
		<g>
			<path d="M40.762,242.2c-12.101,4.1-6.9,23.399,5.1,19.3c12.101-4.1,23.3-9.7,33.101-17.9c8.3-6.899,15.1-15.3,21.399-24.1
				c6.5-9,12.2-19.298,19.9-27.4c7.8-8.1,16.899-13.8,27.2-18.199c24.697-10.603,50.3-19.702,75.8-28.103
				c26.3-8.6,53.2-14.9,81.1-15.4c48.2-0.9,95.5-11,143.5-13.7c21.2-1.1,42.5-1.2,62.7,4.5c9.3,2.7,16.9,5.7,25,11.2
				c7.6,5.1,14,12.4,19.9,19.8c30.299,38.3,84.799,8.901,123.199,26.8c5,2.298,10.801,1.398,13.7-3.602
				c2.5-4.398,1.3-11.398-3.601-13.698c-23.1-10.8-48-8.6-72.799-8.4c-10.701,0-20.601,0-30.601-3.6c-3.399-1.2-7.7-3.5-10.601-6.2
				c-4-3.7-6.799-8.2-10.399-12.3c-29.2-33.3-76.399-37-117.8-34.4c-24,1.4-47.803,4.8-71.6,7.8c-24.103,3-48.002,5-72.303,5.8
				c-28.5,0.9-56.201,6.7-83.1,15.6c-26,8.5-52,17.9-77.2,28.5c-11.6,4.8-22.5,10.5-31.8,19.102
				c-9.098,8.601-15.798,19.301-22.9,29.5c-5.697,8.301-11.397,16.2-18.897,23.101C60.659,233.5,51.062,238.7,40.762,242.2
				L40.762,242.2z"/>
		</g>
	</g>
	<g opacity="0.1">
		<g>
			<path d="M60.961,193.8c-12.399,3.4-7.1,22.7,5.4,19.2c44.3-12.202,86.2-32.1,127.2-52.6c18.5-9.2,36.897-18.8,55.5-28
				c7.399-3.7,15-7.3,22.6-10.7c4.4-1.9,9.7-4.2,15.7-6.1c12.2-4,7-23.3-5.3-19.3c-14.5,4.7-28.4,11.6-42,18.3
				c-18,8.9-35.9,18.2-53.9,27.2C145.764,162,104.661,181.8,60.961,193.8L60.961,193.8z"/>
		</g>
	</g>
	<g opacity="0.1">
		<g>
			<path d="M96.361,210.4c-3.2,4.5-0.8,11.1,3.6,13.802c5.101,2.897,10.5,0.798,13.7-3.603c29-40.5,80.5-58.8,125.603-74.399
				c5.197-1.8,8.5-6.8,7-12.3c-1.402-5-7.103-8.8-12.303-7C183.262,144.4,128.861,165.2,96.361,210.4L96.361,210.4z"/>
		</g>
	</g>
	<g opacity="0.1">
		<path d="M109.663,177.7c3.801,1.3,7.902,1.6,11.8,2.6c4.9,1.3,9.803,2.9,14.5,4.7c6.803,2.6,13.5,5.6,20.303,8.2
			c6.598,2.598,13.197,4.298,19.897,6.399c5.8,1.797,11.5,3.698,17.3,5.398c10,3,20.101,5.5,30.4,7.3
			c17.9,3.2,35.9,5.402,53.9,7.802c14.2,1.801,28.399,4.198,42.6,5.301c13.601,1,27,0.399,40.5-1.4c52-7.1,97.7-34.3,145.7-53.3
			c12.5-4.9,25.3-9.5,38.3-13c10.3-2.8,19.3-3.5,30.399-1.6c23,3.9,45.801,13.3,69.301,13.5c12.9,0.101,12.9-19.899,0-20
			c-13.592-0.153-27.532-4.21-41.289-7.813c-2.336-0.789-4.625-1.711-6.838-2.855c-1.729-0.894-3.396-0.724-4.725,0.024
			c-0.383-0.084-0.767-0.174-1.148-0.256c-9.4-2-19.1-3.8-28.801-3.8c-9.799,0-19.1,2.5-28.399,5.3
			c-50.399,15.198-95.7,43.598-146.3,57.899c-25.303,7.099-50.7,9.599-76.8,6.198c-22.601-2.897-44.802-5.6-67.2-9
			c-11.5-1.8-23-3.698-34.3-6.698c-5.103-1.302-10-2.802-15-4.302c-8.5-2.698-17.302-4.897-25.7-7.897
			c-10.615-3.86-20.906-8.816-31.602-12.482c2.039-4.441,0.623-10.344-4.001-13.118c-2.897-1.7-6.098-1.5-9.197-1.2
			c-2.537,0.281-4.893,1.233-6.683,2.736c-0.173,0.057-0.346,0.106-0.52,0.164c-4,1.4-9.1,2.8-12,6.1
			C97.762,165.7,101.262,174.8,109.663,177.7z"/>
	</g>
	<g opacity="0.1">
		<g>
			<path d="M491.661,179.3c-4.9,2.3-6.1,9.4-3.699,13.8c3,5.101,8.699,5.9,13.699,3.601c19-8.7,19.6-36.601,21.301-54.2
				c0.199-1.7,0.399-3.5,0.6-5.2c0.3-2.4-0.4,2.3,0,0c0.1-0.6,0.199-1.2,0.3-1.8c0.2-1.1,0.399-2.1,0.7-3.1c0.3-0.9,1.1-2-0.4,0.8
				c0.5-0.9,1.2-1.2-0.8,0.9c-1.899,2-6,2.7-9,1c1.5,0.9-1.7-1.8,0.5,0.5c0.399,0.5,0.899,1,1.3,1.5c0.7,0.8,0.6,0.7-0.1-0.2
				c0.6,0.7,1.1,1.3,1.6,2c0.5,0.7,1,1.3,1.5,1.9c1.5,1.9-1.199-1.7,0.1,0.1c0.701,0.9,1.4,1.9,2,2.9c1.201,2.1,0.101,0.2-0.1-0.4
				c-1.3-4.5,3.7-11.9,8.9-11.4c4.1,0.4,2.199,0.4,1.1-0.1c3.9,1.6,0.6,0.2-0.3-0.3s-1.8-1-2.601-1.5c-2.1-1.3-4.199-2.7-6.299-4.1
				c-11.601-7.8-22.801-16.1-34.5-23.8c-5-3.4-10.101-6.7-15.5-9.5c-4-2-9.201-4.9-13.9-4.3c-5.4,0.7-10,4-10,10c0,5,4.6,10.7,10,10
				c2.4-0.3-1.5-0.4-0.7-0.2c0.7,0.2,1.5,0.4,2.2,0.7c2.1,0.8-2.1-1.1,0.8,0.4c1,0.5,2.101,1,3.101,1.6c5,2.8,9.799,5.9,14.6,9.1
				c11,7.3,21.6,15.1,32.6,22.5c3.801,2.6,7.6,5.4,11.801,7.3c6.1,2.8,16.5,3.5,18-5.6c1.1-6.8-2.5-11.4-6.4-16.5
				c-0.6-0.8-1.2-1.5-1.801-2.3c1.701,2.2-0.899-1.2-1.5-1.9c-0.799-1-1.6-2-2.6-2.8c-2.9-2.6-6-4.6-10-4.6
				c-15.6-0.1-14.699,22.5-15.8,33c-0.2,2-0.399,4.1-0.7,6.1c-0.4,3,0.301-2.1-0.1,0.9c-0.1,0.9-0.2,1.8-0.4,2.7
				c-0.6,3.4-1.3,6.9-2.3,10.2c-0.399,1-0.7,2.1-1.101,3.1c-0.899,2.603,1-1.798-0.199,0.603c-0.6,1.298-1.301,2.698-2.2,3.897
				c-1.399,2,1.5-1.6-0.2,0.2c-0.5,0.5-1,1.101-1.5,1.5C495.761,176.6,492.462,178.9,491.661,179.3L491.661,179.3z"/>
		</g>
	</g>
	<g opacity="0.1">
		<path d="M436.062,77.2c0,5.9,4.6,9.4,10,10c6.6,0.8,15.9,3.2,23.199,5.7c5.652,1.928,11.211,4.218,16.598,6.854
			c0.086,0.044,0.17,0.088,0.26,0.128c2.625,1.291,5.213,2.658,7.743,4.118c13.8,8,28,18.4,34.3,33.201c1.301,3.1,2.9,7.9,3.2,10.5
			c0.399,4.1,0.5,6.2-0.399,9.3c-1.4,4.901-4.101,8.401-9.5,12.601c-10.301,8-26,12.699-39.5,17.199
			c-12.201,4.102-7,23.402,5.299,19.301c17.301-5.701,36.101-11.301,50-23.601c14.397-12.713,17.168-30.846,11.097-48.187
			c0.485-0.945,0.671-2.09,0.375-3.393c-1.831-8.069-7.279-14.428-13.792-19.443c-8.549-10.051-19.477-18.196-30.979-24.678
			c-17.9-10.1-37.5-17.2-57.9-19.6C440.661,66.6,436.062,72.2,436.062,77.2z"/>
	</g>
	<g opacity="0.1">
		<path d="M418.759,203.805c15.07-9.959,43.012-23.746,61.104-41.238c-0.465,1.397-0.955,2.802-1.46,4.205
			c-2.173,4.992-4.228,9.998-5.544,15.134c-3.2,12.6,15.2,17.399,19.3,5.3c0.024-0.068,0.05-0.139,0.073-0.208
			c0.008,0.003,0.018,0.005,0.027,0.008c0.033-0.125,0.068-0.25,0.102-0.375c1.988-5.692,4.221-11.409,6.153-17.213
			c0.651-1.577,1.306-3.149,1.952-4.726c0.55,2.695,1.019,5.412,1.494,8.113c1.6,8.899,14.199,9.299,18.299,2.399
			c1.539-2.591,2.98-5.238,4.326-7.931c0.526,1.076,1.045,2.158,1.574,3.229c2,4,7.2,5.702,11.301,4.601
			c4.5-1.201,6.899-5.101,7.299-9.601c-0.068,0.968,0.531-0.452,0.908-1.423c3.196,1.576,6.377,3.176,9.192,5.322
			c3.659,2.82,9.748,1.335,12.84-2.186c10.246,4.092,21.454,5.369,32.761,6.686c5.399,0.602,10-5,10-10c0-5.899-4.601-9.399-10-10
			c-10.101-1.2-23.201-1.7-31.601-8.2c-4.97-3.851-10.96-3.327-14.386,0.483c-3.102-1.532-6.182-3.099-8.914-5.184
			c-3.867-2.988-8.145-1.785-11.145,1.048c-0.885-1.817-1.763-3.64-2.656-5.448c-3.799-7.7-16.5-5.8-18.299,2.4
			c-0.115,0.544-0.254,1.072-0.379,1.609c-2.127-4.275-4.736-8.381-8.021-12.311c-1.676-1.988-3.762-2.925-5.896-3.066
			c-1.865-4.443-4.275-8.695-7.027-12.807c-0.816-1.462-1.734-2.937-2.776-4.427c-0.073,0.056-0.147,0.113-0.22,0.169
			c-0.487-0.659-0.979-1.317-1.48-1.969c-0.506-0.661-1.063-1.197-1.648-1.643c12.742,5.889,26.209,10.153,39.619,14.339
			c5.951,2.82,11.863,5.728,17.756,8.671c5.752,2.872,10.817-5.754,5.048-8.635c-1.567-0.783-3.142-1.552-4.714-2.329
			c0.113-0.903-0.018-1.878-0.492-2.877c-2.221-4.668-5.299-8.811-8.893-12.52c-0.484-1.196-1.4-2.205-2.754-2.674
			c-5.858-5.344-12.748-9.707-19.522-13.35c-12.443-6.691-25.638-11.739-38.819-16.754c-4.123-1.569-7.925,3.839-5.646,7.345
			c3.72,5.72,8.662,10.611,14.188,14.737c-1.177-0.368-2.355-0.731-3.54-1.082c-5.481-1.623-8.745,6.313-3.853,9.139
			c2.863,1.655,5.785,3.182,8.746,4.623c-7.31-1.685-16.465,7.539-11.172,15.11c0.899,1.3,1.799,2.5,2.5,3.9
			c0,0,1.399,3.2,0.799,1.5c0.301,0.9,0.701,1.8,0.9,2.8c0.078,0.231,0.331,2.049,0.354,1.881c0.229,3.498,0.138,4.061-1.342,7.702
			c-0.017-0.077-1.15,2.175-1.312,2.417c-0.5,0.8-1,1.7-1.601,2.5c-1.199,1.7-1.199,1.7-3,3.7c-3.1,3.4-6.5,6.5-10.1,9.4
			c-15.4,12.4-34,21.6-50.699,32.6C397.761,193.8,407.761,211.1,418.759,203.805z"/>
	</g>
	<g opacity="0.1">
		<g>
			<path d="M123.262,169.6c12.899,0,12.899-20,0-20C110.361,149.6,110.361,169.6,123.262,169.6L123.262,169.6z"/>
		</g>
	</g>
	<g opacity="0.1">
		<g>
			<path d="M73.819,222.658c-5.4,0.4-10,4.2-9.804,10.404c0,5.1,4.6,10.4,10,10c11.201-0.8,20.3-6.3,26.1-16.1
				c4.2-7.103,6.4-15.2,10.9-22c0.3-0.402,2.398-3,0.699-1.103c0.701-0.698,1.301-1.5,2.101-2.198c2-1.802-0.399,0.099,1-0.802
				c0.901-0.6,1.8-1.202,2.8-1.6c-2.199,0.901,1.301-0.298,1.7-0.4c0.601-0.198,1.2-0.298,1.8-0.397c-1.098,0.1-1,0.1,0.301,0
				c3.199-0.202,6.302,0.098,9.5,0.397c16.102,1.302,31.899-3.598,48-3.897c12.5-0.301,24.699,3.3,37.302,3.199
				c13.3-0.102,26.5-1.199,39.698-2.5c35-3.401,103.345,2.791,138.345-1.209c34.299-4,35.555-18.99,70.055-18.593
				c6.8,0,13.7,0.298,20.5,0.9c1.8,0.202,3.5,0.401,5.2,0.6c2.5,0.302-2.2-0.397,0.199,0c0.701,0.103,1.4,0.2,2.101,0.302
				c2.5,0.398,5.101,0.898,7.601,1.5c2.399,0.599,4.899,1.301,7.199,2.198c3.1,1.2-1.199-0.6,1,0.4c0.9,0.401,1.801,0.8,2.6,1.3
				c0.9,0.5,1.801,1.098,2.701,1.7c1.399,1.1-2-1.603-0.701-0.5c0.301,0.198,0.601,0.5,0.9,0.8c0.5,0.602,1.1,1.2,1.6,1.8
				c-2.299-3-0.6-0.6-0.1,0.2c6.4,11.2,23.7,1.098,17.301-10.102c-6.701-11.898-21.601-16.398-34.201-18.5
				c-19.199-3.198-38.799-3.099-58.199-2.198c-69.2,3.1-137.4,16.698-206.4,21c-10.6,0.698-21.5,1.3-32.1,0c3.8,0.5,0,0-0.9-0.2
				c-1.199-0.3-2.3-0.602-3.5-0.8c-6.5-1.302-13.199-1.802-19.8-1.5c-13.2,0.698-26.3,3.8-39.5,4
				c-10.598,0.198-20.298-1.902-30.399,2.897c-7,3.301-12.398,9.5-15.898,16.301c-3.102,5.8-5.102,12.199-8.5,17.899
				c-0.5,0.8-1,1.7-1.602,2.5c-1.398,2,1.5-1.598-0.198,0.3c-0.601,0.7-3.802,3.301-1.7,1.9c-0.598,0.4-1.2,0.9-1.9,1.2
				c-2.3,1.098,2-0.601-0.5,0.2c-0.798,0.199-1.598,0.399-2.397,0.6C71.919,223.059,76.819,222.459,73.819,222.658L73.819,222.658z"
				/>
		</g>
	</g>
	<path fill="none" stroke="#000000" stroke-miterlimit="10" d="M703.7-193.6c77.2,79.2-81-36.6-83.2-37.1
		c-42.1-8.5-73.3-27-114.7-40c-43.1-13.5-86.4,0.6-130.7,6.5c-27.7,3.7-45.6,22-71.5,30.2c-16.5,5.2-32.1,7.8-47.4,16.7
		c-24.4,14.2-22.3,8.6-40.1,19.5c-27.1,16.6-37-5.5-71.6,8.2c-15.2,6,2.4,38.6-42.9,24.6c-11.3-3.5-14,8.7-28.2-4.1"/>
	<path fill="none" stroke="#000000" stroke-miterlimit="10" d="M700-141.1c-31.8-11-43.4-23.5-59.3-52.2
		c-13-23.5-37.9-22.3-63.5-33.7c-37.3-16.6-82.8-41.4-122.9-45.5c-38.1-3.9-76.8,12.1-115.5,15.7c-38.8,3.6-62.2,21-97.6,34.9
		c-31.7,12.5-40.1,17.6-71.1,30.9c-19.6,8.4-26.3,40.4-125.4,40.4"/>
	<path fill="none" stroke="#000000" stroke-miterlimit="10" d="M87.7-160.4c16.5-1.3,31-8.6,49.5-8.8c20.3-0.2,38.8,2,58.6,4.9
		c46.6,6.7,71,30.1,114.8,33.7c33,2.7,58.6,24.8,91.2,29.4c28.8,4.1,67.603,1.2,96.5-1.5c70.4-6.6,140.603-51.1,205.3-10.3"/>
	<path fill="none" stroke="#000000" stroke-miterlimit="10" d="M676.8-124.9c-15.8-7-28-21.8-26.4-17.1c-5.397-16.3,15-11,26.4-11"
		/>
	<path fill="none" stroke="#000000" stroke-miterlimit="10" d="M384-106.8c-40.8-4.9-57.4-48.3-49.1-82.7c10.1-41.5,52-55.7,92-55
		c44.197,0.7,102,23.5,98.197,75.6c-3,40.4-41.897,61.6-77.5,65.7c-25.397,2.9-45.497-6.7-70.1-8.1"/>
	<path fill="none" stroke="#000000" stroke-miterlimit="10" d="M421.7-149.6c-19.5,0.9-46.2-9.3-36-35c7.5-19.1,39.1-21.6,57.1-17.1
		c14.103,3.5,41.5,30,28.9,47.8c-9.5,13.4-51.5,4.1-65.6,2.2"/>
	<path fill="none" stroke="#000000" stroke-miterlimit="10" d="M698.2-111.9c-35.8-13.1-66.5,6.2-100,15.6
		c-31,8.8-73.103,10.8-107.5,12.6c-82.5,4.5-145-19.2-216.8-37.5c-6.2-1.6-12.1-3-17.9-4.1"/>
	<path fill="none" stroke="#000000" stroke-miterlimit="10" d="M221.1-132.3c-19.7-36.7-87.6-18.3-119.3-19.3"/>
	<path fill="none" stroke="#000000" stroke-miterlimit="10" d="M620.1-219.9c-11.3-17.7,21.9-29,8.2-47.3"/>
	<path fill="none" stroke="#000000" stroke-miterlimit="10" d="M589.4-236.7c-16.603-2.4-10.603-36.3-21.9-48.2"/>
	<path fill="none" stroke="#000000" stroke-miterlimit="10" d="M477.1-287.9c2.803,8.9,5.4,17.9,12.5,24.2"/>
	<path fill="none" stroke="#000000" stroke-miterlimit="10" d="M450.9-267.4c-6.603-10.8-10.2-22.1-10.5-35.1"/>
	<path fill="none" stroke="#000000" stroke-miterlimit="10" d="M428.5-270.8c-13.101-3.7-36.7-10-33.3-28.1"/>
	<path fill="none" stroke="#000000" stroke-miterlimit="10" d="M373.2-265.4c-10.5-2.5-19.5,0.1-24.1-9.5"/>
	<path fill="none" stroke="#000000" stroke-miterlimit="10" d="M329.8-251.9c-9.3-0.7-30.4-15.4-35.7-21.3"/>
	<path fill="none" stroke="#000000" stroke-miterlimit="10" d="M234.2-244.6c7.5,3.6,24.4,16.3,32.6,16.5"/>
	<path fill="none" stroke="#000000" stroke-miterlimit="10" d="M170.2-227c5.4,4.7,13.7,7.1,21.1,10.5"/>
	<path fill="none" stroke="#000000" stroke-miterlimit="10" d="M170.2-202.5c-9.7,0.2-20.7,2.3-26.3-7"/>
	<path fill="none" stroke="#000000" stroke-miterlimit="10" d="M138.6-184.9c-9.6-0.9-18.1-5-24.6-12.3"/>
	<path fill="none" stroke="#000000" stroke-miterlimit="10" d="M486-292.8c13,3.6,8.2,16.4,12.3,29.8"/>
	<path fill="none" stroke="#000000" stroke-miterlimit="10" d="M476.7-263.9c-7.9-11.3-14.103-21.6-17.5-35.1"/>
	<path fill="none" stroke="#000000" stroke-miterlimit="10" d="M511.2-294.5c8.8,37.3,14.8,43.7,10.5,36.8"/>
	<path fill="none" stroke="#000000" stroke-miterlimit="10" d="M545.4-248.3c-1.603-9.9,2-25.9-3.103-34.1"/>
	<path fill="none" stroke="#000000" stroke-miterlimit="10" d="M433.4-91c-13.2,0.3-24.8,5.5-33.3,15.8"/>
	<path fill="none" stroke="#000000" stroke-miterlimit="10" d="M311.3-88.2c11.5-4.4,24.9-12.7,37.3-10.6"/>
	<path fill="none" stroke="#000000" stroke-miterlimit="10" d="M308.8-109.5c-16.7,0-35.9-1.1-50.9,5.3"/>
	<path fill="none" stroke="#000000" stroke-miterlimit="10" d="M254.4-130.5c-12.8,2.8-19.8,5.4-29.8,14"/>
	<path fill="none" stroke="#000000" stroke-miterlimit="10" d="M147.4-139.3c10-10.9,27.5-20.1,42.1-19.3"/>
	<g>
		<g>
			<path d="M423.6-179.1c-4.6,4.8-9.999,7.2-9.6,14.7c0.101,1.5,1.601,3,3.2,2.4c3.6-1.3,7.2-3.1,8.7-6.9c1.1-2.9-1-5.8-3.4-7.2
				c-8.601-5.2-16.601,4.1-19.101,11.3c-0.299,1,0.201,2.3,1.101,2.8c6.3,3.4,13.899,2.7,19-2.6c4-4.2,2.2-10-3.601-10.8
				c0.601,0.8,1.198,1.6,1.801,2.4l0,0c-0.801,0.8-1.7,1.7-2.5,2.5c6.8,0.3,9.7-5.6,3.5-10c-6.5-4.7-4.1,10.4-4.2,11.1
				c1-0.6,2-1.2,3.1-1.7c0.5,0.4,1,0.8,1.5,1.2c-1.1-3-5.397-1.9-4.8,1.3c0,0.1,0,0.1,0,0.2c0.1,0.8,1,1.6,1.7,1.7
				c3.6,0.6,9.8-6.2,11.2-9.2c0.8-1.7-0.2-3.7-2.2-3.8c-3.3-0.1-4.7,5.9-5.7,8.2c-0.897,2.1-1.8,4.4-0.7,6.5
				c2.103,4.1,11-1.2,13.9-1.4c3.2-0.3,3.3-5.1,0-5c-1.8,0-3.5-3.6-4.3-4.9c-1.5-2.4-3-5.1-5.3-6.8c-7.001-5.3-12.603,4.9-15.103,10
				c-0.6,1.2-0.398,2.8,0.9,3.4c9.1,4.8,17.6,3.8,25.8-2.2c1.3-1,1.7-2.7,0.5-3.9c-4.7-5.1-11.5-11.5-19.103-9.6
				c-5.1,1.3-7.897,6.8-8.897,11.5c-0.7,3.4-1.103,9.7,2.7,11.5c5.697,2.7,9.8-6.9,11.5-10.6c0.5-1.2,0.397-2.8-0.9-3.4
				c-3.6-1.8-7.697-4.5-11.898-4.4c-4.399,0.2-7.399,4.9-9.602,8.1c-0.6,0.9-0.398,2.3,0.4,3c4.398,3.9,11.197,10.1,17.697,8.2
				c4.303-1.3,5.4-6.3,4.803-10.1c-0.5-3.4-2.3-7.3-6.2-7.6c-5.8-0.4-8,9.7-8.897,13.5c-0.4,1.7,0.799,2.9,2.397,3.2
				c3.5,0.5,7.2,1.3,10.6,0.1c3.5-1.1,5.803-4.8,8-7.5c0.803-1,1.103-2.6,0-3.5c-9.397-7.8-20.8-9.3-27.198,2.7
				c-0.5,1-0.399,2.2,0.398,3c4.803,4.6,14.303,10.7,18.9,2.3c3-5.6,0.1-13.6-5.7-15.9c-6.8-2.8-20.7,1.6-19.3,10.6
				c1.398,8.8,12.8,14.1,20.697,14.3c1,0,2.2-0.8,2.4-1.8c0.7-3.5,2.4-6.7,3.102-10.2c0.601-2.8-3-4.3-4.602-1.9
				c-1.5,2.3-4.1,5.2-3.9,8.1c0.201,2.7,2.803,5.3,3.5,7.9c0.603,1.9,3.603,2.6,4.603,0.6c1.8-3.8,3.3-7.9,5.1-11.7
				c1.103-2.4-2-5.4-3.897-3c-3.103,3.7-4.7,7.9-7.2,12c-1.101,1.8,0.399,3.5,2.2,3.8c11.397,1.4,21.2-1.2,25.1-12.9
				c0.9-2.8-3.1-4.3-4.6-1.9c-7.2,11.9-26.7,18.9-39.2,11.3c-7.101-4.3-8.399-15.2-4.899-22.2c4.399-8.5,15.5-11.2,24.302-11.3
				c9.197,0,16.5,3.7,22.8,10.2c3.3,3.5,6.397,7.9,6.1,12.9c-0.6,8.9-13.7,12.4-20.6,13.7c-10.303,1.9-22.4,1.1-31.602-4.3
				c-9.801-5.8-11.5-19.2-4-27.8c6-6.9,16.199-9.8,25-11.2c8.802-1.4,18.602-1,25.899,4.6c9.3,7.2,12.7,18.1,3.899,27.1
				c-7.899,8.1-21,10.4-31.699,8.2c-9.301-1.9-24.4-9.2-18.5-20.9c4.8-9.6,17.199-14.7,27.3-15.5c14.1-1.1,25.1,7.3,30.1,20.2
				c2.8,7.3,5,16.7-4.3,20c-8,2.8-17.7,0.8-25.7-0.9c-3.2-0.7-4.2,3.6-1.3,4.8c13.5,5.6,32.7,2.4,41.7-10c9.2-12.7,0-27-11.9-33.8
				c-12.197-7-27.6-9.8-41.499-9.2c-11.898,0.6-25.398,5.2-28.301,18.2c-0.6,2.8,3,4.3,4.6,1.9c9.803-14.5,26.103-18.9,42.503-13.7
				c13.397,4.2,27,14.8,31.397,28.5c4.8,14.9-7.8,25.1-21.3,27.2c-15.4,2.4-34.399-2.1-46.601-12.1c-10.699-8.8-9.699-20.6-1-30.5
				c-1.399-0.8-2.799-1.6-4.199-2.4c-8,35.4,36.6,50.1,63.7,39.6c-0.603-1.5-1.303-3-1.9-4.6c-10.5,5.2-21.4,6.4-32.601,2.7
				c-10.5-3.4-19.602-10.8-27.799-17.9c-2.201-1.9-5.103,0.5-3.9,3c6.1,13.9,21.199,16.2,34.6,18c0.4-1.6,0.9-3.2,1.3-4.8
				c-7.6-1-15.2-2-22.397-4.8c-0.4,1.6-0.9,3.2-1.303,4.8c2.9,0.6,5.303,2.4,8.103,3.3c2.7,0.9,4.5-3.3,1.897-4.6
				c-0.5-0.2-0.897-0.5-1.397-0.7c-2.897-1.4-5.397,2.9-2.5,4.3c0.5,0.2,0.897,0.4,1.397,0.7c0.603-1.5,1.303-3,1.9-4.6
				c1,0.4-0.6-0.3-0.6-0.3c-1-0.5-2-0.9-3-1.3c-1.5-0.6-2.9-1.4-4.5-1.7c-3.2-0.7-4.301,3.7-1.301,4.8
				c7.201,2.7,14.801,3.8,22.398,4.8c3.2,0.4,4.5-4.4,1.3-4.8c-12.1-1.6-26.1-3.1-31.6-15.7c-1.3,1-2.603,2-3.897,3
				c9.397,8.2,19.397,15.8,31.299,19.7c11.801,3.9,24.101,1.7,35.101-3.7c2.5-1.2,0.7-5.6-1.9-4.6c-23.1,9-64.7-1.7-57.499-33.4
				c0.5-2.3-2.398-4.4-4.201-2.4c-10,11.4-11.799,25.4-0.197,36.5c11.197,10.7,28.6,15,43.6,15.1c13.8,0.1,28.5-4.8,33.8-18.7
				c4.7-12.4-3.5-25.6-12.197-33.9c-9.603-9.2-22.5-15.1-35.7-15.9c-14.5-0.8-27.1,6.6-35.1,18.4c1.5,0.6,3,1.3,4.6,1.9
				c2.4-10.8,13.8-13.9,23.5-14.5c11.8-0.8,24.2,1.7,35,6.5c10.2,4.5,22.1,15.5,15.2,27.3c-7,12-25.5,14.1-37.2,9.3
				c-0.4,1.6-0.9,3.2-1.3,4.8c12.6,2.7,37.397,6.5,38.897-12.3c0.603-8.3-4.1-18.3-9.3-24.7c-4.4-5.4-10.1-9.2-16.8-11
				c-12-3.3-26.102,0.5-35.7,8.2c-7.897,6.3-13.397,17.1-6.103,26c11.201,13.7,33.803,14.5,48.603,7.2c7.3-3.6,14.3-10.7,14.9-19.3
				c0.697-9.9-6.303-17.7-13.9-23.1c-6.5-4.6-16-4.7-23.5-4.1c-8.897,0.8-18,3.4-25.5,8.3c-10.3,6.6-15.2,20.5-9.397,31.7
				c4.697,9.1,15.897,12.8,25.397,14c10.6,1.3,22,0.1,31.6-4.7c7.803-3.9,13.4-11.4,10.603-20.3c-4.3-13.7-19.5-21.8-33.103-22.1
				c-10.897-0.3-22.897,4-28.6,13.7c-4.897,8.3-2.897,20.9,4.3,27.2c13.9,12.4,39.7,3,48.4-11.4c-1.5-0.6-3-1.3-4.603-1.9
				c-3.198,9.6-11.397,10.4-20.3,9.3c0.7,1.3,1.4,2.5,2.2,3.8c2.3-3.7,3.7-7.6,6.5-11c-1.3-1-2.6-2-3.9-3c-1.8,3.8-3.3,7.9-5.1,11.7
				c1.5,0.2,3,0.4,4.6,0.6c-0.6-2.2-1.397-4.3-2.697-6.2c-0.603-0.9-0.803-0.5-0.4-1.4c0.8-1.6,1.9-3.2,3-4.7
				c-1.5-0.6-3-1.3-4.603-1.9c-0.697,3.5-2.397,6.7-3.1,10.2c0.801-0.6,1.6-1.2,2.4-1.8c-5.6-0.1-11.7-3.1-14.801-7.8
				c-4.102-6.1,7.398-8.9,11.601-7.6c3.3,1,4.3,5.5,3.5,8.4c-1.601,5.7-9.3-1.2-11.2-3c0.1,1,0.301,2,0.4,3
				c4.8-9,12.397-7.5,19.397-1.7c0-1.2,0-2.4,0-3.5c-1.698,2.1-3.397,4.7-5.8,6.1c-2.3,1.4-6.898,0-9.3-0.3
				c0.8,1.1,1.603,2.1,2.397,3.2c0.603-2.2,1.803-9.1,4.303-9.9c-0.602,0.2-0.2,0,0.197,0.7c0.5,0.9,0.803,2,0.9,3
				c1,9.9-11.5-0.4-14.1-2.6c0.1,1,0.3,2,0.4,3c1.299-1.9,3.299-5.6,6-5.7c2.799-0.1,6.299,2.5,8.697,3.7
				c-0.3-1.1-0.6-2.3-0.898-3.4c-1.102,2.5-2.299,5.1-4.102,7.2c-1.197,1.4-1.602,0.7-0.602,1.6c-1.1-0.9-0.6-5-0.198-6.8
				c0.698-2.9,2.198-6.1,5.2-7.1c5.3-1.7,11.199,5,14.3,8.3c0.2-1.3,0.3-2.6,0.5-3.9c-6.8,4.9-13.2,6.2-20.802,2.2
				c0.302,1.1,0.602,2.3,0.9,3.4c1.1-2.3,3.6-8.6,6.699-8.9c1.8-0.2,3.602,3.4,4.4,4.6c2.198,3.4,4.698,8.8,9.397,8.6
				c0-1.7,0-3.3,0-5c-3.2,0.3-6.2,1.3-9.2,2.4c-0.5,0.2-1.1,0.4-1.6,0.5c0,0,1.1,2.3,1.6,0.6c0.4-1.3,3.803-6.7,1.803-6.8
				c-0.7-1.3-1.4-2.5-2.2-3.8c-0.603,1.2-2.103,2.3-3,3.3c-0.8,0.8-1.603,1.6-2.4,2.3c-1.1,1.1-1.999,0.9-0.2,1.3
				c0.603,0.6,1.2,1.2,1.7,1.7c0-0.1,0-0.1,0-0.2c-1.6,0.4-3.2,0.9-4.8,1.3c0.4,1,0.801,2,2,2.3c1.3,0.3,2.8-0.4,3.1-1.7
				c0.5-2.3-0.3-5.1-0.397-7.5c0-0.5-0.103-1.1,0-1.7c-1,0.3-1.9,0.7-2.897,1c0.6,1.4,1.1,1.6,1.697,0.5c-0.6,0.4-1.898,0.2-2.5,0.2
				c-1.3,0-2.602,1.2-2.5,2.5l0,0c0.102,1,0.7,2.3,1.803,2.4c3.299,0.5,1.897,2.3-0.103,3.8c-3.397,2.6-7.802,2.4-11.397,0.4
				c0.397,0.9,0.799,1.9,1.1,2.8c1.5-4.3,4.8-9.7,10.1-8.9c5.9,0.9-0.1,4.6-2.5,5.5c1.1,0.8,2.1,1.6,3.2,2.4
				c-0.3-5.6,4.7-7.6,8.1-11.2C429.4-177.9,425.8-181.5,423.6-179.1L423.6-179.1z"/>
		</g>
	</g>
	<g>
		<g>
			<path d="M414.899-199.8c-9.799-2.2-20.799-1.2-26.699,7.9c-5.1,7.8-3.801,17.8-0.1,25.8c4,8.5,11.299,14.5,19.697,18.3
				c8.5,3.8,18.7,6.1,25.7,10.1c0.8-6.1,1.6-12.2,2.399-18.3c-6.302,2.3-12,2.1-17.899-1.1c-5-2.7-9.2-8-9.8-13.8
				c-0.602-5.4-4.102-10-10-10c-5,0-10.602,4.6-10,10c1.5,12.9,7.8,23.3,18.697,30.5c9.9,6.5,23.303,7.9,34.303,3.7
				c7.8-2.9,10.397-13.7,2.397-18.3c-6.1-3.5-13-5.5-19.6-7.8c-2.9-1-5.7-2.1-8.399-3.4c-3.301-1.6-4.801-2.5-6.801-4.8
				c-0.5-0.5-0.9-1-1.3-1.5c0.5,0.7,0.5,0.6-0.2-0.4c-0.199-0.3-1.9-3.6-1.199-1.9c-0.5-1.2-0.801-2.4-1.101-3.6
				c-0.2-1.2-0.2-1.2,0,0c-0.101-0.9-0.101-1.7,0-2.6c-0.101,2.9,1-2.3-0.2,0.4c0.6-0.9,0.5-0.9-0.3,0.1
				c1.399-1.9-1.7,0.9,0.399-0.4c0.601-0.4,0.801-0.2,0.2-0.1c1.8-0.2,3.101,0.1,4.698,0.4C422.2-177.7,427.5-197,414.899-199.8
				L414.899-199.8z"/>
		</g>
	</g>
	<g>
		<g>
			<path d="M430.2-209.7c-18.7-2.1-32.9,9.8-41.5,25.3c-6.2,11.3,11.1,21.4,17.3,10.1c5.601-10.1,12.2-16.8,24.2-15.4
				c5.397,0.6,10-5,10-10C440.2-205.7,435.6-209.1,430.2-209.7L430.2-209.7z"/>
		</g>
	</g>
	<g opacity="0.1">
		<g>
			<path d="M706.2-145.4c-4.3-0.8-6.6-1.8-9.4-3.2c-4-2-7.8-4.6-11.4-7.3c-7.897-5.9-15.6-14.2-22.3-21.9
				c-6.7-7.7-12.8-16-18.397-24.5c-2.603-3.9-5-8-7.3-12.1c-1-1.8-2-3.7-2.9-5.6c-0.4-0.9-0.8-1.7-1.3-2.6c-0.3-0.6-0.5-1.1-0.8-1.7
				c0.397,1,0.397,1,0,0c-2.103-5-6.603-8.6-12.303-7c-4.8,1.3-9,7.2-7,12.3c8.303,20.4,21.5,38.7,35.7,55.3
				c13.3,15.5,31.1,33.6,52,37.7c5.3,1,10.8-1.4,12.3-7C714.5-138.1,711.5-144.4,706.2-145.4L706.2-145.4z"/>
		</g>
	</g>
	<g opacity="0.1">
		<g>
			<path d="M720-150.1c-22.2-7.4-43.2-15.7-64.4-25.1c-10.897-4.9-21.3-9.8-31.3-16.3c-11-7.1-21.897-14.2-33.897-19.7
				c-13.103-6.1-27-10.3-40.303-16c-10.397-4.4-20.5-9.3-30.8-13.9c-19.397-8.7-38.7-14.8-59.897-16.4
				c-29.4-2.2-59.603-0.6-88.9,1.8c-29.4,2.4-58.7,6.7-87.4,13.3c-27,6.1-53.4,14.5-79,25.2c-29.4,12.3-58.9,24.5-88.1,37.2
				c-12.5,5.4-24.8,11-37.1,16.9c-4.9,2.3-6.2,9.3-3.6,13.7c2.9,5,8.8,5.9,13.7,3.6c28.7-13.7,58-25.8,87.4-38.1
				c26.8-11.2,53.2-22.8,81-31.1c56.3-16.8,115.1-23,173.7-23.1c12.303,0,25.603-0.2,37.4,1.5c9.6,1.4,19,4.1,28.1,7.5
				c20.5,7.6,41.5,18.8,62.7,27.1c13.3,5.2,26,9.9,38.3,17.2c10.303,6.1,19.9,13.2,30.5,18.8c10.303,5.5,21.503,9.9,32.303,14.6
				c10.2,4.4,20.397,8.6,30.897,12.4c7.803,2.9,15.7,5.5,23.5,8.2C727-126.8,732.2-146.1,720-150.1L720-150.1z"/>
		</g>
	</g>
	<g opacity="0.1">
		<g>
			<path d="M706.2-177c-18.5-5.2-34-17.1-49.1-28.6c-16.4-12.5-32.9-24.6-52.7-31c-12.303-4-17.5,15.3-5.303,19.3
				c18.4,6,33.9,18.3,49.103,29.9c16.2,12.4,32.8,24.1,52.7,29.7C713.3-154.2,718.6-173.5,706.2-177L706.2-177z"/>
		</g>
	</g>
	<g opacity="0.1">
		<g>
			<path d="M723.8-162.8c-32.5-45.2-86.897-66-137.6-83.5c-5.2-1.8-10.9,2-12.3,7c-1.5,5.5,1.8,10.5,7,12.3
				c45.1,15.6,96.6,33.9,125.6,74.4c3.2,4.4,8.6,6.5,13.7,3.6C724.6-151.6,727-158.3,723.8-162.8L723.8-162.8z"/>
		</g>
	</g>
	<g opacity="0.1">
		<g>
			<path d="M712.3-121.2c-14.1-1.4-28.3-2.4-42.5-1.9c-14.6,0.6-29.2,3.5-43.8,5c-13.8,1.4-28.4,2.4-41.7,6.6
				c-5.7,1.8-11.397,3.3-17.3,4.5c-2.5,0.5-4.9,0.9-7.4,1.3c-0.6,0.1-1.197,0.2-1.8,0.3c3.103-0.4,0.8-0.1,0.2,0
				c-1.5,0.2-2.9,0.3-4.4,0.5c-5.897,0.6-11.897,1-17.8,1.4c-19.397,1.3-38.7,2.9-58,5.1c-14.6,1.6-29.2,4-43.897,4.7
				c-13.603,0.6-27.4-0.3-40.802-2.4c-27.898-4.3-54.801-13.2-81.201-22.8c-27-9.8-53.6-20.6-80.9-29.4c-14-4.5-28.2-8.7-42.7-10.8
				c-15.6-2.3-31.3-2.6-47-2.5c-6.7,0-13.3,0.2-20,0.2c-12.9,0-12.9,20,0,20c15.3,0,30.6-0.5,45.9,0.2c15,0.7,29.3,3.7,43.7,7.8
				c27.6,7.8,54.4,18.4,81.2,28.5c26.5,10,53.2,19.5,80.9,25.5c28.601,6.2,56.8,7,85.7,3.4c22.5-2.8,45-5.1,67.6-6.7
				c12.8-0.9,25.5-1.6,38.2-3.4c14.9-2.2,29.1-7.5,44-9.7c14.3-2.2,28.8-3,43.2-5s28.4-2.5,43-1.7c6,0.4,11.9,0.9,17.8,1.5
				c5.4,0.5,10-5,10-10C722.3-117.1,717.8-120.7,712.3-121.2L712.3-121.2z"/>
		</g>
	</g>
	<g opacity="0.1">
		<g>
			<path d="M233.2-154.9c-9.7-4.2-20.6-9.6-26.9-18.6c-5.9-8.4-3.4-18.2,4.5-25.7c7.7-7.3,19.4-10.1,29.3-13.3
				c12.1-3.9,23.7-8.3,33.8-16.2c4.3-3.4,3.5-10.6,0-14.1c-4.2-4.2-9.9-3.4-14.1,0c-9.6,7.6-22.8,10.3-34.2,14.1
				c-13.6,4.5-26.6,10.8-35.1,22.7c-8.8,12.5-9.9,28.4-2.1,41.6c7.6,12.7,21.6,21,34.8,26.8c5,2.2,10.7,1.5,13.7-3.6
				C239.3-145.5,238.2-152.8,233.2-154.9L233.2-154.9z"/>
		</g>
	</g>
	<g opacity="0.1">
		<g>
			<path d="M329.8-254.6c-20.4,2.4-40,9.5-57.9,19.6c-18.1,10.2-34.8,24.5-43,43.9c-7.8,18.4-5.7,38.2,9.7,51.8
				c13.9,12.3,32.7,17.9,50,23.6c12.3,4.1,17.5-15.2,5.3-19.3c-13.5-4.5-29.2-9.2-39.5-17.2c-5.4-4.2-8.1-7.7-9.5-12.6
				c-0.9-3.1-0.8-5.2-0.4-9.3c0.3-2.6,1.9-7.4,3.2-10.5c6.4-14.9,20.6-25.4,34.3-33.3c7.8-4.5,16.1-8.2,24.6-11.1
				c7.3-2.5,16.6-4.9,23.2-5.7c5.4-0.6,10-4.1,10-10C339.8-249.5,335.3-255.2,329.8-254.6L329.8-254.6z"/>
		</g>
	</g>
	<g opacity="0.1">
		<g>
			<path d="M307.1-130.6c-15.4-12.6-29-27.6-38.9-44.8c-9.5-16.4-15-36.3-5.1-53.6c6.4-11.2-10.4-20.9-17.3-10.1
				c-8.2,12.9-13.5,27.1-12.8,42.6c0.6,15.1,6.1,29.7,10.1,44.1c3.5,12.5,21.9,7.2,19.3-5.3c-3.7-17.4-13.4-33.6-13.7-51.7
				c-0.2-10.4-13.1-13.1-18.6-5c-8.5,12.3-11.2,26.5-13.3,41c6.1-0.8,12.2-1.6,18.3-2.4c-4.6-9.3-7.7-19-9.5-29.2
				c-0.8-4.3-5.5-7.3-9.6-7.3c-4.8,0-8,3.1-9.6,7.3c-3.5,8.8-7,17.5-10.5,26.3c6.5,0.9,13.1,1.8,19.6,2.7c-0.2-3.6-1.1-6.8-2.4-10.1
				c-0.8-2-2.8-6.2-2.8-7.4c-0.6-8.7-10.4-13.2-17.1-7.1c-3.8,3.5-12.5,7.6-17.5,12.3c5.7,2.4,11.4,4.7,17.1,7.1
				c-0.4-2.9-1.5-5.9-1.8-8.8c-0.6-8.6-10.4-13.3-17.1-7.1c-7.9,7.5-20.4,8.3-30.7,9.7c-5.4,0.8-8.3,7.6-7,12.3
				c1.6,5.8,6.9,7.8,12.3,7c14.3-2,28.6-4.6,39.5-14.9c-5.7-2.4-11.4-4.7-17.1-7.1c0.2,2.7,1.6,7.4,1.8,8.8
				c1.1,8.4,10.1,13.5,17.1,7.1c3.8-3.5,12.5-7.6,17.5-12.3c-5.7-2.4-11.4-4.7-17.1-7.1c0.2,3.6,1.1,6.8,2.4,10.1
				c0.8,2,2.8,6.2,2.8,7.4c0.8,11.7,15.5,13,19.6,2.7c3.5-8.8,7-17.5,10.5-26.3c-6.4,0-12.9,0-19.3,0c2.1,11.9,6.2,23.1,11.5,34
				c3.6,7.3,17.1,6.2,18.3-2.4c1.8-12.8,3.8-25.3,11.3-36.2c-6.2-1.7-12.4-3.4-18.6-5c0.3,20.2,10.3,37.7,14.4,57
				c6.4-1.8,12.9-3.5,19.3-5.3c-3.3-11.8-7.9-24.1-9.2-36.2c-1.3-13,3-24.2,9.9-35.1c-5.8-3.4-11.5-6.7-17.3-10.1
				c-25.3,44.3,13.8,95.3,47.2,122.6c4.2,3.4,10,4.1,14.1,0C310.6-120,311.3-127.1,307.1-130.6L307.1-130.6z"/>
		</g>
	</g>
	<g opacity="0.1">
		<g>
			<path d="M656.7-164.7c-0.1,14.3-4.7,31.1-17.9,38.7c-11.1,6.5-1.1,23.8,10.1,17.3c19.303-11.3,27.5-34.6,27.803-56
				C676.8-177.6,656.8-177.6,656.7-164.7L656.7-164.7z"/>
		</g>
	</g>
	<g opacity="0.1">
		<g>
			<path d="M628.6-177.9c0.103,19.7,3.9,44.1-11.1,59.6c-9,9.3,5.2,23.4,14.1,14.1c19.5-20.2,17-47.9,17-73.7
				C648.6-190.8,628.6-190.8,628.6-177.9L628.6-177.9z"/>
		</g>
	</g>
	<g opacity="0.1">
		<g>
			<path d="M634.2-176.7c3.6,11.1,5.6,21.2,5.1,32.8c-0.397,9-3.3,18-8.5,26c-4.8,7.4-12.3,13.7-20.6,18.5
				c-10.9,6.3-23.3,9.6-35.7,11.9c-5.4,1-8.3,7.4-7,12.3c1.5,5.6,6.9,8,12.3,7c26.603-4.8,52.9-16.4,68.3-39.5
				c14.603-21.9,13.3-50.2,5.4-74.2C649.5-194.2,630.2-189,634.2-176.7L634.2-176.7z"/>
		</g>
	</g>
	<g opacity="0.1">
		<g>
			<path d="M686.5-126.1c-14-0.9-27.8-3.5-41.8-4.4c-14.5-1-28.8,1.2-42.2,6.8c-13.4,5.7-27,10.8-40.5,16.2
				c-7.6,3.1-15,6.3-23.1,7.8c-0.7,0.1-5.303,0.8-2.603,0.5c-1.6,0.2-3.2,0.4-4.8,0.5c-3.7,0.3-7.5,0.5-11.3,0.5
				c-8.2,0.1-16.4-0.3-24.5-0.9c-4.3-0.3-8.602-0.8-12.9-1.2c-2.199-0.2-4.397-0.5-6.699-0.8c-2.398-0.3-5-0.6-6.398-0.8
				c-40.3-5.5-80.1-14.4-119.9-23c-17.3-3.7-34.7-7.5-52.1-10.6c-12.7-2.3-25.8-4.7-38.7-4.9c-0.3,0-0.7,0-1,0
				c-12.9-0.1-12.9,19.9,0,20c5.2,0,10.5,0.5,15.7,1.2c0.5,0.1,3,0.4,0.3,0c0.8,0.1,1.5,0.2,2.3,0.3c1.6,0.2,3.2,0.5,4.8,0.7
				c3.8,0.6,7.6,1.3,11.3,1.9c17.5,3.2,34.8,6.9,52.1,10.6c39.8,8.5,79.6,17.4,119.9,23c31.697,4.4,66.3,9.1,96.697-3.1
				C575.7-91.7,590.4-97.5,605-103.4c12.2-4.9,23.3-7.8,36.5-7.4c13.9,0.4,27.5,3.2,41.3,4.3c1.2,0.1,2.4,0.2,3.603,0.2
				C699.4-105.3,699.3-125.3,686.5-126.1L686.5-126.1z"/>
		</g>
	</g>
</g>
</svg>
