<?xml version="1.0" encoding="utf-8"?>
<!-- Generator: Adobe Illustrator 16.0.0, SVG Export Plug-In . SVG Version: 6.00 Build 0)  -->
<!DOCTYPE svg PUBLIC "-//W3C//DTD SVG 1.1//EN" "http://www.w3.org/Graphics/SVG/1.1/DTD/svg11.dtd">
<svg version="1.1" xmlns="http://www.w3.org/2000/svg" xmlns:xlink="http://www.w3.org/1999/xlink" x="0px" y="0px" width="750.9px"
	 height="317.5px" viewBox="0 0 750.9 317.5" enable-background="new 0 0 750.9 317.5" xml:space="preserve">
<g id="eyelid_1_">
	<path fill="#FFFFFF" d="M41.73,195.559c0.427,2.936,1.104,6.361,2.355,9.476c-3.05,8.538-3.337,17.331,0.348,25.88
		c5.075,11.777,17.204,23.24,29.687,23.297c1.836,1.06,4.407,0.99,6.021-0.28c3.427,1.7,7.058,2.967,10.307,3.929
		c1.304,0.386,2.521,0.203,3.536-0.345c0.158,0.349,0.311,0.7,0.476,1.047c0.939,1.969,2.789,2.653,4.595,2.43
		c0.265,1.264,0.987,2.48,2.199,3.364c5.644,4.117,13.563,6.387,21.669,6.805c14.622,8.207,31.472,10.008,48.026,5.862
		c1.497,0.297,2.996,0.577,4.499,0.837c1.765,0.305,3.247-0.189,4.325-1.095c2.475,0.256,4.951,0.483,7.431,0.692
		c10.155,1.224,20.365,2.027,30.573,2.581c2.38,0.129,3.852-1.063,4.466-2.666c3.644,1.026,7.31,1.975,11.007,2.816
		c11.486,2.615,23.193,4.386,34.98,5.58c0.075,0.027,0.142,0.066,0.218,0.091c5.079,1.609,10.243,2.554,15.45,3.176
		c0.453,0.348,0.967,0.636,1.55,0.824c2.459,0.793,4.968,1.5,7.509,2.112c0.55,2.086,2.374,3.932,4.82,4.066
		c7.515,0.413,14.936-0.545,22.308-1.877c2.699-0.265,5.379-0.692,8.021-1.302c0.451-0.104,0.846-0.282,1.213-0.491
		c1.84-0.37,3.679-0.737,5.517-1.086c3.944-0.749,7.884-1.52,11.823-2.294c4.733-0.1,9.501-0.488,14.238-1.078
		c35.547-0.566,71.448-3.065,106.442-8.78c13.932-2.274,28.313-4.887,42.078-8.782c10.473-0.968,21.004-2.399,31.214-4.928
		c8.685,1.962,18.825-0.367,26.821-2.577c2.014-0.557,4.006-1.169,5.99-1.804c0.941,0.171,1.889,0.3,2.845,0.374
		c-2.36,3.098-4.267,6.5-5.332,10.296c-1.638,5.838,5.914,8.149,9.139,3.853c3.443-4.589,7.409-8.857,11.669-12.85
		c0.613,0.284,1.291,0.417,2.014,0.326c19.141-2.399,47.68-11.789,55.198-31.854c3.507-2.725,6.421-6.003,7.873-10.002
		c12.356-1.236,22.956-8.257,30.767-18.107c0.208,0.167,0.42,0.328,0.627,0.498c4.926,4.041,12.029-2.896,7.07-7.07
		c-0.566-0.478-1.145-0.948-1.727-1.416c0.083-0.41,0.12-0.826,0.109-1.243c0.268-0.493,0.529-0.989,0.785-1.489
		c0.123,0.029,0.246,0.059,0.369,0.088c1.938,1.876,4.044,3.558,6.404,4.913c2.18,1.252,5.25,0.367,6.764-1.531
		c7.175,1.996,14.273,4.249,21.268,6.839c2.775,1.104,5.511,2.163,8.163,3.196c6.065,2.363,8.481-7.223,2.658-9.643
		c-2.833-1.178-5.689-2.285-8.562-3.343c-5.076-2.019-10.314-4.223-15.37-6.766c-3.743-6.257-8.771-12.371-14.639-17.23
		c0.831-7.626,0.266-15.235-1.938-22.169c-1.024-3.225-4.363-4.153-6.866-3.129c-1.084-2.558-2.492-4.954-4.42-7.078
		c-1.416-1.561-3.439-1.777-5.162-1.126c-0.095-1.446-0.21-2.892-0.373-4.338c-0.186-1.638-0.934-2.92-1.955-3.765
		c3.912-6.359,5.874-14.548-1.191-19.109c-0.666-0.431-1.365-0.79-2.086-1.094c-6.089-18.986-22.531-38.398-42.844-38.38
		c-5.8-2.501-11.605-4.367-16.856-5.554c-3.196-0.723-6.821-1.238-10.62-1.456c-4.561-4.557-9.547-8.602-14.924-11.959
		c-1.877-1.172-4.338-0.648-5.954,0.733c-10.513-3.611-21.394-5.31-32.421-6.326c-3.893-1.85-7.994-3.4-12.337-4.648
		c-15.261-4.386-31.381-5.929-47.099-3.423c-3.865-1.166-7.867-2.107-11.938-2.813c-0.38-1.817-1.578-3.5-3.446-4.027
		c-21.33-6.019-43.647-5.551-65.603-5.881c-9.004-0.136-17.969-0.248-26.924-0.212c-2.253-0.37-4.5-0.673-6.713-0.908
		c-16.876-1.792-33.972-0.547-50.747,1.794c-12.697,0.055-25.386,0.93-38.061,3.185c-7.115,1.266-14.032,3.018-20.774,5.183
		c-0.285-0.245-0.604-0.471-0.984-0.658c-8.892-4.392-19.48-2.682-28.691-0.187c-1.778,0.482-3.54,1.013-5.296,1.565
		c-7.688,1.403-15.256,3.548-22.415,6.054c-17.623,1.244-34.744,8.945-49.846,17.56c-3.108,1.773-6.161,3.632-9.19,5.527
		c-1.526-0.417-3.233-0.138-4.62,1.263c-1.497,1.512-2.963,3.053-4.412,4.608c-5.55,3.75-10.986,7.667-16.339,11.699
		c-5.821,3.675-11.31,7.847-16.249,12.693c-2.624,2.575-1.645,5.704,0.583,7.284c-4.659,2.909-9.174,6.054-13.531,9.383
		c-10.416,7.959-20.948,17.405-26.834,29.345c-0.741,1.504-0.607,3.126,0.04,4.498c-8.862,5.531-17.336,11.633-25.258,18.49
		c-1.921,1.663-1.818,4.089-0.708,5.955c-1.809,2.113-3.235,4.795-4.118,7.725C40.437,181.749,40.754,188.834,41.73,195.559z
		 M167.405,76.973c-0.752,0.346-1.502,0.695-2.253,1.045c0.422-0.328,0.844-0.655,1.271-0.976c0.118-0.002,0.231,0.007,0.354-0.005
		C166.986,77.018,167.195,76.994,167.405,76.973z M185.155,107.842c-3.826,1.97-7.654,3.938-11.48,5.906
		c-0.294,0.1-0.588,0.201-0.883,0.297c1.114-0.829,2.204-1.684,3.247-2.583c1.635-0.781,3.271-1.559,4.911-2.331
		C182.346,108.688,183.749,108.261,185.155,107.842z M123.968,162.746c7.084-8.166,13.44-16.998,19.126-26.185
		c0.024-0.04,0.038-0.08,0.062-0.121c3.275-1.729,6.436-3.685,9.484-5.809c1.479,2.183,3.991,3.086,6.66,1.724
		c5.958-3.042,11.907-6.104,17.855-9.169c7.42-2.51,14.666-6.082,21.396-10.002c0.754,0.143,1.61,0.063,2.554-0.325
		c10.24-4.208,19.37-10.104,28.376-16.251c7.339-1.942,14.587-4.098,21.624-6.749c1.042-0.392,1.838-0.983,2.413-1.68
		c21.897-5.935,43.465-13.478,65.573-17.823c4.762-0.256,9.515-0.529,14.251-0.846c1.621,0.191,3.242,0.379,4.862,0.557
		c9.94,1.091,19.888,2.19,29.783,3.637c7.901,1.154,15.788,2.481,23.604,4.113c-1.462,2.597-0.902,6.243,2.854,7.042
		c37.189,7.912,73.808,19.928,109.614,32.621c12.19,4.321,25.125,5.989,37.836,8.531c0.945,0.472,1.883,0.969,2.808,1.492
		c6.948,10.725,16.85,24.683,17.59,37.768c-5.54,6.561-12.843,11.545-19.464,17.167c-22.117,3.486-43.988,8.267-65.312,15.358
		c-27.556,9.165-53.749,21.822-80.999,31.793c-3.219,1.178-6.455,2.321-9.705,3.425c-28.445,2.149-57.097,0.761-85.368,5.203
		c-2.699,0.424-3.759,2.406-3.607,4.47c-11.495-1.331-22.939-3.064-34.429-4.464c-14.552-1.771-29.141-2.704-43.599-5.252
		c-28.954-5.104-57.396-13.595-83.513-27.25c-1.425-0.745-2.809-0.766-3.994-0.332c-4.119-3.052-7.84-6.639-11.05-10.654
		c-0.237-1.508-0.411-3.063-0.479-4.696c-0.036-0.867-0.251-1.613-0.588-2.248C119.927,179.477,122.234,171.095,123.968,162.746z
		 M51.227,180.979c0.211-1.771,1.259-5.668,2.972-7.612c-0.801,2.876-1.319,5.927-1.345,8.952c-0.62,2.223-0.995,4.486-1.077,6.719
		c-0.023,0.641,0.08,1.22,0.273,1.742c-0.229,0.719-0.445,1.442-0.649,2.169C50.853,188.978,50.761,184.901,51.227,180.979z"/>
</g>
<g id="Layer_1">
	<g id="eyelid_2_">
		<path d="M501.448,74.859c34.389,7.078,63.387,25.795,91.971,45.268c23.637,16.102,42.188,40.367,72.357,43.911
			c6.396,0.751,6.325-9.257,0-10c-14.564-1.711-27.109-10.126-38.189-19.206c-11.379-9.324-22.392-18.738-34.56-27.046
			c-7.362-5.028-14.817-9.937-22.422-14.563c0.082-2.56-1.524-5.185-4.829-5.185c-1.074,0-1.965,0.282-2.681,0.744
			c-18.443-10.581-37.845-19.213-58.99-23.565C497.812,63.921,495.133,73.56,501.448,74.859z"/>
		<path fill="#FFFFFF" d="M29.64,211.511c-0.405,10.168-0.495,20.34,0.137,30.524c0.402,6.494,9.43,6.384,10,0
			c0.268-2.993,0.422-5.988,0.495-8.984c0.568,5.154,1.427,10.271,2.685,15.313c0.776,3.119,4.172,4.199,6.75,3.232
			c0.021,0.812,0.05,1.625,0.07,2.438c0.102,3.968,3.774,5.48,6.641,4.568c2.609,7.943,5.197,15.857,7.539,23.761
			c1.644,5.552,9.498,4.247,9.82-1.329c0.412-7.104,0.471-14.213,0.272-21.318c0.499-4.386,0.816-8.783,1.002-13.189
			c0.509-0.217,0.977-0.514,1.372-0.904c1.921,3.68,7.845,2.753,9.175-1.258c0.819-2.469,1.5-4.961,2.091-7.473
			c-0.005,6.383,0.296,12.766,1.088,19.144c0.69,5.562,7.805,6.858,9.821,1.329c0.944-2.59,1.774-5.195,2.503-7.814
			c1.699,4.82,9.657,4.415,9.676-1.515c0.007-2.144,0.039-4.284,0.085-6.427c2.793,9.578,5.544,19.14,7.095,28.756
			c0.898,5.582,10.171,4.254,9.82-1.329c-0.483-7.722-0.857-15.468-1.195-23.229c0.618-0.154,1.218-0.42,1.759-0.785
			c5.06,9.883-13.87,27.008-3.39,31.098c0.961,0.375,7.277,6.39,8.103,6.132c11.783,6.674-6.282,3.724,6.982,6.131
			c7.354,1.334,27.786,16.09,35.291,16.869c17.653,4.319,28.893-8.127,47.102-8.673c5.557-0.167,8.026,29.604,37.745,6.654
			c6.292,0.799,0,0,6.254,1.019c-2.517,24.64,27.767,3.709,30.35,3.995c8.981,0.996,17.179-0.07,26.224,0
			c2.432,0.018,5.66-2.049,6.257-3.995c8.732-1.051,21.985,0.845,30.307-2c18.994,15.278,65.586,15.088,56.563,1
			c31.727-3.563,2.119-7.746,33.244-14.869c1.257-0.289,26.146,9.095,26.729,8.196c14.144,3.965,19.083-6.712,30.728-14.327
			c2.408-1.575-16.768,1.077,38.972-12.729c0.18-0.03,84.22,14.608,11.151-2.088c75.913,17.07,16.537-6.445,16.492-6.394
			c-4.25,4.905,8.636,10.541,13.561,6.394c4.459-3.757,10.543-4.697,15.597-9.188c5.203-1.381,0.106,0.297,5.203-1.381
			c1.663-0.549-0.618-2.351-0.126-3.676c4.893-2.607-4.067-5.129,0-9.104c1.534-0.65,8.115,4.284,9.65,3.637
			c0.61-0.042-56.484-27.878-55.873-27.946c0.297,0.099,70,30.574,70.328,30.613c-0.314,0.078-5.343-8.21-5.656-8.135
			c-4.396,1.062,67.831,22.833,5.656,8.135c-4.896,1.275-9.851-4.893-14.455-2.667c-4.748,2.293-4.626-0.195,0,0
			c18.931,0.801-32.232-8.515-13.552-10.687c5.085-0.591,6.125-7.169,3.017-9.344c5.494-2.141,10.725-5.01,15.52-9.121
			c1.591-1.365,1.791-3.881,0.923-5.805c1.833-1.5,1.878-4.341,0.722-6.387c0.356-0.121,0.711-0.246,1.066-0.369
			c0.29,1.454,0.594,2.906,0.932,4.354c1.147,4.915,8.348,4.644,9.644,0c0.261-0.935,0.501-1.872,0.731-2.81
			c0.658,7.289,1.485,14.563,2.625,21.81c0.816,5.185,8.311,4.35,9.644,0c1.417-4.621,2.458-9.259,3.226-13.907
			c0.549,6.182,9.147,5.637,9.953-0.422c0.758-5.695,1.237-11.398,1.522-17.109c0.098,0.004,0.194,0.008,0.294,0.008
			c0.594,9.715,1.257,19.422,2.183,29.103c0.5,5.226,8.688,7.263,9.821,1.329c0.729-3.814,1.263-7.635,1.646-11.456
			c2.151,0.144,4.435-1.099,5.354-3.544c0.309-0.82,0.585-1.646,0.848-2.475c2.17,0.22,4.356-0.91,5.152-3.525
			c0.74-2.432,1.24-4.906,1.627-7.401c0.13-0.022,0.261-0.034,0.391-0.065c1.867,2.82,6.543,2.565,8.396-0.057
			c1.764,6.913,3.642,13.788,5.944,20.523c1.107,3.24,5.412,4.549,7.92,2.802c2.43,3.093,7.576,2.06,8.724-1.802
			c0.153-0.52,0.28-1.053,0.424-1.578c2.756,0.475,5.776-1.148,5.755-4.751c-0.058-9.562-0.984-19.688-3.359-29.384
			c-0.918-9.374-2.961-18.598-5.819-26.945c-1.335-3.898-6.25-4.702-8.622-1.897c-3.104-1.472-7.199-0.072-7.199,4.227
			c0,0.996-0.002,2-0.004,3.01c-1.456-1.599-2.997-3.112-4.621-4.536c-1.496-4.39-3.156-8.729-5.058-12.997
			c-2.386-5.354-10.425-1.444-9.14,3.853c0.154,0.638,0.299,1.276,0.444,1.915c-0.851,0.247-1.627,0.721-2.251,1.388
			c-2.012-6.272-3.923-12.573-5.551-18.961c-1.048-4.113-5.539-4.427-8.072-2.221c-1.229-9.972-2.799-19.906-4.928-29.779
			c-1.275-5.915-9.281-3.912-9.821,1.329c-0.414,4.026-0.698,8.055-0.892,12.086c-1.247-6.498-2.656-12.973-4.287-19.415
			c-1.482-5.858-9.23-3.959-9.821,1.329c-0.839,7.508-0.972,15.049-0.702,22.608c-1.867-1.22-3.755-2.405-5.664-3.555
			c-9.83-9.944-20.201-19.306-31.164-27.859C593.79,78.094,584.011,68.845,573.3,60.72c-3.84-2.912-7.62,1.288-7.21,5.145
			c-12.763-7.077-26.177-13.067-40.274-17.723c-28.838-9.519-59.604-14.555-89.798-17.263c-31.36-2.813-24.835-11.931-56.151-8.663
			c-11.934,1.244-23.927-7.78-35.813-6.169c-0.814-0.784-28.89,0.699-30.253,0.804c-12.744,0.982-13.695-2.519-26.173,0.354
			c-9.339,0.949-23.635-1.2-32.94,0.045c-2.351,0.315-23.107,2.483-23.736,4.115c-15.2,2.757-30.018,12.701-44.674,17.523
			c-0.722-3.284-0.501,12.022-1.677,8.818c-1.63-4.44-8.285-5.08-9.644,0c-1.016,3.797-1.655,7.622-2.051,11.466
			c-1.14-2.601-2.396-5.16-3.811-7.66c-1.684-2.975-7.123-3.545-8.635,0c-1.484,3.478-2.479,7.037-3.227,10.64
			c-0.486-1.499-1.021-2.984-1.636-4.445c-1.649-3.925-8.77-5.529-9.644,0c-0.365,2.317-0.547,4.649-0.634,6.989
			c-2.566-1.357-6.359-0.207-7.366,3.011c-0.89,2.845-1.54,5.744-2.124,8.658c-0.081-0.219-0.146-0.44-0.232-0.658
			c-1.814-4.594-7.937-4.9-9.644,0c-0.975,2.802-1.652,5.674-2.238,8.567c-0.793,0.122-1.537,0.438-2.17,0.918
			c-4.026,1.039-8.056,2.061-12.1,3.023c-5.484,1.305-4.154,8.668,0.426,9.659c-0.097,0.09-0.193,0.179-0.289,0.27
			c-3.515,2.513-6.983,5.074-10.391,7.686c-6.808,5.219-13.45,10.764-19.754,16.669c-2.08-2.436-6.288-1.496-7.98,1.015
			c-2.649,3.93-4.431,8.398-5.641,13.044c-1.106,1.269-2.193,2.553-3.261,3.852c-0.293-1.569-0.608-3.137-0.96-4.701
			c-0.137-0.609-0.373-1.138-0.684-1.591c-0.38-2.472-0.812-4.942-1.316-7.409c-1.223-5.982-9.223-3.841-9.821,1.329
			c-0.353,3.053-0.647,6.106-0.914,9.161c-0.491,2.546-0.972,5.095-1.446,7.646c-1.01-2.137-2.105-4.25-3.321-6.33
			c-1.74-2.979-7.052-3.533-8.636,0C25.146,161.532,28.103,186.685,29.64,211.511z M210.969,74.378
			c-2.757,1.594-5.582,3.072-8.261,4.752c-1.097,0.317-2.105,1.022-2.833,1.927c-0.656,0.483-1.298,0.988-1.918,1.52
			c-0.083-0.508-0.149-1.019-0.182-1.539c-0.131-2.092-1.227-3.539-2.653-4.284C200.413,76.013,205.699,75.236,210.969,74.378z
			 M356.538,56.931c1.582,0.328,3.166,0.645,4.754,0.948c0.234,0.171,0.479,0.327,0.709,0.505c-0.891,0.448-1.813,0.835-2.758,1.176
			c-8.722-0.565-17.481-0.747-26.244-0.557c3.288-0.318,4.812-3.009,4.566-5.526C343.593,55.48,350.007,56.494,356.538,56.931z
			 M526.965,59.072c-2.986,0.426-4.613,3.655-3.763,6.536c-0.043,0.141-0.084,0.282-0.115,0.427
			c-7.986-1.454-15.994-2.754-24.129-2.967c-2.609-0.862-5.266-1.479-7.854-1.853c-2.506-0.362-4.797,0.945-5.816,2.83
			c-5.531,0.14-10.988-0.357-16.396-1.254c-3.201-0.735-6.415-1.4-9.642-1.99c-13.834-3.358-27.42-8.518-41.146-11.585
			c-4.714-1.054-7.393,4.112-5.777,7.351c-5.771-1.131-11.584-2.089-17.414-2.989c1.498-2.524,0.78-6.226-2.809-7.362
			c-12.418-3.931-25.417-4.176-38.329-4.179c-1.063,0-1.946,0.275-2.659,0.729c-2.401-0.568-4.846-1.013-7.287-1.372
			c6.908-0.676,13.825-1.241,20.754-1.632c31.512-1.777,63.259-0.762,94.508,3.825C481.97,46.947,505.062,51.379,526.965,59.072z
			 M374.651,60.207c9.785,1.578,19.614,2.985,29.35,4.776c-1.08,0.034-2.159,0.074-3.239,0.12
			c-8.099-1.614-16.253-2.939-24.455-3.946c-0.619-0.076-1.24-0.143-1.86-0.215C374.54,60.702,374.604,60.456,374.651,60.207z
			 M529.732,215.158c0.441-0.024,0.9-0.116,1.373-0.298c0.19-0.074,0.384-0.153,0.574-0.228c0.927-0.181,1.851-0.329,2.774-0.479
			c-1.405,0.585-2.78,1.236-4.127,1.945C530.163,215.767,529.962,215.451,529.732,215.158z M464.643,250.983
			c0.124-0.176,0.231-0.355,0.333-0.538c3.835-0.972,7.656-2.005,11.462-3.095c0.022-0.002,0.046-0.004,0.067-0.006
			C472.674,249.163,468.693,250.522,464.643,250.983z M408.806,239.113c1.811-0.419,3.622-0.833,5.431-1.257
			c4.103-0.961,8.199-1.916,12.284-2.902c-3.441,1.125-6.895,2.213-10.359,3.268c-0.535-0.086-1.108-0.096-1.713-0.004
			C412.565,238.499,410.685,238.802,408.806,239.113z M265.714,270.571c0.105-0.545,0.117-1.102,0.026-1.646
			c5.345,0.696,10.679,1.578,16.036,2.111c2.873,0.286,4.818-2.409,4.962-5.036c3.74,1.172,7.58,1.96,11.111,2.558
			c8.739,1.476,17.595,2.181,26.459,2.352c-2.023,1.332-2.76,3.895-2.115,5.977c-3.691,0.377-7.4,0.633-11.115,0.807
			C296.097,274.705,280.947,272.322,265.714,270.571z M217.656,267.146c0.744-1.154,1.077-2.642,0.855-4.043
			c4.647,1.281,9.279,2.647,13.936,3.756c2.917,0.695,4.927-0.729,5.716-2.713c3.277,1.437,6.5,3.017,9.695,4.666
			C237.801,267.981,227.725,267.433,217.656,267.146z M150.266,219.521c1.12,0.322,2.241,0.645,3.359,0.98
			c-0.784,0.348-1.388,0.889-1.842,1.527C151.256,221.202,150.747,220.367,150.266,219.521z M144.6,181.366
			c3.94-16.262,18.282-26.528,25.243-41.276c3.928-3.287,7.329-6.918,8.936-11.341c15.256-1.76,28.892-11.001,42.523-17.394
			c3.236-1.518,2.931-5.629,0.935-7.9c0.345-0.884,0.502-1.83,0.363-2.747c-0.06-0.398-0.148-0.776-0.251-1.144
			c16.268-4.539,32.548-9.01,49.43-10.527c4.915-0.442,6.071-6.494,3.383-8.973c19.131-1.973,38.386-2.587,57.254-2.32
			c0.824,0.846,1.96,1.373,3.363,1.292c3.024-0.175,5.979-0.825,9-1c0.477-0.027,0.908-0.119,1.315-0.239
			c3.022-0.244,6.028-0.362,9.022-0.387c6.122,0.643,12.305,0.933,18.516,1.035c26.324,3.023,51.939,11.851,78.344,16.449
			c8.001,1.394,15.986,2.321,24.063,2.749c2.851,0.914,5.698,1.839,8.535,2.799c11.795,3.99,23.217,8.901,34.477,14.185
			c0.984,0.641,1.971,1.27,2.959,1.885c9.06,5.641,18.544,10.259,28.687,13.623c9.574,3.175,19.933,5.206,29.315,9.072
			c1.402,1.077,2.816,2.134,4.242,3.148c1.076,0.763,2.281,0.903,3.412,0.628c5.649,3.259,10.834,7.201,16.344,10.722
			c3.013,6.18,2.869,14.11,3.429,21.136c-9.065,1.168-18.036,2.858-26.926,4.953c-0.378-2.1-1.951-3.888-4.734-3.757
			c-33.065,1.56-63.339,15.851-93.192,28.846c-5.186,2.257-10.389,4.499-15.629,6.648c-0.972-1.816-2.93-3.048-5.508-2.315
			c-50.271,14.303-101.834,38.494-155.299,32.944c-13.198-1.37-26.229-3.927-39.377-5.673c-13.072-1.736-26.206-2.223-39.371-2.747
			c-6.666-0.265-13.341-0.535-20.005-0.951c-0.035-0.021-0.061-0.048-0.096-0.069c-19.067-11.492-40.541-19.348-62.058-24.947
			C142.778,199.384,142.407,190.409,144.6,181.366z M132.669,192.94c0.406-4.483,0.924-8.95,1.688-13.389
			c0.215-1.25,0.451-2.505,0.697-3.759c0.502-0.641,1.004-1.28,1.498-1.927c-1.081,3.054-1.89,6.24-2.377,9.62
			c-0.526,3.633-0.752,7.198-0.715,10.694C133.196,193.761,132.933,193.347,132.669,192.94z M130.923,219.863
			c0.049-0.726,0.101-1.449,0.146-2.175c0.383,0.795,0.762,1.592,1.142,2.389C131.781,220.005,131.353,219.935,130.923,219.863z
			 M113.206,108.837c0.693-0.924,1.449-1.803,2.275-2.626c1.034-0.724,2.069-1.446,3.111-2.162c-0.164,0.749-0.342,1.495-0.531,2.24
			c-1.502,0.799-2.974,1.686-4.412,2.638C113.502,108.896,113.354,108.869,113.206,108.837z M87.523,128.509
			c4.82-4.468,9.858-8.705,15.022-12.746c0.404,0.349,0.85,0.641,1.313,0.859c-2.134,1.912-4.162,3.852-6.059,5.713
			c-2.706,2.654-5.337,5.389-7.905,8.184C89.302,129.627,88.464,128.933,87.523,128.509z"/>
	</g>
	<g id="Layer_1_1_">
		<path fill="none" stroke="#000000" stroke-miterlimit="10" d="M-70.9,147.4c-23.5-24.1-41.7-54.3-76.8-61.4
			c-42.1-8.5-82.2-20.3-123.6-33.3c-43.1-13.5-90.8-9.9-135-4c-27.7,3.7-45.7,14.7-71.6,22.9c-16.5,5.2-35.2,5.1-50.5,14
			c-10.7,6.2-19.1,16.3-29.8,22.8c-23.9,14.7-45,32.4-71.7,42.9c-15.2,6-30.7,10.601-46.1,15.3c-11.3,3.4-31.9,4.801-40.4,10.602"/>
		<path fill="none" stroke="#000000" stroke-miterlimit="10" d="M-70.9,196.5c-31.8-11-43.4-23.5-59.3-52.2
			c-13-23.5-29.2-46.5-54.9-57.9c-37.3-16.6-91.4-17.2-131.5-21.3c-38.1-3.9-73.8-12.9-112.5-9.3c-38.8,3.6-67.9,24.6-103.2,38.5
			c-31.7,12.5-37.4,39-68.4,52.3c-19.6,8.4-47.4,59.3-135.1,27.1"/>
		<path fill="none" stroke="#000000" stroke-miterlimit="10" d="M-683.2,177.2c16.5-1.3,31-8.601,49.5-8.8
			c20.3-0.2,38.8,2,58.6,4.898c46.6,6.7,78.2,29.102,119.5,51.7c29.1,15.899,59,32.101,91.7,36.7c28.8,4.1,60.5,1.898,89.4-0.801
			c70.4-6.601,136.6-60.5,207.1-36.399"/>
		<path fill="none" stroke="#000000" stroke-miterlimit="10" d="M-83.2,222.8c-6.6-2.899-24-9.6-26.4-17.1c-5.4-16.3,15-11,26.4-11"
			/>
		<path fill="none" stroke="#000000" stroke-miterlimit="10" d="M-386.8,230.7c-40.8-4.9-57.4-48.3-49.1-82.7
			c10.1-41.5,52-55.7,92-55c44.2,0.7,102,23.5,98.2,75.6c-3,40.4-41.9,61.602-77.5,65.7c-25.4,2.9-45.5-6.7-70.1-8.1"/>
		<path fill="none" stroke="#000000" stroke-miterlimit="10" d="M-349.2,188c-19.5,0.9-46.2-9.3-36-35c7.5-19.1,39.1-21.6,57.1-17.1
			c14.1,3.5,41.5,30,28.9,47.8c-9.5,13.399-51.5,4.1-65.6,2.2"/>
		<path fill="none" stroke="#000000" stroke-miterlimit="10" d="M-72.6,236.4c-35.8-23.602-66.5,11.1-100,28.199
			c-31,15.801-73.1,19.399-107.5,22.801c-82.5,8-145-34.602-216.8-67.602c-6.2-2.8-12.1-5.5-17.9-7.5"/>
		<path fill="none" stroke="#000000" stroke-miterlimit="10" d="M-549.8,205.3c-19.7-36.7-87.6-18.3-119.3-19.3"/>
		<path fill="none" stroke="#000000" stroke-miterlimit="10" d="M-139.3,101.8c-11.3-17.7,6.7-39.6-7-57.9"/>
		<path fill="none" stroke="#000000" stroke-miterlimit="10" d="M-176.1,77.2c-16.6-2.4-37.9-26.7-49.1-38.6"/>
		<path fill="none" stroke="#000000" stroke-miterlimit="10" d="M-300.7,49.1c8.4,3.9,16.8,8.1,26.3,7"/>
		<path fill="none" stroke="#000000" stroke-miterlimit="10" d="M-325.3,57.9c-6.6-10.8-10.2-22.1-10.5-35.1"/>
		<path fill="none" stroke="#000000" stroke-miterlimit="10" d="M-353.3,54.4c-13.1-3.7-36.7-10-33.3-28.1"/>
		<path fill="none" stroke="#000000" stroke-miterlimit="10" d="M-413,56.1c-10.5-2.5-20-9.7-24.6-19.3"/>
		<path fill="none" stroke="#000000" stroke-miterlimit="10" d="M-446.3,66.7c-11-1.2-30.6-7.5-36.8-17.5"/>
		<path fill="none" stroke="#000000" stroke-miterlimit="10" d="M-541.1,77.2c7.5,3.6,14.6,6.9,22.8,7"/>
		<path fill="none" stroke="#000000" stroke-miterlimit="10" d="M-600.7,110.5c5.4,4.7,13.7,7.1,21.1,10.5"/>
		<path fill="none" stroke="#000000" stroke-miterlimit="10" d="M-600.7,135.1c-9.7,0.2-20.7,2.3-26.3-7"/>
		<path fill="none" stroke="#000000" stroke-miterlimit="10" d="M-632.3,152.6c-9.6-0.9-18.1-5-24.6-12.3"/>
		<path fill="none" stroke="#000000" stroke-miterlimit="10" d="M-297.2,28.1c13,3.6,20.5,14.7,24.6,28.1"/>
		<path fill="none" stroke="#000000" stroke-miterlimit="10" d="M-300.7,52.6c-7.9-11.3-14.1-21.6-17.5-35.1"/>
		<path fill="none" stroke="#000000" stroke-miterlimit="10" d="M-265.6,26.3c3.1,13.1,2.8,24.4,10.5,36.8"/>
		<path fill="none" stroke="#000000" stroke-miterlimit="10" d="M-227,64.9c-1.6-9.9-7.2-21.6-12.3-29.8"/>
		<path fill="none" stroke="#000000" stroke-miterlimit="10" d="M-320,275.4c-13.2,0.3-24.8,5.5-33.3,15.8"/>
		<path fill="none" stroke="#000000" stroke-miterlimit="10" d="M-460.4,250.9c12.4,0,27.8-2.9,38.6,3.5"/>
		<path fill="none" stroke="#000000" stroke-miterlimit="10" d="M-462.1,228.1c-16.7,0-35.9-1.1-50.9,5.301"/>
		<path fill="none" stroke="#000000" stroke-miterlimit="10" d="M-516.5,207c-12.8,2.8-19.8,5.4-29.8,14"/>
		<path fill="none" stroke="#000000" stroke-miterlimit="10" d="M-623.5,198.2c10-10.9,27.5-20.101,42.1-19.3"/>
		<g>
			<g>
				<path d="M-347.2,158.4c-4.6,4.8-10,7.2-9.6,14.7c0.1,1.5,1.6,3,3.2,2.4c3.6-1.3,7.2-3.1,8.7-6.9c1.1-2.898-1-5.8-3.4-7.199
					c-8.6-5.199-16.6,4.101-19.1,11.301c-0.3,1,0.2,2.3,1.1,2.8c6.3,3.399,13.9,2.7,19-2.601c4-4.199,2.2-10-3.6-10.801
					c0.6,0.801,1.2,1.602,1.8,2.4l0,0c-0.8,0.8-1.7,1.7-2.5,2.5c6.8,0.3,9.7-5.6,3.5-10c-6.5-4.7-4.1,10.4-4.2,11.1
					c1-0.6,2-1.199,3.1-1.699c0.5,0.399,1,0.801,1.5,1.199c-1.1-3-5.4-1.898-4.8,1.301c0,0.101,0,0.101,0,0.199
					c0.1,0.801,1,1.602,1.7,1.7c3.6,0.601,9.8-6.2,11.2-9.2c0.8-1.699-0.2-3.7-2.2-3.8c-3.3-0.1-4.7,5.9-5.7,8.2
					c-0.9,2.1-1.8,4.4-0.7,6.5c2.1,4.1,11-1.2,13.9-1.4c3.1-0.3,3.3-5.1,0-5c-1.8,0-3.5-3.6-4.3-4.898c-1.5-2.4-3-5.1-5.3-6.8
					c-7-5.3-12.6,4.9-15.1,10c-0.6,1.199-0.4,2.801,0.9,3.399c9.1,4.8,17.6,3.8,25.8-2.2c1.3-1,1.7-2.699,0.5-3.898
					c-4.7-5.1-11.5-11.5-19.1-9.6c-5.1,1.3-7.9,6.8-8.9,11.5c-0.7,3.399-1.1,9.699,2.7,11.5c5.7,2.699,9.8-6.899,11.5-10.601
					c0.5-1.2,0.4-2.8-0.9-3.399c-3.6-1.801-7.7-4.5-11.9-4.399c-4.4,0.2-7.4,4.899-9.6,8.1c-0.6,0.9-0.4,2.3,0.4,3
					c4.4,3.9,11.2,10.101,17.7,8.2c4.3-1.3,5.4-6.3,4.8-10.1c-0.5-3.4-2.3-7.3-6.2-7.602c-5.8-0.4-8,9.7-8.9,13.5
					c-0.4,1.7,0.8,2.9,2.4,3.2c3.5,0.5,7.2,1.3,10.6,0.101c3.5-1.101,5.8-4.801,8-7.5c0.8-1,1.1-2.601,0-3.5
					c-9.4-7.801-20.8-9.301-27.2,2.699c-0.5,1-0.4,2.2,0.4,3c4.8,4.602,14.3,10.7,18.9,2.301c3-5.601,0.1-13.601-5.7-15.899
					c-6.7-2.8-20.7,1.6-19.3,10.6c1.4,8.8,12.8,14.101,20.7,14.3c1,0,2.2-0.8,2.4-1.8c0.7-3.5,2.4-6.7,3.1-10.2
					c0.6-2.8-3-4.3-4.6-1.898c-1.5,2.3-4.1,5.199-3.9,8.1c0.2,2.7,2.8,5.301,3.5,7.9c0.6,1.898,3.6,2.6,4.6,0.6
					c1.8-3.8,3.3-7.898,5.1-11.699c1.1-2.399-2-5.399-3.9-3c-3.1,3.699-4.7,7.899-7.2,12c-1.1,1.801,0.4,3.5,2.2,3.801
					c11.4,1.398,21.2-1.2,25.1-12.9c0.9-2.8-3.1-4.3-4.6-1.9c-7.2,11.9-26.7,18.9-39.2,11.302c-7.1-4.302-8.4-15.2-4.9-22.2
					c4.4-8.5,15.5-11.2,24.3-11.3c9.2,0,16.5,3.7,22.8,10.2c3.3,3.5,6.4,7.9,6.1,12.9c-0.6,8.899-13.7,12.399-20.6,13.7
					c-10.3,1.898-22.4,1.1-31.6-4.301c-9.8-5.801-11.5-19.199-4-27.799c6-6.9,16.2-9.8,25-11.2c8.8-1.4,18.6-1,25.9,4.6
					c9.3,7.2,12.7,18.101,3.9,27.101c-7.9,8.101-21,10.399-31.7,8.199c-9.3-1.898-24.4-9.199-18.5-20.898
					c4.8-9.601,17.2-14.7,27.3-15.5c14.1-1.1,25.1,7.3,30.1,20.199c2.8,7.302,5,16.701-4.3,20c-8,2.802-17.7,0.802-25.7-0.898
					c-3.2-0.7-4.2,3.6-1.3,4.8c13.5,5.601,32.7,2.4,41.7-10c9.2-12.7,0-27-11.9-33.8c-12.2-7-27.6-9.8-41.5-9.2
					c-11.9,0.6-25.4,5.2-28.3,18.2c-0.6,2.8,3,4.3,4.6,1.9c9.8-14.5,26.1-18.9,42.5-13.7c13.4,4.2,27,14.8,31.4,28.5
					c4.8,14.899-7.8,25.1-21.3,27.198c-15.4,2.4-34.4-2.1-46.6-12.1c-10.7-8.8-9.7-20.6-1-30.5c-1.4-0.8-2.8-1.6-4.2-2.4
					c-8,35.4,36.6,50.1,63.7,39.6c-0.6-1.5-1.3-3-1.9-4.601c-10.5,5.199-21.4,6.399-32.6,2.699C-361.9,187.4-371,180-379.2,172.9
					c-2.2-1.9-5.1,0.5-3.9,3c6.1,13.898,21.2,16.199,34.6,18c0.4-1.602,0.9-3.2,1.3-4.801c-7.6-1-15.2-2-22.4-4.801
					c-0.4,1.602-0.9,3.2-1.3,4.801c2.9,0.601,5.3,2.399,8.1,3.301c2.7,0.898,4.5-3.301,1.9-4.602c-0.5-0.199-0.9-0.5-1.4-0.699
					c-2.9-1.399-5.4,2.899-2.5,4.301c0.5,0.199,0.9,0.398,1.4,0.699c0.6-1.5,1.3-3,1.9-4.601c1,0.399-0.6-0.3-0.6-0.3
					c-1-0.5-2-0.9-3-1.301c-1.5-0.601-2.9-1.399-4.5-1.699c-3.2-0.7-4.3,3.699-1.3,4.8c7.2,2.7,14.8,3.8,22.4,4.8
					c3.2,0.4,4.5-4.398,1.3-4.8c-12.1-1.601-26.1-3.101-31.6-15.7c-1.3,1-2.6,2-3.9,3c9.4,8.2,19.4,15.801,31.4,19.7
					c11.8,3.899,24.1,1.7,35.1-3.7c2.5-1.199,0.7-5.6-1.9-4.6c-23.1,9-64.7-1.7-57.5-33.4c0.5-2.3-2.4-4.4-4.2-2.4
					c-10,11.4-11.8,25.4-0.2,36.5c11.2,10.699,28.6,15,43.6,15.101c13.8,0.101,28.5-4.8,33.8-18.7c4.7-12.398-3.5-25.6-12.2-33.9
					c-9.6-9.2-22.5-15.1-35.7-15.9c-14.5-0.8-27.1,6.6-35.1,18.4c1.5,0.6,3,1.3,4.6,1.9c2.4-10.8,13.8-13.9,23.5-14.5
					c11.8-0.8,24.2,1.7,35,6.5c10.2,4.5,22.1,15.5,15.2,27.301c-7,12-25.5,14.101-37.2,9.301c-0.4,1.6-0.9,3.199-1.3,4.8
					c12.6,2.7,37.4,6.5,38.9-12.3c0.6-8.301-4.1-18.3-9.3-24.7c-4.4-5.4-10.1-9.2-16.8-11c-12-3.3-26.1,0.5-35.7,8.2
					c-7.9,6.3-13.4,17.1-6.1,26c11.2,13.699,33.8,14.5,48.6,7.199c7.3-3.601,14.3-10.699,14.9-19.301c0.7-9.9-6.3-17.7-13.9-23.1
					c-6.5-4.6-16-4.7-23.5-4.1c-8.9,0.8-18,3.4-25.5,8.3c-10.3,6.6-15.2,20.5-9.4,31.701c4.7,9.101,15.9,12.801,25.4,14
					c10.6,1.301,22,0.101,31.6-4.699c7.8-3.9,13.4-11.4,10.6-20.301c-4.3-13.701-19.5-21.801-33.1-22.101
					c-10.9-0.3-22.9,4-28.6,13.7c-4.9,8.3-2.9,20.898,4.3,27.199c13.9,12.399,39.7,3,48.4-11.399c-1.5-0.601-3-1.3-4.6-1.899
					c-3.2,9.601-11.4,10.399-20.3,9.301c0.7,1.3,1.4,2.5,2.2,3.8c2.3-3.7,3.7-7.601,6.5-11c-1.3-1-2.6-2-3.9-3
					c-1.8,3.8-3.3,7.899-5.1,11.7c1.5,0.199,3,0.398,4.6,0.6c-0.6-2.2-1.4-4.3-2.7-6.2c-0.6-0.899-0.8-0.5-0.4-1.399
					c0.8-1.601,1.9-3.199,3-4.699c-1.5-0.602-3-1.301-4.6-1.9c-0.7,3.5-2.4,6.7-3.1,10.2c0.8-0.601,1.6-1.2,2.4-1.8
					c-5.6-0.102-11.7-3.102-14.8-7.801c-4.1-6.101,7.4-8.899,11.6-7.601c3.3,1,4.3,5.5,3.5,8.4c-1.6,5.7-9.3-1.2-11.2-3
					c0.1,1,0.3,2,0.4,3c4.8-9,12.4-7.5,19.4-1.7c0-1.2,0-2.4,0-3.5c-1.7,2.1-3.4,4.7-5.8,6.1c-2.3,1.4-6.9,0-9.3-0.3
					c0.8,1.101,1.6,2.101,2.4,3.2c0.6-2.2,1.8-9.1,4.3-9.9c-0.6,0.2-0.2,0,0.2,0.7c0.5,0.9,0.8,2,0.9,3c1,9.9-11.5-0.399-14.1-2.6
					c0.1,1,0.3,2,0.4,3c1.3-1.9,3.3-5.601,6-5.7c2.8-0.1,6.3,2.5,8.7,3.7c-0.3-1.101-0.6-2.3-0.9-3.4c-1.1,2.5-2.3,5.101-4.1,7.2
					c-1.2,1.4-1.6,0.7-0.6,1.6c-1.1-0.898-0.6-5-0.2-6.8c0.7-2.899,2.2-6.1,5.2-7.1c5.3-1.7,11.2,5,14.3,8.3
					c0.2-1.3,0.3-2.6,0.5-3.9c-6.8,4.9-13.2,6.2-20.8,2.2c0.3,1.101,0.6,2.3,0.9,3.4c1.1-2.3,3.6-8.6,6.7-8.9
					c1.8-0.2,3.6,3.4,4.4,4.601c2.2,3.399,4.7,8.801,9.4,8.601c0-1.7,0-3.3,0-5c-3.2,0.3-6.2,1.3-9.2,2.399
					c-0.5,0.199-1.1,0.399-1.6,0.5c0,0,1.1,2.301,1.6,0.601c0.4-1.3,3.8-6.7,1.8-6.8c-0.7-1.301-1.4-2.5-2.2-3.8
					c-0.6,1.201-2.1,2.3-3,3.3c-0.8,0.8-1.6,1.6-2.4,2.3c-1.1,1.101-2,0.899-0.2,1.3c0.6,0.602,1.2,1.2,1.7,1.7
					c0-0.101,0-0.101,0-0.2c-1.6,0.4-3.2,0.9-4.8,1.301c0.4,1,0.8,2,2,2.301c1.3,0.3,2.8-0.4,3.1-1.7c0.5-2.3-0.3-5.101-0.4-7.5
					c0-0.5-0.1-1.101,0-1.7c-1,0.3-1.9,0.7-2.9,1c0.6,1.4,1.1,1.6,1.7,0.5c-0.6,0.4-1.9,0.2-2.5,0.2c-1.3,0-2.6,1.2-2.5,2.5l0,0
					c0.1,1,0.7,2.3,1.8,2.399c3.3,0.5,1.9,2.301-0.1,3.801c-3.4,2.6-7.8,2.398-11.4,0.398c0.4,0.9,0.8,1.9,1.1,2.801
					c1.5-4.301,4.8-9.699,10.1-8.899c5.9,0.899-0.1,4.6-2.5,5.5c1.1,0.8,2.1,1.6,3.2,2.399c-0.3-5.601,4.7-7.601,8.1-11.199
					C-341.5,159.6-345,156.1-347.2,158.4L-347.2,158.4z"/>
			</g>
		</g>
		<g>
			<g>
				<path d="M-355.9,137.7c-9.8-2.2-20.8-1.2-26.7,7.9c-5.1,7.8-3.8,17.8-0.1,25.8c4,8.5,11.3,14.5,19.7,18.3
					c8.5,3.8,18.7,6.1,25.7,10.1c0.8-6.1,1.6-12.2,2.4-18.3c-6.3,2.3-12,2.1-17.9-1.1c-5-2.7-9.2-8-9.8-13.801
					c-0.6-5.399-4.1-10-10-10c-5,0-10.6,4.6-10,10c1.5,12.899,7.8,23.301,18.7,30.5c9.9,6.5,23.3,7.899,34.3,3.699
					c7.8-2.898,10.4-13.699,2.4-18.3c-6.1-3.5-13-5.5-19.6-7.8c-2.9-1-5.7-2.102-8.4-3.4c-3.3-1.6-4.8-2.5-6.8-4.8
					c-0.5-0.5-0.9-1-1.3-1.5c0.5,0.7,0.5,0.601-0.2-0.399c-0.2-0.301-1.9-3.601-1.2-1.899c-0.5-1.2-0.8-2.4-1.1-3.6
					c-0.2-1.2-0.2-1.2,0,0c-0.1-0.9-0.1-1.7,0-2.6c-0.1,2.9,1-2.3-0.2,0.4c0.6-0.9,0.5-0.9-0.3,0.1c1.4-1.9-1.7,0.9,0.4-0.4
					c0.6-0.4,0.8-0.2,0.2-0.1c1.8-0.2,3.1,0.1,4.7,0.4C-348.7,159.9-343.4,140.6-355.9,137.7L-355.9,137.7z"/>
			</g>
		</g>
		<g>
			<g>
				<path d="M-340.7,127.8c-18.7-2.1-32.9,9.8-41.5,25.3c-6.2,11.3,11.1,21.4,17.3,10.1c5.6-10.1,12.2-16.8,24.2-15.4
					c5.4,0.6,10-5,10-10C-330.7,131.9-335.3,128.4-340.7,127.8L-340.7,127.8z"/>
			</g>
		</g>
		<g opacity="0.1">
			<g>
				<path d="M-64.7,192.1c-4.3-0.8-6.6-1.8-9.4-3.199c-4-2-7.8-4.601-11.4-7.301c-7.9-5.898-15.6-14.199-22.3-21.898
					c-6.7-7.7-12.8-16-18.4-24.5c-2.6-3.9-5-8-7.3-12.1c-1-1.8-2-3.7-2.9-5.6c-0.4-0.9-0.8-1.7-1.3-2.6c-0.3-0.6-0.5-1.1-0.8-1.7
					c0.4,1,0.4,1,0,0c-2.1-5-6.6-8.6-12.3-7c-4.8,1.3-9,7.2-7,12.3c8.3,20.4,21.5,38.7,35.7,55.3c13.3,15.5,31.1,33.602,52,37.7
					c5.3,1,10.8-1.399,12.3-7C-56.4,199.5-59.4,193.1-64.7,192.1L-64.7,192.1z"/>
			</g>
		</g>
		<g opacity="0.1">
			<g>
				<path d="M-61.7,177.3c-10.3-3.5-19.9-8.7-28-16c-7.5-6.9-13.2-14.8-18.9-23.1c-7.1-10.2-13.8-20.9-22.9-29.5
					c-9.3-8.6-20.2-14.3-31.8-19.1c-25.2-10.6-51.2-20-77.2-28.5c-26.9-8.9-54.6-14.7-83.1-15.6c-49.1-1.6-99.1-1.5-147.6,7.2
					c-44.3,8-88,26.1-115.3,63.4c-11.8,16.1-32.1,22.9-50.5,28c-22.2,6.1-44.8,10.4-65.8,20.2c-4.9,2.3-6.2,9.3-3.6,13.7
					c2.9,5,8.8,5.9,13.7,3.6c20.9-9.898,44.3-13.3,66.3-19.699c22.9-6.699,43.5-17.101,57.8-36.699c25.7-35,71.5-48.4,112.4-54.8
					c23.7-3.7,47.7-4.8,71.7-5.2c25.4-0.5,51.4-0.9,76.7,1.4c27.2,2.5,53.5,10.8,79.2,19.9c13.7,4.8,27.3,9.7,40.7,15.1
					c10.7,4.3,21.5,7.9,31.4,13.7c17.6,10.3,26.6,28.9,38.6,44.5c13.4,17.5,29.7,29.801,50.7,36.9
					C-54.8,200.7-49.6,181.4-61.7,177.3L-61.7,177.3z"/>
			</g>
		</g>
		<g opacity="0.1">
			<g>
				<path d="M-64.7,160.5c-18.5-5.2-34-17.1-49.1-28.6c-16.4-12.5-32.9-24.6-52.7-31c-12.3-4-17.5,15.3-5.3,19.3
					c18.4,6,33.9,18.3,49.1,29.9c16.2,12.4,32.8,24.1,52.7,29.7C-57.6,183.3-52.3,164-64.7,160.5L-64.7,160.5z"/>
			</g>
		</g>
		<g opacity="0.1">
			<g>
				<path d="M-53.5,158.1c-32.5-45.2-86.9-66-137.6-83.5c-5.2-1.8-10.9,2-12.3,7c-1.5,5.5,1.8,10.5,7,12.3
					c45.1,15.6,96.6,33.9,125.6,74.4c3.2,4.4,8.6,6.5,13.7,3.601C-52.7,169.2-50.3,162.5-53.5,158.1L-53.5,158.1z"/>
			</g>
		</g>
		<g opacity="0.1">
			<g>
				<path d="M-58.5,216.3c-12.4-1-24.9,2.8-36.6,6.3c-6,1.801-12,3.7-18.1,5.4c-6.5,1.8-13.1,2.8-19.7,4.4
					c-13.7,3.398-26.4,9.8-39.5,14.699c-8.7,3.199-17.8,5.5-26.7,8.199c-24.5,7.602-49.8,11.4-74.9,14.801
					c-25.3,3.399-51.1,8.801-76.7,5.801c-23.3-2.7-45.7-12.102-66.6-22.2C-463.1,231.3-505.2,201-554,185.1
					c-31.3-10.199-63.3-9.199-95.8-9.199c-12.9,0-12.9,20,0,20c15.3,0,30.6-0.5,45.9,0.199c14.3,0.7,28.1,3.2,41.8,7.4
					c23.5,7.1,45.5,18.7,67,30.5c43.5,24,87.4,53.2,137.5,61c26.3,4.1,52-0.7,78.1-4.1c17.3-2.301,34.6-4.5,51.7-7.602
					c10.2-1.898,20.2-4.398,30.2-7.398c6.9-2.102,13.7-4.301,20.6-6.2c13.7-3.8,26.4-10.3,39.7-15c6.9-2.4,13.8-3.8,21-5.2
					c6.9-1.4,13.7-3.6,20.4-5.7c12-3.7,24.7-8.5,37.4-7.5c5.4,0.4,10-4.899,10-10C-48.5,220.6-53.1,216.8-58.5,216.3L-58.5,216.3z"
					/>
			</g>
		</g>
		<g opacity="0.1">
			<g>
				<path d="M-544.8,168.6c-9.7-4.199-20.6-9.6-26.9-18.6c-5.9-8.4-3.4-18.2,4.5-25.7c7.7-7.3,19.4-10.1,29.3-13.3
					c12.1-3.9,23.7-8.3,33.8-16.2c4.3-3.4,3.5-10.6,0-14.1c-4.2-4.2-9.9-3.4-14.1,0c-9.6,7.6-22.8,10.3-34.2,14.1
					c-13.6,4.5-26.6,10.8-35.1,22.7c-8.8,12.5-9.9,28.4-2.1,41.6c7.6,12.7,21.6,21,34.8,26.8c5,2.199,10.7,1.5,13.7-3.602
					C-538.7,178-539.8,170.7-544.8,168.6L-544.8,168.6z"/>
			</g>
		</g>
		<g opacity="0.1">
			<g>
				<path d="M-455.1,67.2c-20.4,2.4-40,9.5-57.9,19.6c-18.1,10.2-34.8,24.5-43,43.9c-7.8,18.4-5.7,38.2,9.7,51.8
					c13.9,12.3,32.7,17.9,50,23.6c12.3,4.102,17.5-15.199,5.3-19.3c-13.5-4.5-29.2-9.2-39.5-17.2c-5.4-4.199-8.1-7.699-9.5-12.6
					c-0.9-3.1-0.8-5.2-0.4-9.3c0.3-2.6,1.9-7.4,3.2-10.5c6.4-14.9,20.6-25.4,34.3-33.3c7.8-4.5,16.1-8.2,24.6-11.1
					c7.3-2.5,16.6-4.9,23.2-5.7c5.4-0.6,10-4.1,10-10C-445.1,72.2-449.7,66.6-455.1,67.2L-455.1,67.2z"/>
			</g>
		</g>
		<g opacity="0.1">
			<g>
				<path d="M-463.8,207c-15.4-12.6-29-27.6-38.9-44.8c-9.5-16.4-15-36.3-5.1-53.6c6.4-11.2-10.4-20.9-17.3-10.1
					c-8.2,12.9-13.5,27.1-12.8,42.6c0.6,15.1,6.1,29.7,10.1,44.1c3.5,12.5,21.9,7.2,19.3-5.3c-3.7-17.4-13.4-33.602-13.7-51.7
					c-0.2-10.4-13.1-13.1-18.6-5c-8.5,12.3-11.2,26.5-13.3,41c6.1-0.8,12.2-1.601,18.3-2.4c-4.6-9.3-7.7-19-9.5-29.2
					c-0.8-4.3-5.5-7.3-9.6-7.3c-4.8,0-8,3.1-9.6,7.3c-3.5,8.8-7,17.5-10.5,26.3c6.5,0.9,13.1,1.8,19.6,2.7
					c-0.2-3.6-1.1-6.8-2.4-10.1c-0.8-2-2.8-6.2-2.8-7.4c-0.6-8.7-10.4-13.2-17.1-7.1c-3.8,3.5-12.5,7.6-17.5,12.3
					c5.7,2.4,11.4,4.7,17.1,7.1c-0.4-2.9-1.5-5.9-1.8-8.8c-0.6-8.6-10.4-13.3-17.1-7.1c-7.9,7.5-20.4,8.3-30.7,9.7
					c-5.4,0.8-8.3,7.6-7,12.3c1.6,5.8,6.9,7.8,12.3,7c14.3-2,28.6-4.6,39.5-14.9c-5.7-2.4-11.4-4.7-17.1-7.1
					c0.2,2.7,1.6,7.4,1.8,8.8c1.1,8.4,10.1,13.5,17.1,7.101c3.8-3.5,12.5-7.601,17.5-12.299c-5.7-2.4-11.4-4.7-17.1-7.1
					c0.2,3.6,1.1,6.8,2.4,10.1c0.8,2,2.8,6.2,2.8,7.4c0.8,11.7,15.5,13,19.6,2.7c3.5-8.8,7-17.5,10.5-26.3c-6.4,0-12.9,0-19.3,0
					c2.1,11.9,6.2,23.1,11.5,34c3.6,7.301,17.1,6.199,18.3-2.399c1.8-12.8,3.8-25.3,11.3-36.2c-6.2-1.7-12.4-3.4-18.6-5
					c0.3,20.2,10.3,37.7,14.4,57c6.4-1.8,12.9-3.5,19.3-5.3c-3.3-11.8-7.9-24.1-9.2-36.2c-1.3-13,3-24.2,9.9-35.1
					c-5.8-3.4-11.5-6.7-17.3-10.1c-25.3,44.3,13.8,95.299,47.2,122.6c4.2,3.398,10,4.1,14.1,0C-460.2,217.5-459.6,210.4-463.8,207
					L-463.8,207z"/>
			</g>
		</g>
		<g opacity="0.1">
			<g>
				<path d="M-114.2,177.2c-0.1,14.3-4.7,31.1-17.9,38.7c-11.1,6.5-1.1,23.8,10.1,17.3c19.3-11.3,27.5-34.601,27.8-56
					C-94.1,164.3-114.1,164.3-114.2,177.2L-114.2,177.2z"/>
			</g>
		</g>
		<g opacity="0.1">
			<g>
				<path d="M-142.3,159.6c0.1,19.7,3.9,44.102-11.1,59.602c-9,9.3,5.2,23.398,14.1,14.1c19.5-20.199,17-47.898,17-73.699
					C-122.3,146.8-142.3,146.8-142.3,159.6L-142.3,159.6z"/>
			</g>
		</g>
		<g opacity="0.1">
			<g>
				<path d="M-136.7,120.2c15.7,48-4.4,119.6-59.7,129.8c-5.4,1-8.3,7.4-7,12.3c1.5,5.601,6.9,8,12.3,7
					c66.1-12.2,92.5-96.899,73.7-154.4C-121.4,102.7-140.7,107.9-136.7,120.2L-136.7,120.2z"/>
			</g>
		</g>
		<g opacity="0.1">
			<g>
				<path d="M-81.4,225.1c-23.5-1.5-46.5-7.5-70-2.3c-11.5,2.5-22.4,8.2-33,13.101c-10.2,4.699-20.4,9-31.2,12
					c-49.6,13.5-102.8,7.199-153.5,7.101c-12.9,0-12.9,20,0,20c51.8,0.101,104.4,5.101,155.3-6.899
					c11.8-2.801,22.9-7.301,33.9-12.301c10.1-4.5,19.9-9.699,30.6-12.8c22-6.399,45.7,0.8,67.9,2.2
					C-68.5,245.9-68.6,225.9-81.4,225.1L-81.4,225.1z"/>
			</g>
		</g>
		<path fill="none" stroke="#000000" stroke-miterlimit="10" d="M-83.2,553.8c-23.5-24.1-27.1-41.1-62.2-48.2
			c-42.1-8.5-69.5-5.5-112.8-8.398c-49.8-3.3-84.2-10.9-128.5-4.9c-18.9,2.5-23.1,2.4-74.6,9.2c-17.1,2.2-34.9-11-50.2-2.1
			c-33.2,19.3-28.5-26.5-56.8-9.102C-592.2,505-603.2,478.4-630,489c-15.2,6-30.7,10.6-46.1,15.3c-11.3,3.4-31.9,4.8-40.4,10.602"/>
		<path fill="none" stroke="#000000" stroke-miterlimit="10" d="M-70.9,534c-31.8-11-43.4-23.5-59.3-52.2
			c-13-23.5-1.7,31.102-27.4,19.7c-37.3-16.6-91.1,1.9-131.2-2.2c-42.7-4.398-62.3-4.898-114.6,0
			c-39.5,3.7-26.7,10.602-102.2,10.602c-34.1,0-56.5-26-87.5-12.7c-19.6,8.398-55.1,46.2-142.8,14"/>
		<path fill="none" stroke="#000000" stroke-miterlimit="10" d="M-675.9,507.7c16.5-1.3,55-17.3,73.4-17.5
			c20.3-0.2,41.6,17.1,61.4,19.898c46.6,6.7,58.2-16.198,99.5,6.5c29.1,15.9,59,32.102,91.7,36.7c28.8,4.102,60.5,1.9,89.4-0.8
			c70.4-6.6,136.6-60.5,207.1-36.4"/>
		<path fill="none" stroke="#000000" stroke-miterlimit="10" d="M-83.2,560.3c-6.6-2.898-24-9.6-26.4-17.1c-5.4-16.3,15-11,26.4-11"
			/>
		<path fill="none" stroke="#000000" stroke-miterlimit="10" d="M-406.2,529.7c-40.4-0.4-36.9-3.3-33.1-13.7
			c4.6-12.6,37-11.5,76.1-12.3c43.1-0.9,149.4,3.398,111.8,13.6c-34.4,9.3-47.3,6.8-81.5,8.9C-357.2,527.7-382.1,529.4-406.2,529.7"
			/>
		<path fill="none" stroke="#000000" stroke-miterlimit="10" d="M-83.3,572c-35.8-23.6-41.3-54.2-84.9-60.8
			c-22.5-3.4-69.6,1.898-118.6,6.6c-82.5,8-211.3,25.3-283.1-7.7c-6.2-2.8,50.3,39.802,44.5,37.802"/>
		<path fill="none" stroke="#000000" stroke-miterlimit="10" d="M-549.8,542.8c-19.7-36.7-87.6-18.3-119.3-19.3"/>
		<path fill="none" stroke="#000000" stroke-miterlimit="10" d="M-168.3,499.3c-19.3-30.2-2.7-52.1-7-57.898"/>
		<path fill="none" stroke="#000000" stroke-miterlimit="10" d="M-182,493.5c-16.1-4.7-33.6,28.1-43.1,14.7"/>
		<path fill="none" stroke="#000000" stroke-miterlimit="10" d="M-301.3,507.8c7.8,5.102,15.5-49.6,25-49.3"/>
		<path fill="none" stroke="#000000" stroke-miterlimit="10" d="M-326.8,513c-5-11.7-6.9-23.3-5.4-36.2"/>
		<path fill="none" stroke="#000000" stroke-miterlimit="10" d="M-354.1,505.5c-12.4-5.5-34.9-15.2-29-32.6"/>
		<path fill="none" stroke="#000000" stroke-miterlimit="10" d="M-413.4,498.6c-10-4-18.4-12.5-21.5-22.6"/>
		<path fill="none" stroke="#000000" stroke-miterlimit="10" d="M-447.9,504.2c-10.7-2.8-29.2-11.8-33.9-22.7"/>
		<path fill="none" stroke="#000000" stroke-miterlimit="10" d="M-502.6,510.2c6.4,5.3,28.4-40.4,20.6-47.9"/>
		<path fill="none" stroke="#000000" stroke-miterlimit="10" d="M-568.3,468.9c4.1,5.8,11.7,10,18.1,15.1"/>
		<path fill="none" stroke="#000000" stroke-miterlimit="10" d="M-574,492.8c-9.5-2-20.7-2.5-24-12.898"/>
		<path fill="none" stroke="#000000" stroke-miterlimit="10" d="M-608.7,502.6c-9.1-3-16.4-9.1-21.1-17.6"/>
		<path fill="none" stroke="#000000" stroke-miterlimit="10" d="M-294.8,487.5c12.4,5.4,18.2-42.5,20.3-28.7"/>
		<path fill="none" stroke="#000000" stroke-miterlimit="10" d="M-301.8,511.3c-6.2-12.3-10.8-23.398-12.3-37.2"/>
		<path fill="none" stroke="#000000" stroke-miterlimit="10" d="M-263.3,490.3c1.2,13.5-0.8-35.5,5.1-22"/>
		<path fill="none" stroke="#000000" stroke-miterlimit="10" d="M-230.6,474c-0.2-10-4.1,37.6-7.9,28.7"/>
		<path fill="none" stroke="#000000" stroke-miterlimit="10" d="M-318.7,537c-13,2.5-23.6,9.5-30.3,21"/>
		<path fill="none" stroke="#000000" stroke-miterlimit="10" d="M-461.2,535.7c12.2-2,26.9-7.4,38.7-2.9"/>
		<path fill="none" stroke="#000000" stroke-miterlimit="10" d="M-466.7,513.5c-16.5,2.7-35.6,4.8-49.3,13.5"/>
		<path fill="none" stroke="#000000" stroke-miterlimit="10" d="M-516.5,544.6c-12.8,2.802-19.8,5.4-29.8,14"/>
		<path fill="none" stroke="#000000" stroke-miterlimit="10" d="M-623.5,535.8c10-10.898,27.5-20.1,42.1-19.3"/>
		<g>
			<g>
				<path d="M-357.8,491.8c-7.8-0.8-18.1-0.8-23.8,5.602c-5.8,6.6-4,15.898,2.3,21.398c12.2,10.602,30.3,9.2,45.1,13.2
					c0-6.4,0-12.9,0-19.3c-6.2,1.1-12.7,0.7-18.8-0.602c-2.7-0.6-4.9-1.3-7.2-2.5c-0.6-0.398-1.3-0.698-1.9-1.1
					c0.7,0.5,0.6,0.4-0.3-0.3c-1.7-1.602,0.6,2.1,0.1,0.1c-3.2-12.5-22.5-7.2-19.3,5.3c2.4,9.2,11,13.9,19.3,16.802
					c10.6,3.698,22.4,3.6,33.3,1.698c10.1-1.698,9-16.898,0-19.3c-10.8-2.898-22.1-3.2-32.8-6.5c-0.3-0.1-3.1-1.3-1-0.3
					c-1.1-0.5-2.1-1.1-3.1-1.7c1.7,1.102-0.1-0.1-0.5-0.5c0.8,1.102,0.9,1.3,0.3,0.4c0.5,1.5,0.7,1.8,0.4,0.8
					c0.7,2.5,0.1,4.5-1.5,6.3c-1.2,0.9-1.4,1-0.4,0.4c-1.2,0.5-1.2,0.5,0,0.1c1.9-0.5,6.4-0.2,9.6,0.102c5.4,0.6,10-5,10-10
					C-347.8,495.9-352.4,492.3-357.8,491.8L-357.8,491.8z"/>
			</g>
		</g>
		<g>
			<g>
				<path d="M-338.3,508.9c-10.8-1.4-22-2.5-32.7-0.102c-12.6,2.8-7.2,22.102,5.3,19.3c0.5-0.1,1-0.198,1.4-0.3
					c2.6-0.5-2.3,0.2,0.7-0.1c2.1-0.2,4.3-0.3,6.4-0.3c6.3,0,12.6,0.698,18.8,1.5c5.4,0.698,10-5.102,10-10
					C-328.3,512.9-332.9,509.6-338.3,508.9L-338.3,508.9z"/>
			</g>
		</g>
		<g opacity="0.1">
			<g>
				<path d="M-53.8,571.8c-4.3-0.8-6.6-1.8-9.4-3.2c-4-2-7.8-4.6-11.4-7.3c-7.9-5.898-15.6-14.2-22.3-21.898
					c-6.7-7.7-12.8-16-18.4-24.5c-2.6-3.9-5-8-7.3-12.102c-1-1.8-2-3.7-2.9-5.6c-0.4-0.9-0.8-1.7-1.3-2.602
					c-0.3-0.6-0.5-1.1-0.8-1.698c0.4,1,0.4,1,0,0c-2.1-5-6.6-8.602-12.3-7c-4.8,1.3-9,7.198-7,12.3c8.3,20.398,21.5,38.7,35.7,55.3
					c13.3,15.5,31.1,33.6,52,37.7c5.3,1,10.8-1.4,12.3-7C-45.5,579.1-48.5,572.8-53.8,571.8L-53.8,571.8z"/>
			</g>
		</g>
		<g opacity="0.1">
			<g>
				<path d="M-46.2,595.9c-10.3-3.5-19.9-8.7-28-16C-81.7,573-87.4,565.1-93.1,556.8c-7.1-10.2-13.8-20.898-22.9-29.5
					c-9.3-8.6-20.2-14.3-31.8-19.1c-11.8-5-24-10.3-36.3-13.602c-12.4-3.3-25.5-4.3-38.2-3.398c-24.7,1.8-48.4,10-73.2,11.8
					c-4.1,0.3-8.2,0.4-12.3,0.4c-12.9,0.1-12.9,19.698,0,20c1,0,2.5,0.3-1.9-0.302c0.6,0.102-3.6-2.1-4-2.398
					c-5.3-4.2-3.1-10.7-0.1-13.9c-0.7,0.7,2.7-2,1.8-1.398c-0.2,0.1-0.4,0.198-0.6,0.3c4.5-2-1.1,0.2-2.7,0.7
					c-6.7,1.898-13.5,3.398-20.3,4.898c-23,5-46.2,9.102-69.5,12.602c-3.3,0.5-6.6,1-9.8,1.398c-1.7,0.2-3.3,0.5-5,0.7
					c-2.8,0.4,2.1-0.3-0.7,0.1c-1.1,0.102-2.2,0.302-3.3,0.4c-7,0.9-14,1.7-21.1,2.5c-13.8,1.5-27.6,2.6-41.4,3.3
					c-12.5,0.602-24.9,0.7-37.4,0c-2.7-0.1-5.3-0.398-8-0.6c-1.3-0.102-2.5-0.3-3.8-0.4c-0.6-0.1-1.2-0.1-1.8-0.2
					c-1.9-0.198,2.5,0.4-0.3-0.1c-4.6-0.7-9.1-1.6-13.5-2.8c-1.1-0.3-2.2-0.7-3.3-1c-0.9-0.3-5-2-1.5-0.5c-1.9-0.8-3.8-1.8-5.5-2.9
					c-0.3-0.2-0.6-0.398-1-0.7c-1.9-1.3,1.7,1.4,0.5,0.4c-0.7-0.6-1.4-1.3-2.1-2c-2.2-2.3,1.1,1.8-0.3-0.4
					c-0.6-0.898-1.9-4-0.4-0.198c-0.3-0.7-0.5-1.4-0.7-2.2c-0.8-3.102,0.1,2.3-0.1-0.4c-0.1-1,0-1.898,0.1-2.898
					c-0.4,4.1,0,0.3,0.3-0.802c0.3-1,0.6-1.898,0.9-2.898c0.6-1.602-1.2,2.6-0.1,0.2c0.3-0.602,0.6-1.2,0.9-1.802
					c1.4-2.698,3-5.198,4.8-7.6c3.2-4.4,0.8-11.1-3.6-13.7c-5.1-3-10.4-0.8-13.7,3.602c-11.5,15.398-32.8,14.6-50.9,14.3
					c-23-0.5-46.1-1.5-67.5,8.5c-4.9,2.3-6.1,9.3-3.6,13.7c2.9,5,8.7,5.898,13.7,3.6c20.1-9.3,44-5.7,65.4-5.6
					c10.8,0,21.8-0.7,32.2-3.9c11.6-3.6,20.8-10.7,28-20.3c-5.8-3.4-11.5-6.7-17.3-10.102c-5.3,7.4-9.8,16.2-9.7,25.5
					c0.1,9.302,5.2,16.4,12.3,21.802c6.6,5,15.3,7.5,23.4,9.198c11.1,2.302,22.5,3.2,33.8,3.5c26.8,0.802,53.8-1.5,80.4-4.6
					c27-3.1,53.8-7.3,80.5-12.3c14.1-2.7,28.3-5.5,42.2-9.102c3.7-1,7.5-2,10.9-3.698c5.1-2.602,6.9-9.302,4.1-14.2
					c-2.1-3.602-5.9-5.102-9.9-5.2c0,6.7,0,13.3,0,20c26.3-0.1,51.2-7.3,77-11.3c11-1.7,22.5-1.9,33.5,0
					c13.1,2.3,25.3,7.898,37.6,12.7c10.1,3.898,20.1,8.5,28.4,15.6c8.9,7.7,15,17.9,21.7,27.5c6.2,8.9,12.6,17.7,20.4,25.2
					c8.7,8.398,19.1,14.7,30.3,19.2c2.5,1,5,1.898,7.5,2.8C-39.3,619.4-34.1,600-46.2,595.9L-46.2,595.9z"/>
			</g>
		</g>
		<g opacity="0.1">
			<g>
				<path d="M-70,531.3c-41.4-11.2-84-17.1-126.5-22.398c-18-2.2-36.1-4.302-54.1-6.9c-13.6-2-27.3-4.1-40.5-8.2
					c-12.3-3.898-17.6,15.4-5.3,19.3c12.7,4,26,6.102,39.2,8c18.6,2.802,37.3,4.9,56,7.2c42.3,5.2,84.7,11.102,125.9,22.2
					C-62.8,554-57.5,534.7-70,531.3L-70,531.3z"/>
			</g>
		</g>
		<g opacity="0.1">
			<g>
				<path d="M-105.3,548c-17.7-24.5-46.3-35.9-74.5-43.5c-27.8-7.5-56.9-10.9-84.2-20.2c-12.2-4.2-17.4,15.102-5.3,19.3
					c26.1,8.9,53.7,12.4,80.3,19.2c24.1,6.102,51.9,15.3,66.4,35.4c3.2,4.398,8.6,6.5,13.7,3.6C-104.6,559.1-102.1,552.4-105.3,548
					L-105.3,548z"/>
			</g>
		</g>
		<g opacity="0.1">
			<g>
				<path d="M-141.1,482.6c-3.1-0.3-6.3-0.5-9.2,1.2c-6.5,3.9-6.7,14,0.2,17.5c4.2,2.2,9.1,3,13.6,4.7c2.5,0.9-1.8-1,0.9,0.4
					c0.7,0.398,2,1.398-0.7-0.7c0.1,0.1,0.2,0.1,0.2,0.2c-3.1-3.302-3.1-7.5,0.1-12.5c0.2-0.2,4.1-2.2,2.6-1.7
					c-0.6,0.2-1.3,0.398-2,0.5c-3.7,0.8-7.4,1.398-11,2.3c-13.6,3.6-26.3,10.1-39.5,14.9c-8.3,3-17.1,5.5-25.8,7.198
					c-1.3,0.302-2.6,0.5-3.9,0.7c-2.3,0.4,2.4-0.3,0.1,0c-0.6,0.102-1.2,0.102-1.8,0.2c-2.6,0.3-5.2,0.4-7.8,0.4
					c-12,0.198-24.1-1.2-36.1-1.4c-23-0.4-46,1.5-68.8,4.4c-27.7,3.398-54.8,2.8-82.1-3c-26-5.5-51-14.7-75.9-23.7
					c-13-4.7-26-9.4-39.1-13.7s-26.5-8.9-40-11.4c-32.5-6.1-63.8,13.2-95.2,13.602c-12.9,0.1-12.9,20.1,0,20
					c23.5-0.2,46.3-9.602,69.3-13.5c11.3-1.9,20.3-1.102,30.9,1.7c13.8,3.698,27.4,8,41,12.698C-470,521.2-419.9,542.7-364.9,543.4
					c27.4,0.398,54.6-5.302,82-6.5c15.2-0.602,30.3-0.102,45.5,0.8c11.2,0.6,22.2,0.3,33.3-2.102c9.7-2.1,19.4-5.1,28.6-8.6
					c13.2-5,25.9-11.2,39.7-14.3c5.7-1.3,12.6-1.602,15.9-7.3c3.6-6.102,0.5-12.5-5-15.9c-3.2-2-7.1-3.1-10.6-4.2
					c-1.4-0.398-2.8-0.8-4.1-1.3c-0.5-0.2-1-0.3-1.5-0.5c-0.2-0.1-0.4-0.1-0.6-0.2c1.4,0.5,2.7,1,3.7,2.2c0.9,3.2,1.7,6.5,2.6,9.7
					l0,0c-1.5,2-3.1,4-4.6,6c-3.7,2.2-6.4,1.2-3.8,1.3c1,0,1.9,0.1,2.9,0.2c5.4,0.5,10-4.9,10-10
					C-131.1,486.8-135.7,483.1-141.1,482.6L-141.1,482.6z"/>
			</g>
		</g>
		<g opacity="0.1">
			<g>
				<path d="M-500.7,516.9c-10.1-4.302-21.2-8-30.2-14.302c2.1,1.5,0.5,0.4,0.1-0.1c1,1.4,1.2,1.7,0.7,0.9c1,1.8,1.3,3.8,0.7,5.898
					c-0.5,1.9-1.6,3.4-3.2,4.4c0.9-0.5,0.7-0.4-0.7,0.1c1.1-0.5,2.3-0.7,3.5-1c7.9-1.898,16.4-1.7,24.4-2.398
					c9.6-0.9,19.1-2.102,28.5-4.102c0.9-0.2,1.8-0.398,2.8-0.6c3.3-0.7-1.2,0.1,0.3-0.102c0.9-0.1,1.8-0.1,2.7,0
					c0.5,0,1.1,0.102,1.6,0.102c1.6,0.2-2.9-0.4-0.3,0c5.4,0.8,10.7-1.3,12.3-7c1.3-4.8-1.6-11.4-7-12.3c-6.5-1-11.8-0.7-18.2,0.6
					c-12.9,2.7-24.3,3.5-38.5,4.5c-6.9,0.5-16.1,0.8-22,5c-6.8,4.9-7.8,13.3-2.2,19.6c3.7,4.102,9.2,6.7,14.1,9
					c6.7,3.2,13.6,6,20.5,8.9c5,2.1,10.7,1.5,13.7-3.6C-494.6,526.3-495.7,519-500.7,516.9L-500.7,516.9z"/>
			</g>
		</g>
		<g opacity="0.1">
			<g>
				<path d="M-376.3,477.8c-25.8,3-50.9,10.2-74,22.3c-13.2,6.9-31,17.4-35.7,32.602c-2.2,7.2,1.1,14.6,7.5,18.3
					c5.4,3.1,12.1,3.2,18.1,3.6c2.7,0.2,6,0.602,8.7-0.3c8.3-2.8,10.6-15,1.8-19c-6.6-3.1-14.1-4.3-21.2-5.898
					c-11.4-2.5-22.8-4.802-34.2-7c-11.5-2.2-22.9-4.302-34.5-6.102c-7.2-1.2-14.8-3-22.2-2.8c-7.7,0.2-14.1,8.1-9.6,15.4
					c2.2,3.5,5.8,4.898,9.6,6.198c12.3,4.102,17.5-15.198,5.3-19.3c-0.6-0.2-1.1-0.398-1.7-0.6c-1.7-0.7,2.8,1.3,1.1,0.5
					c-0.1-0.102-0.2-0.102-0.3-0.2c5,3.1,10.6,12.6-2.5,17.8c1-0.398-3.6,0.3-1.7,0.3c2.5-0.1,5.1,0.4,7.6,0.7
					c1.8,0.2-2.8-0.398-0.9-0.1c0.5,0.1,0.9,0.1,1.4,0.2c1,0.1,2,0.3,3,0.398c2.5,0.4,4.9,0.8,7.4,1.2c5.6,0.9,11.1,1.9,16.6,2.9
					c21.3,3.8,42.8,7.6,63.7,13.198c1.1,0.302,2.3,0.602,3.4,1c2.4,0.7,1.1,0.4-0.2-0.198c-3.1-1.5-9.1-10.802,0.4-16.7
					c2.5-1.5,3-1.102,2-0.9c3.7-0.8,3-0.398,2.1-0.3s-1.9,0-2.8,0c-1.6-0.1-3.2-0.2-4.8-0.4c-1-0.1-1.9-0.198-2.9-0.3
					c-0.6-0.1-1.3-0.1-1.9-0.2c2.7,0.302,0.5,0-0.1-0.1c-0.4-0.1-0.8-0.2-1.2-0.3c-2-0.602,2.1,1.1,0.4,0.2
					c-0.8-0.4-1.9-1.5,0.5,0.5c-0.7-0.602-1.2-1.802,0.5,0.8c-0.5-0.9-0.3-0.4,0.5,1.3c-0.6-1.6,0.2,2.8,0.1,1.1
					c-0.1-1.698-0.5,2.802-0.2,1c0.1-0.5,0.3-0.898,0.4-1.398c-1.1,3.2,0,0.2,0.5-0.602c0.3-0.5,0.7-1.1,1.1-1.6
					c-1.6,2.2-0.1,0.2,0.2-0.2c2-2.3,4.4-4.398,6.8-6.398c0.9-0.7,1-0.802,0.3-0.2c0.8-0.602,1.6-1.2,2.5-1.8
					c1.8-1.302,3.6-2.5,5.5-3.602c3.8-2.398,7.7-4.6,11.7-6.6c19-9.8,40.4-15.9,61.6-18.4c5.4-0.6,10-4.1,10-10
					C-366.3,482.9-370.9,477.2-376.3,477.8L-376.3,477.8z"/>
			</g>
		</g>
		<g opacity="0.1">
			<g>
				<path d="M-417.5,524.2c-14.2-9.2-30.7-10.9-47.1-12.3c-1.5-0.102-3-0.302-4.5-0.4c-1.2-0.1-1.1-0.1,0.2,0
					c-0.8-0.1-1.5-0.2-2.3-0.4c-1.1-0.198-2.2-0.5-3.2-0.898c1.5,0.7,1.7,0.8,0.8,0.3c-1.7-0.9,1.8,1.6,0.4,0.4
					c1.4,1.3,1.3,1.8,1.5,3.6c0-1,0-0.7-0.2,0.9c0.1-0.7,0.3-1.4,0.5-2c0.4-1,0.4-1-0.1,0c0.4-0.9,0.9-1.802,1.4-2.7
					c1.2-2.2,2.7-4.4,4.2-6.4c6.6-9.2-8.6-20.898-15.7-12.1c-2.1,2.6-4.3,5.1-6.9,7.3c0.7-0.6-1.7,1-2.1,1.2
					c-1.7,0.898,1.5-0.4-1.1,0.3c2.8-0.7,0.9-0.1-0.1-0.2c3.1,0.102,1.6,0.2,0.6-0.1c-0.5-0.2,2.6,1.1,0.3,0.1
					c-7.9-3.398-17.8,2.3-14.8,11.8c1.3,4.102,3.1,8.102,4.5,12.102c4.1,12.1,22.6,7.3,19.3-5.3c-1.2-4.802-3-10.4-7.1-13.602
					c-0.9-0.7-1.8-1.398-2.7-2c1.9,1.2,1,0.3,2.1,2.102c1.8,2.8,0.2-0.5,0.4,1.398c-0.3-2-0.2-4-0.2-6c-0.1-8.5-11-13.5-17.1-7.1
					c0.8-0.8-2,1.6-0.7,1.1c-0.8,0.3-1.4,0.102-0.5,0.2c-2.1-0.4-4.2-1.3-6.3-1.6c-8.1-1.2-14.5,3.1-16.3,11.1
					c6.1-0.8,12.2-1.6,18.3-2.4c-1.4-2.198-2.9-4.698-5-6.398c-1.8-1.5-2.5-2-4.8-2.8c-0.9-0.301-6.3-1.2-0.8-0.102
					c1.5,0.9,2.9,1.7,4.4,2.602c1.9,4.1,2.6,5.1,2.1,3.199c-0.3-1.101-0.5-2.301-0.7-3.5c-1.8-8.699-14.2-9.5-18.3-2.399
					c0.8-0.7,1.7-1.3,2.8-1.7c0.6-0.2,3.3,0.2,1.2-0.2c-2.4-0.5-4.6-1.1-7-1.2c-6.1-0.398-11.3,2.7-14.3,7.9
					c6.2,1.7,12.4,3.4,18.6,5c-0.3-3.7-1.2-6.4-2.7-9.8c-0.6-1.3-1.3-2.602-1.9-3.8c0,0-1.3-3.602-1.2-2.2
					c-0.6-6.602-8.4-13.7-15-8.602c-5.9,4.5-13.4,6.602-19.3,11.102c4.9,2,9.8,4,14.7,6c-0.3-1.8-1.4-3.5-1.6-5.3
					c-0.8-9.2-10-12.602-17.1-7.102c-8.4,6.5-21.5,7-31.6,8.2c-5.4,0.601-10,4.101-10,10c0,5,4.6,10.601,10,10
					c16.3-1.899,32.4-3.7,45.7-14c-5.7-2.399-11.4-4.7-17.1-7.1c0.3,3.698,1.7,7,2.3,10.6c0.9,6,9.9,9.7,14.7,6
					c5.9-4.5,13.4-6.6,19.3-11.1c-5-2.9-10-5.802-15-8.602c0.3,3.7,1.2,6.4,2.7,9.8c0.6,1.302,1.3,2.602,1.9,3.802
					c0,0,1.3,3.6,1.2,2.198c0.8,9.5,13.3,14.2,18.6,5c-0.8,0.7-1.7,1.302-2.8,1.7c-0.6,0.2-3.3-0.2-1.2,0.2c2.4,0.5,4.6,1.1,7,1.2
					c6.1,0.398,11.3-2.7,14.3-7.9c-6.1-0.8-12.2-1.6-18.3-2.398c0.6,3.1,1.1,7,3.8,9.1c2.2,1.8,4.3,2.9,7.2,3
					c-4.6-0.1-6.9-4.399-4.2-0.2c4.4,6.9,16.4,6.5,18.3-2.398c0.1-0.4,0.2-0.7,0.2-1.102c-1,2.5-3.2,3.9-6.5,4.2
					c-2.2,0.2-1.1-0.2,0.1,0.101c2.6,0.699,5,1.399,7.8,1.699c6.6,0.7,12.6-2.3,17.1-7c-5.7-2.398-11.4-4.699-17.1-7.1
					c0.1,6.398,0.4,12.3,4.6,17.398c0.6,0.7,2.5,2,2.6,2.102c1.9,1.3-1.7-1.5-0.3-0.2c1.5,1.3-1.2-2,0,0.3
					c-0.4-0.699,0.9,3.102,1.1,3.9c6.4-1.8,12.9-3.5,19.3-5.3c-1.1-3.102-2.2-6.2-3.4-9.2c-0.3-0.7-0.5-1.4-0.8-2
					c-1.1-2.7,0.9-0.3-0.4,3.898c-1.5,2-3.1,4-4.6,6l0,0c-1.7,0.5-3.4,0.9-5,1.4c-4-0.1-6.3-2-4-0.9c1.2,0.602,2.4,1.102,3.6,1.5
					c2.1,0.802,4.7,1,6.9,0.7c9.4-1.2,16.4-7.2,22.1-14.398c-5.2-4-10.5-8.102-15.7-12.102c-5.1,7.2-9.6,14.9-8.1,24
					c1.2,7.2,9,11.102,15.4,12.3c17.3,3.302,33,1.102,48.2,10.9C-416.7,548.5-406.7,531.2-417.5,524.2L-417.5,524.2z"/>
			</g>
		</g>
		<g opacity="0.1">
			<g>
				<path d="M-132.3,507.2c12.9,0,12.9-20,0-20C-145.2,487.2-145.2,507.2-132.3,507.2L-132.3,507.2z"/>
			</g>
		</g>
		<g opacity="0.1">
			<g>
				<path d="M-81.4,562.6c-3-0.198,1.9,0.4-0.9-0.1c-0.8-0.2-1.6-0.4-2.4-0.6c-2.5-0.802,1.8,0.898-0.5-0.2
					c-0.7-0.3-1.3-0.8-1.9-1.2c2.1,1.4-1.1-1.2-1.7-1.9c-1.7-1.898,1.2,1.7-0.2-0.3c-0.6-0.8-1.1-1.7-1.6-2.5
					c-3.4-5.7-5.4-12.1-8.5-17.898c-3.5-6.802-8.9-13-15.9-16.302c-10.1-4.8-19.8-2.698-30.4-2.898c-13.2-0.2-26.3-3.3-39.5-4
					c-6.6-0.3-13.3,0.2-19.8,1.5c-1.2,0.2-2.3,0.5-3.5,0.8c-0.9,0.2-4.7,0.7-0.9,0.2c-10.6,1.3-21.5,0.7-32.1,0
					c-69-4.3-137.2-17.9-206.4-21c-19.4-0.9-39-1-58.2,2.2c-12.6,2.1-27.5,6.6-34.2,18.5c-6.4,11.198,10.9,21.3,17.3,10.1
					c0.5-0.8,2.2-3.2-0.1-0.2c0.5-0.6,1.1-1.2,1.6-1.8c0.3-0.3,0.6-0.6,0.9-0.8c1.3-1.102-2.1,1.6-0.7,0.5
					c0.9-0.602,1.8-1.2,2.7-1.7c0.8-0.5,1.7-0.9,2.6-1.3c2.2-1-2.1,0.8,1-0.4c2.3-0.898,4.8-1.6,7.2-2.2c2.5-0.6,5.1-1.1,7.6-1.5
					c0.7-0.1,1.4-0.198,2.1-0.3c2.4-0.398-2.3,0.3,0.2,0c1.7-0.2,3.4-0.398,5.2-0.6c6.8-0.602,13.7-0.9,20.5-0.9
					c34.5-0.398,69.1,3.5,103.4,7.5c35,4,70,8.9,105,12.3c13.2,1.302,26.4,2.4,39.7,2.5c12.6,0.102,24.8-3.5,37.3-3.198
					c16.1,0.3,31.9,5.198,48,3.898c3.2-0.3,6.3-0.6,9.5-0.398c1.3,0.1,1.4,0.1,0.3,0c0.6,0.1,1.2,0.198,1.8,0.398
					c0.4,0.102,3.9,1.3,1.7,0.4c1,0.398,1.9,1,2.8,1.6c1.4,0.9-1-1,1,0.8c0.8,0.7,1.4,1.5,2.1,2.2c-1.7-1.898,0.4,0.7,0.7,1.102
					c4.5,6.8,6.7,14.898,10.9,22c5.8,9.8,14.9,15.3,26.1,16.1c5.4,0.4,10-4.9,10-10C-71.4,566.9-76,563-81.4,562.6L-81.4,562.6z"/>
			</g>
		</g>
		<path fill="none" stroke="#000000" stroke-miterlimit="10" d="M687.7,553.8c-23.5-24.1-24.6-56.5-59.602-63.6
			C586,481.7,546.7,461.1,505.3,448.1c-43.1-13.5-93.4-31.198-137.7-25.198c-18.9,2.5-7.4,9.3-57,25
			c-16.5,5.198-40.8,8.898-56.1,17.8c-33.2,19.3-23.4,7.1-51.8,24.6C178.8,505,167.8,478.4,141,489c-15.2,6-30.7,10.6-46.1,15.3
			c-11.3,3.4-31.9,4.8-40.4,10.602"/>
		<path fill="none" stroke="#000000" stroke-miterlimit="10" d="M700,534c-31.8-11-43.4-23.5-59.3-52.2
			c-13-23.5-1.7,31.102-27.4,19.7C576,484.9,514.9,465.3,474.9,461.2c-42.7-4.4-73.501-26.8-125.7-21.9c-39.5,3.7-41.3,7-105.4,32.3
			C212.1,484.1,208.9,484,178,497.2c-19.6,8.398-55.1,46.2-142.8,14"/>
		<path fill="none" stroke="#000000" stroke-miterlimit="10" d="M95,507.7c16.5-1.3,55-17.3,73.4-17.5
			c20.3-0.2,41.6,17.1,61.4,19.898c46.6,6.7,58.2-16.198,99.5,6.5c29.1,15.9,59,32.102,91.7,36.7c28.8,4.102,60.5,1.9,89.4-0.8
			C580.8,545.9,647,492,717.5,516.1"/>
		<path fill="none" stroke="#000000" stroke-miterlimit="10" d="M687.7,560.3c-6.6-2.898-24-9.6-26.4-17.1c-5.4-16.3,15-11,26.4-11"
			/>
		<path fill="none" stroke="#000000" stroke-miterlimit="10" d="M362.6,534c-40.8-4.9-36-14.1-27.7-48.4
			c10.1-41.5,42.5-35,82.6-34.3c44.2,0.7,150.1,24.5,107.6,54.9c-38.898,27.8-51,18.5-86.5,22.6C413.2,531.7,387.2,535.4,362.6,534"
			/>
		<path fill="none" stroke="#000000" stroke-miterlimit="10" d="M421.7,525.5c-19.5,0.9-46.2-9.3-36-35
			c7.5-19.1,39.1-21.6,57.1-17.1c14.102,3.5,41.5,30,28.9,47.8c-9.5,13.398-51.5,4.1-65.6,2.2"/>
		<path fill="none" stroke="#000000" stroke-miterlimit="10" d="M698.2,574c-35.8-23.6-41.3-54.2-84.9-60.8
			c-22.5-3.4-69.6,1.898-118.6,6.6c-82.5,8-211.3,25.3-283.1-7.7c-6.2-2.8,50.3,39.802,44.5,37.802"/>
		<path fill="none" stroke="#000000" stroke-miterlimit="10" d="M221.1,542.8c-19.7-36.7-87.6-18.3-119.3-19.3"/>
		<path fill="none" stroke="#000000" stroke-miterlimit="10" d="M602.6,499.3c-19.3-30.2-2.698-52.1-7-57.898"/>
		<path fill="none" stroke="#000000" stroke-miterlimit="10" d="M588.9,493.5c-16.102-4.7-33.602-31.9-43.102-45.3"/>
		<path fill="none" stroke="#000000" stroke-miterlimit="10" d="M469.6,447.8c7.802,5.102,15.5,10.4,25,10.7"/>
		<path fill="none" stroke="#000000" stroke-miterlimit="10" d="M444.1,453c-5-11.7-6.898-23.3-5.398-36.2"/>
		<path fill="none" stroke="#000000" stroke-miterlimit="10" d="M416.8,445.5c-12.4-5.5-34.9-15.2-29-32.6"/>
		<path fill="none" stroke="#000000" stroke-miterlimit="10" d="M357.5,438.6c-10-4-18.4-12.5-21.5-22.6"/>
		<path fill="none" stroke="#000000" stroke-miterlimit="10" d="M323,444.2c-10.7-2.8-29.2-11.8-33.9-22.7"/>
		<path fill="none" stroke="#000000" stroke-miterlimit="10" d="M268.3,450.2c6.4,5.3,28.4,19.6,20.6,12.1"/>
		<path fill="none" stroke="#000000" stroke-miterlimit="10" d="M202.6,468.9c4.1,5.8,11.7,10,18.1,15.1"/>
		<path fill="none" stroke="#000000" stroke-miterlimit="10" d="M196.9,492.8c-9.5-2-20.7-2.5-24-12.898"/>
		<path fill="none" stroke="#000000" stroke-miterlimit="10" d="M162.2,502.6c-9.1-3-16.4-9.1-21.1-17.6"/>
		<path fill="none" stroke="#000000" stroke-miterlimit="10" d="M476.1,427.5c12.4,5.4,18.2,17.5,20.302,31.3"/>
		<path fill="none" stroke="#000000" stroke-miterlimit="10" d="M469.1,451.3c-6.198-12.3-10.8-23.398-12.3-37.2"/>
		<path fill="none" stroke="#000000" stroke-miterlimit="10" d="M507.6,430.3c1.2,13.5-0.8,24.5,5.102,38"/>
		<path fill="none" stroke="#000000" stroke-miterlimit="10" d="M540.3,474c-0.2-10-4.1-22.4-7.898-31.3"/>
		<path fill="none" stroke="#000000" stroke-miterlimit="10" d="M452.2,537c-13,2.5-23.602,9.5-30.3,21"/>
		<path fill="none" stroke="#000000" stroke-miterlimit="10" d="M309.7,535.7c12.2-2,26.9-7.4,38.7-2.9"/>
		<path fill="none" stroke="#000000" stroke-miterlimit="10" d="M304.2,513.5c-16.5,2.7-35.6,4.8-49.3,13.5"/>
		<path fill="none" stroke="#000000" stroke-miterlimit="10" d="M254.4,544.6c-12.8,2.802-19.8,5.4-29.8,14"/>
		<path fill="none" stroke="#000000" stroke-miterlimit="10" d="M147.4,535.8c10-10.898,27.5-20.1,42.1-19.3"/>
		<g>
			<g>
				<path d="M423.6,495.9c-4.6,4.8-9.999,7.198-9.6,14.698c0.101,1.5,1.601,3,3.2,2.4c3.6-1.3,7.2-3.1,8.7-6.9
					c1.1-2.898-1-5.8-3.4-7.198c-8.601-5.2-16.601,4.1-19.101,11.3c-0.299,1,0.201,2.3,1.101,2.8c6.3,3.4,13.899,2.7,19-2.6
					c4-4.2,2.2-10-3.601-10.802c0.601,0.802,1.199,1.602,1.801,2.4l0,0c-0.801,0.8-1.7,1.7-2.5,2.5c6.8,0.3,9.7-5.6,3.5-10
					c-6.5-4.7-4.1,10.4-4.2,11.1c1-0.6,2-1.198,3.1-1.698c0.5,0.398,1,0.8,1.5,1.198c-1.1-3-5.398-1.898-4.8,1.302
					c0,0.1,0,0.1,0,0.198c0.1,0.802,1,1.602,1.7,1.7c3.6,0.602,9.8-6.2,11.2-9.2c0.8-1.698-0.2-3.698-2.2-3.8
					c-3.3-0.1-4.7,5.9-5.7,8.2c-0.898,2.1-1.8,4.4-0.7,6.5c2.102,4.1,11-1.2,13.9-1.4c3.2-0.3,3.3-5.1,0-5c-1.8,0-3.5-3.6-4.3-4.898
					c-1.5-2.4-3-5.102-5.3-6.8c-7.001-5.302-12.602,4.898-15.102,10c-0.6,1.198-0.399,2.8,0.9,3.398c9.1,4.8,17.6,3.8,25.8-2.2
					c1.3-1,1.7-2.698,0.5-3.898c-4.7-5.102-11.5-11.5-19.102-9.602C414.8,490.9,412,496.4,411,501.1c-0.7,3.4-1.101,9.7,2.7,11.5
					c5.699,2.7,9.8-6.898,11.5-10.6c0.5-1.2,0.398-2.8-0.9-3.4c-3.6-1.8-7.699-4.6-11.9-4.398c-4.398,0.2-7.398,4.898-9.6,8.1
					c-0.6,0.9-0.4,2.3,0.4,3c4.4,3.9,11.199,10.102,17.699,8.2c4.301-1.3,5.399-6.3,4.801-10.1c-0.5-3.4-2.3-7.302-6.2-7.602
					c-5.8-0.398-8,9.7-8.899,13.5c-0.399,1.7,0.799,2.9,2.399,3.2c3.5,0.5,7.2,1.3,10.6,0.1c3.5-1.1,5.802-4.8,8-7.5
					c0.802-1,1.102-2.6,0-3.5c-9.398-7.8-20.8-9.3-27.2,2.7c-0.5,1-0.398,2.2,0.4,3c4.801,4.602,14.301,10.7,18.9,2.3
					c3-5.6,0.1-13.6-5.7-15.898c-6.7-2.8-20.7,1.6-19.3,10.6c1.4,8.8,12.699,14.102,20.699,14.3c1,0,2.199-0.8,2.399-1.8
					c0.7-3.5,2.4-6.7,3.102-10.2c0.6-2.8-3-4.3-4.602-1.898c-1.5,2.3-4.1,5.2-3.899,8.1c0.201,2.7,2.801,5.3,3.5,7.9
					c0.601,1.898,3.601,2.6,4.601,0.6c1.8-3.8,3.3-7.898,5.1-11.7c1.102-2.398-2-5.398-3.898-3c-3.102,3.7-4.7,7.9-7.2,12
					c-1.102,1.802,0.398,3.5,2.2,3.802c11.398,1.398,21.2-1.2,25.1-12.9c0.9-2.8-3.1-4.3-4.6-1.9c-7.2,11.9-26.7,18.9-39.2,11.302
					c-7.102-4.302-8.398-15.2-4.898-22.2c4.398-8.5,15.5-11.2,24.3-11.3c9.198,0,16.5,3.698,22.8,10.198c3.3,3.5,6.398,7.9,6.1,12.9
					c-0.6,8.9-13.7,12.4-20.6,13.7c-10.301,1.898-22.4,1.1-31.6-4.3c-9.802-5.802-11.5-19.2-4-27.802c6-6.898,16.198-9.8,25-11.198
					c8.8-1.4,18.6-1,25.898,4.6c9.3,7.2,12.7,18.101,3.9,27.101c-7.9,8.101-21,10.399-31.7,8.199
					c-9.302-1.898-24.4-9.199-18.5-20.898c4.8-9.602,17.198-14.7,27.3-15.5c14.1-1.102,25.1,7.3,30.1,20.199
					c2.801,7.301,5,16.801-4.3,20c-8,2.801-17.7,0.801-25.7-0.899c-3.199-0.7-4.199,3.6-1.3,4.8c13.5,5.6,32.7,2.4,41.7-10
					c9.2-12.7,0-27-11.9-33.8c-12.198-7-27.6-9.8-41.498-9.2c-11.9,0.601-25.4,5.2-28.302,18.2c-0.6,2.8,3,4.3,4.601,1.899
					c17.801-26.399,53.001-6.5,68.899,11.5c4,4.5,14.3,17.699,6.8,23.399c-1.8,1.3-4,1.9-6.1,2.2c-5.7,1-11.9,0.5-17.6,0.5
					c-11.802,0-23.7-0.602-35.2-3.102c-7.4-1.6-17.101-4.198-20.9-11.5c-4.3-8,4.4-18.198,9.2-23.6c-1.398-0.8-2.8-1.6-4.2-2.4
					C382.3,526,426.9,540.7,454,530.2c-0.6-1.5-1.3-3-1.9-4.602c-10.5,5.2-21.398,6.4-32.6,2.7c-10.5-3.398-19.601-10.8-27.8-17.898
					c-2.2-1.9-5.1,0.5-3.9,3c6.1,13.898,21.2,16.199,34.602,18c0.398-1.602,0.898-3.2,1.3-4.801c-7.601-1-15.2-2.101-22.4-4.801
					c-0.399,1.602-0.899,3.2-1.3,4.801c2.898,0.601,5.3,2.399,8.102,3.301c2.698,0.898,4.5-3.301,1.898-4.602
					c-0.5-0.199-0.898-0.5-1.398-0.699c-2.9-1.399-5.4,2.899-2.5,4.301c0.5,0.199,0.898,0.398,1.398,0.699
					c0.602-1.5,1.3-3,1.898-4.601c1,0.4-0.6-0.3-0.6-0.3c-1-0.5-2-0.9-3-1.3c-1.5-0.602-2.9-1.4-4.5-1.7c-3.199-0.7-4.3,3.7-1.3,4.8
					c7.2,2.7,14.8,3.8,22.4,4.8c3.198,0.4,4.5-4.398,1.3-4.8c-12.1-1.6-26.1-3.1-31.6-15.7c-1.302,1-2.602,2-3.9,3
					c9.4,8.2,19.4,15.801,31.3,19.7c11.8,3.9,24.1,1.7,35.1-3.7c2.5-1.199,0.7-5.6-1.898-4.6c-23.102,9-64.7-1.7-57.5-33.4
					c0.5-2.3-2.4-4.398-4.2-2.398c-9.398,10.6-17.9,25.898-3.8,36.398c6.698,5,15.698,6.801,23.698,8.102
					c11.7,1.898,23.602,2.199,35.4,2.1c9.7-0.1,26,0.602,26.3-13c0.2-10.5-9-20.6-16.1-27.2c-19.1-18-53.3-31.6-71.399-4.898
					c1.5,0.6,3,1.3,4.601,1.898c2.399-10.8,13.8-13.898,23.5-14.5c11.8-0.8,24.3,1.7,35,6.5c10.2,4.5,22.1,15.5,15.2,27.302
					c-7,12-25.5,14.1-37.2,9.3c-0.4,1.6-0.9,3.2-1.3,4.8c12.6,2.7,37.398,6.5,38.898-12.3c0.602-8.3-4.1-18.3-9.3-24.7
					c-4.4-5.4-10.1-9.2-16.8-11c-12-3.3-26.1,0.5-35.7,8.2c-7.899,6.3-13.399,17.1-6.101,26c11.201,13.7,33.801,14.5,48.601,7.2
					c7.3-3.602,14.3-10.7,14.9-19.302c0.698-9.898-6.302-17.698-13.9-23.1c-6.5-4.601-16-4.7-23.5-4.101
					c-8.899,0.801-18,3.399-25.5,8.301c-10.3,6.6-15.2,20.5-9.399,31.699C391.8,522.2,403,525.9,412.5,527.1
					c10.6,1.301,22,0.101,31.6-4.699c7.802-3.9,13.4-11.4,10.602-20.301C450.4,488.4,435.2,480.3,421.6,480
					c-10.898-0.3-22.898,4-28.6,13.7c-4.899,8.3-2.899,20.899,4.3,27.2c13.9,12.398,39.7,3,48.4-11.4c-1.5-0.6-3-1.3-4.602-1.899
					c-3.198,9.601-11.398,10.399-20.3,9.301c0.7,1.3,1.4,2.5,2.2,3.8c2.3-3.7,3.7-7.6,6.5-11c-1.3-1-2.6-2-3.9-3
					c-1.8,3.8-3.3,7.9-5.1,11.7c1.5,0.2,3,0.398,4.6,0.6c-0.6-2.2-1.398-4.3-2.698-6.2c-0.602-0.898-0.802-0.5-0.4-1.398
					c0.8-1.602,1.9-3.2,3-4.7c-1.5-0.602-3-1.3-4.601-1.9c-0.699,3.5-2.399,6.7-3.101,10.2c0.802-0.6,1.601-1.2,2.4-1.8
					c-5.601-0.101-11.7-3.101-14.802-7.8c-4.1-6.102,7.4-8.9,11.5-7.602c3.302,1,4.302,5.5,3.5,8.4c-1.6,5.7-9.299-1.2-11.198-3
					c0.1,1,0.3,2,0.399,3c4.799-9,12.399-7.5,19.399-1.7c0-1.2,0-2.399,0-3.5c-1.7,2.101-3.4,4.7-5.8,6.101
					c-2.301,1.399-6.9,0-9.301-0.301c0.801,1.102,1.601,2.102,2.399,3.2c0.601-2.2,1.802-9.1,4.302-9.899
					c-0.602,0.199-0.201,0,0.198,0.699c0.5,0.9,0.8,2,0.9,3c1,9.9-11.501-0.398-14.101-2.6c0.1,1,0.299,2,0.399,3
					c1.3-1.9,3.3-5.601,6-5.7c2.8-0.1,6.3,2.5,8.7,3.7c-0.301-1.101-0.602-2.3-0.9-3.4c-1.1,2.5-2.3,5.102-4.1,7.2
					c-1.2,1.4-1.601,0.7-0.601,1.602c-1.101-0.9-0.601-5-0.2-6.802c0.7-2.898,2.2-6.1,5.199-7.1c5.301-1.7,11.2,5,14.301,8.3
					c0.199-1.3,0.301-2.6,0.5-3.898c-6.801,4.898-13.199,6.198-20.8,2.198c0.3,1.102,0.601,2.302,0.899,3.4
					c1.101-2.3,3.601-8.6,6.7-8.9c1.8-0.198,3.6,3.4,4.398,4.602c2.2,3.398,4.7,8.8,9.4,8.6c0-1.7,0-3.3,0-5
					c-3.2,0.3-6.2,1.3-9.2,2.4c-0.5,0.2-1.1,0.398-1.6,0.5c0,0,1.1,2.3,1.6,0.6c0.4-1.3,3.8-6.7,1.8-6.8c-0.7-1.3-1.398-2.5-2.2-3.8
					c-0.6,1.2-2.1,2.3-3,3.3c-0.8,0.8-1.6,1.6-2.398,2.3c-1.102,1.102-2,0.9-0.2,1.3c0.6,0.602,1.2,1.2,1.7,1.7c0-0.1,0-0.1,0-0.2
					c-1.602,0.4-3.2,0.9-4.801,1.302c0.4,1,0.801,2,2,2.3c1.301,0.3,2.801-0.4,3.101-1.7c0.5-2.3-0.3-5.1-0.399-7.5
					c0-0.5-0.101-1.1,0-1.7c-1,0.3-1.899,0.7-2.899,1c0.6,1.4,1.1,1.602,1.7,0.5c-0.602,0.4-1.9,0.2-2.5,0.2
					c-1.301,0-2.601,1.2-2.5,2.5l0,0c0.1,1,0.699,2.2,1.8,2.4c3.3,0.5,1.899,2.3-0.101,3.8c-3.399,2.6-7.8,2.398-11.399,0.398
					c0.399,0.9,0.8,1.9,1.101,2.802c1.5-4.302,4.799-9.7,10.101-8.9c5.898,0.9-0.101,4.6-2.5,5.5c1.1,0.8,2.1,1.6,3.198,2.4
					c-0.299-5.602,4.7-7.602,8.102-11.2C429.4,497.1,425.8,493.6,423.6,495.9L423.6,495.9z"/>
			</g>
		</g>
		<g>
			<g>
				<path d="M415.8,467.8c-9.8-2.2-20.8-1.2-26.699,7.9C384,483.5,385.3,493.5,389,501.5c4,8.5,11.3,14.5,19.7,18.3
					c8.5,3.8,18.7,6.102,25.7,10.102c0.8-6.102,1.6-12.2,2.398-18.302c-6.3,2.302-12,2.102-17.899-1.1c-5-2.7-9.199-8-9.799-13.8
					c-0.602-5.4-4.102-10-10-10c-5,0-10.602,4.6-10,10c1.5,12.898,7.799,23.3,18.698,30.5c9.9,6.5,23.3,7.898,34.3,3.7
					c7.802-2.9,10.4-13.7,2.4-18.302c-6.1-3.5-13-5.5-19.6-7.8c-2.9-1-5.7-2.1-8.4-3.398c-3.3-1.602-4.8-2.5-6.8-4.802
					c-0.5-0.5-0.9-1-1.302-1.5c0.5,0.7,0.5,0.602-0.198-0.398c-0.2-0.3-1.9-3.602-1.2-1.9c-0.5-1.2-0.8-2.398-1.102-3.6
					c-0.198-1.2-0.198-1.2,0,0c-0.1-0.9-0.1-1.7,0-2.602c-0.1,2.9,1-2.3-0.198,0.4c0.6-0.9,0.5-0.9-0.302,0.1
					c1.4-1.898-1.698,0.9,0.4-0.398c0.6-0.4,0.801-0.2,0.2-0.102c1.8-0.198,3.101,0.102,4.7,0.4C423,489.9,428.3,470.6,415.8,467.8
					L415.8,467.8z"/>
			</g>
		</g>
		<g>
			<g>
				<path d="M430.2,465.3c-18.7-2.1-32.9,9.8-41.5,25.3C382.5,501.9,399.8,512,406,500.7c5.601-10.102,12.2-16.8,24.2-15.4
					c5.398,0.602,10-5,10-10C440.2,469.4,435.6,466,430.2,465.3L430.2,465.3z"/>
			</g>
		</g>
		<g opacity="0.1">
			<g>
				<path d="M717.1,571.8c-4.3-0.8-6.6-1.8-9.398-3.2c-4-2-7.802-4.6-11.4-7.3c-7.899-5.898-15.6-14.2-22.3-21.898
					c-6.7-7.7-12.8-16-18.4-24.5c-2.6-3.9-5-8-7.3-12.102c-1-1.8-2-3.7-2.899-5.6c-0.399-0.9-0.801-1.7-1.301-2.602
					c-0.3-0.6-0.5-1.1-0.8-1.698c0.4,1,0.4,1,0,0c-2.1-5-6.6-8.602-12.3-7c-4.8,1.3-9,7.198-7,12.3c8.3,20.398,21.5,38.7,35.7,55.3
					c13.3,15.5,31.1,33.6,52,37.7c5.3,1,10.8-1.4,12.3-7C725.4,579.1,722.4,572.8,717.1,571.8L717.1,571.8z"/>
			</g>
		</g>
		<g opacity="0.1">
			<g>
				<path d="M721.1,579.7c-10.3-3.5-19.898-8.7-28-16c-7.5-6.9-13.2-14.8-18.898-23.102c-7.102-10.198-13.802-20.898-22.9-29.5
					c-9.3-8.6-20.2-14.3-31.8-19.1c-25.2-10.6-51.2-20-77.2-28.5c-26.899-8.9-54.6-14.7-83.1-15.6
					c-24.301-0.802-48.2-2.802-72.302-5.802c-23.798-3-47.6-6.398-71.6-7.8c-41.4-2.6-88.6,1.102-117.8,34.4
					c-3.6,4.1-6.4,8.6-10.4,12.3c-2.9,2.7-7.2,5-10.6,6.2c-10,3.6-19.9,3.6-30.6,3.6c-24.8-0.2-49.7-2.398-72.8,8.4
					c-4.9,2.3-6.1,9.3-3.6,13.7c2.9,5,8.7,5.898,13.7,3.6c38.4-17.9,92.9,11.5,123.2-26.8c5.9-7.4,12.3-14.7,19.9-19.8
					c8.1-5.5,15.7-8.5,25-11.2c20.2-5.7,41.5-5.602,62.7-4.5c48,2.7,95.3,12.8,143.5,13.7c27.899,0.5,54.8,6.8,81.1,15.398
					c25.5,8.4,51.102,17.5,75.8,28.102c10.302,4.398,19.4,10.1,27.2,18.198c7.7,8.102,13.4,18.4,19.9,27.4
					c6.3,8.8,13.1,17.2,21.399,24.1c9.801,8.2,21,13.802,33.101,17.9C728,603.2,733.2,583.8,721.1,579.7L721.1,579.7z"/>
			</g>
		</g>
		<g opacity="0.1">
			<g>
				<path d="M700.9,531.3c-43.7-12-84.802-31.8-125.2-52c-18-9-35.9-18.3-53.9-27.2c-13.6-6.698-27.5-13.6-42-18.3
					c-12.3-4-17.5,15.3-5.3,19.3c6,1.9,11.3,4.2,15.7,6.102c7.6,3.398,15.2,7,22.6,10.7c18.602,9.198,37,18.8,55.5,28
					c41,20.5,82.9,40.398,127.2,52.6C708,554,713.3,534.7,700.9,531.3L700.9,531.3z"/>
			</g>
		</g>
		<g opacity="0.1">
			<g>
				<path d="M665.5,548c-32.5-45.2-86.9-66-137.6-83.5c-5.2-1.8-10.9,2-12.302,7c-1.5,5.5,1.802,10.5,7,12.3
					C567.7,499.4,619.2,517.7,648.2,558.2c3.2,4.398,8.6,6.5,13.7,3.6C666.3,559.1,668.7,552.4,665.5,548L665.5,548z"/>
			</g>
		</g>
		<g opacity="0.1">
			<g>
				<path d="M638.6,487.2c-3.1-0.3-6.3-0.5-9.198,1.2c-6.5,3.898-6.7,14,0.198,17.5c4.2,2.198,9.102,3,13.602,4.698
					c2.5,0.9-1.8-1,0.898,0.4c0.7,0.4,2,1.4-0.698-0.7c0.1,0.102,0.198,0.102,0.198,0.2c-3.1-3.3-3.1-7.5,0.102-12.5
					c0.2-0.2,4.1-2.2,2.6-1.7c-0.6,0.2-1.3,0.4-2,0.5c-3.7,0.8-7.399,1.4-11,2.3C619.7,502.7,607,509.2,593.8,514
					c-8.399,3-17.2,5.2-25.7,7.9c-5,1.5-9.898,3-15,4.3c-11.3,3-22.8,4.898-34.3,6.7c-22.399,3.398-44.6,6.1-67.2,9
					c-26.1,3.398-51.499,0.898-76.8-6.2c-50.6-14.3-95.9-42.7-146.3-57.9c-9.3-2.8-18.6-5.3-28.4-5.3c-9.7,0-19.4,1.8-28.8,3.8
					c-17.8,3.8-36.2,10.7-54,10.9c-12.9,0.1-12.9,20.1,0,20c23.5-0.2,46.3-9.602,69.3-13.5c11.1-1.9,20.1-1.2,30.4,1.6
					c13,3.5,25.8,8.102,38.3,13c48,19,93.7,46.2,145.7,53.3c13.5,1.802,26.899,2.4,40.5,1.4c14.2-1.1,28.399-3.5,42.6-5.3
					c18-2.4,36-4.602,53.9-7.8c10.3-1.802,20.4-4.302,30.4-7.302c5.8-1.698,11.5-3.6,17.3-5.398c6.7-2.102,13.3-3.8,19.898-6.4
					c6.802-2.6,13.5-5.6,20.302-8.2c4.698-1.8,9.6-3.398,14.5-4.698c3.898-1,7.999-1.302,11.8-2.602c8.398-2.898,11.898-12,5.6-19.1
					c-2.9-3.3-8-4.7-12-6.102c-1.8-0.6-3.6-1.1-5.399-1.698c-0.699-0.2-1.301-0.4-2-0.602c-0.199-0.1-0.399-0.1-0.601-0.2
					c1.4,0.5,2.7,1,3.7,2.2c0.9,3.2,1.7,6.5,2.6,9.7l0,0c-1.5,2-3.1,4-4.6,6c-3.7,2.2-6.4,1.2-3.8,1.3c1,0,1.898,0.102,2.898,0.2
					c5.4,0.5,10-4.9,10-10C648.6,491.3,644,487.7,638.6,487.2L638.6,487.2z"/>
			</g>
		</g>
		<g opacity="0.1">
			<g>
				<path d="M270.2,516.9c-0.8-0.4-4.1-2.7-2-1c-0.5-0.4-1-1-1.5-1.5c-1.7-1.802,1.2,1.8-0.2-0.2c-0.9-1.2-1.6-2.602-2.2-3.9
					c-1.2-2.398,0.7,2-0.2-0.6c-0.4-1-0.7-2.102-1.1-3.102c-1-3.3-1.7-6.8-2.3-10.198c-0.2-0.9-0.3-1.802-0.4-2.7
					c-0.4-3,0.3,2.1-0.1-0.9c-0.3-2-0.5-4.1-0.7-6.1c-1.1-10.5-0.2-33.102-15.8-33c-4,0-7.1,2-10,4.6c-1,0.8-1.8,1.8-2.6,2.8
					c-0.6,0.7-3.2,4.102-1.5,1.9c-0.6,0.8-1.2,1.5-1.8,2.3c-3.9,5.102-7.5,9.7-6.4,16.5c1.5,9.102,11.9,8.4,18,5.602
					c4.2-1.9,8-4.7,11.8-7.302c11-7.398,21.6-15.198,32.6-22.5c4.8-3.198,9.6-6.3,14.6-9.1c1-0.6,2.1-1.1,3.1-1.6
					c2.9-1.5-1.3,0.398,0.8-0.4c0.7-0.3,1.5-0.5,2.2-0.7c0.8-0.2-3.1-0.1-0.7,0.2c5.4,0.7,10-5,10-10c0-6-4.6-9.3-10-10
					c-4.7-0.6-9.9,2.3-13.9,4.3c-5.4,2.8-10.5,6.102-15.5,9.5c-11.7,7.7-22.9,16-34.5,23.8c-2.1,1.4-4.2,2.802-6.3,4.102
					c-0.8,0.5-1.7,1-2.6,1.5s-4.2,1.898-0.3,0.3c-1.1,0.5-3,0.5,1.1,0.1c5.2-0.5,10.2,6.9,8.9,11.4c-0.2,0.6-1.3,2.5-0.1,0.4
					c0.6-1,1.3-2,2-2.9c1.3-1.8-1.4,1.8,0.1-0.1c0.5-0.602,1-1.2,1.5-1.9s1-1.3,1.6-2c-0.7,0.9-0.8,1-0.1,0.2c0.4-0.5,0.9-1,1.3-1.5
					c2.2-2.3-1,0.398,0.5-0.5c-3,1.7-7.1,1-9-1c-2-2.102-1.3-1.8-0.8-0.9c-1.5-2.8-0.7-1.7-0.4-0.8c0.3,1,0.5,2,0.7,3.1
					c0.1,0.602,0.2,1.2,0.3,1.802c0.4,2.3-0.3-2.4,0,0c0.2,1.698,0.4,3.5,0.6,5.198c1.7,17.602,2.3,45.5,21.3,54.2
					c5,2.3,10.7,1.5,13.7-3.6C276.3,526.2,275.1,519.1,270.2,516.9L270.2,516.9z"/>
			</g>
		</g>
		<g opacity="0.1">
			<g>
				<path d="M315.8,404.7c-20.4,2.398-40,9.5-57.9,19.6c-18.1,10.2-34.8,24.5-43,43.9c-7.8,18.398-5.7,38.2,9.7,51.8
					c13.9,12.3,32.7,17.9,50,23.6c12.3,4.102,17.5-15.198,5.3-19.3c-13.5-4.5-29.2-9.2-39.5-17.2c-5.4-4.198-8.1-7.698-9.5-12.6
					c-0.9-3.1-0.8-5.2-0.4-9.3c0.3-2.602,1.9-7.4,3.2-10.5c6.4-14.9,20.6-25.4,34.3-33.3c7.8-4.5,16.1-8.2,24.6-11.102
					c7.3-2.5,16.6-4.898,23.2-5.7c5.4-0.6,10-4.1,10-10C325.8,409.8,321.2,404.1,315.8,404.7L315.8,404.7z"/>
			</g>
		</g>
		<g opacity="0.1">
			<g>
				<path d="M353.4,524.2c-16.7-11-35.3-20.2-50.7-32.602c-3.6-2.898-7-6-10.1-9.398c-1.8-2-1.8-2-3-3.7c-0.6-0.8-1.1-1.7-1.6-2.5
					c-0.2-0.3-1.9-3.7-1.1-1.9c-1.8-4.398-1.8-4.6-1.5-9c-0.2,2.2,0.2-0.8,0.3-1.1c0.2-1,0.6-1.9,0.9-2.8c-0.6,1.7,0.8-1.5,0.8-1.5
					c0.7-1.4,1.6-2.602,2.5-3.9c6.5-9.3-8.8-21.1-15.7-12.1c-9.3,12.1-16.3,25.3-15.6,40.898c0.7,14,6.6,27.102,11.1,40.102
					c4.1,12.1,22.5,7.3,19.3-5.3c-4-15.602-14.8-30-15.1-46.5c-0.2-8.102-11.2-14.102-17.1-7.102c-9.7,11.602-13.6,24.7-16.1,39.3
					c6.1-0.8,12.2-1.6,18.3-2.398c-4.9-8.3-8.6-16.7-10.6-26.2c-1.8-8.2-14.5-10.1-18.3-2.4c-3.9,7.9-7.7,15.9-11.6,23.802
					c6.2,1.698,12.4,3.398,18.6,5c-0.3-3.7-1.2-6.4-2.7-9.802c-0.6-1.3-1.3-2.6-1.9-3.8c0,0-1.3-3.6-1.2-2.2
					c-0.6-6.6-8.4-13.698-15-8.6c-5.9,4.5-13.4,6.6-19.3,11.1c4.9,2,9.8,4,14.7,6c-0.3-1.8-1.4-3.5-1.6-5.3
					c-0.8-9.2-10-12.6-17.1-7.1c-8.4,6.5-21.5,7-31.6,8.2c-5.4,0.6-10,4.1-10,10c0,5,4.6,10.6,10,10c16.3-1.9,32.4-3.7,45.7-14
					c-5.7-2.4-11.4-4.7-17.1-7.102c0.3,3.7,1.7,7,2.3,10.602c0.9,6,9.9,9.698,14.7,6c5.9-4.5,13.4-6.602,19.3-11.102
					c-5-2.898-10-5.8-15-8.6c0.3,3.7,1.2,6.398,2.7,9.8c0.6,1.3,1.3,2.6,1.9,3.8c0,0,1.3,3.602,1.2,2.2c0.4,4.5,2.8,8.4,7.3,9.6
					c4.1,1.102,9.3-0.6,11.3-4.6c3.9-7.9,7.7-15.9,11.6-23.8c-6.1-0.8-12.2-1.602-18.3-2.4c2.4,11,6.9,21.3,12.6,30.9
					c4.1,6.898,16.7,6.5,18.3-2.4c1.9-10.8,3.7-21.898,11-30.5c-5.7-2.398-11.4-4.7-17.1-7.1c0.4,18.898,11.2,34.1,15.8,51.8
					c6.4-1.8,12.9-3.5,19.3-5.3c-3.5-10.4-8.9-22.2-10.2-32.4c-1.4-10.898,2.7-20.398,9.5-29.2c-5.2-4-10.5-8.1-15.7-12.1
					c-31.4,44.9,42.3,77.1,70.6,95.8C354.1,548.6,364.1,531.3,353.4,524.2L353.4,524.2z"/>
			</g>
		</g>
		<g opacity="0.1">
			<g>
				<path d="M638.6,507.2c12.9,0,12.9-20,0-20C625.7,487.2,625.7,507.2,638.6,507.2L638.6,507.2z"/>
			</g>
		</g>
		<g opacity="0.1">
			<g>
				<path d="M689.5,562.6c-3-0.198,1.9,0.4-0.9-0.1c-0.8-0.2-1.6-0.4-2.398-0.6c-2.5-0.802,1.8,0.898-0.5-0.2
					c-0.7-0.3-1.302-0.8-1.9-1.2c2.101,1.4-1.1-1.2-1.7-1.9c-1.699-1.898,1.2,1.7-0.199-0.3c-0.601-0.8-1.101-1.7-1.601-2.5
					c-3.399-5.7-5.399-12.1-8.5-17.898c-3.5-6.802-8.899-13-15.899-16.302c-10.101-4.8-19.801-2.698-30.399-2.898
					c-13.2-0.2-26.3-3.3-39.5-4c-6.601-0.3-13.3,0.2-19.8,1.5c-1.2,0.2-2.301,0.5-3.5,0.8c-0.9,0.2-4.7,0.7-0.9,0.2
					c-10.6,1.3-21.5,0.7-32.1,0c-69-4.3-137.2-17.9-206.4-21c-19.4-0.9-39-1-58.2,2.2c-12.6,2.1-27.5,6.6-34.2,18.5
					c-6.4,11.198,10.9,21.3,17.3,10.1c0.5-0.8,2.2-3.2-0.1-0.2c0.5-0.6,1.1-1.2,1.6-1.8c0.3-0.3,0.6-0.6,0.9-0.8
					c1.3-1.102-2.1,1.6-0.7,0.5c0.9-0.602,1.8-1.2,2.7-1.7c0.8-0.5,1.7-0.9,2.6-1.3c2.2-1-2.1,0.8,1-0.4c2.3-0.898,4.8-1.6,7.2-2.2
					c2.5-0.6,5.1-1.1,7.6-1.5c0.7-0.1,1.4-0.198,2.1-0.3c2.4-0.398-2.3,0.3,0.2,0c1.7-0.2,3.4-0.398,5.2-0.6
					c6.8-0.602,13.7-0.9,20.5-0.9c34.5-0.398,69.1,3.5,103.399,7.5c35,4,70,8.9,105,12.3c13.199,1.302,26.399,2.4,39.699,2.5
					c12.602,0.102,24.801-3.5,37.301-3.198c16.101,0.3,31.899,5.198,48,3.898c3.199-0.3,6.301-0.6,9.5-0.398
					c1.301,0.1,1.399,0.1,0.301,0c0.6,0.1,1.199,0.198,1.8,0.398c0.399,0.102,3.899,1.3,1.7,0.4c1,0.398,1.898,1,2.8,1.6
					c1.399,0.9-1-1,1,0.8c0.8,0.7,1.399,1.5,2.101,2.2c-1.7-1.898,0.399,0.7,0.699,1.102c4.5,6.8,6.7,14.898,10.9,22
					c5.8,9.8,14.898,15.3,26.1,16.1c5.4,0.4,10-4.9,10-10C699.5,566.9,694.9,563,689.5,562.6L689.5,562.6z"/>
			</g>
		</g>
		<path fill="none" stroke="#000000" stroke-miterlimit="10" d="M691.327,172.288c-14.201,12.8-16.9,0.6-28.201,4.1
			c-45.299,14-27.699-18.6-42.899-24.6c-34.601-13.7-44.5,8.399-71.601-8.2c-17.799-10.9-15.699-5.3-40.1-19.5
			c-15.3-8.9-30.9-11.5-47.4-16.7c-25.899-8.2-43.799-26.5-71.5-30.2c-44.299-5.9-87.6-20-130.699-6.5
			c-41.4,13-72.601,31.5-114.7,40c-2.2,0.5-160.4,116.3-83.2,37.1"/>
		<path fill="none" stroke="#000000" stroke-miterlimit="10" d="M720.026,190.688c-99.1,0-105.8-32-125.4-40.4
			c-31-13.3-39.399-18.4-71.1-30.9c-35.4-13.9-58.8-31.3-97.6-34.9c-38.7-3.6-77.4-19.6-115.5-15.7
			c-40.101,4.1-85.601,29-122.9,45.6c-25.6,11.4-50.5,10.2-63.5,33.7c-15.899,28.7-27.5,41.2-59.3,52.2"/>
		<path fill="none" stroke="#000000" stroke-miterlimit="10" d="M61.127,228.388c64.699-40.8,134.899,3.7,205.3,10.299
			c28.898,2.699,67.7,5.601,96.5,1.5c32.6-4.6,58.199-26.699,91.199-29.399c43.801-3.599,68.201-27,114.801-33.7
			c19.8-2.898,38.3-5.099,58.6-4.898c18.5,0.199,33,7.5,49.5,8.8"/>
		<path fill="none" stroke="#000000" stroke-miterlimit="10" d="M87.927,188.388c11.4,0,31.799-5.301,26.4,11
			c1.6-4.699-10.601,10.101-26.4,17.101"/>
		<path fill="none" stroke="#000000" stroke-miterlimit="10" d="M508.727,216.088c-5.8,1.101-11.7,2.5-17.899,4.101
			c-71.801,18.301-134.301,42-216.801,37.5c-34.398-1.801-76.5-3.801-107.5-12.601c-33.5-9.399-64.2-28.7-100-15.6"/>
		<path fill="none" stroke="#000000" stroke-miterlimit="10" d="M662.927,189.788c-31.7,1-99.6-17.4-119.301,19.3"/>
		<path fill="none" stroke="#000000" stroke-miterlimit="10" d="M136.427,74.088c-13.7,18.3,19.5,29.6,8.2,47.3"/>
		<path fill="none" stroke="#000000" stroke-miterlimit="10" d="M197.227,56.488c-11.3,11.9-5.3,45.8-21.9,48.2"/>
		<path fill="none" stroke="#000000" stroke-miterlimit="10" d="M275.127,77.688c7.1-6.3,9.698-15.3,12.5-24.2"/>
		<path fill="none" stroke="#000000" stroke-miterlimit="10" d="M324.326,38.888c-0.3,13-3.898,24.3-10.5,35.1"/>
		<path fill="none" stroke="#000000" stroke-miterlimit="10" d="M369.526,42.388c3.4,18.1-20.199,24.4-33.3,28.1"/>
		<path fill="none" stroke="#000000" stroke-miterlimit="10" d="M415.626,66.388c-4.6,9.6-13.6,7-24.1,9.5"/>
		<path fill="none" stroke="#000000" stroke-miterlimit="10" d="M470.626,68.088c-5.299,5.9-26.399,20.6-35.699,21.3"/>
		<path fill="none" stroke="#000000" stroke-miterlimit="10" d="M497.927,113.288c8.199-0.2,25.1-12.9,32.6-16.5"/>
		<path fill="none" stroke="#000000" stroke-miterlimit="10" d="M573.427,124.788c7.4-3.4,15.699-5.8,21.1-10.5"/>
		<path fill="none" stroke="#000000" stroke-miterlimit="10" d="M620.827,131.888c-5.601,9.3-16.601,7.2-26.301,7"/>
		<path fill="none" stroke="#000000" stroke-miterlimit="10" d="M650.727,144.088c-6.5,7.3-15,11.4-24.601,12.3"/>
		<path fill="none" stroke="#000000" stroke-miterlimit="10" d="M266.427,78.288c4.1-13.4-0.7-26.2,12.3-29.8"/>
		<path fill="none" stroke="#000000" stroke-miterlimit="10" d="M305.526,42.388c-3.398,13.5-9.6,23.8-17.5,35.1"/>
		<path fill="none" stroke="#000000" stroke-miterlimit="10" d="M243.026,83.588c-4.3,6.9,1.7,0.5,10.5-36.8"/>
		<path fill="none" stroke="#000000" stroke-miterlimit="10" d="M222.428,58.888c-5.102,8.2-1.5,24.2-3.102,34.1"/>
		<path fill="none" stroke="#000000" stroke-miterlimit="10" d="M364.626,266.188c-8.5-10.301-20.1-15.5-33.3-15.801"/>
		<path fill="none" stroke="#000000" stroke-miterlimit="10" d="M416.126,242.587c12.4-2.099,25.801,6.201,37.301,10.602"/>
		<path fill="none" stroke="#000000" stroke-miterlimit="10" d="M506.827,237.188c-15-6.4-34.201-5.301-50.9-5.301"/>
		<path fill="none" stroke="#000000" stroke-miterlimit="10" d="M540.126,224.788c-10-8.6-17-11.2-29.799-14"/>
		<path fill="none" stroke="#000000" stroke-miterlimit="10" d="M575.227,182.688c14.601-0.801,32.101,8.399,42.101,19.3"/>
		<g opacity="0.1">
			<g>
				<path d="M58.526,195.888c-5.3,1-8.3,7.4-6.899,12.4c1.5,5.6,7,8,12.3,7c20.9-4.1,38.7-22.2,52-37.7
					c14.2-16.6,27.398-34.9,35.7-55.3c2-5.1-2.2-11-7-12.3c-5.7-1.6-10.2,2-12.302,7c-0.398,1-0.398,1,0,0c-0.3,0.6-0.5,1.1-0.8,1.7
					c-0.5,0.9-0.899,1.7-1.3,2.6c-0.9,1.9-1.9,3.8-2.9,5.6c-2.3,4.1-4.698,8.2-7.3,12.1c-5.599,8.5-11.698,16.8-18.398,24.5
					s-14.4,16-22.3,21.899c-3.601,2.7-7.4,5.301-11.4,7.301C65.126,194.088,62.826,195.088,58.526,195.888L58.526,195.888z"/>
			</g>
		</g>
		<g opacity="0.1">
			<g>
				<path d="M44.727,191.188c-15.087,20.322-29.776,17.899,5.2,19.3c7.8-2.7,15.699-5.3,23.5-8.2c10.5-3.799,20.699-8,30.898-12.4
					c10.801-4.699,22-9.1,32.302-14.6c10.6-5.6,20.198-12.7,30.5-18.8c8.199-17.26,17.108-17.054,30.408-22.254
					c9.2-25.201,42.915-29.846,63.415-37.446c9.1-3.4,26.227,4.969,35.826,3.569c11.799-1.7,24.549,2.831,36.851,2.831
					c58.6,0.1,117.399,6.3,173.7,23.1c27.799,8.3,54.199,19.9,81,31.1c29.399,12.3,58.699,24.4,87.399,38.1
					c4.899,2.299,10.8,1.399,13.7-3.601c2.6-4.399,1.3-11.399-3.6-13.699c-12.301-5.9-24.601-11.5-37.101-16.9
					c-29.2-12.7-58.7-24.9-88.101-37.2c-25.6-10.7-52-19.1-79-25.2c-28.699-6.6-58-10.9-87.399-13.3c-29.299-2.4-59.5-4-88.9-1.8
					c-21.3,1.6-38.462,15.466-57.762,24.165c-10.3,4.6-17.84,10.083-28.238,14.483c-13.302,5.7-31.899,1.552-45.001,7.651
					c-12,5.5-22.898,12.6-33.898,19.7c-10,6.5-20.401,11.4-31.3,16.3C87.927,175.488,66.927,183.788,44.727,191.188L44.727,191.188z
					"/>
			</g>
		</g>
		<g opacity="0.1">
			<g>
				<path d="M58.526,164.288c-12.399,3.5-7.1,22.8,5.3,19.3c19.9-5.6,36.5-17.3,52.7-29.7c15.201-11.6,30.701-23.9,49.102-29.9
					c12.198-4,7-23.3-5.302-19.3c-19.8,6.4-36.3,18.5-52.7,31C92.526,147.188,77.026,159.088,58.526,164.288L58.526,164.288z"/>
			</g>
		</g>
		<g opacity="0.1">
			<g>
				<path d="M52.427,220.088c-5.5,0.601-10,4.2-10.2,10.201c0,5,4.6,10.5,10,10c5.899-0.601,11.8-1.101,17.8-1.5
					c14.6-0.8,28.6-0.3,43,1.7s28.9,2.8,43.2,5c14.9,2.199,29.1,7.5,44,9.699c12.7,1.8,25.4,2.5,38.2,3.399
					c22.6,1.601,45.1,3.9,67.6,6.7c28.9,3.6,57.1,2.8,85.7-3.4c27.7-6,54.399-15.5,80.899-25.5
					c26.801-10.1,53.601-20.699,81.201-28.5c14.399-4.1,28.699-7.1,43.699-7.8c15.301-0.7,30.6-0.2,45.9-0.2c12.9,0,12.9-20,0-20
					c-6.7,0-13.301-0.199-20-0.199c-15.7-0.101-31.4,0.199-47,2.5c-14.5,2.101-28.7,6.301-42.7,10.801
					c-27.3,8.799-53.899,19.599-80.899,29.398c-26.4,9.601-53.301,18.5-81.201,22.803c-13.4,2.099-27.199,3-40.801,2.398
					c-14.698-0.699-29.299-3.099-43.898-4.699c-19.3-2.201-38.602-3.801-58-5.101c-5.901-0.399-11.901-0.799-17.8-1.399
					c-1.5-0.199-2.9-0.301-4.4-0.5c-0.6-0.101-2.901-0.399,0.2,0c-0.602-0.101-1.2-0.199-1.8-0.301c-2.5-0.4-4.9-0.8-7.4-1.3
					c-5.901-1.2-11.6-2.7-17.3-4.5c-13.3-4.201-27.9-5.201-41.7-6.601c-14.6-1.5-29.2-4.399-43.8-5
					C80.727,217.688,66.526,218.688,52.427,220.088L52.427,220.088z"/>
			</g>
		</g>
		<g opacity="0.1">
			<g>
				<path d="M531.526,186.388c-5,2.2-6.1,9.4-3.699,13.7c3,5.101,8.699,5.8,13.699,3.601c13.2-5.801,27.2-14.101,34.801-26.801
					c7.799-13.199,6.699-29.1-2.101-41.6c-8.5-11.9-21.5-18.2-35.101-22.7c-11.399-3.8-24.6-6.5-34.199-14.1
					c-4.2-3.4-9.9-4.2-14.1,0c-3.5,3.5-4.301,10.7,0,14.1c10.1,7.9,21.699,12.3,33.799,16.2c9.9,3.2,21.601,6,29.301,13.3
					c7.9,7.5,10.4,17.301,4.5,25.7C552.126,176.788,541.227,182.188,531.526,186.388L531.526,186.388z"/>
			</g>
		</g>
		<g opacity="0.1">
			<g>
				<path d="M434.927,86.788c-5.5-0.7-10,5-10,9.9c0,5.9,4.6,9.4,10,10c6.6,0.8,15.9,3.2,23.199,5.7c8.5,2.9,16.801,6.6,24.601,11.1
					c13.7,7.9,27.899,18.4,34.3,33.3c1.301,3.101,2.9,7.9,3.2,10.5c0.399,4.1,0.5,6.2-0.399,9.3c-1.4,4.901-4.101,8.401-9.5,12.601
					c-10.301,8-26,12.699-39.5,17.199c-12.201,4.102-7,23.401,5.299,19.301c17.301-5.7,36.101-11.301,50-23.601
					c15.4-13.6,17.5-33.399,9.701-51.8c-8.201-19.4-24.9-33.7-43-43.9C474.927,96.288,455.327,89.188,434.927,86.788L434.927,86.788
					z"/>
			</g>
		</g>
		<g opacity="0.1">
			<path d="M347.448,84.86c19.842,7.402,40.549,11.521,61.428,14.726c20.644,3.168,41.232,6.348,61.742,10.318
				c11.191,2.166,22.313,4.628,33.368,7.346c6.489,16.089,14.739-16.363,6.341,51.138c-9.9,17.199-37.299,29.801-52.699,42.401
				c-4.199,3.399-3.5,10.5,0,14.2c4.101,4.1,9.9,3.398,14.101,0c10.917-8.924,22.442-20.379,32.129-33.307
				c4.296,6.027,15.088,6.602,17.74-2.604c0.01,0.003,0.021,0.006,0.03,0.009c0.033-0.153,0.068-0.308,0.103-0.462
				c1.716-6.141,3.692-12.318,5.438-18.556c0.252-0.745,0.506-1.49,0.76-2.235c0.279,1.809,0.543,3.628,0.8,5.453
				c1.2,8.6,14.7,9.7,18.3,2.4c1.094-2.248,2.121-4.515,3.105-6.791c4.58,9.301,18.419,7.734,19.195-3.609
				c0-0.368,0.188-1.021,0.474-1.805c2.04,1.301,3.858,2.537,5.126,3.705c4.876,4.457,10.721,3.332,14.191-0.601
				c8.402,3.81,17.752,5.39,27.107,6.699c5.4,0.8,10.7-1.2,12.3-7c1.3-4.7-1.6-11.5-7-12.3c-10.3-1.4-22.8-2.2-30.7-9.7
				c-0.097-0.089-0.197-0.17-0.295-0.255c1.639,0.607,3.28,1.211,4.916,1.827c6.047,2.277,8.635-7.394,2.658-9.644
				c-24.163-9.099-48.721-17.224-73.633-24.033c-1.637-3.38-3.501-6.678-5.546-9.896c-5.528-8.651-17.397-4.144-18.615,3.748
				c-9.584-2.255-19.214-4.313-28.896-6.129c-20.5-3.844-41.051-6.998-61.651-10.238c-20.286-3.19-40.371-7.256-59.66-14.451
				C344.051,72.958,341.462,82.627,347.448,84.86z M534.626,126.989c-0.517-0.762-1.1-1.428-1.73-2.001
				c4.743,1.372,9.471,2.794,14.188,4.256c-3.276,0.597-6.547,2.9-7.664,6.089C538.059,132.473,536.488,129.683,534.626,126.989z
				 M583.512,141.469c-2.545,0.109-4.968,1.231-6.771,3.081c-2.074-1.322-3.929-2.577-5.215-3.762
				c-3.749-3.414-8.468-3.506-12.003-1.403c-0.399-1-0.798-1.994-1.196-2.997c-0.658-1.725-1.59-3.259-2.787-4.474
				C564.917,134.933,574.241,138.125,583.512,141.469z"/>
		</g>
		<g opacity="0.1">
			<g>
				<path d="M108.026,176.588c-0.1-12.899-20.1-12.899-20.001,0c0.302,21.4,8.5,44.7,27.802,56c11.199,6.5,21.199-10.8,10.1-17.3
					C112.727,207.688,108.126,190.888,108.026,176.588L108.026,176.588z"/>
			</g>
		</g>
		<g opacity="0.1">
			<g>
				<path d="M136.127,163.388c0-12.8-20-12.8-20,0.002c0,25.801-2.5,53.5,17,73.699c8.899,9.299,23.1-4.8,14.1-14.1
					C132.227,207.489,136.025,183.088,136.127,163.388L136.127,163.388z"/>
			</g>
		</g>
		<g opacity="0.1">
			<g>
				<path d="M130.526,164.588c4-12.3-15.3-17.5-19.3-5.199c-7.899,23.999-9.201,52.3,5.4,74.199
					c15.399,23.101,41.698,34.7,68.3,39.5c5.399,1,10.8-1.399,12.3-7c1.3-4.899-1.6-11.3-7-12.3c-12.4-2.299-24.8-5.6-35.7-11.9
					c-8.3-4.8-15.8-11.1-20.6-18.5c-5.2-8-8.102-17-8.5-26C124.927,185.788,126.927,175.688,130.526,164.588L130.526,164.588z"/>
			</g>
		</g>
		<g opacity="0.1">
			<g>
				<path d="M78.227,215.188c-12.8,0.8-12.9,20.8,0.099,19.801c1.201,0,2.401-0.1,3.602-0.2c13.8-1.101,27.399-3.901,41.3-4.3
					c13.2-0.401,24.3,2.5,36.5,7.398c14.6,5.9,29.3,11.7,43.901,17.601c30.398,12.2,65,7.5,96.698,3.1
					c40.301-5.6,80.101-14.5,119.9-23c17.3-3.7,34.601-7.399,52.101-10.6c3.699-0.601,7.5-1.3,11.299-1.9
					c1.601-0.2,3.201-0.5,4.801-0.7c0.8-0.1,1.5-0.199,2.3-0.3c-2.7,0.4-0.2,0.101,0.3,0c5.2-0.7,10.5-1.2,15.7-1.2
					c12.899-0.1,12.899-20.1,0-20c-0.3,0-0.7,0-1,0c-12.899,0.2-26,2.601-38.7,4.9c-17.4,3.1-34.8,6.9-52.1,10.6
					c-39.801,8.602-79.601,17.5-119.9,23c-1.399,0.2-4,0.5-6.399,0.801c-2.301,0.301-4.5,0.601-6.699,0.801
					c-4.3,0.398-8.601,0.898-12.9,1.199c-8.1,0.6-16.3,1-24.5,0.899c-3.8,0-7.6-0.2-11.3-0.5c-1.6-0.1-3.2-0.3-4.8-0.5
					c2.7,0.3-1.901-0.399-2.602-0.5c-8.1-1.5-15.5-4.7-23.1-7.8c-13.5-5.4-27.1-10.5-40.5-16.2c-13.4-5.6-27.7-7.8-42.2-6.8
					C106.026,211.688,92.227,214.288,78.227,215.188L78.227,215.188z"/>
			</g>
		</g>
	</g>
</g>
</svg>
