<?xml version="1.0" encoding="utf-8"?>
<!-- Generator: Adobe Illustrator 16.0.0, SVG Export Plug-In . SVG Version: 6.00 Build 0)  -->
<!DOCTYPE svg PUBLIC "-//W3C//DTD SVG 1.1//EN" "http://www.w3.org/Graphics/SVG/1.1/DTD/svg11.dtd">
<svg version="1.1" id="Layer_1" xmlns="http://www.w3.org/2000/svg" xmlns:xlink="http://www.w3.org/1999/xlink" x="0px" y="0px"
	 width="973.337px" height="343.678px" viewBox="0 0 973.337 343.678" enable-background="new 0 0 973.337 343.678"
	 xml:space="preserve">
<g opacity="0.1">
	<g>
		<path d="M825.458,212.106c-0.741,1.622-1.633,3.119-2.724,4.53c3.909-5.06,7.818-10.119,11.728-15.179
			c-1.103,1.345-2.326,2.526-3.699,3.592c5.06-3.909,10.119-7.818,15.179-11.727c-1.614,1.186-3.33,2.151-5.16,2.963
			c5.972-2.521,11.944-5.041,17.916-7.561c-3.301,1.381-6.751,2.19-10.289,2.68c6.646-0.893,13.292-1.786,19.938-2.679
			c-7.592,0.945-15.257,0.46-22.818-0.533c6.646,0.893,13.292,1.786,19.938,2.679c-30.764-4.242-60.544-15.938-88.998-27.933
			c5.973,2.52,11.944,5.041,17.916,7.561c-22.959-9.713-45.279-20.779-68.291-30.371c5.972,2.52,11.943,5.04,17.916,7.561
			c-27.423-11.594-53.314-26.375-79.631-40.214c-31.313-16.466-63.778-31.149-97.749-41.199
			c-34.911-10.328-71.368-15.111-107.425-19.291c-30.45-3.53-61.705-7.221-92.332-4.435c-30.192,2.747-59.776,8.716-89.434,14.688
			c-20.7,4.168-41.651,6.395-61.408,14.233c-14.182,5.627-28.255,11.461-41.324,19.36c-12.925,7.813-24.888,17.492-36.544,26.982
			c-15.311,12.466-28.757,27.102-41.33,42.271c-3.909,5.06-7.818,10.12-11.727,15.179c-6.785,11.698-10.198,24.316-10.24,37.854
			c0,19.812,7.965,39.031,21.967,53.033c14.002,14.002,33.221,21.967,53.033,21.967c18.249,0,40.951-7.389,53.033-21.967
			c13.848-16.709,28.772-32.561,45.923-45.932c-5.06,3.909-10.119,7.818-15.179,11.728c11.587-8.9,24.033-16.486,37.464-22.271
			c-5.972,2.52-11.944,5.041-17.916,7.561c17.686-7.417,35.969-9.929,54.66-13.495c22.542-4.3,44.91-9.516,67.671-12.585
			c-6.646,0.893-13.292,1.786-19.938,2.679c39.163-5.061,79.308-0.203,118.262,4.967c-6.646-0.893-13.292-1.786-19.938-2.679
			c37.298,5.048,74.384,13.005,109.23,27.524c-5.972-2.521-11.944-5.041-17.916-7.561c21.469,9.071,42.021,20.077,62.547,31.072
			c26.227,14.05,52.569,26.823,80.053,38.279c-5.973-2.521-11.944-5.041-17.916-7.561c30.044,13.895,60.073,27.738,91.059,39.476
			c16.498,6.249,33.329,11.838,50.571,15.642c13.748,3.033,27.865,4.984,41.885,6.014c12.745,0.936,25.966-1.089,38.325-3.544
			c10.304-2.046,20.847-6.307,29.435-12.279c13.249-9.215,26.875-20.218,33.796-35.373c2.521-5.972,5.041-11.943,7.562-17.916
			c3.571-13.292,3.571-26.583,0-39.875c-5.157-18.748-17.702-35.002-34.468-44.823c-17.321-10.147-38.434-12.885-57.791-7.561
			C853.124,182.358,833.14,195.286,825.458,212.106L825.458,212.106z"/>
	</g>
</g>
<g opacity="0.9">
	<g>
		<path fill="#606161" d="M912.361,172.111c-14.822,4.359-27.432,12.464-40.867,19.777c-15.295,8.325-30.529,9.512-47.277,4.784
			c-3.109-0.878-4.428,3.947-1.33,4.821c15.89,4.486,31.063,4.229,46.127-2.749c15.219-7.048,28.357-17.013,44.676-21.813
			C916.776,176.024,915.461,171.199,912.361,172.111L912.361,172.111z"/>
	</g>
</g>
<g opacity="0.9">
	<g>
		<path fill="#606161" d="M931.578,172.767c-2.184,31.845-45.242,31.339-68.34,36.186c-3.155,0.662-1.817,5.481,1.328,4.821
			c26.114-5.479,69.582-5.565,72.012-41.007C936.798,169.547,931.797,169.568,931.578,172.767L931.578,172.767z"/>
	</g>
</g>
<g opacity="0.9">
	<g>
		<path fill="#606161" d="M957.377,182.889c-22.507,15.614-45.163,32.808-73.087,36.589c-3.184,0.432-1.822,5.249,1.328,4.822
			c28.332-3.837,51.441-21.25,74.282-37.094C962.53,185.383,960.035,181.046,957.377,182.889L957.377,182.889z"/>
	</g>
</g>
<g opacity="0.9">
	<g>
		<path fill="#606161" d="M966.149,207.451c-22.979,15.691-50.022,24.104-77.686,25.974c-3.199,0.216-3.22,5.218,0,5
			c28.519-1.928,56.503-10.47,80.209-26.657C971.318,209.962,968.82,205.627,966.149,207.451L966.149,207.451z"/>
	</g>
</g>
<g opacity="0.9">
	<g>
		<path fill="#606161" d="M964.992,244.04c-21.526,4.623-41.892-3.263-61.231-12.028c-2.913-1.319-5.457,2.988-2.523,4.318
			c20.667,9.366,42.118,17.464,65.085,12.532C969.473,248.185,968.136,243.365,964.992,244.04L964.992,244.04z"/>
	</g>
</g>
<g opacity="0.9">
	<g>
		<path fill="#606161" d="M954.474,258.067c-5.177,12.477-23.948,10.168-34.558,8.852c-13.522-1.678-26.668-5.838-40.226-7.179
			c-3.208-0.317-3.178,4.686,0,5c15.091,1.493,29.706,6.223,44.845,7.69c12.707,1.232,29.105,0.592,34.759-13.033
			C960.531,256.419,955.691,255.134,954.474,258.067L954.474,258.067z"/>
	</g>
</g>
<g opacity="0.9">
	<g>
		<path fill="#606161" d="M970.255,287.899c-24.761,5.035-50.875-1.854-71.758-15.536c-2.706-1.773-5.208,2.558-2.523,4.316
			c22.041,14.441,49.545,21.342,75.609,16.042C974.743,292.079,973.402,287.26,970.255,287.899L970.255,287.899z"/>
	</g>
</g>
<g opacity="0.9">
	<g>
		<path fill="#606161" d="M947.449,300.181c-20.975,6.473-41.412-6.443-59.479-15.538c-2.872-1.445-5.404,2.868-2.523,4.318
			c19.332,9.73,40.92,22.957,63.33,16.042C951.848,304.055,950.538,299.228,947.449,300.181L947.449,300.181z"/>
	</g>
</g>
<g opacity="0.9">
	<g>
		<path fill="#606161" d="M902.246,313.452c-7.328-2.582-14.591-5.344-21.891-8.009c-3.035-1.107-4.332,3.726-1.328,4.822
			c7.299,2.664,14.562,5.426,21.891,8.009C903.966,319.349,905.266,314.517,902.246,313.452L902.246,313.452z"/>
	</g>
</g>
<g opacity="0.9">
	<g>
		<path fill="#606161" d="M941.095,322.898c-6.52-0.593-12.912-1.817-19.258-3.404c-3.13-0.781-4.456,4.04-1.33,4.822
			c6.781,1.694,13.625,2.949,20.588,3.582C944.307,328.19,944.279,323.188,941.095,322.898L941.095,322.898z"/>
	</g>
</g>
<g opacity="0.9">
	<g>
		<path fill="#606161" d="M903.76,339.029c-1.454-0.828-2.923-1.629-4.404-2.408c-1.206-0.635-2.71-0.317-3.421,0.896
			c-0.665,1.136-0.308,2.786,0.897,3.42c1.481,0.779,2.95,1.581,4.404,2.41c1.185,0.674,2.727,0.287,3.421-0.897
			C905.34,341.285,904.943,339.703,903.76,339.029L903.76,339.029z"/>
	</g>
</g>
<g opacity="0.9">
	<g>
		<path fill="#606161" d="M945.695,251.058c-21.917,3.229-44.035,1.736-66.004-0.089c-3.215-0.268-3.189,4.735,0,5
			c22.467,1.867,44.928,3.211,67.332-0.089C950.204,255.411,948.847,250.594,945.695,251.058L945.695,251.058z"/>
	</g>
</g>
<g opacity="0.9">
	<g>
		<path fill="#606161" d="M951.218,196.836c9.51,18.194,3.299,40.809-13.139,52.721c-2.584,1.872-0.093,6.213,2.523,4.316
			c18.711-13.558,25.789-38.789,14.932-59.561C954.042,191.454,949.726,193.982,951.218,196.836L951.218,196.836z"/>
	</g>
</g>
<g opacity="0.9">
	<g>
		<path fill="#606161" d="M963.157,241.188c2.826,30.111-36.718,36.097-58.903,37.851c-3.192,0.252-3.217,5.254,0,5
			c24.895-1.969,67.04-9.433,63.903-42.851C967.858,238.007,962.855,237.978,963.157,241.188L963.157,241.188z"/>
	</g>
</g>
<g opacity="0.9">
	<g>
		<path fill="#606161" d="M968.509,273.856c-7.317,28.85-46.492,24.228-68.855,21.061c-3.151-0.446-4.511,4.371-1.328,4.822
			c25.227,3.571,66.842,7.633,75.004-24.553C974.124,272.059,969.301,270.733,968.509,273.856L968.509,273.856z"/>
	</g>
</g>
<g opacity="0.9">
	<g>
		<path fill="#606161" d="M927.552,300.434c-24.457,13.572-55.048,10.444-80.529,1.501c-3.05-1.07-4.35,3.762-1.328,4.822
			c26.768,9.395,58.762,12.211,84.381-2.007C932.895,303.186,930.374,298.867,927.552,300.434L927.552,300.434z"/>
	</g>
</g>
<g opacity="0.9">
	<g>
		<path fill="#606161" d="M891.308,293.163c-49.765,17.334-105.535-2.638-148.951-27.817c-2.795-1.621-5.311,2.7-2.523,4.316
			c44.523,25.823,101.796,46.089,152.803,28.323C895.662,296.932,894.361,292.1,891.308,293.163L891.308,293.163z"/>
	</g>
</g>
<g opacity="0.9">
	<g>
		<path fill="#606161" d="M853.781,290.804c-5.455-10.345-14.814-16.684-24.198-23.157c-11.456-7.904-22.517-16.688-33.29-25.496
			c-22.765-18.609-43.8-39.247-63.956-60.625c-2.216-2.351-5.745,1.192-3.535,3.535c19.363,20.537,39.554,40.284,61.235,58.378
			c10.375,8.658,21.194,16.782,31.975,24.923c10.049,7.587,21.356,13.403,27.451,24.965
			C850.967,296.181,855.283,293.653,853.781,290.804L853.781,290.804z"/>
	</g>
</g>
<g opacity="0.9">
	<g>
		<path fill="#606161" d="M855.13,245.706c-33.319,1.586-67.735-11.344-95.229-29.484c-2.7-1.781-5.201,2.55-2.523,4.317
			c28.179,18.593,63.615,31.792,97.753,30.167C858.34,250.554,858.355,245.553,855.13,245.706L855.13,245.706z"/>
	</g>
</g>
<g opacity="0.9">
	<g>
		<path fill="#606161" d="M858.639,217.636c-29.935,0.694-57.989-13.004-82.729-28.606c-25.495-16.078-48.466-35.71-71.644-54.872
			c-2.465-2.038-6.022,1.479-3.535,3.535c23.525,19.45,46.865,39.211,72.655,55.654c25.329,16.15,54.562,30.001,85.253,29.289
			C861.858,222.562,861.866,217.561,858.639,217.636L858.639,217.636z"/>
	</g>
</g>
<g opacity="0.9">
	<g>
		<path fill="#606161" d="M804.253,207.109c-58.188-0.348-112.584-33.426-158.388-66.326c-2.624-1.885-5.117,2.455-2.523,4.317
			c46.541,33.429,101.811,66.655,160.911,67.008C807.479,212.129,807.477,207.129,804.253,207.109L804.253,207.109z"/>
	</g>
</g>
<g opacity="0.9">
	<g>
		<path fill="#606161" d="M692.637,163.339c-35.499-11.935-68.173-30.008-97.144-53.743c-2.472-2.025-6.031,1.491-3.535,3.535
			c29.664,24.303,62.995,42.807,99.349,55.029C694.373,169.19,695.676,164.361,692.637,163.339L692.637,163.339z"/>
	</g>
</g>
<g opacity="0.9">
	<g>
		<path fill="#606161" d="M614.779,133.425c-36.019-2.197-65.733-28.385-93.475-48.781c-2.602-1.913-5.092,2.429-2.523,4.317
			c28.633,21.052,58.854,47.198,95.998,49.464C618,138.621,617.982,133.62,614.779,133.425L614.779,133.425z"/>
	</g>
</g>
<g opacity="0.9">
	<g>
		<path fill="#606161" d="M597.901,105.444c-46.277-10.988-82.14-45.249-126.317-61.404c-3.035-1.11-4.332,3.723-1.329,4.821
			c44.2,16.163,79.958,50.396,126.316,61.404C599.707,111.01,601.037,106.189,597.901,105.444L597.901,105.444z"/>
	</g>
</g>
<g opacity="0.9">
	<g>
		<path fill="#606161" d="M689.208,153.469c-4.473-35.199-45.148-52.042-71.413-68.825c-2.726-1.742-5.23,2.587-2.523,4.317
			c13.386,8.553,27.413,16.046,40.288,25.396c13.071,9.492,26.507,22.259,28.648,39.112
			C684.609,156.622,689.614,156.662,689.208,153.469L689.208,153.469z"/>
	</g>
</g>
<g opacity="0.9">
	<g>
		<path fill="#606161" d="M618.301,109.596c-34.543-36.125-77.925-62.681-121.559-86.356c-2.834-1.538-5.358,2.779-2.523,4.317
			c43.278,23.482,86.285,49.744,120.547,85.574C616.998,115.466,620.529,111.925,618.301,109.596L618.301,109.596z"/>
	</g>
</g>
<g opacity="0.9">
	<g>
		<path fill="#606161" d="M534.735,80.875c-4.644-23.669-29.339-39.278-48.723-50.217c-21.896-12.356-45.434-21.395-68.814-30.477
			c-3.01-1.169-4.301,3.667-1.329,4.821c22.22,8.631,44.424,17.306,65.393,28.738c18.947,10.33,44.128,25.405,48.65,48.463
			C530.534,85.366,535.352,84.023,534.735,80.875L534.735,80.875z"/>
	</g>
</g>
<g opacity="0.9">
	<g>
		<path fill="#606161" d="M479.705,78.017c-17.618-19.303-40.325-33.382-61.909-47.76c-2.692-1.793-5.192,2.54-2.523,4.317
			c21.252,14.156,43.552,27.974,60.897,46.978C478.347,83.938,481.873,80.393,479.705,78.017L479.705,78.017z"/>
	</g>
</g>
<g opacity="0.9">
	<g>
		<path fill="#606161" d="M420.055,69.245c-23.397-28.803-59.251-45.553-91.733-61.794c-2.875-1.438-5.408,2.875-2.523,4.317
			C357.922,27.831,393.384,44.3,416.52,72.78C418.554,75.284,422.069,71.724,420.055,69.245L420.055,69.245z"/>
	</g>
</g>
<g opacity="0.9">
	<g>
		<path fill="#606161" d="M377.951,53.456c-19.377-17.056-46.642-24.962-71.943-27.048c-3.215-0.265-3.19,4.737,0,5
			c23.897,1.971,50.101,9.469,68.408,25.583C376.825,59.112,380.375,55.59,377.951,53.456L377.951,53.456z"/>
	</g>
</g>
<g opacity="0.9">
	<g>
		<path fill="#606161" d="M409.53,106.087c-16.553-17.28-35.154-32.347-55.77-44.525c-20.752-12.258-43.338-21.167-66.386-28.048
			c-3.097-0.925-4.411,3.901-1.329,4.821c45.833,13.683,86.719,36.598,119.95,71.287
			C408.229,111.955,411.759,108.415,409.53,106.087L409.53,106.087z"/>
	</g>
</g>
<g opacity="0.9">
	<g>
		<path fill="#606161" d="M337.093,88.152c-39.574-28.771-80.711-57.768-128.667-70.428c-3.121-0.824-4.444,3.999-1.329,4.821
			c47.524,12.546,88.258,41.415,127.472,69.924C337.183,94.37,339.674,90.028,337.093,88.152L337.093,88.152z"/>
	</g>
</g>
<g opacity="0.9">
	<g>
		<path fill="#606161" d="M272.181,75.872c-32.95-19.705-73.298-16.232-110.033-14.376c-3.208,0.162-3.224,5.163,0,5
			c35.792-1.809,75.388-5.516,107.51,13.694C272.432,81.848,274.945,77.524,272.181,75.872L272.181,75.872z"/>
	</g>
</g>
<g opacity="0.9">
	<g>
		<path fill="#606161" d="M727.883,334.231c-7.572,0.659-15.152,1.196-22.739,1.645c-3.204,0.189-3.223,5.19,0,5
			c7.587-0.448,15.167-0.985,22.739-1.645C731.07,338.954,731.097,333.952,727.883,334.231L727.883,334.231z"/>
	</g>
</g>
<g opacity="0.9">
	<g>
		<path fill="#606161" d="M706.007,286.057c-26.219-3.41-52.729-3.607-78.947-7.018c-3.19-0.415-3.15,4.59,0,5
			c26.219,3.41,52.729,3.607,78.947,7.018C709.198,291.472,709.158,286.467,706.007,286.057L706.007,286.057z"/>
	</g>
</g>
<g opacity="0.9">
	<g>
		<path fill="#606161" d="M732.324,265.004c-33.246-0.065-66.549-3.267-99.335-8.683c-3.153-0.521-4.505,4.297-1.33,4.822
			c33.229,5.488,66.97,8.794,100.665,8.86C735.548,270.01,735.547,265.01,732.324,265.004L732.324,265.004z"/>
	</g>
</g>
<g opacity="0.9">
	<g>
		<path fill="#606161" d="M640.006,237.022c-23.395-6.957-48.155-5.602-71.931-10.526c-3.146-0.651-4.486,4.168-1.33,4.822
			c23.773,4.924,48.555,3.574,71.931,10.526C641.775,242.766,643.089,237.939,640.006,237.022L640.006,237.022z"/>
	</g>
</g>
<g opacity="0.9">
	<g>
		<path fill="#606161" d="M577.291,213.289c-4.589,0.293-9.18,0.539-13.775,0.695c-3.215,0.109-3.226,5.11,0,5
			c4.596-0.156,9.187-0.402,13.775-0.695C580.492,218.085,580.511,213.083,577.291,213.289L577.291,213.289z"/>
	</g>
</g>
<g opacity="0.9">
	<g>
		<path fill="#606161" d="M625.306,210.618c-14.94,0.062-29.815,1.408-44.708,2.45c-3.198,0.224-3.22,5.226,0,5
			c14.893-1.042,29.768-2.388,44.708-2.45C628.53,215.604,628.531,210.604,625.306,210.618L625.306,210.618z"/>
	</g>
</g>
<g opacity="0.9">
	<g>
		<path fill="#606161" d="M533.413,191.409c-17.459,3.429-35.171,5.343-52.631,8.772c-3.162,0.621-1.82,5.44,1.329,4.821
			c17.46-3.429,35.172-5.343,52.632-8.772C537.905,195.609,536.562,190.791,533.413,191.409L533.413,191.409z"/>
	</g>
</g>
<g opacity="0.9">
	<g>
		<path fill="#606161" d="M511.271,191.32c-16.486-1.491-29.629,7.705-39.001,20.537c-1.905,2.608,2.437,5.099,4.317,2.523
			c8.385-11.48,20.003-19.387,34.684-18.06C514.483,196.61,514.455,191.608,511.271,191.32L511.271,191.32z"/>
	</g>
</g>
<g opacity="0.9">
	<g>
		<path fill="#606161" d="M464.992,196.672c-8.641,1.851-16.301,5.557-23.405,10.778c-2.568,1.888-0.079,6.23,2.523,4.317
			c6.776-4.981,13.959-8.507,22.21-10.274C469.474,200.818,468.136,195.999,464.992,196.672L464.992,196.672z"/>
	</g>
</g>
<g opacity="0.9">
	<g>
		<path fill="#606161" d="M443.939,184.392c-19.732,3.874-36.68,17.098-57.23,17.455c-3.221,0.056-3.226,5.056,0,5
			c21.116-0.366,38.328-13.661,58.559-17.633C448.431,188.592,447.088,183.773,443.939,184.392L443.939,184.392z"/>
	</g>
</g>
<g opacity="0.9">
	<g>
		<path fill="#606161" d="M386.045,182.637c-13.767,3.601-26.216,10.406-39.194,16.042c-2.951,1.281-0.402,5.588,2.523,4.317
			c12.586-5.465,24.648-12.045,38-15.538C390.491,186.644,389.167,181.82,386.045,182.637L386.045,182.637z"/>
	</g>
</g>
<g opacity="0.9">
	<g>
		<path fill="#606161" d="M373.167,163.591c-18.833,8.636-36.641,19.178-54.386,29.825c-2.761,1.656-0.249,5.98,2.523,4.317
			c17.745-10.646,35.553-21.189,54.386-29.825C378.618,166.565,376.075,162.257,373.167,163.591L373.167,163.591z"/>
	</g>
</g>
<g opacity="0.9">
	<g>
		<path fill="#606161" d="M746.763,241.681c-55.011-76.778-152.035-111.617-241.294-128.738c-21.3-4.085-42.801-7.13-64.374-9.342
			c-3.207-0.329-3.175,4.674,0,5c46.183,4.735,92.074,13.483,136.319,27.664c45.397,14.55,89.725,35.417,126.363,66.319
			c14.513,12.24,27.607,26.184,38.667,41.621C744.305,246.8,748.645,244.308,746.763,241.681L746.763,241.681z"/>
	</g>
</g>
<g opacity="0.9">
	<g>
		<path fill="#606161" d="M756.898,211.351c-56.682-47.855-111.791-97.837-172.436-140.742c-2.639-1.867-5.133,2.472-2.523,4.317
			c60.295,42.657,115.068,92.381,171.424,139.96C755.81,216.952,759.365,213.433,756.898,211.351L756.898,211.351z"/>
	</g>
</g>
<g opacity="0.9">
	<g>
		<path fill="#606161" d="M611.675,157.47c-22.414-36.174-59.266-61.368-96.259-80.859c-40.314-21.241-83.762-36.571-127.641-48.563
			c-14.067-3.844-28.246-7.278-42.507-10.324c-3.145-0.671-4.482,4.148-1.329,4.821c42.121,8.995,83.654,21.303,123.595,37.458
			c41.864,16.934,83.789,38.7,116.218,70.679c8.961,8.836,16.974,18.608,23.604,29.311
			C609.051,162.728,613.378,160.219,611.675,157.47L611.675,157.47z"/>
	</g>
</g>
<g opacity="0.9">
	<g>
		<path fill="#606161" d="M515.444,114.216c-77.393-24.729-150.294-61.114-226.316-89.474c-3.027-1.129-4.322,3.705-1.329,4.821
			c76.021,28.36,148.922,64.745,226.315,89.474C517.195,120.022,518.502,115.194,515.444,114.216L515.444,114.216z"/>
	</g>
</g>
<g opacity="0.9">
	<g>
		<path fill="#606161" d="M430.076,100.433c-40.814-19.663-77.07-47.803-119.895-63.41c-3.037-1.107-4.333,3.727-1.329,4.821
			c42.389,15.448,78.293,43.439,118.701,62.906C430.443,106.143,432.98,101.832,430.076,100.433L430.076,100.433z"/>
	</g>
</g>
<g opacity="0.9">
	<g>
		<path fill="#606161" d="M353.389,100.824c-35.005-29.688-72.342-56.434-111.032-81.093c-2.728-1.739-5.233,2.59-2.523,4.317
			c38.332,24.432,75.338,50.897,110.021,80.311C352.297,106.432,355.852,102.913,353.389,100.824L353.389,100.824z"/>
	</g>
</g>
<g opacity="0.9">
	<g>
		<path fill="#606161" d="M280.356,96.672c-25.656-9.537-42.62-34.202-60.301-53.743c-2.167-2.396-5.692,1.151-3.535,3.535
			c18.407,20.343,35.816,45.107,62.507,55.029C282.056,102.62,283.351,97.786,280.356,96.672L280.356,96.672z"/>
	</g>
</g>
<g opacity="0.9">
	<g>
		<path fill="#606161" d="M283.865,108.953c-39.95-13.767-81.913-19.67-122.808-29.825c-3.13-0.777-4.457,4.044-1.329,4.821
			c40.895,10.155,82.858,16.058,122.808,29.825C285.593,114.828,286.895,109.997,283.865,108.953L283.865,108.953z"/>
	</g>
</g>
<g opacity="0.9">
	<g>
		<path fill="#606161" d="M211.27,70.267c-19.212-0.058-38.317-1.792-57.23-5.174c-3.152-0.563-4.5,4.254-1.329,4.821
			c19.348,3.459,38.901,5.293,58.559,5.353C214.495,75.277,214.494,70.277,211.27,70.267L211.27,70.267z"/>
	</g>
</g>
<g opacity="0.9">
	<g>
		<path fill="#606161" d="M198.99,96.583c-33.37-0.068-66.63-3.441-100-3.509c-3.225-0.006-3.224,4.994,0,5
			c33.37,0.068,66.63,3.441,100,3.509C202.214,101.589,202.214,96.589,198.99,96.583L198.99,96.583z"/>
	</g>
</g>
<g opacity="0.9">
	<g>
		<path fill="#606161" d="M149.867,114.127c-36.314,2.037-70.429,15.709-104.173,28.159c-2.998,1.106-1.703,5.94,1.329,4.821
			c33.276-12.277,67.028-25.972,102.844-27.98C153.072,118.947,153.09,113.946,149.867,114.127L149.867,114.127z"/>
	</g>
</g>
<g opacity="0.9">
	<g>
		<path fill="#606161" d="M104.24,151.701c-21.075,17.387-45.586,29.977-66.667,47.369c-2.489,2.054,1.069,5.57,3.535,3.535
			c21.075-17.387,45.586-29.977,66.667-47.369C110.264,153.183,106.706,149.666,104.24,151.701L104.24,151.701z"/>
	</g>
</g>
<g opacity="0.9">
	<g>
		<path fill="#606161" d="M136.325,170.608c-29.462,19.163-56.161,42.067-84.211,63.157c-2.543,1.913-0.056,6.258,2.523,4.318
			c28.049-21.09,54.751-43.996,84.211-63.158C141.54,173.175,139.036,168.845,136.325,170.608L136.325,170.608z"/>
	</g>
</g>
<g opacity="0.9">
	<g>
		<path fill="#606161" d="M150.957,135.269c-38.584,14.057-77.004,29.697-111.124,52.884c-2.65,1.801-0.151,6.135,2.523,4.317
			c33.774-22.952,71.733-38.464,109.929-52.38C155.291,138.996,153.994,134.162,150.957,135.269L150.957,135.269z"/>
	</g>
</g>
<g opacity="0.9">
	<g>
		<path fill="#606161" d="M210.605,137.023c-31.106,8.923-63.933,6.995-95.826,10.437c-3.17,0.342-3.204,5.346,0,5
			c32.335-3.49,65.612-1.568,97.155-10.616C215.028,140.957,213.711,136.132,210.605,137.023L210.605,137.023z"/>
	</g>
</g>
<g opacity="0.9">
	<g>
		<path fill="#606161" d="M189.554,107.199c-37.087,6.861-71.937,21.042-104.106,40.603c-2.75,1.672-0.239,5.997,2.523,4.317
			c31.83-19.354,66.219-33.311,102.912-40.099C194.051,111.434,192.705,106.616,189.554,107.199L189.554,107.199z"/>
	</g>
</g>
<g opacity="0.9">
	<g>
		<path fill="#606161" d="M147.448,203.69c-33.04,13.659-67.498,30.386-92.332,56.783c-2.207,2.346,1.322,5.888,3.535,3.535
			c24.211-25.733,57.897-42.173,90.125-55.497C151.713,207.297,150.428,202.458,147.448,203.69L147.448,203.69z"/>
	</g>
</g>
<g opacity="0.9">
	<g>
		<path fill="#606161" d="M491.972,175.53c-42.867,0.196-86.689,15.769-115.803,48.101c-2.151,2.389,1.374,5.937,3.535,3.535
			c28.266-31.39,70.645-46.445,112.268-46.636C495.196,180.516,495.197,175.516,491.972,175.53L491.972,175.53z"/>
	</g>
</g>
<g opacity="0.9">
	<g>
		<path fill="#606161" d="M405.343,187.9c-27.699,5.935-46.875,29.02-67.77,46.257c-2.49,2.054,1.069,5.57,3.535,3.535
			c20.222-16.683,38.767-39.229,65.564-44.971C409.824,192.046,408.487,187.227,405.343,187.9L405.343,187.9z"/>
	</g>
</g>
<g opacity="0.9">
	<g>
		<path fill="#606161" d="M373.167,172.363c-27.936,13.924-57.704,26.31-79.453,49.514c-2.203,2.35,1.326,5.893,3.535,3.535
			c21.441-22.875,50.904-35.007,78.441-48.732C378.576,175.242,376.042,170.929,373.167,172.363L373.167,172.363z"/>
	</g>
</g>
<g opacity="0.9">
	<g>
		<path fill="#606161" d="M310.009,188.152c-16.074,10.772-31.492,22.707-44.366,37.233c-2.13,2.403,1.393,5.953,3.535,3.535
			c12.602-14.219,27.619-25.906,43.354-36.451C315.196,190.685,312.696,186.352,310.009,188.152L310.009,188.152z"/>
	</g>
</g>
<g opacity="0.9">
	<g>
		<path fill="#606161" d="M298.977,163.982c-15.548,15.454-32.703,29.276-47.369,45.614c-2.147,2.392,1.377,5.939,3.535,3.535
			c14.667-16.337,31.821-30.159,47.369-45.614C304.801,165.242,301.265,161.707,298.977,163.982L298.977,163.982z"/>
	</g>
</g>
<g opacity="0.9">
	<g>
		<path fill="#606161" d="M212.596,260.896c-2.1,5.996-3.929,12.066-5.49,18.224c-0.793,3.128,4.029,4.453,4.821,1.33
			c1.562-6.158,3.391-12.229,5.49-18.224C218.486,259.174,213.654,257.874,212.596,260.896L212.596,260.896z"/>
	</g>
</g>
<g opacity="0.9">
	<g>
		<path fill="#606161" d="M256.872,186.789c-18.438,21.407-33.597,45.358-43.479,71.896c-1.127,3.028,3.707,4.323,4.821,1.33
			c9.566-25.689,24.347-48.97,42.193-69.69C262.5,187.895,258.979,184.342,256.872,186.789L256.872,186.789z"/>
	</g>
</g>
<g opacity="0.9">
	<g>
		<path fill="#606161" d="M186.807,255.194c-3.822,5.477-7.71,10.905-11.77,16.209c-1.96,2.562,2.386,5.047,4.317,2.523
			c4.06-5.304,7.947-10.732,11.77-16.209C192.975,255.066,188.637,252.571,186.807,255.194L186.807,255.194z"/>
	</g>
</g>
<g opacity="0.9">
	<g>
		<path fill="#606161" d="M132.981,284.329c-7.749,6.761-15.466,13.555-23.479,20.004c-2.513,2.021,1.049,5.536,3.535,3.535
			c8.013-6.448,15.73-13.243,23.479-20.004C138.95,285.74,135.399,282.219,132.981,284.329L132.981,284.329z"/>
	</g>
</g>
<g opacity="0.9">
	<g>
		<path fill="#606161" d="M115.272,251.311c-21.599,10.669-44.874,17.26-67.824,24.309c-3.073,0.944-1.761,5.771,1.329,4.822
			c23.371-7.18,47.024-13.949,69.018-24.814C120.687,254.199,118.152,249.888,115.272,251.311L115.272,251.311z"/>
	</g>
</g>
<g opacity="0.9">
	<g>
		<path fill="#606161" d="M94.219,228.504c-9.866,6.549-19.958,12.748-29.824,19.297c-2.672,1.774-0.171,6.106,2.523,4.318
			c9.866-6.55,19.958-12.749,29.824-19.299C99.415,231.047,96.914,226.715,94.219,228.504L94.219,228.504z"/>
	</g>
</g>
<g opacity="0.9">
	<g>
		<path fill="#606161" d="M717.199,238.777c-28.08-5.423-54.377-17.384-82.456-22.807c-3.15-0.608-4.493,4.21-1.33,4.822
			c28.08,5.423,54.377,17.384,82.456,22.808C719.019,244.207,720.362,239.389,717.199,238.777L717.199,238.777z"/>
	</g>
</g>
<g opacity="0.9">
	<g>
		<path fill="#606161" d="M647.621,235.521c-15.523-10.971-29.881-24.175-48.702-29.139c-3.122-0.823-4.444,4-1.33,4.821
			c18.343,4.837,32.383,17.946,47.509,28.634C647.737,241.704,650.231,237.365,647.621,235.521L647.621,235.521z"/>
	</g>
</g>
<g opacity="0.9">
	<g>
		<path fill="#606161" d="M664.306,222.383c-9.9-17.113-23.118-31.894-40.151-42.125c-16.577-9.958-35.833-14.327-54.989-15.254
			c-3.225-0.156-3.209,4.845,0,5c18.447,0.893,36.426,5.228,52.466,14.571c16.36,9.529,28.958,24.084,38.358,40.331
			C661.603,227.695,665.924,225.179,664.306,222.383L664.306,222.383z"/>
	</g>
</g>
<g opacity="0.9">
	<g>
		<path fill="#606161" d="M605.515,191.661c-23.229-15.862-50.434-24.538-77.79-30.077c-3.148-0.637-4.488,4.182-1.33,4.821
			c26.974,5.461,53.69,13.931,76.597,29.573C605.663,197.802,608.161,193.467,605.515,191.661L605.515,191.661z"/>
	</g>
</g>
<g opacity="0.9">
	<g>
		<path fill="#606161" d="M513.681,186.138c-7.867-26.643-43.394-25.861-65.48-23.821c-27.159,2.508-53.451,9.789-79.7,16.812
			c-3.112,0.833-1.79,5.656,1.329,4.821c24.077-6.441,48.111-13.049,72.922-16.05c20.19-2.442,58.561-5.995,66.108,19.567
			C509.771,190.552,514.596,189.238,513.681,186.138L513.681,186.138z"/>
	</g>
</g>
<g opacity="0.9">
	<g>
		<path fill="#606161" d="M449.202,149.304c-12.855,1.825-25.74,3.438-38.596,5.263c-3.182,0.452-1.823,5.269,1.329,4.821
			c12.855-1.825,25.74-3.438,38.596-5.263C453.713,153.673,452.354,148.856,449.202,149.304L449.202,149.304z"/>
	</g>
</g>
<g opacity="0.9">
	<g>
		<path fill="#606161" d="M497.981,188.557c6.752-60.502-75.494-75.997-120.044-77.938c-3.225-0.141-3.211,4.86,0,5
			c41.875,1.825,121.432,15.706,115.044,72.938C492.624,191.759,497.627,191.724,497.981,188.557L497.981,188.557z"/>
	</g>
</g>
<g opacity="0.9">
	<g>
		<path fill="#606161" d="M479.199,128.503c-35.96-17.832-74.938-28-112.877-40.603c-3.069-1.02-4.374,3.81-1.329,4.821
			c37.52,12.463,76.12,22.464,111.683,40.099C479.554,134.248,482.088,129.936,479.199,128.503L479.199,128.503z"/>
	</g>
</g>
<g opacity="0.9">
	<g>
		<path fill="#606161" d="M370.919,131.67c-55.651,0.095-112.948,8.293-164.419,30.166c-2.959,1.257-0.408,5.563,2.523,4.317
			c50.624-21.513,107.191-29.39,161.896-29.483C374.144,136.665,374.144,131.665,370.919,131.67L370.919,131.67z"/>
	</g>
</g>
<g opacity="0.9">
	<g>
		<path fill="#606161" d="M367.424,160.473c-11.47-11.086-26.818-16.228-41.455-21.696c-3.026-1.131-4.321,3.704-1.329,4.821
			c13.805,5.158,28.425,9.949,39.249,20.41C366.207,166.249,369.747,162.717,367.424,160.473L367.424,160.473z"/>
	</g>
</g>
<g opacity="0.9">
	<g>
		<path fill="#606161" d="M341.76,115.97c-35.524-10.438-72.828-8.89-109.437-8.861c-3.224,0.002-3.225,5.002,0,5
			c36.167-0.028,73.011-1.63,108.108,8.682C343.532,121.703,344.847,116.877,341.76,115.97L341.76,115.97z"/>
	</g>
</g>
<g opacity="0.9">
	<g>
		<path fill="#606161" d="M183.201,163.25c-23.288-0.001-46.674-0.041-69.511-5.174c-3.141-0.706-4.475,4.114-1.329,4.821
			c23.277,5.231,47.101,5.352,70.84,5.353C186.425,168.25,186.425,163.25,183.201,163.25L183.201,163.25z"/>
	</g>
</g>
<g opacity="0.9">
	<g>
		<path fill="#606161" d="M138.676,151.058c-25.523,10.044-52.716,13.864-80.037,13.946c-3.224,0.01-3.225,5.01,0,5
			c27.726-0.083,55.46-3.93,81.366-14.125C142.969,154.713,141.68,149.876,138.676,151.058L138.676,151.058z"/>
	</g>
</g>
<g opacity="0.9">
	<g>
		<path fill="#606161" d="M113.025,182.548c-36.917,0.093-73.609,5.17-110.526,5.263c-3.224,0.008-3.225,5.008,0,5
			c36.917-0.093,73.609-5.17,110.526-5.263C116.249,187.54,116.25,182.54,113.025,182.548L113.025,182.548z"/>
	</g>
</g>
<g opacity="0.9">
	<g>
		<path fill="#606161" d="M158.625,195.561c-10.795,12.359-27.844,16.417-43.423,18.754c-15.821,2.374-31.861,2.294-47.792,3.321
			c-3.201,0.206-3.221,5.207,0,5c16.852-1.085,33.717-1.188,50.454-3.699c15.95-2.393,33.306-7.257,44.296-19.84
			C164.272,196.679,160.75,193.128,158.625,195.561L158.625,195.561z"/>
	</g>
</g>
<g opacity="0.9">
	<g>
		<path fill="#606161" d="M179.027,182.637c-35.566,12.348-72.606,19.549-108.772,29.824c-3.096,0.879-1.779,5.705,1.329,4.822
			c36.167-10.275,73.207-17.477,108.772-29.825C183.383,186.408,182.082,181.577,179.027,182.637L179.027,182.637z"/>
	</g>
</g>
<g opacity="0.9">
	<g>
		<path fill="#606161" d="M219.378,182.637c-31.947,7.024-64.544,10.52-96.491,17.544c-3.148,0.692-1.813,5.512,1.329,4.821
			c31.947-7.024,64.544-10.52,96.491-17.544C223.855,186.766,222.52,181.946,219.378,182.637L219.378,182.637z"/>
	</g>
</g>
<g opacity="0.9">
	<g>
		<path fill="#606161" d="M237.586,173.776c-30.479,0.037-60.951,1.743-91.229,5.263c-3.164,0.368-3.199,5.372,0,5
			c30.277-3.521,60.749-5.226,91.229-5.263C240.811,178.772,240.811,173.772,237.586,173.776L237.586,173.776z"/>
	</g>
</g>
<g opacity="0.9">
	<g>
		<path fill="#606161" d="M246.358,149.214c-18.123-1.813-36.248-3.609-54.386-5.263c-3.212-0.293-3.184,4.71,0,5
			c18.138,1.654,36.263,3.451,54.386,5.263C249.566,154.535,249.535,149.532,246.358,149.214L246.358,149.214z"/>
	</g>
</g>
<g opacity="0.9">
	<g>
		<path fill="#606161" d="M228.815,129.916c-21.963-0.151-43.493-5.337-64.249-12.191c-3.07-1.014-4.376,3.815-1.329,4.821
			c21.167,6.99,43.184,12.216,65.578,12.37C232.04,134.938,232.038,129.938,228.815,129.916L228.815,129.916z"/>
	</g>
</g>
<g opacity="0.9">
	<g>
		<path fill="#606161" d="M248.113,122.898c-23.448-2.078-44.658-13.754-66.002-22.717c-2.972-1.248-4.255,3.593-1.329,4.821
			c21.859,9.179,43.322,20.768,67.332,22.896C251.326,128.183,251.298,123.181,248.113,122.898L248.113,122.898z"/>
	</g>
</g>
<g opacity="0.9">
	<g>
		<path fill="#606161" d="M277.951,139.42c-25-19.337-55.527-27.001-85.314-35.73c-3.102-0.909-4.417,3.917-1.329,4.821
			c28.83,8.449,58.889,15.712,83.108,34.444C276.932,144.902,280.499,141.391,277.951,139.42L277.951,139.42z"/>
	</g>
</g>
<g opacity="0.9">
	<g>
		<path fill="#606161" d="M324.216,140.532c-31.15-7.184-56.569-27.331-85.368-40.099c-2.92-1.294-5.466,3.013-2.523,4.317
			c29.197,12.945,54.977,33.318,86.562,40.603C326.025,146.077,327.357,141.256,324.216,140.532L324.216,140.532z"/>
	</g>
</g>
<g opacity="0.9">
	<g>
		<path fill="#606161" d="M307.775,130.648c-18.258-19.801-41.945-33.347-65.418-46.005c-2.837-1.53-5.362,2.787-2.523,4.317
			c23.114,12.465,46.425,25.723,64.406,45.223C306.43,136.559,309.957,133.014,307.775,130.648L307.775,130.648z"/>
	</g>
</g>
<g opacity="0.9">
	<g>
		<path fill="#606161" d="M363.916,132.403c-16.198-20.039-26.999-44.045-47.874-60.04c-2.56-1.961-5.045,2.385-2.523,4.317
			c20.372,15.609,31.037,39.681,46.862,59.258C362.408,138.447,365.923,134.886,363.916,132.403L363.916,132.403z"/>
	</g>
</g>
<g opacity="0.9">
	<g>
		<path fill="#606161" d="M353.389,100.824c-12.525-10.734-25.133-21.381-39.103-30.216c-2.734-1.729-5.24,2.599-2.523,4.317
			c13.613,8.61,25.885,18.974,38.091,29.434C352.288,106.445,355.841,102.925,353.389,100.824L353.389,100.824z"/>
	</g>
</g>
<g opacity="0.9">
	<g>
		<path fill="#606161" d="M375.69,103.942c-23.291-12.625-45.13-27.726-68.421-40.351c-2.835-1.537-5.358,2.78-2.523,4.317
			c23.291,12.625,45.13,27.726,68.421,40.351C376.001,109.796,378.525,105.479,375.69,103.942L375.69,103.942z"/>
	</g>
</g>
<g opacity="0.9">
	<g>
		<path fill="#606161" d="M418.301,132.403c-14.506-16.262-30.041-31.634-47.874-44.25c-2.639-1.867-5.133,2.472-2.523,4.317
			c17.473,12.361,32.653,27.54,46.862,43.468C416.917,138.349,420.44,134.8,418.301,132.403L418.301,132.403z"/>
	</g>
</g>
<g opacity="0.9">
	<g>
		<path fill="#606161" d="M450.271,131.154c-15.044-25.927-37.894-47.041-62.3-64.055c-2.652-1.849-5.148,2.488-2.523,4.317
			c23.689,16.515,45.907,37.102,60.506,62.261C447.571,136.465,451.893,133.949,450.271,131.154L450.271,131.154z"/>
	</g>
</g>
<g opacity="0.9">
	<g>
		<path fill="#606161" d="M505.515,140.784c-25.221-12.857-44.747-34.314-62.652-55.749c-2.069-2.478-5.587,1.079-3.535,3.535
			c18.166,21.748,38.076,43.488,63.664,56.531C505.857,146.562,508.388,142.249,505.515,140.784L505.515,140.784z"/>
	</g>
</g>
<g opacity="0.9">
	<g>
		<path fill="#606161" d="M506.672,135.269c-15.123-5.886-26.9-17.88-37.381-29.869c-10.301-11.783-19.405-24.57-29.937-36.155
			c-2.173-2.391-5.699,1.156-3.535,3.535c21.306,23.437,38.59,55.27,69.524,67.31C508.352,141.261,509.643,136.425,506.672,135.269
			L506.672,135.269z"/>
	</g>
</g>
<g opacity="0.9">
	<g>
		<path fill="#606161" d="M549.88,171c-21.063-24.717-38.368-52.271-57.504-78.441c-1.882-2.574-6.224-0.084-4.317,2.523
			c19.389,26.516,36.943,54.41,58.286,79.453C548.44,176.993,551.958,173.438,549.88,171L549.88,171z"/>
	</g>
</g>
<g opacity="0.9">
	<g>
		<path fill="#606161" d="M581.458,165.736c-24.354-24.565-42.168-54.38-62.766-81.95c-1.906-2.551-6.25-0.063-4.318,2.523
			c20.851,27.909,38.895,58.095,63.549,82.962C580.196,171.564,583.73,168.027,581.458,165.736L581.458,165.736z"/>
	</g>
</g>
<g opacity="0.9">
	<g>
		<path fill="#606161" d="M583.605,139.926c-16.111-26.701-35.437-51.265-56.531-74.19c-2.188-2.377-5.714,1.167-3.535,3.535
			c20.815,22.622,39.852,46.831,55.748,73.178C580.951,145.206,585.275,142.694,583.605,139.926L583.605,139.926z"/>
	</g>
</g>
<g opacity="0.9">
	<g>
		<path fill="#606161" d="M612.533,140.784c-24.595-11.646-43.909-33.302-60.898-53.995c-2.047-2.494-5.563,1.065-3.535,3.535
			c17.239,20.999,36.946,42.957,61.91,54.777C612.907,146.473,615.446,142.163,612.533,140.784L612.533,140.784z"/>
	</g>
</g>
<g opacity="0.9">
	<g>
		<path fill="#606161" d="M657.549,172.111c-39.372-10.882-75.676-30.011-111.684-48.871c-2.853-1.494-5.381,2.821-2.523,4.317
			c36.379,19.055,73.101,38.38,112.877,49.375C659.333,177.793,660.653,172.969,657.549,172.111L657.549,172.111z"/>
	</g>
</g>
<g opacity="0.9">
	<g>
		<path fill="#606161" d="M689.725,219.73c-53.24-29.14-108.759-54.555-153.88-96.1c-2.367-2.18-5.912,1.347-3.535,3.535
			c45.453,41.851,101.256,67.525,154.892,96.883C690.031,225.597,692.554,221.279,689.725,219.73L689.725,219.73z"/>
	</g>
</g>
<g opacity="0.9">
	<g>
		<path fill="#606161" d="M717.199,233.514c-37.827-5.727-68.648-30.694-101.158-48.87c-2.817-1.575-5.338,2.744-2.523,4.317
			c32.874,18.38,64.097,43.583,102.352,49.375C719.022,238.813,720.377,233.995,717.199,233.514L717.199,233.514z"/>
	</g>
</g>
<g opacity="0.9">
	<g>
		<path fill="#606161" d="M749.375,244.293c-41.137-25.882-90.543-33.241-135.685-49.375c-3.044-1.088-4.343,3.745-1.33,4.821
			c44.73,15.987,93.735,23.229,134.491,48.87C749.588,250.332,752.095,246.005,749.375,244.293L749.375,244.293z"/>
	</g>
</g>
<g opacity="0.9">
	<g>
		<path fill="#606161" d="M769.166,222.898c-42.301-1.816-84.333-7.033-126.316-12.28c-3.194-0.399-3.155,4.605,0,5
			c41.983,5.247,84.016,10.464,126.316,12.28C772.39,228.037,772.377,223.036,769.166,222.898L769.166,222.898z"/>
	</g>
</g>
<g opacity="0.9">
	<g>
		<path fill="#606161" d="M917.884,206.593c-8.097,12.604-19.599,21.523-32.438,28.928c-2.792,1.609-0.274,5.931,2.523,4.316
			c13.585-7.834,25.674-17.399,34.23-30.721C923.95,206.395,919.62,203.891,917.884,206.593L917.884,206.593z"/>
	</g>
</g>
<g opacity="0.9">
	<g>
		<path fill="#606161" d="M893.322,210.102c-4.548,7.508-9.628,14.745-16.646,20.156c-2.516,1.938-0.03,6.285,2.523,4.316
			c7.746-5.971,13.406-13.639,18.441-21.949C899.315,209.86,894.99,207.349,893.322,210.102L893.322,210.102z"/>
	</g>
</g>
<g opacity="0.9">
	<g>
		<path fill="#606161" d="M877.281,196.664c-3.385,8.13-8.534,15.206-13.783,22.21c-1.936,2.583,2.409,5.07,4.318,2.523
			c5.546-7.401,10.715-14.825,14.285-23.404C883.34,195.017,878.5,193.732,877.281,196.664L877.281,196.664z"/>
	</g>
</g>
<g opacity="0.9">
	<g>
		<path fill="#606161" d="M879.287,183.786c-10.332,13.529-24.005,23.684-39.453,30.682c-2.934,1.329-0.39,5.637,2.523,4.317
			c16.297-7.382,30.375-18.239,41.248-32.476C885.562,183.746,881.216,181.26,879.287,183.786L879.287,183.786z"/>
	</g>
</g>
<g opacity="0.9">
	<g>
		<path fill="#606161" d="M858.626,192.052c-8.963,7.005-19.189,12.085-29.319,17.152c-2.884,1.443-0.352,5.755,2.523,4.317
			c10.553-5.278,21-10.642,30.331-17.935C864.701,193.604,861.135,190.091,858.626,192.052L858.626,192.052z"/>
	</g>
</g>
<g opacity="0.9">
	<g>
		<path fill="#606161" d="M826.396,184.392c-5.172,1.606-10.619,1.902-15.789,3.509c-3.069,0.954-1.759,5.781,1.328,4.821
			c5.172-1.606,10.618-1.902,15.789-3.509C830.793,188.26,829.483,183.433,826.396,184.392L826.396,184.392z"/>
	</g>
</g>
<g opacity="0.9">
	<g>
		<path fill="#606161" d="M858.639,191.32c-24.571,1.416-50.028-12.628-64.509-32.095c-1.9-2.556-6.244-0.067-4.316,2.523
			c15.508,20.85,42.395,36.094,68.825,34.572C861.844,196.135,861.862,191.134,858.639,191.32L858.639,191.32z"/>
	</g>
</g>
<g opacity="0.9">
	<g>
		<path fill="#606161" d="M840.005,186.146c-23.113-8.953-45.983-20.395-63.81-37.954c-2.298-2.264-5.835,1.27-3.535,3.535
			c18.467,18.19,42.077,29.967,66.017,39.24C841.688,192.134,842.979,187.297,840.005,186.146L840.005,186.146z"/>
	</g>
</g>
<g opacity="0.9">
	<g>
		<path fill="#606161" d="M836.496,200.181c-17.065-6.968-31.503-18.026-44.51-30.936c-2.29-2.273-5.826,1.262-3.535,3.535
			c13.665,13.564,28.805,24.909,46.717,32.222C838.153,206.222,839.44,201.383,836.496,200.181L836.496,200.181z"/>
	</g>
</g>
<g opacity="0.9">
	<g>
		<path fill="#606161" d="M797.249,179.771c-10.526-10.526-21.053-21.053-31.579-31.579c-2.281-2.282-5.817,1.253-3.535,3.535
			c10.526,10.526,21.053,21.053,31.579,31.579C795.995,185.589,799.531,182.053,797.249,179.771L797.249,179.771z"/>
	</g>
</g>
<g opacity="0.9">
	<g>
		<path fill="#606161" d="M790.231,183.28c-16.312-19.83-34.493-38.003-52.632-56.141c-2.281-2.282-5.817,1.253-3.535,3.535
			c18.139,18.138,36.32,36.311,52.632,56.141C788.746,189.308,792.262,185.749,790.231,183.28L790.231,183.28z"/>
	</g>
</g>
<g opacity="0.9">
	<g>
		<path fill="#606161" d="M767.816,176.769c-10.598-15.841-22.18-30.739-37.234-42.611c-2.502-1.974-6.066,1.54-3.535,3.535
			c14.73,11.618,26.078,26.093,36.451,41.6C765.281,181.957,769.614,179.457,767.816,176.769L767.816,176.769z"/>
	</g>
</g>
<g opacity="0.9">
	<g>
		<path fill="#606161" d="M752.025,173.26c-9.109-12.654-19.227-24.533-30.215-35.594c-2.274-2.29-5.81,1.246-3.535,3.535
			c10.687,10.758,20.571,22.273,29.434,34.582C749.574,178.374,753.914,175.882,752.025,173.26L752.025,173.26z"/>
	</g>
</g>
<g opacity="0.9">
	<g>
		<path fill="#606161" d="M726.568,161.836c-16.435-11.068-31.27-24.271-46.863-36.451c-2.509-1.96-6.074,1.552-3.535,3.535
			c15.928,12.443,31.087,25.927,47.875,37.233C726.727,167.96,729.226,163.627,726.568,161.836L726.568,161.836z"/>
	</g>
</g>
<g opacity="0.9">
	<g>
		<path fill="#606161" d="M869.83,226.496c-26.166-8.85-50.237-22.496-74.842-34.835c-2.873-1.441-5.406,2.872-2.523,4.317
			c24.992,12.534,49.457,26.35,76.037,35.34C871.564,232.354,872.867,227.523,869.83,226.496L869.83,226.496z"/>
	</g>
</g>
<g opacity="0.9">
	<g>
		<path fill="#606161" d="M843.513,233.514c-34.713-12.061-70.701-19.339-107.017-24.561c-3.153-0.454-4.511,4.364-1.33,4.821
			c36.316,5.222,72.305,12.5,107.019,24.562C845.239,239.396,846.54,234.565,843.513,233.514L843.513,233.514z"/>
	</g>
</g>
<g opacity="0.9">
	<g>
		<path fill="#606161" d="M799.654,237.022c-31.195-8.665-62.421-17.332-92.981-28.07c-3.051-1.072-4.351,3.76-1.33,4.821
			c30.562,10.738,61.786,19.405,92.983,28.071C801.438,242.709,802.756,237.885,799.654,237.022L799.654,237.022z"/>
	</g>
</g>
<g opacity="0.9">
	<g>
		<path fill="#606161" d="M815.443,254.566c-31.459-5.352-61.876-15.713-93.646-19.387c-3.199-0.37-3.164,4.634,0,5
			c31.31,3.62,61.31,13.934,92.318,19.209C817.267,259.925,818.617,255.106,815.443,254.566L815.443,254.566z"/>
	</g>
</g>
<g opacity="0.9">
	<g>
		<path fill="#606161" d="M832.324,266.758c-34.063-0.094-67.791-5.164-101.755-7.018c-3.224-0.176-3.206,4.825,0,5
			c33.964,1.854,67.692,6.924,101.755,7.018C835.548,271.767,835.547,266.767,832.324,266.758L832.324,266.758z"/>
	</g>
</g>
<g opacity="0.9">
	<g>
		<path fill="#606161" d="M828.814,277.284c-28.109-0.04-56.166-1.756-84.21-3.509c-3.222-0.201-3.202,4.8,0,5
			c28.044,1.753,56.101,3.469,84.21,3.509C832.039,282.289,832.039,277.289,828.814,277.284L828.814,277.284z"/>
	</g>
</g>
<g opacity="0.9">
	<g>
		<path fill="#606161" d="M842.849,291.319c-32.784-0.001-65.6-0.14-98.245-3.509c-3.206-0.331-3.175,4.672,0,5
			c32.646,3.369,65.461,3.508,98.245,3.509C846.074,296.319,846.074,291.319,842.849,291.319L842.849,291.319z"/>
	</g>
</g>
<g opacity="0.9">
	<g>
		<path fill="#606161" d="M869.166,312.372c-64.367-0.035-128.655-3.459-192.982-5.263c-3.227-0.091-3.218,4.91,0,5
			c64.327,1.804,128.615,5.228,192.982,5.263C872.39,317.374,872.39,312.374,869.166,312.372L869.166,312.372z"/>
	</g>
</g>
</svg>
