<?xml version="1.0" encoding="utf-8"?>
<!-- Generator: Adobe Illustrator 16.0.0, SVG Export Plug-In . SVG Version: 6.00 Build 0)  -->
<!DOCTYPE svg PUBLIC "-//W3C//DTD SVG 1.1//EN" "http://www.w3.org/Graphics/SVG/1.1/DTD/svg11.dtd">
<svg version="1.1" id="Layer_1" xmlns="http://www.w3.org/2000/svg" xmlns:xlink="http://www.w3.org/1999/xlink" x="0px" y="0px"
	 width="750.9px" height="317.5px" viewBox="0 0 750.9 317.5" enable-background="new 0 0 750.9 317.5" xml:space="preserve">
<path fill="#FFFFFF" d="M736.633,227.773c3.09,5.66,11.727,0.615,8.636-5.047c-6.899-12.642-19.421-21.309-32.67-27.855
	c0.519-1.561,0.217-3.281-0.736-4.583c0.511-0.228,1.024-0.442,1.529-0.685c4.489,0.342,9.06,0.111,13.56-0.354
	c5.192-0.538,7.293-8.69,1.329-9.821c-2.354-0.445-4.86-0.757-7.418-1.074c-0.103-1.865-1.189-3.547-3.582-3.926
	c-0.447-0.07-0.889-0.111-1.331-0.164c0.001-0.006,0.001-0.01,0.002-0.015c-0.028,0.001-0.058,0.002-0.086,0.003
	c-0.313-0.037-0.621-0.061-0.933-0.088c0.771-0.525,1.39-1.242,1.746-2.096c1.212-0.262,2.415-0.582,3.602-0.998
	c4.262-1.499,4.779-6.576,1.193-9.139c-3.494-2.498-7.188-4.659-11.021-6.556c-0.496-1.477-1.019-2.947-1.563-4.41
	c-0.022-1.029-0.383-2.072-1.174-2.995c-2.597-6.338-5.882-12.318-10.523-17.164c1.031-0.231,2.063-0.477,3.089-0.738
	c5.109-1.302,4.409-8.034,0-9.643c-30.421-11.095-63.337-12.766-95.653-14.987c4.109-4.638,7.099-10.21,9.146-16.863
	c1.549-5.035-4.799-8.049-8.356-4.865c-6.1,5.458-9.963,12.541-13.383,19.846c-0.438,0.294-0.882,0.578-1.331,0.855
	c-3.241-0.262-6.475-0.541-9.69-0.854c-7.587-0.737-15.159-1.567-22.729-2.414c-18.21-2.495-36.521-4.339-54.873-5.416
	c-0.339-0.134-0.713-0.238-1.128-0.304c-2.295-0.364-4.554-0.856-6.788-1.425c-10.757-5.521-22.857-8.715-34.629-11.345
	c24.752,1.429,49.903,2.282,73.413-5.583c4.215-1.41,5.295-8.881,0-9.643c-25.553-3.676-51.255-5.458-77.005-6.472
	c-0.844-0.917-1.977-1.578-3.324-1.707c-27.863-2.667-56.627-3.372-84.833-0.438c-7.427-0.209-14.899-0.418-22.39-0.541
	c13.844-4.762,28.875-6.282,43.361-6.796c19.199-0.682,38.538,0.835,57.532,3.597c6.305,0.917,9.021-8.718,2.658-9.643
	c-20.43-2.971-41.065-4.634-61.718-3.9c-20.165,0.716-41.149,3.759-59.135,13.404c-1.465,0.786-2.205,1.988-2.396,3.274
	c-17.251,0.218-34.453,1.297-51.246,4.291c-10.815-0.147-21.631,0.145-32.385,1.332c-15.326,1.692-32.821,5.129-43.899,16.8
	c-15.281,4.427-29.504,11.737-41.086,23.084c-1.166,1.142-1.579,2.445-1.48,3.683c-5.956,3.852-11.544,8.239-16.52,13.317
	c-3.196,3.262-0.586,7.756,2.813,8.469c-0.808,0.482-1.614,0.974-2.423,1.452c-2.72,1.607-5.441,3.266-8.108,5.013
	c-13.205,2.882-26.249,6.702-39.071,11.776c-3.95,1.563-4.108,6.374-2.002,8.708c-0.117,0.271-0.203,0.551-0.271,0.836
	c-1.255,0.368-2.508,0.75-3.757,1.149c-2.186-1.354-5.132-0.711-6.622,1.313c-0.545-1.245-1.105-2.483-1.701-3.709
	c-2.092-4.305-9.946-2.42-9.317,2.523c0.537,4.217,1.118,8.427,1.671,12.638c-1.302-2.468-2.74-4.863-4.354-7.16
	c-1.973-2.811-6.396-3.007-8.358-0.669c-2.984-4.1-6.55-7.686-11.436-10.126c-2.832-1.414-6.486-0.296-7.345,2.988
	c-0.679,2.597-1.157,5.229-1.585,7.869c-1.62,0.605-2.804,2.078-2.594,4.46c0.025,0.28,0.058,0.562,0.083,0.842
	c-1.238,0.737-2.11,2.106-2.083,4.158c0.094,7.241,1.008,14.405,3.179,21.329c0.629,2.005,1.977,3.094,3.477,3.438
	c0.483,2.19,0.985,4.379,1.523,6.563c1.362,5.521,9.863,4.287,9.821-1.329c-0.017-2.31-0.1-4.614-0.206-6.918
	c1.624,6.157,3.22,12.323,5.384,18.247c0.965,2.642,3.125,3.716,5.18,3.511c0.552,2.507,1.149,5.006,1.82,7.489
	c1.449,5.365,10.135,4.394,9.821-1.329c-0.463-8.452-1.447-16.851-2.503-25.24c0.91,3.2,1.782,6.403,2.682,9.569
	c1.583,5.564,9.542,4.238,9.821-1.329c0.105-2.111,0.133-4.216,0.129-6.318c2.811,2.298,5.758,4.372,8.818,6.265
	c0.18,0.281,0.389,0.545,0.631,0.779c0.516,1.539,1.039,3.077,1.6,4.604c1.752,4.765,7.213,4.445,9.168,0.732
	c4.553,2.144,9.238,4.063,13.971,5.894c1.356,0.737,2.732,1.44,4.121,2.124c0.083,0.146,0.161,0.297,0.244,0.443
	c1.261,2.24,3.529,2.819,5.528,2.217c6.541,2.828,13.306,5.186,20.025,7.315c9.103,4.238,18.773,7.572,28.764,6.944
	c0.975-0.063,1.917-0.444,2.722-1.029c0.366,0.178,0.731,0.358,1.098,0.533c12.633,6.023,26.151,10.125,39.673,13.605
	c12.299,3.166,24.767,5.65,37.257,7.934c6.297,1.15,12.587,2.477,18.916,3.418c3.962,0.59,7.943,0.999,11.93,1.365
	c6.8,0.998,13.61,1.742,20.404,2.174c2.65,0.168,4.342-1.855,4.791-4.113c12.623,1.418,25.261,1.689,37.538-1.064
	c1.222-0.274,2.125-0.938,2.719-1.795c4.607,0.578,9.254,0.929,13.952,0.974c1.637,0.016,2.936-0.747,3.795-1.853
	c20.529,4.01,41.745,7.459,62.287,4.313c6.979,0.697,13.963,1.354,20.973,1.807c6.422,0.413,12.968,0.649,19.518,0.518
	c15.325,6.609,32.828,9.176,49.429,8.217c5.341-0.309,7.161-8.805,1.329-9.821c-2.424-0.423-4.849-0.853-7.271-1.284
	c2.59-0.221,5.182-0.449,7.773-0.681c0.931,1.446,2.465,2.59,4.169,2.786c16.555,1.904,33.035-0.166,49.329-3.18
	c1.501-0.276,2.535-1.281,3.097-2.545c2.188-0.141,4.38-0.248,6.574-0.275c1.334-0.018,2.388-0.458,3.17-1.143
	c3.967,0.315,7.931,0.653,11.895,1.002c0.788,1.145,2.089,2,3.937,2.141c10.755,0.818,21.536,0.955,32.313,1.104
	c8.389,0.922,17.07,2.018,25.575,1.936c0.504,0.398,1.096,0.688,1.781,0.783c3.88,0.548,8.409,0.615,13.027,0.83
	c0.39,2.914,0.873,5.811,1.479,8.678c0.526,2.484,3.709,4.424,6.15,3.492c4.073-1.555,7.149-3.935,9.604-6.832
	c0.079,0.447,0.172,0.891,0.244,1.34c0.667,4.148,5.001,4.434,7.65,2.377c2.778,3.668,5.456,7.498,8.636,10.829
	c2.563,2.687,6.752,4.655,9.86,6.665c3.571,2.309,7.271,4.371,11.15,6.117c4.539,2.042,9.225-2.14,6.841-6.842
	c-2.091-4.125-4.36-8.138-6.732-12.086c1.185-1.135,1.821-2.801,1.237-4.72c-0.632-2.069-1.323-4.112-2.058-6.138
	c2.074-0.848,3.622-3.038,3.058-5.862c-2.591-12.925-5.243-25.813-10.634-37.909c-2.375-5.33-5.459-10.229-9.024-14.766
	C725.769,214.139,732.476,220.158,736.633,227.773z M319.324,74.213c0.064,0.188,0.133,0.373,0.221,0.551
	c-12.09-0.174-24.201-0.629-36.14-2.101c5.565,0.179,11.125,0.434,16.668,0.715C306.486,73.704,312.904,73.971,319.324,74.213z
	 M438.852,71.45c2.381-0.29,4.758-0.608,7.131-0.946c17.579,0.528,35.145,1.352,52.652,2.849
	C478.777,74.503,458.427,72.366,438.852,71.45z M247.173,73.441c1.314-0.126,2.632-0.213,3.948-0.313
	c0.111,0.666,0.354,1.307,0.721,1.883c-5.777-0.211-11.645-0.204-17.527,0.085C238.693,74.328,243.065,73.835,247.173,73.441z
	 M507.683,183.354c-13.956,3.379-28.117,5.771-42.382,7.217c-11.16,0.412-22.33,0.354-33.519-0.066
	c-8.892-0.335-17.43-0.807-26.314,0.159c-9.332,1.015-18.558,2.763-27.932,3.41c-18.272,1.262-37.036-0.226-55.328-0.741
	c-18.688-0.527-37.375-1.059-56.072-1.081c-4.05-0.452-8.071-1.024-12.028-1.802c-0.51-0.469-1.114-0.835-1.829-1.021
	c-4.128-1.07-8.281-2.027-12.444-2.935c-10.281-3.646-19.977-8.276-30.609-10.267c12.495-2.127,24.991-4.25,37.526-6.101
	c6.541-0.36,13.079-0.828,19.559-1.69c0.38,0.026,0.761,0.053,1.141,0.078c32.241,2.154,64.586,0.112,96.8-1.52
	c15.642-0.792,31.297-1.545,46.958-1.956c1.32,0.308,2.643,0.604,3.967,0.896c3.44,0.914,6.921,1.655,10.445,2.135
	c2.79,0.381,4.905-1.286,5.811-3.344c9.42-0.037,18.838,0.094,28.254,0.467c21.592,0.854,42.983,3.785,64.443,6.104
	c1.554,1.652,2.822,3.439,3.827,5.325C521.863,180.135,514.413,181.725,507.683,183.354z M721.924,275.709
	c0.913,1.406,1.812,2.822,2.699,4.244c-1.481-0.955-2.884-1.998-4.003-3.194C721.124,276.525,721.563,276.175,721.924,275.709z"/>
<g id="Layer_3">
	<g id="Layer_1_2_">
		<g id="eyelid" display="none">
			<path display="inline" fill="none" d="M687.6,173.25c0-38.66-36.155-73.66-94.613-98.995S453.768,33.25,364.563,33.25
				c-89.205,0-169.962,15.67-228.42,41.005S41.528,134.59,41.528,173.25s36.157,73.66,94.615,98.995S275.36,313.25,364.564,313.25
				c89.205,0,169.963-15.67,228.421-41.005S687.6,211.91,687.6,173.25z"/>
		</g>
		<g id="Layer_1_1_">
			<path fill="none" stroke="#000000" stroke-miterlimit="10" d="M700-190.2c-23.5-24.1-41.7-54.3-76.8-61.4
				C581.1-260.1,541-271.9,499.6-284.9c-43.1-13.5-90.8-9.9-135-4c-27.7,3.7-45.7,14.7-71.6,22.9c-16.5,5.2-35.2,5.1-50.5,14
				c-10.7,6.2-19.1,16.3-29.8,22.8c-23.9,14.7-45,32.4-71.7,42.9c-15.2,6-30.7,10.6-46.1,15.3c-11.3,3.4-31.9,4.8-40.4,10.6"/>
			<path fill="none" stroke="#000000" stroke-miterlimit="10" d="M700-141.1c-31.8-11-43.4-23.5-59.3-52.2
				c-13-23.5-29.2-46.5-54.9-57.9c-37.3-16.6-91.397-17.2-131.5-21.3c-38.1-3.9-73.8-12.9-112.5-9.3c-38.8,3.6-67.9,24.6-103.2,38.5
				c-31.7,12.5-37.4,39-68.4,52.3c-19.6,8.4-47.4,59.3-135.1,27.1"/>
			<path fill="none" stroke="#000000" stroke-miterlimit="10" d="M87.7-160.4c16.5-1.3,31-8.6,49.5-8.8c20.3-0.2,38.8,2,58.6,4.9
				c46.6,6.7,78.2,29.1,119.5,51.7c29.1,15.9,59,32.1,91.7,36.7c28.8,4.1,60.5,1.9,89.4-0.8c70.397-6.6,136.6-60.5,207.1-36.4"/>
			<path fill="none" stroke="#000000" stroke-miterlimit="10" d="M687.7-114.7c-6.6-2.9-24-9.6-26.4-17.1c-5.4-16.3,15-11,26.4-11"
				/>
			<path fill="none" stroke="#000000" stroke-miterlimit="10" d="M384-106.8c-40.8-4.9-57.4-48.3-49.1-82.7c10.1-41.5,52-55.7,92-55
				c44.197,0.7,102,23.5,98.197,75.6c-3,40.4-41.897,61.6-77.5,65.7c-25.397,2.9-45.497-6.7-70.1-8.1"/>
			<path fill="none" stroke="#000000" stroke-miterlimit="10" d="M421.7-149.6c-19.5,0.9-46.2-9.3-36-35
				c7.5-19.1,39.1-21.6,57.1-17.1c14.103,3.5,41.5,30,28.9,47.8c-9.5,13.4-51.5,4.1-65.6,2.2"/>
			<path fill="none" stroke="#000000" stroke-miterlimit="10" d="M698.2-101.1c-35.8-23.6-66.5,11.1-100,28.2
				c-31,15.8-73.103,19.4-107.5,22.8c-82.5,8-145-34.6-216.8-67.6c-6.2-2.8-12.1-5.5-17.9-7.5"/>
			<path fill="none" stroke="#000000" stroke-miterlimit="10" d="M221.1-132.3c-19.7-36.7-87.6-18.3-119.3-19.3"/>
			<path fill="none" stroke="#000000" stroke-miterlimit="10" d="M631.6-235.8c-11.3-17.7,6.7-39.6-7-57.9"/>
			<path fill="none" stroke="#000000" stroke-miterlimit="10" d="M594.7-260.4c-16.603-2.4-37.9-26.7-49.103-38.6"/>
			<path fill="none" stroke="#000000" stroke-miterlimit="10" d="M470.2-288.4c8.397,3.9,16.8,8.1,26.3,7"/>
			<path fill="none" stroke="#000000" stroke-miterlimit="10" d="M445.6-279.6c-6.6-10.8-10.197-22.1-10.5-35.1"/>
			<path fill="none" stroke="#000000" stroke-miterlimit="10" d="M417.5-283.2c-13.101-3.7-36.7-10-33.3-28.1"/>
			<path fill="none" stroke="#000000" stroke-miterlimit="10" d="M357.9-281.4c-10.5-2.5-20-9.7-24.6-19.3"/>
			<path fill="none" stroke="#000000" stroke-miterlimit="10" d="M324.6-270.9c-11-1.2-30.6-7.5-36.8-17.5"/>
			<path fill="none" stroke="#000000" stroke-miterlimit="10" d="M229.8-260.4c7.5,3.6,14.6,6.9,22.8,7"/>
			<path fill="none" stroke="#000000" stroke-miterlimit="10" d="M170.2-227c5.4,4.7,13.7,7.1,21.1,10.5"/>
			<path fill="none" stroke="#000000" stroke-miterlimit="10" d="M170.2-202.5c-9.7,0.2-20.7,2.3-26.3-7"/>
			<path fill="none" stroke="#000000" stroke-miterlimit="10" d="M138.6-184.9c-9.6-0.9-18.1-5-24.6-12.3"/>
			<path fill="none" stroke="#000000" stroke-miterlimit="10" d="M473.7-309.5c13,3.6,20.5,14.7,24.6,28.1"/>
			<path fill="none" stroke="#000000" stroke-miterlimit="10" d="M470.2-284.9c-7.9-11.3-14.103-21.6-17.5-35.1"/>
			<path fill="none" stroke="#000000" stroke-miterlimit="10" d="M505.3-311.2c3.103,13.1,2.8,24.4,10.5,36.8"/>
			<path fill="none" stroke="#000000" stroke-miterlimit="10" d="M543.9-272.6c-1.603-9.9-7.2-21.6-12.303-29.8"/>
			<path fill="none" stroke="#000000" stroke-miterlimit="10" d="M450.9-62.1c-13.2,0.3-24.803,5.5-33.3,15.8"/>
			<path fill="none" stroke="#000000" stroke-miterlimit="10" d="M310.5-86.7c12.4,0,27.8-2.9,38.6,3.5"/>
			<path fill="none" stroke="#000000" stroke-miterlimit="10" d="M308.8-109.5c-16.7,0-35.9-1.1-50.9,5.3"/>
			<path fill="none" stroke="#000000" stroke-miterlimit="10" d="M254.4-130.5c-12.8,2.8-19.8,5.4-29.8,14"/>
			<path fill="none" stroke="#000000" stroke-miterlimit="10" d="M147.4-139.3c10-10.9,27.5-20.1,42.1-19.3"/>
			<g display="none">
				<g display="inline">
					<path d="M423.6-179.1c-4.6,4.8-9.999,7.2-9.6,14.7c0.101,1.5,1.601,3,3.2,2.4c3.6-1.3,7.2-3.1,8.7-6.9c1.1-2.9-1-5.8-3.4-7.2
						c-8.601-5.2-16.601,4.1-19.101,11.3c-0.299,1,0.201,2.3,1.101,2.8c6.3,3.4,13.899,2.7,19-2.6c4-4.2,2.2-10-3.601-10.8
						c0.601,0.8,1.198,1.6,1.801,2.4l0,0c-0.801,0.8-1.7,1.7-2.5,2.5c6.8,0.3,9.7-5.6,3.5-10c-6.5-4.7-4.1,10.4-4.2,11.1
						c1-0.6,2-1.2,3.1-1.7c0.5,0.4,1,0.8,1.5,1.2c-1.1-3-5.397-1.9-4.8,1.3c0,0.1,0,0.1,0,0.2c0.1,0.8,1,1.6,1.7,1.7
						c3.6,0.6,9.8-6.2,11.2-9.2c0.8-1.7-0.2-3.7-2.2-3.8c-3.3-0.1-4.7,5.9-5.7,8.2c-0.897,2.1-1.8,4.4-0.7,6.5
						c2.103,4.1,11-1.2,13.9-1.4c3.1-0.3,3.3-5.1,0-5c-1.8,0-3.5-3.6-4.3-4.9c-1.5-2.4-3-5.1-5.3-6.8
						c-7.001-5.3-12.603,4.9-15.103,10c-0.6,1.2-0.398,2.8,0.9,3.4c9.1,4.8,17.6,3.8,25.8-2.2c1.3-1,1.7-2.7,0.5-3.9
						c-4.7-5.1-11.5-11.5-19.103-9.6c-5.1,1.3-7.897,6.8-8.897,11.5c-0.7,3.4-1.103,9.7,2.7,11.5c5.697,2.7,9.8-6.9,11.5-10.6
						c0.5-1.2,0.397-2.8-0.9-3.4c-3.6-1.8-7.697-4.5-11.898-4.4c-4.399,0.2-7.399,4.9-9.602,8.1c-0.6,0.9-0.398,2.3,0.4,3
						c4.398,3.9,11.197,10.1,17.697,8.2c4.303-1.3,5.4-6.3,4.803-10.1c-0.5-3.4-2.3-7.3-6.2-7.6c-5.8-0.4-8,9.7-8.897,13.5
						c-0.4,1.7,0.799,2.9,2.397,3.2c3.5,0.5,7.2,1.3,10.6,0.1c3.5-1.1,5.803-4.8,8-7.5c0.803-1,1.103-2.6,0-3.5
						c-9.397-7.8-20.8-9.3-27.198,2.7c-0.5,1-0.399,2.2,0.398,3c4.803,4.6,14.303,10.7,18.9,2.3c3-5.6,0.1-13.6-5.7-15.9
						c-6.7-2.8-20.7,1.6-19.3,10.6c1.398,8.8,12.8,14.1,20.697,14.3c1,0,2.2-0.8,2.4-1.8c0.7-3.5,2.4-6.7,3.102-10.2
						c0.601-2.8-3-4.3-4.602-1.9c-1.5,2.3-4.1,5.2-3.9,8.1c0.201,2.7,2.803,5.3,3.5,7.9c0.603,1.9,3.603,2.6,4.603,0.6
						c1.8-3.8,3.3-7.9,5.1-11.7c1.103-2.4-2-5.4-3.897-3c-3.103,3.7-4.7,7.9-7.2,12c-1.101,1.8,0.399,3.5,2.2,3.8
						c11.397,1.4,21.2-1.2,25.1-12.9c0.9-2.8-3.1-4.3-4.6-1.9c-7.2,11.9-26.7,18.9-39.2,11.3c-7.101-4.3-8.399-15.2-4.899-22.2
						c4.399-8.5,15.5-11.2,24.302-11.3c9.197,0,16.5,3.7,22.8,10.2c3.3,3.5,6.397,7.9,6.1,12.9c-0.6,8.9-13.7,12.4-20.6,13.7
						c-10.303,1.9-22.4,1.1-31.602-4.3c-9.801-5.8-11.5-19.2-4-27.8c6-6.9,16.199-9.8,25-11.2c8.802-1.4,18.602-1,25.899,4.6
						c9.3,7.2,12.7,18.1,3.899,27.1c-7.899,8.1-21,10.4-31.699,8.2c-9.301-1.9-24.4-9.2-18.5-20.9c4.8-9.6,17.199-14.7,27.3-15.5
						c14.1-1.1,25.1,7.3,30.1,20.2c2.8,7.3,5,16.7-4.3,20c-8,2.8-17.7,0.8-25.7-0.9c-3.2-0.7-4.2,3.6-1.3,4.8
						c13.5,5.6,32.7,2.4,41.7-10c9.2-12.7,0-27-11.9-33.8c-12.197-7-27.6-9.8-41.499-9.2c-11.898,0.6-25.398,5.2-28.301,18.2
						c-0.6,2.8,3,4.3,4.6,1.9c9.803-14.5,26.103-18.9,42.503-13.7c13.397,4.2,27,14.8,31.397,28.5c4.8,14.9-7.8,25.1-21.3,27.2
						c-15.4,2.4-34.399-2.1-46.601-12.1c-10.699-8.8-9.699-20.6-1-30.5c-1.399-0.8-2.799-1.6-4.199-2.4c-8,35.4,36.6,50.1,63.7,39.6
						c-0.603-1.5-1.303-3-1.9-4.6c-10.5,5.2-21.4,6.4-32.601,2.7c-10.5-3.4-19.602-10.8-27.799-17.9c-2.201-1.9-5.103,0.5-3.9,3
						c6.1,13.9,21.199,16.2,34.6,18c0.4-1.6,0.9-3.2,1.3-4.8c-7.6-1-15.2-2-22.397-4.8c-0.4,1.6-0.9,3.2-1.303,4.8
						c2.9,0.6,5.303,2.4,8.103,3.3c2.7,0.9,4.5-3.3,1.897-4.6c-0.5-0.2-0.897-0.5-1.397-0.7c-2.897-1.4-5.397,2.9-2.5,4.3
						c0.5,0.2,0.897,0.4,1.397,0.7c0.603-1.5,1.303-3,1.9-4.6c1,0.4-0.6-0.3-0.6-0.3c-1-0.5-2-0.9-3-1.3c-1.5-0.6-2.9-1.4-4.5-1.7
						c-3.2-0.7-4.301,3.7-1.301,4.8c7.201,2.7,14.801,3.8,22.398,4.8c3.2,0.4,4.5-4.4,1.3-4.8c-12.1-1.6-26.1-3.1-31.6-15.7
						c-1.3,1-2.603,2-3.897,3c9.397,8.2,19.397,15.8,31.397,19.7c11.8,3.9,24.1,1.7,35.1-3.7c2.5-1.2,0.7-5.6-1.897-4.6
						c-23.103,9-64.7-1.7-57.5-33.4c0.5-2.3-2.4-4.4-4.2-2.4c-10,11.4-11.8,25.4-0.2,36.5c11.2,10.7,28.6,15,43.602,15.1
						c13.801,0.1,28.5-4.8,33.801-18.7c4.699-12.4-3.5-25.6-12.2-33.9c-9.601-9.2-22.5-15.1-35.7-15.9c-14.5-0.8-27.1,6.6-35.1,18.4
						c1.5,0.6,3,1.3,4.6,1.9c2.4-10.8,13.803-13.9,23.5-14.5c11.8-0.8,24.2,1.7,35,6.5c10.2,4.5,22.102,15.5,15.2,27.3
						c-7,12-25.5,14.1-37.2,9.3c-0.398,1.6-0.898,3.2-1.3,4.8c12.6,2.7,37.399,6.5,38.899-12.3c0.601-8.3-4.102-18.3-9.302-24.7
						c-4.397-5.4-10.1-9.2-16.8-11c-12-3.3-26.1,0.5-35.699,8.2c-7.898,6.3-13.398,17.1-6.101,26c11.2,13.7,33.8,14.5,48.6,7.2
						c7.302-3.6,14.302-10.7,14.9-19.3c0.7-9.9-6.3-17.7-13.9-23.1c-6.5-4.6-16-4.7-23.5-4.1c-8.897,0.8-17.999,3.4-25.499,8.3
						c-10.301,6.6-15.201,20.5-9.398,31.7c4.697,9.1,15.898,12.8,25.398,14c10.602,1.3,21.999,0.1,31.602-4.7
						c7.8-3.9,13.397-11.4,10.6-20.3c-4.3-13.7-19.5-21.8-33.1-22.1c-10.9-0.3-22.9,4-28.602,13.7c-4.898,8.3-2.898,20.9,4.299,27.2
						c13.9,12.4,39.7,3,48.4-11.4c-1.5-0.6-3-1.3-4.6-1.9c-3.2,9.6-11.4,10.4-20.301,9.3c0.698,1.3,1.398,2.5,2.198,3.8
						c2.302-3.7,3.7-7.6,6.5-11c-1.3-1-2.6-2-3.897-3c-1.801,3.8-3.301,7.9-5.101,11.7c1.498,0.2,2.998,0.4,4.601,0.6
						c-0.603-2.2-1.4-4.3-2.7-6.2c-0.601-0.9-0.8-0.5-0.4-1.4c0.802-1.6,1.9-3.2,3-4.7c-1.5-0.6-3-1.3-4.6-1.9
						c-0.7,3.5-2.399,6.7-3.101,10.2c0.801-0.6,1.601-1.2,2.398-1.8c-5.6-0.1-11.698-3.1-14.8-7.8c-4.103-6.1,7.397-8.9,11.602-7.6
						c3.3,1,4.3,5.5,3.5,8.4c-1.602,5.7-9.302-1.2-11.2-3c0.101,1,0.301,2,0.398,3c4.802-9,12.4-7.5,19.4-1.7c0-1.2,0-2.4,0-3.5
						c-1.7,2.1-3.4,4.7-5.801,6.1c-2.301,1.4-6.899,0-9.301-0.3c0.799,1.1,1.602,2.1,2.399,3.2c0.601-2.2,1.8-9.1,4.3-9.9
						c-0.6,0.2-0.199,0,0.2,0.7c0.5,0.9,0.8,2,0.898,3c1,9.9-11.5-0.4-14.101-2.6c0.101,1,0.302,2,0.398,3
						c1.301-1.9,3.301-5.6,6-5.7c2.801-0.1,6.301,2.5,8.701,3.7c-0.302-1.1-0.602-2.3-0.899-3.4c-1.103,2.5-2.3,5.1-4.103,7.2
						c-1.199,1.4-1.6,0.7-0.6,1.6c-1.1-0.9-0.6-5-0.199-6.8c0.699-2.9,2.199-6.1,5.199-7.1c5.3-1.7,11.2,5,14.3,8.3
						c0.2-1.3,0.3-2.6,0.5-3.9c-6.8,4.9-13.2,6.2-20.8,2.2c0.301,1.1,0.6,2.3,0.9,3.4c1.1-2.3,3.6-8.6,6.698-8.9
						c1.801-0.2,3.602,3.4,4.399,4.6c2.199,3.4,4.699,8.8,9.399,8.6c0-1.7,0-3.3,0-5c-3.2,0.3-6.2,1.3-9.2,2.4
						c-0.5,0.2-1.102,0.4-1.602,0.5c0,0,1.102,2.3,1.602,0.6c0.398-1.3,3.801-6.7,1.801-6.8c-0.7-1.3-1.4-2.5-2.2-3.8
						c-0.601,1.2-2.101,2.3-3,3.3c-0.8,0.8-1.601,1.6-2.398,2.3c-1.102,1.1-1.999,0.9-0.2,1.3c0.601,0.6,1.2,1.2,1.7,1.7
						c0-0.1,0-0.1,0-0.2c-1.602,0.4-3.2,0.9-4.801,1.3c0.399,1,0.802,2,2,2.3c1.301,0.3,2.801-0.4,3.101-1.7
						c0.5-2.3-0.3-5.1-0.399-7.5c0-0.5-0.101-1.1,0-1.7c-1,0.3-1.898,0.7-2.899,1c0.602,1.4,1.102,1.6,1.701,0.5
						c-0.602,0.4-1.9,0.2-2.502,0.2c-1.299,0-2.6,1.2-2.5,2.5l0,0c0.102,1,0.701,2.3,1.801,2.4c3.302,0.5,1.899,2.3-0.1,3.8
						c-3.4,2.6-7.801,2.4-11.4,0.4c0.4,0.9,0.801,1.9,1.102,2.8c1.5-4.3,4.802-9.7,10.101-8.9c5.899,0.9-0.101,4.6-2.5,5.5
						c1.101,0.8,2.101,1.6,3.201,2.4c-0.302-5.6,4.698-7.6,8.1-11.2C429.4-177.9,425.8-181.5,423.6-179.1L423.6-179.1z"/>
				</g>
			</g>
			<g display="none">
				<g display="inline">
					<path d="M414.899-199.8c-9.799-2.2-20.799-1.2-26.699,7.9c-5.1,7.8-3.801,17.8-0.1,25.8c4,8.5,11.299,14.5,19.697,18.3
						c8.5,3.8,18.7,6.1,25.7,10.1c0.8-6.1,1.6-12.2,2.399-18.3c-6.302,2.3-12,2.1-17.899-1.1c-5-2.7-9.2-8-9.8-13.8
						c-0.602-5.4-4.102-10-10-10c-5,0-10.602,4.6-10,10c1.5,12.9,7.8,23.3,18.697,30.5c9.9,6.5,23.303,7.9,34.303,3.7
						c7.8-2.9,10.397-13.7,2.397-18.3c-6.1-3.5-13-5.5-19.6-7.8c-2.9-1-5.7-2.1-8.399-3.4c-3.301-1.6-4.801-2.5-6.801-4.8
						c-0.5-0.5-0.9-1-1.3-1.5c0.5,0.7,0.5,0.6-0.2-0.4c-0.199-0.3-1.9-3.6-1.199-1.9c-0.5-1.2-0.801-2.4-1.101-3.6
						c-0.2-1.2-0.2-1.2,0,0c-0.101-0.9-0.101-1.7,0-2.6c-0.101,2.9,1-2.3-0.2,0.4c0.6-0.9,0.5-0.9-0.3,0.1
						c1.399-1.9-1.7,0.9,0.399-0.4c0.601-0.4,0.801-0.2,0.2-0.1c1.8-0.2,3.101,0.1,4.698,0.4C422.2-177.7,427.5-197,414.899-199.8
						L414.899-199.8z"/>
				</g>
			</g>
			<g display="none">
				<g display="inline">
					<path d="M430.2-209.7c-18.7-2.1-32.9,9.8-41.5,25.3c-6.2,11.3,11.1,21.4,17.3,10.1c5.601-10.1,12.2-16.8,24.2-15.4
						c5.397,0.6,10-5,10-10C440.2-205.7,435.6-209.1,430.2-209.7L430.2-209.7z"/>
				</g>
			</g>
			<g opacity="0.1">
				<g>
					<path d="M706.2-145.4c-4.3-0.8-6.6-1.8-9.4-3.2c-4-2-7.8-4.6-11.4-7.3c-7.897-5.9-15.6-14.2-22.3-21.9
						c-6.7-7.7-12.8-16-18.397-24.5c-2.603-3.9-5-8-7.3-12.1c-1-1.8-2-3.7-2.9-5.6c-0.4-0.9-0.8-1.7-1.3-2.6
						c-0.3-0.6-0.5-1.1-0.8-1.7c0.397,1,0.397,1,0,0c-2.103-5-6.603-8.6-12.303-7c-4.8,1.3-9,7.2-7,12.3
						c8.303,20.4,21.5,38.7,35.7,55.3c13.3,15.5,31.1,33.6,52,37.7c5.3,1,10.8-1.4,12.3-7C714.5-138.1,711.5-144.4,706.2-145.4
						L706.2-145.4z"/>
				</g>
			</g>
			<g opacity="0.1">
				<g>
					<path d="M709.1-160.3c-10.3-3.5-19.897-8.7-28-16c-7.5-6.9-13.2-14.8-18.897-23.1c-7.103-10.2-13.803-20.9-22.9-29.5
						c-9.3-8.6-20.2-14.3-31.8-19.1c-25.2-10.6-51.2-20-77.2-28.5c-26.898-8.9-54.6-14.7-83.1-15.6c-49.102-1.6-99.1-1.5-147.6,7.2
						c-44.3,8-88,26.1-115.3,63.4c-11.8,16.1-32.1,22.9-50.5,28c-22.2,6.1-44.8,10.4-65.8,20.2c-4.9,2.3-6.2,9.3-3.6,13.7
						c2.9,5,8.8,5.9,13.7,3.6c20.9-9.9,44.3-13.3,66.3-19.7c22.9-6.7,43.5-17.1,57.8-36.7c25.7-35,71.5-48.4,112.4-54.8
						c23.7-3.7,47.7-4.8,71.7-5.2c25.4-0.5,51.4-0.9,76.7,1.4c27.2,2.5,53.5,10.8,79.2,19.9c13.7,4.8,27.3,9.7,40.7,15.1
						c10.697,4.3,21.5,7.9,31.397,13.7c17.603,10.3,26.603,28.9,38.6,44.5c13.4,17.5,29.7,29.8,50.7,36.9
						C716.1-136.8,721.3-156.1,709.1-160.3L709.1-160.3z"/>
				</g>
			</g>
			<g opacity="0.1">
				<g>
					<path d="M706.2-177c-18.5-5.2-34-17.1-49.1-28.6c-16.4-12.5-32.9-24.6-52.7-31c-12.303-4-17.5,15.3-5.303,19.3
						c18.4,6,33.9,18.3,49.103,29.9c16.2,12.4,32.8,24.1,52.7,29.7C713.3-154.2,718.6-173.5,706.2-177L706.2-177z"/>
				</g>
			</g>
			<g opacity="0.1">
				<g>
					<path d="M717.4-179.4c-32.5-45.2-86.9-66-137.603-83.5c-5.2-1.8-10.897,2-12.3,7c-1.5,5.5,1.8,10.5,7,12.3
						c45.1,15.6,96.603,33.9,125.603,74.4c3.197,4.4,8.6,6.5,13.697,3.6C718.2-168.3,720.6-175,717.4-179.4L717.4-179.4z"/>
				</g>
			</g>
			<g opacity="0.1">
				<g>
					<path d="M712.3-121.2c-12.4-1-24.9,2.8-36.6,6.3c-6,1.8-12,3.7-18.1,5.4c-6.5,1.8-13.103,2.8-19.7,4.4
						c-13.7,3.4-26.4,9.8-39.5,14.7c-8.7,3.2-17.803,5.5-26.7,8.2c-24.5,7.6-49.8,11.4-74.9,14.8c-25.3,3.4-51.1,8.8-76.699,5.8
						C396.8-64.3,374.4-73.7,353.5-83.8c-45.8-22.4-87.9-52.7-136.7-68.6c-31.3-10.2-63.3-9.2-95.8-9.2c-12.9,0-12.9,20,0,20
						c15.3,0,30.6-0.5,45.9,0.2c14.3,0.7,28.1,3.2,41.8,7.4c23.5,7.1,45.5,18.7,67,30.5c43.5,24,87.4,53.2,137.5,61
						c26.3,4.1,52-0.7,78.1-4.1c17.3-2.3,34.603-4.5,51.7-7.6c10.2-1.9,20.2-4.4,30.2-7.4c6.897-2.1,13.7-4.3,20.6-6.2
						c13.7-3.8,26.4-10.3,39.7-15c6.9-2.4,13.8-3.8,21-5.2c6.9-1.4,13.7-3.6,20.4-5.7c12-3.7,24.7-8.5,37.397-7.5
						c5.4,0.4,10-4.9,10-10C722.3-117,717.8-120.8,712.3-121.2L712.3-121.2z"/>
				</g>
			</g>
			<g opacity="0.1">
				<g>
					<path d="M226.1-169c-9.7-4.2-20.6-9.6-26.9-18.6c-5.9-8.4-3.4-18.2,4.5-25.7c7.7-7.3,19.4-10.1,29.3-13.3
						c12.1-3.9,23.7-8.3,33.8-16.2c4.3-3.4,3.5-10.6,0-14.1c-4.2-4.2-9.9-3.4-14.1,0c-9.6,7.6-22.8,10.3-34.2,14.1
						c-13.6,4.5-26.6,10.8-35.1,22.7c-8.8,12.5-9.9,28.4-2.1,41.6c7.6,12.7,21.6,21,34.8,26.8c5,2.2,10.7,1.5,13.7-3.6
						C232.2-159.6,231.1-166.8,226.1-169L226.1-169z"/>
				</g>
			</g>
			<g opacity="0.1">
				<g>
					<path d="M315.8-270.4c-20.4,2.4-40,9.5-57.9,19.6c-18.1,10.2-34.8,24.5-43,43.9c-7.8,18.4-5.7,38.2,9.7,51.8
						c13.9,12.3,32.7,17.9,50,23.6c12.3,4.1,17.5-15.2,5.3-19.3c-13.5-4.5-29.2-9.2-39.5-17.2c-5.4-4.2-8.1-7.7-9.5-12.6
						c-0.9-3.1-0.8-5.2-0.4-9.3c0.3-2.6,1.9-7.4,3.2-10.5c6.4-14.9,20.6-25.4,34.3-33.3c7.8-4.5,16.1-8.2,24.6-11.1
						c7.3-2.5,16.6-4.9,23.2-5.7c5.4-0.6,10-4.1,10-10C325.8-265.3,321.2-271,315.8-270.4L315.8-270.4z"/>
				</g>
			</g>
			<g opacity="0.1">
				<g>
					<path d="M307.1-130.6c-15.4-12.6-29-27.6-38.9-44.8c-9.5-16.4-15-36.3-5.1-53.6c6.4-11.2-10.4-20.9-17.3-10.1
						c-8.2,12.9-13.5,27.1-12.8,42.6c0.6,15.1,6.1,29.7,10.1,44.1c3.5,12.5,21.9,7.2,19.3-5.3c-3.7-17.4-13.4-33.6-13.7-51.7
						c-0.2-10.4-13.1-13.1-18.6-5c-8.5,12.3-11.2,26.5-13.3,41c6.1-0.8,12.2-1.6,18.3-2.4c-4.6-9.3-7.7-19-9.5-29.2
						c-0.8-4.3-5.5-7.3-9.6-7.3c-4.8,0-8,3.1-9.6,7.3c-3.5,8.8-7,17.5-10.5,26.3c6.5,0.9,13.1,1.8,19.6,2.7
						c-0.2-3.6-1.1-6.8-2.4-10.1c-0.8-2-2.8-6.2-2.8-7.4c-0.6-8.7-10.4-13.2-17.1-7.1c-3.8,3.5-12.5,7.6-17.5,12.3
						c5.7,2.4,11.4,4.7,17.1,7.1c-0.4-2.9-1.5-5.9-1.8-8.8c-0.6-8.6-10.4-13.3-17.1-7.1c-7.9,7.5-20.4,8.3-30.7,9.7
						c-5.4,0.8-8.3,7.6-7,12.3c1.6,5.8,6.9,7.8,12.3,7c14.3-2,28.6-4.6,39.5-14.9c-5.7-2.4-11.4-4.7-17.1-7.1
						c0.2,2.7,1.6,7.4,1.8,8.8c1.1,8.4,10.1,13.5,17.1,7.1c3.8-3.5,12.5-7.6,17.5-12.3c-5.7-2.4-11.4-4.7-17.1-7.1
						c0.2,3.6,1.1,6.8,2.4,10.1c0.8,2,2.8,6.2,2.8,7.4c0.8,11.7,15.5,13,19.6,2.7c3.5-8.8,7-17.5,10.5-26.3c-6.4,0-12.9,0-19.3,0
						c2.1,11.9,6.2,23.1,11.5,34c3.6,7.3,17.1,6.2,18.3-2.4c1.8-12.8,3.8-25.3,11.3-36.2c-6.2-1.7-12.4-3.4-18.6-5
						c0.3,20.2,10.3,37.7,14.4,57c6.4-1.8,12.9-3.5,19.3-5.3c-3.3-11.8-7.9-24.1-9.2-36.2c-1.3-13,3-24.2,9.9-35.1
						c-5.8-3.4-11.5-6.7-17.3-10.1c-25.3,44.3,13.8,95.3,47.2,122.6c4.2,3.4,10,4.1,14.1,0C310.6-120,311.3-127.1,307.1-130.6
						L307.1-130.6z"/>
				</g>
			</g>
			<g opacity="0.1">
				<g>
					<path d="M656.7-160.4c-0.1,14.3-4.7,31.1-17.9,38.7c-11.1,6.5-1.1,23.8,10.1,17.3c19.303-11.3,27.5-34.6,27.803-56
						C676.8-173.3,656.8-173.2,656.7-160.4L656.7-160.4z"/>
				</g>
			</g>
			<g opacity="0.1">
				<g>
					<path d="M628.6-177.9c0.103,19.7,3.9,44.1-11.1,59.6c-9,9.3,5.2,23.4,14.1,14.1c19.5-20.2,17-47.9,17-73.7
						C648.6-190.8,628.6-190.8,628.6-177.9L628.6-177.9z"/>
				</g>
			</g>
			<g opacity="0.1">
				<g>
					<path d="M634.2-217.4c15.7,48-4.4,119.6-59.7,129.8c-5.4,1-8.3,7.4-7,12.3c1.5,5.6,6.9,8,12.3,7
						c66.1-12.2,92.5-96.9,73.7-154.4C649.5-234.9,630.2-229.7,634.2-217.4L634.2-217.4z"/>
				</g>
			</g>
			<g opacity="0.1">
				<g>
					<path d="M689.5-112.5c-23.5-1.5-46.5-7.5-70-2.3c-11.5,2.5-22.4,8.2-33,13.1c-10.2,4.7-20.4,9-31.2,12
						c-49.6,13.5-102.8,7.2-153.5,7.1c-12.9,0-12.9,20,0,20c51.8,0.1,104.4,5.1,155.3-6.9C568.9-72.3,580-76.8,591-81.8
						c10.1-4.5,19.9-9.7,30.6-12.8c22-6.4,45.7,0.8,67.9,2.2C702.4-91.6,702.3-111.6,689.5-112.5L689.5-112.5z"/>
				</g>
			</g>
			<path fill="none" stroke="#000000" stroke-miterlimit="10" d="M687.7,216.2c-23.5-24.101-27.1-41.101-62.2-48.2
				c-42.1-8.5-69.5-5.5-112.8-8.4c-49.8-3.3-84.2-10.897-128.5-4.897c-18.9,2.5-23.1,2.4-74.6,9.198c-17.1,2.199-34.9-11-50.2-2.101
				c-33.2,19.3-28.5-26.5-56.8-9.1c-23.9,14.7-34.9-11.9-61.7-1.3c-15.2,6-30.7,10.6-46.1,15.3c-11.3,3.399-31.9,4.8-40.4,10.6"/>
			<path fill="none" stroke="#000000" stroke-miterlimit="10" d="M700,196.5c-31.8-11-43.4-23.5-59.3-52.2
				c-13-23.5-1.7,31.101-27.4,19.7c-37.3-16.6-91.1,1.9-131.2-2.2c-42.697-4.4-62.3-4.9-114.6,0C328,165.5,340.8,172.4,265.3,172.4
				c-34.1,0-56.5-26-87.5-12.7c-19.6,8.399-55.1,46.2-142.8,14"/>
			<path fill="none" stroke="#000000" stroke-miterlimit="10" d="M95,170.2c16.5-1.3,55-17.3,73.4-17.5
				c20.3-0.2,41.6,17.1,61.4,19.899c46.6,6.698,58.2-16.202,99.5,6.5c29.1,15.898,59,32.101,91.7,36.698
				c28.8,4.103,60.5,1.9,89.4-0.8c70.397-6.602,136.6-60.5,207.1-36.398"/>
			<path fill="none" stroke="#000000" stroke-miterlimit="10" d="M687.7,222.8c-6.6-2.899-24-9.6-26.4-17.1c-5.4-16.3,15-11,26.4-11
				"/>
			<path fill="none" stroke="#000000" stroke-miterlimit="10" d="M364.7,192.1c-40.4-0.397-36.9-3.3-33.1-13.699
				c4.6-12.601,37-11.5,76.1-12.301c43.1-0.897,149.397,3.4,111.8,13.603c-34.4,9.3-47.3,6.8-81.5,8.897
				C413.7,190.1,388.8,191.9,364.7,192.1"/>
			<path fill="none" stroke="#000000" stroke-miterlimit="10" d="M687.6,234.4C651.8,210.8,646.3,180.2,602.7,173.6
				C580.2,170.2,533.1,175.5,484.1,180.2c-82.499,8-211.3,25.3-283.1-7.7c-6.2-2.8,50.3,39.8,44.5,37.8"/>
			<path fill="none" stroke="#000000" stroke-miterlimit="10" d="M221.1,205.3c-19.7-36.7-87.6-18.3-119.3-19.3"/>
			<path fill="none" stroke="#000000" stroke-miterlimit="10" d="M602.6,161.8c-19.3-30.2-2.697-52.1-7-57.9"/>
			<path fill="none" stroke="#000000" stroke-miterlimit="10" d="M588.9,155.9C572.8,151.2,555.3,184,545.8,170.6"/>
			<path fill="none" stroke="#000000" stroke-miterlimit="10" d="M469.6,170.3c7.803,5.101,15.5-49.6,25-49.3"/>
			<path fill="none" stroke="#000000" stroke-miterlimit="10" d="M444.1,175.4c-5-11.7-6.897-23.3-5.397-36.2"/>
			<path fill="none" stroke="#000000" stroke-miterlimit="10" d="M416.8,167.9c-12.4-5.5-34.9-15.2-29-32.603"/>
			<path fill="none" stroke="#000000" stroke-miterlimit="10" d="M357.5,161.1c-10-4-18.4-12.5-21.5-22.6"/>
			<path fill="none" stroke="#000000" stroke-miterlimit="10" d="M323,166.7c-10.7-2.8-29.2-11.8-33.9-22.7"/>
			<path fill="none" stroke="#000000" stroke-miterlimit="10" d="M268.3,172.6c6.4,5.301,28.4-40.397,20.6-47.897"/>
			<path fill="none" stroke="#000000" stroke-miterlimit="10" d="M202.6,131.4c4.1,5.8,11.7,10,18.1,15.1"/>
			<path fill="none" stroke="#000000" stroke-miterlimit="10" d="M196.9,155.3c-9.5-2-20.7-2.5-24-12.9"/>
			<path fill="none" stroke="#000000" stroke-miterlimit="10" d="M162.2,165.1c-9.1-3-16.4-9.1-21.1-17.6"/>
			<path fill="none" stroke="#000000" stroke-miterlimit="10" d="M476.1,149.9c12.4,5.4,18.2-42.5,20.303-28.7"/>
			<path fill="none" stroke="#000000" stroke-miterlimit="10" d="M469.1,173.7c-6.197-12.3-10.8-23.4-12.3-37.2"/>
			<path fill="none" stroke="#000000" stroke-miterlimit="10" d="M507.6,152.7c1.2,13.5-0.8-35.5,5.103-22"/>
			<path fill="none" stroke="#000000" stroke-miterlimit="10" d="M540.3,136.5c-0.2-10-4.1,37.6-7.897,28.7"/>
			<path fill="none" stroke="#000000" stroke-miterlimit="10" d="M452.2,199.4c-13,2.5-23.603,9.5-30.3,21"/>
			<path fill="none" stroke="#000000" stroke-miterlimit="10" d="M309.7,198.2c12.2-2,26.9-7.4,38.7-2.9"/>
			<path fill="none" stroke="#000000" stroke-miterlimit="10" d="M304.2,176c-16.5,2.7-35.6,4.8-49.3,13.5"/>
			<path fill="none" stroke="#000000" stroke-miterlimit="10" d="M254.4,207c-12.8,2.8-19.8,5.4-29.8,14"/>
			<path fill="none" stroke="#000000" stroke-miterlimit="10" d="M147.4,198.2c10-10.9,27.5-20.101,42.1-19.3"/>
			<g display="none">
				<g display="inline">
					<path d="M432.6,171.3c-10.8-1.399-21.999-2.5-32.7-0.1c-12.6,2.8-7.197,22.1,5.303,19.3c0.5-0.1,1-0.2,1.398-0.3
						c2.602-0.5-2.301,0.2,0.699-0.101c2.1-0.199,4.301-0.302,6.4-0.302c6.3,0,12.6,0.7,18.8,1.5c5.4,0.7,10-5.1,10-10
						C442.6,175.3,438,172,432.6,171.3L432.6,171.3z"/>
				</g>
			</g>
			<g opacity="0.1">
				<g>
					<path d="M717.1,234.2c-4.3-0.8-6.6-1.8-9.397-3.2c-4-2-7.803-4.6-11.4-7.3c-7.898-5.9-15.6-14.2-22.3-21.9s-12.8-16-18.4-24.5
						c-2.6-3.899-5-8-7.3-12.1c-1-1.8-2-3.7-2.898-5.601c-0.399-0.899-0.802-1.702-1.302-2.602c-0.3-0.6-0.5-1.1-0.8-1.7
						c0.4,1,0.4,1,0,0c-2.1-5-6.6-8.6-12.3-7c-4.8,1.3-9,7.2-7,12.302c8.3,20.398,21.5,38.698,35.7,55.301
						c13.3,15.5,31.1,33.6,52,37.699c5.3,1,10.8-1.399,12.3-7C725.4,241.6,722.4,235.2,717.1,234.2L717.1,234.2z"/>
				</g>
			</g>
			<g opacity="0.1">
				<g>
					<path d="M724.7,258.4c-10.3-3.5-19.9-8.7-28-16c-7.5-6.9-13.2-14.801-18.9-23.103c-7.1-10.198-13.8-20.897-22.9-29.5
						c-9.3-8.6-20.197-14.3-31.8-19.1c-11.8-5-24-10.302-36.3-13.6c-12.397-3.3-25.5-4.3-38.2-3.4
						c-24.697,1.8-48.397,10-73.197,11.8c-4.103,0.3-8.2,0.398-12.303,0.398c-12.897,0.102-12.897,19.699,0,20
						c1,0,2.5,0.302-1.897-0.301c0.6,0.103-3.603-2.1-4-2.397c-5.3-4.2-3.103-10.7-0.103-13.9c-0.697,0.7,2.7-2,1.803-1.397
						c-0.2,0.1-0.4,0.199-0.603,0.3c4.5-2-1.1,0.2-2.7,0.7c-6.699,1.897-13.5,3.397-20.3,4.897c-23,5-46.199,9.103-69.5,12.603
						c-3.3,0.5-6.6,1-9.8,1.397c-1.7,0.2-3.3,0.5-5,0.7c-2.8,0.398,2.1-0.3-0.7,0.102c-1.1,0.101-2.2,0.301-3.3,0.398
						c-7,0.898-14,1.7-21.1,2.5c-13.8,1.5-27.6,2.602-41.4,3.3c-12.5,0.603-24.9,0.7-37.4,0c-2.7-0.1-5.3-0.397-8-0.6
						c-1.3-0.103-2.5-0.302-3.8-0.4c-0.6-0.1-1.2-0.1-1.8-0.198c-1.9-0.199,2.5,0.398-0.3-0.102c-4.6-0.7-9.1-1.602-13.5-2.8
						c-1.1-0.302-2.2-0.7-3.3-1c-0.9-0.302-5-2-1.5-0.5c-1.9-0.802-3.8-1.802-5.5-2.9c-0.3-0.198-0.6-0.397-1-0.698
						c-1.9-1.302,1.7,1.398,0.5,0.398c-0.7-0.602-1.4-1.3-2.1-2c-2.2-2.3,1.1,1.8-0.3-0.398c-0.6-0.899-1.9-4-0.4-0.199
						c-0.3-0.7-0.5-1.4-0.7-2.2c-0.8-3.101,0.1,2.3-0.1-0.4c-0.1-1,0-1.899,0.1-2.899c-0.4,4.102,0,0.302,0.3-0.801
						c0.3-1,0.6-1.897,0.9-2.897c0.6-1.603-1.2,2.6-0.1,0.198c0.3-0.601,0.6-1.198,0.9-1.801c1.4-2.699,3-5.199,4.8-7.6
						c3.2-4.4,0.8-11.1-3.6-13.7c-5.1-3-10.4-0.8-13.7,3.6c-11.5,15.4-32.8,14.6-50.9,14.3c-23-0.5-46.1-1.5-67.5,8.5
						c-4.9,2.3-6.1,9.3-3.6,13.7c2.9,5,8.7,5.897,13.7,3.6c20.1-9.3,44-5.7,65.4-5.6c10.8,0,21.8-0.7,32.2-3.9
						c11.6-3.6,20.8-10.7,28-20.3c-5.8-3.4-11.5-6.7-17.3-10.1c-5.3,7.4-9.8,16.2-9.7,25.5c0.1,9.301,5.2,16.4,12.3,21.801
						c6.6,5,15.3,7.5,23.4,9.199c11.1,2.301,22.5,3.2,33.8,3.5c26.8,0.801,53.8-1.5,80.4-4.6c27-3.1,53.799-7.3,80.5-12.3
						c14.1-2.7,28.299-5.5,42.197-9.101c3.7-1,7.5-2,10.9-3.699c5.1-2.603,6.897-9.301,4.1-14.2c-2.1-3.601-5.897-5.101-9.897-5.2
						c0,6.7,0,13.3,0,20c26.3-0.1,51.197-7.3,77-11.3c11-1.7,22.5-1.9,33.5,0c13.1,2.3,25.3,7.899,37.6,12.7
						c10.1,3.897,20.1,8.5,28.4,15.6c8.897,7.7,14.999,17.9,21.697,27.5c6.2,8.9,12.603,17.7,20.4,25.2
						c8.7,8.399,19.1,14.7,30.3,19.2c2.5,1,5,1.897,7.5,2.8C731.6,281.8,736.8,262.5,724.7,258.4L724.7,258.4z"/>
				</g>
			</g>
			<g opacity="0.1">
				<g>
					<path d="M700.9,193.8c-41.4-11.2-84-17.1-126.5-22.399c-18-2.198-36.103-4.301-54.103-6.898c-13.6-2-27.3-4.102-40.5-8.2
						c-12.3-3.9-17.6,15.4-5.3,19.302c12.7,4,26,6.101,39.2,8c18.6,2.801,37.3,4.898,56,7.198c42.3,5.2,84.7,11.103,125.898,22.2
						C708.1,216.4,713.3,197.1,700.9,193.8L700.9,193.8z"/>
				</g>
			</g>
			<g opacity="0.1">
				<g>
					<path d="M665.5,210.4c-17.7-24.5-46.3-35.9-74.5-43.5c-27.8-7.5-56.9-10.9-84.2-20.2c-12.2-4.2-17.397,15.1-5.3,19.3
						c26.1,8.9,53.7,12.4,80.3,19.2c24.103,6.1,51.9,15.3,66.4,35.399c3.2,4.398,8.6,6.5,13.7,3.601
						C666.3,221.5,668.7,214.8,665.5,210.4L665.5,210.4z"/>
				</g>
			</g>
			<g opacity="0.1">
				<g>
					<path d="M629.7,145.1c-3.103-0.3-6.3-0.5-9.2,1.2c-6.5,3.9-6.7,14,0.2,17.5c4.2,2.2,9.1,3,13.6,4.7c2.5,0.9-1.8-1,0.9,0.4
						c0.7,0.397,2,1.397-0.7-0.7c0.1,0.1,0.2,0.1,0.2,0.2c-3.103-3.301-3.103-7.5,0.1-12.5c0.2-0.2,4.103-2.2,2.603-1.7
						c-0.603,0.2-1.303,0.4-2,0.5c-3.7,0.8-7.4,1.4-11,2.3c-13.603,3.6-26.303,10.1-39.5,14.9c-8.303,3-17.103,5.5-25.803,7.199
						c-1.3,0.301-2.6,0.5-3.897,0.698c-2.3,0.4,2.397-0.3,0.1,0c-0.6,0.103-1.2,0.103-1.8,0.2c-2.6,0.3-5.2,0.398-7.8,0.398
						c-12,0.199-24.103-1.198-36.103-1.398c-23-0.398-46,1.5-68.8,4.398c-27.699,3.399-54.8,2.802-82.1-3
						c-26-5.5-51-14.698-75.9-23.698c-13-4.7-26-9.4-39.1-13.7c-13.1-4.3-26.5-8.9-40-11.4c-32.5-6.1-63.8,13.2-95.2,13.6
						c-12.9,0.1-12.9,20.1,0,20c23.5-0.2,46.3-9.6,69.3-13.5c11.3-1.9,20.3-1.1,30.9,1.7c13.8,3.7,27.4,8,41,12.702
						C300.8,183.7,350.9,205.2,405.899,205.9c27.398,0.397,54.601-5.301,82-6.5c15.198-0.603,30.301-0.103,45.5,0.8
						c11.198,0.6,22.198,0.3,33.301-2.101c9.699-2.102,19.397-5.102,28.6-8.602c13.2-5,25.9-11.2,39.7-14.3
						c5.7-1.302,12.6-1.603,15.899-7.302c3.601-6.101,0.5-12.5-5-15.898c-3.199-2-7.102-3.1-10.602-4.2c-1.398-0.4-2.8-0.8-4.1-1.3
						c-0.5-0.2-1-0.3-1.5-0.5c-0.2-0.1-0.4-0.1-0.603-0.2c1.4,0.5,2.7,1,3.7,2.2c0.9,3.2,1.7,6.5,2.603,9.7l0,0
						c-1.5,2-3.103,4-4.603,6c-3.7,2.198-6.397,1.198-3.8,1.3c1,0,1.9,0.102,2.9,0.2c5.397,0.5,10-4.9,10-10
						C639.7,149.2,635.2,145.6,629.7,145.1L629.7,145.1z"/>
				</g>
			</g>
			<g opacity="0.1">
				<g>
					<path d="M270.2,179.3c-10.1-4.3-21.2-8-30.2-14.3c2.1,1.5,0.5,0.4,0.1-0.1c1,1.397,1.2,1.699,0.7,0.897
						c1,1.802,1.3,3.802,0.7,5.9c-0.5,1.897-1.6,3.397-3.2,4.397c0.9-0.5,0.7-0.397-0.7,0.103c1.1-0.5,2.3-0.7,3.5-1
						c7.9-1.9,16.4-1.7,24.4-2.4c9.6-0.897,19.1-2.1,28.5-4.1c0.9-0.2,1.8-0.4,2.8-0.603c3.3-0.699-1.2,0.103,0.3-0.1
						c0.9-0.1,1.8-0.1,2.7,0c0.5,0,1.1,0.1,1.6,0.1c1.6,0.2-2.9-0.397-0.3,0c5.4,0.801,10.7-1.3,12.3-7c1.3-4.8-1.6-11.397-7-12.3
						c-6.5-1-11.8-0.7-18.2,0.6c-12.9,2.7-24.3,3.5-38.5,4.5c-6.9,0.5-16.1,0.8-22,5c-6.8,4.9-7.8,13.299-2.2,19.6
						c3.7,4.1,9.2,6.699,14.1,9c6.7,3.199,13.6,6,20.5,8.9c5,2.1,10.7,1.5,13.7-3.603C276.2,188.7,275.2,181.5,270.2,179.3
						L270.2,179.3z"/>
				</g>
			</g>
			<g opacity="0.1">
				<g>
					<path d="M394.5,140.3c-25.8,3-50.9,10.2-74,22.3c-13.2,6.9-31,17.4-35.7,32.603c-2.2,7.198,1.1,14.6,7.5,18.3
						c5.4,3.102,12.1,3.2,18.1,3.602c2.7,0.198,6,0.601,8.7-0.302c8.3-2.8,10.6-15,1.8-19c-6.6-3.1-14.1-4.3-21.2-5.897
						c-11.4-2.5-22.8-4.801-34.2-7c-11.5-2.2-22.9-4.301-34.5-6.103c-7.2-1.198-14.8-3-22.2-2.8c-7.7,0.2-14.1,8.102-9.6,15.398
						c2.2,3.5,5.8,4.899,9.6,6.199c12.3,4.103,17.5-15.199,5.3-19.3c-0.6-0.2-1.1-0.399-1.7-0.6c-1.7-0.7,2.8,1.3,1.1,0.5
						c-0.1-0.101-0.2-0.101-0.3-0.2c5,3.1,10.6,12.6-2.5,17.8c1-0.399-3.6,0.3-1.7,0.3c2.5-0.1,5.1,0.4,7.6,0.7
						c1.8,0.2-2.8-0.399-0.9-0.1c0.5,0.1,0.9,0.1,1.4,0.2c1,0.1,2,0.3,3,0.397c2.5,0.4,4.9,0.802,7.4,1.2
						c5.6,0.898,11.1,1.898,16.6,2.898c21.3,3.802,42.8,7.602,63.7,13.199c1.1,0.301,2.3,0.603,3.4,1c2.4,0.7,1.1,0.4-0.2-0.199
						c-3.1-1.5-9.1-10.801,0.4-16.698c2.5-1.5,3-1.103,2-0.9c3.7-0.8,3-0.397,2.1-0.3s-1.9,0-2.8,0c-1.6-0.102-3.2-0.2-4.8-0.398
						c-1-0.102-1.9-0.199-2.9-0.302c-0.6-0.1-1.3-0.1-1.9-0.198c2.7,0.301,0.5,0-0.1-0.102c-0.4-0.102-0.8-0.2-1.2-0.3
						c-2-0.603,2.1,1.1,0.4,0.198c-0.8-0.398-1.9-1.5,0.5,0.5c-0.7-0.601-1.2-1.801,0.5,0.802c-0.5-0.9-0.3-0.4,0.5,1.3
						c-0.6-1.602,0.2,2.8,0.1,1.102c-0.1-1.699-0.5,2.801-0.2,1c0.1-0.5,0.3-0.899,0.4-1.399c-1.1,3.2,0,0.2,0.5-0.601
						c0.3-0.5,0.7-1.102,1.1-1.602c-1.6,2.2-0.1,0.2,0.2-0.2c2-2.3,4.4-4.397,6.8-6.397c0.9-0.7,1-0.801,0.3-0.2
						c0.8-0.601,1.6-1.2,2.5-1.8c1.8-1.301,3.6-2.5,5.5-3.603c3.8-2.397,7.7-4.6,11.7-6.6c19-9.802,40.4-15.9,61.6-18.4
						c5.4-0.6,10-4.1,10-10C404.5,145.3,400,139.7,394.5,140.3L394.5,140.3z"/>
				</g>
			</g>
			<g opacity="0.1">
				<g>
					<path d="M353.4,186.7c-14.2-9.2-30.7-10.9-47.1-12.3c-1.5-0.103-3-0.301-4.5-0.4c-1.2-0.1-1.1-0.1,0.2,0
						c-0.8-0.1-1.5-0.2-2.3-0.4c-1.1-0.199-2.2-0.5-3.2-0.897c1.5,0.698,1.7,0.8,0.8,0.3c-1.7-0.898,1.8,1.602,0.4,0.398
						c1.4,1.302,1.3,1.802,1.5,3.602c0-1,0-0.7-0.2,0.898c0.1-0.698,0.3-1.398,0.5-2c0.4-1,0.4-1-0.1,0
						c0.4-0.898,0.9-1.801,1.4-2.698c1.2-2.2,2.7-4.4,4.2-6.4c6.6-9.2-8.6-20.9-15.7-12.1c-2.1,2.6-4.3,5.1-6.9,7.3
						c0.7-0.602-1.7,1-2.1,1.2c-1.7,0.897,1.5-0.4-1.1,0.3c2.8-0.7,0.9-0.102-0.1-0.2c3.1,0.103,1.6,0.2,0.6-0.1
						c-0.5-0.2,2.6,1.1,0.3,0.1c-7.9-3.397-17.8,2.302-14.8,11.802c1.3,4.101,3.1,8.101,4.5,12.101c4.1,12.101,22.6,7.3,19.3-5.3
						c-1.2-4.801-3-10.4-7.1-13.603c-0.9-0.698-1.8-1.397-2.7-2c1.9,1.2,1,0.302,2.1,2.103c1.8,2.8,0.2-0.5,0.4,1.397
						c-0.3-2-0.2-4-0.2-6c-0.1-8.5-11-13.5-17.1-7.1c0.8-0.8-2,1.6-0.7,1.1c-0.8,0.3-1.4,0.1-0.5,0.2c-2.1-0.4-4.2-1.3-6.3-1.6
						c-8.1-1.2-14.5,3.1-16.3,11.1c6.1-0.8,12.2-1.602,18.3-2.398c-1.4-2.199-2.9-4.699-5-6.399c-1.8-1.5-2.5-2-4.8-2.8
						c-0.9-0.3-6.3-1.2-0.8-0.1c1.5,0.9,2.9,1.7,4.4,2.6c1.9,4.1,2.6,5.1,2.1,3.2c-0.3-1.1-0.5-2.3-0.7-3.5
						c-1.8-8.7-14.2-9.5-18.3-2.4c0.8-0.7,1.7-1.3,2.8-1.7c0.6-0.2,3.3,0.2,1.2-0.2c-2.4-0.5-4.6-1.1-7-1.2
						c-6.1-0.4-11.3,2.7-14.3,7.9c6.2,1.7,12.4,3.4,18.6,5c-0.3-3.699-1.2-6.4-2.7-9.8c-0.6-1.3-1.3-2.6-1.9-3.8
						c0,0-1.3-3.6-1.2-2.2c-0.6-6.6-8.4-13.7-15-8.6c-5.9,4.5-13.4,6.6-19.3,11.1c4.9,2,9.8,4,14.7,6c-0.3-1.8-1.4-3.5-1.6-5.3
						c-0.8-9.2-10-12.6-17.1-7.1c-8.4,6.5-21.5,7-31.6,8.2c-5.4,0.6-10,4.1-10,10c0,5,4.6,10.6,10,10c16.3-1.9,32.4-3.7,45.7-14
						c-5.7-2.4-11.4-4.7-17.1-7.1c0.3,3.7,1.7,7,2.3,10.6c0.9,6,9.9,9.7,14.7,6c5.9-4.5,13.4-6.6,19.3-11.1c-5-2.9-10-5.8-15-8.6
						c0.3,3.7,1.2,6.4,2.7,9.8c0.6,1.301,1.3,2.603,1.9,3.801c0,0,1.3,3.602,1.2,2.199c0.8,9.5,13.3,14.2,18.6,5
						c-0.8,0.7-1.7,1.301-2.8,1.7c-0.6,0.2-3.3-0.2-1.2,0.2c2.4,0.5,4.6,1.1,7,1.2c6.1,0.399,11.3-2.7,14.3-7.9
						c-6.1-0.8-12.2-1.6-18.3-2.399c0.6,3.102,1.1,7,3.8,9.102c2.2,1.801,4.3,2.898,7.2,3c-4.6-0.102-6.9-4.398-4.2-0.199
						c4.4,6.899,16.4,6.5,18.3-2.398c0.1-0.4,0.2-0.7,0.2-1.102c-1,2.5-3.2,3.899-6.5,4.199c-2.2,0.2-1.1-0.199,0.1,0.102
						c2.6,0.699,5,1.398,7.8,1.699c6.6,0.699,12.6-2.301,17.1-7c-5.7-2.398-11.4-4.699-17.1-7.101c0.1,6.397,0.4,12.3,4.6,17.397
						c0.6,0.7,2.5,2,2.6,2.103c1.9,1.3-1.7-1.5-0.3-0.2c1.5,1.301-1.2-2,0,0.301c-0.4-0.699,0.9,3.102,1.1,3.899
						c6.4-1.802,12.9-3.5,19.3-5.302c-1.1-3.101-2.2-6.198-3.4-9.198c-0.3-0.7-0.5-1.399-0.8-2c-1.1-2.7,0.9-0.302-0.4,3.897
						c-1.5,2-3.1,4-4.6,6l0,0c-1.7,0.5-3.4,0.9-5,1.4c-4-0.1-6.3-2-4-0.9c1.2,0.603,2.4,1.103,3.6,1.5c2.1,0.801,4.7,1,6.9,0.7
						c9.4-1.2,16.4-7.2,22.1-14.399c-5.2-4-10.5-8.101-15.7-12.101c-5.1,7.2-9.6,14.9-8.1,24c1.2,7.2,9,11.101,15.4,12.3
						c17.3,3.301,33,1.103,48.2,10.9C354.2,211,364.2,193.7,353.4,186.7L353.4,186.7z"/>
				</g>
			</g>
			<g opacity="0.1">
				<g>
					<path d="M638.6,169.6c12.9,0,12.9-20,0-20C625.7,149.6,625.7,169.6,638.6,169.6L638.6,169.6z"/>
				</g>
			</g>
			<g opacity="0.1">
				<g>
					<path d="M689.5,225.1c-3-0.199,1.9,0.4-0.9-0.1c-0.8-0.2-1.6-0.4-2.397-0.6c-2.5-0.801,1.8,0.897-0.5-0.2
						c-0.7-0.3-1.303-0.8-1.9-1.2c2.102,1.4-1.1-1.2-1.7-1.9c-1.698-1.897,1.2,1.7-0.198-0.3c-0.602-0.8-1.102-1.7-1.602-2.5
						c-3.398-5.7-5.398-12.1-8.5-17.899c-3.5-6.801-8.898-13-15.898-16.301c-10.102-4.8-19.802-2.699-30.399-2.897
						c-13.2-0.2-26.3-3.302-39.5-4c-6.601-0.302-13.3,0.198-19.8,1.5c-1.2,0.198-2.301,0.5-3.5,0.8c-0.9,0.2-4.7,0.7-0.9,0.2
						c-10.6,1.3-21.5,0.698-32.1,0c-69-4.302-137.2-17.9-206.4-21c-19.4-0.9-39-1-58.2,2.198c-12.6,2.102-27.5,6.602-34.2,18.5
						c-6.4,11.199,10.9,21.302,17.3,10.102c0.5-0.8,2.2-3.2-0.1-0.2c0.5-0.6,1.1-1.198,1.6-1.8c0.3-0.3,0.6-0.602,0.9-0.8
						c1.3-1.103-2.1,1.6-0.7,0.5c0.9-0.603,1.8-1.2,2.7-1.7c0.8-0.5,1.7-0.898,2.6-1.3c2.2-1-2.1,0.8,1-0.4
						c2.3-0.897,4.8-1.6,7.2-2.198c2.5-0.602,5.1-1.102,7.6-1.5c0.7-0.102,1.4-0.199,2.1-0.302c2.4-0.397-2.3,0.302,0.2,0
						c1.7-0.198,3.4-0.397,5.2-0.6c6.8-0.603,13.7-0.9,20.5-0.9c34.5-0.397,69.1,3.5,103.399,7.5c35,4,70,8.9,105,12.302
						c13.198,1.301,26.398,2.398,39.698,2.5c12.603,0.101,24.802-3.5,37.302-3.199c16.101,0.3,31.898,5.199,48,3.897
						c3.198-0.3,6.301-0.6,9.5-0.397c1.301,0.1,1.398,0.1,0.301,0c0.6,0.1,1.199,0.199,1.8,0.397c0.399,0.103,3.899,1.302,1.7,0.4
						c1,0.397,1.898,1,2.8,1.6c1.399,0.9-1-1,1,0.802c0.8,0.698,1.399,1.5,2.101,2.198c-1.699-1.897,0.399,0.7,0.699,1.103
						c4.5,6.8,6.7,14.897,10.9,22c5.8,9.8,14.898,15.3,26.1,16.1c5.4,0.4,10-4.9,10-10C699.5,229.3,694.9,225.5,689.5,225.1
						L689.5,225.1z"/>
				</g>
			</g>
			<path fill="none" stroke="#000000" stroke-miterlimit="10" d="M1458.6,216.2c-23.5-24.101-24.6-56.5-59.6-63.6
				c-42.1-8.5-81.4-29.1-122.8-42.1c-43.103-13.5-93.4-31.2-137.7-25.2c-18.9,2.5-7.4,9.3-57,25c-16.5,5.2-40.8,8.9-56.1,17.8
				c-33.2,19.3-23.4,7.1-51.8,24.6c-23.9,14.7-34.9-11.9-61.7-1.3c-15.2,6-30.7,10.6-46.103,15.3
				c-11.3,3.399-31.897,4.8-40.397,10.6"/>
			<path fill="none" stroke="#000000" stroke-miterlimit="10" d="M1470.9,196.5c-31.803-11-43.4-23.5-59.303-52.2
				c-13-23.5-1.697,31.101-27.397,19.7c-37.301-16.6-98.4-36.2-138.4-40.3c-42.699-4.4-73.5-26.8-125.699-21.9
				c-39.5,3.7-41.301,7-105.398,32.3c-31.7,12.5-34.9,12.4-65.802,25.6c-19.601,8.399-55.101,46.2-142.8,14"/>
			<path fill="none" stroke="#000000" stroke-miterlimit="10" d="M865.9,170.2c16.5-1.3,55-17.3,73.397-17.5
				c20.303-0.2,41.603,17.1,61.4,19.899c46.6,6.698,58.2-16.202,99.5,6.5c29.1,15.898,59,32.101,91.699,36.698
				c28.801,4.103,60.5,1.9,89.398-0.8c70.4-6.602,136.602-60.5,207.102-36.398"/>
			<path fill="none" stroke="#000000" stroke-miterlimit="10" d="M1458.6,222.8c-6.6-2.899-24-9.6-26.397-17.1
				c-5.4-16.3,15-11,26.397-11"/>
			<path display="none" fill="none" stroke="#000000" stroke-miterlimit="10" d="M1133.5,196.5c-40.8-4.9-36-14.1-27.7-48.4
				c10.103-41.5,42.5-35,82.603-34.3c44.198,0.7,150.1,24.5,107.6,54.9c-38.899,27.8-51,18.5-86.5,22.6
				C1184.1,194.1,1158.1,197.8,1133.5,196.5"/>
			<path fill="none" stroke="#000000" stroke-miterlimit="10" d="M1192.5,188c-19.5,0.9-46.2-9.3-36-35
				c7.5-19.1,39.1-21.6,57.1-17.1c14.103,3.5,41.5,30,28.9,47.8c-9.5,13.399-51.5,4.1-65.6,2.2"/>
			<path fill="none" stroke="#000000" stroke-miterlimit="10" d="M1469.1,236.4c-35.8-23.603-41.3-54.2-84.897-60.801
				c-22.5-3.399-69.603,1.898-118.603,6.601c-82.5,8-211.3,25.3-283.1-7.7c-6.2-2.8,50.3,39.8,44.5,37.8"/>
			<path fill="none" stroke="#000000" stroke-miterlimit="10" d="M991.9,205.3c-19.7-36.7-87.603-18.3-119.3-19.3"/>
			<path fill="none" stroke="#000000" stroke-miterlimit="10" d="M1373.5,161.8c-19.3-30.2-2.7-52.1-7-57.9"/>
			<path fill="none" stroke="#000000" stroke-miterlimit="10" d="M1359.7,155.9c-16.103-4.7-33.603-31.9-43.103-45.3"/>
			<path fill="none" stroke="#000000" stroke-miterlimit="10" d="M1240.5,110.3c7.8,5.1,15.5,10.4,25,10.7"/>
			<path fill="none" stroke="#000000" stroke-miterlimit="10" d="M1214.9,115.4c-5-11.7-6.9-23.3-5.4-36.2"/>
			<path fill="none" stroke="#000000" stroke-miterlimit="10" d="M1187.7,107.9c-12.4-5.5-34.9-15.2-29-32.6"/>
			<path fill="none" stroke="#000000" stroke-miterlimit="10" d="M1128.4,101.1c-10-4-18.4-12.5-21.5-22.6"/>
			<path fill="none" stroke="#000000" stroke-miterlimit="10" d="M1093.9,106.7c-10.7-2.8-29.2-11.8-33.9-22.7"/>
			<path fill="none" stroke="#000000" stroke-miterlimit="10" d="M1039.2,112.6c6.397,5.3,28.397,19.6,20.6,12.1"/>
			<path fill="none" stroke="#000000" stroke-miterlimit="10" d="M973.4,131.4c4.1,5.8,11.7,10,18.1,15.1"/>
			<path fill="none" stroke="#000000" stroke-miterlimit="10" d="M967.8,155.3c-9.5-2-20.7-2.5-24-12.9"/>
			<path fill="none" stroke="#000000" stroke-miterlimit="10" d="M933,165.1c-9.1-3-16.4-9.1-21.1-17.6"/>
			<path fill="none" stroke="#000000" stroke-miterlimit="10" d="M1247,89.9c12.4,5.4,18.2,17.5,20.3,31.3"/>
			<path fill="none" stroke="#000000" stroke-miterlimit="10" d="M1240,113.7c-6.2-12.3-10.8-23.4-12.3-37.2"/>
			<path fill="none" stroke="#000000" stroke-miterlimit="10" d="M1278.5,92.7c1.2,13.5-0.8,24.5,5.1,38"/>
			<path fill="none" stroke="#000000" stroke-miterlimit="10" d="M1311.1,136.5c-0.197-10-4.1-22.4-7.897-31.3"/>
			<path fill="none" stroke="#000000" stroke-miterlimit="10" d="M1223,199.4c-13,2.5-23.6,9.5-30.3,21"/>
			<path fill="none" stroke="#000000" stroke-miterlimit="10" d="M1080.6,198.2c12.2-2,26.9-7.4,38.7-2.9"/>
			<path fill="none" stroke="#000000" stroke-miterlimit="10" d="M1075.1,176c-16.5,2.7-35.6,4.8-49.3,13.5"/>
			<path fill="none" stroke="#000000" stroke-miterlimit="10" d="M1025.3,207c-12.8,2.8-19.8,5.4-29.8,14"/>
			<path fill="none" stroke="#000000" stroke-miterlimit="10" d="M918.2,198.2c10-10.9,27.5-20.101,42.1-19.3"/>
			<g>
				<g>
					<path d="M1194.5,158.4c-4.6,4.8-10,7.2-9.6,14.7c0.1,1.5,1.6,3,3.197,2.4c3.603-1.3,7.2-3.1,8.7-6.9
						c1.102-2.897-1-5.8-3.398-7.199c-8.602-5.198-16.602,4.102-19.102,11.302c-0.3,1,0.2,2.3,1.102,2.8
						c6.301,3.398,13.898,2.7,19-2.602c4-4.198,2.198-10-3.602-10.801c0.602,0.801,1.2,1.603,1.8,2.4l0,0
						c-0.8,0.8-1.697,1.7-2.5,2.5c6.803,0.3,9.7-5.6,3.5-10c-6.5-4.7-4.1,10.4-4.197,11.1c1-0.6,2-1.199,3.1-1.699
						c0.5,0.399,1,0.802,1.5,1.199c-1.1-3-5.4-1.897-4.8,1.301c0,0.102,0,0.102,0,0.199c0.1,0.801,1,1.603,1.699,1.7
						c3.601,0.601,9.801-6.2,11.198-9.2c0.802-1.699-0.198-3.7-2.198-3.8c-3.302-0.1-4.699,5.9-5.699,8.2
						c-0.9,2.1-1.801,4.4-0.7,6.5c2.1,4.1,11-1.2,13.9-1.4c3.197-0.3,3.3-5.1,0-5c-1.803,0-3.5-3.6-4.303-4.897
						c-1.5-2.4-3-5.1-5.3-6.8c-7-5.3-12.6,4.9-15.1,10c-0.603,1.199-0.4,2.801,0.897,3.398c9.103,4.801,17.603,3.801,25.802-2.199
						c1.301-1,1.698-2.699,0.5-3.898c-4.699-5.1-11.5-11.5-19.102-9.6c-5.1,1.3-7.898,6.8-8.898,11.5
						c-0.699,3.398-1.102,9.698,2.698,11.5c5.7,2.698,9.802-6.899,11.5-10.602c0.5-1.2,0.4-2.8-0.897-3.398
						c-3.603-1.802-7.7-4.602-11.9-4.399c-4.398,0.2-7.398,4.899-9.6,8.101c-0.603,0.899-0.4,2.299,0.397,3
						c4.4,3.899,11.2,10.101,17.7,8.199c4.3-1.3,5.4-6.3,4.8-10.1c-0.5-3.4-2.3-7.3-6.198-7.603c-5.802-0.4-8,9.7-8.899,13.5
						c-0.4,1.7,0.8,2.9,2.399,3.2c3.5,0.5,7.198,1.3,10.601,0.102c3.5-1.102,5.8-4.802,8-7.5c0.8-1,1.1-2.602,0-3.5
						c-9.4-7.802-20.8-9.302-27.2,2.698c-0.5,1-0.397,2.2,0.4,3c4.8,4.603,14.3,10.7,18.898,2.302
						c3-5.602,0.102-13.602-5.698-15.899c-6.7-2.8-20.7,1.6-19.302,10.6c1.399,8.8,12.699,14.101,20.699,14.3c1,0,2.2-0.8,2.4-1.8
						c0.699-3.5,2.399-6.7,3.1-10.2c0.603-2.8-3-4.3-4.6-1.897c-1.5,2.3-4.101,5.199-3.9,8.101c0.2,2.699,2.801,5.301,3.5,7.899
						c0.603,1.897,3.603,2.601,4.603,0.601c1.8-3.801,3.3-7.898,5.1-11.699c1.1-2.399-2-5.399-3.9-3
						c-3.1,3.699-4.697,7.898-7.197,12c-1.103,1.801,0.397,3.5,2.197,3.801c11.4,1.398,21.2-1.2,25.103-12.9
						c0.897-2.8-3.103-4.3-4.603-1.9C1204.9,182,1185.4,189,1172.9,181.4c-7.103-4.301-8.4-15.2-4.9-22.2
						c4.4-8.5,15.5-11.2,24.3-11.3c9.2,0,16.5,3.7,22.801,10.2c3.302,3.5,6.399,7.9,6.102,12.9c-0.602,8.9-13.7,12.4-20.602,13.7
						c-10.301,1.899-22.398,1.1-31.601-4.3c-9.8-5.801-11.5-19.2-4-27.8c6-6.9,16.2-9.8,25-11.2s18.601-1,25.9,4.6
						c9.3,7.2,12.7,18.1,3.897,27.1c-7.897,8.103-21,10.4-31.697,8.2c-9.303-1.899-24.4-9.2-18.5-20.899
						c4.8-9.601,17.197-14.698,27.3-15.5c14.1-1.1,25.1,7.3,30.1,20.201c2.8,7.301,5,16.801-4.3,20c-8,2.801-17.7,0.801-25.7-0.898
						c-3.2-0.7-4.2,3.6-1.3,4.8c13.5,5.601,32.7,2.399,41.7-10c9.199-12.7,0-27-11.9-33.8c-12.2-7-27.6-9.8-41.5-9.2
						c-11.899,0.6-25.399,5.2-28.3,18.2c-0.601,2.8,3,4.3,4.6,1.9c17.801-26.4,53-6.5,68.9,11.5c4,4.5,14.3,17.699,6.8,23.399
						c-1.8,1.3-4,1.899-6.1,2.2c-5.7,1-11.9,0.5-17.603,0.5c-11.8,0-23.698-0.602-35.198-3.102
						c-7.399-1.601-17.102-4.199-20.899-11.5c-4.301-8,4.399-18.199,9.199-23.601c-1.399-0.8-2.8-1.6-4.199-2.4
						c-8,35.4,36.6,50.1,63.699,39.6c-0.602-1.5-1.3-3-1.899-4.602c-10.5,5.199-21.399,6.399-32.601,2.699
						c-10.5-3.398-19.602-10.8-27.8-17.898c-2.2-1.899-5.102,0.5-3.899,3c6.1,13.898,21.199,16.199,34.6,18
						c0.4-1.602,0.9-3.199,1.301-4.801c-7.601-1-15.199-2.101-22.398-4.801c-0.4,1.602-0.9,3.2-1.301,4.801
						c2.898,0.602,5.301,2.399,8.101,3.301c2.7,0.898,4.5-3.301,1.899-4.602c-0.5-0.199-0.899-0.5-1.399-0.699
						c-2.9-1.398-5.4,2.899-2.5,4.301c0.5,0.199,0.899,0.398,1.399,0.699c0.601-1.5,1.301-3,1.898-4.601c1,0.399-0.6-0.3-0.6-0.3
						c-1-0.5-2-0.9-3-1.301c-1.5-0.602-2.9-1.399-4.5-1.699c-3.2-0.7-4.301,3.699-1.301,4.8c7.198,2.7,14.801,3.8,22.398,4.8
						c3.199,0.4,4.5-4.398,1.302-4.8c-12.103-1.601-26.103-3.101-31.603-15.7c-1.3,1-2.6,2-3.897,3
						c9.397,8.2,19.397,15.801,31.3,19.7c11.801,3.899,24.101,1.7,35.101-3.7c2.5-1.199,0.699-5.6-1.899-4.6
						c-23.101,9-64.699-1.7-57.5-33.4c0.5-2.3-2.399-4.4-4.199-2.4c-9.399,10.6-17.899,25.9-3.801,36.4
						c6.699,5,15.699,6.801,23.699,8.102c11.699,1.898,23.602,2.199,35.399,2.101c9.7-0.101,26,0.601,26.301-13
						c0.199-10.5-9-20.601-16.101-27.2c-19.102-18-53.3-31.6-71.399-4.9c1.5,0.6,3,1.3,4.601,1.9c2.399-10.8,13.801-13.9,23.5-14.5
						c11.801-0.8,24.301,1.7,35,6.5c10.199,4.5,22.101,15.5,15.199,27.301c-7,12-25.5,14.102-37.199,9.301
						c-0.399,1.601-0.899,3.199-1.301,4.801c12.602,2.699,37.399,6.5,38.899-12.301c0.601-8.301-4.1-18.299-9.3-24.699
						c-4.4-5.4-10.102-9.2-16.802-11c-12-3.3-26.101,0.5-35.698,8.2c-7.9,6.3-13.4,17.1-6.102,26
						c11.199,13.699,33.802,14.5,48.602,7.199c7.3-3.601,14.3-10.699,14.898-19.301c0.699-9.9-6.301-17.7-13.898-23.1
						c-6.5-4.6-16-4.7-23.5-4.1c-8.9,0.8-18,3.4-25.5,8.3c-10.302,6.6-15.2,20.5-9.4,31.701c4.7,9.102,15.9,12.801,25.4,14
						c10.6,1.301,22,0.102,31.6-4.699c7.801-3.899,13.4-11.399,10.601-20.301c-4.3-13.701-19.5-21.801-33.101-22.101
						c-10.899-0.3-22.899,4-28.6,13.7c-4.9,8.3-2.9,20.898,4.3,27.199c13.9,12.398,39.7,3,48.4-11.399c-1.5-0.601-3-1.3-4.603-1.899
						c-3.199,9.602-11.397,10.399-20.3,9.301c0.7,1.301,1.399,2.5,2.2,3.801c2.3-3.7,3.698-7.602,6.5-11c-1.302-1-2.602-2-3.9-3
						c-1.8,3.8-3.3,7.898-5.1,11.699c1.5,0.199,3,0.398,4.6,0.601c-0.6-2.2-1.399-4.3-2.699-6.2c-0.601-0.898-0.801-0.5-0.398-1.398
						c0.8-1.602,1.898-3.199,3-4.699c-1.5-0.602-3-1.301-4.602-1.9c-0.698,3.5-2.398,6.7-3.101,10.2c0.8-0.601,1.601-1.2,2.399-1.8
						c-5.602-0.102-11.699-3.102-14.801-7.801c-4.101-6.102,7.399-8.899,11.5-7.602c3.301,1,4.301,5.5,3.5,8.4
						c-1.601,5.699-9.301-1.2-11.199-3c0.101,1,0.301,2,0.398,3c4.801-9,12.4-7.5,19.4-1.7c0-1.2,0-2.399,0-3.5
						c-1.7,2.101-3.4,4.7-5.8,6.101c-2.302,1.399-6.9,0-9.302-0.301c0.802,1.102,1.602,2.102,2.399,3.2
						c0.601-2.2,1.8-9.101,4.3-9.899c-0.6,0.199-0.199,0,0.2,0.699c0.5,0.9,0.8,2,0.899,3c1,9.9-11.5-0.398-14.102-2.6
						c0.102,1,0.301,2,0.4,3c1.3-1.9,3.3-5.602,6-5.7c2.8-0.101,6.3,2.5,8.7,3.7c-0.302-1.102-0.603-2.301-0.9-3.4
						c-1.1,2.5-2.3,5.102-4.1,7.2c-1.2,1.399-1.603,0.7-0.603,1.601c-1.1-0.898-0.6-5-0.199-6.801c0.699-2.898,2.199-6.1,5.199-7.1
						c5.301-1.7,11.2,5,14.301,8.3c0.199-1.3,0.302-2.601,0.5-3.899c-6.801,4.899-13.198,6.199-20.801,2.199
						c0.301,1.102,0.603,2.301,0.9,3.4c1.1-2.301,3.6-8.6,6.699-8.9c1.801-0.2,3.601,3.4,4.398,4.602c2.2,3.398,4.7,8.801,9.4,8.601
						c0-1.7,0-3.3,0-5c-3.2,0.3-6.2,1.3-9.2,2.399c-0.5,0.199-1.1,0.398-1.6,0.5c0,0,1.1,2.301,1.6,0.601c0.4-1.3,3.8-6.7,1.8-6.8
						c-0.699-1.301-1.397-2.5-2.199-3.8c-0.601,1.201-2.101,2.3-3,3.3c-0.801,0.8-1.601,1.6-2.398,2.3
						c-1.102,1.101-2,0.899-0.199,1.3c0.601,0.603,1.199,1.2,1.699,1.7c0-0.101,0-0.101,0-0.2c-1.602,0.4-3.199,0.9-4.8,1.301
						c0.397,1,0.8,2,2,2.302c1.3,0.3,2.8-0.4,3.1-1.7c0.5-2.3-0.3-5.102-0.399-7.5c0-0.5-0.101-1.102,0-1.7
						c-1,0.3-1.898,0.7-2.898,1c0.601,1.4,1.101,1.601,1.7,0.5c-0.603,0.4-1.9,0.2-2.5,0.2c-1.302,0-2.603,1.2-2.5,2.5l0,0
						c0.1,1,0.698,2.2,1.8,2.398c3.301,0.5,1.898,2.302-0.102,3.802c-3.398,2.6-7.801,2.397-11.398,0.397
						c0.398,0.9,0.801,1.9,1.101,2.801c1.5-4.301,4.8-9.698,10.101-8.898c5.899,0.898-0.101,4.6-2.5,5.5
						c1.101,0.8,2.101,1.6,3.199,2.398c-0.301-5.601,4.699-7.601,8.102-11.198C1200.3,159.6,1196.7,156.1,1194.5,158.4L1194.5,158.4
						z"/>
				</g>
			</g>
			<g>
				<g>
					<path d="M1186.6,130.2c-9.8-2.2-20.8-1.2-26.697,7.9c-5.103,7.8-3.803,17.8-0.103,25.8c4,8.5,11.301,14.5,19.7,18.3
						c8.5,3.8,18.7,6.1,25.7,10.1c0.8-6.1,1.6-12.2,2.397-18.3c-6.3,2.3-12,2.1-17.897-1.1c-5-2.7-9.2-8-9.802-13.8
						c-0.601-5.4-4.101-10-10-10c-5,0-10.601,4.6-10,10c1.5,12.9,7.802,23.3,18.699,30.5c9.9,6.5,23.301,7.9,34.301,3.7
						c7.802-2.899,10.399-13.7,2.399-18.3c-6.1-3.5-13-5.5-19.6-7.8c-2.9-1-5.7-2.101-8.4-3.4c-3.3-1.6-4.8-2.5-6.8-4.8
						c-0.5-0.5-0.9-1-1.3-1.5c0.5,0.7,0.5,0.6-0.2-0.4c-0.2-0.3-1.9-3.6-1.2-1.9c-0.5-1.2-0.8-2.4-1.1-3.6c-0.2-1.2-0.2-1.2,0,0
						c-0.103-0.9-0.103-1.7,0-2.6c-0.103,2.9,1-2.3-0.2,0.4c0.6-0.9,0.5-0.9-0.3,0.1c1.397-1.9-1.7,0.9,0.397-0.4
						c0.603-0.4,0.802-0.2,0.2-0.1c1.8-0.2,3.1,0.1,4.7,0.4C1193.9,152.4,1199.2,133.1,1186.6,130.2L1186.6,130.2z"/>
				</g>
			</g>
			<g>
				<g>
					<path d="M1201.1,127.8c-18.697-2.1-32.897,9.8-41.5,25.3c-6.197,11.3,11.103,21.4,17.303,10.1
						c5.6-10.1,12.197-16.8,24.197-15.4c5.4,0.6,10-5,10-10C1211.1,131.9,1206.5,128.4,1201.1,127.8L1201.1,127.8z"/>
				</g>
			</g>
			<g opacity="0.1">
				<g>
					<path d="M1487.9,234.2c-4.303-0.8-6.603-1.8-9.4-3.2c-4-2-7.8-4.6-11.4-7.3c-7.897-5.9-15.6-14.2-22.3-21.9s-12.8-16-18.4-24.5
						c-2.6-3.899-5-8-7.3-12.1c-1-1.8-2-3.7-2.897-5.601c-0.4-0.899-0.803-1.702-1.303-2.602c-0.3-0.6-0.5-1.1-0.8-1.7
						c0.4,1,0.4,1,0,0c-2.1-5-6.6-8.6-12.3-7c-4.8,1.3-9,7.2-7,12.302c8.3,20.398,21.5,38.698,35.7,55.301
						c13.3,15.5,31.1,33.6,52,37.699c5.3,1,10.8-1.399,12.3-7C1496.3,241.6,1493.3,235.2,1487.9,234.2L1487.9,234.2z"/>
				</g>
			</g>
			<g opacity="0.1">
				<g>
					<path d="M1492,242.2c-10.3-3.5-19.9-8.7-28-16c-7.5-6.9-13.2-14.8-18.9-23.101c-7.1-10.199-13.8-20.899-22.897-29.5
						c-9.302-8.602-20.2-14.302-31.802-19.102c-25.198-10.6-51.198-20-77.198-28.5c-26.9-8.9-54.603-14.7-83.103-15.6
						c-24.3-0.8-48.197-2.8-72.3-5.8c-23.8-3-47.6-6.4-71.6-7.8c-41.4-2.6-88.603,1.1-117.801,34.4
						c-3.602,4.1-6.399,8.6-10.399,12.3c-2.9,2.7-7.2,5-10.601,6.2c-10,3.6-19.899,3.6-30.602,3.6c-24.8-0.2-49.7-2.4-72.8,8.4
						c-4.9,2.3-6.101,9.3-3.601,13.698c2.898,5,8.699,5.899,13.699,3.602C892.5,161.1,947,190.5,977.3,152.2
						c5.9-7.4,12.301-14.7,19.9-19.8c8.1-5.5,15.7-8.5,25-11.2c20.2-5.7,41.5-5.6,62.7-4.5c48,2.7,95.3,12.8,143.5,13.7
						c27.897,0.5,54.8,6.8,81.1,15.4c25.5,8.4,51.1,17.5,75.8,28.101c10.301,4.399,19.4,10.102,27.2,18.199
						c7.7,8.103,13.4,18.4,19.9,27.4c6.3,8.8,13.1,17.2,21.397,24.1c9.802,8.2,21,13.801,33.103,17.9
						C1498.9,265.6,1504.1,246.3,1492,242.2L1492,242.2z"/>
				</g>
			</g>
			<g opacity="0.1">
				<g>
					<path d="M1471.8,193.8c-43.699-12-84.8-31.8-125.199-52c-18-9-35.898-18.3-53.898-27.2c-13.602-6.7-27.5-13.6-42-18.3
						c-12.3-4-17.5,15.3-5.3,19.3c6,1.9,11.3,4.2,15.697,6.1c7.603,3.4,15.2,7,22.603,10.7c18.6,9.2,37,18.8,55.5,28
						c41,20.5,82.897,40.397,127.198,52.6C1478.9,216.5,1484.2,197.2,1471.8,193.8L1471.8,193.8z"/>
				</g>
			</g>
			<g opacity="0.1">
				<g>
					<path d="M1436.4,210.4c-32.5-45.2-86.9-66-137.603-83.5c-5.198-1.8-10.897,2-12.3,7c-1.5,5.5,1.8,10.5,7,12.3
						c45.1,15.6,96.6,33.899,125.6,74.399c3.2,4.398,8.603,6.5,13.7,3.601C1437.2,221.5,1439.6,214.9,1436.4,210.4L1436.4,210.4z"/>
				</g>
			</g>
			<g opacity="0.1">
				<g>
					<path d="M1409.5,149.6c-3.1-0.3-6.3-0.5-9.2,1.2c-6.5,3.9-6.699,14,0.2,17.5c4.2,2.2,9.1,3,13.6,4.7c2.5,0.9-1.8-1,0.9,0.4
						c0.7,0.397,2,1.397-0.7-0.7c0.103,0.1,0.2,0.1,0.2,0.2c-3.1-3.301-3.1-7.5,0.1-12.5c0.2-0.2,4.103-2.2,2.603-1.7
						c-0.603,0.2-1.302,0.4-2,0.5c-3.7,0.8-7.4,1.399-11,2.3c-13.603,3.6-26.302,10.1-39.5,14.9c-8.4,3-17.2,5.199-25.7,7.897
						c-5,1.5-9.899,3-15,4.302c-11.3,3-22.8,4.898-34.3,6.698c-22.4,3.4-44.603,6.103-67.2,9c-26.1,3.4-51.5,0.9-76.8-6.198
						c-50.603-14.302-95.9-42.702-146.302-57.899c-9.3-2.8-18.601-5.3-28.398-5.3c-9.7,0-19.399,1.8-28.8,3.8
						c-17.802,3.8-36.2,10.7-54,10.9c-12.9,0.1-12.9,20.1,0,20c23.5-0.199,46.3-9.6,69.3-13.5c11.101-1.9,20.101-1.2,30.398,1.6
						c13,3.5,25.802,8.1,38.302,13c48,19,93.698,46.2,145.698,53.3c13.5,1.8,26.899,2.4,40.5,1.4
						c14.199-1.103,28.399-3.5,42.602-5.301c18-2.399,36-4.602,53.898-7.802c10.302-1.8,20.399-4.3,30.399-7.3
						c5.801-1.7,11.5-3.602,17.301-5.398c6.699-2.102,13.302-3.802,19.899-6.399c6.8-2.601,13.5-5.601,20.3-8.2
						c4.7-1.8,9.603-3.4,14.5-4.7c3.9-1,8-1.3,11.802-2.6c8.398-2.9,11.898-12,5.601-19.1c-2.9-3.3-8-4.7-12-6.1
						c-1.8-0.6-3.601-1.1-5.4-1.7c-0.697-0.2-1.3-0.4-2-0.6c-0.197-0.1-0.397-0.1-0.6-0.2c1.399,0.5,2.7,1,3.7,2.2
						c0.897,3.2,1.698,6.5,2.6,9.7l0,0c-1.5,2-3.1,4-4.6,6c-3.7,2.199-6.4,1.199-3.802,1.3c1,0,1.899,0.1,2.899,0.2
						c5.4,0.5,10-4.9,10-10C1419.5,153.8,1414.9,150.2,1409.5,149.6L1409.5,149.6z"/>
				</g>
			</g>
			<g opacity="0.1">
				<g>
					<path d="M1041,179.3c-0.8-0.399-4.1-2.7-2-1c-0.5-0.399-1-1-1.5-1.5c-1.7-1.8,1.2,1.8-0.2-0.2
						c-0.897-1.199-1.6-2.6-2.199-3.897c-1.198-2.4,0.699,2-0.198-0.603c-0.4-1-0.7-2.1-1.103-3.1c-1-3.3-1.697-6.8-2.3-10.2
						c-0.2-0.9-0.3-1.8-0.399-2.7c-0.398-3,0.302,2.1-0.101-0.9c-0.3-2-0.5-4.1-0.7-6.1c-1.1-10.5-0.197-33.1-15.8-33
						c-4,0-7.1,2-10,4.6c-1,0.8-1.8,1.8-2.6,2.8c-0.603,0.7-3.2,4.1-1.5,1.9c-0.603,0.8-1.2,1.5-1.8,2.3c-3.9,5.1-7.5,9.7-6.4,16.5
						c1.5,9.1,11.9,8.4,18,5.6c4.2-1.9,8-4.7,11.8-7.3c11-7.4,21.603-15.2,32.603-22.5c4.8-3.2,9.6-6.3,14.6-9.1
						c1-0.6,2.1-1.1,3.1-1.6c2.9-1.5-1.3,0.4,0.803-0.4c0.697-0.3,1.5-0.5,2.197-0.7c0.803-0.2-3.1-0.1-0.697,0.2
						c5.397,0.7,10-5,10-10c0-6-4.603-9.3-10-10c-4.7-0.6-9.9,2.3-13.9,4.3c-5.4,2.8-10.5,6.1-15.5,9.5c-11.7,7.7-22.9,16-34.5,23.8
						c-2.1,1.4-4.2,2.8-6.3,4.1c-0.8,0.5-1.7,1-2.603,1.5c-0.897,0.5-4.197,1.9-0.3,0.3c-1.1,0.5-3,0.5,1.103,0.1
						c5.197-0.5,10.197,6.9,8.897,11.4c-0.2,0.6-1.3,2.5-0.1,0.4c0.6-1,1.3-2,2-2.9c1.3-1.8-1.4,1.8,0.1-0.1c0.5-0.6,1-1.2,1.5-1.9
						c0.5-0.7,1-1.3,1.603-2c-0.7,0.9-0.803,1-0.103,0.2c0.4-0.5,0.9-1,1.3-1.5c2.2-2.3-1,0.4,0.5-0.5c-3,1.7-7.1,1-9-1
						c-2-2.1-1.3-1.8-0.8-0.9c-1.5-2.8-0.7-1.7-0.397-0.8c0.3,1,0.5,2,0.697,3.1c0.103,0.6,0.2,1.2,0.303,1.8
						c0.397,2.3-0.303-2.4,0,0c0.197,1.7,0.397,3.5,0.6,5.2c1.7,17.6,2.3,45.5,21.3,54.2c5,2.3,10.7,1.5,13.7-3.601
						C1047.2,188.7,1046,181.6,1041,179.3L1041,179.3z"/>
				</g>
			</g>
			<g opacity="0.1">
				<g>
					<path d="M1086.7,67.2c-20.4,2.4-40,9.5-57.9,19.6c-18.1,10.2-34.8,24.5-43,43.9c-7.8,18.4-5.7,38.2,9.7,51.8
						c13.899,12.3,32.7,17.9,50,23.6c12.3,4.103,17.5-15.199,5.3-19.3c-13.5-4.5-29.199-9.2-39.5-17.2
						c-5.397-4.199-8.1-7.699-9.5-12.6c-0.897-3.1-0.8-5.2-0.397-9.3c0.3-2.6,1.897-7.4,3.198-10.5
						c6.399-14.9,20.602-25.4,34.302-33.3c7.8-4.5,16.1-8.2,24.6-11.1c7.3-2.5,16.6-4.9,23.2-5.7c5.398-0.6,10-4.1,10-10
						C1096.7,72.2,1092.1,66.6,1086.7,67.2L1086.7,67.2z"/>
				</g>
			</g>
			<g opacity="0.1">
				<g>
					<path d="M1124.3,186.7c-16.699-11-35.3-20.2-50.699-32.6c-3.601-2.9-7-6-10.101-9.4c-1.8-2-1.8-2-3-3.7
						c-0.6-0.8-1.1-1.7-1.6-2.5c-0.2-0.3-1.9-3.7-1.103-1.9c-1.8-4.4-1.8-4.6-1.5-9c-0.197,2.2,0.2-0.8,0.303-1.1
						c0.197-1,0.6-1.9,0.897-2.8c-0.6,1.7,0.801-1.5,0.801-1.5c0.699-1.4,1.602-2.6,2.5-3.9c6.5-9.3-8.801-21.1-15.698-12.1
						c-9.302,12.1-16.302,25.3-15.603,40.9c0.7,14,6.603,27.1,11.103,40.1c4.1,12.1,22.5,7.3,19.3-5.3
						c-4-15.603-14.8-30-15.101-46.5c-0.199-8.1-11.199-14.1-17.102-7.1c-9.698,11.6-13.6,24.7-16.1,39.3
						c6.1-0.8,12.199-1.6,18.3-2.397c-4.898-8.3-8.601-16.7-10.601-26.2c-1.801-8.2-14.5-10.1-18.301-2.4
						c-3.898,7.9-7.699,15.9-11.601,23.798c6.2,1.699,12.399,3.399,18.601,5c-0.301-3.698-1.199-6.398-2.699-9.798
						c-0.602-1.3-1.301-2.6-1.899-3.8c0,0-1.3-3.6-1.2-2.2c-0.6-6.6-8.398-13.7-15-8.6c-5.898,4.5-13.398,6.6-19.3,11.1
						c4.899,2,9.8,4,14.7,6c-0.301-1.8-1.4-3.5-1.602-5.3c-0.801-9.2-10-12.6-17.101-7.1c-8.399,6.5-21.5,7-31.601,8.2
						c-5.399,0.6-10,4.1-10,10c0,5,4.601,10.601,10,10c16.301-1.899,32.398-3.699,45.7-14c-5.7-2.399-11.399-4.699-17.102-7.102
						c0.3,3.7,1.7,7,2.3,10.602c0.9,6,9.9,9.699,14.7,6c5.899-4.5,13.399-6.602,19.3-11.102c-5-2.9-10-5.8-15-8.6
						c0.302,3.7,1.2,6.4,2.7,9.8c0.602,1.3,1.3,2.601,1.899,3.8c0,0,1.301,3.602,1.199,2.2c0.399,4.5,2.801,8.399,7.301,9.601
						c4.101,1.102,9.301-0.601,11.301-4.601c3.898-7.899,7.699-15.9,11.6-23.8c-6.1-0.8-12.198-1.6-18.3-2.4
						c2.399,11,6.899,21.301,12.602,30.9c4.101,6.898,16.698,6.5,18.3-2.4c1.898-10.8,3.7-21.9,11-30.5
						c-5.699-2.4-11.399-4.7-17.102-7.1c0.4,18.9,11.2,34.1,15.802,51.8c6.398-1.8,12.898-3.5,19.3-5.3
						c-3.5-10.4-8.899-22.2-10.199-32.4c-1.398-10.9,2.699-20.4,9.5-29.2c-5.199-4-10.5-8.1-15.699-12.1
						C1012,152.9,1085.7,185.1,1114,203.8C1125,211.1,1135,193.8,1124.3,186.7L1124.3,186.7z"/>
				</g>
			</g>
			<g opacity="0.1">
				<g>
					<path d="M1409.5,169.6c12.9,0,12.9-20,0-20S1396.6,169.6,1409.5,169.6L1409.5,169.6z"/>
				</g>
			</g>
			<g opacity="0.1">
				<g>
					<path d="M1460.4,225.1c-3-0.199,1.897,0.4-0.9-0.1c-0.8-0.2-1.6-0.4-2.4-0.6c-2.5-0.801,1.803,0.897-0.5-0.2
						c-0.697-0.3-1.3-0.8-1.897-1.2c2.1,1.4-1.103-1.2-1.7-1.9c-1.7-1.897,1.2,1.7-0.2-0.3c-0.6-0.8-1.1-1.7-1.6-2.5
						c-3.4-5.7-5.4-12.1-8.5-17.899c-3.5-6.801-8.9-13-15.9-16.301c-10.1-4.8-19.8-2.699-30.397-2.897
						c-13.2-0.2-26.302-3.302-39.5-4c-6.603-0.302-13.302,0.198-19.802,1.5c-1.198,0.198-2.301,0.5-3.5,0.8
						c-0.898,0.2-4.698,0.7-0.898,0.2c-10.602,1.3-21.5,0.698-32.102,0c-69-4.302-137.198-17.9-206.398-21
						c-19.4-0.9-39-1-58.2,2.198c-12.6,2.102-27.5,6.602-34.2,18.5c-6.399,11.199,10.9,21.302,17.301,10.102
						c0.5-0.8,2.199-3.2-0.101-0.2c0.5-0.6,1.101-1.198,1.601-1.8c0.3-0.3,0.602-0.602,0.899-0.8c1.3-1.103-2.1,1.6-0.7,0.5
						c0.9-0.603,1.801-1.2,2.7-1.7c0.801-0.5,1.7-0.898,2.601-1.3c2.199-1-2.101,0.8,1-0.4c2.302-0.897,4.802-1.6,7.199-2.198
						c2.5-0.602,5.101-1.102,7.601-1.5c0.7-0.102,1.399-0.199,2.102-0.302c2.398-0.397-2.3,0.302,0.2,0
						c1.698-0.198,3.398-0.397,5.198-0.6c6.802-0.603,13.7-0.9,20.5-0.9c34.5-0.397,69.102,3.5,103.399,7.5c35,4,70,8.9,105,12.302
						c13.2,1.301,26.4,2.398,39.7,2.5c12.601,0.101,24.8-3.5,37.3-3.199c16.101,0.3,31.9,5.199,48,3.897
						c3.2-0.3,6.301-0.6,9.5-0.397c1.301,0.1,1.4,0.1,0.301,0c0.602,0.1,1.199,0.199,1.8,0.397c0.4,0.103,3.9,1.302,1.7,0.4
						c1,0.397,1.899,1,2.8,1.6c1.4,0.9-1-1,1,0.802c0.802,0.698,1.4,1.5,2.103,2.198c-1.7-1.897,0.397,0.7,0.699,1.103
						c4.5,6.8,6.698,14.897,10.898,22c5.8,9.8,14.899,15.3,26.102,16.1c5.398,0.4,10-4.9,10-10
						C1470.4,229.3,1465.8,225.5,1460.4,225.1L1460.4,225.1z"/>
				</g>
			</g>
			<path fill="none" stroke="#000000" stroke-miterlimit="10" d="M1474.6-193.6c77.2,79.2-81-36.6-83.197-37.1
				c-42.103-8.5-73.303-27-114.7-40c-43.102-13.5-86.4,0.6-130.7,6.5c-27.7,3.7-45.6,22-71.5,30.2c-16.5,5.2-32.1,7.8-47.397,16.7
				c-24.4,14.2-22.303,8.6-40.103,19.5c-27.1,16.6-37-5.5-71.6,8.2c-15.2,6,2.397,38.6-42.9,24.6c-11.3-3.5-14,8.7-28.2-4.1"/>
			<path fill="none" stroke="#000000" stroke-miterlimit="10" d="M1470.9-141.1c-31.803-11-43.4-23.5-59.303-52.2
				c-13-23.5-37.897-22.3-63.5-33.7c-37.3-16.6-82.8-41.4-122.897-45.5c-38.103-3.9-76.801,12.1-115.5,15.7
				c-38.801,3.6-62.2,21-97.602,34.9c-31.699,12.5-40.101,17.6-71.101,30.9c-19.6,8.4-26.3,40.4-125.399,40.4"/>
			<path fill="none" stroke="#000000" stroke-miterlimit="10" d="M858.6-160.4c16.5-1.3,31-8.6,49.5-8.8c20.3-0.2,38.8,2,58.603,4.9
				c46.6,6.7,71,30.1,114.8,33.7c33,2.7,58.6,24.8,91.2,29.4c28.8,4.1,67.6,1.2,96.5-1.5c70.397-6.6,140.6-51.1,205.3-10.3"/>
			<path fill="none" stroke="#000000" stroke-miterlimit="10" d="M1447.7-124.9c-15.801-7-28-21.8-26.4-17.1
				c-5.4-16.3,15-11,26.4-11"/>
			<path fill="none" stroke="#000000" stroke-miterlimit="10" d="M1154.9-106.8c-40.803-4.9-57.4-48.3-49.103-82.7
				c10.103-41.5,52-55.7,92-55c44.2,0.7,102,23.5,98.2,75.6c-3,40.4-41.9,61.6-77.5,65.7c-25.4,2.9-45.5-6.7-70.101-8.1"/>
			<path fill="none" stroke="#000000" stroke-miterlimit="10" d="M1192.5-149.6c-19.5,0.9-46.2-9.3-36-35
				c7.5-19.1,39.1-21.6,57.1-17.1c14.103,3.5,41.5,30,28.9,47.8c-9.5,13.4-51.5,4.1-65.6,2.2"/>
			<path fill="none" stroke="#000000" stroke-miterlimit="10" d="M1469.1-111.9c-35.8-13.1-66.5,6.2-100,15.6
				c-31,8.8-73.1,10.8-107.5,12.6c-82.5,4.5-145-19.2-216.8-37.5c-6.2-1.6-12.1-3-17.9-4.1"/>
			<path fill="none" stroke="#000000" stroke-miterlimit="10" d="M991.9-132.3c-19.7-36.7-87.603-18.3-119.3-19.3"/>
			<path fill="none" stroke="#000000" stroke-miterlimit="10" d="M1391-219.9c-11.3-17.7,21.9-29,8.2-47.3"/>
			<path fill="none" stroke="#000000" stroke-miterlimit="10" d="M1360.2-236.7c-16.603-2.4-10.603-36.3-21.9-48.2"/>
			<path fill="none" stroke="#000000" stroke-miterlimit="10" d="M1248-287.9c2.8,8.9,5.4,17.9,12.5,24.2"/>
			<path fill="none" stroke="#000000" stroke-miterlimit="10" d="M1221.8-267.4c-6.6-10.8-10.199-22.1-10.5-35.1"/>
			<path fill="none" stroke="#000000" stroke-miterlimit="10" d="M1199.4-270.8c-13.103-3.7-36.7-10-33.303-28.1"/>
			<path fill="none" stroke="#000000" stroke-miterlimit="10" d="M1144.1-265.4c-10.5-2.5-19.5,0.1-24.1-9.5"/>
			<path fill="none" stroke="#000000" stroke-miterlimit="10" d="M1100.7-251.9c-9.301-0.7-30.4-15.4-35.7-21.3"/>
			<path fill="none" stroke="#000000" stroke-miterlimit="10" d="M1005.1-244.6c7.5,3.6,24.4,16.3,32.603,16.5"/>
			<path fill="none" stroke="#000000" stroke-miterlimit="10" d="M941.1-227c5.4,4.7,13.7,7.1,21.103,10.5"/>
			<path fill="none" stroke="#000000" stroke-miterlimit="10" d="M941.1-202.5c-9.7,0.2-20.7,2.3-26.3-7"/>
			<path fill="none" stroke="#000000" stroke-miterlimit="10" d="M909.5-184.9c-9.6-0.9-18.1-5-24.6-12.3"/>
			<path fill="none" stroke="#000000" stroke-miterlimit="10" d="M1256.8-292.8c13,3.6,8.2,16.4,12.301,29.8"/>
			<path fill="none" stroke="#000000" stroke-miterlimit="10" d="M1247.5-263.9c-7.9-11.3-14.1-21.6-17.5-35.1"/>
			<path fill="none" stroke="#000000" stroke-miterlimit="10" d="M1282.1-294.5c8.803,37.3,14.803,43.7,10.5,36.8"/>
			<path fill="none" stroke="#000000" stroke-miterlimit="10" d="M1316.3-248.3c-1.6-9.9,2-25.9-3.1-34.1"/>
			<path fill="none" stroke="#000000" stroke-miterlimit="10" d="M1204.3-91c-13.199,0.3-24.8,5.5-33.3,15.8"/>
			<path fill="none" stroke="#000000" stroke-miterlimit="10" d="M1082.2-88.2c11.5-4.4,24.897-12.7,37.3-10.6"/>
			<path fill="none" stroke="#000000" stroke-miterlimit="10" d="M1079.6-109.5c-16.697,0-35.897-1.1-50.897,5.3"/>
			<path fill="none" stroke="#000000" stroke-miterlimit="10" d="M1025.3-130.5c-12.8,2.8-19.8,5.4-29.8,14"/>
			<path fill="none" stroke="#000000" stroke-miterlimit="10" d="M918.2-139.3c10-10.9,27.5-20.1,42.1-19.3"/>
			<g display="none">
				<g display="inline">
					<path d="M1194.5-179.1c-4.6,4.8-10,7.2-9.6,14.7c0.1,1.5,1.6,3,3.197,2.4c3.603-1.3,7.2-3.1,8.7-6.9c1.102-2.9-1-5.8-3.398-7.2
						c-8.602-5.2-16.602,4.1-19.102,11.3c-0.3,1,0.2,2.3,1.102,2.8c6.301,3.4,13.898,2.7,19-2.6c4-4.2,2.198-10-3.602-10.8
						c0.602,0.8,1.2,1.6,1.8,2.4l0,0c-0.8,0.8-1.697,1.7-2.5,2.5c6.803,0.3,9.7-5.6,3.5-10c-6.5-4.7-4.1,10.4-4.197,11.1
						c1-0.6,2-1.2,3.1-1.7c0.5,0.4,1,0.8,1.5,1.2c-1.1-3-5.4-1.9-4.8,1.3c0,0.1,0,0.1,0,0.2c0.1,0.8,1,1.6,1.699,1.7
						c3.601,0.6,9.801-6.2,11.198-9.2c0.802-1.7-0.198-3.7-2.198-3.8c-3.302-0.1-4.699,5.9-5.699,8.2c-0.9,2.1-1.801,4.4-0.7,6.5
						c2.1,4.1,11-1.2,13.9-1.4c3.197-0.3,3.3-5.1,0-5c-1.803,0-3.5-3.6-4.303-4.9c-1.5-2.4-3-5.1-5.3-6.8c-7-5.3-12.6,4.9-15.1,10
						c-0.603,1.2-0.4,2.8,0.897,3.4c9.103,4.8,17.603,3.8,25.802-2.2c1.301-1,1.698-2.7,0.5-3.9c-4.699-5.1-11.5-11.5-19.102-9.6
						c-5.1,1.3-7.898,6.8-8.898,11.5c-0.699,3.4-1.102,9.7,2.698,11.5c5.7,2.7,9.802-6.9,11.5-10.6c0.5-1.2,0.4-2.8-0.897-3.4
						c-3.603-1.8-7.7-4.5-11.9-4.4c-4.398,0.2-7.398,4.9-9.6,8.1c-0.603,0.9-0.4,2.3,0.397,3c4.4,3.9,11.2,10.1,17.7,8.2
						c4.3-1.3,5.4-6.3,4.8-10.1c-0.5-3.4-2.3-7.3-6.198-7.6c-5.802-0.4-8,9.7-8.899,13.5c-0.4,1.7,0.8,2.9,2.399,3.2
						c3.5,0.5,7.198,1.3,10.601,0.1c3.5-1.1,5.8-4.8,8-7.5c0.8-1,1.1-2.6,0-3.5c-9.4-7.8-20.8-9.3-27.2,2.7c-0.5,1-0.397,2.2,0.4,3
						c4.8,4.6,14.3,10.7,18.898,2.3c3-5.6,0.102-13.6-5.698-15.9c-6.802-2.8-20.7,1.6-19.302,10.6
						c1.399,8.8,12.802,14.1,20.699,14.3c1,0,2.2-0.8,2.4-1.8c0.699-3.5,2.399-6.7,3.1-10.2c0.603-2.8-3-4.3-4.6-1.9
						c-1.5,2.3-4.101,5.2-3.9,8.1c0.2,2.7,2.801,5.3,3.5,7.9c0.603,1.9,3.603,2.6,4.603,0.6c1.8-3.8,3.3-7.9,5.1-11.7
						c1.1-2.4-2-5.4-3.9-3c-3.1,3.7-4.697,7.9-7.197,12c-1.103,1.8,0.397,3.5,2.197,3.8c11.4,1.4,21.2-1.2,25.103-12.9
						c0.897-2.8-3.103-4.3-4.603-1.9c-7.197,11.9-26.697,18.9-39.197,11.3c-7.103-4.3-8.4-15.2-4.9-22.2
						c4.4-8.5,15.5-11.2,24.3-11.3c9.2,0,16.5,3.7,22.801,10.2c3.302,3.5,6.399,7.9,6.102,12.9c-0.602,8.9-13.7,12.4-20.602,13.7
						c-10.301,1.9-22.398,1.1-31.601-4.3c-9.8-5.8-11.5-19.2-4-27.8c6-6.9,16.2-9.8,25-11.2s18.601-1,25.9,4.6
						c9.3,7.2,12.7,18.1,3.897,27.1c-7.897,8.1-21,10.4-31.697,8.2c-9.303-1.9-24.4-9.2-18.5-20.9c4.8-9.6,17.197-14.7,27.3-15.5
						c14.1-1.1,25.1,7.3,30.1,20.2c2.8,7.3,5,16.7-4.3,20c-8,2.8-17.7,0.8-25.7-0.9c-3.2-0.7-4.2,3.6-1.3,4.8
						c13.5,5.6,32.7,2.4,41.7-10c9.199-12.7,0-27-11.9-33.8c-12.2-7-27.6-9.8-41.5-9.2c-11.899,0.6-25.399,5.2-28.3,18.2
						c-0.601,2.8,3,4.3,4.6,1.9c9.801-14.5,26.103-18.9,42.5-13.7c13.4,4.2,27,14.8,31.4,28.5c4.8,14.9-7.801,25.1-21.301,27.2
						c-15.399,2.4-34.399-2.1-46.602-12.1c-10.698-8.8-9.698-20.6-1-30.5c-1.398-0.8-2.8-1.6-4.198-2.4
						c-8,35.4,36.601,50.1,63.698,39.6c-0.6-1.5-1.3-3-1.898-4.6c-10.5,5.2-21.399,6.4-32.602,2.7c-10.5-3.4-19.6-10.8-27.8-17.9
						c-2.2-1.9-5.101,0.5-3.9,3c6.103,13.9,21.2,16.2,34.603,18c0.397-1.6,0.897-3.2,1.3-4.8c-7.601-1-15.2-2-22.4-4.8
						c-0.397,1.6-0.897,3.2-1.3,4.8c2.9,0.6,5.3,2.4,8.1,3.3c2.7,0.9,4.5-3.3,1.9-4.6c-0.5-0.2-0.9-0.5-1.4-0.7
						c-2.897-1.4-5.397,2.9-2.5,4.3c0.5,0.2,0.9,0.4,1.4,0.7c0.6-1.5,1.3-3,1.9-4.6c1,0.4-0.603-0.3-0.603-0.3c-1-0.5-2-0.9-3-1.3
						c-1.5-0.6-2.897-1.4-4.5-1.7c-3.198-0.7-4.3,3.7-1.3,4.8c7.2,2.7,14.8,3.8,22.4,4.8c3.197,0.4,4.5-4.4,1.3-4.8
						c-12.101-1.6-26.101-3.1-31.601-15.7c-1.302,1-2.602,2-3.899,3c9.399,8.2,19.399,15.8,31.3,19.7
						c11.802,3.9,24.102,1.7,35.102-3.7c2.5-1.2,0.698-5.6-1.899-4.6c-23.101,9-64.7-1.7-57.5-33.4c0.5-2.3-2.4-4.4-4.2-2.4
						c-10,11.4-11.8,25.4-0.199,36.5c11.199,10.7,28.602,15,43.602,15.1c13.8,0.1,28.5-4.8,33.8-18.7c4.7-12.4-3.5-25.6-12.2-33.9
						c-9.6-9.2-22.5-15.1-35.697-15.9c-14.5-0.8-27.103,6.6-35.103,18.4c1.5,0.6,3,1.3,4.603,1.9c2.397-10.8,13.8-13.9,23.5-14.5
						c11.8-0.8,24.197,1.7,35,6.5c10.197,4.5,22.1,15.5,15.197,27.3c-7,12-25.5,14.1-37.197,9.3c-0.4,1.6-0.9,3.2-1.303,4.8
						c12.603,2.7,37.4,6.5,38.9-12.3c0.6-8.3-4.1-18.3-9.3-24.7c-4.4-5.4-10.103-9.2-16.802-11c-12-3.3-26.101,0.5-35.698,8.2
						c-7.9,6.3-13.4,17.1-6.103,26c11.2,13.7,33.802,14.5,48.603,7.2c7.3-3.6,14.3-10.7,14.897-19.3c0.7-9.9-6.3-17.7-13.897-23.1
						c-6.5-4.6-16-4.7-23.5-4.1c-8.9,0.8-18,3.4-25.5,8.3c-10.302,6.6-15.2,20.5-9.4,31.7c4.7,9.1,15.9,12.8,25.4,14
						c10.6,1.3,22,0.1,31.6-4.7c7.8-3.9,13.4-11.4,10.603-20.3c-4.303-13.7-19.5-21.8-33.103-22.1c-10.897-0.3-22.897,4-28.6,13.7
						c-4.9,8.3-2.9,20.9,4.3,27.2c13.9,12.4,39.7,3,48.4-11.4c-1.5-0.6-3-1.3-4.603-1.9c-3.2,9.6-11.397,10.4-20.3,9.3
						c0.699,1.3,1.399,2.5,2.199,3.8c2.301-3.7,3.7-7.6,6.5-11c-1.3-1-2.602-2-3.899-3c-1.8,3.8-3.3,7.9-5.101,11.7
						c1.5,0.2,3,0.4,4.601,0.6c-0.601-2.2-1.399-4.3-2.7-6.2c-0.6-0.9-0.8-0.5-0.397-1.4c0.8-1.6,1.897-3.2,3-4.7
						c-1.5-0.6-3-1.3-4.603-1.9c-0.698,3.5-2.397,6.7-3.1,10.2c0.8-0.6,1.6-1.2,2.399-1.8c-5.602-0.1-11.699-3.1-14.802-7.8
						c-4.1-6.1,7.4-8.9,11.603-7.6c3.3,1,4.3,5.5,3.5,8.4c-1.603,5.7-9.301-1.2-11.2-3c0.1,1,0.3,2,0.4,3
						c4.8-9,12.397-7.5,19.397-1.7c0-1.2,0-2.4,0-3.5c-1.699,2.1-3.397,4.7-5.8,6.1c-2.301,1.4-6.9,0-9.301-0.3
						c0.801,1.1,1.601,2.1,2.398,3.2c0.602-2.2,1.802-9.1,4.302-9.9c-0.602,0.2-0.2,0,0.198,0.7c0.5,0.9,0.802,2,0.9,3
						c1,9.9-11.5-0.4-14.101-2.6c0.101,1,0.3,2,0.398,3c1.301-1.9,3.301-5.6,6-5.7c2.801-0.1,6.301,2.5,8.7,3.7
						c-0.301-1.1-0.601-2.3-0.9-3.4c-1.1,2.5-2.3,5.1-4.1,7.2c-1.2,1.4-1.601,0.7-0.601,1.6c-1.102-0.9-0.602-5-0.2-6.8
						c0.7-2.9,2.2-6.1,5.2-7.1c5.3-1.7,11.198,5,14.3,8.3c0.2-1.3,0.301-2.6,0.5-3.9c-6.8,4.9-13.199,6.2-20.8,2.2
						c0.3,1.1,0.601,2.3,0.898,3.4c1.102-2.3,3.602-8.6,6.699-8.9c1.801-0.2,3.601,3.4,4.4,4.6c2.198,3.4,4.698,8.8,9.397,8.6
						c0-1.7,0-3.3,0-5c-3.198,0.3-6.198,1.3-9.198,2.4c-0.5,0.2-1.102,0.4-1.602,0.5c0,0,1.102,2.3,1.602,0.6
						c0.398-1.3,3.801-6.7,1.801-6.8c-0.7-1.3-1.4-2.5-2.2-3.8c-0.6,1.2-2.1,2.3-3,3.3c-0.8,0.8-1.6,1.6-2.399,2.3
						c-1.101,1.1-2,0.9-0.198,1.3c0.6,0.6,1.198,1.2,1.698,1.7c0-0.1,0-0.1,0-0.2c-1.601,0.4-3.198,0.9-4.801,1.3
						c0.4,1,0.801,2,2,2.3c1.301,0.3,2.801-0.4,3.101-1.7c0.5-2.3-0.301-5.1-0.398-7.5c0-0.5-0.102-1.1,0-1.7
						c-1,0.3-1.899,0.7-2.899,1c0.602,1.4,1.102,1.6,1.699,0.5c-0.6,0.4-1.899,0.2-2.5,0.2c-1.3,0-2.6,1.2-2.5,2.5l0,0
						c0.101,1,0.7,2.3,1.801,2.4c3.301,0.5,1.899,2.3-0.101,3.8c-3.399,2.6-7.8,2.4-11.399,0.4c0.399,0.9,0.801,1.9,1.102,2.8
						c1.5-4.3,4.8-9.7,10.101-8.9c5.899,0.9-0.101,4.6-2.5,5.5c1.1,0.8,2.1,1.6,3.199,2.4c-0.3-5.6,4.7-7.6,8.101-11.2
						C1200.3-177.9,1196.7-181.5,1194.5-179.1L1194.5-179.1z"/>
				</g>
			</g>
			<g display="none">
				<g display="inline">
					<path d="M1185.8-199.8c-9.8-2.2-20.8-1.2-26.699,7.9c-5.101,7.8-3.801,17.8-0.101,25.8c4,8.5,11.3,14.5,19.7,18.3
						c8.5,3.8,18.7,6.1,25.7,10.1c0.8-6.1,1.6-12.2,2.397-18.3c-6.3,2.3-12,2.1-17.897-1.1c-5-2.7-9.2-8-9.803-13.8
						c-0.6-5.4-4.1-10-10-10c-5,0-10.6,4.6-10,10c1.5,12.9,7.803,23.3,18.7,30.5c9.9,6.5,23.3,7.9,34.3,3.7
						c7.803-2.9,10.4-13.7,2.4-18.3c-6.1-3.5-13-5.5-19.6-7.8c-2.9-1-5.7-2.1-8.4-3.4c-3.3-1.6-4.8-2.5-6.8-4.8
						c-0.5-0.5-0.9-1-1.303-1.5c0.5,0.7,0.5,0.6-0.197-0.4c-0.2-0.3-1.9-3.6-1.2-1.9c-0.5-1.2-0.8-2.4-1.1-3.6c-0.2-1.2-0.2-1.2,0,0
						c-0.103-0.9-0.103-1.7,0-2.6c-0.103,2.9,1-2.3-0.2,0.4c0.6-0.9,0.5-0.9-0.3,0.1c1.397-1.9-1.7,0.9,0.397-0.4
						c0.603-0.4,0.801-0.2,0.2-0.1c1.8-0.2,3.1,0.1,4.7,0.4C1193.1-177.7,1198.4-197,1185.8-199.8L1185.8-199.8z"/>
				</g>
			</g>
			<g display="none">
				<g display="inline">
					<path d="M1201.1-209.7c-18.697-2.1-32.897,9.8-41.5,25.3c-6.197,11.3,11.103,21.4,17.303,10.1
						c5.6-10.1,12.197-16.8,24.197-15.4c5.4,0.6,10-5,10-10C1211.1-205.7,1206.5-209.1,1201.1-209.7L1201.1-209.7z"/>
				</g>
			</g>
			<g display="none" opacity="0.1">
				<g display="inline">
					<path d="M1477-145.4c-4.3-0.8-6.6-1.8-9.4-3.2c-4-2-7.8-4.6-11.397-7.3c-7.9-5.9-15.603-14.2-22.302-21.9
						c-6.698-7.7-12.801-16-18.398-24.5c-2.602-3.9-5-8-7.3-12.1c-1-1.8-2-3.7-2.9-5.6c-0.399-0.9-0.8-1.7-1.3-2.6
						c-0.301-0.6-0.5-1.1-0.801-1.7c0.398,1,0.398,1,0,0c-2.102-5-6.602-8.6-12.302-7c-4.8,1.3-9,7.2-7,12.3
						c8.302,20.4,21.5,38.7,35.7,55.3c13.3,15.5,31.101,33.6,52,37.7c5.3,1,10.8-1.4,12.3-7C1485.4-138.1,1482.4-144.4,1477-145.4
						L1477-145.4z"/>
				</g>
			</g>
			<g display="none" opacity="0.1">
				<g display="inline">
					<path d="M1490.9-150.1c-22.2-7.4-43.2-15.7-64.4-25.1c-10.9-4.9-21.3-9.8-31.3-16.3c-11-7.1-21.9-14.2-33.9-19.7
						c-13.1-6.1-27-10.3-40.3-16c-10.4-4.4-20.5-9.3-30.8-13.9c-19.4-8.7-38.7-14.8-59.9-16.4c-29.4-2.2-59.6-0.6-88.9,1.8
						C1112-253.3,1082.7-249,1054-242.4c-27,6.1-53.4,14.5-79,25.2c-29.4,12.3-58.9,24.5-88.101,37.2
						c-12.5,5.4-24.802,11-37.102,16.9c-4.898,2.3-6.2,9.3-3.6,13.7c2.897,5,8.8,5.9,13.697,3.6c28.7-13.7,58-25.8,87.4-38.1
						c26.8-11.2,53.2-22.8,81-31.1c56.301-16.8,115.102-23,173.7-23.1c12.3,0,25.6-0.2,37.399,1.5c9.601,1.4,19,4.1,28.101,7.5
						c20.5,7.6,41.5,18.8,62.7,27.1c13.3,5.2,26,9.9,38.3,17.2c10.3,6.1,19.899,13.2,30.5,18.8c10.3,5.5,21.5,9.9,32.3,14.6
						c10.2,4.4,20.4,8.6,30.9,12.4c7.8,2.9,15.699,5.5,23.5,8.2C1497.9-126.8,1503.1-146.1,1490.9-150.1L1490.9-150.1z"/>
				</g>
			</g>
			<g display="none" opacity="0.1">
				<g display="inline">
					<path d="M1477-177c-18.5-5.2-34-17.1-49.1-28.6c-16.4-12.5-32.9-24.6-52.7-31c-12.3-4-17.5,15.3-5.3,19.3
						c18.397,6,33.897,18.3,49.1,29.9c16.2,12.4,32.8,24.1,52.7,29.7C1484.2-154.2,1489.4-173.5,1477-177L1477-177z"/>
				</g>
			</g>
			<g display="none" opacity="0.1">
				<g display="inline">
					<path d="M1494.7-162.8c-32.5-45.2-86.9-66-137.603-83.5c-5.198-1.8-10.897,2-12.3,7c-1.5,5.5,1.8,10.5,7,12.3
						c45.101,15.6,96.601,33.9,125.601,74.4c3.199,4.4,8.602,6.5,13.699,3.6C1495.5-151.6,1497.9-158.3,1494.7-162.8L1494.7-162.8z"
						/>
				</g>
			</g>
			<g display="none" opacity="0.1">
				<g display="inline">
					<path d="M1483.2-121.2c-14.103-1.4-28.301-2.4-42.5-1.9c-14.603,0.6-29.2,3.5-43.801,5c-13.802,1.4-28.399,2.4-41.699,6.6
						c-5.7,1.8-11.4,3.3-17.301,4.5c-2.5,0.5-4.899,0.9-7.399,1.3c-0.601,0.1-1.2,0.2-1.8,0.3c3.1-0.4,0.8-0.1,0.197,0
						c-1.5,0.2-2.897,0.3-4.397,0.5c-5.9,0.6-11.9,1-17.8,1.4c-19.4,1.3-38.7,2.9-58,5.1c-14.603,1.6-29.2,4-43.9,4.7
						c-13.6,0.6-27.4-0.3-40.8-2.4c-27.9-4.3-54.802-13.2-81.2-22.8c-27-9.8-53.6-20.6-80.9-29.4c-14-4.5-28.198-8.7-42.698-10.8
						c-15.602-2.3-31.302-2.6-47-2.5c-6.699,0-13.302,0.2-20,0.2c-12.899,0-12.899,20,0,20c15.301,0,30.601-0.5,45.898,0.2
						c15,0.7,29.3,3.7,43.7,7.8c27.6,7.8,54.4,18.4,81.2,28.5c26.5,10,53.198,19.5,80.897,25.5c28.603,6.2,56.803,7,85.7,3.4
						c22.5-2.8,45-5.1,67.6-6.7c12.803-0.9,25.5-1.6,38.2-3.4c14.9-2.2,29.102-7.5,44-9.7c14.3-2.2,28.8-3,43.2-5
						c14.397-2,28.397-2.5,43-1.7c6,0.4,11.897,0.9,17.8,1.5c5.4,0.5,10-5,10-10C1493.2-117.1,1488.6-120.7,1483.2-121.2
						L1483.2-121.2z"/>
				</g>
			</g>
			<g display="none" opacity="0.1">
				<g display="inline">
					<path d="M1004.1-154.9c-9.7-4.2-20.6-9.6-26.897-18.6c-5.9-8.4-3.4-18.2,4.5-25.7c7.697-7.3,19.397-10.1,29.3-13.3
						c12.1-3.9,23.7-8.3,33.8-16.2c4.301-3.4,3.5-10.6,0-14.1c-4.199-4.2-9.898-3.4-14.1,0c-9.602,7.6-22.801,10.3-34.2,14.1
						C982.9-224.2,969.9-217.9,961.4-206c-8.8,12.5-9.899,28.4-2.102,41.6c7.602,12.7,21.602,21,34.802,26.8
						c5,2.2,10.698,1.5,13.698-3.6C1010.2-145.5,1009.1-152.8,1004.1-154.9L1004.1-154.9z"/>
				</g>
			</g>
			<g display="none" opacity="0.1">
				<g display="inline">
					<path d="M1100.7-254.6c-20.4,2.4-40,9.5-57.9,19.6c-18.1,10.2-34.8,24.5-43,43.9c-7.8,18.4-5.7,38.2,9.7,51.8
						c13.899,12.3,32.7,17.9,50,23.6c12.3,4.1,17.5-15.2,5.3-19.3c-13.5-4.5-29.199-9.2-39.5-17.2c-5.397-4.2-8.1-7.7-9.5-12.6
						c-0.897-3.1-0.8-5.2-0.397-9.3c0.3-2.6,1.897-7.4,3.198-10.5c6.399-14.9,20.602-25.4,34.302-33.3c7.8-4.5,16.1-8.2,24.6-11.1
						c7.3-2.5,16.6-4.9,23.2-5.7c5.398-0.6,10-4.1,10-10C1110.7-249.5,1106.1-255.2,1100.7-254.6L1100.7-254.6z"/>
				</g>
			</g>
			<g display="none" opacity="0.1">
				<g display="inline">
					<path d="M1077.9-130.6c-15.4-12.6-29-27.6-38.9-44.8c-9.5-16.4-15-36.3-5.1-53.6c6.397-11.2-10.4-20.9-17.3-10.1
						c-8.2,12.9-13.5,27.1-12.803,42.6c0.603,15.1,6.103,29.7,10.103,44.1c3.5,12.5,21.897,7.2,19.3-5.3
						c-3.7-17.4-13.4-33.6-13.7-51.7c-0.2-10.4-13.1-13.1-18.6-5c-8.5,12.3-11.2,26.5-13.3,41c6.1-0.8,12.197-1.6,18.3-2.4
						c-4.603-9.3-7.7-19-9.5-29.2c-0.8-4.3-5.5-7.3-9.603-7.3c-4.8,0-8,3.1-9.6,7.3c-3.5,8.8-7,17.5-10.5,26.3
						c6.5,0.9,13.1,1.8,19.6,2.7c-0.197-3.6-1.1-6.8-2.397-10.1c-0.8-2-2.8-6.2-2.8-7.4c-0.603-8.7-10.4-13.2-17.103-7.1
						c-3.8,3.5-12.5,7.6-17.5,12.3c5.7,2.4,11.4,4.7,17.103,7.1c-0.4-2.9-1.5-5.9-1.803-8.8c-0.6-8.6-10.397-13.3-17.1-7.1
						c-7.9,7.5-20.4,8.3-30.7,9.7c-5.397,0.8-8.3,7.6-7,12.3c1.603,5.8,6.9,7.8,12.3,7c14.303-2,28.603-4.6,39.5-14.9
						c-5.697-2.4-11.397-4.7-17.1-7.1c0.2,2.7,1.6,7.4,1.8,8.8c1.103,8.4,10.103,13.5,17.103,7.1c3.8-3.5,12.5-7.6,17.5-12.3
						c-5.7-2.4-11.4-4.7-17.103-7.1c0.2,3.6,1.103,6.8,2.4,10.1c0.8,2,2.8,6.2,2.8,7.4c0.8,11.7,15.5,13,19.6,2.7
						c3.5-8.8,7-17.5,10.5-26.3c-6.397,0-12.897,0-19.3,0c2.103,11.9,6.2,23.1,11.5,34c3.603,7.3,17.103,6.2,18.3-2.4
						c1.803-12.8,3.803-25.3,11.303-36.2c-6.2-1.7-12.4-3.4-18.603-5c0.3,20.2,10.3,37.7,14.4,57c6.397-1.8,12.897-3.5,19.3-5.3
						c-3.3-11.8-7.9-24.1-9.2-36.2c-1.3-13,3-24.2,9.9-35.1c-5.802-3.4-11.5-6.7-17.302-10.1c-25.301,44.3,13.802,95.3,47.199,122.6
						c4.2,3.4,10,4.1,14.103,0C1081.5-120,1082.2-127.1,1077.9-130.6L1077.9-130.6z"/>
				</g>
			</g>
			<g display="none" opacity="0.1">
				<g display="inline">
					<path d="M1427.5-164.7c-0.1,14.3-4.7,31.1-17.9,38.7c-11.1,6.5-1.1,23.8,10.103,17.3c19.3-11.3,27.5-34.6,27.8-56
						C1447.7-177.6,1427.7-177.6,1427.5-164.7L1427.5-164.7z"/>
				</g>
			</g>
			<g display="none" opacity="0.1">
				<g display="inline">
					<path d="M1399.5-177.9c0.1,19.7,3.9,44.1-11.1,59.6c-9,9.3,5.197,23.4,14.1,14.1c19.5-20.2,17-47.9,17-73.7
						C1419.4-190.8,1399.4-190.8,1399.5-177.9L1399.5-177.9z"/>
				</g>
			</g>
			<g display="none" opacity="0.1">
				<g display="inline">
					<path d="M1405.1-176.7c3.603,11.1,5.603,21.2,5.103,32.8c-0.4,9-3.302,18-8.5,26c-4.802,7.4-12.302,13.7-20.603,18.5
						c-10.897,6.3-23.3,9.6-35.697,11.9c-5.4,1-8.303,7.4-7,12.3c1.5,5.6,6.897,8,12.3,7c26.6-4.8,52.898-16.4,68.3-39.5
						c14.603-21.9,13.3-50.2,5.4-74.2C1420.4-194.2,1401.1-189,1405.1-176.7L1405.1-176.7z"/>
				</g>
			</g>
			<g display="none" opacity="0.1">
				<g display="inline">
					<path d="M1457.4-126.1c-14-0.9-27.803-3.5-41.803-4.4c-14.5-1-28.8,1.2-42.197,6.8c-13.4,5.7-27,10.8-40.5,16.2
						c-7.603,3.1-15,6.3-23.103,7.8c-0.698,0.1-5.3,0.8-2.6,0.5c-1.602,0.2-3.2,0.4-4.801,0.5c-3.699,0.3-7.5,0.5-11.302,0.5
						c-8.198,0.1-16.397-0.3-24.5-0.9c-4.3-0.3-8.6-0.8-12.897-1.2c-2.2-0.2-4.4-0.5-6.7-0.8c-2.4-0.3-5-0.6-6.4-0.8
						c-40.3-5.5-80.1-14.4-119.897-23c-17.301-3.7-34.7-7.5-52.103-10.6c-12.697-2.3-25.8-4.7-38.697-4.9c-0.303,0-0.7,0-1,0
						c-12.9-0.1-12.9,19.9,0,20c5.197,0,10.5,0.5,15.697,1.2c0.5,0.1,3,0.4,0.303,0c0.8,0.1,1.5,0.2,2.3,0.3
						c1.6,0.2,3.2,0.5,4.8,0.7c3.8,0.6,7.601,1.3,11.3,1.9c17.5,3.2,34.803,6.9,52.103,10.6c39.8,8.5,79.6,17.4,119.897,23
						c31.7,4.4,66.303,9.1,96.7-3.1c14.601-5.9,29.3-11.7,43.9-17.6c12.2-4.9,23.3-7.8,36.5-7.4c13.897,0.4,27.5,3.2,41.3,4.3
						c1.2,0.1,2.4,0.2,3.6,0.2C1470.3-105.3,1470.2-125.3,1457.4-126.1L1457.4-126.1z"/>
				</g>
			</g>
		</g>
	</g>
</g>
<path fill="#FFFFFF" d="M728.771,168.921c-4.542-11.369-10.277-22.115-16.306-32.708c-1.674-4.915-4.492-9.556-7.943-13.751
	c-2.185-3.771-4.358-7.547-6.479-11.353c-4.066-7.829-8.174-15.588-11.776-23.382c-2.726-5.896-11.16-0.764-8.635,5.047
	c0.609,1.402,1.247,2.79,1.891,4.175c-0.369,0.668-0.588,1.438-0.573,2.301c0.025,1.519,0.135,3.029,0.299,4.532
	c-0.366-0.137-0.734-0.27-1.105-0.395c-11.261-9.736-24.441-17.514-37.545-24.08c-18.177-9.108-38.214-16.62-58.648-18.058
	c-4.503-0.317-6.417,5.596-3.535,8.536c0.428,0.436,0.873,0.85,1.313,1.271c-5.539-0.173-11.085-0.017-16.575,0.59
	c1.567-2.971,0.199-7.411-4.202-7.396c-4.778,0.017-9.551,0.131-14.326-0.079c-1.616-0.071-3.6-0.114-5.541-0.394
	c-0.018-0.007-0.035-0.013-0.052-0.02c3.286-1.691,4.229-6.913,0.442-8.825c-23.315-11.776-51.028-12.09-76.643-12.721
	c-0.452-0.345-0.968-0.62-1.552-0.783c-15.349-4.301-31.716-5.943-47.613-6.057c-0.618-0.004-1.249,0-1.874,0.001
	C382.94,32.906,353.796,34,324.95,36.25c-4.765,0.372-5.92,5.066-3.777,7.907c-8.471,0.019-16.895,0.091-25.223,0.093
	c-2.776,0.001-4.314,1.675-4.707,3.653c-10.051,1.639-19.956,4.037-29.622,7.525c-1.78,0.643-2.896,1.936-3.342,3.387
	c-0.708,0.055-1.416,0.108-2.124,0.162c0.4-0.72,0.776-1.452,1.113-2.204c1.359-3.032-0.138-7.989-4.317-7.523
	c-5.972,0.665-11.792,1.895-17.479,3.548c-1.148-1.217-2.891-1.871-4.851-1.37c-11.65,2.978-22.976,7.593-33.694,13.004
	c-0.201,0.102-0.405,0.208-0.606,0.311c-0.146-0.621-0.327-1.229-0.549-1.822c-0.885-2.369-3.433-4.509-6.15-3.492
	c-4.512,1.688-8.678,4.789-11.744,8.7c-11.463-0.809-23.425,0.975-33.973,4.146c-6.57,1.975-13.626,5.057-19.134,9.57
	c-8.334,0.605-16.463,2.784-23.065,7.046c-7.39,4.771-10.843,12.549-10.886,20.548c-0.675,0.821-1.333,1.649-1.963,2.486
	c-6.206,8.238-9.471,17.955-8.83,28.262c0.487,7.833,4.414,16.219,13.5,15.498c5.65-0.449,10.83-3.456,15.573-6.911
	c2.831,0.409,5.828-0.078,8.756-1.527c0.909-0.45,1.774-0.99,2.606-1.592c1.25,1.264,2.999,1.845,4.693,1.433
	c1.691,0.31,3.517-0.267,4.798-1.897c0.912-0.147,1.793-0.586,2.534-1.406c0.986-1.091,1.838-2.227,2.563-3.398
	c1.216-1.597,2.488-3.15,3.788-4.679c1.374,0.708,3.033,0.771,4.637-0.141c0.012-0.007,0.024-0.015,0.037-0.022
	c7.195,4.629,17.634-1.341,23.409-6.971c5.81-5.664,10.65-12.492,14.776-19.693c0.447-0.06,0.898-0.11,1.343-0.175
	c8.11-1.183,16.485-3.326,22.863-8.727c3.618-3.063,4.949-7.257,4.545-11.454c0.188-0.069,0.376-0.137,0.563-0.206
	c-0.66,2.556,1.338,4.928,3.611,5.75c7.381,2.673,17.665,2.384,24.784-0.872c5.568-2.547,9.441-8.554,6.743-13.958
	c4.664-1.419,9.402-2.597,14.188-3.553c0.114,0.002,0.228,0.006,0.341,0.008c-0.373,5.254,4.746,9.667,10.688,10.138
	c7.112,0.563,17.61-3.536,23.015-8.863c8.601,0.36,17.201,0.66,25.8,0.707c23.632,3.136,47.619,4.801,71.561,4.552
	c1.438,0.25,2.874,0.509,4.31,0.775c-4.553,0.118-9.109,0.149-13.667,0.117c-10.472-0.514-20.949-0.851-31.433-0.873
	c-6.47-0.014-6.42,9.753,0,10c9.765,0.375,19.525,0.709,29.275,0.787c25.479,1.221,50.923,3.583,76.387,5.117
	c1.52,0.432,3.053,0.819,4.593,1.185c-0.194,0.032-0.39,0.058-0.584,0.09c-5.909,0.964-3.928,9.41,1.329,9.821
	c33.938,2.656,68.429,7.914,102.453,4.73c8.537,1.036,18.043,2.159,26.152-0.207c1.693,0.136,3.388,0.258,5.082,0.367
	c8.585,4.989,17.494,9.438,26.983,12.931c2.987,1.1,5.292-0.971,5.963-3.527c4.315,1.333,8.661,2.527,13.037,3.527
	c0.523,0.12,1.057,0.15,1.581,0.111c3.096,0.745,6.229,1.309,9.379,1.659c4.185,2.214,8.516,4.032,13.04,5.23
	c2.421,0.642,4.446-0.462,5.481-2.218c8.019,8.072,15.566,16.507,20.53,26.92c1.503,3.153,5.504,2.92,7.8,1.042
	c0.592,0.625,1.263,1.023,1.959,1.24c0.991,3.912,2.339,7.757,3.737,11.523c0.388,1.043,0.991,1.828,1.71,2.388
	c1.073,2.986,2.304,5.931,3.794,8.807c2.864,5.529,11.001,1.007,8.898-4.455c0.532-0.353,1.005-0.788,1.389-1.297
	c0.956-0.793,1.643-1.94,1.814-3.283C726.232,175.613,730.443,173.106,728.771,168.921z M118.562,113.516
	c0.949,1.523,2.062,2.944,3.312,4.245c-1.693,2.861-2.982,5.906-3.756,9.069c-1.103,0.008-2.202-0.018-3.29-0.12
	c-2.032-0.189-3.921-0.844-5.623-1.829c1.064-1.636,2.169-3.086,2.929-4.112C114.101,118.114,116.256,115.715,118.562,113.516z
	 M140.149,99.188c-0.318,0.734-0.623,1.482-0.908,2.245c-0.203-0.501-0.429-0.987-0.682-1.453
	C139.087,99.713,139.617,99.449,140.149,99.188z M129.879,104.843c0.461,0.792,0.605,1.729,0.546,2.717
	c-0.806,0.708-1.582,1.445-2.333,2.205c-0.638-0.831-1.19-1.719-1.643-2.654C127.571,106.328,128.715,105.572,129.879,104.843z
	 M466.372,54.883c-1.702,0.136-3.404,0.283-5.105,0.45c-3.47-0.252-6.935-0.542-10.387-0.832c0.345-0.069,0.684-0.155,1.026-0.231
	C456.739,54.366,461.563,54.556,466.372,54.883z M105.143,108.397c1.15-1.05,2.345-2.06,3.58-3.023
	c1.954-1.387,4.074-2.519,6.23-3.317c0.018,0.412,0.037,0.823,0.077,1.23c-4.843,4.076-9.185,8.717-12.697,13.962
	c-0.512-1.068-0.92-2.183-1.225-3.321C102.09,111.944,103.482,110.075,105.143,108.397z M433.856,85.581
	c0.07,0.016,0.141,0.031,0.21,0.047c0.029,0.319,0.08,0.636,0.164,0.947c-0.152-0.011-0.304-0.022-0.456-0.033
	C433.828,86.226,433.858,85.906,433.856,85.581z M171.616,77.959c-0.311,0.126-0.62,0.254-0.928,0.382
	c-7.284,1.132-14.522,3.317-21.457,5.996c-1.878-0.529-3.826-0.987-5.827-1.369C152.146,79.75,161.959,77.939,171.616,77.959z
	 M92.104,145.743c-1.881,0-2.085-5.64-2.163-6.899c-0.231-3.716,0.293-7.21,1.43-10.604c0.316,0.789,0.665,1.577,1.084,2.361
	c1.138,2.127,2.513,3.808,4.063,5.128c0.364,2.553,1.326,5.024,3.077,7.262c0.083,0.106,0.172,0.201,0.257,0.304
	C97.265,144.752,94.618,145.743,92.104,145.743z M188.017,96.527c1.919-0.047,3.86-0.363,5.722-0.979
	c1.437-0.475,2.843-1.049,4.226-1.688c-3.077,2.048-7.967,3.272-10.509,3.874C187.644,97.331,187.832,96.929,188.017,96.527z
	 M224.556,85.868c1.902-1.476,4.156-2.653,6.123-3.629c0.004,0.001,0.008,0.001,0.012,0.002c1.026,1.093,2.567,1.595,4.465,0.872
	c0.42,0.119,0.836,0.251,1.25,0.394c-0.395,0.264-0.848,0.48-1.173,0.658C232.423,85.701,228.401,86.136,224.556,85.868z"/>
<path fill="#FFFFFF" d="M661.192,214.619c-6.541-10.925-14.931-20.745-26.155-26.738c-20.773-11.091-43.892,0.675-63.003,9.844
	c-10.958,5.257-22.132,9.652-33.45,14.074c-12.697,4.961-26.22,10.417-39.911,11.68c-6.698,0.618-13.94,0.452-21.233,0.503
	c-1.145-1.176-2.851-1.883-4.818-1.553c-12.215,2.049-24.587,0.68-36.726-1.224c-11.521-1.807-23.058-3.419-34.585-5.167
	c-10.955-1.661-21.089-4.024-30.657-9.811c-8.704-5.263-16.31-10.8-26.703-11.978c-3.351-0.38-5.934,3.813-4.725,6.762
	c-2.566-1.045-5.2-1.937-7.946-2.583c-5.819-1.37-8.26,5.84-3.853,9.139c8.75,6.55,19.602,10.417,29.972,13.75
	c1.075,0.527,2.157,1.041,3.25,1.522c1.126,0.496,2.229,0.92,3.326,1.31c-11.563-1.146-23.346-1.555-34.923-0.363
	c-15.742-0.643-31.452-1.637-47.171-3.256c-25.906-2.669-51.835-5.905-77.93-5.28c-4.581,0.109-7.34,7.201-2.523,9.317
	c2.702,1.188,5.423,2.315,8.159,3.398c-1.74,0.992-2.97,2.905-2.734,4.849c-2.504-0.789-4.969-1.728-7.378-2.882
	c-2.009-0.9-3.934-0.476-5.351,0.58c-5.198-0.92-9.095,6.584-3.696,9.055c44.235,20.244,84.528,51.412,132.926,61.012
	c0.389,0.811,1.059,1.515,2.074,1.988c19.449,9.085,40.773,17.423,62.523,17.683c7.383,0.088,13.686-2.723,19.707-6.264
	c8.133-0.359,16.562-1.345,24.573-3.435c0.724,0.452,1.63,0.718,2.72,0.698c1.668-0.029,3.324-0.131,4.97-0.289
	c-0.688,3.414,3.259,7.446,7.554,5.606c6.047-2.591,11.84-5.596,17.499-8.82c0.797-0.396,1.599-0.785,2.396-1.181
	c8.818,1.82,19.942-3.734,26.876-8.072c4.158-2.602,9.672-6.589,14.182-11.36c0.086-0.038,0.172-0.076,0.258-0.115
	c0.223,0.147,0.446,0.297,0.664,0.439c10.172,6.676,22.869,7.282,34.698,7.841c14.24,0.672,29.063-0.07,42.856-3.956
	c0.461-0.057,0.918-0.19,1.359-0.386c4.185-1.252,8.452-3.012,12.282-5.366c3.104,1.417,6.675,1.498,9.228-1.319
	c13.392,2.433,27.904,4.096,41.092,0.783c6.952-1.747,13.556-6.341,14.802-13.816c0.74-4.438-0.173-8.573-3.069-12.034
	c-0.425-0.507-0.92-0.935-1.455-1.297c-0.021-0.134-0.055-0.275-0.076-0.41c3.947-0.519,7.357-2.791,9.184-7.124
	c0.093-0.221,0.153-0.452,0.23-0.679c0.29-0.286,0.561-0.591,0.788-0.921C679.187,237.266,674.321,217.492,661.192,214.619z
	 M298.907,268.119c-0.918-0.241-1.835-0.485-2.748-0.749c0.923-0.045,1.847-0.079,2.772-0.1
	C298.898,267.556,298.89,267.839,298.907,268.119z M584.303,228.684c0.341-0.343,0.667-0.696,0.987-1.053
	c0.062,0.163,0.124,0.326,0.19,0.488C585.083,228.322,584.69,228.512,584.303,228.684z M602.841,225.83
	c-0.413,0.738-0.789,1.507-1.12,2.308c-0.099,0.238-0.184,0.479-0.272,0.719c-0.138-0.419-0.288-0.835-0.438-1.251
	c0.525-0.751,1.008-1.528,1.443-2.331C602.581,225.46,602.71,225.645,602.841,225.83z M559.792,228.062
	c0.473-0.484,0.942-0.971,1.402-1.466c0.277-0.086,0.554-0.171,0.83-0.257C561.281,226.915,560.539,227.491,559.792,228.062z
	 M618.054,242.8c0.256-0.212,0.494-0.446,0.709-0.701c0.261,0.631,0.549,1.25,0.883,1.845c-0.275,0.151-0.547,0.308-0.806,0.479
	C618.58,243.877,618.317,243.336,618.054,242.8z M625.724,258.708c0.086,0.437,0.18,0.873,0.287,1.308
	c-0.299-0.087-0.58-0.182-0.819-0.296c-0.593-0.281-1.048-0.628-1.403-1.01C624.432,258.741,625.078,258.736,625.724,258.708z
	 M520.172,281.949c2.977-1.29,5.96-2.564,8.949-3.822c2.786,1.813,5.637,3.453,8.331,4.951c1.252,0.696,2.611,1.43,4.043,2.146
	c-6.034-0.33-12.061-1.016-17.939-2.255C522.403,282.727,521.274,282.379,520.172,281.949z M620.038,275.738
	c0.685-2.224,1.117-4.519,1.172-6.778c2.979,1.327,6.445,1.779,9.867,1.451c1.279,1.577,2.74,2.967,4.379,4.066
	c2.337,1.568,4.99,2.046,7.617,1.786c0.044,0.032,0.088,0.065,0.133,0.095c-0.075,0.009-0.157,0.02-0.231,0.028
	C635.403,277.24,627.646,276.725,620.038,275.738z M650.64,274.753c0.791-0.761,1.459-1.54,2.033-2.332
	c0.342,0.201,0.695,0.376,1.063,0.51C652.843,273.689,651.795,274.296,650.64,274.753z"/>
</svg>
