<?xml version="1.0" encoding="utf-8"?>
<!-- Generator: Adobe Illustrator 16.0.0, SVG Export Plug-In . SVG Version: 6.00 Build 0)  -->
<!DOCTYPE svg PUBLIC "-//W3C//DTD SVG 1.1//EN" "http://www.w3.org/Graphics/SVG/1.1/DTD/svg11.dtd">
<svg version="1.1" id="Layer_1" xmlns="http://www.w3.org/2000/svg" xmlns:xlink="http://www.w3.org/1999/xlink" x="0px" y="0px"
	 width="750.9px" height="317.5px" viewBox="0 0 750.9 317.5" enable-background="new 0 0 750.9 317.5" xml:space="preserve">
<g id="lids" display="none">
	<g display="inline">
		<g>
			<path fill="#FFFFFF" d="M634.601,173.2c12.8-0.601,12.9-20.6,0-20.1c-36.801,1.6-69.2-13.5-98.5-35.2
				c-34.1-25.2-63.4-56.8-97.7-82C421.501,23.5,403.2,12.5,383.3,5.7C360.8-2,336.7-5.5,312.9-5.2c-48.3,0.7-97.3,15.4-137.4,42.3
				c-20.2,13.6-38.1,30-52.7,49.5c-17.3,23.1-31,48.8-49.6,71c5.6,1.5,11.1,2.9,16.7,4.4c-1.5-7-1.5-13.7,0.7-20.7
				c1.699-5.5,6.199-13.2,10.199-17.7c11.7-13.3,26.101-22.3,42.2-30.4c35.2-17.9,75-30.1,114.8-36.1
				c50.101-7.4,103.4-8.7,153.2,1.4c9.601,2,16.9-9.2,9.7-16.7c-16.199-16.9-43.8-19.9-65.9-21.2c-23.1-1.3-46.3,0-69.3,2.5
				c-12.899,1.4-12.8,18.5,0,20c67.9,8,138.4,7.3,202.001,35.5c1.6-6.2,3.299-12.4,5-18.6C467.3,61.3,444.2,49.1,420.8,41.7
				c-25.899-8.2-54.899-7-81.6-4.1c-28.2,3.1-56.1,9.6-83.9,15.1c-27.6,5.5-55.199,10.8-83.1,14.7c2.601,6.1,5.101,12.2,7.7,18.3
				c49.5-31.3,111.899-19.3,166-35.8c10-3.1,9-15.9,0-19.3c-25.4-9.7-52.2-13.3-79.2-9.6c-25.2,3.5-49,12.9-72.3,22.9
				c-10.4,4.5-2.9,22.1,7.7,18.3c30-10.7,58.3-26.2,89.5-33.3c-1.8-6.4-3.5-12.9-5.3-19.3c-25,7.1-50.801,12.2-74.301,23.8
				c-7.6,3.7-5.899,16.7,2.4,18.3c19.6,3.8,39-2.9,57.8-7.7c9.101-2.3,18.4-4.6,27.9-4.4c11.3,0.3,22.5,1.2,33.8,2.2
				c11.5,1.1,23,1,34.5,2.3c11.5,1.3,22.7,3.6,34,5.9c22.7,4.7,45.7,9.9,69,9c5.8-0.2,9.5-4.4,10-10
				c1.101-12.8-9.101-22.7-19.5-28.3c-13-6.9-27.7-10.8-42.101-13.6c-27.299-5.3-55.699-8.4-83.499-8.4c-12.9,0-12.9,20,0,20
				c25.2,0,50.499,2.5,73.999,6.9c7.5,1.4,15,3,22.301,5.1c3.4,1,6.699,2,10,3.2c1.4,0.5,2.8,1,4.199,1.6
				c-2.1-0.8,1.701,0.9,2.201,1.1c2.5,1.3,5,2.6,7.299,4.2c2.301,1.6-0.899-1,1.201,0.9c0.799,0.7,1.6,1.4,2.299,2.2
				c0.5,0.5,1.701,2.2,0-0.2c0.4,0.4,0.701,0.9,1,1.4c0.301,0.5,0.601,1,0.801,1.5c-0.6-1.6-0.801-1.9-0.4-0.9
				c0.301,0.9,0.5,3.8,0.301,0.5c0.1,1,0.1,1.9,0,2.8c3.299-3.3,6.699-6.7,10-10c-22.9,0.9-45.101-4.6-67.4-9.1
				c-11.801-2.4-23.6-4.7-35.6-5.9c-10.9-1.1-21.801-1.1-32.7-2.1c-11.4-1-22.801-2-34.2-2.3c-10.101-0.2-20.2,1.5-30,3.9
				c-9.7,2.4-19.4,5.3-29.2,7.4c-7.3,1.5-15.3,2.8-22.6,1.4c0.8,6.1,1.6,12.2,2.399,18.3c21.8-10.7,46.2-15.2,69.5-21.8
				c12.5-3.5,7.2-22.2-5.3-19.3c-31.3,7.1-59.5,22.6-89.5,33.3c2.6,6.1,5.1,12.2,7.7,18.3c21.1-9.1,43.5-18.1,66.5-20.8
				c24.1-2.8,47.1,0.9,69.699,9.5c0-6.4,0-12.9,0-19.3c-27.6,8.4-56.8,9.1-85.3,12.5c-29.8,3.5-59.8,9.1-85.5,25.4
				c-4.6,2.9-6.399,8.9-3.6,13.7c2.5,4.2,6.8,5.2,11.3,4.6c27.9-3.9,55.5-9.2,83.101-14.7c26.6-5.3,53.5-11.8,80.499-14.5
				c26.4-2.6,53.801-3.6,79.201,5.2c23.399,8.1,46.799,18.7,72.1,17.4c9-0.4,14.8-14.3,5-18.6C464.4,46.7,429.4,38.7,393.4,34
				c-35.899-4.6-72-6.5-107.9-10.7c0,6.7,0,13.3,0,20c21.7-2.4,43.601-3.7,65.4-2.7c11.8,0.5,22.601,1.5,34,4.6
				c2.5,0.7,5,1.4,7.399,2.3c2.9,1,2.601,0.8,5.201,2.2c1.899,1,3.899,2.1,5.699,3.4c0.9,0.7,0.9,0.7,0.1,0.1
				c0.4,0.4,0.9,0.8,1.301,1.2c0.699,0.6,1.3,1.2,1.9,1.8c3.199-5.6,6.5-11.1,9.699-16.7c-57.5-11.7-118.899-9.8-176.399,0.7
				c-38.9,7.1-78.4,20.2-113.2,39.3c-16.9,9.2-33.1,20.6-44.8,36.2c-11.3,15.1-15.3,33.5-11.2,51.899c1.6,7,11.9,10.101,16.7,4.4
				c15.899-19,28.5-40.3,42.5-60.7c11.399-16.7,24.1-31.9,39.8-44.8c35.5-29.4,81.7-47.4,127.6-50.9c23.101-1.8,46.4-0.4,68.801,5.7
				c20.1,5.5,38,14.8,55.199,26.8C488.3,94.9,543.601,177.3,634.601,173.2L634.601,173.2z"/>
		</g>
	</g>
	<g display="inline">
		<g>
			<path fill="#FFFFFF" d="M554.8,200.9c5.4-0.801,8.301-7.601,7-12.601c-1.6-5.8-6.899-7.7-12.3-7
				c-41.5,5.7-76.399,32-112.399,51.5c-25,13.601-51.5,24.8-79.5,30.3c-29,5.7-58.7,4.9-87.9,1.2c-15.1-2-30.2-5.5-45.4-6.5
				c-13.6-0.899-27.8-0.2-41-4c-11.8-3.3-22.3-9.1-31.8-16.8c-10-8.1-19.7-16-31.8-20.6c-4.899-1.9-11.2,2-12.3,7
				c-3.8,17.5-1,35.899,4.7,52.6c5.6,16.6,13.3,32.7,23.1,47.3c8,11.9,17,22.2,29.4,29.7c11.6,7,24.6,11.6,37.7,14.4
				c41.399,8.8,84,4.399,125.8,2.6c19.5-0.8,39.1-0.4,58.699-1.9c21.201-1.6,42.301-4.399,63-9.199
				c38.4-8.9,76.801-24.801,105.601-52.5c31.2-30.101,46.399-70.7,48.8-113.5c0.7-12.9-19.3-12.801-20,0
				c-1.3,23.199-6.6,46.399-17.6,66.399c-9.801,17.8-23.7,33.601-39.7,45.101C494.8,327.6,456.7,338.9,417.7,344.8
				c-19.5,3-40.6,4.5-60.9,4.8c-19,0.301-37.999,1-56.999,2c-21.301,1.101-42.7,2-64,0.5C217.2,350.8,196.7,347.6,180.5,339.2
				c-17.899-9.3-28-23.7-37.699-42c-10.5-19.8-21.2-45.3-16.101-68.2c-4.1,2.3-8.2,4.7-12.3,7c8.2,3.2,15.1,9.2,21.8,14.6
				c7.5,6.101,15.2,12.101,24.101,16.101c10.8,4.899,21.6,8.3,33.399,9.6c10.7,1.2,21.5,1.101,32.2,2c15.2,1.3,30.3,4.7,45.5,6.5
				c14.9,1.8,29.8,3,44.8,2.7c29.5-0.5,58.4-5.7,85.9-16.3c26.8-10.3,51.3-24.3,76-38.7C502.001,218.6,527.001,204.8,554.8,200.9
				L554.8,200.9z"/>
		</g>
	</g>
	<g display="inline">
		<g>
			<path fill="#FFFFFF" d="M595.101,245.1c18.8-11,25.4-36,14.199-54.699c-11-18.9-35.799-25.4-54.699-14.4
				c-34.7,20.3-63.5,48.9-95.1,73.4c2.699-2.101,5.399-4.2,8.1-6.301c-15.5,12-32,23.301-50,31.101c3.199-1.3,6.4-2.7,9.6-4
				c-11.699,4.8-24,7.5-36.5,9.2c3.5-0.4,7.1-0.9,10.6-1.4c-16.6,2.1-33.299,2.7-50,4.1c-15.399,1.301-30.8,2.7-46.199,3.801
				c-27.2,2-54.5,3.5-81.601,0c3.5,0.399,7.101,0.899,10.601,1.399c-15.8-2.1-31.2-6.1-45.9-12.2c3.2,1.301,6.4,2.7,9.601,4
				c-14.4-6.1-27.601-14.1-40-23.6c2.699,2.1,5.399,4.2,8.1,6.3c-5-3.899-9.9-8-14.6-12.3c-6.7-6.2-13.101-12.9-21.2-17.3
				C111,221.8,86.7,227.4,75.4,246.6C64.7,264.9,70.7,290.9,89.8,301.3c1.5,0.8,2.9,1.601,4.2,2.601
				c-2.699-2.101-5.399-4.2-8.1-6.301c6,5.101,11.4,10.801,17.5,15.801c8,6.699,16.3,13.199,25,19c13.9,9.199,29,16.399,44.7,22.199
				C200.2,364.7,230,368,258.801,367.9c24.1,0,48.1-2.2,72-4.101c30.3-2.5,61.2-3.2,91.1-8.899
				c60.601-11.5,104.101-59.101,150.899-95.4c-2.699,2.1-5.399,4.2-8.1,6.3C574.4,258.3,584.501,251.3,595.101,245.1L595.101,245.1z
				"/>
		</g>
	</g>
	<g display="inline">
		<g>
			<path fill="#FFFFFF" d="M546.9,212.3c5.2-4.399,4.601-13.1,0.101-17.7c-5.101-5.1-12.5-4.399-17.701,0
				c-9.199,7.9-22.5,10.2-34.799,13c-14.801,3.4-29,8.4-42.5,15.301c-12.201,6.3-23.9,13.8-36.601,18.8
				c-13.3,5.2-27.2,9.3-40.899,13.399C360.2,259.4,345.7,263.2,330.9,265.2c-14,1.899-28.4,1.5-42.5,0.399
				c-56.5-4.3-109.3-25.6-159.9-50.1c-6.1-3-13.5-1.7-17.1,4.5c-3.2,5.5-1.6,14.1,4.5,17.1c33.3,16.2,67.5,31.5,103.3,41.4
				c28.3,7.8,57.601,12.5,87,12.9c30.301,0.399,59.7-7.101,88.4-16.4c14.1-4.6,28.199-8.9,41.5-15.5c12.6-6.3,24.6-13.8,37.5-19.4
				C498.001,229.6,526.001,230.2,546.9,212.3L546.9,212.3z"/>
		</g>
	</g>
	<g display="inline">
		<g>
			<path fill="#FFFFFF" d="M511.8,82.7c16.101,0.1,16.101-24.9,0-25c-23.1-0.2-45.1-7.9-66.899-14.6
				C421.2,35.7,397.8,30.4,372.8,29.7c-16.5-0.4-32.799,0.6-49.1,2.9c-15.8,2.2-31.399,6-47.3,8.3c-30.4,4.3-61.6,5.9-91.5,13.2
				C161,60,138.301,72,117.7,85.5c-20.4,13.3-40.1,28.4-56.9,46.1C49.7,143.3,67.4,161,78.5,149.3
				c23.601-24.9,52.601-45.4,83.801-60.3c9.399-4.6,19.3-8.6,30.399-11c14.101-3.1,28.5-5.1,42.8-6.9c16.5-2,33.101-3.9,49.5-6.3
				c15.301-2.3,30.4-6.3,45.801-8.1c15.899-1.9,31.899-2.6,47.8-1.7c15.1,0.8,29.4,3.3,43.9,7.5C451.9,70.9,480.9,82.4,511.8,82.7
				L511.8,82.7z"/>
		</g>
	</g>
</g>
<g id="Layer_1_1_">
	<path fill="none" stroke="#000000" stroke-miterlimit="10" d="M702.9,177.2c-8.5-5.8-29.101-7.2-40.399-10.601
		c-15.4-4.699-30.9-9.3-46.101-15.3c-26.7-10.5-47.8-28.2-71.7-42.9c-10.699-6.5-19.1-16.6-29.8-22.8c-15.3-8.9-34-8.8-50.5-14
		c-25.899-8.2-43.899-19.2-71.601-22.9c-44.199-5.9-91.899-9.5-134.999,4c-41.4,13-81.5,24.8-123.601,33.3
		c-35.1,7.1-53.3,37.3-76.8,61.4"/>
	<path fill="none" stroke="#000000" stroke-miterlimit="10" d="M722.3,173.6c-87.699,32.2-115.5-18.7-135.1-27.1
		c-31-13.3-36.699-39.8-68.4-52.3C483.501,80.3,454.4,59.3,415.601,55.7c-38.7-3.6-74.4,5.4-112.5,9.3
		c-40.101,4.1-94.2,4.7-131.5,21.4c-25.7,11.4-41.9,34.4-54.9,57.9c-15.899,28.7-27.5,41.2-59.3,52.2"/>
	<path fill="none" stroke="#000000" stroke-miterlimit="10" d="M53.9,224.5c70.5-24.1,136.7,29.8,207.1,36.4
		c28.9,2.699,60.601,4.899,89.4,0.8c39.45-20.476,62.601-20.8,91.7-36.7c41.3-22.6,72.9-45,119.5-51.7
		c19.8-2.899,38.3-5.1,58.6-4.899c18.5,0.199,33,7.5,49.5,8.8"/>
	<path fill="none" stroke="#000000" stroke-miterlimit="10" d="M69.7,194.7c11.4,0,31.801-5.3,26.4,11
		c-2.4,7.5-19.801,14.2-26.4,17.1"/>
	<path fill="none" stroke="#000000" stroke-miterlimit="10" d="M501.4,212.3c-5.8,2-11.7,4.7-17.899,7.5
		C411.7,252.8,349.2,295.4,266.7,287.4c-34.399-3.4-76.5-7-107.5-22.801c-33.5-17.1-64.2-51.8-100-28.199"/>
	<path fill="none" stroke="#000000" stroke-miterlimit="10" d="M655.601,186c-31.7,1-99.6-17.4-119.301,19.3"/>
	<path fill="none" stroke="#000000" stroke-miterlimit="10" d="M132.801,43.9c-37.932,50.671-11.595,65.107-7,57.9"/>
	<path fill="none" stroke="#000000" stroke-miterlimit="10" d="M211.801,38.6c-11.2,11.9-32.5,36.2-49.101,38.6"/>
	<path fill="none" stroke="#000000" stroke-miterlimit="10" d="M260.9,56.1c9.5,1.1,17.9-3.1,26.3-7"/>
	<path fill="none" stroke="#000000" stroke-miterlimit="10" d="M322.301,22.8c-0.301,13-3.9,24.3-10.5,35.1"/>
	<path fill="none" stroke="#000000" stroke-miterlimit="10" d="M373.2,26.3c3.4,18.1-20.199,24.4-33.3,28.1"/>
	<path fill="none" stroke="#000000" stroke-miterlimit="10" d="M411.801,35.05c-4.6,9.6-1.8,18.55-12.3,21.05"/>
	<path fill="none" stroke="#000000" stroke-miterlimit="10" d="M487.668,50C468.95,49.1,443.8,65.5,432.8,66.7"/>
	<path fill="none" stroke="#000000" stroke-miterlimit="10" d="M504.8,84.2c-8.702,0.106-6.538-28.021,22.801-7"/>
	<path fill="none" stroke="#000000" stroke-miterlimit="10" d="M566.101,121c7.4-3.4,15.699-5.8,21.1-10.5"/>
	<path fill="none" stroke="#000000" stroke-miterlimit="10" d="M613.501,128.1c5.299,8.747-16.601,7.2-26.301,7"/>
	<path fill="none" stroke="#000000" stroke-miterlimit="10" d="M643.4,140.3c-16.45-12.2-15,11.4-24.601,12.3"/>
	<path fill="none" stroke="#000000" stroke-miterlimit="10" d="M259.101,56.2c4.1-13.4,11.6-24.5,24.6-28.1"/>
	<path fill="none" stroke="#000000" stroke-miterlimit="10" d="M304.7,17.5c-3.399,13.5-9.6,23.8-17.5,35.1"/>
	<path fill="none" stroke="#000000" stroke-miterlimit="10" d="M241.601,63.1c7.7-12.4,7.399-23.7,10.5-36.8"/>
	<path fill="none" stroke="#000000" stroke-miterlimit="10" d="M225.801,35.1c-5.101,8.2-10.7,19.9-12.301,29.8"/>
	<path fill="none" stroke="#000000" stroke-miterlimit="10" d="M339.8,291.2c-8.499-10.3-20.1-15.5-33.3-15.8"/>
	<path fill="none" stroke="#000000" stroke-miterlimit="10" d="M408.3,254.4c10.801-6.4,26.201-3.5,38.601-3.5"/>
	<path fill="none" stroke="#000000" stroke-miterlimit="10" d="M499.501,233.4c-15-6.4-34.201-5.301-50.9-5.301"/>
	<path fill="none" stroke="#000000" stroke-miterlimit="10" d="M532.8,221c-10-8.6-17-11.2-29.799-14"/>
	<path fill="none" stroke="#000000" stroke-miterlimit="10" d="M567.9,178.9c14.601-0.801,32.101,8.399,42.101,19.3"/>
	<g opacity="0.1">
		<g>
			<path d="M51.2,192.1c-5.3,1-8.3,7.4-6.899,12.4c1.5,5.6,7,8,12.3,7c20.9-4.1,38.7-22.2,52-37.7c14.2-16.6,27.399-34.9,35.7-55.3
				c2-5.1-2.2-11-7-12.3c-5.7-1.6-10.2,2-12.301,7c-0.399,1-0.399,1,0,0c-0.3,0.6-0.5,1.1-0.8,1.7c-0.5,0.9-0.899,1.7-1.3,2.6
				c-0.9,1.9-1.9,3.8-2.9,5.6c-2.3,4.1-4.699,8.2-7.3,12.1c-5.6,8.5-11.699,16.8-18.399,24.5s-14.4,16-22.3,21.899
				c-3.601,2.7-7.4,5.301-11.4,7.301C57.8,190.3,55.5,191.3,51.2,192.1L51.2,192.1z"/>
		</g>
	</g>
	<g opacity="0.1">
		<g>
			<path d="M51.2,160.5c-12.399,3.5-7.1,22.8,5.3,19.3c19.9-5.6,36.5-17.3,52.7-29.7c15.2-11.6,32.945-42.3,51.345-48.3
				c12.199-4,4.755-4.9-7.545-0.9c-19.8,6.4-36.3,18.5-52.7,31C85.2,143.4,69.7,155.3,51.2,160.5L51.2,160.5z"/>
		</g>
	</g>
	<g opacity="0.1">
		<g>
			<path d="M49.036,162.509c-3.199,4.399-0.8,11.101,3.601,13.8c5.1,2.9,10.5,0.801,13.699-3.6c29-40.5,80.501-58.8,125.601-74.4
				c5.2-1.8,8.5-6.8,7-12.3c-1.4-5-7.1-8.8-12.3-7C135.936,96.509,81.536,117.309,49.036,162.509L49.036,162.509z"/>
		</g>
	</g>
	<g opacity="0.1">
		<g>
			<path d="M45.101,216.3c-5.5,0.5-6.57-13.661-6.57-7.961c0,5.101,19.219,7.889,15.37,16.161c12.699-1,16.6,15.6,28.6,19.3
				c6.7,2.101,13.5,4.3,20.4,5.7c7.2,1.4,14.1,2.8,21,5.2c13.3,4.7,26,11.2,39.7,15c6.899,1.899,13.7,4.1,20.6,6.2
				c10,3,20,5.5,30.2,7.399c17.1,3.101,34.4,5.3,51.7,7.601c26.1,3.399,51.8,8.199,78.1,4.1c50.1-7.8,94-37,137.5-61
				c21.5-11.8,43.5-23.4,67-30.5c13.7-4.2,27.5-6.7,41.801-7.4c15.299-0.699,30.6-0.199,45.899-0.199c12.899,0,12.899-20,0-20
				c-32.5,0-64.5-1-95.8,9.199C491.8,201,449.7,231.3,403.9,253.7c-20.899,10.1-43.3,19.5-66.601,22.2
				c-25.6,3-51.399-2.4-76.699-5.801c-25.101-3.399-50.4-7.199-74.9-14.8c-8.899-2.7-18-5-26.7-8.2
				c-13.1-4.899-25.8-11.3-39.5-14.699c-6.6-1.601-13.2-2.601-19.7-4.4c-6.1-1.7-12.1-3.6-18.1-5.4
				C70.001,219.1,57.501,215.3,45.101,216.3L45.101,216.3z"/>
		</g>
	</g>
	<g opacity="0.1">
		<g>
			<path d="M531.3,168.6c-5,2.101-6.1,9.4-3.699,13.7c3,5.101,8.699,5.8,13.699,3.601c13.201-5.801,27.201-14.101,34.801-26.8
				c7.8-13.2,6.699-29.1-2.1-41.6c-8.5-11.9-21.5-18.2-35.101-22.7c-11.399-3.8-24.601-6.5-34.2-14.1c-4.199-3.4-9.9-4.2-14.1,0
				c-3.5,3.5-4.301,10.7,0,14.1c10.1,7.9,21.699,12.3,33.8,16.2c9.899,3.2,21.601,6,29.3,13.3c7.9,7.5,10.4,17.3,4.5,25.7
				C551.9,159,541.001,164.4,531.3,168.6L531.3,168.6z"/>
		</g>
	</g>
	<g opacity="0.1">
		<g>
			<path d="M441.601,67.2c-5.4-0.6-76.325-7.3-76.325-2.3c0,5.9,70.924,21.7,76.325,22.3c6.6,0.8,15.9,3.2,23.199,5.7
				c8.5,2.9,16.801,6.6,24.601,11.1c13.8,8,28,18.4,34.3,33.2c1.301,3.1,2.9,7.9,3.2,10.5c0.399,4.1,0.5,6.2-0.399,9.3
				c-1.4,4.9-4.101,8.4-9.5,12.6c-10.301,8-26,12.7-39.5,17.2c-12.201,4.101-7,23.4,5.299,19.3c17.301-5.699,36.101-11.3,50-23.6
				c15.4-13.6,17.5-33.4,9.701-51.8c-8.201-19.4-24.9-33.7-43-43.9C481.601,76.7,462.001,69.6,441.601,67.2L441.601,67.2z"/>
		</g>
	</g>
	<g opacity="0.1">
		<g>
			<path d="M427.601,232.848c-4.199,3.4,19.199-15.348,22.699-11.647c4.101,4.1,9.9,3.399,14.101,0
				c33.399-27.3,72.5-78.3,47.2-122.6c-5.801,3.4-11.5,6.7-17.301,10.1c6.9,10.9,11.201,22.1,9.9,35.1
				c-1.3,12.1-5.9,24.4-9.199,36.2c6.399,1.8,12.899,3.5,19.299,5.3c4.101-19.3,14.101-36.8,14.4-57c-6.199,1.6-12.4,3.3-18.6,5
				c7.5,10.9,9.5,23.4,11.3,36.2c1.2,8.6,14.7,9.7,18.3,2.4c5.301-10.9,9.4-22.101,11.5-34c-6.4,0-12.9,0-19.3,0
				c3.5,8.8,7,17.5,10.5,26.3c4.101,10.3,18.8,9,19.601-2.7c0-1.2,2-5.4,2.799-7.4c1.301-3.3,2.201-6.5,2.4-10.1
				c-5.699,2.4-11.4,4.7-17.1,7.1c5,4.7,13.699,8.8,17.5,12.3c7,6.399,16,1.3,17.1-7.101c0.2-1.4,1.6-6.1,1.801-8.8
				c-5.701,2.4-11.4,4.7-17.101,7.1c10.899,10.3,25.2,12.9,39.5,14.9c5.399,0.8,10.7-1.2,12.3-7c1.301-4.7-1.6-11.5-7-12.3
				c-10.3-1.4-22.8-2.2-30.699-9.7c-6.701-6.2-16.5-1.5-17.101,7.1c-0.3,2.9-1.399,5.9-1.8,8.8c5.699-2.4,11.4-4.7,17.1-7.1
				c-5-4.7-13.699-8.8-17.5-12.3c-6.699-6.1-16.5-1.6-17.1,7.1c0,1.2-2,5.4-2.801,7.4c-1.299,3.3-2.199,6.5-2.399,10.1
				c6.5-0.899,13.101-1.8,19.601-2.7c-3.5-8.8-7-17.5-10.5-26.3c-1.601-4.2-4.801-7.3-9.601-7.3c-4.101,0-8.8,3-9.601,7.3
				c-1.799,10.2-4.899,19.9-9.5,29.2c6.101,0.8,12.201,1.601,18.301,2.4c-2.1-14.5-4.801-28.7-13.301-41c-5.5-8.1-18.399-5.4-18.6,5
				c-0.3,18.1-10,34.3-13.699,51.7c-2.601,12.5,15.799,17.8,19.299,5.3c4-14.4,9.5-29,10.101-44.1c0.7-15.5-4.601-29.7-12.8-42.6
				c-6.9-10.8-23.7-1.1-17.301,10.1c9.9,17.3,4.4,37.2-5.1,53.6c-9.9,17.2-23.5,32.2-38.9,44.8L427.601,232.848z"/>
		</g>
	</g>
	<g opacity="0.1">
		<g>
			<path d="M100.7,177.2c-0.1-12.9-20.1-12.9-20,0c0.301,21.399,8.5,44.7,27.801,56c11.199,6.5,21.199-10.8,10.1-17.3
				C105.4,208.3,100.8,191.5,100.7,177.2L100.7,177.2z"/>
		</g>
	</g>
	<g opacity="0.1">
		<g>
			<path d="M128.801,159.6c0-12.8-20-12.8-20,0c0,25.801-2.5,53.5,17,73.7c8.899,9.3,23.1-4.8,14.1-14.1
				C124.9,203.7,128.7,179.3,128.801,159.6L128.801,159.6z"/>
		</g>
	</g>
	<g opacity="0.1">
		<g>
			<path d="M123.2,120.2c4-12.3-15.3-17.5-19.3-5.3c-18.8,57.5,7.601,142.2,73.7,154.4c5.399,1,10.8-1.399,12.3-7
				c1.3-4.899-1.6-11.3-7-12.3C127.601,239.8,107.5,168.2,123.2,120.2L123.2,120.2z"/>
		</g>
	</g>
	<g opacity="0.1">
		<g>
			<path d="M67.9,225.1c-12.8,0.801-12.9,20.801,0.1,20c22.2-1.399,45.9-8.6,67.9-2.199c10.7,3.1,20.5,8.3,30.6,12.8
				c11,5,22.101,9.5,33.9,12.3c50.9,12,103.5,7,155.2,7c12.9,0,12.9-20,0-20c-50.7,0.1-103.9,6.4-153.5-7.1
				c-10.8-3-21-7.301-31.2-12c-10.6-4.9-21.5-10.601-33-13.101C114.4,217.6,91.4,223.6,67.9,225.1L67.9,225.1z"/>
		</g>
	</g>
	<g opacity="0.02">
		<g>
			<path d="M549.001,112.8c-1.4-2.9-5.701-0.4-4.301,2.5c5.6,11.2,17.5,33.3,2.7,42.2c-2.8,1.6-0.3,6,2.5,4.3
				C567.8,151,556.001,126.8,549.001,112.8L549.001,112.8z"/>
		</g>
	</g>
	<g opacity="0.02">
		<g>
			<path d="M527.101,117.1c-2.9-1.3-5.5,3-2.5,4.3c15.199,7,23.5,21.5,30.699,35.9c1.4,2.9,5.701,0.4,4.301-2.5
				C552.001,139.8,543.001,124.5,527.101,117.1L527.101,117.1z"/>
		</g>
	</g>
</g>
</svg>
