<?xml version="1.0" encoding="utf-8"?>
<!-- Generator: Adobe Illustrator 16.0.0, SVG Export Plug-In . SVG Version: 6.00 Build 0)  -->
<!DOCTYPE svg PUBLIC "-//W3C//DTD SVG 1.1//EN" "http://www.w3.org/Graphics/SVG/1.1/DTD/svg11.dtd">
<svg version="1.1" xmlns="http://www.w3.org/2000/svg" xmlns:xlink="http://www.w3.org/1999/xlink" x="0px" y="0px"
	 width="451.915px" height="483.941px" viewBox="575.575 -434.474 451.915 483.941"
	 enable-background="new 575.575 -434.474 451.915 483.941" xml:space="preserve">
<g id="white">
</g>
<g id="Layer_1">
</g>
<g id="more_wrinkles">
	<g opacity="0.1">
		<g>
			<path d="M627.5-367.5c-1.923,56.982,12.89,113.779,5.422,170.692c0.488-3.633,0.976-7.266,1.464-10.899
				c-5.03,36.181-18.24,70.798-32.344,104.286c1.378-3.265,2.755-6.529,4.133-9.794c-8.091,19.125-16.707,38.019-25.078,57.021
				c-4.646,10.547-7.316,20.02-4.133,31.593c2.819,10.249,9.677,19.134,18.842,24.503c9.469,5.547,21.01,7.044,31.593,4.133
				c9.265-2.548,20.455-9.653,24.503-18.842c23.427-53.181,50.843-106.97,60.605-164.788c5.493-32.532,4.899-64.692,2.145-97.44
				c-2.533-30.099-6.173-60.205-5.152-90.466c0.754-22.348-19.221-41-41-41C645.58-408.5,628.253-389.831,627.5-367.5L627.5-367.5z"
				/>
		</g>
	</g>
	<g opacity="0.1">
		<g>
			<path d="M884.965-404.399c-12.642,44.969-11.485,92.936-6.297,138.923c2.855,25.306,6.755,50.492,11.071,75.586
				c3.195,18.583,6.882,37.108,9.42,55.797c-0.488-3.633-0.977-7.267-1.465-10.899c3.942,29.429,6.393,59.269,13.844,88.09
				c3.946,15.265,9.739,30.407,17.299,44.235c9.091,16.628,21.813,29.534,36.97,40.571c8.471,6.168,21.884,6.804,31.593,4.133
				c10.248-2.819,19.134-9.677,24.503-18.842c5.547-9.469,7.044-21.01,4.133-31.593c-3.049-11.086-9.861-17.964-18.842-24.503
				c-0.64-0.457-1.271-0.926-1.895-1.406c2.767,2.137,5.532,4.274,8.298,6.411c-4.965-3.897-9.309-8.379-13.169-13.369
				c2.137,2.766,4.273,5.532,6.411,8.298c-5.153-6.864-9.224-14.367-12.6-22.245c1.378,3.265,2.755,6.529,4.133,9.794
				c-9.006-21.575-12.888-44.883-15.999-67.925c0.488,3.633,0.976,7.266,1.464,10.899c-3.108-23.292-5.789-46.599-9.853-69.752
				c-4.611-26.271-9.339-52.524-12.894-78.965c0.488,3.633,0.977,7.266,1.465,10.899c-5.019-37.876-8.053-76.555-2.966-114.592
				c-0.487,3.633-0.976,7.266-1.464,10.899c1.357-9.676,3.265-19.237,5.909-28.646c6.046-21.505-7.19-44.536-28.636-50.435
				C913.77-438.985,891.009-425.9,884.965-404.399L884.965-404.399z"/>
		</g>
	</g>
	<g opacity="0.1">
		<g>
			<path d="M617.5-137.5c-1.664,30.288,8.08,60.847,23.125,86.832c15.904,27.467,38.531,49.759,64.155,68.097
				c24.425,17.479,53.205,28.417,82.991,31.594c13.237,1.412,27.119-0.741,39.994-3.611c13.609-3.034,26.821-8.774,39.243-14.943
				c23.743-11.792,45.795-29.62,62.835-49.893c17.94-21.344,34.224-47.03,38.192-75.176c0.488-3.633,0.977-7.266,1.465-10.899
				c-0.023-7.401-1.889-14.299-5.598-20.693c-5.369-9.165-14.255-16.023-24.503-18.842c-10.582-2.911-22.124-1.414-31.593,4.133
				c-8.191,4.798-17.448,14.62-18.842,24.503c-1.116,7.909-3.359,15.522-6.4,22.899c1.377-3.265,2.755-6.53,4.133-9.794
				c-4.584,10.77-10.718,20.717-17.856,29.975c2.138-2.766,4.274-5.532,6.411-8.298c-9.085,11.577-19.607,21.876-31.243,30.877
				c2.766-2.137,5.532-4.274,8.298-6.411c-10.889,8.287-22.614,15.347-35.193,20.758c3.265-1.378,6.529-2.755,9.795-4.133
				c-9.888,4.143-20.143,7.195-30.779,8.636c3.633-0.488,7.266-0.977,10.899-1.465c-7.2,0.882-14.398,0.994-21.603,0.11
				c3.633,0.488,7.266,0.977,10.899,1.465c-9.884-1.374-19.496-4.48-28.7-8.266c3.265,1.378,6.529,2.755,9.794,4.133
				c-13.396-5.668-25.855-13.146-37.378-22.008c2.766,2.137,5.532,4.274,8.298,6.411c-11.704-9.162-22.243-19.625-31.421-31.319
				c2.137,2.766,4.274,5.532,6.411,8.298c-8.262-10.724-15.248-22.294-20.526-34.771c1.378,3.265,2.755,6.529,4.133,9.794
				c-3.848-9.383-6.643-19.078-8.11-29.119c0.488,3.633,0.977,7.266,1.465,10.899c-0.87-6.574-1.155-13.147-0.791-19.77
				c1.227-22.335-19.578-41-41-41C635.223-178.5,618.725-159.808,617.5-137.5L617.5-137.5z"/>
		</g>
	</g>
	<g opacity="0.1">
		<g>
			<path d="M819.989-89.036c-1.01-0.382-2.01-0.782-3.005-1.199c3.265,1.377,6.529,2.755,9.794,4.133
				c-6.397-2.769-12.317-6.396-17.844-10.635c2.767,2.137,5.532,4.274,8.298,6.411c-8.464-6.613-15.796-14.472-22.384-22.931
				c2.137,2.766,4.274,5.532,6.411,8.298c-14.767-19.186-25.774-41.024-35.207-63.234c1.378,3.265,2.755,6.529,4.133,9.794
				c-28.831-68.364-42.49-141.34-60.352-212.977c-0.584-2.345-1.185-4.686-1.798-7.024c-5.669-21.607-29.092-34.507-50.435-28.636
				c-21.727,5.976-34.304,28.831-28.636,50.435c8.136,31.007,14.573,62.451,22.288,93.565c9.69,39.077,20.608,78.006,35.388,115.497
				c10.844,27.507,22.928,55.1,40.266,79.222c8.391,11.673,17.395,23.207,28.296,32.667c13.372,11.603,26.485,19.435,42.988,25.686
				c9.826,3.722,22.847,0.99,31.593-4.133c9.165-5.369,16.023-14.254,18.842-24.503c2.911-10.583,1.414-22.124-4.133-31.593
				C838.712-80.06,830.359-85.107,819.989-89.036L819.989-89.036z"/>
		</g>
	</g>
	<g opacity="0.1">
		<g>
			<path d="M791.399,2.036c20.514-6.784,41.771-11.063,62.198-18.107c12.045-4.153,24.177-9.077,35.028-15.827
				c14.003-8.711,24.339-19.248,34.165-32.219c12.918-17.053,18.802-38.33,22.868-59.023c3.377-17.192,5.973-34.541,8.398-51.889
				c5.707-40.802,10.447-81.736,14.057-122.777c2.432-27.646,5.446-55.901,4.245-83.693c-0.965-22.321-17.92-41-41-41
				c-21.619,0-41.966,18.657-41,41c1.133,26.2-1.615,52.797-3.828,78.869c-3.071,36.191-7.03,72.323-11.86,108.321
				c0.487-3.633,0.976-7.266,1.464-10.899c-2.227,16.506-4.64,32.992-7.529,49.396c-2.529,14.36-5.068,29.075-10.664,42.606
				c1.377-3.265,2.755-6.529,4.133-9.794c-2.688,6.231-5.987,12.083-10.088,17.497c2.137-2.766,4.273-5.532,6.411-8.298
				c-3.808,4.857-8.134,9.164-12.981,12.981c2.766-2.137,5.531-4.273,8.298-6.411c-6.686,5.107-14.032,9.093-21.75,12.405
				c3.265-1.377,6.529-2.755,9.794-4.133c-23.22,9.729-48.312,14.038-72.157,21.923c-21.199,7.011-34.791,28.061-28.636,50.435
				C746.663-5.885,770.176,9.054,791.399,2.036L791.399,2.036z"/>
		</g>
	</g>
	<g opacity="0.1">
		<g>
			<path d="M699.098-66.807c8.001,16.836,23.932,30.25,39.982,39.059c14.509,7.962,30.592,13.415,46.521,17.784
				c21.542,5.908,44.508-7.088,50.435-28.636c5.921-21.525-7.096-44.527-28.636-50.435c-9.041-2.479-17.983-5.264-26.648-8.859
				c3.265,1.378,6.529,2.755,9.794,4.133c-7.213-3.079-14.127-6.7-20.439-11.38c2.766,2.137,5.532,4.274,8.298,6.411
				c-3.833-2.964-7.284-6.241-10.279-10.057c2.137,2.766,4.274,5.532,6.411,8.298c-1.799-2.437-3.333-4.967-4.633-7.703
				c-4.372-9.199-14.994-16.227-24.503-18.842c-10.583-2.911-22.124-1.414-31.593,4.133c-9.165,5.369-16.023,14.254-18.842,24.503
				C691.848-87.068,694.207-77.097,699.098-66.807L699.098-66.807z"/>
		</g>
	</g>
	<path fill="none" stroke="#000000" stroke-miterlimit="10" d="M976.5-37.5c-31.355,19.04-63.156,43.211-100.079,49.907
		c-19.72,3.576-32.163-1.618-50.225-7.005c-18.398-5.487-35.72-4.368-55.036-4.312c-22.643,0.066-37.647,4.658-60.514-2.882
		C679.762-11.975,650.073-25.274,618.5-33.5"/>
	<path fill="none" stroke="#000000" stroke-miterlimit="10" d="M912.5-285.5c12.951,52.326,1.841,124.986-18.495,174.555
		c-10.275,25.047-17.994,51.478-31.015,75.447c-47.551,87.527-141.879,19.116-173.454-43.125
		C656.831-143.09,668.722-229.973,652.5-299.5"/>
</g>
</svg>
