<?xml version="1.0" encoding="utf-8"?>
<!-- Generator: Adobe Illustrator 16.0.0, SVG Export Plug-In . SVG Version: 6.00 Build 0)  -->
<!DOCTYPE svg PUBLIC "-//W3C//DTD SVG 1.1//EN" "http://www.w3.org/Graphics/SVG/1.1/DTD/svg11.dtd">
<svg version="1.1" id="Layer_1" xmlns="http://www.w3.org/2000/svg" xmlns:xlink="http://www.w3.org/1999/xlink" x="0px" y="0px"
	 width="1600px" height="900px" viewBox="0 0 1600 900" enable-background="new 0 0 1600 900" xml:space="preserve">
<path stroke="#FFFFFF" stroke-miterlimit="10" d="M-102-472v1844h1804V-472H-102z M1015.705,541.074l-67.651,189.142
	c-33.077,41.795-53.913,58.485-77.427,64.835c-0.012,0-0.012,0-0.012,0c-25.066,14.817-52.906,23.074-82.234,23.074
	c-27.582,0-53.849-7.304-77.727-20.495c-19.253,0-79.289-35.635-96.079-88.671L575.588,559.29
	c-37.05-69.965-139.576-150.542-153.921-237.957c-53.333-325,133.777-292.25,366.714-292.25
	c255.482,0,474.952,0.583,389.952,298.916C1156.463,404.761,1046.498,490.635,1015.705,541.074z"/>
</svg>
