<?xml version="1.0" encoding="utf-8"?>
<!-- Generator: Adobe Illustrator 16.0.0, SVG Export Plug-In . SVG Version: 6.00 Build 0)  -->
<!DOCTYPE svg PUBLIC "-//W3C//DTD SVG 1.1//EN" "http://www.w3.org/Graphics/SVG/1.1/DTD/svg11.dtd">
<svg version="1.1" id="Layer_1" xmlns="http://www.w3.org/2000/svg" xmlns:xlink="http://www.w3.org/1999/xlink" x="0px" y="0px"
	 width="480.953px" height="331.334px" viewBox="0 0 480.953 331.334" enable-background="new 0 0 480.953 331.334"
	 xml:space="preserve">
<path opacity="0.6" fill="none" stroke="#010101" stroke-miterlimit="10" d="M5.492,101.723c6.829-8.81,19.83-11.008,26.749-22.274
	c5.929-9.654,7.371-20.104,14.701-28.925c18.923-22.771,48.971-30.643,76.411-38.801c26.582-7.902,47.69-12.297,75.841-10.997
	c23.75,1.097,47.108,6.82,70.503,10.025c23.827,3.265,48.429,6.572,69.869,17.724c17.354,9.027,31.77,24.93,45.446,38.274
	c15.391,15.017,28.874,29.742,47.701,41.473c9.598,5.98,20.311,9.227,31,12.552c9.896,3.078,12.418,6.634,16.777,16.948"/>
<path opacity="0.6" fill="none" stroke="#010101" stroke-miterlimit="10" d="M0.492,158.723c2.293,12.863,15.082,19.986,25,26.753
	c10.389,7.087,14.921,9.154,17.777,21.195c5.1,21.501,9.696,38.955,27.746,54.322c15.328,13.05,30.94,26.677,47.703,37.977
	c10.066,6.786,20.65,15.003,31.722,19.507c11.298,4.597,22.719,4.654,34.271,7.972c40.051,11.504,81.863-2.098,120.507-12.425
	c21.704-5.8,43.685-18.963,54.324-38.804c11.095-20.69,20.447-41.336,40.847-55.474c15.48-10.729,33.889-12.507,48.933-21.805
	c12.331-7.62,23.154-25.25,29.171-38.219"/>
<path opacity="0.6" fill="none" stroke="#010101" stroke-miterlimit="10" d="M444.492,136.723
	c-22.067,9.32-56.949,5.667-79.977,1.023c-27.477-5.541-50.006-21.933-74.53-34.271c-20.875-10.501-38.756-6.592-60.712-6.752
	c-20.177-0.147-38.19-10.438-59.027-8.023c-23.38,2.709-42.25,22.548-65.025,28.797c-21.228,5.824-47.793,0.226-69.729,0.226"/>
<path opacity="0.6" fill="none" stroke="#010101" stroke-miterlimit="10" d="M11.492,118.723
	c7.361,16.172,36.343,18.314,51.922,19.052c9.92,0.47,19.495-2.398,29.078-0.023c9.175,2.274,18.543,8.165,27.223,11.778
	c17.802,7.411,32.155,21.664,50.75,25.945c19.426,4.472,40.222,8.305,60.027,9.245c15.912,0.756,32.914,1.01,47.468-4.964
	c18.051-7.41,35.731-15.404,54.31-22.032c17.488-6.239,35.676-4.865,54.242-3.948c17.625,0.87,34.024-4.784,50.98-5.052"/>
<path opacity="0.6" fill="none" stroke="#010101" stroke-miterlimit="10" d="M134.492,104.723
	c9.766,8.721,2.437,23.363,9.973,32.078c7.932,9.172,24.5,7.314,35.25,7.922c12.737,0.72,24.219,9.875,29.559-5.223
	c4.056-11.467,4.913-26.196,6.219-38.777"/>
<path opacity="0.6" fill="none" stroke="#010101" stroke-miterlimit="10" d="M288.492,104.723
	c0.435,10.641-3.552,22.681-4.974,33.199c-1.912,14.154-6.173,16.898-21.03,17.824c-11.833,0.738-22.221-2.625-33.996-3.023
	c-12.947-0.438-22.181-0.748-21-17"/>
<path opacity="0.6" fill="none" stroke="#010101" stroke-miterlimit="10" d="M125.492,145.723
	c9.303-2.646,18.078-10.371,27.993-3.722c7.274,4.878,5.007,14.998,5.007,23.722"/>
<path opacity="0.6" fill="none" stroke="#010101" stroke-miterlimit="10" d="M204.492,174.723c3.218-20.754-39.573-37.855-44-23"/>
<path opacity="0.6" fill="none" stroke="#010101" stroke-miterlimit="10" d="M306.492,163.723
	c-10.932-6.9-23.688-8.856-36.777-8.052c-17.257,1.061-7.905,15.128-15.223,25.052"/>
<path opacity="0.6" fill="none" stroke="#010101" stroke-miterlimit="10" d="M208.492,178.723
	c-1.686-5.479-6.792-14.35-3.746-19.997c3.412-6.324,16.223-5.677,22.75-6.003c8.038-0.402,14.952,0.484,21.242,5.777
	c6.308,5.31,4.828,10.997,7.754,18.223"/>
<g opacity="0.4">
	<g>
		<path fill="#010101" d="M25.492,130.223c37.497-0.892,82.843,16.508,113.303-14.197c-4.178-1.103-8.357-2.206-12.535-3.31
			c1.621,6.599,3.001,13.444,2.794,20.267c-0.063,1.054-0.083,1.295-0.059,0.724c-0.385,2.139,1.036-0.887-0.111-0.12
			c-1.227,0.82-2.623,0.771-4.029,0.765c-4.243-0.018-8.666-2.05-12.542-3.578c-9.708-3.825-19.125-5.208-29.599-5.44
			c-12.038-0.268-24.271,1.002-36.229-0.843c0.597,4.569,1.194,9.139,1.792,13.708c11.661-5.068,25.257-3.049,37.447-1.547
			c13.331,1.642,26.472,3.147,39.761,0.303c9.457-2.024,5.445-16.483-3.987-14.464c-13.398,2.868-27.335,0.121-40.733-1.433
			c-13.786-1.599-27.161-1.417-40.059,4.189c-5.761,2.504-4.4,12.752,1.792,13.708c14.531,2.243,29.096,0.991,43.719,1.476
			c5.693,0.189,11.422,0.688,16.791,2.684c4.984,1.852,9.776,4.051,14.967,5.303c10.929,2.636,24.39-0.844,25.903-13.555
			c1.017-8.542-1.12-17.854-3.154-26.134c-1.354-5.51-8.64-7.236-12.535-3.31c-12.726,12.829-30.655,14.498-47.841,13.878
			c-18.325-0.661-36.486-4.511-54.856-4.075C15.836,115.452,15.813,130.453,25.492,130.223L25.492,130.223z"/>
	</g>
</g>
<g opacity="0.4">
	<g>
		<path fill="#010101" d="M288.725,153.716c5.298-13.076,7.841-27.118,10-41c-4.179,1.104-8.357,2.207-12.536,3.31
			c21.508,20.611,51.238,29.354,79.979,33.944c29.229,4.668,58.817,5.067,88.324,6.253c0-5,0-10,0-15
			c-18.699,1.095-37.324-0.831-55.967-2.041c-17.217-1.117-35.504-2.003-52.155,3.251c-12.183,3.844-24.841,11.414-37.591,9.234
			c-4.443-0.76-9.804-1.625-13.545-3.703c1.5,0.833-0.191-0.137-0.448-0.798c-0.365-0.94-0.003-1.943,0.222-2.876
			c0.861-3.569,2.195-6.913,2.717-10.574c-4.911-0.665-9.821-1.329-14.732-1.994c0.246,5.861,2.02,11.312,3.268,16.994
			c1.639,7.457,12.503,6.878,14.465,0c2.183-7.653,1.258-15.264,0-22.987c-3.673,2.823-7.346,5.646-11.018,8.47
			c14.033,7.257,29.708,9.528,44,16c0.597-4.569,1.194-9.139,1.791-13.708c-10.666,3.662-26.104,4.456-36.221-1.244
			c-8.438-4.754-15.996,8.205-7.57,12.952c13.51,7.612,33.346,7.711,47.779,2.756c5.506-1.89,8.204-10.804,1.791-13.708
			c-14.272-6.463-30.071-8.798-44-16c-6.22-3.216-12.072,1.999-11.018,8.47c0.82,5.03,1.417,10.046,0,15.013
			c4.821,0,9.644,0,14.465,0c-0.949-4.317-2.546-8.567-2.732-13.006c-0.338-8.05-13.49-10.709-14.732-1.994
			c-1.05,7.37-4.774,13.817-2.938,21.425c1.702,7.053,7.911,10.564,14.23,12.582c5.703,1.822,11.809,2.878,17.762,3.43
			c8.151,0.755,16.758-2.382,24.255-5.176c7.891-2.941,15.886-6.654,24.332-7.642c9.926-1.162,20.014-1.015,29.979-0.588
			c21.226,0.91,42.334,3.709,63.612,2.463c9.627-0.563,9.704-14.61,0-15c-27.676-1.112-55.479-1.381-82.925-5.499
			c-26.465-3.971-54.916-11.276-74.771-30.305c-3.688-3.535-11.627-2.538-12.536,3.31c-2.158,13.882-4.701,27.924-10,41
			c-1.538,3.795,1.643,8.236,5.238,9.226C283.788,160.135,287.19,157.502,288.725,153.716L288.725,153.716z"/>
	</g>
</g>
<g opacity="0.2">
	<g>
		<path fill="#010101" d="M6.992,103.723c0.522,15.92,12.766,25.342,27.506,28.232c0.665-4.911,1.329-9.821,1.994-14.732
			c-7.495,0.043-16.387,0.274-21.756,6.347c-5.126,5.797-6.52,14.484-9.72,21.368c-3.425,7.367,5.528,15.6,11.779,9.088
			c3.398-3.54,5.986-7.706,9.069-11.499c3.047-3.749,4.6-4.873,8.842-2.329c1.262-4.659,2.523-9.317,3.785-13.976
			c-12.58,1.208-23.248,5.951-28.289,18.11c-4.255,10.263-0.336,22.605,3.813,32.175c2.823-3.672,5.646-7.345,8.47-11.017
			c-3.104-0.443-5.113-1.1-5.603-1.971c0.306,0.689,0.324,0.608,0.055-0.244c0.358,1.423,0.069-0.837,0.076-1.045
			c-0.015,0.466,0.522-2.326,0.747-3.079c1.77-5.952,5.498-11.371,8.618-16.678c4.291-7.296,6.391-14.332,5.802-22.96
			c-0.38-5.568-0.373-9.973,1.543-15.278c2.002-5.543,4.024-10.523,4.268-16.512c0.254-6.264-6.429-8.565-11.285-6.476
			c-4.975,2.141-9.397,5.184-14,8c-8.24,5.041-0.868,17.733,7.57,12.952c8.209-4.651,17.162-9.002,23.518-16.173
			c3.625-4.088,5.447-9.411,6.457-14.686c0.768-4.012,0.668-9.117,3.543-12.314c-3.926-3.029-7.853-6.059-11.779-9.088
			C32.42,68.809,15.55,90.771,26.378,112.651c9.007,18.199,33.332,8.295,48.108,6.304c4.06-0.547,6.211-5.69,5.238-9.226
			c-1.192-4.334-5.177-5.784-9.226-5.238c-6.345,0.854-12.5,2.786-18.838,3.636c-4.849,0.65-10.575,1.291-12.463-3.204
			c-3.178-7.564-0.32-15.93,2.819-22.996c3.747-8.434,8.775-16.206,12.952-24.419c3.708-7.291-5.826-15.71-11.779-9.088
			c-6.559,7.295-5.973,15.936-8.873,24.717c-1.269,3.843-5.361,6.407-8.537,8.517c-4.195,2.788-8.694,5.112-13.072,7.593
			c2.523,4.317,5.047,8.635,7.57,12.952c4.604-2.816,9.025-5.859,14-8c-3.762-2.159-7.523-4.317-11.285-6.476
			c-0.219,5.394-3.077,10.358-4.724,15.414c-1.933,5.935-1.389,11.955-0.973,18.05c0.58,8.497-3.287,12.515-7.778,20.417
			c-3.792,6.67-7.733,14.306-7.505,22.188c0.27,9.33,7.845,14.931,16.487,16.163c6.804,0.97,11.229-4.653,8.47-11.018
			c-2.492-5.748-4.425-12.662-2.895-18.805c1.553-6.232,8.488-8.341,14.418-8.91c7.143-0.686,10.595-9.892,3.785-13.976
			c-6.914-4.146-14.975-5.175-21.782-0.22c-6.006,4.371-9.249,11.125-14.306,16.393c3.926,3.029,7.853,6.059,11.779,9.088
			c1.676-3.604,3.202-7.273,4.583-11c0.981-2.647,1.868-5.319,2.598-6.762c0.924-1.827-0.367-0.071,1.008-1.431
			c-0.673,0.666,0.405-0.147,0.647-0.228c3.006-1.002,6.355-0.845,9.688-0.864c8.265-0.048,10.484-13.068,1.994-14.732
			c-7.711-1.512-16.197-4.717-16.494-13.768C21.676,94.075,6.675,94.044,6.992,103.723L6.992,103.723z"/>
	</g>
</g>
<g opacity="0.2">
	<g>
		<path fill="#010101" d="M424.492,145.223c10.121,0.227,22.155,3.174,27.688-7.925c6.075-12.188-5.824-24.252-16.693-27.807
			c-5.25-1.717-11.074,3.903-9.227,9.226c1.656,4.77,2.854,8.715-1.271,11.658c-5.233,3.732-11.612,5.901-17.281,8.872
			c-8.706,4.562-1.071,16.839,7.57,12.952c7.404-3.331,15.637-4.217,22.829-8.132c8.662-4.714,11.705-14.034,11.886-23.344
			c-3.762,2.159-7.523,4.317-11.285,6.476c11.327,5.667,22.444,11.013,22.276,25.306c-0.068,5.792-1.196,11.598-2.474,17.224
			c-1.015,4.472-2.543,11.124-5.321,13.69c3.927,0.507,7.854,1.013,11.78,1.519c-1.202-2.379-2.488-4.447-4.173-6.519
			c-2.385-2.931-8.231-2.973-10.607,0c-4.46,5.583-8.853,11.163-12.172,17.519c-3.248,6.218,3.665,14.77,10.261,10.261
			c26.203-17.909,45.089-60.075,16.519-84.779c-5.187-4.484-12.154-1.313-12.804,5.303c-0.827,8.423,0.902,16.684,2,25
			c4.268-1.768,8.535-3.536,12.804-5.303c-5.253-6.749-12.376-14.041-21.741-11.273c-2.818,0.833-5.312,2.547-7.873,3.925
			c-2.668,1.436-5.975,1.647-9.689,1.151c0,5,0,10,0,15c6.082,0.532,13.819,3.85,19.482,7.784c5.93,4.118,7.134,8.366,3.042,13.931
			c-2.428,3.301-0.559,8.358,2.69,10.261c3.808,2.23,7.845,0.597,10.261-2.69c17.303-23.527-15.388-42.528-35.476-44.285
			c-4.079-0.357-7.5,3.682-7.5,7.5c0,4.498,3.448,6.959,7.5,7.5c7.245,0.968,13.635-1.062,19.846-4.653
			c0.441-0.255,3.349-1.565,1.704-0.959c0.927-0.342-0.909-0.366,0.229-0.049c-0.767-0.213,1.44,1.204,1.969,1.701
			c1.84,1.735,3.401,3.774,4.949,5.763c3.857,4.956,13.632,0.975,12.804-5.303c-1.097-8.309-2.826-16.586-2-25
			c-4.268,1.768-8.535,3.536-12.804,5.303c20.67,17.873,5.216,48.441-13.481,61.221c3.42,3.42,6.841,6.841,10.261,10.261
			c2.73-5.227,6.156-9.887,9.828-14.481c-3.536,0-7.071,0-10.607,0c0.772,0.949,1.28,2.399,1.828,3.481
			c2.264,4.481,8.417,4.624,11.779,1.519c5.138-4.748,7.221-12.523,8.88-19.065c1.902-7.501,3.225-15.487,3.316-23.238
			c0.105-8.91-2.936-17.034-8.765-23.708c-5.493-6.289-13.627-10.104-20.95-13.769c-5.068-2.536-11.17,0.542-11.285,6.476
			c-0.116,5.964-1.521,9.536-7.132,11.651c-6.681,2.52-13.602,3.925-20.153,6.873c2.523,4.317,5.047,8.635,7.57,12.952
			c7.399-3.877,15.679-6.627,21.808-12.519c6.925-6.658,6.562-16.53,3.64-24.951c-3.075,3.075-6.151,6.15-9.227,9.226
			c2.052,0.671,9.113,4.742,6.69,7.465c1.451-1.631,0.988-0.668-0.827-0.567c-1.605,0.089-3.227-0.009-4.831-0.089
			c-2.682-0.134-5.353-0.481-8.038-0.541C414.813,130.005,414.835,145.006,424.492,145.223L424.492,145.223z"/>
	</g>
</g>
<g opacity="0.2">
	<g>
		<path fill="#010101" d="M34.707,108.199c26.253,11.254,55.356,15.668,82.934,6.059c12.567-4.379,24.036-11.347,36.136-16.791
			c13.547-6.095,28.347-8.097,43.09-8.21c15.333-0.118,31.322,1.706,46.135,5.693c12.672,3.411,24.27,9.598,36.063,15.184
			c25.089,11.881,52.038,19.342,79.246,24.474c22.186,4.185,44.681,6.858,67.182,8.615c9.65,0.753,9.578-14.252,0-15
			c-28.061-2.19-56.024-5.919-83.448-12.344c-13.388-3.137-26.194-7.519-39.183-11.941c-12.429-4.232-23.924-10.733-35.888-16.063
			c-27.185-12.109-59.472-16.205-88.951-12.344c-14.47,1.895-27.425,6.631-40.447,13.08c-11.933,5.91-23.446,12.179-36.701,14.554
			c-20.069,3.596-40.015,0.047-58.597-7.918c-3.758-1.611-8.007-1.158-10.261,2.691C30.145,101.132,30.946,106.587,34.707,108.199
			L34.707,108.199z"/>
	</g>
</g>
<g opacity="0.2">
	<g>
		<path fill="#010101" d="M45.992,93.723C47.339,75.77,56.49,61.131,71.487,51.378c15.476-10.065,33.973-14.726,51.822-18.523
			c21.73-4.624,43.884-8.977,65.976-11.256c31.03-3.202,62.454-1.85,92.902,5.06c17.138,3.889,33.83,9.667,49.838,16.897
			c14.161,6.396,28.139,14.122,39.358,25.01c10.31,10.004,18.532,22.122,28.594,32.414c10.53,10.771,22.938,19.204,36.73,25.219
			c3.747,1.634,8.017,1.141,10.261-2.691c1.882-3.211,1.06-8.626-2.69-10.261c-11.03-4.81-21.055-10.981-29.894-19.166
			c-8.581-7.946-15.929-17.164-23.491-26.05c-8.477-9.96-17.502-18.273-28.57-25.342c-11.362-7.257-23.767-12.79-36.228-17.852
			c-28.71-11.664-59.247-17.924-90.158-19.536c-29.445-1.535-58.537,2.116-87.415,7.534c-25.222,4.732-50.81,8.762-74.211,19.835
			c-11.021,5.215-21.385,12.584-28.976,22.201c-8.91,11.288-13.273,24.6-14.343,38.852C30.268,103.376,45.273,103.307,45.992,93.723
			L45.992,93.723z"/>
	</g>
</g>
<g opacity="0.2">
	<g>
		<path fill="#010101" d="M45.492,149.223c26.801-1.114,55.142,4.271,78.926,16.932c11.511,6.128,22.099,13.832,33.648,19.903
			c11.718,6.16,24.195,9.348,37.081,11.989c13.583,2.784,27.447,4.678,41.316,5.013c14.07,0.34,27.37-2.146,40.654-6.663
			c14.651-4.981,28.716-11.524,43.422-16.362c8.394-2.762,17.136-4.561,25.753-6.485c19.118-4.271,38.478-7.828,58.057-9.027
			c14.73-0.902,35.983-1.561,46.84,8.504c7.082,6.564,17.715-4.018,10.607-10.607c-13.417-12.438-33.859-13.57-51.195-13.166
			c-21.135,0.493-42.252,4.26-62.882,8.649c-7.862,1.673-15.684,3.527-23.497,5.413c-14.586,3.521-28.445,10.086-42.407,15.448
			c-13.238,5.084-26.266,8.99-40.511,9.305c-13.627,0.301-27.25-1.584-40.595-4.172c-12.696-2.462-24.957-5.473-36.462-11.521
			c-12-6.308-22.968-14.386-35.017-20.62c-25.197-13.037-55.522-18.706-83.738-17.533C35.855,134.624,35.816,149.625,45.492,149.223
			L45.492,149.223z"/>
	</g>
</g>
<g opacity="0.2">
	<g>
		<path fill="#010101" d="M47.486,138.491c-8.081-1.804-16.39-0.804-21.452,6.391c-4.015,5.706-4.152,13.477-3.454,20.147
			c1.544,14.742,7.066,28.162,12.766,41.668c10.046,23.804,26.059,45.723,43.839,64.376c17.671,18.537,40.278,31.765,63.743,41.542
			c23.595,9.832,49.139,15.471,74.675,16.524c25.689,1.06,52.453-0.496,76.877-9.068c25.392-8.912,44.679-26.11,60.718-47.271
			c7.808-10.3,14.951-21.06,23.64-30.666c9.396-10.388,20.582-18.235,33.344-23.948c17.71-7.929,37.223-11.233,55.305-18.229
			c3.809-1.475,6.405-4.984,5.238-9.227c-1.002-3.643-5.408-6.715-9.227-5.238c-26.128,10.11-54.709,13.949-77.954,30.598
			c-22,15.758-34.311,39.753-51.878,59.631c-17.317,19.596-39.524,30.88-65.037,35.661c-24.446,4.581-51.177,4.36-75.655,0.159
			c-25.332-4.349-49.881-13.339-71.94-26.521c-21.997-13.145-39.003-31.612-53.867-52.286c-7.533-10.479-13.754-21.768-18.87-33.605
			c-2.682-6.208-4.091-9.235-6.457-16.49c-2.277-6.984-4.159-14.246-4.538-21.034c-0.089-1.598-0.048-3.196,0.068-4.791
			c0.174-2.385-0.285,1.349,0.149-0.889c0.129-0.666,0.329-1.314,0.532-1.96c0.176-0.56,0.245-0.579,0.525-0.886
			c1.244-1.362-1.25,0.719,0.337-0.262c0.745-0.38,0.712-0.375-0.098,0.015c0.42-0.134,0.847-0.242,1.281-0.322
			c-1.601,0.35,0.735,0.064,0.951,0.066c0.89,0.008,1.13,0.085,2.451,0.38C52.922,155.058,56.925,140.597,47.486,138.491
			L47.486,138.491z"/>
	</g>
</g>
<g opacity="0.2">
	<g>
		<path fill="#010101" d="M155.23,148.881c12.486,8.34,28.781-0.387,40.494,10.609c2.389,2.243,5.563-1.085,3.535-3.535
			c-1.064-1.287-1.934-2.712-3-4c-0.589,1.422-1.178,2.845-1.768,4.268c3.801-0.128,7.548-0.795,11.335-0.089
			c1.711,0.319,2.987-0.71,3.165-2.411c0.211-2.025,0.789-3.97,1-6c-1.667,0-3.333,0-5,0c-0.277,3.264-1.819,6.292-2.911,9.335
			c1.607,0,3.214,0,4.821,0c-2.463-6.316-7.157-10.204-13.746-11.746c0,1.607,0,3.214,0,4.821c4.217-0.813,8.554,0.023,12.671,1
			c-0.199-1.523-0.398-3.046-0.597-4.569c-8.551,5.573-15.398,14.213-6.506,22.926c1.964,1.925,5.693-0.713,3.926-3.029
			c-2.81-3.683-4.458-8.104,1.506-9.328c-1.025-0.582-2.05-1.164-3.075-1.746c0.725,2.675,1.471,4.306,0.252,7.074
			c1.523,0.199,3.046,0.398,4.569,0.597c-2.315-10.531,16.512-9.231,22.288-8.347c10.339,1.583,25.026,6.784,26.891,18.676
			c1.607-0.443,3.215-0.887,4.822-1.33c-1.99-10.269,9.104-11.011,16.589-11.835c2.607-0.287,3.634-4.267,0.665-4.911
			c-8.907-1.931-18.073-0.265-27-2c-0.222,1.637-0.443,3.274-0.665,4.911c16.508-0.735,32.506,4.779,49,4
			c3.21-0.152,3.225-5.152,0-5c-16.489,0.779-32.489-4.736-49-4c-2.703,0.121-3.547,4.351-0.665,4.911
			c8.934,1.736,18.134,0.078,27,2c0.222-1.637,0.443-3.274,0.665-4.911c-11.234,1.236-24.185,3.849-21.411,18.165
			c0.62,3.198,5.312,1.794,4.822-1.33c-2.283-14.554-20.186-21.004-32.864-22.52c-9.863-1.179-29.18,0.193-25.958,14.85
			c0.438,1.992,3.69,2.592,4.569,0.597c1.792-4.066,1.394-6.716,0.252-10.926c-0.374-1.379-1.746-2.019-3.075-1.746
			c-9.037,1.854-9.446,10.182-4.494,16.672c1.309-1.01,2.618-2.02,3.926-3.029c-6.363-6.235-0.046-11.463,5.494-15.074
			c1.728-1.126,1.615-4.044-0.597-4.569c-5.04-1.196-10.19-1.99-15.329-1c-2.449,0.472-2.338,4.274,0,4.821
			c4.763,1.115,8.422,3.556,10.254,8.254c0.905,2.322,3.952,2.425,4.821,0c1.271-3.543,2.768-6.877,3.089-10.665
			c0.274-3.233-4.671-3.158-5,0c-0.211,2.025-0.789,3.97-1,6c1.055-0.804,2.11-1.607,3.165-2.411
			c-4.272-0.796-8.368-0.235-12.665-0.089c-2.306,0.078-3.141,2.608-1.768,4.268c1.064,1.287,1.934,2.712,3,4
			c1.178-1.178,2.357-2.357,3.535-3.535c-5.619-5.276-12.122-7.446-19.709-7.99c-7.383-0.529-15.291,0.945-21.797-3.401
			C155.064,142.767,152.564,147.1,155.23,148.881L155.23,148.881z"/>
	</g>
</g>
<g opacity="0.2">
	<g>
		<path fill="#CE1F3E" d="M27.523,142.883c24.694,6.848,41.477-11.039,58.934-24.729c-2.53,1.955-5.06,3.909-7.589,5.864
			c3.435-2.633,6.869-4.693,10.847-6.411c-2.986,1.26-5.972,2.52-8.958,3.78c6.586-2.588,13.472-4.03,20.313-5.761
			c9.513-2.408,18.269-6.814,27.236-10.692c-2.986,1.26-5.972,2.52-8.958,3.78c24.799-10.447,51.909-16.261,78.489-20.025
			c-3.323,0.446-6.646,0.893-9.969,1.339c19.867-2.648,40.002-2.122,59.85,0.448c-3.323-0.447-6.646-0.893-9.969-1.34
			c21.719,2.944,43.076,8.371,63.333,16.788c-2.985-1.26-5.972-2.52-8.958-3.78c21.757,9.228,40.228,23.028,58.854,37.373
			c-2.53-1.955-5.06-3.909-7.59-5.863c21.062,16.278,41.555,33.274,62.589,49.586c8.268,6.411,15.579,10.983,26.517,10.983
			c9.906,0,19.516-3.982,26.517-10.983s10.983-16.611,10.983-26.517c0-8.855-3.62-20.806-10.983-26.517
			c-26.523-20.568-52.323-42.041-79.116-62.267c-11.268-8.506-22.572-16.96-35.071-23.584c-13.54-7.176-28.005-12.952-42.582-17.645
			c-27.293-8.788-56.708-13.108-85.339-13.44c-29.886-0.346-60.512,5.665-89.284,13.431c-15.736,4.248-30.413,10.685-45.347,17.137
			c2.986-1.26,5.972-2.52,8.958-3.78c-6.04,2.373-12.324,3.792-18.611,5.331c-8.632,2.113-16.769,5.488-24.795,9.307
			c-10.212,4.859-18.52,14.103-27.419,21.031c2.53-1.955,5.06-3.909,7.589-5.864c-1.97,1.496-3.963,2.947-6.202,4.019
			c2.986-1.26,5.972-2.521,8.958-3.78c-0.601,0.244-1.166,0.435-1.8,0.57c3.323-0.447,6.646-0.893,9.969-1.339
			c-0.332,0.056-0.663,0.059-0.995,0.009c3.323,0.446,6.646,0.893,9.969,1.339c-0.143-0.04-0.286-0.079-0.429-0.119
			c-19.688-5.459-40.72,6.525-46.129,26.192C-4.095,116.483,7.837,137.424,27.523,142.883L27.523,142.883z"/>
	</g>
</g>
<g opacity="0.2">
	<g>
		<path fill="#CE1F3E" d="M10.112,166.649c4.344,9.629,12.359,17.579,20.416,24.229c7.023,5.797,13.514,11.742,19.192,18.907
			c-1.955-2.53-3.909-5.06-5.864-7.59c7.881,10.411,13.174,22.445,20.777,33.043c9.364,13.051,19.777,25.242,31.575,36.143
			c23.461,21.676,52.1,40.583,84.274,45.265c17.37,2.527,34.262,3.093,51.762,1.979c16.431-1.047,33.024-2.107,49.254-4.936
			c18.289-3.187,35.219-13.245,47.508-27.017c4.204-4.71,7.91-9.851,11.975-14.68c4.514-5.363,9.857-9.896,15.344-14.229
			c-2.529,1.955-5.06,3.909-7.589,5.864c7.381-5.594,15.412-10.017,23.895-13.703c-2.985,1.261-5.972,2.521-8.958,3.78
			c6.762-2.842,13.612-5.435,20.818-6.863c6.357-1.261,12.793-2.087,19.152-3.345c9.04-1.788,17.737-4.984,25.931-9.223
			c4.794-2.479,9.127-6.077,13.008-9.787c6.933-6.628,9.519-13.189,13.069-21.796c3.615-8.762,0.786-21.101-3.78-28.896
			c-4.91-8.383-13.037-14.655-22.411-17.234c-9.679-2.662-20.235-1.293-28.896,3.78c-9.218,5.4-13.318,12.922-17.233,22.412
			c-0.116,0.28-0.231,0.561-0.348,0.841c1.261-2.986,2.521-5.972,3.78-8.958c-0.536,1.094-1.143,2.079-1.873,3.055
			c1.955-2.53,3.909-5.06,5.864-7.59c-1.005,1.191-2.092,2.217-3.315,3.181c2.53-1.954,5.06-3.909,7.59-5.864
			c-1.92,1.381-3.948,2.478-6.107,3.439c2.986-1.26,5.973-2.52,8.958-3.78c-8.551,3.546-17.826,4.829-26.902,6.316
			c-13.414,2.199-25.284,7.026-37.778,12.457c-14.83,6.445-28.191,16.367-39.931,27.391c-9.561,8.978-15.842,20.835-26.294,28.965
			c2.53-1.954,5.06-3.909,7.59-5.863c-2.604,1.87-5.306,3.42-8.216,4.762c2.985-1.26,5.972-2.52,8.957-3.78
			c-5.964,2.51-12.166,3.899-18.557,4.802c3.322-0.446,6.646-0.893,9.969-1.339c-11.973,1.523-24.145,2.18-36.187,2.946
			c-13.359,0.852-26.785,0.997-40.079-0.747c3.323,0.446,6.646,0.893,9.969,1.339c-8.25-1.2-16.241-3.187-23.979-6.312
			c2.986,1.26,5.972,2.52,8.958,3.78c-11.162-4.711-21.381-11.212-30.986-18.554c2.53,1.955,5.06,3.909,7.589,5.864
			c-13.335-10.385-25.406-22.335-35.772-35.692c1.955,2.53,3.909,5.061,5.864,7.59c-4.481-5.885-8.36-12.056-12.018-18.479
			c-5.207-9.145-10.765-17.492-17.325-25.77c-4.397-5.549-9.284-10.679-14.707-15.229c-5.473-4.592-11.196-8.862-15.646-14.515
			c1.955,2.53,3.909,5.06,5.864,7.589c-1.335-1.847-2.453-3.724-3.391-5.802c-3.793-8.409-13.868-14.884-22.411-17.234
			c-9.679-2.662-20.235-1.293-28.896,3.78c-8.383,4.911-14.655,13.038-17.234,22.412C3.439,148.271,5.792,157.075,10.112,166.649
			L10.112,166.649z"/>
	</g>
</g>
<g opacity="0.1">
	<g>
		<path fill="#CE1F3E" d="M38.565,181.103c2.654,1.758,5.239,3.598,7.778,5.518c-2.53-1.955-5.06-3.909-7.589-5.864
			c9.674,7.479,18.414,16.037,27.742,23.926c6.698,5.663,13.671,11.096,21.001,15.918c8.094,5.324,17.052,8.77,25.955,12.505
			c-2.986-1.261-5.972-2.521-8.958-3.78c26.501,11.239,52.336,24.715,80.208,32.337c14.834,4.057,30.774,6.443,46.16,5.674
			c16.012-0.8,32.433-4.19,48.013-7.974c53.249-12.927,102.285-38.586,154.586-54.479c19.542-5.938,31.72-26.031,26.191-46.129
			c-5.311-19.306-26.574-32.134-46.129-26.192c-61.728,18.756-119.481,51.156-184.006,60.154c3.323-0.447,6.646-0.894,9.969-1.34
			c-8.965,1.185-17.684,1.349-26.673,0.273c3.323,0.446,6.646,0.894,9.969,1.34c-17.634-2.37-34.415-8.386-50.759-15.219
			c2.986,1.261,5.972,2.521,8.958,3.78c-16.922-7.148-33.546-14.954-50.52-21.989c2.986,1.26,5.972,2.521,8.958,3.78
			c-7.745-3.364-14.846-7.727-21.576-12.812c2.53,1.955,5.06,3.909,7.59,5.864c-16.751-12.948-31.261-28.296-49.014-40.052
			c-17.064-11.3-41.415-3.434-51.307,13.454C14.345,148.177,21.558,169.841,38.565,181.103L38.565,181.103z"/>
	</g>
</g>
<g opacity="0.2">
	<g>
		<path fill="#CE1F3E" d="M138.653,216.562c10.217,11.39,23.5,19.241,38.016,23.84c12.541,3.973,25.692,3.943,38.695,3.795
			c22.441-0.256,52.548-1.64,67.967-20.635c4.29-5.285,5.188-12.489,0-17.678c-4.442-4.442-13.378-5.298-17.678,0
			c-1.371,1.689-2.866,3.184-4.536,4.578c2.087-1.743-0.812,0.411-1.094,0.59c-0.964,0.61-1.979,1.136-2.99,1.662
			c-0.181,0.094-3.661,1.602-1.313,0.652c-1.124,0.454-2.276,0.837-3.425,1.222c-2.376,0.796-4.814,1.396-7.255,1.952
			c-9.082,2.072-18.751,2.496-29.676,2.656c-10.212,0.149-19.764,0.288-29.091-2.063c-11.669-2.94-21.791-9.163-29.942-18.25
			c-4.551-5.074-13.058-4.62-17.678,0C133.642,203.895,134.107,211.494,138.653,216.562L138.653,216.562z"/>
	</g>
</g>
<g opacity="0.2">
	<g>
		<path fill="#CE1F3E" d="M152.546,198.399c-3.639-15.356-14.364-26.912-23.26-38.986c-4.033-5.474-10.752-8.204-17.103-4.484
			c-5.41,3.169-8.535,11.604-4.484,17.102c7.665,10.403,17.739,20.348,20.74,33.015C132.155,220.729,156.26,214.077,152.546,198.399
			L152.546,198.399z"/>
	</g>
</g>
</svg>
