<?xml version="1.0" encoding="utf-8"?>
<!-- Generator: Adobe Illustrator 16.0.0, SVG Export Plug-In . SVG Version: 6.00 Build 0)  -->
<!DOCTYPE svg PUBLIC "-//W3C//DTD SVG 1.1//EN" "http://www.w3.org/Graphics/SVG/1.1/DTD/svg11.dtd">
<svg version="1.1" xmlns="http://www.w3.org/2000/svg" xmlns:xlink="http://www.w3.org/1999/xlink" x="0px" y="0px" width="522px"
	 height="383px" viewBox="0 0 522 383" enable-background="new 0 0 522 383" xml:space="preserve">
<g id="mouth" display="none">
	
		<image display="inline" overflow="visible" width="522" height="383" xlink:href="../../../Documents/GitHub/tweetenstein/images/faces/1/MOUTH-1.jpg" >
	</image>
</g>
<g id="Layer_1">
	<path fill="none" stroke="#030202" stroke-miterlimit="10" d="M80.438,169.474c-2.824-29.893,21.733-61.892,45.523-75.485
		c29.76-17.003,66.31-19.331,100.006-22.76c66.28-6.745,134.113-4.527,187.894,36.927c13.387,10.318,29.992,18.776,42.009,31.06
		c16.148,16.508,10.295,22.796-0.429,40.729c-9.295,15.545-8.263,32.196-15.745,47.459c-6.706,13.68-23.471,26.032-36.751,32.965
		c-28.521,14.888-59.095,19.924-91.025,23.141c-18.145,1.828-31.8,8.348-49.123,12.28c-17.804,4.041-33.588-1.93-50.877-6.53
		c-33.651-8.956-64.685-15.112-92.886-37.329c-28.168-22.19-42-59.581-42.105-94.737"/>
	<path fill="none" stroke="#030202" stroke-miterlimit="10" d="M228.205,143.542c-15.584-5.036-16.453-38.834-10.748-51.467
		c8.675-19.207,34.833-16.91,52.546-12.122c18.445,4.988,21.381,23.718,13.498,42.056
		C276.27,138.83,244.949,148.953,228.205,143.542z"/>
	<path fill="none" stroke="#030202" stroke-miterlimit="10" d="M354.123,97.544c3.964,42.419-56.294,76.405-72.314,28.454
		c-15.16-45.378,45.605-57.468,70.56-31.963"/>
	<path fill="none" stroke="#030202" stroke-miterlimit="10" d="M168.158,95.79c1.148-18.226,33.057-8.339,45.299-12.106
		c1.222,19.949,1.063,40.994,0.05,60.963c-18.417,0.979-30.604-4.874-46.838-7.018c-3.458-19.135,8.917-33.774,8.507-52.366"/>
	<path fill="none" stroke="#030202" stroke-miterlimit="10" d="M122.505,122.796"/>
	<path fill="none" stroke="#030202" stroke-miterlimit="10" d="M352.368,88.772c35.655-14.368,38.776,28.078,33.028,50.618
		c-28.387,7.651-24.537-5.528-45.309-19.039"/>
	<path fill="none" stroke="#030202" stroke-miterlimit="10" d="M126.053,116.842c-0.008,15.441-2.413,31.558,12.721,39.82
		c18.332,10.007,18.694-8.656,29.384-20.522"/>
	<path fill="none" stroke="#030202" stroke-miterlimit="10" d="M390.965,106.316c1.657,10.885,1.171,28.481,10.436,36.536
		c13.282,11.547,24.331-1.358,35.429-8.426c-10.281-9.327-10.951-21.368-24.472-27.851c-4.742-2.275-11.607-1.501-16.476-3.631
		c-5.174-2.263-9.256-10.136-15.455-10.829c-9.954-1.114-18.469,12.313-28.143,10.461c-4.902-0.938-11.319-10.461-17.46-12.084
		c-10.242-2.708-26.335-0.207-36.842,0.391c-10.874,0.618-6.785,2.466-17.544-0.356c-3.664-0.961-12.028-5.434-16.18-6.977
		c-16.009-5.949-20.495-5.214-34.65,3.478c-13.628,8.368-10.442,6.886-21.534,5.638c-5.978-0.673-7.112-5.067-15.299-4.318
		c-11.631,1.065-26.532,13.176-27.652,24.853c-8.476-12.598-38.569-13.042-35.827,6.886c-36.519-0.168-22.762,61.263,3.774,37.107"
		/>
	<path fill="none" stroke="#030202" stroke-miterlimit="10" d="M136.579,262.456c4.473-1.8,10.626-1.725,15.483-1.448
		c6.432,25.281,21.195,3.369,36.848,1.667c3.261,5.844,7.787,12.327,10.735,18.933c15.732-13.031,24.208-5.003,39.168-3.361
		c13.75,1.509,28.115-13.277,40.301,6.486c13.42-26.222,31.157-10.888,48.301-11.75c3.115-0.156,9.983-4.813,14.77-5.257
		c7.242-0.671,11.009,3.501,17.063,3.531c11.179,0.056,19.063-5.835,29.432-7.04c-35.219,4.588-70.963,16.204-107.937,20.74
		c-0.539-0.542-1.436-2.828-1.929-3.459c-6.424,7.646-38.864,20.812-38.98,2.197c-7.805,9.413-34.734,11.102-34.835-5.449"/>
	<path fill="none" stroke="#030202" stroke-miterlimit="10" d="M120.79,180c4.48-7.467,34.151-16.703,43.813-19.333
		c15.769-4.292,34.134,0.023,47.715,4.914c31.542,11.359,68.286,14.241,103.168,9.546c25.966-3.494,85.606-23.19,96.532,8.388
		c15.02,43.409-22.028,51.088-55.75,55.791c-49.073,6.843-94.525,11.013-144.291,3.812c-21.958-3.177-48.157-2.756-66.189-17.894
		c-6.81-5.717-40.89-53.077-14.472-48.732"/>
	<path fill="none" stroke="#030202" stroke-miterlimit="10" d="M68.158,162.456c0.136-23.093,7.266-27.458,17.198-45.62
		c8.845-16.175,9.197-34.962,21.349-49.976c18.821-23.254,60.76-45.501,89.524-49.628c18.994-2.725,34.608,3.845,52.631,4.873
		c17.515,0.999,32.225-3.42,49.214-5.313c38.227-4.259,81.436-2.614,115.349,16.317c60.092,33.545,59.467,100.463,60.09,162.29
		c0.336,33.348-23.271,67.182-34.788,98.586c-6.562,17.892-11.357,30.278-30.256,40.096c-15.981,8.302-34.329,15.568-50.836,23.066
		c-32.408,14.722-68.864,26.149-104.958,13.651c-34.778-12.044-84.05-14.227-113.151-39.486
		c-24.751-21.484-31.29-59.919-43.816-88.244c-12.106-27.375-18.591-59-34.566-84.12"/>
	<g opacity="0.1">
		<g>
			<path fill="#D51F26" d="M103.728,116.842c-0.636-7.132-0.129-11.827,2.343-18.49c1.717-4.628,5.668-10.102,9.674-14.223
				c9.96-10.248,23.77-17.144,37.427-22.35c31.815-12.127,66.507-17.079,100.333-19.221c13.535-0.857,27.022-0.971,40.567-0.383
				c20.198,0.876,40.543,1.511,60.56,4.553c17.39,2.643,34.598,7.267,49.722,16.474c15.896,9.677,27.278,24.462,35.388,40.995
				c3.684,7.51,6.475,15.418,8.904,23.411c2.807,9.228,17.286,5.292,14.465-3.987c-6.35-20.882-15.788-40.883-30.843-56.926
				c-12.482-13.303-28.635-22.3-45.82-28.006c-18.26-6.063-37.747-8.199-56.844-9.631c-17.624-1.322-35.434-2.405-53.114-2.32
				c-32.549,0.156-65.562,3.927-97.221,11.48c-29.885,7.129-65.218,18.916-82.753,46.114c-6.166,9.563-8.792,21.226-7.787,32.512
				C89.58,126.397,104.587,126.48,103.728,116.842L103.728,116.842z"/>
		</g>
	</g>
	<g opacity="0.1">
		<g>
			<path fill="#D51F26" d="M107.237,102.807c0.998-18.241,15.862-32.676,29.921-42.538c16.589-11.636,35.916-19.785,55.749-23.842
				c11.34-2.32,23.134-2.099,34.653-2.037c16.1,0.086,32.187,0.998,48.271,1.621c15.87,0.615,31.695,0.725,47.567,0.149
				c14.729-0.534,29.472-1.189,44.175,0.202c25.78,2.441,52.083,15.269,68.925,35.121c14.82,17.469,20.324,41.198,24.428,63.141
				c1.777,9.5,16.232,5.465,14.465-3.987c-3.842-20.541-9.173-41.3-20.445-59.147c-11.352-17.97-28.56-30.762-47.705-39.483
				c-27.445-12.502-56.157-11.85-85.656-10.78c-32.021,1.161-63.918-1.675-95.923-1.847c-15.456-0.083-30.571,0.663-45.547,4.666
				c-13.844,3.7-27.28,9.446-39.742,16.487c-23.08,13.041-46.59,34.033-48.134,62.274
				C91.708,112.477,106.711,112.426,107.237,102.807L107.237,102.807z"/>
		</g>
	</g>
	<g opacity="0.1">
		<g>
			<path fill="#D51F26" d="M99.951,113.573c4.463-16.868,14.843-29.676,30.098-38.01c15.388-8.408,33.533-11.547,50.79-13.26
				c18.325-1.819,36.767-1.792,55.159-2.127c20.191-0.369,40.294-2.294,60.506-2.077c26.893,0.29,54.389,3.742,79.076,14.991
				c26.887,12.25,47.781,33.215,63.295,58.063c5.108,8.184,18.09,0.66,12.951-7.57c-12.803-20.507-28.809-38.565-48.822-52.259
				c-17.551-12.007-37.959-19.545-58.729-23.665c-40.613-8.058-82.003-2.914-123.003-2.25
				c-50.885,0.824-120.014,4.565-135.785,64.177C83.01,118.948,97.479,122.916,99.951,113.573L99.951,113.573z"/>
		</g>
	</g>
	<g opacity="0.1">
		<g>
			<path fill="#D51F26" d="M120.83,90.566c12.085-12.942,28.702-20.577,45.232-26.162c20.236-6.837,41.5-10.749,62.662-13.342
				c21.011-2.575,42.188-3.779,63.348-4.154c15.058-0.268,30.308-0.563,45.275,1.335c22.174,2.811,48.407,9.273,70.112,19.04
				c10.691,4.811,21.126,10.7,29.234,19.137c6.319,6.575,9.799,14.991,8.442,23.166c-1.569,9.459,12.885,13.513,14.465,3.987
				c6.03-36.354-32.968-55.809-61.394-66.045c-29.92-10.774-61.042-15.641-92.727-15.721c-35.551-0.09-71.335,2.221-106.32,8.737
				c-31.127,5.798-66.577,15.471-88.938,39.416C103.63,87.02,114.215,97.649,120.83,90.566L120.83,90.566z"/>
		</g>
	</g>
	<g opacity="0.1">
		<g>
			<path fill="#D51F26" d="M82.153,222.146c17.611,18.77,33.921,38.782,54.59,54.364c22.911,17.273,51.313,23.382,78.999,28.525
				c28.16,5.232,57.346,7.436,85.738,2.735c12.747-2.111,25.346-5.215,37.801-8.623c33.585-9.192,67.235-21.329,97.277-39.135
				c24.113-14.291,52.085-36.707,51.319-67.665c-0.201-8.138-2.667-15.897-6.226-23.15c-2.185-4.454-8.498-4.672-11.779-1.518
				c-15.851,15.239-23.141,37.094-28.826,57.77c-5.83,21.204-9.333,43.596-18.341,63.785
				c-19.836,44.458-72.394,58.352-116.374,63.664c-42.421,5.124-88.34,4.37-127.752-13.987
				c-18.538-8.635-35.167-21.398-47.671-37.645c-17.129-22.252-25.699-49.6-34.465-75.893c-2.574-7.722-15.187-6.818-14.732,1.994
				c1.583,30.707,14.405,58.968,37.309,79.63c22.836,20.602,52.571,32.415,82.452,38.221c32.638,6.341,66.4,5.874,99.036-0.192
				c30.274-5.629,60.576-16.83,85.348-35.424c14.836-11.136,27.732-24.956,36.146-41.606c-4.316,0-8.635,0-12.951,0
				c3.668,6.328,6.33,12.284,7.55,19.588c-0.258-1.543,0.069,0.782,0.08,0.906c0.064,0.701,0.088,1.406,0.11,2.109
				c0.044,1.354-0.033,2.708-0.155,4.056c-0.197,2.173,0.271-1.528-0.105,0.591c-0.112,0.631-0.265,1.254-0.417,1.877
				c-0.185,0.755-1.492,4.305-0.906,2.961c-2.359,5.411-4.461,7.588-9.211,11.553c-0.279,0.232-1.073,0.841-2.417,1.768
				c-1.203,0.829-2.45,1.593-3.706,2.338c-2.883,1.709-5.908,3.17-8.975,4.518c-25.839,11.354-58.404,13.546-87.274,14.775
				c-36.04,1.535-74.254,3.15-107.723-12.247c-9.186-4.226-17.822-9.699-26.669-14.59c-9.092-5.026-18.177-10.064-27.14-15.318
				c-9.309-5.456-18.487-11.165-27.247-17.474c-6.047-4.354-13.061-9.953-16.681-15.506c-0.254-0.402-0.496-0.812-0.725-1.229
				c-2.823,3.672-5.646,7.345-8.47,11.018c11.476,3.063,21.316,10.164,30.928,16.88c10.287,7.188,20.474,14.301,32.232,18.894
				c13.273,5.186,27.431,7.532,41.494,9.347c14.292,1.845,28.75,3.346,43.104,4.594c56.398,4.903,115.286,2.921,168.511-18.135
				c3.798-1.503,6.411-4.962,5.238-9.227c-0.996-3.62-5.419-6.744-9.227-5.238c-51.648,20.433-107.96,22.215-162.692,17.754
				c-13.771-1.123-27.579-2.74-41.309-4.309c-14.013-1.601-27.888-4.318-41.132-9.25c-22.901-8.527-39.091-29.349-63.161-35.774
				c-6.406-1.71-11.724,5.283-8.47,11.018c3.982,7.018,10.322,12.505,16.583,17.428c8.436,6.632,17.433,12.482,26.588,18.065
				c16.923,10.318,34.435,19.713,51.708,29.428c35.676,20.066,76.032,20.289,115.745,19.173c30.539-0.859,62.268-3.005,91.482-12.55
				c12.498-4.084,25.269-9.929,34.397-19.672c9.141-9.754,12.118-22.261,9.948-35.257c-1.323-7.923-4.943-15.538-8.939-22.431
				c-2.697-4.654-10.373-5.104-12.951,0c-12.583,24.899-35.027,41.915-60.349,53.853c-28.012,13.205-60.035,19.441-91.07,20.403
				c-56.805,1.762-125.838-15.34-152.032-70.158c-5.286-11.062-8.241-24.581-8.89-37.155c-4.911,0.665-9.821,1.329-14.732,1.994
				c8.898,26.69,17.706,54.297,34.37,77.323c12.845,17.749,29.672,32.14,49.022,42.377c39.466,20.881,86.277,23.871,129.979,19.989
				c46.375-4.119,97.579-14.938,128.176-53.164c28.819-36.007,23.9-86.336,47.026-125.125c2.756-4.623,6.049-8.749,9.927-12.477
				c-3.927-0.506-7.854-1.012-11.779-1.518c5.381,10.97,5.414,22.392,0.496,32.552c-5.905,12.198-16.463,21.648-27.701,29.645
				c-28.028,19.943-61.432,32.377-94.136,42.247c-13.736,4.146-27.658,7.76-41.728,10.592c-22.789,4.587-46.109,4.226-69.115,1.414
				c-15.721-1.922-31.279-5.356-46.618-9.242c-13.173-3.336-25.367-7.357-36.992-14.526c-21.524-13.272-37.859-33.65-54.74-52.084
				c-1.789-1.954-3.595-3.894-5.408-5.826C86.128,204.471,75.542,215.1,82.153,222.146L82.153,222.146z"/>
		</g>
	</g>
	<g opacity="0.1">
		<g>
			<path fill="#D51F26" d="M98.524,259.224c9.231,14.768,18.722,29.405,30.998,41.869c6.796,6.899,17.397-3.713,10.606-10.607
				c-11.401-11.574-20.079-25.119-28.652-38.832C106.362,243.474,93.38,250.996,98.524,259.224L98.524,259.224z"/>
		</g>
	</g>
	<g opacity="0.1">
		<g>
			<path fill="#D51F26" d="M148.377,283.509c0.119,10.224,1.863,20.508,5.531,30.064c3.429,8.934,17.936,5.058,14.464-3.988
				c-3.219-8.388-4.891-17.097-4.995-26.076C163.265,273.843,148.264,273.832,148.377,283.509L148.377,283.509z"/>
		</g>
	</g>
	<g opacity="0.1">
		<g>
			<path fill="#D51F26" d="M174.961,296.029c4.902,13.494,6.677,27.564,6.75,41.865c0.032,6.427,8.217,10.084,12.803,5.304
				c9.827-10.244,13.989-24.17,22.807-35.088c-3.926-0.507-7.853-1.013-11.779-1.519c4.821,10.213,4.534,22.334,6.262,33.297
				c1.204,7.639,12.622,6.688,14.464,0c2.317-8.41,6.889-15.899,7.286-24.801c-4.911,0.665-9.821,1.329-14.732,1.994
				c1.621,7.531,4.792,14.797,4.995,22.567c0.252,9.651,15,9.689,15,0c0-5.264,0-10.526,0-15.79c-5,0-10,0-15,0
				c0.165,7.328,1.979,14.235,3.777,21.293c2.198,8.629,14.064,6.102,14.732-1.994c-0.088,1.072,0.793-2.094,0.953-2.517
				c0.578-1.531,1.27-3.025,1.902-4.533c1.22-2.907,2.147-5.572,2.409-8.74c-4.911,0.665-9.821,1.329-14.732,1.994
				c1.792,6.644,4.75,12.822,7.018,19.299c1.96,5.6,10.645,8.096,13.708,1.791c4.333-8.919,7.499-18.407,9.528-28.107
				c-4.822,0-9.643,0-14.464,0c1.93,7.156,5.087,13.896,7.018,21.053c2.25,8.346,14.445,6.368,14.732-1.994
				c0.163-4.735,1.523-9.304,1.755-14.035c-4.911,0.665-9.821,1.329-14.732,1.994c2.176,9.291,7.783,16.849,13.037,24.599
				c3.533,5.214,11.918,4.801,13.708-1.791c3.283-12.1,3.259-24.872,7.018-36.843c-4.179,1.103-8.357,2.206-12.536,3.31
				c7.444,9.63,11.496,21.634,18.127,31.815c3.275,5.031,12.368,4.985,13.708-1.791c1.846-9.34,3.415-18.731,5.263-28.07
				c-4.179,1.103-8.357,2.206-12.536,3.31c4.362,4.363,9.825,8.842,12.863,14.271c3.753,6.709,13.748,3.478,13.976-3.785
				c0.225-7.149,3.217-13.885,3.509-21.053c-4.658,1.262-9.317,2.523-13.976,3.785c3.63,5.127,9.665,9.618,11.523,15.753
				c2.514,8.293,14.245,6.396,14.732-1.994c0.338-5.825,4.803-11.873,6.75-17.304c-4.179,1.103-8.357,2.206-12.536,3.31
				c3.559,3.268,7.775,5.956,12.045,8.189c4.542,2.377,9.313,0.182,11.018-4.481c1.769-4.836,4.292-7.617,8.517-3.708
				c1.866,1.726,4.763,2.843,7.298,1.929c17.936-6.473,24.17-24.225,36.643-37.017c-3.927-0.507-7.854-1.013-11.779-1.519
				c1.729,3.187,3.888,5.964,6.436,8.536c2.836,2.861,7.782,2.935,10.607,0c7.834-8.141,12.995-18.208,18.716-27.834
				c-2.823,1.149-5.646,2.298-8.47,3.447c1.146,0.392,2.814,0.839,3.708,1.58c2.558,2.119,6.054,3.089,9.089,1.172
				c1.916-1.209,3.404-2.451,4.747-4.28c0.814-1.11,1.339-3.04,2.034-3.909c2.549-3.191,3.129-7.478,0-10.607
				c-2.649-2.648-8.051-3.198-10.607,0c-1.05,1.314-2.743,5.213-3.744,5.846c3.029,0.391,6.059,0.781,9.089,1.172
				c-3.084-2.555-6.549-4.145-10.327-5.438c-3.173-1.085-6.83,0.688-8.47,3.447c-5.046,8.489-9.466,17.621-16.372,24.797
				c3.536,0,7.071,0,10.607,0c-1.709-1.725-2.925-3.351-4.092-5.499c-2.297-4.232-8.476-4.906-11.779-1.519
				c-5.948,6.102-10.726,13.082-15.56,20.064c-3.771,5.446-8.038,10.776-14.464,13.095c2.433,0.644,4.865,1.286,7.298,1.929
				c-5.412-5.006-11.874-7.904-19.261-5.859c-7.501,2.076-11.842,9.389-14.328,16.187c3.673-1.494,7.346-2.987,11.018-4.481
				c-3.127-1.637-6.396-3.446-9.008-5.846c-4.352-3.996-10.609-2.064-12.536,3.31c-2.56,7.143-6.834,13.522-7.285,21.292
				c4.911-0.665,9.821-1.329,14.732-1.994c-2.427-8.007-8.386-12.769-13.037-19.335c-4.261-6.017-13.658-4.001-13.976,3.785
				c-0.289,7.095-3.283,13.86-3.509,21.053c4.659-1.262,9.317-2.523,13.976-3.785c-3.675-6.569-9.936-12.033-15.207-17.308
				c-3.767-3.768-11.417-2.346-12.536,3.31c-1.848,9.34-3.416,18.731-5.263,28.07c4.569-0.597,9.139-1.194,13.708-1.791
				c-7.382-11.337-12.159-24.099-20.471-34.853c-3.667-4.743-11.028-1.492-12.536,3.31c-3.759,11.972-3.733,24.744-7.018,36.843
				c4.569-0.597,9.139-1.194,13.708-1.791c-4.501-6.642-9.659-13.056-11.523-21.017c-2.002-8.549-14.333-6.196-14.732,1.994
				c-0.23,4.708-1.592,9.29-1.755,14.035c4.911-0.665,9.821-1.329,14.732-1.994c-1.931-7.157-5.088-13.896-7.018-21.053
				c-1.864-6.91-12.91-7.432-14.464,0c-1.758,8.403-4.257,16.789-8.016,24.525c4.569,0.597,9.139,1.194,13.708,1.791
				c-2.267-6.476-5.225-12.655-7.018-19.299c-2.312-8.566-14.06-6.155-14.732,1.994c0.088-1.072-0.793,2.094-0.953,2.517
				c-0.578,1.531-1.27,3.025-1.902,4.533c-1.22,2.907-2.147,5.572-2.409,8.74c4.911-0.665,9.821-1.329,14.732-1.994
				c-1.465-5.753-3.106-11.332-3.241-17.305c-0.217-9.656-15-9.686-15,0c0,5.264,0,10.526,0,15.79c5,0,10,0,15,0
				c-0.241-9.236-3.611-17.633-5.531-26.556c-1.849-8.592-14.368-6.163-14.732,1.994c-0.32,7.189-4.859,13.952-6.75,20.813
				c4.821,0,9.643,0,14.464,0c-1.986-12.604-2.226-25.127-7.773-36.879c-1.939-4.108-8.877-5.111-11.779-1.519
				c-8.763,10.85-13.167,25.039-22.807,35.088c4.268,1.769,8.536,3.536,12.803,5.304c-0.078-15.519-1.965-31.21-7.286-45.854
				C186.149,283.024,171.65,286.916,174.961,296.029L174.961,296.029z"/>
		</g>
	</g>
	<g opacity="0.1">
		<g>
			<path fill="#D51F26" d="M109.722,96.066c7.605-14.813,22.782-22.818,38.049-27.861c18.816-6.215,38.791-8.469,58.482-9.659
				c17.764-1.073,35.558-0.939,53.345-0.877c11.218,0.039,22.429-0.792,33.66-0.713c11.879,0.084,23.754,0.76,35.55,2.173
				c20.362,2.439,40.688,7.918,58.817,17.623c19.104,10.228,34.622,25.5,45.987,43.875c5.075,8.207,18.055,0.681,12.951-7.571
				c-12.743-20.604-30.09-37.588-51.368-49.255c-20.491-11.237-43.358-16.783-66.388-19.671c-23.151-2.903-46.006-1.393-69.21-1.46
				c-17.792-0.052-35.574-0.147-53.345,0.877c-21.748,1.254-43.912,3.879-64.622,10.916c-18.043,6.129-35.881,16.542-44.862,34.033
				C92.36,97.083,105.302,104.673,109.722,96.066L109.722,96.066z"/>
		</g>
	</g>
	<g opacity="0.1">
		<g>
			<path fill="#D51F26" d="M136.619,190.566c9.765-7.845,21.108-13.659,33.723-14.749c10.982-0.949,21.858,1.35,32.519,3.69
				c12.323,2.706,24.761,5.7,37.407,6.335c15.383,0.772,30.69,2.588,46.028,3.924c14.834,1.292,29.709,1.925,44.572,0.762
				c10.702-0.837,21.31-2.675,31.961-3.963c7.963-0.962,17.787-2.277,25.324,1.224c6.604,3.068,10.284,12.071,8.712,19.04
				c-1.616,7.169-9.985,11.427-16.296,13.933c-9.093,3.611-18.767,5.29-28.347,7.02c-29.402,5.31-59.74,5.746-89.504,4.176
				c-17.975-0.948-35.341-3.629-52.917-7.46c-17.979-3.92-36.384-8.637-52.877-16.985c-4.771-2.415-9.291-5.17-12.908-8.478
				c-3.375-3.087-4.719-5.164-5.469-8.748c-1.149,2.823-2.298,5.646-3.446,8.469c17.433-8.333,37.962-4.048,56.103-9.77
				c8.445-2.663,6.243-13.896-1.994-14.732c-18.253-1.852-38.393,3.425-46.827,21.258c-4.109,8.688,8.796,16.308,12.952,7.57
				c1.915-4.025,3.35-8.257,5.264-12.28c2.254-4.739-0.342-11.676-6.476-11.285c-7.619,0.485-17.178,1.449-18.399,10.677
				c-0.828,6.254,6.351,10.542,10.958,12.979c15.434,8.163,32.046,12.245,49.084,15.24c26.943,4.736,54.181,8.197,81.582,8.138
				c25.37-0.055,51.483-4.059,73.543-17.269c4.846-2.901,4.869-10.056,0-12.951c-18.615-11.073-43.249-10.32-64.164-10.75
				c-11.178-0.23-22.386-0.297-33.518-1.433c-4.897-0.5-9.721-1.645-14.592-2.364c-13.527-1.997-27.212-3.29-40.891-3.403
				c-11.566-0.096-26.623-0.231-36.012,7.635c-11.741,9.837-0.058,24.056,8.215,31.206c9.676,8.362,21.322,12.707,33.615,15.786
				c33.862,8.482,70.569,9.027,105.158,5.785c18.524-1.736,37.357-4.681,54.854-11.216c12.281-4.587,26.619-11.737,32.13-24.494
				c1.635-3.783,1.131-7.973-2.69-10.261c-12.652-7.578-30.354-8.094-44.648-8.037c-13.497,0.055-32.073,0.794-41.052,12.482
				c-2.462,3.204-0.547,8.453,2.69,10.261c12.39,6.918,25.536,2.632,38.106-1.345c5.942-1.881,11.814-3.542,18.098-3.061
				c2.47,0.189,4.958,1.495,7.146,2.581c0.915,0.453,1.787,0.981,2.638,1.546c-1.508-1,0.929,1.624-0.55-0.617
				c-1.083-1.642-0.743-3.833,0.073-5.501c0.276-0.564,1.595-1.56,0.991-1.193c-1.742,1.057,0.704-0.181-0.656,0.311
				c-0.823,0.297-1.673,0.52-2.519,0.742c-4.503,1.187-7.818,1.493-12.284,1.93c-8.113,0.793-16.3,1.145-24.451,1.158
				c0.665,4.911,1.329,9.821,1.994,14.732c8.677-1.974,17.185-4.579,25.994-5.953c6.195-0.967,15.757-1.58,19.922,4.26
				c1.493-3.672,2.987-7.345,4.481-11.018c-32.657,9.186-67.583,10.662-101.324,10.846c-17.335,0.095-34.953-0.015-52.225-1.491
				c-18.243-1.561-36.285-6.436-51.198-17.369c-0.597,4.569-1.194,9.139-1.792,13.708c21.292-7.171,44.495-4.657,66.276-1.284
				c23.384,3.622,46.621,9.221,70.327,10.323c8.441,0.393,10.257-12.906,1.994-14.732c-27.404-6.054-55.096-10.604-82.941-14.077
				c-12.647-1.577-25.043-2.562-37.786-2.565c-11.372-0.002-23.003,0.077-33.66-4.41c0,4.821,0,9.643,0,14.464
				c13.847-2.907,28.771-1.684,41.59,4.507c8.668,4.188,16.279-8.745,7.57-12.952c-16.641-8.037-35.12-9.804-53.147-6.02
				c-8.114,1.703-6.104,11.894,0,14.464c10.757,4.529,22.843,4.85,34.352,4.937c12.565,0.096,24.748,0.627,37.24,2.107
				c27.803,3.295,55.456,7.969,82.794,14.009c0.665-4.911,1.329-9.821,1.994-14.732c-23.445-1.091-46.441-6.782-69.585-10.284
				c-23.356-3.535-48.192-5.902-71.005,1.78c-6.511,2.192-7.041,9.86-1.792,13.708c15.756,11.553,34.597,16.539,53.726,18.895
				c17.83,2.195,36.265,1.993,54.218,2.021c35.976,0.055,73.55-1.596,108.362-11.387c4.343-1.222,7.351-6.996,4.481-11.018
				c-14.721-20.643-42.837-9.754-62.855-5.201c-8.372,1.904-6.363,14.746,1.994,14.732c9.388-0.016,18.815-0.482,28.144-1.549
				c7.138-0.815,23.379-1.781,24.746-11.462c1.963-13.902-19.402-18.771-29.476-17.892c-8.102,0.707-15.731,3.574-23.449,5.92
				c-6.126,1.863-13.037,3.803-18.987,0.48c0.897,3.42,1.794,6.841,2.69,10.261c-1.496,1.948,1.597-1.016-0.093,0.218
				c0.957-0.698,2.035-1.225,3.102-1.729c0.959-0.452,5.207-1.567,7.449-2.031c6.538-1.354,13.33-1.537,19.985-1.511
				c6.874,0.027,13.787,0.521,20.565,1.681c2.843,0.487,5.656,1.135,8.429,1.93c1.31,0.376,2.594,0.832,3.864,1.324
				c-1.051-0.407,1.478,0.815,1.877,1.054c-0.897-3.42-1.794-6.841-2.69-10.261c-0.437,1.01-0.932,1.977-1.49,2.925
				c-0.286,0.483-0.604,0.946-0.923,1.409c-1.092,1.588,1.011-1.207-0.234,0.307c-0.765,0.93-1.614,1.786-2.479,2.621
				c-1.196,1.154-2.342,2.035-2.438,2.106c-4.909,3.647-10.732,6.372-15.601,8.232c-14.837,5.669-30.825,8.496-46.556,10.239
				c-34.123,3.781-70.275,3.435-103.801-4.401c-3.235-0.757-6.441-1.634-9.615-2.613c-1.462-0.451-2.911-0.945-4.353-1.459
				c-1.595-0.567-3.29-1.259-3.489-1.346c-2.31-1.004-4.549-2.166-6.697-3.48c-0.483-0.295-3.289-2.311-1.648-1.036
				c-1.53-1.188-2.99-2.485-4.439-3.771c-2.35-2.083-4.937-4.856-5.914-6.293c-0.339-0.498-0.634-1.022-0.926-1.548
				c-0.911-1.641,0.507,1.492-0.096-0.133c-0.87-2.343-0.356,0.839-0.204-1.392c-0.15,2.195-0.155,1.194,0.07,0.52
				c-0.669,2.006-0.44,1.046-0.064,0.457c-1.122,1.755-0.621,0.793-0.148,0.317c1.075-1.083-1.483,1.021-0.182,0.1
				c0.788-0.559,1.666-0.983,2.542-1.382c-1.862,0.847,1.783-0.499,2.488-0.688c1.247-0.335,2.516-0.581,3.785-0.811
				c0.682-0.123,1.367-0.223,2.052-0.323c-1.652,0.243,0.755-0.07,0.887-0.084c3.407-0.37,6.837-0.513,10.262-0.583
				c7.133-0.146,14.276,0.198,21.388,0.727c3.274,0.243,6.542,0.551,9.807,0.894c1.513,0.159,3.024,0.334,4.534,0.514
				c0.714,0.085,1.429,0.175,2.143,0.266c0.459,0.058,0.918,0.117,1.377,0.178c-0.878-0.119-0.882-0.119-0.013,0
				c4.645,0.641,9.221,1.608,13.85,2.32c17.027,2.618,34.426,2.009,51.593,2.576c14.748,0.487,32.047,0.631,45.119,8.405
				c0-4.317,0-8.634,0-12.951c-17.972,10.761-38.688,14.345-59.364,15.097c-22.372,0.813-45.069-1.283-67.166-4.652
				c-11.619-1.772-24.163-2.935-35.44-6.253c-5.431-1.598-10.786-3.478-16.078-5.482c-5.102-1.934-10.238-4.039-14.857-7.051
				c-0.72-0.514-0.701-0.48,0.059,0.1c-0.395-0.311-0.746-0.665-1.091-1.029c2.263,2.386,1.366,6.491-1.281,8.319
				c0.661-0.349,0.543-0.313-0.352,0.109c0.671-0.249,1.386-0.387,2.083-0.537c1.311-0.283,2.794-0.339,4.29-0.435
				c-2.159-3.762-4.317-7.523-6.476-11.285c-1.915,4.026-3.35,8.257-5.264,12.28c4.317,2.523,8.635,5.047,12.952,7.57
				c6.272-13.262,20.61-15.174,33.875-13.829c-0.665-4.911-1.329-9.821-1.994-14.732c-8.991,2.835-18.523,3-27.843,3.814
				c-11.022,0.963-21.785,2.659-31.843,7.467c-3.131,1.497-4.095,5.368-3.446,8.47c3.195,15.282,19.846,24.106,32.878,29.744
				c17.653,7.637,36.422,12.429,55.218,16.29c48.112,9.884,99.167,10.345,147.446,1.31c17.486-3.272,39.513-7.793,49.193-24.557
				c5.393-9.338,3.374-20.204-0.712-29.571c-3.828-8.776-12.794-14.081-21.862-15.822c-9.97-1.916-20.122-0.575-30.067,0.763
				c-11.409,1.534-22.804,3.174-34.321,3.625c-14.856,0.582-29.73-0.707-44.507-2.105c-14.841-1.404-29.982-1.811-44.734-3.823
				c-17.819-2.431-35.028-8.308-53.051-9.394c-20.193-1.218-38.076,6.793-53.552,19.227c-3.192,2.564-2.655,7.952,0,10.606
				C129.136,193.69,133.436,193.124,136.619,190.566L136.619,190.566z"/>
		</g>
	</g>
	<g opacity="0.3">
		<g>
			<path fill="#D51F26" d="M185.979,207.528c6.292-4.185,12.589-6.465,20.13-4.865c6.881,1.459,13.303,4.821,19.812,7.375
				c15.731,6.171,32.312,8.172,48.612,3.338c7.981-2.367,15.77-5.204,23.825-7.35c9.52-2.535,19.381-3.002,29.184-2.999
				c20.296,0.005,40.268,1.781,60.154-3.515c9.338-2.487,5.371-16.957-3.988-14.464c-19.649,5.233-39.711,2.833-59.767,2.993
				c-9.947,0.079-19.902,1.164-29.571,3.521c-8.541,2.082-16.726,5.244-25.141,7.739c-15.586,4.622-31.109-0.208-45.621-6.305
				c-6.716-2.821-13.227-5.135-20.523-5.848c-8.785-0.858-17.509,2.658-24.678,7.428
				C170.396,199.905,177.898,212.903,185.979,207.528L185.979,207.528z"/>
		</g>
	</g>
	<g opacity="0.3">
		<g>
			<path fill="#D51F26" d="M201.252,206.53c21.414,8.639,44.301,12.85,67.175,15.313c22.595,2.434,45.511,2.659,68.152,0.744
				c9.565-0.809,9.644-15.815,0-15c-43.494,3.678-90.495,0.956-131.34-15.522c-3.797-1.532-8.235,1.638-9.226,5.238
				C194.835,201.589,197.464,205.002,201.252,206.53L201.252,206.53z"/>
		</g>
	</g>
	<g opacity="0.3">
		<g>
			<path fill="#D51F26" d="M196.228,206.798c56.232-3.556,112.189-10.479,168.421-14.034c9.604-0.607,9.664-15.611,0-15
				c-56.232,3.556-112.189,10.479-168.421,14.035C186.623,192.405,186.564,207.409,196.228,206.798L196.228,206.798z"/>
		</g>
	</g>
	<g opacity="0.3">
		<g>
			<path fill="#D51F26" d="M295.988,188.557c-41.219,14.381-80.045-7.358-118.819-19.298c-0.665,4.911-1.329,9.821-1.994,14.732
				c16.029-1.434,30.378,2.773,45.111,8.655c14.997,5.986,29.241,10.785,45.352,12.726c32.081,3.863,67.931,10.769,99.25-0.596
				c9.148-3.32,5.525-16.13-3.988-14.464c-40.093,7.018-84.551,19.258-124.082,3.508c-8.341-3.323-12.382,9.217-5.779,13.708
				c15.606,10.617,37.23,9.798,54.902,6.02c-1.329-4.821-2.659-9.644-3.988-14.465c-17.545,5.726-36.387,6.792-54.693,5.396
				c-17.265-1.315-37.078-5.526-50.29-17.502c-6.654-6.032-15.08,1.465-11.779,9.088c4.264,9.85,12.82,12.153,22.026,15.729
				c4.084,1.586,7.875-1.74,9.226-5.238c4.907-12.712-2.163-25.88-14.061-31.404c-11.062-5.136-26.449-2.894-26.987,11.866
				c4.268-1.768,8.536-3.536,12.803-5.303c-2.517-2.333-5.339-4.476-8.833-4.967c-2.834-0.398-5.731,0.115-8.511-0.47
				c-4.976-1.048-9.164,2.183-9.494,7.232c-0.698,10.684,4.655,19.11,14.859,22.438c8.798,2.87,19.237,0.96,27.968-1.171
				c9.395-2.293,5.409-16.758-3.987-14.464c-5.449,1.33-11.525,2.625-17.15,1.815c-5.57-0.801-7.073-2.761-6.69-8.618
				c-3.165,2.411-6.329,4.821-9.494,7.232c3.819,0.805,8.886-0.125,10.726,1.581c4.859,4.505,12.562,1.323,12.803-5.304
				c0.083-2.259-0.415,1.21,0.149-0.717c-0.11,0.378-1.369,1.898-0.369,0.859c-1.288,1.339,0.847-0.186-0.828,0.465
				c0.323-0.125,2.227-0.424,0.488-0.234c2.213-0.243,4.218,0.295,6.46,1.434c5.878,2.983,8.133,7.397,5.683,13.743
				c3.075-1.746,6.15-3.492,9.226-5.238c-5.791-2.249-10.438-2.773-13.062-8.834c-3.927,3.029-7.853,6.059-11.779,9.089
				c15.461,14.015,36.503,19.245,56.733,21.505c20.708,2.314,42.96,0.946,62.845-5.541c9.212-3.006,5.47-16.486-3.988-14.465
				c-13.908,2.974-31.062,3.849-43.343-4.506c-1.927,4.569-3.853,9.139-5.779,13.708c42.026,16.744,89.439,3.951,132.058-3.509
				c-1.329-4.821-2.659-9.644-3.988-14.464c-14.646,5.314-30.327,5.688-45.733,5.07c-16.591-0.666-33.063-3.003-49.528-5.01
				c-15.553-1.896-29.493-7.498-43.952-13.218c-14.953-5.915-30.335-9.61-46.511-8.163c-8.265,0.739-10.416,12.139-1.994,14.732
				c20.466,6.302,40.148,14.972,60.895,20.384c21.781,5.682,44.46,6.394,65.9-1.086
				C309.048,199.855,305.146,185.362,295.988,188.557L295.988,188.557z"/>
		</g>
	</g>
	<g opacity="0.3">
		<g>
			<path fill="#D51F26" d="M96.014,257.433c5.543,17.144,16.183,32.191,28.36,45.279c12.613,13.557,27.953,25.192,45.299,31.889
				c9.038,3.488,12.913-11.02,3.987-14.465c-14.449-5.578-26.923-15.887-37.593-26.886c-10.908-11.246-20.729-24.775-25.59-39.806
				C107.515,244.281,93.029,248.202,96.014,257.433L96.014,257.433z"/>
		</g>
	</g>
	<g opacity="0.3">
		<g>
			<path fill="#D51F26" d="M107.296,266.241c9.341,21.562,29.555,33.676,50.059,43.041c3.719,1.699,8.043,1.097,10.262-2.69
				c1.908-3.258,1.028-8.563-2.69-10.261c-18.387-8.399-36.28-18.274-44.678-37.66c-1.626-3.754-7.057-4.568-10.262-2.69
				C106.148,258.229,105.671,262.49,107.296,266.241L107.296,266.241z"/>
		</g>
	</g>
	<g opacity="0.3">
		<g>
			<path fill="#D51F26" d="M131.039,277.704c21.613,16.336,40.505,35.609,66.704,44.616c9.173,3.153,13.079-11.34,3.987-14.465
				c-24.577-8.448-42.832-27.769-63.12-43.103c-3.27-2.472-8.379-0.524-10.262,2.69
				C126.098,271.285,127.785,275.245,131.039,277.704L131.039,277.704z"/>
		</g>
	</g>
	<g opacity="0.3">
		<g>
			<path fill="#D51F26" d="M127.593,297.783c10.178,27.645,33.744,51.616,63.133,57.87c9.434,2.007,13.447-12.452,3.987-14.465
				c-24.105-5.129-44.226-24.498-52.656-47.394C138.744,284.798,124.243,288.686,127.593,297.783L127.593,297.783z"/>
		</g>
	</g>
	<g opacity="0.3">
		<g>
			<path fill="#D51F26" d="M143.556,306.356c22.468,25.317,49.851,47.222,83.414,55.083c33.824,7.923,68.988,0.328,101.077-11.049
				c9.05-3.209,5.152-17.705-3.988-14.465c-29.259,10.375-60.926,17.884-91.905,11.316c-31.645-6.709-57.016-27.858-77.991-51.493
				C147.729,288.501,137.16,299.148,143.556,306.356L143.556,306.356z"/>
		</g>
	</g>
	<g opacity="0.3">
		<g>
			<path fill="#D51F26" d="M197.706,333.844c25.395,14.61,55.667,20.15,84.638,21.178c29.052,1.03,60.522-2.992,86.091-17.669
				c8.385-4.813,0.833-17.775-7.57-12.951c-22.999,13.201-51.001,16.248-77.067,15.662c-26.734-0.601-55.105-5.7-78.521-19.171
				C196.877,316.06,189.326,329.023,197.706,333.844L197.706,333.844z"/>
		</g>
	</g>
	<g opacity="0.3">
		<g>
			<path fill="#D51F26" d="M201.451,311.619c18.938,15.027,45.014,18.218,68.438,18.836c23.274,0.615,48.523-1.515,70.438-9.89
				c8.94-3.417,5.063-17.924-3.988-14.465c-20.062,7.668-42.467,9.576-63.771,9.401c-11.449-0.095-22.889-1.105-34.081-3.561
				c-9.139-2.004-18.981-5.02-26.429-10.93c-3.199-2.538-7.47-3.137-10.606,0C198.81,303.653,198.243,309.073,201.451,311.619
				L201.451,311.619z"/>
		</g>
	</g>
	<g opacity="0.3">
		<g>
			<path fill="#D51F26" d="M212.018,310.307c57.354,3.528,117.161,11.223,168.697-20.322c8.233-5.039,0.703-18.016-7.57-12.951
				c-48.994,29.987-106.675,21.623-161.127,18.273C202.352,294.712,202.41,309.716,212.018,310.307L212.018,310.307z"/>
		</g>
	</g>
	<g opacity="0.3">
		<g>
			<path fill="#D51F26" d="M155.601,293.493c27.14,15.501,58.277,23.635,89.23,26.614c30.985,2.984,64.678-0.148,92.024-16.088
				c8.351-4.866,0.804-17.833-7.57-12.951c-24.811,14.46-54.942,16.498-82.976,14.172c-28.688-2.381-58.063-10.378-83.139-24.698
				C154.758,275.736,147.204,288.698,155.601,293.493L155.601,293.493z"/>
		</g>
	</g>
	<g opacity="0.3">
		<g>
			<path fill="#D51F26" d="M202.033,311.855c14.605,21.26,43.758,26.262,67.752,26.936c24.413,0.686,53.501-2.975,74.088-17.228
				c7.029-4.866,2.715-15.472-5.779-13.708c-23.397,4.861-46.949,9.021-70.813,10.697c-23.695,1.664-48.287,1.074-70.814-7.188
				c-9.125-3.347-12.93,11.094-3.987,14.465c18.853,7.106,37.418,15.888,57.246,19.979c19.797,4.085,38.845,1.145,57.306-6.701
				c7.182-3.052,3.136-13.968-3.785-13.976c-52.917-0.063-105.751-5.207-157.656-15.522c-9.446-1.877-13.471,12.58-3.987,14.465
				c53.194,10.571,107.407,15.993,161.643,16.058c-1.262-4.659-2.523-9.317-3.785-13.976c-16.236,6.899-33.038,8.232-50.154,4.216
				c-18.2-4.271-35.409-12.437-52.84-19.008c-1.329,4.821-2.658,9.644-3.987,14.465c23.716,8.698,49.859,9.353,74.801,7.724
				c25.174-1.645,50.131-6.107,74.801-11.232c-1.927-4.569-3.854-9.139-5.779-13.708c-18.035,12.485-42.702,15.329-64.068,15.22
				c-18.717-0.097-45.977-3.139-57.25-19.547C209.546,296.368,196.539,303.859,202.033,311.855L202.033,311.855z"/>
		</g>
	</g>
	<g opacity="0.3">
		<g>
			<path fill="#D51F26" d="M194.234,322.32c38.249,10.152,78.073,17.748,117.373,9.014c20.07-4.461,37.627-14.534,55.902-23.489
				c19.333-9.474,38.875-18.546,57.064-30.141c6.939-4.423,2.574-16.5-5.779-13.708c-18.457,6.17-36.705,13.078-54.178,21.688
				c-17.417,8.582-34.976,19.414-47.377,34.627c-3.575,4.387-1.955,13.656,5.304,12.804c38.373-4.509,69.935-35.981,84.425-70.418
				c-4.911-0.665-9.821-1.329-14.732-1.994c-1.059,14.891-8.463,28.791-17.142,40.619c-8.704,11.862-21.072,22.956-35.247,27.587
				c2.823,3.673,5.646,7.346,8.47,11.018c5.64-10.098,14.992-16.778,24.646-22.735c10.628-6.558,21.803-12.183,32.015-19.411
				c12.034-8.52,22.443-19.791,32.194-30.775c10.24-11.537,19.533-24.054,26.935-37.604c4.657-8.525-7.731-15.684-12.951-7.57
				c-16.095,25.013-33.339,52.622-58.713,69.239c-8.056,5.274-0.548,18.269,7.57,12.951c27.661-18.114,46.525-47.315,64.094-74.62
				c-4.316-2.523-8.635-5.047-12.951-7.57c-7.405,13.557-16.682,25.796-26.996,37.261c-9.481,10.538-19.582,21.111-31.454,28.949
				c-20.017,13.213-45.043,22.296-57.34,44.316c-3.072,5.5,1.995,13.133,8.47,11.018c17.072-5.578,31.244-17.741,42.125-31.754
				c11.418-14.705,19.939-32.139,21.275-50.917c0.234-3.294-2.461-6.395-5.506-7.232c-4.329-1.19-7.642,1.474-9.227,5.238
				c-11.591,27.549-39.063,55.775-69.96,59.406c1.768,4.268,3.535,8.535,5.304,12.804c11.404-13.991,27.063-23.523,42.975-31.6
				c16.663-8.457,34.263-14.941,51.961-20.857c-1.927-4.569-3.854-9.139-5.779-13.708c-17.137,10.923-35.475,19.644-53.723,28.511
				c-17.8,8.648-34.672,18.438-54.037,23.225c-36.772,9.09-75.228,0.868-111.022-8.633
				C188.861,305.371,184.893,319.841,194.234,322.32L194.234,322.32z"/>
		</g>
	</g>
	<g opacity="0.3">
		<g>
			<path fill="#D51F26" d="M268.158,312.062c48.631-3.604,99.517-7.046,145.139-25.673c20.84-8.509,40.915-20.552,51.271-41.355
				c9.161-18.404,9.762-39.552,12.577-59.531c0.569-4.045-0.922-8.039-5.238-9.226c-3.587-0.987-8.61,1.19-9.227,5.238
				c-5.778,38.004-33.271,70.325-61.229,94.935c4.179,2.433,8.357,4.865,12.536,7.298c5.628-19.507,20.938-35.3,34.914-49.321
				c-4.269-1.769-8.536-3.536-12.804-5.304c3.369,26.775-19.826,48.986-39.562,63.415c-20.897,15.277-48.812,30.236-73.991,32.594
				c-9.546,0.894-9.633,15.901,0,15c29.593-2.771,58.949-18.109,82.586-35.39c23.379-17.093,49.955-43.925,45.967-75.619
				c-0.772-6.135-7.737-10.386-12.804-5.304c-15.859,15.911-32.4,33.86-38.771,55.94c-2.188,7.583,7.116,12.068,12.536,7.298
				c29.666-26.116,58.96-61.266,65.087-101.555c-4.821-1.329-9.644-2.658-14.465-3.987c-2.555,18.136-2.877,37.979-10.571,54.91
				c-8.76,19.278-27.937,29.733-46.853,37.118c-43.301,16.904-91.193,20.116-137.098,23.519
				C258.573,297.772,258.503,312.777,268.158,312.062L268.158,312.062z"/>
		</g>
	</g>
	<g opacity="0.3">
		<g>
			<path fill="#D51F26" d="M98.465,108.07c-0.118-0.901-0.154-1.785-0.102-2.692c-0.142,2.441,0.119-0.254,0.371-1.015
				c0.508-1.534-0.766,1.607-0.042,0.136c0.206-0.418,0.452-0.815,0.695-1.212c0.225-0.366,1.236-1.688-0.039-0.058
				c0.421-0.539,0.89-1.038,1.361-1.532c0.76-0.797,1.6-1.517,2.45-2.216c-1.388,1.14,1.431-0.97,1.923-1.29
				c2.507-1.631,5.191-2.983,7.903-4.234c4.723-2.179,12.591-4.716,18.85-6.455c7.929-2.203,15.987-3.934,24.068-5.47
				c30.693-5.837,62.103-8.707,93.301-10.015c26.676-1.118,53.785-0.28,80.274,3.024c35.221,4.393,69.595,16.399,96.532,40.087
				c7.233,6.36,17.885-4.207,10.607-10.606c-20.482-18.011-44.609-30.312-70.841-37.559c-25.954-7.17-53.187-9.258-80.001-9.979
				c-30.177-0.811-60.143,0.866-90.141,4.207c-25.367,2.825-51.171,6.372-75.558,14.161c-13.876,4.432-39.094,13.838-36.614,32.719
				c0.532,4.053,3.009,7.5,7.5,7.5C94.649,115.57,98.999,112.135,98.465,108.07L98.465,108.07z"/>
		</g>
	</g>
	<g opacity="0.3">
		<g>
			<path fill="#D51F26" d="M96.442,124.099c8.534-22.645,25.505-42.334,43.641-57.923c8.735-7.508,18.674-14.372,29.33-18.86
				c13.243-5.578,28.007-5.837,42.153-5.441c15.264,0.427,30.465,2.067,45.75,1.352c11.39-0.533,22.757-2.728,34.11-3.862
				c19.772-1.976,39.736-2.806,59.561-1.116c22.499,1.918,44.891,8.062,63.389,21.376c21.115,15.198,32.36,39.717,37.778,64.476
				c2.068,9.448,16.528,5.44,14.465-3.987c-4.682-21.39-13.376-41.655-27.819-58.282c-12.312-14.174-28.756-23.96-46.297-30.224
				c-36.919-13.183-78.47-10.236-116.65-5.489c-9.854,1.226-19.483,2.381-29.441,2.31c-11.014-0.08-22.007-1.053-33.008-1.49
				c-20.897-0.83-40.926,1.279-59.503,11.375c-16.429,8.929-30.896,21.89-43.219,35.833c-12.012,13.593-22.285,28.938-28.701,45.966
				C78.561,129.181,93.065,133.062,96.442,124.099L96.442,124.099z"/>
		</g>
	</g>
	<g opacity="0.3">
		<g>
			<path fill="#D51F26" d="M466.618,125.375c-5.936-19.976-17.854-36.319-34.579-48.617c-16.005-11.769-35.551-18.477-54.659-23.189
				c-19.694-4.857-39.876-7.422-59.947-10.151c-24.383-3.316-48.598-6.818-73.272-6.744c-24.395,0.075-48.889,3.614-71.974,11.611
				c-24.717,8.563-47.001,22.252-67.227,38.693c-3.177,2.582-2.667,7.939,0,10.606c3.111,3.111,7.438,2.576,10.606,0
				c19.707-16.02,41.847-28.883,66.077-36.661c23.163-7.435,47.42-9.713,71.648-9.158c23.355,0.536,46.399,4.23,69.498,7.386
				c20.189,2.757,40.408,5.797,60.039,11.382c31.14,8.858,59.636,26.219,69.325,58.829
				C454.902,138.612,469.38,134.67,466.618,125.375L466.618,125.375z"/>
		</g>
	</g>
	<g opacity="0.3">
		<g>
			<path fill="#D51F26" d="M106.794,104.602c14.936-13.422,34.987-19.756,54.184-24.168c22.484-5.167,45.571-7.265,68.525-9.074
				c21.204-1.672,42.318-3.523,63.47-5.728c22.776-2.374,46.104-2.676,68.698,1.438c18.495,3.368,36.13,9.935,51.789,20.402
				c16.97,11.343,29.926,27.55,39.449,45.436c4.547,8.541,17.495,0.963,12.951-7.57c-11.021-20.702-26.358-38.471-45.896-51.531
				c-18.121-12.112-39.442-19.033-60.861-22.296c-23.363-3.56-47.059-3.037-70.488-0.407c-21.055,2.362-42.133,3.882-63.25,5.585
				c-23.803,1.92-47.72,4.408-71.001,9.892c-20.938,4.932-41.975,12.854-58.176,27.415
				C88.979,100.474,99.623,111.047,106.794,104.602L106.794,104.602z"/>
		</g>
	</g>
	<g opacity="0.3">
		<g>
			<path fill="#D51F26" d="M459.427,115.048c-30.019-31.844-71.505-49.333-113.846-57.592c-44.89-8.755-91.379-8.105-136.611-2.5
				c-27.473,3.405-54.717,8.677-81.402,16.057c-9.311,2.575-5.352,17.047,3.987,14.464c41.11-11.369,83.586-17.99,126.222-19.386
				c44.527-1.458,90.146,3.014,131.768,19.729c22.271,8.943,42.796,22.353,59.274,39.834
				C455.467,132.706,466.055,122.079,459.427,115.048L459.427,115.048z"/>
		</g>
	</g>
	<g opacity="0.3">
		<g>
			<path fill="#D51F26" d="M85.487,243.397c6.937,17.429,17.817,31.776,33.034,42.782c13.986,10.116,30.833,16.067,47.421,20.305
				c33.58,8.578,69.302,9.005,101.976,21.099c9.092,3.364,12.978-11.137,3.988-14.465c-55.73-20.627-145.227-6.555-171.955-73.709
				c-1.51-3.795-4.955-6.413-9.226-5.238C87.111,235.165,83.973,239.593,85.487,243.397L85.487,243.397z"/>
		</g>
	</g>
	<g opacity="0.3">
		<g>
			<path fill="#D51F26" d="M101.451,257.233c28.44,30.604,65.186,48.208,105.634,56.896c40.341,8.666,81.819,10.375,122.236,18.717
				c9.44,1.948,13.458-12.51,3.988-14.465c-39.489-8.149-79.921-10.164-119.427-18.131c-18.429-3.717-36.625-9.031-53.55-17.307
				c-18.328-8.962-34.413-21.401-48.275-36.318C105.46,239.527,94.877,250.158,101.451,257.233L101.451,257.233z"/>
		</g>
	</g>
	<g opacity="0.3">
		<g>
			<path fill="#D51F26" d="M157.417,306.556c3.64,14.276,17.037,23.034,29.777,28.526c16.999,7.326,35.335,10.987,53.595,13.518
				c36.347,5.038,75.142,7.531,110.685-3.287c42.113-12.817,70.39-46.337,99.18-77.553c-4.179-2.433-8.357-4.865-12.536-7.298
				c-10.482,33.24-41.949,52.702-73.129,63.821c-33.635,11.995-70.016,16.584-105.604,16.638c-9.672,0.015-9.674,15.015,0,15
				c37.712-0.057,76.379-5.112,111.937-18.018c35.535-12.896,69.396-35.833,81.261-73.453c2.24-7.105-7.471-12.789-12.536-7.298
				c-15.197,16.479-29.954,33.572-47.033,48.166c-15.554,13.289-33.509,22.673-53.335,27.706
				c-17.263,4.382-34.715,5.014-52.402,4.488c-18.039-0.537-36.104-2.099-53.899-5.135c-13.941-2.38-28.35-5.556-41.22-11.402
				c-4.953-2.25-10.212-5.318-13.609-8.299c-3.775-3.312-5.656-6.144-6.667-10.109C169.493,293.199,155.026,297.176,157.417,306.556
				L157.417,306.556z"/>
		</g>
	</g>
	<g opacity="0.3">
		<g>
			<path fill="#D51F26" d="M199.498,357.408c42.628,17.207,89.68,24.049,134.525,11.552c44.265-12.335,80.166-42.677,107.457-78.749
				c6.245-8.254,11.974-16.891,17.364-25.724c5.055-8.28-7.922-15.812-12.951-7.57c-23.738,38.892-56.23,74.441-99.223,91.901
				c-41.627,16.904-86.97,13.792-128.846-0.488c-4.833-1.648-9.604-3.475-14.339-5.387c-3.797-1.532-8.235,1.639-9.226,5.238
				C193.08,352.468,195.71,355.879,199.498,357.408L199.498,357.408z"/>
		</g>
	</g>
	<path fill="none" stroke="#0B0B0B" stroke-miterlimit="10" d="M150.614,85.263c-2.036-7.788-9.67-12.164-10.526-21.053"/>
	<path fill="none" stroke="#0B0B0B" stroke-miterlimit="10" d="M203.246,76.491c-1.48-6.478-3.35-12.451-3.509-19.298"/>
	<path fill="none" stroke="#0B0B0B" stroke-miterlimit="10" d="M233.07,72.982c6.024-3.419,9.778-9,10.526-15.79"/>
	<path fill="none" stroke="#0B0B0B" stroke-miterlimit="10" d="M285.702,71.228c9.802-4.693,17.311-13.444,24.561-21.053"/>
	<path fill="none" stroke="#0B0B0B" stroke-miterlimit="10" d="M343.597,76.491c4.807-5.102,8.821-11.613,14.035-15.79"/>
	<path fill="none" stroke="#0B0B0B" stroke-miterlimit="10" d="M394.474,92.281c8.018-2.619,16.313-5.995,24.562-8.772"/>
	<path fill="none" stroke="#0B0B0B" stroke-miterlimit="10" d="M213.772,297.544c-9.103-2.066-14.227,3.221-14.035,12.28"/>
	<path fill="none" stroke="#0B0B0B" stroke-miterlimit="10" d="M247.105,301.053c4.161,8.402,5.94,18.481,5.263,28.07"/>
	<path fill="none" stroke="#0B0B0B" stroke-miterlimit="10" d="M280.438,302.807c6.892,1.772,10.979,9.561,14.035,14.035"/>
	<g opacity="0.4">
		<g>
			<path fill="#0B0B0B" d="M331.039,293.493c6.215,3.766,10.812,9.655,16.025,14.617c7.003,6.663,17.627-3.928,10.607-10.607
				c-6.185-5.885-11.676-12.487-19.063-16.961C330.313,275.516,322.779,288.49,331.039,293.493L331.039,293.493z"/>
		</g>
	</g>
	<g opacity="0.4">
		<g>
			<path fill="#0B0B0B" d="M83.465,162.456c0.151,15.606,4.465,29.926,12.83,43.072c7.887,12.396,17.729,23.345,25.036,36.151
				c4.792,8.398,17.753,0.845,12.952-7.57c-6.881-12.061-15.843-22.591-23.636-34.029c-7.824-11.485-12.047-23.666-12.183-37.624
				C98.371,152.789,83.371,152.779,83.465,162.456L83.465,162.456z"/>
		</g>
	</g>
	<g opacity="0.4">
		<g>
			<path fill="#0B0B0B" d="M83.733,174.976c5.571,14.853,11.258,29.667,18.3,43.897c2.321,4.69,10.773,5.119,12.952,0
				c7.315-17.189,21.713-62.044-11.739-60.408c-6.002,0.293-10.625,8.277-5.303,12.803c18.546,15.775,42.038,2.195,60.63-6.267
				c8.739-3.978,18.503-6.186,27.954-7.737c11.881-1.949,24.813,1.779,36.675,2.604c6.431,0.448,12.907,0.452,19.292-0.505
				c6.834-1.025,13.048-4.162,19.171-7.222c4.431-2.214,7.809-4.016,12.696-2.383c4.197,1.402,8.04,6.062,11.498,8.66
				c8.74,6.566,21.245,6.804,31.688,5.91c11.72-1.002,23.262-4.273,33.57-9.974c5.102-2.821,9.901-6.62,13.572-11.157
				c-3.927-0.506-7.854-1.012-11.779-1.518c8.015,14.625,24.907,14.354,38.331,7.954c-3.029-0.391-6.059-0.782-9.089-1.173
				c7.461,7.074,16.952,8.97,26.946,8.181c7.94-0.626,17.195-3.509,24.719-1.565c7.053,1.822,7.481,10.003,5.664,15.852
				c-2.812,9.051-9.331,17.336-15.101,24.692c-12.129,15.462-24.12,32.641-40.739,43.561
				c-15.863,10.422-34.708,12.336-53.201,13.281c-12.631,0.646-25.21,0.91-37.782,2.434c-13.579,1.646-27.035,4.139-40.573,6.073
				c-25.67,3.667-51.177,2.468-76.36-3.71c-16.175-3.968-30.788-10.97-42.487-22.997c-6.288-6.464-11.354-13.938-15.987-21.642
				c-5.787-9.62-9.802-20.803-17.474-29.152c-6.557-7.137-17.137,3.499-10.606,10.606c3.408,3.709,5.569,8.515,7.847,12.949
				c2.682,5.221,5.547,10.345,8.606,15.354c5.077,8.313,10.94,16.254,17.738,23.242c12.869,13.229,29.537,21.186,47.209,25.809
				c25.664,6.713,52.218,8.214,78.491,4.946c14.012-1.743,27.884-4.421,41.881-6.261c13.13-1.728,26.291-2.009,39.497-2.651
				c19.698-0.957,39.42-3.23,56.917-12.99c18.281-10.198,30.481-27.195,43.094-42.607c11.479-14.026,28.963-33.482,24.438-53.232
				c-2.166-9.453-10.35-17.045-19.813-18.592c-9.08-1.485-18.025,0.974-27.057,1.686c-5.532,0.437-11.055,0.114-15.26-3.873
				c-2.611-2.476-5.944-2.672-9.089-1.173c-6.177,2.945-14.04,4.305-17.81-2.572c-2.154-3.932-8.744-5.269-11.779-1.518
				c-6.604,8.163-16.365,12.331-26.309,14.909c-8.74,2.266-21.529,4.29-30.159,0.495c-4.359-1.917-7.692-5.641-11.455-8.448
				c-4.851-3.619-10.2-5.435-16.247-5.643c-5.526-0.19-11.042,2.915-15.818,5.286c-5.851,2.904-11.318,5.394-17.913,5.841
				c-13.86,0.941-27.476-2.315-41.247-2.98c-10.389-0.502-20.638,2.332-30.628,4.837c-9.844,2.469-18.847,8.05-28.149,11.957
				c-7.841,3.293-18.245,7.525-26.309,2.779c-0.488-0.251-0.922-0.572-1.3-0.962c-1.768,4.268-3.536,8.536-5.303,12.803
				c1.005-0.049,1.984-0.055,2.989-0.005c-0.943-0.047,2.335,0.826,0.972,0.207c1.535,0.698,0.667,0.301,1.315,0.961
				c-1.188-1.21,0.879,1.808,0.275,0.353c1.294,3.118,1.253,6.891,0.738,10.697c-0.669,4.941-1.995,9.794-3.479,14.544
				c-0.723,2.313-1.533,4.6-2.377,6.871c-0.366,0.986-0.75,1.965-1.138,2.942c-0.118,0.297-1.254,3.019-0.508,1.268
				c4.317,0,8.635,0,12.952,0c-6.471-13.077-11.669-26.666-16.788-40.314C94.833,162.019,80.329,165.901,83.733,174.976
				L83.733,174.976z"/>
		</g>
	</g>
	<g opacity="0.4">
		<g>
			<path fill="#0B0B0B" d="M92.679,190.566c22.648,20.877,46.657,43.074,75.202,55.559c3.746,1.639,8.019,1.139,10.262-2.69
				c1.883-3.214,1.057-8.622-2.69-10.261c-27.479-12.019-50.367-33.119-72.167-53.214C96.188,173.417,85.553,183.998,92.679,190.566
				L92.679,190.566z"/>
		</g>
	</g>
	<g opacity="0.4">
		<g>
			<path fill="#0B0B0B" d="M92.237,185.263c0.006,9.81,0.375,19.304,4.533,28.346c2.964,6.445,11.745,3.672,13.708-1.791
				c2.14-5.955,5.327-11.4,7.018-17.544c-4.911-0.665-9.821-1.329-14.732-1.994c0.106,10.807,1.656,22.01,6.287,31.855
				c2.314,4.919,10.628,4.888,12.952,0c1.915-4.026,3.35-8.257,5.263-12.28c-4.569-1.926-9.139-3.853-13.708-5.779
				c-1.651,6.462-3.613,12.837-5.263,19.298c-2.038,7.976,10.086,13.739,13.708,5.779c4.871-10.706,8.707-22.65,4.437-34.226
				c-3.95-10.709-13.161-18.33-21.399-25.74c-0.506,3.926-1.012,7.853-1.518,11.779c1.057-0.776,1.851-0.719,3.232-0.73
				c-1.262-4.659-2.523-9.317-3.786-13.976c-7.082,5.129-10.103,11.987-12.218,20.272c-2.396,9.378,12.072,13.354,14.464,3.988
				c0.989-3.871,1.851-8.792,5.326-11.308c5.722-4.144,4.22-14.041-3.786-13.976c-3.774,0.03-7.683,0.489-10.803,2.778
				c-3.672,2.695-5.416,8.273-1.518,11.779c6.096,5.483,12.942,10.882,17.007,18.135c4.148,7.4,0.833,16.567-2.391,23.653
				c4.569,1.926,9.139,3.853,13.708,5.779c1.651-6.462,3.613-12.837,5.263-19.298c2.043-7.999-9.955-13.672-13.708-5.779
				c-1.915,4.026-3.35,8.257-5.263,12.28c4.317,0,8.635,0,12.952,0c-3.445-7.325-4.161-16.301-4.239-24.285
				c-0.083-8.466-12.469-10.217-14.732-1.994c-1.686,6.125-4.877,11.587-7.018,17.543c4.569-0.597,9.139-1.194,13.708-1.791
				c-2.925-6.361-2.481-13.953-2.485-20.776C107.231,175.59,92.231,175.59,92.237,185.263L92.237,185.263z"/>
		</g>
	</g>
	<g opacity="0.4">
		<g>
			<path fill="#0B0B0B" d="M95.746,185.263c-1.497,11.597-2.038,23.488,1.542,34.78c3.579,11.288,11.379,20.524,19.953,28.419
				c5.01,4.612,12.319,1.227,12.803-5.304c0.262-3.543,1.489-6.946,1.754-10.526c-3.762,2.159-7.523,4.317-11.286,6.476
				c6.048,3.728,14.235,4.504,19.535,9.354c6.001,5.491,16.999-1.901,11.779-9.089c-4.652-6.405-7.693-12.832-14.972-16.726
				c-2.523,4.317-5.047,8.634-7.57,12.951c32.591,14.604,66.351,26.37,101.902,30.966c35.35,4.568,70.837,1.558,105.631-5.647
				c9.469-1.961,5.451-16.419-3.988-14.465c-32.994,6.833-66.541,9.445-100.07,5.315c-33.26-4.098-65.466-15.481-95.904-29.12
				c-8.636-3.87-16.253,8.307-7.57,12.951c4.747,2.54,6.515,7.111,9.59,11.345c3.927-3.029,7.853-6.059,11.779-9.089
				c-6.594-6.033-15.205-7.16-22.57-11.698c-5.152-3.175-10.883,1.039-11.286,6.476c-0.262,3.543-1.489,6.946-1.754,10.526
				c4.268-1.768,8.536-3.535,12.803-5.304c-7.043-6.485-13.499-13.61-16.444-22.9c-3.019-9.519-1.913-19.969-0.658-29.691
				c0.525-4.065-3.809-7.5-7.5-7.5C98.761,177.763,96.269,181.209,95.746,185.263L95.746,185.263z"/>
		</g>
	</g>
	<g opacity="0.4">
		<g>
			<path fill="#0B0B0B" d="M169.912,255.921c74.778,8.545,149.764,0.017,224.562-3.509c9.63-0.454,9.674-15.456,0-15
				c-74.798,3.525-149.784,12.054-224.562,3.509c-4.071-0.465-7.5,3.764-7.5,7.5C162.412,252.86,165.852,255.457,169.912,255.921
				L169.912,255.921z"/>
		</g>
	</g>
	<g opacity="0.4">
		<g>
			<path fill="#0B0B0B" d="M164.372,160.16c26.855,12.347,55.369,17.047,84.795,16.794c27.29-0.235,54.735-3.343,81.907-5.7
				c15.584-1.351,32.049-2.222,47.31,0.231c7.263,1.167,13.912,2.978,19.851,6.478c4.926,2.904,8.081,6.854,9.531,12.371
				c1.805,6.865-0.421,15.548-2.98,22.759c-3.243,9.14,11.253,13.037,14.465,3.988c5.687-16.022,6.571-34.738-6.862-47.171
				c-11.787-10.909-29.266-13.54-44.649-14.547c-17.538-1.148-35.113,0.786-52.583,2.111c-28.683,2.175-57.385,5.82-86.193,3.947
				c-19.664-1.278-39.102-5.976-57.019-14.214C163.219,143.197,155.592,156.123,164.372,160.16L164.372,160.16z"/>
		</g>
	</g>
	<g opacity="0.4">
		<g>
			<path fill="#0B0B0B" d="M227.568,164.425c26.606,10.288,54.293,12.832,82.515,9.653c14.106-1.589,28.077-4.196,42.034-6.743
				c3.583-0.654,7.166-1.303,10.751-1.942c1.842-0.328,3.686-0.648,5.529-0.968c-2.168,0.376-0.276,0.044,0.15-0.006
				c2.874-0.338,5.765-0.531,8.653-0.684c14.041-0.743,28.876-0.324,41.951,2.325c2.989,0.605,5.938,1.397,8.817,2.403
				c0.164,0.057,2.291,0.901,0.731,0.239c0.587,0.249,1.159,0.531,1.73,0.814c0.678,0.336,3.813,2.493,2.322,1.295
				c0.398,0.32,0.761,0.68,1.121,1.042c1.2,1.207-0.914-1.38,0.021-0.027c1.012,1.466-0.073-1.202,0.437,1.111
				c-0.453-2.054-0.13-0.829-0.142-0.161c-0.03,1.691,0.369-1.761-0.043-0.03c-0.087,0.366-0.764,1.994-0.017,0.307
				c-0.347,0.784-0.804,1.516-1.261,2.238c-2.609,4.122-9.148,8.923-14.112,12.269c3.029,0.391,6.059,0.782,9.089,1.173
				c-3.038-3.308-6.845-9.475-9.354-14.272c-2.324-4.443-8.375-4.656-11.779-1.518c-0.073,0.068-0.147,0.136-0.221,0.204
				c1.768-0.732,3.535-1.464,5.304-2.196c-0.019,0.002-0.036,0.004-0.055,0.006c2.159,3.762,4.317,7.524,6.477,11.286
				c-0.873,1.503,1.122-1.324,1.869-2.154c1.361-1.512,2.926-3.232,4.486-4.138c5.989-3.474,4.07-11.541-1.791-13.708
				c-6.713-2.482-12.141-6.79-19.537-7.286c2.158,1.238,4.317,2.477,6.476,3.715c-0.678-1.317-1.685-2.638-3.049-3.305
				c-5.902-2.886-12.597,1.789-11.017,8.47c0.347,1.469,1.071,2.91,1.611,4.315c0.429,1.115,0.846,2.234,1.252,3.357
				c0.261,0.72,1.044,4.344,0.734,1.474c0.545,5.048,4.352,8.257,9.494,7.232c12.041-2.4,21.229-11.085,29.626-19.473
				c-3.927-0.506-7.854-1.012-11.779-1.518c1.514,2.871,3.368,5.405,5.238,8.042c0.994,1.401-0.032-0.369,0.168-1.11
				c-0.233,0.863-1.835,2.487-2.48,3.278c3.927,3.029,7.854,6.059,11.779,9.089c7.803-13.735,18.196-35.388,2.337-47.686
				c-6.812-5.281-15.346,1.063-11.779,9.089c4.586,10.32,12.719,19.567,13.011,31.302c0.21,8.436,12.415,10.251,14.732,1.994
				c3.235-11.529,5.313-23.247,7.018-35.088c-4.569,0.597-9.139,1.194-13.708,1.792c4.549,6.384,9.02,13.478,9.033,21.569
				c0.009,5.356-3.164,10.144-6.75,14.073c-10.382,11.376-24.561,18.971-36.199,28.952c-7.354,6.308,3.307,16.868,10.607,10.607
				c13.156-11.285,29.475-19.64,40.082-33.642c11.979-15.814,6.864-34.136-3.822-49.132c-3.262-4.578-12.68-5.35-13.708,1.792
				c-1.704,11.841-3.782,23.559-7.018,35.088c4.911,0.665,9.821,1.329,14.732,1.994c-0.372-14.947-9.242-25.785-15.06-38.874
				c-3.926,3.03-7.853,6.06-11.779,9.089c9.334,7.237-0.296,21.788-4.681,29.508c-4.085,7.191,6.257,15.867,11.779,9.089
				c3.673-4.508,8.06-9.732,6.578-15.998c-1.089-4.604-4.989-8.273-7.16-12.389c-2.271-4.31-8.471-4.823-11.779-1.518
				c-6.631,6.625-13.469,13.714-23.007,15.615c3.165,2.411,6.329,4.821,9.494,7.232c-0.509-4.714-3.063-8.609-4.134-13.134
				c-3.673,2.823-7.345,5.646-11.018,8.47c-2.339-2.803-3.116-3.495-2.332-2.077c0.666,1.127,1.563,2.024,2.69,2.691
				c1.941,1.137,4.512,1.089,6.65,1.84c4.372,1.536,8.304,4.313,12.684,5.933c-0.597-4.569-1.194-9.139-1.791-13.708
				c-4.387,2.544-9.164,7.245-11.737,11.673c-2.581,4.442,0.612,12.022,6.476,11.285c2.318-0.291,3.83-0.794,5.579-2.407
				c-3.927-0.506-7.854-1.012-11.779-1.518c3.128,5.98,7.123,12.324,11.698,17.308c2.161,2.353,6.402,2.983,9.089,1.172
				c10.778-7.264,29.128-20.62,20.762-35.864c-6.25-11.387-23.836-13.376-35.213-14.821c-13.686-1.737-27.813-1.891-41.547-0.595
				c-12.076,1.139-24.055,4.017-35.989,6.13c-13.316,2.358-26.672,4.369-40.193,5.025c-21.58,1.048-42.466-2.643-62.593-10.425
				c-3.818-1.477-8.224,1.595-9.226,5.238C221.163,159.44,223.758,162.952,227.568,164.425L227.568,164.425z"/>
		</g>
	</g>
	<g opacity="0.4">
		<g>
			<path fill="#0B0B0B" d="M96.71,158.947c-0.227-15.556,4.522-29.367,15.291-40.067c10.759-10.691,25.825-16.835,40.446-21.04
				c33.525-9.64,69.058-10.044,103.653-11.437c14.045-0.565,27.958-1.305,42.012-0.209c18.288,1.427,36.267,5.675,53.716,11.212
				c35.281,11.194,68.296,28.435,102.018,43.455c3.734,1.664,8.028,1.121,10.261-2.691c1.894-3.232,1.046-8.597-2.69-10.261
				c-51.801-23.074-102.556-50.565-159.886-56.407c-20.192-2.057-40.563-0.309-60.788,0.502
				c-17.811,0.715-35.623,1.693-53.319,3.901c-25.168,3.141-51.483,8.335-73.172,22.206c-21.301,13.623-32.909,35.586-32.542,60.836
				C81.851,168.611,96.852,168.625,96.71,158.947L96.71,158.947z"/>
		</g>
	</g>
	<g opacity="0.4">
		<g>
			<path fill="#0B0B0B" d="M87.998,243.435c21.202,36.223,64.1,52.42,103.042,61.146c21.085,4.725,42.643,7.405,64.166,9.119
				c22.04,1.754,44.618,3.366,66.592,0.422c20.567-2.756,40.255-8.848,59.196-17.245c17.935-7.952,35.434-18.135,50.166-31.162
				c6.907-6.108,12.861-13.244,18.006-20.88c4.694-6.967,7.583-15.301,10.443-23.144c5.058-13.872,9.424-30.548,22.861-38.723
				c8.249-5.019,0.717-17.994-7.57-12.952c-20.626,12.548-24.635,36.925-33.54,57.439c-10.589,24.392-34.151,39.317-56.847,51.13
				c-25.628,13.34-54.371,21.531-83.318,22.155c-20.168,0.435-40.738-1.314-60.781-3.393c-27.614-2.862-55.307-7.998-81.376-17.738
				c-22.909-8.559-45.453-22.16-58.087-43.744C96.067,227.523,83.101,235.068,87.998,243.435L87.998,243.435z"/>
		</g>
	</g>
	<g opacity="0.4">
		<g>
			<path fill="#0B0B0B" d="M118.821,114.849c-4.918,19.033,2.373,41.349,21.798,48.837c7.876,3.036,16.605,1.922,23.168-3.441
				c8.019-6.553,10.01-17.84,10.116-27.613c0.105-9.677-14.895-9.667-15,0c-0.072,6.596-1.271,13.049-5.189,16.571
				c1.324-1.19-2.537,1.264-0.669,0.477c-0.598,0.252-1.228,0.418-1.854,0.583c-2.021,0.535,1.521-0.059-0.575,0.111
				c-2.401,0.196-4.041-0.29-5.543-0.982c-4.986-2.299-7.954-5.767-10.584-10.971c-2.858-5.656-2.888-13.07-1.205-19.584
				C135.707,109.463,121.239,105.489,118.821,114.849L118.821,114.849z"/>
		</g>
	</g>
	<g opacity="0.4">
		<g>
			<path fill="#0B0B0B" d="M154.664,100.776c-13.394,23.95,15.644,59.933,41.67,55.272c11.588-2.075,18.234-16.625,22.715-26.094
				c5.147-10.876,10.755-23.663,10.995-35.92c0.138-7.046-10.873-10.811-13.976-3.785c-5.749,13.016-4.944,27.949-0.523,41.27
				c4.274,12.879,12.995,25.79,26.736,29.534c15.789,4.302,32.449-7.096,38.564-21.259c6.277-14.54,3.466-30.762,8.58-45.521
				c-4.821-1.329-9.644-2.658-14.465-3.987c-6.965,23.376-2.901,61.981,26.494,67.236c16.283,2.911,30.831-4.512,39.502-18.175
				c7.68-12.1,9.977-26.646,15.135-39.811c-4.911-0.665-9.821-1.329-14.732-1.994c2.296,17.782-3.832,43.716,15.078,54.51
				c10.505,5.997,22.351,3.361,29.532-6.102c6.469-8.524,8.873-20.356,8.986-30.864c-5,0-10,0-15,0
				c1.101,18.805,12.98,38.148,32.558,42.027c8.201,1.625,16.611-0.184,22.68-6.131c7.049-6.909,8.183-17.838,7.131-27.124
				c-0.46-4.061-3.063-7.5-7.5-7.5c-3.739,0-7.961,3.429-7.5,7.5c0.412,3.637,0.646,7.386-0.08,10.863
				c-0.153,0.731-1.077,3.353-0.896,2.966c-0.322,0.69-0.729,1.335-1.136,1.977c-1.191,1.875,0.833-0.858-0.625,0.711
				c-2.247,2.418-5.777,2.83-9.559,1.958c-5.122-1.18-9.508-4.438-13.387-8.976c-4.137-4.838-6.309-11.835-6.686-18.271
				c-0.562-9.59-14.896-9.737-15,0c-0.092,8.574-5.281,33.545-17.41,23.081c-4.674-4.033-5.136-12.48-5.486-18.43
				c-0.434-7.373,0.247-14.86-0.7-22.195c-1.091-8.449-11.535-10.153-14.732-1.994c-6.687,17.068-10.442,51.088-36.185,47.509
				c-20.676-2.875-20.593-33.428-16.017-48.785c2.788-9.357-11.331-13.029-14.465-3.987c-4.142,11.952-2.985,24.863-5.729,37.092
				c-2.298,10.245-11.58,21.289-22.103,19.404c-17.508-3.137-24.254-35.05-18.109-48.963c-4.659-1.262-9.317-2.523-13.976-3.785
				c-0.043,2.197,0.06,1.033-0.288,2.99c-0.386,2.17-0.959,4.307-1.552,6.428c-1.376,4.922-3.124,9.791-5.119,14.495
				c-2.143,5.052-4.598,9.977-7.39,14.702c-0.997,1.687-2.265,3.714-3.328,5.068c-0.525,0.669-1.096,1.3-1.67,1.927
				c-0.215,0.234-2.417,2.124-1.191,1.224c-0.354,0.26-2.077,1.012-0.271,0.321c-0.909,0.348-1.704,0.303-2.789,0.313
				c-1.955,0.018-3.976-0.687-5.884-1.393c-4.366-1.614-8.143-5.238-11.228-8.581c-5.197-5.631-10.854-15.786-6.718-23.182
				C172.342,99.896,159.385,92.334,154.664,100.776L154.664,100.776z"/>
		</g>
	</g>
	<g opacity="0.4">
		<g>
			<path fill="#0B0B0B" d="M106.54,114.849c-1.577,11.179-3.093,22.382-1.404,33.638c1.644,10.957,6.654,20.862,12.687,30.036
				c5.289,8.044,18.284,0.538,12.952-7.571c-5.179-7.875-9.36-15.873-10.991-25.229c-1.52-8.722-0.001-18.229,1.22-26.887
				c0.571-4.045-0.922-8.039-5.238-9.226C112.212,108.633,107.112,110.793,106.54,114.849L106.54,114.849z"/>
		</g>
	</g>
	<g opacity="0.4">
		<g>
			<path fill="#0B0B0B" d="M260.901,78.46c19.055,4.817,38.569,4.053,58.043,4.562c9.489,0.249,18.847,1.117,28.063,3.464
				c8.298,2.112,16.149,5.925,23.984,9.313c30.271,13.09,62.809,27.426,86.599,50.908c6.888,6.798,17.499-3.804,10.607-10.606
				c-24.438-24.121-57.157-39.093-88.228-52.643c-7.835-3.417-15.682-7.055-23.754-9.87c-9.636-3.36-20.004-4.592-30.138-5.255
				c-20.479-1.34-41.083,0.747-61.19-4.336C255.506,61.624,251.527,76.091,260.901,78.46L260.901,78.46z"/>
		</g>
	</g>
	<g opacity="0.4">
		<g>
			<path fill="#0B0B0B" d="M194.474,162.938c29.222,2,58.719,12.377,87.959,4.995c5.793-1.462,7.959-11.081,1.791-13.708
				c-3.43-1.461-7.137-2.065-10.526-3.509c-1.262,4.659-2.523,9.317-3.785,13.976c20.621,0.054,41.201,1.518,61.644-2.022
				c9.518-1.648,5.47-16.102-3.988-14.464c-19,3.291-38.487,1.537-57.655,1.486c-6.938-0.018-10.946,10.926-3.785,13.976
				c3.43,1.461,7.137,2.065,10.526,3.509c0.597-4.569,1.194-9.139,1.791-13.708c-27.447,6.93-56.472-3.649-83.971-5.531
				C184.814,147.277,184.878,162.282,194.474,162.938L194.474,162.938z"/>
		</g>
	</g>
</g>
</svg>
