<?xml version="1.0" encoding="utf-8"?>
<!-- Generator: Adobe Illustrator 16.0.0, SVG Export Plug-In . SVG Version: 6.00 Build 0)  -->
<!DOCTYPE svg PUBLIC "-//W3C//DTD SVG 1.1//EN" "http://www.w3.org/Graphics/SVG/1.1/DTD/svg11.dtd">
<svg version="1.1" id="Layer_1" xmlns="http://www.w3.org/2000/svg" xmlns:xlink="http://www.w3.org/1999/xlink" x="0px" y="0px"
	 width="422.996px" height="365.388px" viewBox="0 0 422.996 365.388" enable-background="new 0 0 422.996 365.388"
	 xml:space="preserve">
<path fill="none" stroke="#030202" stroke-miterlimit="10" d="M19.72,155.121c-2.824-29.893,21.733-61.892,45.523-75.485
	c29.76-17.003,66.31-19.331,100.006-22.76c66.28-6.745,134.113-4.527,187.894,36.927c13.387,10.318,29.992,18.776,42.009,31.06
	c16.148,16.508,10.295,22.796-0.429,40.729c-9.295,15.545-8.263,32.196-15.745,47.459c-6.706,13.68-23.471,26.032-36.751,32.965
	c-28.521,14.888-59.095,19.924-91.025,23.141c-18.145,1.828-31.8,8.348-49.123,12.28c-17.804,4.041-33.588-1.93-50.877-6.53
	c-33.651-8.956-64.685-15.112-92.886-37.329c-28.168-22.19-42-59.581-42.105-94.737"/>
<path fill="none" stroke="#030202" stroke-miterlimit="10" d="M167.486,129.189c-15.584-5.036-16.453-38.834-10.748-51.467
	c8.675-19.207,34.833-16.91,52.546-12.122c18.445,4.988,21.381,23.718,13.498,42.056
	C215.551,124.478,184.231,134.601,167.486,129.189z"/>
<path fill="none" stroke="#030202" stroke-miterlimit="10" d="M293.405,83.191c3.964,42.419-56.294,76.405-72.314,28.454
	c-15.16-45.378,45.605-57.468,70.56-31.963"/>
<path fill="none" stroke="#030202" stroke-miterlimit="10" d="M107.439,81.437c1.148-18.226,33.057-8.339,45.299-12.106
	c1.222,19.949,1.063,40.994,0.05,60.963c-18.417,0.979-30.604-4.874-46.838-7.018c-3.458-19.135,8.917-33.774,8.507-52.366"/>
<path fill="none" stroke="#030202" stroke-miterlimit="10" d="M61.787,108.444"/>
<path fill="none" stroke="#030202" stroke-miterlimit="10" d="M291.65,74.419c35.655-14.368,38.776,28.078,33.028,50.618
	c-28.387,7.651-24.537-5.528-45.309-19.039"/>
<path fill="none" stroke="#030202" stroke-miterlimit="10" d="M65.334,102.49c-0.008,15.441-2.413,31.558,12.721,39.82
	c18.332,10.007,18.694-8.656,29.384-20.522"/>
<path fill="none" stroke="#030202" stroke-miterlimit="10" d="M330.247,91.963c1.657,10.885,1.171,28.481,10.436,36.536
	c13.282,11.547,24.331-1.358,35.429-8.426c-10.281-9.327-10.951-21.368-24.472-27.851c-4.742-2.275-11.607-1.501-16.476-3.631
	c-5.174-2.263-9.256-10.136-15.455-10.829c-9.954-1.114-18.469,12.313-28.143,10.461c-4.902-0.938-11.319-10.461-17.46-12.084
	c-10.242-2.708-26.335-0.207-36.842,0.391c-10.874,0.618-6.785,2.466-17.544-0.356c-3.664-0.961-12.028-5.434-16.18-6.977
	c-16.009-5.949-20.495-5.214-34.65,3.478c-13.628,8.368-10.442,6.886-21.534,5.638c-5.978-0.673-7.112-5.067-15.299-4.318
	c-11.631,1.065-26.532,13.176-27.652,24.853c-8.476-12.598-38.569-13.042-35.827,6.886c-36.519-0.168-22.762,61.263,3.774,37.107"/>
<path fill="none" stroke="#030202" stroke-miterlimit="10" d="M75.861,248.104c4.473-1.8,10.626-1.725,15.483-1.448
	c6.432,25.281,21.195,3.369,36.848,1.667c3.261,5.844,7.787,12.327,10.735,18.933c15.732-13.031,24.208-5.003,39.168-3.361
	c13.75,1.509,28.115-13.277,40.301,6.486c13.42-26.222,31.157-10.888,48.301-11.75c3.115-0.156,9.983-4.813,14.77-5.257
	c7.242-0.671,11.009,3.501,17.063,3.531c11.179,0.056,19.063-5.835,29.432-7.04c-35.219,4.588-70.963,16.204-107.937,20.74
	c-0.539-0.542-1.436-2.828-1.929-3.459c-6.424,7.646-38.864,20.812-38.98,2.197c-7.805,9.413-34.734,11.102-34.835-5.449"/>
<path fill="none" stroke="#030202" stroke-miterlimit="10" d="M60.071,165.647c4.48-7.467,34.151-16.703,43.813-19.333
	c15.769-4.292,34.134,0.023,47.715,4.914c31.542,11.359,68.286,14.241,103.168,9.546c25.966-3.494,85.606-23.19,96.532,8.388
	c15.02,43.409-22.028,51.088-55.75,55.791c-49.073,6.843-94.525,11.013-144.291,3.812c-21.958-3.177-48.157-2.756-66.189-17.894
	c-6.81-5.717-40.89-53.077-14.472-48.732"/>
<path fill="none" stroke="#030202" stroke-miterlimit="10" d="M7.439,148.104c0.136-23.093,7.266-27.458,17.198-45.62
	c8.845-16.175,9.197-34.962,21.349-49.976C64.807,29.253,106.746,7.006,135.51,2.88c18.994-2.725,34.608,3.845,52.631,4.873
	c17.515,0.999,32.225-3.42,49.214-5.313c38.227-4.259,81.436-2.614,115.349,16.317c60.092,33.545,59.467,100.463,60.09,162.29
	c0.336,33.348-23.271,67.182-34.788,98.586c-6.562,17.892-11.357,30.278-30.256,40.096c-15.981,8.302-34.329,15.568-50.836,23.066
	c-32.408,14.722-68.864,26.149-104.958,13.651c-34.778-12.044-84.05-14.227-113.151-39.486
	c-24.751-21.484-31.29-59.919-43.816-88.244c-12.106-27.375-18.591-59-34.566-84.12"/>
<g opacity="0.1">
	<g>
		<path fill="#D51F26" d="M75.901,176.214c9.765-7.845,21.108-13.659,33.723-14.749c10.982-0.949,21.858,1.35,32.519,3.69
			c12.323,2.706,24.761,5.7,37.407,6.335c15.383,0.772,30.69,2.588,46.028,3.924c14.834,1.292,29.709,1.925,44.572,0.762
			c10.702-0.837,21.31-2.675,31.961-3.963c7.963-0.962,17.787-2.277,25.324,1.224c6.604,3.068,10.284,12.071,8.712,19.04
			c-1.616,7.169-9.985,11.427-16.296,13.933c-9.093,3.611-18.767,5.29-28.347,7.02c-29.402,5.31-59.74,5.746-89.503,4.176
			c-17.975-0.948-35.342-3.629-52.918-7.46c-17.979-3.92-36.384-8.637-52.877-16.985c-4.771-2.415-9.291-5.17-12.908-8.478
			c-3.375-3.087-4.719-5.164-5.469-8.748c-1.149,2.823-2.298,5.646-3.446,8.47c17.433-8.334,37.962-4.048,56.103-9.77
			c8.445-2.663,6.243-13.896-1.994-14.732c-18.253-1.852-38.393,3.425-46.827,21.258c-4.109,8.688,8.796,16.308,12.952,7.57
			c1.915-4.025,3.35-8.257,5.264-12.28c2.254-4.739-0.342-11.676-6.476-11.285c-7.619,0.485-17.178,1.449-18.399,10.677
			c-0.828,6.253,6.351,10.542,10.958,12.979c15.434,8.163,32.046,12.245,49.084,15.24c26.943,4.736,54.181,8.197,81.582,8.138
			c25.37-0.055,51.483-4.059,73.543-17.269c4.846-2.901,4.869-10.056,0-12.952c-18.615-11.072-43.249-10.319-64.164-10.75
			c-11.178-0.23-22.385-0.297-33.518-1.433c-4.897-0.5-9.721-1.645-14.592-2.364c-13.527-1.997-27.212-3.29-40.891-3.403
			c-11.566-0.096-26.623-0.231-36.012,7.635c-11.741,9.837-0.058,24.056,8.215,31.206c9.676,8.362,21.322,12.707,33.615,15.786
			c33.862,8.482,70.569,9.027,105.158,5.785c18.524-1.736,37.357-4.681,54.854-11.216c12.281-4.587,26.619-11.737,32.13-24.494
			c1.635-3.783,1.131-7.973-2.69-10.261c-12.652-7.578-30.354-8.094-44.648-8.037c-13.497,0.055-32.073,0.794-41.052,12.482
			c-2.462,3.204-0.547,8.453,2.69,10.261c12.39,6.918,25.536,2.632,38.106-1.345c5.942-1.881,11.814-3.542,18.098-3.061
			c2.47,0.189,4.958,1.495,7.146,2.581c0.915,0.453,1.787,0.981,2.638,1.546c-1.508-1,0.929,1.624-0.55-0.617
			c-1.083-1.642-0.743-3.833,0.073-5.501c0.276-0.564,1.595-1.56,0.991-1.193c-1.742,1.057,0.704-0.181-0.656,0.311
			c-0.823,0.297-1.673,0.52-2.519,0.742c-4.503,1.187-7.818,1.493-12.284,1.93c-8.113,0.793-16.3,1.145-24.451,1.158
			c0.665,4.911,1.329,9.821,1.994,14.732c8.677-1.974,17.185-4.579,25.994-5.953c6.195-0.967,15.757-1.58,19.922,4.26
			c1.493-3.672,2.987-7.345,4.481-11.018c-32.657,9.186-67.583,10.662-101.324,10.846c-17.335,0.095-34.953-0.015-52.225-1.491
			c-18.243-1.561-36.285-6.436-51.198-17.37c-0.597,4.57-1.194,9.139-1.792,13.708c21.292-7.171,44.495-4.657,66.276-1.284
			c23.384,3.622,46.621,9.221,70.327,10.323c8.441,0.393,10.257-12.906,1.994-14.732c-27.404-6.054-55.096-10.604-82.941-14.077
			c-12.647-1.577-25.043-2.562-37.786-2.565c-11.372-0.002-23.003,0.077-33.66-4.41c0,4.821,0,9.643,0,14.464
			c13.847-2.907,28.771-1.684,41.59,4.507c8.668,4.188,16.279-8.746,7.57-12.952c-16.641-8.037-35.12-9.804-53.147-6.02
			c-8.114,1.703-6.104,11.894,0,14.464c10.757,4.529,22.843,4.85,34.352,4.937c12.565,0.096,24.748,0.627,37.24,2.107
			c27.803,3.295,55.456,7.969,82.794,14.009c0.665-4.911,1.329-9.821,1.994-14.732c-23.445-1.091-46.441-6.782-69.585-10.284
			c-23.356-3.535-48.192-5.902-71.005,1.781c-6.511,2.192-7.041,9.86-1.792,13.708c15.756,11.553,34.597,16.539,53.726,18.895
			c17.83,2.195,36.265,1.993,54.218,2.021c35.976,0.055,73.55-1.596,108.362-11.387c4.343-1.222,7.351-6.996,4.481-11.018
			c-14.721-20.643-42.837-9.754-62.855-5.201c-8.372,1.904-6.363,14.746,1.994,14.732c9.388-0.016,18.815-0.482,28.144-1.549
			c7.138-0.815,23.379-1.781,24.746-11.462c1.963-13.902-19.402-18.771-29.476-17.892c-8.102,0.707-15.731,3.574-23.449,5.92
			c-6.126,1.863-13.037,3.802-18.987,0.48c0.897,3.42,1.794,6.841,2.69,10.261c-1.496,1.948,1.597-1.016-0.093,0.218
			c0.957-0.698,2.035-1.225,3.102-1.729c0.959-0.452,5.207-1.567,7.449-2.031c6.538-1.354,13.33-1.537,19.985-1.511
			c6.874,0.027,13.787,0.521,20.565,1.681c2.843,0.487,5.656,1.135,8.429,1.93c1.31,0.376,2.594,0.832,3.864,1.324
			c-1.051-0.407,1.478,0.815,1.877,1.054c-0.897-3.42-1.794-6.84-2.69-10.261c-0.437,1.01-0.932,1.977-1.49,2.925
			c-0.286,0.483-0.604,0.946-0.923,1.409c-1.092,1.588,1.011-1.207-0.234,0.307c-0.765,0.93-1.614,1.786-2.479,2.621
			c-1.196,1.154-2.342,2.035-2.438,2.106c-4.909,3.647-10.732,6.372-15.601,8.232c-14.837,5.669-30.825,8.496-46.556,10.239
			c-34.123,3.781-70.275,3.435-103.801-4.401c-3.235-0.757-6.441-1.634-9.615-2.613c-1.462-0.451-2.911-0.945-4.353-1.459
			c-1.595-0.567-3.29-1.259-3.489-1.346c-2.31-1.004-4.549-2.166-6.697-3.48c-0.483-0.295-3.289-2.311-1.648-1.036
			c-1.53-1.188-2.99-2.485-4.439-3.771c-2.35-2.083-4.937-4.856-5.914-6.293c-0.339-0.498-0.634-1.022-0.926-1.548
			c-0.911-1.641,0.507,1.493-0.096-0.132c-0.87-2.343-0.356,0.838-0.204-1.393c-0.15,2.196-0.155,1.195,0.07,0.52
			c-0.669,2.005-0.44,1.046-0.064,0.457c-1.122,1.755-0.621,0.793-0.148,0.317c1.075-1.083-1.483,1.022-0.182,0.1
			c0.788-0.558,1.666-0.983,2.542-1.382c-1.862,0.847,1.783-0.5,2.488-0.688c1.247-0.334,2.516-0.581,3.785-0.81
			c0.682-0.124,1.367-0.223,2.052-0.324c-1.652,0.243,0.755-0.07,0.887-0.084c3.407-0.37,6.837-0.512,10.262-0.583
			c7.133-0.147,14.276,0.198,21.388,0.726c3.274,0.243,6.542,0.551,9.807,0.894c1.513,0.159,3.024,0.333,4.534,0.513
			c0.714,0.085,1.429,0.175,2.143,0.265c0.459,0.059,0.918,0.118,1.377,0.178c-0.878-0.119-0.882-0.119-0.013,0
			c4.645,0.64,9.221,1.607,13.85,2.319c17.027,2.619,34.426,2.009,51.593,2.577c14.748,0.487,32.047,0.631,45.119,8.405
			c0-4.317,0-8.634,0-12.952c-17.972,10.761-38.688,14.345-59.364,15.097c-22.372,0.813-45.069-1.283-67.166-4.652
			c-11.619-1.772-24.163-2.935-35.44-6.253c-5.431-1.598-10.786-3.477-16.078-5.482c-5.102-1.933-10.238-4.039-14.857-7.051
			c-0.72-0.514-0.701-0.48,0.059,0.1c-0.395-0.311-0.746-0.665-1.091-1.029c2.263,2.386,1.366,6.492-1.281,8.319
			c0.661-0.349,0.543-0.313-0.352,0.109c0.671-0.249,1.386-0.387,2.083-0.537c1.311-0.283,2.794-0.339,4.29-0.435
			c-2.159-3.762-4.317-7.523-6.476-11.285c-1.915,4.026-3.35,8.257-5.264,12.28c4.317,2.523,8.635,5.047,12.952,7.57
			c6.272-13.262,20.61-15.174,33.875-13.829c-0.665-4.911-1.329-9.821-1.994-14.732c-8.991,2.835-18.523,3-27.843,3.814
			c-11.022,0.963-21.785,2.659-31.843,7.467c-3.131,1.497-4.095,5.368-3.446,8.47c3.195,15.283,19.846,24.107,32.878,29.745
			c17.653,7.637,36.422,12.429,55.218,16.29c48.112,9.884,99.167,10.345,147.446,1.31c17.486-3.272,39.513-7.793,49.193-24.557
			c5.393-9.338,3.374-20.204-0.712-29.571c-3.828-8.776-12.794-14.081-21.862-15.822c-9.97-1.916-20.122-0.575-30.067,0.763
			c-11.409,1.534-22.804,3.174-34.321,3.625c-14.856,0.582-29.73-0.707-44.507-2.105c-14.841-1.404-29.982-1.811-44.734-3.823
			c-17.819-2.431-35.028-8.308-53.051-9.394c-20.193-1.218-38.076,6.793-53.552,19.227c-3.192,2.564-2.655,7.952,0,10.606
			C68.418,179.338,72.717,178.772,75.901,176.214L75.901,176.214z"/>
	</g>
</g>
<path fill="none" stroke="#0B0B0B" stroke-miterlimit="10" d="M89.896,70.911c-2.036-7.788-9.67-12.164-10.526-21.053"/>
<path fill="none" stroke="#0B0B0B" stroke-miterlimit="10" d="M142.527,62.139c-1.48-6.478-3.35-12.451-3.509-19.298"/>
<path fill="none" stroke="#0B0B0B" stroke-miterlimit="10" d="M172.352,58.63c6.024-3.419,9.778-9,10.526-15.79"/>
<path fill="none" stroke="#0B0B0B" stroke-miterlimit="10" d="M224.984,56.875c9.802-4.693,17.311-13.444,24.561-21.053"/>
<path fill="none" stroke="#0B0B0B" stroke-miterlimit="10" d="M282.878,62.139c4.807-5.102,8.821-11.613,14.035-15.79"/>
<path fill="none" stroke="#0B0B0B" stroke-miterlimit="10" d="M333.755,77.928c8.018-2.619,16.313-5.995,24.562-8.772"/>
<path fill="none" stroke="#0B0B0B" stroke-miterlimit="10" d="M153.054,283.191c-9.103-2.066-14.227,3.221-14.035,12.28"/>
<path fill="none" stroke="#0B0B0B" stroke-miterlimit="10" d="M186.387,286.7c4.161,8.402,5.94,18.481,5.263,28.07"/>
<path fill="none" stroke="#0B0B0B" stroke-miterlimit="10" d="M219.72,288.454c6.892,1.772,10.979,9.561,14.035,14.035"/>
<g opacity="0.1">
	<g>
		<path d="M34.133,114.512c-2.299,16.027-5.883,34.191,0.439,49.728c5.966,14.663,19.177,24.61,26.955,38.158
			c2.763,4.813,11.14,1.565,9.139-3.853c-2.943-7.968-8.004-14.917-11.136-22.793c-1.278-3.214-2.369-6.746-1.374-10.166
			c1.181-4.055,7.276-5.426,10.698-6.269c5.873-1.446,3.946-9.236-1.329-9.821c-5.614-0.623-11.118-2.002-16.754-0.792
			c-7.072,1.519-8.387,8.604-7.395,14.684c3.046-1.284,6.092-2.568,9.139-3.853c-3.479-5.521-5.301-11.707-6.219-18.133
			c-2.786,1.622-5.571,3.243-8.357,4.865c1.579,1.811,2.192,3.963,2.916,6.197c1.164-2.05,2.328-4.1,3.492-6.15
			c-24.624,7.96,3.705,44.779,11.297,56.084c3.575,5.322,12.242,0.323,8.635-5.047c-3.467-5.162-27.387-38.125-17.274-41.395
			c2.501-0.809,4.36-3.473,3.492-6.15c-1.286-3.97-2.718-7.433-5.487-10.61c-3.68-4.221-8.986,0.462-8.357,4.865
			c1.03,7.22,3.324,14.328,7.227,20.522c3.176,5.04,10.027,1.594,9.139-3.853c-0.496-3.038,0.776-2.618,3.542-2.558
			c3.67,0.08,7.323,0.919,10.964,1.324c-0.443-3.274-0.886-6.548-1.329-9.821c-11.957,2.945-20.152,10.417-17.92,23.332
			c1.782,10.307,9.196,18.582,12.747,28.196c3.046-1.284,6.092-2.568,9.139-3.853c-7.127-12.415-18.517-21.749-25.246-34.404
			c-7.131-13.411-3.184-31.534-1.141-45.777C44.68,110.865,35.045,108.149,34.133,114.512L34.133,114.512z"/>
	</g>
</g>
<g opacity="0.1">
	<g>
		<path d="M27.855,121.549c-24.208,30.016,7.141,71.646,30.252,91.944c4.824,4.237,11.925-2.808,7.071-7.07
			c-11.464-10.069-21.305-22.162-28.566-35.589c-6.876-12.716-11.721-29.772-1.686-42.214
			C38.935,123.651,31.905,116.528,27.855,121.549L27.855,121.549z"/>
	</g>
</g>
<g opacity="0.1">
	<g>
		<path d="M54.962,174.664c-4.579,38.126,35.46,53.722,65.944,60.088c15.753,3.29,31.76,4.752,47.735,6.467
			c30.412,3.264,61.245,6.293,91.442-0.345c12.761-2.806,25.027-7.533,37.342-11.809c10.573-3.67,21.564-5.952,32.046-9.92
			c10.267-3.886,20.429-9.562,26.274-19.184c5.583-9.191,6.273-20.853,2.209-30.724c-10.534-25.587-42.772-26.146-66.322-25.874
			c-30.69,0.355-60.966,6.872-91.715,6.138c-23.307-0.557-46.398-5.549-69.556-7.901c-22.938-2.331-46.132-1.905-68.368,4.713
			c-6.166,1.835-3.538,11.487,2.658,9.643c30.993-9.224,62.896-5.096,94.336-0.771c15.44,2.124,30.883,4.31,46.497,4.399
			c15.351,0.088,30.667-1.61,45.912-3.215c15.213-1.602,30.438-3.104,45.752-3.022c13.377,0.072,29.958,0.225,41.615,7.582
			c8.765,5.533,13.357,16.358,11.303,26.451c-2.387,11.722-12.926,18.053-23.253,22.123c-10.419,4.107-21.469,6.291-32.046,9.92
			c-12.361,4.241-24.584,8.864-37.342,11.809c-30.042,6.932-61.211,2.724-91.453-0.294c-15.633-1.56-31.225-3.293-46.578-6.73
			c-15.784-3.534-32.851-8.763-44.777-20.241c-8.171-7.863-10.987-18.219-9.656-29.302C65.73,168.27,55.722,168.344,54.962,174.664
			L54.962,174.664z"/>
	</g>
</g>
<g opacity="0.1">
	<g>
		<path d="M84.821,150.914c5.499-1.483,9.689-4.786,13.884-8.499c3.703-3.279,8.691-7.93,13.925-8.169
			c5.582-0.255,11.213,1.157,16.854,0.992c7.111-0.208,14.112-1.683,21.235-1.792c12.537-0.193,24.823,1.909,37.334,2.154
			c13.106,0.257,25.07-3.528,35.109-12.022c-2.617-0.337-5.235-0.675-7.853-1.012c17.072,27.315,61.167,22.125,75.861-5.042
			c-2.878,0-5.757,0-8.635,0c5.621,8.497,16.28,12.813,25.782,15.218c10.128,2.563,22.431,3.057,30.81-4.122
			c-2.785-0.735-5.571-1.471-8.356-2.207c8.321,20.488,42.786,18.751,49.139-2.521c-2.05,1.164-4.101,2.328-6.15,3.492
			c12.753,2.525,15.742,16.27,13.314,27.463c-1.142,5.26,6.706,9.264,9.139,3.853c8.277-18.409-16.203-27.922-29.879-31.714
			c-5.132-1.423-7.942,4.689-4.864,8.357c8.104,9.657,12.544,18.61,8.798,31.27c-1.656,5.597,6.144,8.526,9.139,3.853
			c9.371-14.624,10.12-37.78-7.677-46.336c-3.907-1.879-8.448,1.166-7.345,5.646c3.704,15.048,17.893,26.478,18.31,42.368
			c3.333,0,6.667,0,10,0c-0.313-10.286,1.532-20.832-0.573-30.999c-2.317-11.194-12.281-16.957-22.426-20.041
			c-5.819-1.769-8.124,5.956-3.853,9.139c9.109,6.787,18.877,13.191,22.072,24.743c1.48,5.352,10.111,4.404,9.821-1.329
			c-1.298-25.682-18.187-47.417-39.452-60.62c-1.683,2.878-3.364,5.756-5.047,8.635c14.897,8.498,35.798,14.153,44.479,30.228
			c3.884,7.193,1.629,16.568-0.211,24.018c-1.789,7.244-4.713,18.526-11.494,22.833c2.448,0.996,4.896,1.992,7.345,2.988
			c-4.417-14.193-1.696-29.753-8.907-43.211c-1.902-3.55-8.486-3.173-9.139,1.194c-1.618,10.819-0.319,21.251,1.412,31.969
			c1.752,10.848,3.178,21.55-0.223,32.233c-3.301,10.372-11.786,18.917-19.832,25.828c-8.249,7.086-17.859,12.717-27.799,17.065
			c-5.896,2.579-0.801,11.193,5.047,8.635c20.181-8.828,41.075-23.925,50.481-44.462c10.333-22.561-2.902-45.481,0.556-68.61
			c-3.046,0.398-6.093,0.796-9.139,1.194c6.629,12.372,3.799,27.646,7.899,40.822c0.928,2.981,4.532,4.774,7.345,2.988
			c8.384-5.325,12.294-16.071,15.068-25.115c2.875-9.371,5.15-20.433,2.42-30.084c-6.127-21.662-32.938-29.268-50.262-39.149
			c-5.621-3.207-10.513,5.241-5.047,8.635c18.133,11.258,33.386,29.951,34.499,51.985c3.273-0.443,6.548-0.886,9.821-1.329
			c-3.957-14.31-15.354-22.29-26.668-30.719c-1.284,3.046-2.568,6.093-3.853,9.139c8.111,2.466,14.273,6.101,15.781,14.85
			c1.477,8.566-0.387,17.886-0.124,26.547c0.195,6.432,10.169,6.455,10,0c-0.461-17.581-14.671-28.792-18.667-45.026
			c-2.448,1.882-4.896,3.764-7.345,5.646c12.869,6.187,10.63,22.447,4.089,32.655c3.046,1.284,6.093,2.568,9.139,3.853
			c2.22-7.501,2.768-15.103,0.315-22.616c-2.277-6.977-7.039-12.846-11.686-18.383c-1.621,2.786-3.243,5.571-4.864,8.357
			c5.696,1.58,28.015,7.877,23.902,17.025c3.046,1.284,6.093,2.568,9.139,3.853c3.521-16.229-1.95-36.131-20.299-39.764
			c-2.718-0.538-5.328,0.738-6.15,3.492c-3.312,11.088-25.17,14.053-29.854,2.521c-1.456-3.585-5.296-4.829-8.356-2.207
			c-5.389,4.617-14.846,2.991-21.081,1.55c-6.671-1.542-15.81-4.583-19.806-10.622c-1.984-3-6.758-3.471-8.635,0
			c-11.003,20.342-45.391,26.163-58.592,5.042c-1.81-2.895-5.363-3.118-7.853-1.012c-10.269,8.688-22.661,9.677-35.557,8.73
			c-12.189-0.895-23.99-2.516-36.245-1.449c-6.779,0.59-13.409,1.645-20.24,1.453c-4.812-0.135-9.703-1.615-14.505-0.674
			c-4.948,0.97-9.618,3.986-13.515,7.064c-4.433,3.501-8.239,8.122-13.867,9.64C75.943,142.949,78.585,152.597,84.821,150.914
			L84.821,150.914z"/>
	</g>
</g>
<g opacity="0.1">
	<g>
		<path d="M21.349,169.622c-0.455,22.479,11.381,45.093,26.946,60.72c6.881,6.908,17.514,15.604,27.83,14.906
			c2.389-0.161,4.289-0.999,6.29,0.008c2.106,1.06,3.262,4.303,4.601,6.121c3.348,4.549,8.979,8.297,14.697,8.811
			c4.23,0.38,7.978-1.131,11.704-2.957c3.92-1.921,8.48-4.291,12.736-1.934c3.404,1.885,5.637,6.052,8.545,8.607
			c4.319,3.795,9.623,5.46,15.247,4.221c2.911-0.643,5.588-2.392,8.41-3.328c2.359-0.783,4.775,1.054,6.682,2.213
			c5.173,3.143,10.198,5.41,16.386,4.937c6.387-0.487,12.604-2.452,18.884-3.605c6.078-1.116,11.141,0.674,17.048,1.115
			c4.071,0.305,8.383-1.398,11.488-3.912c4.662-3.772,6.932-6.646,13.393-6.673c6.267-0.025,12.458,1.971,18.646,2.752
			c6.15,0.777,12.114,0.215,18.215-0.732c5.509-0.856,10.908-2.303,16.411-3.198c6.018-0.979,11.885-0.15,17.88,0.445
			c8.831,0.879,18.087,0.281,26.47-2.778c30.362-11.084,32.777-50.271,43.414-76.005c2.464-5.96-7.216-8.53-9.643-2.658
			c-6.762,16.359-9.673,34.254-17.587,50.132c-3.419,6.86-8.07,12.916-14.723,16.876c-8.335,4.962-18.543,5.214-27.932,4.434
			c-6.506-0.54-12.528-1.225-19.056-0.299c-6.559,0.931-12.97,2.644-19.515,3.66c-7.226,1.122-13.982,0.141-21.088-1.193
			c-6.7-1.259-14.162-2.502-20.767-0.172c-4.965,1.751-7.512,6.891-12.145,8.785c-1.822,0.745-3.61,0.579-5.434,0.124
			c-3.245-0.81-6.549-1.232-9.892-1.226c-6.465,0.011-12.921,1.952-19.191,3.299c-3.097,0.665-6.323,1.336-9.454,0.632
			c-2.836-0.638-5.331-2.502-7.773-3.986c-3.198-1.942-6.817-3.405-10.601-3.106c-4.654,0.368-9.436,4.955-13.999,3.661
			c-2.98-0.845-5.153-3.815-7.076-6.041c-2.297-2.658-4.808-5.099-8.06-6.536c-7.169-3.171-14.427-0.411-20.97,2.856
			c-2.496,1.247-4.663,2.063-7.426,1.27c-4.954-1.423-6.582-6.33-9.56-9.854c-2.243-2.654-5.844-5.216-9.471-5.271
			c-4.276-0.064-7.552,1.181-11.614-0.703c-7.745-3.592-14.139-9.489-19.675-15.875c-11.28-13.01-19.627-31.102-19.274-48.54
			C31.48,163.17,21.479,163.183,21.349,169.622L21.349,169.622z"/>
	</g>
</g>
<g opacity="0.1">
	<g>
		<path d="M44.834,206.713c10.844,4.674,19.665,12.617,29.644,18.757c10.601,6.522,22.669,8.899,34.73,11.106
			c28.123,5.146,56.223,10.222,84.664,13.38c27.116,3.012,54.347,3.018,81.329-1.229c27.82-4.38,55.106-12.833,81.89-21.342
			c6.122-1.944,3.505-11.601-2.658-9.643c-25.706,8.166-51.732,15.99-78.32,20.741c-25.838,4.617-52.361,4.51-78.408,1.879
			c-27.604-2.787-55.314-7.162-82.477-12.784c-12.423-2.572-24.572-4.198-35.701-10.743c-10.128-5.955-18.755-14.064-29.644-18.757
			C44.025,195.555,38.926,204.167,44.834,206.713L44.834,206.713z"/>
	</g>
</g>
<g opacity="0.1">
	<g>
		<path d="M289.376,240.326c20.263-10.271,44.638-10.779,62.007-26.767c15.101-13.898,20.861-39.404,9.106-57.003
			c-15.9-23.805-49.667-19.708-73.958-16.729c-31.982,3.922-64.397,2.254-96.444,0.028c-38.138-2.649-76.058-7.48-114.159-10.526
			c-6.433-0.514-6.383,9.49,0,10c64.589,5.164,129.466,15.983,194.438,12.033c25.044-1.522,61.619-13.173,80.82,9.338
			c6.534,7.659,6.619,18.781,3.973,27.942c-3.17,10.975-10.842,19.362-20.71,24.762c-15.664,8.571-34.173,10.205-50.12,18.288
			C278.577,234.607,283.639,243.234,289.376,240.326L289.376,240.326z"/>
	</g>
</g>
<g opacity="0.1">
	<g>
		<path d="M116.753,145.032c20.664-4.958,41.821-6.817,63.027-7.291c21.507-0.481,43.501-0.038,64.891,2.382
			c11.219,1.269,22.285,3.5,33.573,4.192c11.237,0.689,22.703-0.702,33.92-1.397c22.637-1.403,45.277-2.713,67.966-2.75
			c6.448-0.01,6.449-10.01,0-10c-22.688,0.036-45.329,1.347-67.966,2.75c-11.26,0.697-22.637,1.902-33.92,1.397
			c-11.266-0.504-22.397-2.819-33.573-4.192c-21.34-2.621-43.421-2.776-64.891-2.382c-22.05,0.404-44.21,2.496-65.685,7.648
			C107.826,136.893,110.485,146.536,116.753,145.032L116.753,145.032z"/>
	</g>
</g>
<g opacity="0.1">
	<g>
		<path d="M50.053,105.091c5.21-6.715,13.586-9.645,21.533-11.74c8.481-2.235,17.431-3.202,26.192-2.762
			c2.255,0.113,4.189-1.618,4.821-3.671c2.858-9.274-2.009-15.693-11.721-14.106c-7.513,1.228-14.909,6.279-21.32,8.796
			c1.622,2.786,3.243,5.571,4.865,8.357c6.24-5.171,14.077-7.402,21.845-9.124c8.085-1.792,16.309-3.448,24.439-4.988
			c8.01-1.517,16.723,0.237,24.794,0.441c3.319,0.084,6.69-0.174,9.909-1.01c2.933-0.762,3.568-3.866,4.693-6.252
			c0.738-1.565,0.493-1.812,1.793-2.164c1.664-0.45,3.695-0.213,5.417-0.404c4.44-0.491,8.839-1.247,13.3-1.632
			c6.158-0.533,12.263-1.142,18.423-1.722c6.595-0.621,25.504-3.079,27.535,6.161c1.385,6.302,10.997,3.626,9.643-2.658
			c-1.974-9.157,26.102-5.505,30.909-5.037c9.745,0.947,33.635-2.079,34.06,12.249c0.104,3.511,3.094,5.334,6.329,4.821
			c6.005-0.953,12.166-1.105,18.232-0.954c5.455,0.137,13.59,0.205,18.079,3.87c1.178-2.845,2.356-5.69,3.535-8.536
			c-23.52-1.92-46.094-9.883-69.747-10.924c0,3.333,0,6.667,0,10c9.592-0.825,18.977-0.545,28.368,1.658
			c8.904,2.088,17.445,5.607,26.062,8.617c17.291,6.04,37.58,10.101,47.976,26.745c3.407,5.455,12.062,0.439,8.635-5.047
			c-10.996-17.605-30.471-23.644-49.188-29.729c-9.863-3.208-19.458-7.231-29.494-9.896c-10.573-2.807-21.5-3.282-32.358-2.348
			c-6.365,0.547-6.513,9.713,0,10c23.616,1.04,46.225,9.004,69.747,10.924c4.187,0.342,6.856-5.825,3.535-8.536
			c-5.983-4.884-13.735-5.977-21.218-6.593c-8.239-0.679-16.666-0.188-24.822,1.106c2.109,1.607,4.22,3.214,6.329,4.821
			c-0.684-23.089-27.673-20.633-44.06-22.249c-12.933-1.275-45.283-4.253-40.552,17.695c3.214-0.886,6.429-1.772,9.643-2.658
			c-3.556-16.187-26.883-14.554-39.225-13.303c-3.33,0.338-6.649,0.807-9.958,1.306c-6.551,0.986-13.441,0.262-19.992,1.782
			c-4.021,0.933-9.715-0.31-12.767,3.332c-2.323,2.772-3.73,6.047-5.011,9.404c1.164-1.164,2.328-2.328,3.492-3.492
			c-6.665,1.731-14.235,0.255-21.015-0.075c-7.707-0.375-14.559,0.981-22.031,2.544c-14.942,3.125-30.166,4.682-42.354,14.783
			c-3.771,3.125,0.257,10.166,4.865,8.357c5.041-1.979,9.746-4.711,14.762-6.75c2.287-0.93,4.822-1.961,7.311-2.104
			c1.185-0.068-0.257-0.094-0.637-1.201c0.201,0.585-0.461,2.306-0.695,3.064c1.607-1.224,3.214-2.447,4.821-3.671
			c-9.658-0.484-19.484,0.803-28.85,3.12c-9.401,2.325-19.83,6.431-25.946,14.311C39.08,103.047,46.103,110.18,50.053,105.091
			L50.053,105.091z"/>
	</g>
</g>
<g opacity="0.1">
	<g>
		<path d="M40.519,231.81c7.293,16.728,22.868,27.831,38.894,35.41c18.537,8.767,38.742,13.667,58.824,17.357
			c18.721,3.441,37.923,6.316,56.908,7.819c30.201,2.39,60.527-5.396,88.429-16.337c8.798-3.45,17.437-7.31,25.971-11.363
			c5.823-2.766,0.745-11.386-5.047-8.635c-27.579,13.1-56.844,23.892-87.504,26.294c-21.361,1.674-43.235-2.141-64.326-5.43
			c-20.189-3.147-40.377-7.389-59.52-14.66c-16.509-6.271-33.577-15.854-42.267-31.868c-0.64-1.181-1.191-2.405-1.727-3.635
			C46.582,220.864,37.969,225.96,40.519,231.81L40.519,231.81z"/>
	</g>
</g>
<g opacity="0.1">
	<g>
		<path d="M139.306,290.41c41.702,11.565,84.035,1.231,125.347-6.723c6.328-1.219,3.642-10.855-2.658-9.643
			c-39.506,7.606-80.139,17.786-120.031,6.723C135.739,279.041,133.1,288.689,139.306,290.41L139.306,290.41z"/>
	</g>
</g>
<g opacity="0.1">
	<g>
		<path d="M23.03,206.597c1.249,49.955,39.855,94.687,79.736,120.827c22.865,14.986,49.557,21.445,76.26,25.679
			c28.553,4.525,58.369,8.873,87.137,4.181c21.568-3.519,42.76-13.686,60.474-26.31c16.73-11.923,30.459-27.479,40.216-45.555
			c12.185-22.572,16.83-48.186,20.585-73.29c4.232-28.296,6.679-56.855,12.641-84.875c1.338-6.29-8.301-8.964-9.643-2.658
			c-6.479,30.447-8.893,61.534-13.776,92.239c-4.225,26.557-10.333,52.617-25.484,75.226
			c-12.531,18.699-30.566,32.769-50.495,42.862c-11.806,5.979-24.131,10.399-37.175,12.717c-14.935,2.653-30.345,1.918-45.354,0.38
			c-23.169-2.374-46.411-5.271-68.958-11.271c-20.333-5.409-38.257-14.544-54.759-27.561C63.58,284.85,34.054,247.558,33.03,206.597
			C32.869,200.16,22.869,200.145,23.03,206.597L23.03,206.597z"/>
	</g>
</g>
<g opacity="0.1">
	<g>
		<path d="M348.686,318.981c27.119-10.918,43.364-38.38,53.381-64.503c6.129-15.985,13.455-32.018,17.203-48.768
			c4.417-19.738,1.076-39.752,3.676-59.618c0.835-6.38-9.176-6.3-10,0c-2.405,18.38,0.393,36.864-2.958,55.188
			c-2.981,16.309-10.8,31.234-16.192,46.783c-8.196,23.631-23.31,51.427-47.768,61.274
			C340.125,311.716,342.7,321.392,348.686,318.981L348.686,318.981z"/>
	</g>
</g>
<g opacity="0.1">
	<g>
		<path d="M401.181,147.773c-0.002,19.764-0.439,38.998-7.062,57.831c-6.23,17.719-14.979,34.211-17.309,53.094
			c-0.753,6.107,7.875,6.026,9.821,1.329c10.867-26.229,16.693-54.062,23.529-81.513c1.559-6.259-8.085-8.913-9.643-2.658
			c-6.836,27.452-12.662,55.285-23.529,81.513c3.273,0.443,6.548,0.886,9.821,1.329c2.327-18.872,12.026-35.855,18.06-53.645
			c6.249-18.428,6.309-38.039,6.311-57.28C411.182,141.325,401.182,141.325,401.181,147.773L401.181,147.773z"/>
	</g>
</g>
<g opacity="0.1">
	<g>
		<path d="M24.002,113.494c8.395-10.021,14.1-21.591,19.772-33.279c5.344-11.011,10.84-24.01,21.153-31.27
			c10.309-7.256,23.336-11.181,34.679-16.578c11.527-5.485,23.472-9.908,36.09-12.05c13.902-2.359,27.515,0.037,41.43,0.288
			c14.206,0.255,28.32-2.293,42.348-4.177c14.411-1.935,28.528-2.559,43-0.987c12.466,1.354,25.018,1.809,37.513,2.817
			c21.418,1.728,43.791,5.033,61.653,17.867c7.976,5.73,12.522,15.608,17.31,23.867c4.868,8.399,10.487,16.265,18.824,21.511
			c5.476,3.445,10.489-5.21,5.047-8.635c-9.563-6.017-14.445-16.714-19.977-26.133c-5.978-10.179-13.188-18.068-23.495-23.949
			c-21.908-12.498-48.645-13.909-73.218-15.521c-12.908-0.847-25.876-2.688-38.8-2.911c-14.324-0.247-28.567,2.177-42.71,4.127
			c-14.634,2.018-28.61,2.196-43.306,1.029c-12.87-1.022-25.821,0.087-38.318,3.31c-12.034,3.103-23.467,8.41-34.574,13.886
			c-10.701,5.276-22.537,8.47-31.936,16.123c-9.239,7.521-14.806,19.039-19.974,29.523c-5.784,11.734-11.111,23.959-19.583,34.071
			C12.82,111.33,19.856,118.443,24.002,113.494L24.002,113.494z"/>
	</g>
</g>
<g opacity="0.1">
	<g>
		<path d="M34.927,108.452c15.631-19.788,38.045-33.332,61.088-42.873c25.962-10.75,53.489-16.083,81.583-15.758
			c32.458,0.375,64.381,7.795,95.789,15.321c19.544,4.684,38.771,10.627,57.263,18.55c14.747,6.319,29.076,13.897,41.977,23.481
			c11.188,8.313,21.738,19.215,26.212,32.685c2.022,6.089,11.682,3.479,9.643-2.658c-6.189-18.636-21.135-32.288-36.969-43.034
			c-17.931-12.168-38.261-20.858-58.637-28.008c-22.383-7.854-45.659-13.083-68.841-17.95c-31.31-6.573-63.465-10.698-95.412-6.896
			c-23.036,2.742-45.439,9.736-66.432,19.509c-20.46,9.526-40.236,22.71-54.335,40.559
			C23.905,106.382,30.931,113.511,34.927,108.452L34.927,108.452z"/>
	</g>
</g>
<g opacity="0.1">
	<g>
		<path d="M180.482,166.88c15.973,4.649,31.919,5.136,48.388,3.54c-1.179-2.845-2.357-5.69-3.535-8.536
			c-8.364,9.874-23.396,4.435-33.791,1.235c-5.372-1.654-8.964,6.595-3.853,9.139c10.322,5.136,23.084,11.849,34.945,8.907
			c6.294-1.561,3.609-10.955-2.658-9.643c-12.371,2.59-24.987,7.77-37.678,4.202c-5.538-1.557-8.663,6.205-3.853,9.139
			c10.321,6.295,22.452,9.017,34.457,7.405c5.021-0.674,6.71-6.204,2.523-9.317c-8.319-6.187-18.359-9.266-27.731-13.446
			c-1.284,3.046-2.568,6.092-3.853,9.139c12.209,5.123,25.049,8.37,37.815,11.765c0.443-3.273,0.886-6.547,1.329-9.821
			c-15.685-2.038-33.878-7.201-48.742,0.683c-4.04,2.143-2.693,7.84,1.194,9.139c8.264,2.762,16.982,1.774,25.347,0
			c4.732-1.004,4.846-8.722,0-9.643c-10.413-1.979-21.935-2.875-32.07,0.84c-4.607,1.688-4.906,8.068,0,9.643
			c20.582,6.604,42.302,5.219,63.514,7.742c0-3.333,0-6.667,0-10c-13.498,0.648-26.837-2.33-40.336-1.681
			c-5.791,0.278-6.612,7.908-1.329,9.821c0.337,0.455,0.722,0.866,1.155,1.234c1.622-2.785,3.243-5.571,4.865-8.356
			c-4.534-0.992-8.055,0.057-10.688,3.979c-3.607,5.37,5.06,10.369,8.635,5.047c-0.202,0.206-0.403,0.411-0.604,0.617
			c4.743,1.038,8.585-4.701,4.865-8.356c-1.695-1.666-3.319-2.992-5.568-3.807c-0.443,3.273-0.886,6.548-1.329,9.821
			c13.499-0.649,26.838,2.329,40.336,1.681c6.585-0.316,6.276-9.253,0-10c-20.337-2.419-41.126-1.055-60.855-7.385
			c0,3.214,0,6.429,0,9.643c8.468-3.103,18.027-2.498,26.753-0.84c0-3.214,0-6.428,0-9.643c-6.679,1.417-13.44,2.202-20.031,0
			c0.398,3.046,0.796,6.093,1.194,9.139c6.477-3.436,14.365-2.927,21.44-2.347c7.461,0.611,14.836,2.065,22.255,3.029
			c5.698,0.74,6.639-8.409,1.329-9.821c-12.766-3.396-25.606-6.643-37.815-11.765c-5.215-2.188-9.004,6.841-3.853,9.139
			c9.371,4.18,19.416,7.261,27.731,13.446c0.841-3.105,1.682-6.212,2.523-9.317c-10.402,1.396-20.431-0.564-29.41-6.04
			c-1.284,3.046-2.568,6.093-3.853,9.139c14.64,4.115,28.716-1.212,42.995-4.202c-0.886-3.214-1.772-6.428-2.658-9.643
			c-8.813,2.186-19.628-4.112-27.24-7.899c-1.284,3.046-2.568,6.093-3.853,9.139c13.998,4.309,32.504,9.197,43.52-3.807
			c2.509-2.961,1.227-8.997-3.535-8.536c-15.617,1.513-30.57,1.23-45.729-3.183C176.934,155.431,174.303,165.082,180.482,166.88
			L180.482,166.88z"/>
	</g>
</g>
<g opacity="0.1">
	<g>
		<path fill="#DC1F26" d="M55.268,94c-2.011,2.771,0.603-0.591,0.93-0.948c0.927-1.008,1.949-1.928,2.959-2.85
			c0.095-0.086,3.675-3.035,1.421-1.296c1.18-0.91,2.401-1.767,3.618-2.627c5.298-3.746,10.875-7.086,16.275-10.681
			c12.078-8.039,23.642-16.267,36.712-22.72c26.421-13.044,55.488-16.271,84.37-18.448c27.402-2.065,55.056-3.109,82.453-0.386
			c1.65,0.164,3.297,0.361,4.943,0.558c5.348,0.64-2.76-0.427,2.537,0.365c3.212,0.48,6.404,1.075,9.588,1.716
			c6.651,1.341,13.195,3.167,19.587,5.438c0.118,0.042,4.718,1.884,1.922,0.673c1.308,0.566,2.567,1.238,3.825,1.904
			c2.614,1.385,5.076,3.047,7.486,4.755c3.992,2.828-2.036-1.725,1.811,1.419c1.212,0.991,2.378,2.037,3.544,3.081
			c2.771,2.479,5.374,5.143,7.924,7.847c6.956,7.38,10.625,12.311,16.019,20.015c5.842,8.346,10.571,17.414,16.592,25.629
			c4.822,6.581,12.917,9.837,20.523,5.381c6.505-3.811,10.225-13.913,5.381-20.523c-8.084-11.031-14.481-23.151-22.746-34.097
			c-8.4-11.126-17.454-21.801-28.431-30.482C331.722,9.7,302.297,5.166,274.032,3.206c-27.773-1.926-55.746-0.261-83.437,2.099
			c-32.142,2.739-62.84,8.639-91.828,23.306c-13.172,6.665-24.76,15.475-37.08,23.477c-11.903,7.731-23.862,15.112-32.325,26.771
			c-4.813,6.631-1.148,16.698,5.381,20.523C42.326,103.822,50.475,100.603,55.268,94L55.268,94z"/>
	</g>
</g>
<g opacity="0.1">
	<g>
		<path fill="#DC1F26" d="M404.678,101.769c-8.027-23.249-32.329-33.201-53.925-40.26c-25.87-8.457-52.557-14.412-79.326-19.216
			c-27.866-5.001-56.073-7.855-84.246-10.495c-22.428-2.101-45.045-3.277-67.522-1.229c-20.229,1.844-39.646,6.3-58.092,14.914
			c-18.572,8.672-33.861,22.653-45.649,39.258c-4.742,6.68-1.203,16.666,5.381,20.523c7.525,4.408,15.8,1.271,20.523-5.381
			c0.824-1.161,1.662-2.31,2.518-3.448c-1.818,2.421,1.013-1.146,1.154-1.314c1.751-2.088,3.627-4.069,5.541-6.008
			c1.872-1.896,3.855-3.676,5.872-5.414c0.996-0.857,2.025-1.675,3.053-2.492c-2.583,2.052,1.745-1.175,2.217-1.502
			c4.24-2.94,8.752-5.471,13.373-7.759c1.153-0.571,2.325-1.102,3.496-1.633c3.902-1.769-2.814,1.113,1.166-0.485
			c2.799-1.125,5.657-2.102,8.528-3.024c4.977-1.598,10.063-2.837,15.179-3.896c2.589-0.536,5.196-0.979,7.807-1.395
			c0.46-0.073,4.848-0.673,1.283-0.208c1.768-0.23,3.542-0.419,5.315-0.604c11.229-1.165,22.547-1.354,33.826-1.105
			c22.839,0.504,45.536,3.318,68.245,5.563c30.432,3.009,61.354,8.964,91.618,16.453c13.983,3.46,27.999,7.451,41.467,12.597
			c0.796,0.307,1.588,0.622,2.378,0.942c-1.614-0.697-1.634-0.703-0.057-0.019c1.547,0.674,3.067,1.406,4.581,2.151
			c2.932,1.443,5.751,3.1,8.472,4.907c0.65,0.441,1.291,0.896,1.922,1.364c-1.498-1.172-1.61-1.235-0.337-0.188
			c1.139,0.957,2.185,2.016,3.208,3.093c0.49,0.532,0.962,1.081,1.416,1.644c-1.245-1.63-1.406-1.777-0.481-0.443
			c0.377,0.591,0.729,1.197,1.057,1.816c1.734,3.127-1.057-3.114,0.112,0.269c2.666,7.721,10.188,12.75,18.451,10.477
			C401.704,118.158,407.348,109.501,404.678,101.769L404.678,101.769z"/>
	</g>
</g>
<g opacity="0.1">
	<g>
		<path fill="#DC1F26" d="M21.969,226.551c7.695,24.579,31.218,41.416,51.348,55.531c23.524,16.495,50.315,23.888,78.603,27.033
			c14.364,1.597,28.802,1.586,43.232,1.545c16.212-0.047,32.424-0.388,48.582-1.798c16.531-1.443,33.271-3.681,49.026-9.036
			c14.472-4.919,28.188-11.891,41.845-18.68c16.204-8.056,32.31-14.978,44.1-29.32c10.277-12.503,16.94-27.273,25.304-41.021
			c4.252-6.989,1.574-16.447-5.382-20.522c-7.146-4.187-16.28-1.591-20.522,5.382c-5.841,9.601-10.835,19.691-16.772,29.232
			c-1.262,2.028-2.614,3.997-4.015,5.932c-2.34,3.232,1.958-2.386-0.581,0.702c-0.76,0.926-1.567,1.811-2.375,2.694
			c-1.664,1.821-3.479,3.496-5.34,5.112c-3.186,2.77,2.444-1.719-1.055,0.866c-1.48,1.095-3.035,2.084-4.596,3.06
			c-5.557,3.478-11.669,5.994-17.554,8.849c-6.851,3.323-13.632,6.789-20.488,10.1c-6.395,3.088-11.072,5.18-17.226,7.496
			c-7.524,2.833-15.196,4.854-23.094,6.322c-30.005,5.576-62.345,5.399-93.074,4.456c-14.569-0.447-25.702-1.629-39.141-4.629
			c-13.961-3.116-24.318-6.973-36.137-14.114c-4.706-2.844-9.167-6.207-13.623-9.422c-1.139-0.822-2.267-1.658-3.395-2.494
			c-0.081-0.061-3.83-2.921-1.576-1.172c-2.744-2.13-5.418-4.348-8.05-6.614c-4.809-4.145-9.328-8.619-13.418-13.476
			c-2.927-3.476,1.591,2.27-1-1.326c-0.772-1.071-1.472-2.191-2.167-3.313c-0.67-1.079-1.254-2.208-1.833-3.338
			c-0.727-1.564-0.71-1.488,0.051,0.229c-0.278-0.737-0.527-1.484-0.749-2.24c-2.441-7.797-10.362-12.702-18.452-10.477
			C24.773,210.21,19.526,218.748,21.969,226.551L21.969,226.551z"/>
	</g>
</g>
<g opacity="0.1">
	<g>
		<path fill="#DC1F26" d="M67.003,288.632c11.112,9.805,23.34,16.723,37.215,21.826c12.187,4.482,25.07,6.829,37.679,9.78
			c29.708,6.953,58.118,17.698,89.12,17.277c15.118-0.204,30.558-3.501,45.401-6.229c14.693-2.7,29.165-6.451,42.982-12.184
			c13.35-5.539,25.128-12.713,36.307-21.867c9.952-8.148,18.611-17.804,27.466-27.092c5.638-5.914,5.883-15.331,0-21.213
			c-5.676-5.676-15.572-5.917-21.213,0c-8.209,8.611-16.278,17.385-25.252,25.219c-0.731,0.632-1.47,1.256-2.214,1.873
			c-0.07,0.059-3.813,3.002-1.537,1.269c-2.378,1.812-4.856,3.486-7.366,5.109c-4.912,3.177-11.138,6.518-15.855,8.475
			c-12.681,5.261-26.097,8.549-39.543,11.152c-13.215,2.56-26.436,5.117-39.176,5.487c-27.258,0.794-52.861-9.361-79.584-15.835
			c-11.646-2.82-23.423-5.062-34.867-8.665c-2.451-0.771-4.865-1.652-7.264-2.571c-4.675-1.791,2.455,1.157-2.136-0.921
			c-1.434-0.649-2.834-1.368-4.233-2.088c-5.919-3.044-10.369-6.18-14.718-10.017c-6.125-5.404-15.164-6.049-21.213,0
			C61.494,272.928,60.869,283.22,67.003,288.632L67.003,288.632z"/>
	</g>
</g>
<g opacity="0.1">
	<g>
		<path fill="#DC1F26" d="M53.558,281.909c30.5,35.519,65.922,70.977,113.532,80.712c26.723,5.464,53.378,2.05,79.799-3.436
			c26.803-5.564,52.684-14.506,77.534-25.936c27.237-12.525,52.622-28.727,76.724-46.474c6.569-4.838,9.844-12.905,5.381-20.523
			c-3.804-6.493-13.924-10.24-20.523-5.381c-22.023,16.217-45.069,31.003-69.629,43.097c-22.116,10.891-46.766,19.385-72.622,25.238
			c-6.52,1.477-13.089,2.729-19.678,3.858c-1.683,0.289-3.37,0.556-5.058,0.823c0.158-0.025-5.336,0.777-2.443,0.395
			c-3.555,0.471-7.128,0.783-10.705,1.023c-5.769,0.387-11.558,0.369-17.329,0.063c-2.748-0.145-5.486-0.417-8.219-0.735
			c3.506,0.408-0.897-0.158-1.338-0.229c-1.745-0.279-3.479-0.624-5.21-0.978c-5.087-1.04-10.083-2.487-14.992-4.168
			c-1.212-0.415-2.412-0.868-3.61-1.321c-0.436-0.164-4.38-1.788-1.152-0.416c-2.745-1.167-5.43-2.47-8.088-3.821
			c-4.599-2.337-9.028-4.998-13.351-7.809c-2.198-1.429-4.342-2.937-6.47-4.467c-1.076-0.773-2.134-1.571-3.192-2.368
			c2.549,1.92-1.802-1.448-2.228-1.792c-16.978-13.719-31.736-30.054-45.919-46.57c-5.331-6.208-15.762-5.451-21.213,0
			C47.451,266.803,48.236,275.712,53.558,281.909L53.558,281.909z"/>
	</g>
</g>
<g opacity="0.1">
	<g>
		<path fill="#DC1F26" d="M147.984,141.712c-11.993-2.916-24.703-4.171-37.017-3.16c-13.418,1.103-28.058,4.837-37.242,15.421
			c-5.354,6.169-6.084,15.129,0,21.213c5.473,5.474,15.851,6.18,21.213,0c0.708-0.816,1.437-1.574,2.223-2.315
			c2.644-2.496-2.634,1.75,0.461-0.273c0.947-0.619,1.964-1.125,2.973-1.632c3.467-1.743-2.973,1.073,0.773-0.251
			c2.334-0.825,4.766-1.361,7.19-1.834c0.545-0.106,4.75-0.623,1.109-0.2c1.301-0.151,2.61-0.236,3.917-0.323
			c5.211-0.345,10.458-0.121,15.653,0.35c0.615,0.055,4.823,0.574,0.935,0.047c1.17,0.159,2.335,0.355,3.5,0.552
			c2.129,0.361,4.239,0.823,6.336,1.333c7.939,1.93,16.236-2.421,18.452-10.477C160.578,152.465,155.927,143.644,147.984,141.712
			L147.984,141.712z"/>
	</g>
</g>
<g opacity="0.1">
	<g>
		<path fill="#DC1F26" d="M102.819,174.538c12.834-0.288,23.642,2.568,36.728,7.278c14.036,5.053,27.509,11.412,42.447,13.256
			c25.175,3.106,51.004-5.696,74.705-13.313c7.953-2.556,15.884-5.174,23.928-7.438c4.349-1.224,8.735-2.311,13.152-3.259
			c2.201-0.473,4.415-0.876,6.635-1.25c0.771-0.13,4.588-0.656,0.41-0.106c1.447-0.19,2.9-0.331,4.354-0.462
			c4.191-0.377,8.406-0.403,12.601-0.084c0.924,0.07,4.42,0.605-0.009-0.056c0.971,0.145,1.931,0.347,2.891,0.55
			c1.353,0.287,7.979,2.657,3.661,0.829c1.722,0.729,3.346,1.665,4.916,2.673c2.797,1.794-2.614-2.221-0.042-0.084
			c0.734,0.61,1.409,1.287,2.082,1.962c0.598,0.6,2.721,3.225,0.196-0.044c0.624,0.809,1.172,1.674,1.719,2.536
			c0.572,0.901,1.062,1.852,1.55,2.798c0.693,1.49,0.646,1.319-0.14-0.514c0.289,0.727,0.56,1.46,0.812,2.202
			c2.726,7.7,10.141,12.762,18.451,10.476c7.456-2.051,13.207-10.739,10.477-18.452c-3.945-11.146-10.158-20.068-19.963-26.785
			c-8.284-5.675-18.814-7.648-28.638-8.231c-19.094-1.133-38.634,4.737-56.633,10.456c-7.463,2.372-14.901,4.774-22.408,7.003
			c-13.6,4.038-27.842,8.341-40.748,9.119c-7.366,0.444-12.105-0.042-18.542-1.791c-7.036-1.912-13.882-4.838-20.679-7.451
			c-13.71-5.27-27.125-9.531-41.755-11.33c-4.033-0.496-8.101-0.582-12.158-0.49c-8.173,0.184-15,6.684-15,15
			C87.819,167.576,94.642,174.722,102.819,174.538L102.819,174.538z"/>
	</g>
</g>
<g opacity="0.1">
	<g>
		<path fill="#DC1F26" d="M61.296,174.672c11.056,20.209,28.693,33.879,50.036,41.872c19.817,7.422,42.057,8.589,63.017,8.393
			c26.399-0.248,53.017-4.073,78.565-10.643c13.3-3.421,26.202-7.92,38.789-13.396c11.779-5.124,20.817-10.011,33.592-12.609
			c8.016-1.631,12.532-10.98,10.477-18.452c-2.276-8.277-10.446-12.105-18.451-10.477c-12.04,2.45-23.232,7.684-34.352,12.754
			c-9.874,4.502-19.993,8.134-31.141,11.368c-23.73,6.885-46.219,10.316-70.49,11.282c-10.207,0.406-20.457,0.234-30.642-0.545
			c-2.369-0.182-4.732-0.431-7.093-0.702c-1.802-0.226-1.875-0.231-0.218-0.02c-1.391-0.196-2.776-0.431-4.161-0.665
			c-4.994-0.847-9.923-2.037-14.774-3.489c-2.164-0.648-4.292-1.408-6.407-2.2c-1.622-0.651-1.672-0.656-0.152-0.013
			c-1.232-0.524-2.439-1.104-3.645-1.686c-4.014-1.935-7.808-4.289-11.424-6.883c1.249,1.001,1.199,0.959-0.15-0.126
			c-1.055-0.851-2.06-1.762-3.063-2.671c-1.701-1.543-3.277-3.216-4.817-4.917c-0.621-0.7-1.228-1.412-1.821-2.136
			c1.911,2.288-1-1.39-1.104-1.537c-1.729-2.438-3.234-5.025-4.667-7.644c-3.919-7.164-13.622-9.424-20.523-5.381
			C59.48,158.365,57.371,167.498,61.296,174.672L61.296,174.672z"/>
	</g>
</g>
<g opacity="0.1">
	<g>
		<path fill="#DC1F26" d="M115.417,209.465c38.547,28.603,90.917,25.323,136.109,21.136c33.766-3.128,97.396-3.038,94.024-52.575
			c-0.555-8.154-6.403-15-15-15c-7.756,0-15.556,6.833-15,15c0.138,2.017,0.141,3.991-0.028,6.005
			c0.35-4.183-0.51,1.115-0.905,2.244c1.401-4.002-0.571,0.63-1.274,1.668c2.405-3.552-0.687,0.498-1.584,1.325
			c-1.228,1.031-0.992,0.874,0.706-0.471c-0.812,0.611-1.678,1.148-2.539,1.686c-1.479,0.923-3.053,1.687-4.631,2.42
			c3.865-1.797-1.536,0.497-2.485,0.813c-2.112,0.703-4.272,1.258-6.436,1.778c-1.819,0.438-3.658,0.79-5.498,1.128
			c-0.961,0.177-7.053,1.066-2.597,0.473c-3.783,0.504-7.588,0.844-11.392,1.149c-9.953,0.801-19.885,1.866-29.83,2.766
			c-21.292,1.926-42.743,3.236-64.084,1.304c-1-0.095-1.999-0.197-2.997-0.308c-0.161-0.018-5.053-0.663-1.958-0.226
			c-2.452-0.347-4.891-0.782-7.323-1.245c-5.275-1.003-10.472-2.381-15.581-4.027c-2.295-0.739-4.55-1.595-6.79-2.482
			c1.365,0.588,1.235,0.524-0.39-0.191c-1.315-0.586-2.604-1.229-3.891-1.871c-4.748-2.371-9.227-5.243-13.484-8.402
			c-6.582-4.884-16.73-1.093-20.523,5.382C105.562,196.579,108.865,204.603,115.417,209.465L115.417,209.465z"/>
	</g>
</g>
<g opacity="0.1">
	<g>
		<path fill="#DC1F26" d="M73.534,171.303c-0.678,18.974,8.529,35.403,24.71,45.137c15.26,9.179,34.175,11.592,51.607,12.503
			c16.153,0.844,32.373-0.255,48.45-1.814c15.354-1.489,30.523-2.102,45.95-2.438c35.609-0.777,80.771-6.029,91.52-46.878
			c2.079-7.902-2.532-16.267-10.477-18.452c-7.813-2.149-16.372,2.573-18.451,10.477c-0.307,1.165-2.681,7.526-0.982,3.64
			c-0.818,1.872-1.855,3.639-2.962,5.351c-0.477,0.737-2.631,3.349-0.018,0.128c-0.615,0.758-1.289,1.466-1.962,2.173
			c-0.67,0.705-1.394,1.357-2.114,2.009c-0.487,0.429-0.984,0.846-1.491,1.251c1.758-1.34,1.985-1.539,0.684-0.596
			c-1.617,1.146-3.345,2.131-5.09,3.065c-0.89,0.477-1.806,0.902-2.721,1.329c-3.233,1.508,3.151-1.238-0.209,0.063
			c-4.327,1.677-8.854,2.818-13.393,3.755c-2.186,0.451-4.392,0.805-6.599,1.135c4.254-0.636-2.781,0.295-3.922,0.408
			c-4.97,0.49-9.962,0.749-14.951,0.941c-9.167,0.354-18.345,0.333-27.515,0.599c-14.152,0.409-28.202,2.524-42.327,3.438
			c-8.397,0.543-16.814,0.788-25.228,0.632c-4.12-0.076-8.236-0.293-12.344-0.621c-2.024-0.162-4.044-0.379-6.06-0.617
			c-3.549-0.42,3.533,0.513,0.021-0.005c-1.301-0.192-2.597-0.419-3.892-0.651c-5.235-0.942-10.393-2.31-15.377-4.167
			c-3.932-1.465,1.9,0.888-0.478-0.193c-1.041-0.474-2.055-1.001-3.063-1.539c-0.985-0.525-1.938-1.107-2.884-1.7
			c-0.994-0.622-4.816-3.66-0.922-0.523c-1.651-1.33-3.137-2.849-4.518-4.454c-1.673-1.945,2.199,3.178,0.007-0.135
			c-0.734-1.109-1.35-2.291-1.932-3.484c-1.125-2.306,1.307,3.641,0.014-0.228c-0.453-1.354-0.761-2.752-1.037-4.151
			c-0.509-2.583,0.31,3.809-0.013-0.516c-0.121-1.62-0.091-3.249-0.033-4.87c0.292-8.176-7.044-15-15-15
			C80.136,156.303,73.826,163.134,73.534,171.303L73.534,171.303z"/>
	</g>
</g>
<g opacity="0.1">
	<g>
		<path fill="#DC1F26" d="M150.719,177.059c1.065-0.067,6.076,0.508,2-0.229c0.695,0.149,1.377,0.344,2.046,0.584
			c-2.004-0.898-2.304-0.968-0.898-0.21c-1.721-1.449-1.994-1.649-0.818-0.6c1.073,1.174,0.872,0.867-0.605-0.922
			c0.333,0.505,0.629,1.031,0.89,1.576c-0.875-2.208-1.071-2.55-0.587-1.023c0.689,2.386,0.016-3.578-0.114,0.613
			c0.134-4.31,0-0.67-0.479,0.729c1.661-4.861-2.271,2.348,0.685-1.297c-0.597,0.735-4.173,3.382-1.287,1.398
			c-6.724,4.622-9.742,13.078-5.381,20.523c3.904,6.664,13.774,10.02,20.523,5.381c11.881-8.167,18.155-20.928,14.981-35.322
			c-3.063-13.889-17.492-22.053-30.956-21.202c-8.157,0.516-15,6.433-15,15C135.719,169.845,142.55,177.575,150.719,177.059
			L150.719,177.059z"/>
	</g>
</g>
<g opacity="0.1">
	<g>
		<path fill="#DC1F26" d="M250.718,145.378c-15.468,1.246-26.979,10.714-28.909,26.433c-1.746,14.222,9.042,25.546,21.561,29.922
			c7.723,2.7,16.395-2.997,18.451-10.477c2.28-8.287-2.766-15.756-10.477-18.452c-3.727-1.303,2.6,1.464-0.565-0.386
			c1.592,1.35,1.793,1.498,0.603,0.445c-1.1-1.194-0.938-0.92,0.483,0.82c-0.347-0.515-0.657-1.051-0.929-1.61
			c0.864,2.202,1.058,2.546,0.579,1.032c-0.7-2.42-0.04,3.667,0.187-0.418c-0.231,4.169-0.197,1.863,0.242,0.55
			c-0.983,2.194-1.092,2.59-0.326,1.188c-1.495,1.787-1.714,2.084-0.654,0.893c1.16-1.064,0.877-0.884-0.85,0.539
			c0.553-0.366,1.129-0.691,1.728-0.976c-4.215,2.19,3.253,0.144-1.123,0.497c8.146-0.656,15-6.327,15-15
			C265.718,152.699,258.879,144.721,250.718,145.378L250.718,145.378z"/>
	</g>
</g>
<g opacity="0.1">
	<g>
		<path fill="#DC1F26" d="M130.559,175.011c14.505-6.274,29.661-5.57,45.648-4.029c17.437,1.68,34.452,4.072,52.027,3.27
			c36.147-1.651,71.89-10.831,108.199-6.436c8.137,0.985,15-7.568,15-15c0-8.92-6.885-14.018-15-15
			c-36.865-4.462-73.336,4.843-110.057,6.521c-18.08,0.826-35.749-2.07-53.69-3.683c-19.891-1.788-38.886,0.501-57.27,8.453
			c-7.509,3.248-9.134,14.116-5.381,20.523C114.534,177.31,123.054,178.257,130.559,175.011L130.559,175.011z"/>
	</g>
</g>
</svg>
