<?xml version="1.0" encoding="utf-8"?>
<!-- Generator: Adobe Illustrator 16.0.0, SVG Export Plug-In . SVG Version: 6.00 Build 0)  -->
<!DOCTYPE svg PUBLIC "-//W3C//DTD SVG 1.1//EN" "http://www.w3.org/Graphics/SVG/1.1/DTD/svg11.dtd">
<svg version="1.1" id="Layer_1" xmlns="http://www.w3.org/2000/svg" xmlns:xlink="http://www.w3.org/1999/xlink" x="0px" y="0px"
	 width="508.627px" height="316.782px" viewBox="0 0 508.627 316.782" enable-background="new 0 0 508.627 316.782"
	 xml:space="preserve">
<path fill="none" d="M4.627,203.377c-0.319-8.832,8.044-20.111,11.703-27.881c7.533-15.998,16.143-33.476,19.372-50.959
	c2.266-12.27,3.501-24.585,8.68-36.16c9.226-20.624,19.581-32.916,41.194-42.052c21.82-9.223,45.363-20.236,68.075-24.896
	c10.913-2.239,22.857-5.462,34.004-5.833c10.888-0.362,21.473,5.783,33.192,7.804c21.113,3.642,43.045,0.545,61.977-7.272
	c23.779-9.819,54.232-9.079,78.885-1.801c22.295,6.582,47.692,18.369,67.894,30.272c18.35,10.812,44.255,21.837,58.242,37.526
	c8.257,9.262,15.172,22.605,20.784,33.251"/>
<path fill="none" d="M12.627,219.377c-2.595,21.514,29.856,41.987,42.52,56.023c16.637,18.439,42.048,29.32,65.674,36.199
	c29.768,8.667,63.062,3.537,94.1,4.829c25.649,1.067,50.271-4.694,73.512-14.246c26.699-10.972,54.729-20.197,80.668-33.024
	c18.032-8.918,35.225-21.102,51.229-31.563c20.233-13.225,39.916-24.095,54.1-44.493c10.768-15.486,12.442-36.639,25.197-50.726"/>
<path fill="none" d="M500.627,129.377c-2.908-12.883-4.021-24.636-11.223-35.781c-11.392-17.631-30.968-30.922-49.773-41.021
	c-19.935-10.704-38.106-22.134-57.086-34.22C362.721,5.73,339.886,6.774,317.397,9.377c-28.327,3.28-56.73,4.353-84.842,8.223
	c-22.521,3.1-46.369,1.329-68.906,4.555c-28.237,4.042-60.583,19.069-82.02,37.979C69.552,70.788,58.93,83.67,50.625,97.303
	c-6.893,11.313-11.835,23.397-17.499,35.375c-4.309,9.114-11.08,26.44-18.5,32.699"/>
<path fill="none" d="M24.627,177.377c9.12-4.705,19.277-9.806,29-12.801c10.346-3.187,20.912-2.375,30.445-8.176
	c22.219-13.52,18.083-43.92,35.333-61.098c14.801-14.739,43.975-17.001,64.023-18.977c23.717-2.336,45.88-2.181,68.974,1.833
	c19.034,3.308,40.261,4.052,59.028,9.415c18.062,5.161,34.704,15.685,51.221,24.607c37.691,20.361,81.506,24.073,123.977,24.197"/>
<path fill="none" stroke="#080505" stroke-miterlimit="10" d="M26.627,143.377c0.348-9.722,11.269-21.192,15.751-29.432
	c7.547-13.872,13.86-30.313,22.694-43.336c11.352-16.734,38.01-31.748,55.626-40.03c29.243-13.749,68-18.302,99.932-18.201
	c16.531,0.052,29.25,7.779,45.754,2.803c17.779-5.361,29.106-10.567,48.493-6.573c12.205,2.515,23.628,8.778,35.475,12.438
	c14.259,4.405,28.581,7.058,43.13,10.584c16.539,4.008,34.238,7.844,49.171,16.226c18.494,10.38,44.669,25.985,53.974,45.523"/>
<path fill="none" stroke="#080505" stroke-miterlimit="10" d="M25.627,163.377c14.259-2.3,30.266-10.034,42.023-18
	c9.542-6.465,12.83-5.512,24.151-6.948c27.206-3.451,26.389-23.84,36.803-42.278c14.181-25.108,53.276-21.924,77.968-25.771
	c28.786-4.483,57.265,0.021,85.33,6.801c11.385,2.75,23.728,4.613,34.749,9.171c10.889,4.503,20.349,12.076,31.226,16.271
	c11.995,4.625,24.588,7.934,36.735,12.729c13.34,5.266,27.748,14.815,41.487,16.799c8.19,1.183,16.644-0.452,24.528-0.826
	c6.135-0.291,15.536,2.824,21,1.045c10.541-3.432,8.787-16.229,9.246-25.02c0.502-9.626,4.035-9.459,9.754-16.973"/>
<path fill="none" stroke="#080505" stroke-miterlimit="10" d="M45.338,178.029c-11.711,8.349-17.711,24.349-12.711,38.349
	c15,20,29,42,50,58c10,7,19,11,30,15c13,4,27,5,40,6c30,1,60,1,90-3c13-1,25-9,39-11c22-3,43-6,64-12c19-6,36-14,53-26
	c10-8,18-18,29-23c7-4,13-7,19-10c10-7,16-17,21-28c1-1,2-2,3-3c4-9,13-17,10-27c-3-13-18-14-30-17c-2-1-5-2-7-5"/>
<path fill="none" stroke="#080505" stroke-miterlimit="10" d="M102.627,166.377c-9.454-13.725-29.687-5.557-41.145,0.646"/>
<path fill="none" stroke="#080505" stroke-miterlimit="10" d="M191.627,101.377c-1.133,11.212-9.405,17.495-9,30.223
	c0.192,6.049,0.119,8.594,2.977,13.774c2.436,4.415,6.615,5.127,7.17,10.852c6.05,0.149,11.792,1.169,17.685,0.98
	c1.808-1.902,16.323-3.958,20.171-4.58c6.066-0.98,15.427,2.098,21.997-0.197c11.234-3.925,6.883-30.053,5.223-40.829
	c-3.25-21.101-12.969-28.5-34.223-25.246c-12.966,1.985-36.455,7.349-43.942,19.806c-7.019,11.678,4.289,29.032,3.843,42.066
	c-11.781,0.567-29.019,8.437-38.922,3.207c-35.82-18.916,23.786-70.642,42.022-48.056"/>
<path fill="none" stroke="#080505" stroke-miterlimit="10" d="M342.65,134.4c-1.775-17.631,9.381-23.196,24.297-19.122
	c2.147,0.586,31.045,16.901,21.528,20.925c-11.368,4.806-21.487,8.605-33.82,6.396C345.859,141.024,343.474,142.581,342.65,134.4z"
	/>
<path fill="none" stroke="#080505" stroke-miterlimit="10" d="M132.627,181.377c5.059-14.745,6.018-22.187,19.845-7.984
	c4.604,4.729,8.73,9.409,15.858,7.279c7.993-2.389,7.559-11.287,13.542-15.533c6.134-4.353,18.628-5.27,25.58-2.639
	c0.386,6.006,0.049,11.892,1.322,17.749c10.746,1.785,13.252-5.063,20.853-9.868c7.354-4.649,12.537-1.727,20.274,2.773
	c12.667,7.369,11.934,5.158,24.968-3.578c8.412-5.638,19.405-5.304,28.758-0.199"/>
<path fill="none" stroke="#080505" stroke-miterlimit="10" d="M100.627,166.377c29.7,26.756,74.268,21.466,112.005,20
	c23.013-0.894,44.813-1.918,66.947-4.945c23.272-3.182,43.705-10.871,66.071-17.888c14.401-4.518,28.932-7.236,42.922-12.167
	c17.283-6.093,33.803-16.004,51.055-23"/>
<path fill="none" stroke="#010101" stroke-miterlimit="10" d="M258.627,94.377c11.583,13.922-2.733,38.548,12.004,50.02
	c1.766,1.375,8.318,3.664,11.022,5.251c4.471,2.624,8.633,4.435,13.755,5.507c8.666,1.815,16.9,2.223,25.996,2.223
	c9.255,0,19.027,2.09,23.298-8.003c3.563-8.421,0.974-20.427,1.873-29.552c1.034-10.488,11.166-16.752-0.147-22.417
	c-10.19-5.101-23.958-5.99-35-7.977c-14.966-2.692-35.643-9.8-46.801,3.948"/>
<g opacity="0.1">
	<g>
		<path fill="#DF1C45" d="M108.717,150.82c0.653-2.247,1.418-4.442,2.298-6.61c-1.26,2.986-2.52,5.972-3.78,8.958
			c2.419-5.691,5.594-10.935,9.338-15.849c-1.955,2.53-3.909,5.06-5.864,7.59c5.716-7.308,12.477-13.625,19.799-19.298
			c-2.53,1.955-5.06,3.909-7.589,5.864c14.141-10.77,29.977-19.04,46.296-25.977c-2.986,1.26-5.972,2.52-8.958,3.78
			c30.702-12.897,63.164-21.227,96.115-25.768c-3.323,0.446-6.646,0.893-9.969,1.339c19.478-2.539,39.063-2.765,58.555-0.254
			c-3.323-0.446-6.646-0.893-9.97-1.339c28.541,3.887,55.576,13.563,82.005,24.696c-2.986-1.26-5.973-2.52-8.958-3.78
			c23.962,10.143,47.632,20.944,71.746,30.735c8.806,3.575,21.062,0.809,28.896-3.78c8.383-4.911,14.655-13.038,17.233-22.412
			c2.663-9.679,1.293-20.235-3.78-28.896c-5.378-9.181-12.922-13.381-22.411-17.234c-4.334-1.76-8.654-3.551-12.965-5.369
			c2.986,1.26,5.972,2.521,8.958,3.78c-27.263-11.545-54.094-24.192-81.829-34.595c-26.789-10.048-54.517-16.246-83.102-18.205
			c-26.353-1.806-53.037,1.886-78.854,7.029c-19.87,3.958-39.457,9.5-58.46,16.52C105.506,49.463,51.751,78.072,36.396,130.882
			c-5.705,19.621,6.708,40.77,26.192,46.129C82.505,182.49,103.014,170.434,108.717,150.82L108.717,150.82z"/>
	</g>
</g>
<g opacity="0.1">
	<g>
		<path fill="#DF1C45" d="M10.953,228.771c20.516,17.327,39.95,36.228,62.757,50.624c12.656,7.987,26.771,14.021,40.958,18.658
			c17.298,5.654,36.006,7.316,54.01,9.181c56.325,5.831,113.6-2.971,166.82-21.822c58.492-20.719,119.146-52.735,153.649-106.335
			c11.075-17.206,3.604-41.315-13.453-51.308c-18.208-10.666-40.265-3.7-51.307,13.454c-2.006,3.116-4.135,6.136-6.38,9.084
			c1.954-2.53,3.908-5.06,5.863-7.59c-9.172,11.807-20.076,22.046-31.854,31.215c2.53-1.954,5.06-3.909,7.59-5.863
			c-21.736,16.712-46.077,29.736-71.285,40.384c2.986-1.26,5.972-2.52,8.958-3.78c-32.603,13.633-66.737,23.188-101.735,28.128
			c3.323-0.446,6.646-0.894,9.969-1.34c-30.073,4.028-60.45,3.13-90.478-0.835c3.323,0.446,6.646,0.893,9.969,1.339
			c-14.549-1.987-28.393-4.89-42.006-10.512c2.986,1.26,5.972,2.521,8.958,3.78c-12.659-5.389-24.251-12.585-35.159-20.935
			c2.53,1.954,5.06,3.909,7.589,5.863c-13.991-10.842-26.886-23.01-40.401-34.424c-7.856-6.635-15.915-10.983-26.517-10.983
			c-9.906,0-19.516,3.982-26.517,10.983C-2.585,189.276-4.678,215.569,10.953,228.771L10.953,228.771z"/>
	</g>
</g>
<g opacity="0.1">
	<g>
		<path fill="#DF1C45" d="M42.531,197.192c17.034,20.956,42.034,33.798,67.005,42.701c24.312,8.669,50.506,12.068,76.063,14.554
			c22.796,2.217,46.192,3.653,69.094,3.015c30.785-0.858,61.676-6.97,90.674-17.238c37.616-13.32,72.757-32.444,105.766-54.711
			c16.91-11.407,24.287-32.812,13.453-51.307c-9.826-16.775-34.337-24.9-51.307-13.454c-25.184,16.988-51.512,32.305-79.508,44.19
			c2.986-1.26,5.973-2.52,8.958-3.78c-23.317,9.767-47.584,16.976-72.646,20.497c3.322-0.446,6.646-0.893,9.969-1.34
			c-19.629,2.623-39.108,2.259-58.835,1.447c-17.419-0.716-34.827-1.899-52.113-4.217c3.323,0.446,6.646,0.894,9.969,1.34
			c-19.889-2.742-39.673-6.971-58.285-14.651c2.986,1.261,5.972,2.521,8.958,3.78c-9.467-4.003-18.477-8.892-26.692-15.091
			c2.53,1.955,5.06,3.909,7.589,5.864c-5.574-4.32-10.626-9.157-15.077-14.632c-5.943-7.312-17.472-10.983-26.517-10.983
			c-9.906,0-19.516,3.982-26.517,10.983s-10.983,16.611-10.983,26.517C31.548,181.43,35.994,189.149,42.531,197.192L42.531,197.192z
			"/>
	</g>
</g>
<g opacity="0.1">
	<g>
		<path fill="#DF1C45" d="M101.7,149.066c1.504-5.045,3.256-9.997,5.284-14.855c-1.26,2.986-2.521,5.972-3.78,8.958
			c4.269-10.01,9.698-19.42,16.327-28.054c-1.955,2.53-3.909,5.06-5.864,7.589c6.621-8.484,14.269-16.029,22.772-22.62
			c-2.53,1.955-5.06,3.909-7.589,5.863c10.186-7.779,21.361-14.056,33.145-19.073c-2.986,1.26-5.972,2.52-8.958,3.78
			c17.539-7.35,36.085-11.847,54.9-14.395c-3.323,0.447-6.646,0.893-9.969,1.34c30.071-3.952,60.606-3.024,90.619,0.987
			c-3.323-0.446-6.646-0.893-9.969-1.339c36.901,5.034,73.284,14.681,107.636,29.114c-2.986-1.26-5.973-2.52-8.958-3.78
			c19.369,8.201,38.214,17.942,55.281,30.299c7.772,5.627,19.994,6.229,28.896,3.78c9.374-2.579,17.501-8.851,22.411-17.234
			c5.073-8.661,6.443-19.217,3.78-28.896c-2.783-10.119-9.013-16.46-17.233-22.412c-28.293-20.483-61.57-34.514-94.567-45.406
			C338.102,10.25,298.303,3.048,258.633,0.676c-37.801-2.26-77.526,0.912-113.544,13.095c-39.175,13.251-72.953,36.58-95.911,71.336
			c-8.829,13.366-15.237,28.72-19.799,44.02c-5.838,19.584,6.808,40.798,26.192,46.13C75.589,180.764,95.864,168.639,101.7,149.066
			L101.7,149.066z"/>
	</g>
</g>
<g opacity="0.1">
	<g>
		<path fill="#DF1C45" d="M22.361,203.452c12.542,42.941,56.649,63.661,96.338,74.922c37.516,10.645,77.279,14.974,116.141,16.891
			c36.271,1.789,72.551-0.966,108.247-7.7c23.21-4.38,45.409-11.587,66.854-21.502c22.162-10.246,40.77-25.752,55.025-45.488
			c2.628-3.639,4.808-7.58,6.638-11.673c4.296-9.601,6.68-18.354,3.78-28.896c-2.578-9.374-8.851-17.501-17.233-22.412
			c-8.66-5.073-19.217-6.442-28.896-3.78c-8.519,2.343-18.65,8.827-22.411,17.234c-2.269,5.069-5.12,9.77-8.5,14.172
			c1.954-2.529,3.908-5.06,5.863-7.589c-4.433,5.604-9.564,10.512-15.191,14.904c2.529-1.954,5.06-3.909,7.589-5.863
			c-9.194,7.02-19.372,12.509-29.983,17.065c2.986-1.26,5.973-2.52,8.958-3.78c-23.278,9.815-48.204,15.263-73.17,18.626
			c3.323-0.446,6.646-0.893,9.969-1.34c-42.794,5.635-86.032,4.087-128.741-1.601c3.323,0.446,6.646,0.893,9.969,1.339
			c-27.327-3.697-54.95-9.055-80.507-19.701c2.986,1.26,5.972,2.52,8.958,3.78c-9.128-3.868-17.958-8.464-25.868-14.48
			c2.53,1.954,5.06,3.909,7.589,5.863c-4.196-3.267-8.042-6.897-11.335-11.081c1.955,2.529,3.909,5.06,5.863,7.59
			c-2.373-3.116-4.362-6.437-5.896-10.043c1.26,2.986,2.52,5.973,3.78,8.958c-0.576-1.429-1.077-2.873-1.509-4.353
			c-5.727-19.607-26.194-31.675-46.129-26.192C29.087,162.677,16.632,183.837,22.361,203.452L22.361,203.452z"/>
	</g>
</g>
<g opacity="0.1">
	<g>
		<path d="M114.876,151.617c1.118-3.247,2.456-5.773,5.326-7.798c-3.762-2.159-7.524-4.317-11.286-6.476
			c0.388,4.348,3.138,8.12,3.509,12.281c0.464,5.203,6.17,9.945,11.286,6.476c2.454-1.665,4.095-3.309,5.229-6.1
			c0.941-2.317,0.816-4.813,1.727-7.155c-4.569,0.597-9.139,1.194-13.708,1.792c-0.246-0.371-0.18-1.381-0.147,0.716
			c0.026,1.67,0.009,3.295,0.351,4.948c0.709,3.429,2.916,5.26,6.033,6.555c4.715,1.958,9.338-2.861,9.494-7.232
			c0.168-4.726,1.586-9.287,1.754-14.035c0.266-7.494-10.375-10.197-13.976-3.786c-4.395,7.826-6.731,17.186-1.822,25.362
			c4.288,7.141,12.865,10.564,20.697,11.947c9.14,1.615,18.47,1.167,27.535-0.705c6.89-1.422,15.223-4.239,19.755-9.971
			c6.051-7.65-2.958-16.561-10.606-10.606c-7.854,6.114-14.093,13.996-21.053,21.052c3.926,0.507,7.853,1.013,11.779,1.519
			c-6.572-10.475-15.96-17.975-27.289-22.745c-3.775-1.59-8.248,1.682-9.226,5.238c-1.191,4.33,1.473,7.641,5.238,9.226
			c7.536,3.173,14.008,8.973,18.324,15.851c2.545,4.056,8.299,5.047,11.779,1.519c6.96-7.057,13.199-14.938,21.053-21.053
			c-3.536-3.536-7.071-7.071-10.606-10.606c-0.374,0.472-2.625,2.515-1.155,1.395c-0.987,0.752-2.083,1.355-3.18,1.927
			c-0.132,0.069-2.144,0.971-0.711,0.375c-0.673,0.28-1.361,0.521-2.048,0.763c-1.462,0.515-2.961,0.918-4.464,1.294
			c-6.125,1.532-12.162,1.869-19.034,1.315c-2.152-0.173-5.205-0.778-8.159-1.73c-1.578-0.508-3.988-1.875-4.917-2.738
			c-0.22-0.204-1.478-1.75-0.423-0.335c-0.361-0.484-0.647-1.018-0.93-1.549c0.492,0.923-0.215-1.392-0.192-1.038
			c-0.166-2.489,0.885-5.066,2.607-8.134c-4.659-1.262-9.317-2.524-13.976-3.786c-0.168,4.726-1.586,9.287-1.754,14.035
			c3.165-2.411,6.329-4.821,9.494-7.232c-0.132-0.055-0.264-0.11-0.396-0.165c1.494,1.149,2.988,2.298,4.482,3.447
			c0.487,2.104,0.668,2.356,0.544,0.754c-0.019-1.076-0.017-2.14-0.083-3.215c-0.133-2.168-0.608-4.316-1.819-6.146
			c-3.789-5.728-11.349-4.274-13.708,1.792c-0.61,1.569-0.846,2.915-1.063,4.598c-0.362,2.813-0.509,0.716,1-0.308
			c3.762,2.159,7.524,4.317,11.286,6.476c-0.388-4.348-3.138-8.12-3.509-12.281c-0.457-5.119-6.212-10.055-11.286-6.476
			c-6.249,4.409-9.745,9.576-12.218,16.763C97.256,156.801,111.748,160.707,114.876,151.617L114.876,151.617z"/>
	</g>
</g>
<g opacity="0.6">
	<g>
		<path d="M117.629,156.917c3.462-4.98,8.119-9.637,13.099-13.099c-2.524,0-5.047,0-7.571,0c8.768,6.67,16.176,15.688,26.147,20.652
			c12.467,6.207,25.609,2.372,37.563-3.108c6.917-3.171,3.343-14.183-3.785-13.976c-14.481,0.42-26.256,10.127-26.798,25.044
			c4.268-1.768,8.536-3.535,12.803-5.304c-5.97-7.29-14.333-11.091-23.104-13.943c-7.431-2.416-16.519-4.038-21.337-10.854
			c-2.345-3.317-6.516-4.911-10.261-2.69c-3.652,2.165-5.765,5.118-8.536,8.19c-6.459,7.162,4.115,17.804,10.606,10.606
			c1.803-1.999,3.152-4.453,5.5-5.845c-3.42-0.897-6.841-1.794-10.261-2.69c5.773,8.166,13.665,12.377,22.988,15.461
			c8.852,2.929,17.621,4.829,23.799,12.373c4.416,5.392,12.587,0.652,12.803-5.304c0.239-6.563,5.681-9.867,11.798-10.044
			c-1.262-4.659-2.523-9.317-3.785-13.976c-8.225,3.771-16.88,6.476-25.133,1.639c-8.581-5.029-15.527-13.165-23.436-19.183
			c-1.947-1.481-5.609-1.364-7.571,0c-7.207,5.01-13.47,11.273-18.48,18.48C99.14,157.311,112.15,164.798,117.629,156.917
			L117.629,156.917z"/>
	</g>
</g>
<g opacity="0.6">
	<g>
		<path d="M195.364,165.895c10.112,0.255,12.74,8.1,11.798,17.062c-0.792,7.538,10.619,10.086,13.976,3.785
			c3.528-6.622,8.928-12.063,14.853-16.608c3.992-3.061,5.671-10.262,0-12.952c-4.557-2.162-9.249-4.084-14.312-4.532
			c0.665,4.911,1.329,9.821,1.994,14.732c0.596-0.126,2.234-0.009,3.295,0.206c2.494,0.507,4.914,1.398,7.296,2.275
			c4.803,1.769,9.492,3.908,14.519,4.983c5.66,1.211,11.231,0.672,15.839-3.03c5.026-4.039,6.18-10.896,6.663-16.93
			c0.485-6.06-6.626-8.823-11.285-6.476c-3.618,1.822-7.223,3.76-10.291,6.436c3.926,3.029,7.853,6.059,11.779,9.089
			c2.517-5.183,4.502-10.607,7.018-15.79c-4.658-1.262-9.316-2.523-13.976-3.785c-0.475,8.9,0.848,17.773,9.892,21.494
			c6.241,2.567,14.365-1.362,20.404-2.891c8.339-2.11,17.437,2.88,25.566,6.014c10.676,4.116,20.915,3.331,30.861-2.352
			c8.396-4.796,0.842-17.758-7.57-12.952c-7.266,4.151-12.971,3.281-20.494,0.381c-7.912-3.05-16.206-7.176-24.902-6.741
			c-6.14,0.308-11.814,2.665-17.739,4.01c-1.174,0.266,0.159,0.13-1.648,0.18c-0.911-0.048-0.881-0.029,0.09,0.057
			c-1.432-0.278,0.349,0.15,0.713,0.481c0.603,0.548,0.029-0.376-0.237-1.74c-0.36-1.84-0.033-4.084,0.065-5.942
			c0.389-7.283-10.723-10.489-13.976-3.785c-2.516,5.183-4.501,10.606-7.018,15.789c-3.754,7.732,5.246,14.788,11.78,9.089
			c1.112-0.971,4.986-2.948,7.254-4.09c-3.762-2.159-7.523-4.317-11.285-6.476c-0.128,1.601-0.468,3.836-1.007,4.947
			c-0.836,1.72,0.495-0.246-0.713,0.935c0.951-0.93,0.963-0.478-0.403-0.176c1.541-0.34-0.754-0.132-0.964-0.142
			c1.353,0.062-1.271-0.248-1.267-0.247c-2.12-0.454-4.181-1.204-6.214-1.943c-8.437-3.066-16.815-7.285-26.031-5.342
			c-8.812,1.857-5.936,14.03,1.994,14.731c0.835,0.074,4.867,1.596,6.741,2.484c0-4.316,0-8.634,0-12.952
			c-7.974,6.115-15.453,13.013-20.235,21.99c4.659,1.262,9.317,2.523,13.976,3.785c1.83-17.409-8.887-31.609-26.798-32.062
			C185.685,150.651,185.709,165.651,195.364,165.895L195.364,165.895z"/>
	</g>
</g>
<g opacity="0.6">
	<g>
		<path d="M348.235,160.364c11.014-3.897,22.645-5.616,33.764-9.175c12.198-3.904,22.603-10.308,30.366-20.588
			c1.979-2.62,1.033-6.953-1.172-9.088c-7.698-7.455-16.706-12.292-26.928-15.354c-9.601-2.875-19.534-4.283-29.013-7.627
			c-9.146-3.227-13.045,11.269-3.988,14.464c16.884,5.958,35.803,6.033,49.321,19.124c-0.391-3.029-0.781-6.059-1.172-9.088
			c-12.529,16.587-37.149,16.494-55.167,22.869C335.194,149.103,339.092,163.599,348.235,160.364L348.235,160.364z"/>
	</g>
</g>
<g opacity="0.1">
	<g>
		<path d="M113.038,159.225c3.292-4.321-3.045,3.868,0.29-0.357c0.948-1.201,1.917-2.385,2.886-3.57
			c1.901-2.324,3.865-4.597,5.85-6.851c4.147-4.707,8.525-9.206,13.057-13.542c4.015-3.84,8.224-7.473,12.551-10.956
			c3.837-3.089-4.166,3.148-0.256,0.188c1.075-0.814,2.168-1.604,3.262-2.393c2.528-1.826,5.124-3.555,7.745-5.242
			c4.441-2.858,9.044-5.457,13.732-7.887c2.332-1.209,4.706-2.335,7.091-3.434c1.193-0.549,2.399-1.07,3.604-1.591
			c-6.615,2.86-0.706,0.351,0.722-0.202c10.427-4.038,21.275-6.924,32.251-9.008c2.724-0.517,5.463-0.952,8.205-1.36
			c5.037-0.75-5.489,0.689-0.406,0.064c1.411-0.174,2.825-0.321,4.238-0.468c6.293-0.656,12.616-1.003,18.94-1.188
			c6.239-0.182,12.491-0.135,18.728,0.12c3.466,0.142,6.925,0.426,10.378,0.753c1.712,0.163,3.419,0.369,5.127,0.576
			c-6.397-0.773,1.262,0.232,2.476,0.43c27.888,4.525,54.495,14.717,80.483,25.468c23.513,9.727,46.785,20.084,71.003,27.983
			c11.662,3.804,24.541-4.311,27.678-15.715c3.367-12.242-4.065-23.878-15.715-27.678c-26.905-8.775-52.659-20.557-78.846-31.2
			c-27.667-11.245-55.682-20.228-85.38-24.068c-49.456-6.396-103.24,2.309-145.9,28.839c-24.916,15.494-44.99,36.398-62.652,59.577
			c-7.453,9.781-1.54,25.154,8.072,30.784c5.197,3.044,11.53,3.866,17.338,2.269C105.771,167.865,109.31,164.118,113.038,159.225
			L113.038,159.225z"/>
	</g>
</g>
<g opacity="0.1">
	<g>
		<path d="M66.65,176.657c4.856,16.8,19.012,28.415,34.448,35.338c17.289,7.755,35.456,12.211,54.1,15.283
			c33.933,5.593,68.482,7.845,102.854,7.998c78.989,0.354,181.578-5.628,221.652-86.578c5.441-10.991,3.045-24.272-8.071-30.784
			c-10.023-5.872-25.346-2.914-30.784,8.072c-2.324,4.693-4.925,9.209-7.836,13.563c-0.706,1.056-1.449,2.086-2.192,3.116
			c-2.735,3.792,3.354-4.204,0.457-0.563c-1.804,2.268-3.737,4.428-5.718,6.542c-3.354,3.578-7.005,6.866-10.799,9.968
			c-3.541,2.896,4.354-3.274,0.696-0.529c-0.976,0.732-1.974,1.435-2.972,2.138c-2.332,1.642-4.744,3.168-7.182,4.649
			c-4.21,2.558-8.595,4.821-13.047,6.924c-1.122,0.53-2.257,1.033-3.392,1.536c-4.257,1.888,5.101-2.096,0.778-0.335
			c-2.713,1.104-5.465,2.108-8.229,3.077c-10.063,3.523-20.443,6.097-30.897,8.146c-5.101,1-10.235,1.821-15.381,2.554
			c-4.808,0.685,5.633-0.729,0.814-0.118c-1.294,0.164-2.589,0.313-3.884,0.464c-3.02,0.35-6.045,0.647-9.071,0.927
			c-10.677,0.987-21.393,1.525-32.109,1.854c-15.902,0.488-31.837,0.546-47.743,0.153c-13.827-0.342-27.645-1.061-41.431-2.17
			c-7.883-0.635-15.752-1.433-23.603-2.391c-1.836-0.225-9.026-1.206-0.822-0.084c-1.883-0.258-3.764-0.534-5.644-0.816
			c-4.089-0.614-8.166-1.307-12.232-2.057c-7.397-1.364-14.744-3.015-21.994-5.021c-3.198-0.885-6.365-1.877-9.505-2.947
			c-1.493-0.509-2.973-1.058-4.447-1.619c-0.858-0.327-1.709-0.674-2.559-1.021c7.182,2.93,3.684,1.563,2.098,0.851
			c-2.551-1.144-5.032-2.436-7.448-3.842c-1.123-0.653-2.212-1.361-3.289-2.086c-4.958-3.339,4.015,3.396,0.485,0.404
			c-0.875-0.742-1.696-1.545-2.496-2.366c-0.462-0.474-0.894-0.976-1.325-1.478c-2.128-2.48,3.83,5.155,1.963,2.515
			c-0.598-0.845-1.109-1.747-1.591-2.662c-2.025-3.846,2.216,6.548,0.737,1.431c-3.403-11.774-15.741-18.998-27.678-15.715
			C70.661,152.198,63.245,164.878,66.65,176.657L66.65,176.657z"/>
	</g>
</g>
<path fill="none" stroke="#000000" stroke-miterlimit="10" d="M218.171,75.939c1.052-12.295-2.117-24.417-1.754-36.842"/>
<path fill="none" stroke="#000000" stroke-miterlimit="10" d="M255.013,72.43c2.827-6.365,5.547-13.03,8.772-19.298"/>
<path fill="none" stroke="#000000" stroke-miterlimit="10" d="M284.838,75.939c6.788-4.774,13.725-10.505,17.543-17.544"/>
<path fill="none" stroke="#000000" stroke-miterlimit="10" d="M140.978,84.711c-3.574-1.602-7.067-3.348-10.526-5.263"/>
<path fill="none" stroke="#000000" stroke-miterlimit="10" d="M149.75,189.974c-4.57,3.665-9.284,7.199-14.035,10.526"/>
<path fill="none" stroke="#000000" stroke-miterlimit="10" d="M202.381,188.219c0,5.848,0,11.696,0,17.544"/>
<path fill="none" stroke="#000000" stroke-miterlimit="10" d="M228.697,189.974c9.296,1.003,14.359,9.565,17.544,17.544"/>
<path fill="none" stroke="#000000" stroke-miterlimit="10" d="M284.838,184.71c9.622,0.461,14.224,10.168,12.28,19.299"/>
<path fill="none" stroke="#000000" stroke-miterlimit="10" d="M323.434,168.921c10.02,2.847,21.273,1.809,31.579,3.509"/>
</svg>
