<?xml version="1.0" encoding="utf-8"?>
<!-- Generator: Adobe Illustrator 16.0.0, SVG Export Plug-In . SVG Version: 6.00 Build 0)  -->
<!DOCTYPE svg PUBLIC "-//W3C//DTD SVG 1.1//EN" "http://www.w3.org/Graphics/SVG/1.1/DTD/svg11.dtd">
<svg version="1.1" id="Layer_1" xmlns="http://www.w3.org/2000/svg" xmlns:xlink="http://www.w3.org/1999/xlink" x="0px" y="0px"
	 width="445.597px" height="352.898px" viewBox="0 0 445.597 352.898" enable-background="new 0 0 445.597 352.898"
	 xml:space="preserve">
<path opacity="0.6" fill="none" stroke="#010101" stroke-miterlimit="10" d="M11.945,209.357c7.226-32.104,4.95-65.4,13.777-96.754
	c6.493-23.062,18.998-58.647,40.806-70.464c17.969-9.737,40.476-21.224,61.394-24.004c23.81-3.164,46.539,10.721,69.996,6.248
	c23.43-4.468,41.353-19.999,66.003-22.002c26.459-2.15,38.146,4.271,60.272,17.977c18.614,11.53,38.143,25.927,54.48,40.171
	c16.29,14.202,25.214,37.17,46.47,44.606c5.582,1.953,13.573,4.996,19.801,4.223"/>
<path opacity="0.6" fill="none" stroke="#010101" stroke-miterlimit="10" d="M19.945,216.357
	c7.952,1.619,34.629-8.714,40.326-14.729c4.922-5.197,4.432-16.866,6.671-23.274c1.378-3.944,2.288-8.567,5.233-12.048
	c3.818-4.514,8.058-3.627,9.79-9.948c1.26-4.596-2.146-9.908-0.016-15.055c2.065-4.991,6.347-5.151,8.746-9.141
	c4.327-7.197,0.819-16.21,4.176-23.776c3.535-7.965,13.35-14.859,21.856-17.025c7.052-1.796,11.382,2.435,18.025,2.038
	c6.887-0.411,9.049-6.405,14.968-9.061c21.164-9.495,43.205-3.954,65.445-1.929c12.285,1.119,12.186-3.837,20.756-9.299
	c7.753-4.94,19.844-3.73,29.051-3.752c10.858-0.026,24.329-0.404,34.05,4.758c7.979,4.237,14.339,12.053,22.147,16.294
	c16.996,9.23,38.628,14.169,56.832,21.726c8.725,3.622,22.521,12.361,31.941,12.216c9.854-0.153,18.722-9.104,29.004-9.993"/>
<path opacity="0.6" fill="none" stroke="#010101" stroke-miterlimit="10" d="M38.945,227.357c4.047,3.287,18.533,10.574,24.052,9.02
	c5.2-1.465,4.296-6.357,8.119-9.794c3.348-3.01,8.033-3.599,11.829-5.003c9.465-3.503,12.496-3.458,20.251,3.503
	c6.729,6.04,15.729,11.216,19.769,18.995c1.472-10.478-8.542-18.446,1.785-25.991c6.964-5.089,20.689-4.351,28.97-4.729
	c11.866-0.542,21.58,1.734,32.993,3.219c13.622,1.772,12.453-6.068,22.233-11.996c8.412-5.1,22.303-5.723,31.952-8
	c9.855-2.326,18.763-6.633,29.048-7.223c6.691-0.384,21.099-4.314,27.023-2.075c2.95,1.115,5.179,7.882,7.948,8.17
	c3.451,0.358,8.911-7.674,10.977-10.095c3.226-3.781,5.642-10.985,9.028-13.801c6.637-5.518,9.267-0.065,15.023-0.18
	c14.82-0.295,21.061-14.579,31.952-21.29c11.435-7.047,26.444-2.844,38.539-7.487c9.802-3.763,17.816-12.196,27.509-16.242"/>
<path opacity="0.6" fill="none" stroke="#010101" stroke-miterlimit="10" d="M415.945,141.357
	c-11.291,4.558-26.575,9.472-38.274,16.003c-13.528,7.554-23.278,19.434-37.451,26.748c-24.999,12.9-49.964,25.785-76.028,36.002
	c-21.429,8.398-43.815,11.859-64.469,20.441c-21.311,8.854-40.776,11.678-63.777,12.782c-19.699,0.946-40.809-0.594-59.774-5.251
	c-8.655-2.125-15.924-5.689-24.256-8.944c-9.639-3.767-19.018-2.18-27.97-7.781"/>
<path opacity="0.6" fill="none" stroke="#010101" stroke-miterlimit="10" d="M24.945,250.357
	c18.713,22.138,15.114,49.223,42.271,66.023c17.757,10.985,37.358,20.37,57.9,24.147c40.933,7.526,87.223,22.908,126.023-0.9
	c9.665-5.931,16.793-11.181,27.338-14.47c12.838-4.005,24.523-9.446,35.71-17.02c17.745-12.014,35.383-25.055,46.532-43.781
	c12.482-20.967,20.587-45.116,32-66.777c10.464-19.86,13.647-40.383,29.226-56.223"/>
<path opacity="0.6" fill="none" stroke="#010101" stroke-miterlimit="10" d="M305.945,83.357c0,11.858,3.792,21.598-8.426,26.726
	c-11.118,4.667-24.959,5.007-36.57,7.223c-9.757,1.862-25.535,8.496-32.027-1.874c-6.195-9.896,1.857-22.612-0.199-32.995
	c-4.28,8.751,8.756,22.03,4.071,33.194c-4.904,11.688-31.184,15.453-41.872,17.722c-7.51,1.594-15.855,1.063-23.005,3.703
	c-8.76,3.233-13.884,9.52-19.098-2.454c-1.014-2.328-0.073-7.166-0.822-9.52c-0.839-2.635-4.113-7.134-5.267-10.694
	c-1.898-5.855-3.82-11.259-6.03-17c-4.851,16.753,16.818,35.703,3.491,48.191c-13.912,13.036-41.856,2.353-54.246-6.223"/>
<path opacity="0.6" fill="none" stroke="#010101" stroke-miterlimit="10" d="M120.945,246.357
	c-9.177-12.821-27.722-19.59-26.332-38.108c0.631-8.401,6.225-16.172,11.04-22.718c5.717-7.772,10.085-18.196,16.217-25.222
	c11.538-13.221,44.307-12.36,60.249-15.003c36.996-6.135,84.918-34.677,121.612-14.621c1.382,9.54,19.521,17.954,25.491,25.645
	c6.656,8.572,9.057,17.804,20.527,12.559c10.647-4.87,23.81-15.419,34.414-21.979c9.216-5.7,21.939-11.222,29.781-17.552"/>
<g opacity="0.4">
	<g>
		<path fill="#010101" d="M40.73,226.833c13.274-5.679,26.002-10.881,34.484-23.166c5.048-7.312,7.583-16.194,10.708-24.41
			c4.162-10.943,8.517-21.807,12.255-32.906c-3.672,1.494-7.345,2.988-11.017,4.482c9.101,5.746,17.803,11.608,27.792,15.756
			c-1.494-3.672-2.988-7.345-4.482-11.017c-5.023,7.691-12.17,13.763-17.388,21.357c-5.801,8.442-6.369,18.619-10.612,27.643
			c-0.66,1.402-1.382,2.781-2.088,4.162c-0.253,0.494-2.147,3.433-1.239,2.32c-0.271,0.313-0.563,0.604-0.875,0.874
			c0.69-0.525,0.661-0.538-0.089-0.037c-1.03,0.64-2.184,1.139-3.298,1.606c-4.668,1.959-9.106,4.173-13.614,6.473
			c-4.574,2.334-9.655,4.512-14.535,1.911c0.506,3.926,1.012,7.853,1.518,11.779c10.662-9.394,26.096-11.141,35.333-22.596
			c6.256-7.76,6.298-16.435,7.86-25.813c1.47-8.829,9.308-16.106,12.979-24.109c4.003-8.726-8.922-16.354-12.952-7.57
			c-3.734,8.14-9.771,14.951-13.148,23.292c-3.151,7.781-1.113,16.863-5.781,24.093c-3.296,5.105-10.182,7.84-15.422,10.323
			c-6.972,3.305-13.64,6.632-19.476,11.773c-3.563,3.139-2.581,9.596,1.518,11.779c12.078,6.438,23.257,1.5,34.413-4.372
			c6.86-3.61,14.086-5.104,18.533-11.953c5.603-8.631,7.167-18.748,10.727-28.193c3.995-10.598,14.495-17.841,20.588-27.172
			c2.916-4.465-0.272-9.269-4.482-11.017c-8.667-3.6-16.317-9.262-24.208-14.244c-4.294-2.711-9.525,0.052-11.017,4.482
			c-3.16,9.38-6.735,18.604-10.305,27.833c-3.115,8.054-5.583,16.515-9.947,24.007c-6.355,10.909-19.333,14.985-30.301,19.678
			c-3.762,1.608-4.561,7.068-2.691,10.261C32.725,227.993,36.972,228.441,40.73,226.833L40.73,226.833z"/>
	</g>
</g>
<g opacity="0.4">
	<g>
		<path fill="#010101" d="M122.207,158.516c20.028-10.745,43.643-11.624,65.686-15.304c16.369-2.732,36.94-5.984,47.211-20.593
			c-1.522-0.199-3.046-0.398-4.569-0.597c0.591,1.915,2.432,3.155,3,5c0.804-1.055,1.607-2.11,2.411-3.165
			c-2.357-0.188-4.641-0.812-7-1c-1.689-0.135-2.752,1.69-2.411,3.165c0.465,2.007,1.614,2.185,3.308,2.566
			c-0.582-0.582-1.164-1.164-1.746-1.746c-0.104,0.084-0.207,0.169-0.311,0.253c-1.027,2.31,1.06,4.549,3.42,3.42
			c6.424-3.072,14.316-3.286,21.283-3.832c8.956-0.703,17.944-1.113,26.847-2.377c14.589-2.071,32.056-6.89,34.108-23.95
			c0.331-2.748-3.38-3.014-4.658-1.262c-6.795,9.311-17.35,15.566-28.842,16.762c-3.227,0.336-3.206,4.642,0,5
			c8.803,0.984,17.298,3.578,24.232,9.268c2.443,2.005,5.909-1.268,3.535-3.535c-16.425-15.686-45.023-10.483-64.928-6.183
			c-13.389,2.893-26.213,7.351-39.118,11.877c-14.998,5.26-30.633,10.258-46.722,8.574c0.589,1.422,1.179,2.845,1.768,4.268
			c5.555-4.484,15.021-4.403,21.745-4.544c7.223-0.151,14.838,0.204,21.823,2.187c0-1.607,0-3.214,0-4.821
			c-18.916,2.695-63.082,9.346-59.835-21.589c0.336-3.206-4.667-3.173-5,0c-3.72,35.448,44.156,29.546,66.165,26.411
			c2.573-0.367,2.198-4.197,0-4.821c-8.215-2.333-17.198-2.58-25.674-2.297c-7.592,0.252-16.621,0.985-22.758,5.94
			c-1.896,1.53-0.125,4.069,1.768,4.268c28.229,2.955,54.899-12.78,81.61-19.343c10.938-2.688,22.087-4.646,33.356-5.084
			c11.055-0.43,23.868,0.675,32.266,8.695c1.179-1.178,2.356-2.357,3.535-3.535c-8.063-6.617-17.51-9.585-27.768-10.732
			c0,1.667,0,3.333,0,5c13.414-1.396,25.224-8.365,33.158-19.238c-1.553-0.42-3.105-0.841-4.658-1.262
			c-1.947,16.181-23.33,18.465-36.063,19.782c-8.242,0.852-16.526,1.193-24.775,1.961c-6.387,0.594-13.07,1.3-18.924,4.099
			c1.14,1.14,2.28,2.28,3.42,3.42c0.678-1.524,1.503-3.098,0.563-4.703c-0.314-0.537-0.875-1.01-1.493-1.149
			c-2.525-0.568-0.018,0.062,0.184,0.926c-0.804,1.055-1.607,2.11-2.411,3.165c2.357,0.188,4.641,0.812,7,1
			c1.607,0.128,2.863-1.695,2.411-3.165c-0.591-1.915-2.432-3.155-3-5c-0.671-2.177-3.338-2.35-4.569-0.597
			c-10.183,14.484-33.05,16.453-49.044,19.094c-21.127,3.489-42.851,4.704-62.06,15.009
			C116.842,155.723,119.367,160.04,122.207,158.516L122.207,158.516z"/>
	</g>
</g>
<g opacity="0.4">
	<g>
		<path fill="#010101" d="M305.16,98.833c12.4,9.532,26.748,13.631,41.562,17.823c18.149,5.135,34.542,14.561,52.229,20.933
			c0-4.821,0-9.643,0-14.464c-9.959,2.085-19.61,2.965-28.791,7.756c-7.852,4.098-12.909,10.892-19.225,16.848
			c-4.488,4.232-11.005,6.33-15.82,1.885c-5.655-5.221-9.505-12.482-14.407-18.382c-3.256-3.918-6.017-8.444-7.031-13.309
			c0.35,1.677,0.284-2.349-0.069-0.129c0.244-0.829,0.185-0.795-0.177,0.1c0.559-1.235-0.32,0.237-0.729,0.533
			c0.412-0.298,0.541-0.297,0.354-0.273c1.392-0.179,2.901-0.11,4.282,0.108c8.583,1.361,17.204,4.684,25.653,6.813
			c8.598,2.167,17.39,4.384,25.169,8.758c0-4.317,0-8.635,0-12.952c-8.312,3.774-17.97,2.821-23.927,10.959
			c-1.782,2.435-2.783,5.334-3.814,8.147c-0.124,0.337-1.062,2.116-0.712,1.702c0.782-0.925,0.903-0.209-0.768-0.564
			c1.44,0.307,1.738,1.106,0.392-0.292c-0.919-0.953-1.397-1.73-2.162-2.85c-2.154-3.156-4.017-6.518-5.871-9.854
			c-2.862-5.151-5.295-10.849-8.877-15.557c-3.42,3.42-6.841,6.841-10.261,10.261c12.267,6.133,24.524,12.3,37,18
			c0.597-4.569,1.194-9.139,1.791-13.708c-3.174,0.518-6.125-0.865-9.012-2c-3.811-1.498-8.229,1.611-9.227,5.238
			c-1.171,4.258,1.438,7.731,5.238,9.226c5.776,2.271,10.838,3.003,16.988,2c6.237-1.017,7.495-11.102,1.791-13.708
			c-12.476-5.7-24.733-11.867-37-18c-6.012-3.006-15.223,3.74-10.261,10.261c4.288,5.637,7.142,12.542,10.631,18.681
			c3.682,6.477,7.69,13.779,14.851,16.766c9.566,3.99,16.915-3.568,19.932-11.614c1.206-3.216,1.496-4.112,5.131-5.312
			c5.279-1.742,10.604-2.509,15.717-4.83c5.22-2.37,4.557-10.39,0-12.952c-9.38-5.275-19.903-8.041-30.268-10.652
			c-9.952-2.508-20.249-6.785-30.563-7.15c-7.086-0.25-14,3.552-15.757,10.727c-1.782,7.278,1.968,15.015,5.749,20.997
			c4.802,7.597,10.885,14.938,16.49,21.969c6.222,7.803,14.235,11.364,24.131,9.929c10.813-1.568,17.674-10.187,24.804-17.464
			c8.728-8.909,21.127-9.24,32.622-11.647c7.837-1.641,6.438-12.144,0-14.464c-16.62-5.988-32.052-14.86-49-20
			c-14.74-4.47-28.746-7.665-41.209-17.244c-3.25-2.499-8.391-0.502-10.261,2.691C300.206,92.436,301.926,96.347,305.16,98.833
			L305.16,98.833z"/>
	</g>
</g>
<g opacity="0.2">
	<g>
		<path fill="#010101" d="M29.939,219.589c20.688-4.067,32.019-26.1,40.146-43.414c4.116-8.77,8.358-17.564,12.026-26.529
			c3.955-9.664,6.877-19.733,11.186-29.254c3.979-8.793,9.178-17.119,17.729-22.026c10.385-5.959,24.538-7.499,36.206-8.968
			c13.442-1.693,27.504-3.149,41.059-2.752c7.068,0.207,14.271,1.736,21.334,1.047c7.145-0.696,13.784-3.057,20.385-5.745
			c15.665-6.377,32.146-9.486,49.104-9.319c18.537,0.183,33.562,11.454,48.789,20.696c7.91,4.801,16.552,8.558,24.93,12.474
			c9.26,4.329,18.704,8.313,28.42,11.503c18.647,6.122,38.705,7.982,57.687,2.286c9.24-2.773,5.301-17.251-3.988-14.464
			c-29.25,8.778-58.208-4.29-84.214-16.885c-13.071-6.331-24.953-14.4-37.719-21.271c-12.272-6.605-24.792-9.62-38.707-9.307
			c-12.992,0.292-27.15,2.075-39.466,6.339c-5.984,2.072-11.702,4.826-17.717,6.826c-7.263,2.414-13.975,1.922-21.486,1.301
			c-13.873-1.148-27.945,0.164-41.773,1.529c-13.534,1.336-27.176,3.316-40.151,7.502c-13.812,4.456-23.613,13.464-30.586,26.065
			c-6.899,12.466-10.583,26.454-15.956,39.582c-4.729,11.556-10.285,23.208-16.255,34.167c-5.494,10.084-12.875,21.774-24.97,24.152
			C16.465,206.99,20.492,221.446,29.939,219.589L29.939,219.589z"/>
	</g>
</g>
<g opacity="0.1">
	<g>
		<path fill="#010101" d="M29.642,241.661c10.162,11.561,27.708,14.82,42.15,17.166c19.74,3.205,39.819,6.148,59.804,7.058
			c21.45,0.977,43.23-1.458,64.333-5.148c20.825-3.641,41.389-9.254,61.01-17.146c8.972-3.609,5.632-16.045-3.988-14.465
			c-12.349,2.029-24.348,6.435-37.006,5.732c0.665,4.911,1.329,9.821,1.994,14.732c21.809-6.577,43.914-11.395,64.792-20.757
			c22.62-10.143,43.993-22.979,66.201-33.979c19.71-9.764,37.361-22.321,56.025-33.8c15.707-9.66,32.874-19.937,40.221-37.702
			c1.853-4.48-2.772-9.668-7.232-9.494c-12.555,0.493-25.466,8.684-31.476,19.715c-4.63,8.496,8.323,16.065,12.951,7.57
			c3.448-6.327,11.158-11.996,18.524-12.285c-2.411-3.165-4.821-6.329-7.232-9.494c-2.714,6.563-8.727,11.893-14.223,16.116
			c-7.146,5.493-14.975,10.064-22.631,14.795c-8.49,5.246-16.546,11.139-25.021,16.413c-9.403,5.852-19.17,11.098-29.091,16.012
			c-21.126,10.464-41.474,22.514-62.879,32.405c-20.099,9.287-41.826,13.659-62.917,20.02c-8.29,2.5-6.403,14.267,1.994,14.732
			c14.005,0.776,27.341-4.024,40.994-6.268c-1.329-4.821-2.659-9.644-3.988-14.465c-36.473,14.672-76.646,22.273-115.964,21.91
			c-19.28-0.178-38.54-3.336-57.579-6.116c-12.692-1.854-30.144-3.607-39.16-13.865C33.851,223.775,23.284,234.426,29.642,241.661
			L29.642,241.661z"/>
	</g>
</g>
<g opacity="0.1">
	<g>
		<path fill="#010101" d="M19.713,245.351c5.331,13.114,14.856,23.265,23.764,34.032c8.204,9.916,12.767,22.176,20.899,32.137
			c8.154,9.987,20.142,15.894,31.826,20.745c12.029,4.995,24.81,8.097,37.54,10.688c29.107,5.924,58.234,8.448,87.805,4.651
			c28.824-3.701,57.107-12.499,83.333-24.985c8.949-4.261,17.306-9.451,25.021-15.673c7.508-6.055,13.025-14.027,18.969-21.528
			c12.605-15.91,26.273-32.394,32.93-51.861c3.396-9.932,5.992-20.066,9.717-29.91c3.831-10.129,8.385-19.961,13.392-29.558
			c10.328-19.8,23.098-38.257,37.342-55.428c6.126-7.385-4.425-18.059-10.607-10.606c-17.891,21.567-33.522,44.799-45.502,70.172
			c-5.921,12.542-10.91,25.525-15.091,38.745c-1.787,5.648-2.996,11.56-5.388,16.995c-2.604,5.918-6.046,11.468-9.591,16.858
			c-7.092,10.783-15.299,20.783-23.283,30.903c-7.824,9.917-16.154,17.396-27.198,23.652
			c-24.395,13.816-53.063,22.304-80.603,26.709c-20.963,3.354-42.746,3.409-63.766,0.534c-18.592-2.544-37.444-6.349-55.164-12.581
			c-8.095-2.847-15.813-6.634-22.928-11.437c-7.361-4.97-11.613-12.656-15.874-20.218c-4.78-8.483-10.155-16.071-16.437-23.518
			c-6.113-7.247-13.018-14.594-16.641-23.507c-1.538-3.784-4.933-6.419-9.226-5.238C21.358,237.113,18.171,241.557,19.713,245.351
			L19.713,245.351z"/>
	</g>
</g>
<g opacity="0.1">
	<g>
		<path fill="#010101" d="M24.421,213.142c6.19-14.47,7.833-29.521,8.869-45.093c0.49-7.369,1.457-14.758,1.33-22.147
			c-0.132-7.713-1.428-15.344-1.367-23.07c0.105-13.186,10.48-24.967,17.348-35.416c6.674-10.155,13.982-19.355,23.252-27.287
			c16.064-13.745,36.89-20.547,57.68-22.502c11.474-1.079,23.052-0.782,34.526,0.113c12.356,0.964,24.36,3.449,36.789,2.021
			c21.973-2.524,41.706-13.12,63.135-17.847c21.255-4.689,41.569,2.331,59.534,13.578c36.095,22.598,60.068,59.925,95.643,83.341
			c8.105,5.335,15.611-7.659,7.57-12.952C389.391,79.986,363.893,36.972,321,15.768c-11.144-5.509-23.16-9.329-35.576-10.335
			c-12.103-0.981-24.394,1.803-35.879,5.358c-11.555,3.576-22.757,8.187-34.436,11.379c-12.168,3.326-23.596,3.478-36.035,1.911
			c-22.061-2.779-44.538-3.243-66.395,1.331c-20.967,4.387-40.172,14.723-55.498,29.652c-8.746,8.52-15.335,18.598-22.116,28.66
			c-7.161,10.625-15.661,22.392-16.62,35.634c-0.512,7.065,0.313,14.058,0.876,21.094c0.596,7.448-0.12,14.675-0.661,22.095
			c-1.056,14.493-1.382,29.444-7.192,43.025c-1.608,3.759-1.16,8.006,2.691,10.261C17.353,217.704,22.812,216.904,24.421,213.142
			L24.421,213.142z"/>
	</g>
</g>
<g opacity="0.1">
	<g>
		<path fill="#010101" d="M128.939,169.589c27.139-4.147,54.797-6.601,81.575-12.808c26.419-6.124,51.309-18.794,78.432-21.924
			c4.061-0.469,7.5-3.057,7.5-7.5c0-3.963-3.412-7.665-7.5-7.5c-18.041,0.728-36.078,2.067-53.869,5.268
			c-16.625,2.991-37.396,7.965-48.434,21.929c-3.57,4.516-2.406,10.55,3.31,12.535c9.863,3.426,20.892,3.335,30.987,1
			c9.436-2.183,5.428-16.553-3.987-14.464c-8.284,1.837-16.489,3.6-25.006,3.732c-9.663,0.15-9.68,15.101,0,15
			c4.868-0.05,10.617-1.075,15.215,0.976c0.597-4.569,1.194-9.139,1.792-13.708c-2.391,0.446-4.626,1.685-6.792,2.756
			c-6.548,3.239-3.598,14.603,3.785,13.976c1.514-0.128,3.005-0.208,4.508,0.062c0.802,0.167,1.589,0.387,2.362,0.659
			c-1.231-0.389,2.815-8.725-1.655-6.696c-3.062,1.389-4.209,5.462-3.447,8.47c0.437,1.723,0.943,3.317,1.701,4.94
			c3.018,6.468,11.685,3.64,13.708-1.792c0.572-1.537,0.323-3.528,0.323-5.143c0-6.817-8.039-9.562-12.803-5.303
			c-5.366,4.794-0.576,12.404,3,16.606c2.962,3.482,9.827,2.687,11.779-1.518c2.383-5.133,3.821-10.103,4.024-15.785
			c0.346-9.677-14.656-9.644-15,0c-0.104,2.907-0.747,5.567-1.976,8.215c3.926-0.506,7.853-1.012,11.779-1.518
			c0.47,0.629,0.379,0.468-0.271-0.482c-0.777-1.191-1.111-3.427-0.725-0.042c-0.732,1.768-1.464,3.536-2.197,5.303
			c0.064-0.058,0.129-0.115,0.193-0.173c-4.268-1.768-8.536-3.536-12.803-5.303c-0.262,1.561-0.191,1.946,0.212,1.155
			c4.569-0.597,9.139-1.194,13.708-1.792c1.008,2.16-0.045-0.789-0.189-1.357c-1.149,2.823-2.298,5.646-3.447,8.47
			c5.701-2.586,10.508-9.371,5.945-15.323c-4.251-5.546-12.045-7.22-18.73-6.653c1.262,4.659,2.523,9.317,3.785,13.976
			c1.144-0.565,1.979-1.015,3.208-1.244c6.12-1.141,7.625-11.105,1.792-13.708c-7.531-3.36-14.713-3.107-22.785-3.024c0,5,0,10,0,15
			c9.826-0.152,19.436-2.147,28.994-4.268c-1.329-4.821-2.658-9.643-3.987-14.464c-7.605,1.759-15.619,1.568-23.013-1
			c1.104,4.178,2.207,8.357,3.31,12.535c9.506-12.026,27.608-15.426,41.816-18.071c16.43-3.059,33.207-4.059,49.881-4.732
			c0-5,0-10,0-15c-27.964,3.227-53.549,15.173-80.632,22.026c-27.18,6.877-55.694,9.013-83.362,13.242
			c-4.048,0.618-6.226,5.637-5.238,9.226C120.891,168.633,124.901,170.206,128.939,169.589L128.939,169.589z"/>
	</g>
</g>
<g opacity="0.1">
	<g>
		<path fill="#010101" d="M123.177,233.363c-3.564-8.683-9.81-14.997-14.756-22.791c-5.32-8.385-16.661-1.115-12.952,7.57
			c2.781,6.513,7.483,11.607,14.482,13.447c5.162,1.356,8.892-2.443,9.494-7.232c0.061,0.561-0.075,1.067-0.406,1.521
			c0.133-0.313,1.256-1.729,0.254-0.555c1.002-1.174,0.858-0.95,2.639-2.006c3.08-1.825,6.491-2.769,9.996-3.72
			c8.135-2.206,16.578-3.24,24.977-3.719c8.395-0.478,16.535,0.896,24.897,1.331c13.462,0.702,26.039-5.766,38.949-8.526
			c6.718-1.438,13.665-1.995,20.438-3.184c7.272-1.276,14.494-2.832,21.694-4.465c7.197-1.632,14.365-3.393,21.54-5.123
			c5.72-1.38,11.443-2.021,17.223-3.045c11.063-1.962,20.878-10.62,24.535-21.25c3.996-11.616-3.73-21.216-8.761-31.045
			c-4.407-8.613-17.349-1.022-12.951,7.57c2.301,4.497,5.419,8.807,7.265,13.513c1.783,4.549-1.042,8.344-4.075,11.677
			c-6.378,7.01-18.688,6.061-27.224,8.114c-13.748,3.309-27.481,6.665-41.388,9.254c-6.82,1.271-13.7,2.048-20.537,3.185
			c-7.059,1.174-13.89,3.573-20.707,5.678c-5.352,1.651-10.39,2.802-16.002,2.646c-5.359-0.147-10.677-1.12-16.028-1.43
			c-7.146-0.413-14.447,0.368-21.52,1.311c-13.826,1.843-37.634,4.948-39.809,22.267c3.165-2.411,6.329-4.821,9.494-7.232
			c-3.203-0.842-4.297-3.694-5.518-6.553c-4.317,2.523-8.635,5.047-12.952,7.57c4.126,6.503,10.281,11.989,13.244,19.209
			c1.551,3.778,4.923,6.422,9.226,5.238C121.522,241.603,124.733,237.152,123.177,233.363L123.177,233.363z"/>
	</g>
</g>
<g opacity="0.05">
	<g>
		<path fill="#010101" d="M33.035,271.267c7.86,9.512,20.639,14.645,32.065,18.223c11.813,3.699,24.193,5.331,36.422,6.959
			c12.566,1.673,24.865,2.491,37.545,1.427c8.814-0.739,17.589-2.079,26.331-3.403c3.706-0.562,7.408-1.147,11.113-1.712
			c1.856-0.283,3.715-0.552,5.574-0.818c-5.833,0.836,2.306-0.266,3.348-0.385c16.537-1.893,32.923-3.246,49.192-7.009
			c14.578-3.371,28.808-8.125,42.858-13.229c26.999-9.811,56.203-14.297,80.495-30.609c9.525-6.396,16.89-15.068,24.108-23.85
			c7.112-8.652,14.692-16.915,21.767-25.593c7.741-9.497,9.325-22.495,0-31.82c-8.011-8.01-24.061-9.519-31.82,0
			c-9.229,11.321-18.854,22.465-28.416,33.513c-2.186,2.525-4.479,4.951-6.856,7.296c-1.133,1.118-2.33,2.166-3.532,3.208
			c4.422-3.834,0.431-0.538-0.658,0.164c-2.723,1.756-5.581,3.293-8.461,4.77c-1.451,0.744-2.933,1.427-4.413,2.11
			c-2.276,1.002-1.988,0.896,0.863-0.317c-1.015,0.418-2.033,0.826-3.056,1.223c-12.804,5.047-26.207,8.433-39.376,12.363
			c-14.027,4.187-27.615,9.675-41.685,13.768c-6.846,1.991-13.772,3.689-20.75,5.146c-3.512,0.733-7.048,1.348-10.59,1.918
			c-0.969,0.155-7.037,0.939-1.192,0.198c-2.421,0.307-4.851,0.541-7.282,0.764c-16.974,1.554-33.724,4.209-50.592,6.596
			c5.708-0.808-0.519,0.036-1.417,0.143c-1.849,0.218-3.701,0.395-5.555,0.567c-3.706,0.347-7.424,0.527-11.144,0.623
			c-6.633,0.17-13.196-0.421-19.771-1.209c-1.904-0.228-10.033-1.316-1.829-0.198c-2.472-0.337-4.938-0.714-7.4-1.109
			c-5.655-0.91-11.271-2.051-16.821-3.464c-2.521-0.642-5.012-1.395-7.484-2.204c-1.192-0.39-2.368-0.828-3.542-1.27
			c-4.313-1.618,5.032,2.26,0.942,0.387c-2.035-0.932-3.976-2.045-5.854-3.259c-3.49-2.257,4.37,3.648,1.309,1.031
			c-0.967-0.827-1.811-1.778-2.618-2.757c-7.822-9.466-23.767-8.053-31.82,0C23.753,248.73,25.231,261.822,33.035,271.267
			L33.035,271.267z"/>
	</g>
</g>
<g opacity="0.05">
	<g>
		<path fill="#010101" d="M34.445,268.357c0.569,26.167,21.478,44.34,43.768,54.327c9.885,4.43,20.016,8.154,30.617,10.435
			c14.959,3.219,30.66,3.715,45.912,3.872c16.176,0.166,32.348-0.488,48.524-0.309c14.147,0.157,27.462,1.118,41.534-1.205
			c27.928-4.611,49.55-27.51,69.168-45.992c17.672-16.649,35.461-32.988,51.217-51.521c8.627-10.147,16.714-20.808,24.226-31.806
			c1.579-2.312,3.08-4.674,4.639-6.999c0.6-0.876,1.214-1.74,1.845-2.594c-3.438,4.742-0.115,0.199,0.575-0.637
			c3.763-4.555,7.939-8.778,12.388-12.661c9.244-8.071,8.229-23.591,0-31.82c-9.107-9.107-22.59-8.058-31.82,0
			c-11.503,10.043-19.866,22.441-28.478,34.903c-1.973,2.854-4.016,5.661-6.08,8.45c-0.572,0.772-4.118,5.401-0.619,0.881
			c-1.036,1.338-2.094,2.66-3.15,3.982c-4.527,5.663-9.284,11.139-14.157,16.506c-9.486,10.447-19.613,20.297-29.943,29.901
			c-11.512,10.705-22.801,21.691-34.71,31.958c-1.352,1.164-2.721,2.305-4.112,3.422c4.689-3.763,0.681-0.54-0.279,0.167
			c-2.217,1.634-4.518,3.147-6.86,4.594c-2.13,1.315-4.351,2.474-6.606,3.556c-4.098,1.966,5.184-2.038,0.994-0.429
			c-1.455,0.56-2.948,1.012-4.444,1.447c-2.274,0.662-4.606,1.109-6.94,1.495c8.059-1.331-0.791-0.07-2.817,0.027
			c-6.62,0.321-13.194-0.308-19.802-0.51c-16.145-0.493-32.305,0.155-48.451,0.209c-7.772,0.026-15.542-0.131-23.303-0.545
			c-3.866-0.207-7.723-0.536-11.574-0.922c-1.458-0.146-8.036-1.165-0.576-0.005c-1.147-0.178-2.287-0.399-3.426-0.623
			c-5.508-1.081-10.918-2.658-16.227-4.466c-1.478-0.504-2.94-1.052-4.399-1.606c-5.652-2.149,3.496,1.576-0.147-0.012
			c-3.309-1.442-6.523-3.088-9.665-4.863c-2.724-1.539-5.328-3.276-7.843-5.134c5.932,4.381,1.494,1.07,0.224-0.075
			c-1.077-0.97-2.075-2.021-3.055-3.087c-3.838-4.172,2.392,3.462,0.305,0.433c-0.767-1.112-1.405-2.304-2.016-3.506
			c3.321,6.539,1.123,2.785,0.538,0.731c-1.547-5.43,0.157,5.757,0.032,0.029c-0.267-12.26-10.033-22.5-22.5-22.5
			C44.882,245.857,34.179,256.091,34.445,268.357L34.445,268.357z"/>
	</g>
</g>
<g opacity="0.2">
	<g>
		<path fill="#BA1F39" d="M58.445,197.357c0.023-5.272,0.307-10.523,0.812-15.771c0.13-1.35,0.292-2.696,0.453-4.042
			c-0.839,6.996-0.269,2.02-0.046,0.547c0.486-3.216,1.091-6.413,1.742-9.6c2.391-11.72,5.968-23.188,10.394-34.293
			c1.913-4.799-2.072,4.762-0.021,0.02c0.577-1.333,1.182-2.652,1.788-3.971c1.21-2.634,2.508-5.227,3.836-7.804
			c2.855-5.538,6.051-10.896,9.474-16.101c1.56-2.372,3.211-4.682,4.895-6.968c2.99-4.059-3.204,4.031-0.077,0.101
			c0.87-1.094,1.772-2.163,2.673-3.23c3.846-4.556,8.045-8.802,12.479-12.783c1.302-1.168,8.546-6.83,2.752-2.443
			c2.124-1.608,4.337-3.094,6.578-4.532c1.381-0.886,2.815-1.642,4.28-2.378c-4.885,2.456-0.182,0.257,1.011-0.098
			c1.204-0.357,6.746-1.248,0.49-0.427c2.166-0.284,4.362-0.31,6.542-0.318c3.313-0.012,6.626,0.35,9.91,0.746
			c-6.222-0.75-0.481-0.001,0.667,0.184c1.667,0.268,3.332,0.557,4.998,0.839c8.565,1.451,17.225,2.886,25.927,3.024
			c6.657,0.105,13.442-0.892,20.073-1.436c8.942-0.734,17.837-1.719,26.727-2.942c15.588-2.145,29.987-6.24,44.42-12.491
			c3.329-1.442,6.56-3.122,9.819-4.713c1.452-0.709,2.917-1.391,4.386-2.064c2.279-1.005,1.963-0.871-0.949,0.404
			c0.974-0.378,1.957-0.729,2.95-1.055c1.437-0.492,2.911-0.845,4.39-1.184c-3.574,0.366-4.133,0.445-1.675,0.238
			c2.482,0.032,1.886-0.129-1.792-0.483c4.736,0.946-4.388-2.381-0.058,0.084c1.769,1.007,3.4,2.281,5.032,3.49
			c7.041,5.217,14.788,8.536,23.157,11.148c3.647,1.138,7.331,2.143,10.963,3.333c1.072,0.351,6.214,2.481,0.747,0.107
			c2.041,0.886,3.951,1.963,5.74,3.279c1.348,0.992,2.679,2.008,4.01,3.023c-4.775-3.642,1.211,0.996,2.078,1.689
			c3.103,2.478,6.165,5.007,9.223,7.54c6.167,5.108,12.287,10.273,18.501,15.326c13.807,11.229,28.041,22.142,43.845,30.434
			c10.861,5.699,24.381,2.86,30.784-8.072c5.982-10.212,2.778-25.091-8.071-30.784c-6.011-3.153-11.788-6.668-17.42-10.453
			c-2.832-1.902-5.597-3.903-8.345-5.924c-1.379-1.014-2.74-2.053-4.102-3.09c4.688,3.572-1.354-1.104-2.196-1.775
			c-11.144-8.886-21.874-18.275-33.045-27.127c-6.271-4.968-12.409-10.369-19.797-13.578c-7.87-3.419-15.915-5.651-24.042-8.309
			c-1.121-0.367-6.179-2.484-0.612-0.057c-1.347-0.587-2.596-1.31-3.844-2.078c-2.566-1.578-4.907-3.549-7.35-5.307
			c-7.493-5.391-17.058-8.339-26.267-7.118c-9.502,1.26-17.294,4.103-26.038,8.113c-2.903,1.332-5.752,2.784-8.623,4.183
			c-1.36,0.663-2.734,1.296-4.113,1.92c6.36-2.88-0.371,0.053-1.714,0.563c-6.438,2.439-13.166,4.082-19.905,5.434
			c-3.419,0.687-6.869,1.22-10.319,1.72c6.017-0.873,0.11-0.044-0.952,0.081c-2.308,0.272-4.62,0.501-6.933,0.729
			c-6.803,0.669-13.623,1.162-20.436,1.72c-3.31,0.271-6.577,0.505-9.901,0.453c-1.661-0.026-3.319-0.171-4.973-0.308
			c-1.11-0.103-2.218-0.223-3.325-0.361c3.207,0.44,3.535,0.473,0.986,0.098c-16.949-2.57-32.845-5.819-49.921-2.248
			C93.74,33.846,78.042,47.642,66.234,60.272C54.94,72.354,45.452,86.335,37.884,101.016
			c-15.226,29.534-24.291,63.028-24.438,96.341c-0.054,12.266,10.276,22.5,22.5,22.5C48.251,219.857,58.391,209.622,58.445,197.357
			L58.445,197.357z"/>
	</g>
</g>
<g opacity="0.2">
	<g>
		<path fill="#BA1F39" d="M24.589,265.785c23.015,16.248,47.654,29.656,75.271,36.17c33.106,7.81,67.522,0.531,100.206-6.292
			c28.938-6.042,55.626-19.395,82.312-31.637c0.872-0.4,6.437-2.623,1.152-0.59c1.585-0.609,3.188-1.169,4.789-1.73
			c3.135-1.1,6.308-2.089,9.48-3.072c6.692-2.076,13.417-4.034,20.023-6.381c7.422-2.636,14.761-5.768,21.667-9.563
			c7.692-4.227,14.347-10.025,21.157-15.497c17.955-14.427,36.096-27.592,49.727-46.48c7.192-9.965,1.744-25.034-8.071-30.784
			c-11.351-6.649-23.622-1.852-30.784,8.072c-3.122,4.325,3.174-3.854-0.239,0.339c-0.996,1.224-2.056,2.395-3.111,3.567
			c-2.17,2.408-4.497,4.672-6.847,6.902c-5.28,5.012-10.96,9.601-16.657,14.125c-5.256,4.175-10.588,8.254-15.837,12.438
			c-1.272,1.015-2.532,2.044-3.791,3.074c-4.71,3.858,3.718-2.616-1.078,0.854c-3.188,2.308-6.613,4.271-10.093,6.098
			c-1.445,0.759-2.93,1.44-4.411,2.124c-5.073,2.338,4.59-1.818-0.584,0.215c-2.988,1.175-6.038,2.194-9.089,3.194
			c-6.718,2.203-13.526,4.12-20.25,6.311c-14.927,4.863-28.949,12.221-43.229,18.677c-3.004,1.358-6.022,2.683-9.051,3.986
			c5.526-2.379,0.353-0.161-0.662,0.255c-1.512,0.62-3.034,1.217-4.556,1.813c-6.697,2.624-13.516,4.919-20.422,6.925
			c-14.515,4.217-29.599,6.368-44.459,8.994c-3.671,0.648-7.353,1.234-11.043,1.77c5.709-0.827-0.506,0.012-1.413,0.111
			c-1.852,0.203-3.709,0.347-5.566,0.488c-3.726,0.282-7.461,0.348-11.196,0.313c-1.88-0.019-3.758-0.131-5.634-0.246
			c-1.259-0.088-2.517-0.2-3.771-0.336c2.83,0.419,2.929,0.424,0.3,0.014c-6.715-1.073-13.361-2.925-19.844-4.948
			c-3.041-0.949-6.037-2.037-9.013-3.17c-1.117-0.425-6.137-2.546-0.402-0.098c-1.896-0.81-3.765-1.683-5.629-2.563
			c-12.949-6.121-24.963-14.055-36.638-22.297c-10.038-7.087-24.986-1.826-30.785,8.071
			C9.917,246.268,14.591,258.727,24.589,265.785L24.589,265.785z"/>
	</g>
</g>
<g opacity="0.2">
	<g>
		<path fill="#BA1F39" d="M35.517,289.713c11.422,22.801,37.406,33.999,60.126,41.912c9.688,3.373,19.583,6.1,29.373,9.154
			c14.755,4.604,29.354,7.999,44.954,7.661c15.704-0.34,31.315-3.988,46.354-8.262c13.849-3.936,27.624-7.975,40.983-13.383
			c26.605-10.771,51.11-25.034,74.464-41.657c12.978-9.238,25.557-19.038,38.085-28.872c9.664-7.587,7.891-23.93,0-31.82
			c-4.201-4.2-9.967-6.59-15.91-6.59c-6.534,0-10.984,2.724-15.91,6.59c-2.693,2.114-5.391,4.223-8.096,6.322
			c4.514-3.504-0.042,0.027-0.814,0.62c-1.336,1.024-2.676,2.043-4.017,3.061c-5.731,4.352-11.529,8.614-17.392,12.787
			c-11.037,7.856-22.402,15.248-34.156,21.987c-5.619,3.222-11.357,6.231-17.17,9.088c-2.927,1.438-5.891,2.801-8.865,4.136
			c-0.993,0.445-6.187,2.647-0.657,0.328c-2.033,0.853-4.085,1.66-6.139,2.462c-13.506,5.27-27.576,9.16-41.544,12.995
			c-6.657,1.828-13.382,3.378-20.19,4.524c-5.722,0.963,5.069-0.563-0.675,0.1c-1.663,0.191-3.333,0.311-5.003,0.429
			c-3.927,0.276-7.866,0.234-11.795,0.043c-1.719-0.083-3.431-0.262-5.142-0.44c6.021,0.629,0.097-0.066-0.989-0.265
			c-3.647-0.665-7.228-1.652-10.772-2.729c-5.088-1.545-10.116-3.287-15.212-4.816c-10.265-3.08-20.527-6.161-30.521-10.054
			c-1.336-0.521-5.796-2.419,0.482,0.255c-1.207-0.515-2.4-1.061-3.592-1.607c-2.343-1.074-4.635-2.255-6.9-3.484
			c-2.194-1.19-4.313-2.509-6.395-3.884c-1.01-0.668-1.986-1.386-2.959-2.105c5.833,4.31,1.276,0.874,0.04-0.252
			c-1.47-1.34-6.555-7.575-1.773-1.316c-1.336-1.75-2.431-3.665-3.415-5.63c-5.49-10.958-20.723-13.965-30.785-8.071
			C32.509,265.419,30.024,278.748,35.517,289.713L35.517,289.713z"/>
	</g>
</g>
<g opacity="0.2">
	<g>
		<path fill="#BA1F39" d="M122.302,234.785c7.792-5.685,13.556-12.176,18.512-20.492c1.627-2.73,3.138-5.529,4.778-8.253
			c0.816-1.354,1.7-2.662,2.611-3.953c-4.105,5.814-0.98,1.37,0.288,0.072c4.102-4.198-3.052,1.886,0.162-0.179
			c0.718-0.436,1.456-0.833,2.215-1.193c-3.341,1.399-3.93,1.669-1.768,0.808c1.573-0.615,3.229-0.988,4.878-1.327
			c-7,1.438-1.763,0.301,0.292,0.315c3.99,0.028-5.854-1.365,0.11,0.059c0.778,0.205,1.543,0.45,2.295,0.733
			c-3.506-1.573-4.228-1.82-2.163-0.74c3.166,1.732-3.977-4.019-0.033,0.193c-2.215-3.048-2.697-3.585-1.447-1.609
			c1.043,2.083,0.782,1.457-0.784-1.88c5.238-9.226,10.477-18.452,15.715-27.678c-0.957,0.284-1.926,0.523-2.905,0.715
			c5.943-1.309,3.307-0.377,1.252-0.451c8.031,0.289,12.932,5.269,15.681,12.422c-0.531-2.164-0.375-0.913,0.47,3.752
			c-0.193-3.647-1.249,6.342-0.299,2.571c0.958-3.805-2.603,5.387-0.757,1.668c0.495-0.996,1.124-1.921,1.743-2.841
			c-4.151,6.167,0.249,0.082,1.8-1.405c3.52-3.372-4.252,2.883-0.451,0.307c1.373-0.93,5.36-2.57-1.122,0.106
			c1.945-0.804,8.593-1.538,1.093-0.749c2.81-0.295,5.669-0.106,8.477,0.1c0-15,0-30,0-45c-6.243-0.369-12.383,0.201-18.571,1.001
			c-2.613,0.351-5.226,0.702-7.839,1.054c-6.266,0.842,4.82-0.602-1.447,0.176c-3.703,0.459-7.413,0.717-11.143,0.77
			c-12.262,0.173-22.5,10.104-22.5,22.5c0,12.516,10.242,22.168,22.5,22.5c16.272,0.44,32.465-1.631,48.455-4.513
			c15.087-2.719,30.46-5.806,45.272-9.756c7.095-1.893,14.337-3.22,21.598-4.288c-5.813,0.855,0.185,0.017,1.171-0.094
			c1.698-0.191,3.388-0.344,5.095-0.416c1.446-0.06,2.892-0.018,4.336,0.034c4.849,0.175-5.502-1.002-1.076-0.227
			c1.071,0.188,2.112,0.501,3.149,0.821c3.934,1.212-5.264-2.516-1.696-0.669c0.873,0.452,1.687,1.014,2.496,1.568
			c-5.811-3.976-2.771-2.17-1.388-0.951c4.158,3.667,7.778,7.967,11.679,11.9c3.31-12.536,6.619-25.071,9.929-37.606
			c-2.491,0.823-4.985,1.433-7.568,1.892c6.684-1.189-2.053-0.049-3.712-0.005c-5.672,0.15-11.36-0.315-17.01-0.747
			c-12.956-0.99-25.037-1.369-37.919,1.019c-22.949,4.253-44.031,16.897-64.166,28.109c-10.7,5.958-14.171,20.373-8.072,30.785
			c6.29,10.736,20.066,14.04,30.785,8.071c8.796-4.897,17.546-9.866,26.589-14.302c2.576-1.264,5.189-2.448,7.815-3.604
			c-5.453,2.399,2.991-1.087,4.266-1.549c5.332-1.931,10.817-3.391,16.391-4.423c2.542-0.403,2.19-0.368-1.055,0.105
			c1.087-0.133,2.179-0.208,3.273-0.226c2.784-0.117,5.577-0.026,8.36,0.076c5.734,0.212,11.456,0.775,17.178,1.195
			c12.229,0.896,25.045,0.88,36.808-3.006c15.893-5.25,22.298-25.133,9.929-37.606c-9.532-9.611-17.809-18.719-30.948-23.42
			c-6.673-2.387-14.684-2.672-21.707-2.003c-9.242,0.88-18.479,2.254-27.579,4.095c-15.713,3.178-31.262,7.229-46.977,10.441
			c-3.595,0.735-7.203,1.403-10.818,2.033c-1.808,0.314-3.62,0.596-5.434,0.875c-2.596,0.373-2.421,0.358,0.522-0.045
			c-1.218,0.154-2.438,0.298-3.658,0.432c-8.071,0.917-16.194,1.223-24.311,1.003c0,15,0,30,0,45
			c7.626-0.107,15.15-1.276,22.696-2.3c2.613-0.357,2.476-0.338-0.41,0.061c1.854-0.239,3.711-0.427,5.571-0.604
			c3.712-0.352,7.424-0.377,11.143-0.157c12.255,0.725,22.5-10.783,22.5-22.5c0-12.946-10.273-21.601-22.5-22.5
			c-20.787-1.529-41.359,8.557-50.864,27.712c-4.937,9.949-7.164,23.235-0.229,32.957c9.13,12.8,23.461,15.481,38.075,11.527
			c11.265-3.048,19.711-16.115,15.715-27.678c-4.812-13.922-14.286-22.964-28.138-27.789c-12.613-4.393-26.402-1.388-38.16,3.818
			c-9.833,4.354-17.061,12.99-22.608,21.923c-2.093,3.37-3.928,6.896-6.002,10.278c-0.414,0.665-0.84,1.323-1.279,1.973
			c-2.448,3.702,3.527-4.243,0.715-0.84c-1.274,1.543-6.478,5.492-0.581,1.19c-9.886,7.213-14.745,19.392-8.072,30.784
			C97.244,236.489,112.372,242.029,122.302,234.785L122.302,234.785z"/>
	</g>
</g>
<g opacity="0.2">
	<g>
		<path fill="#BA1F39" d="M47.445,202.357c-0.089-12.141-1.896-24.202-2.326-36.332c-0.105-2.971-0.078-5.942,0.036-8.912
			c0.054-1.419,0.179-2.833,0.309-4.247c-0.622,6.783-0.303,2.197-0.009,0.63c0.462-2.464,1.233-4.846,2.187-7.159
			c-2.482,6.02-0.499,1.579,0.22,0.32c0.68-1.191,4.679-6.599,0.68-1.444c8.599-11.084,18.464-20.429,24.667-33.246
			c4.291-8.867,7.95-18.053,12.728-26.678c0.99-1.787,2.073-3.519,3.204-5.219c0.554-0.833,1.148-1.637,1.744-2.44
			c-4.366,5.887-2.113,2.757-0.998,1.475c1.324-1.522,2.791-2.912,4.301-4.247c3.088-2.728-4.648,3.412-1.266,0.934
			c1.182-0.865,2.431-1.634,3.684-2.389c1.583-0.954,9.166-4.391,2.174-1.444c2.527-1.065,5.142-1.914,7.762-2.712
			c3.347-1.02,6.733-1.677,10.185-2.229c-5.43,0.868,0.946-0.036,1.748-0.112c2.568-0.246,5.146-0.369,7.723-0.484
			c15.94-0.714,31.89,0.784,47.836,0.194c16.515-0.61,32.938-3.942,48.803-8.417c10.969-3.094,21.798-6.655,32.818-9.567
			c5.041-1.332,10.134-2.449,15.27-3.345c2.556-0.393,2.236-0.371-0.959,0.067c1.654-0.218,3.317-0.359,4.98-0.497
			c2.13-0.177,4.29-0.119,6.423-0.054c1.674,0.051,3.343,0.214,5.007,0.393c-7.846-0.841-0.503,0.057,1.326,0.458
			c3.998,0.878,7.886,2.204,11.684,3.714c-6.851-2.723-1.22-0.457,0.258,0.253c1.871,0.899,3.695,1.894,5.508,2.905
			c3.687,2.059,7.222,4.383,10.687,6.792c1.408,0.98,2.789,1.999,4.167,3.022c1.871,1.417,1.384,1.03-1.463-1.159
			c1.031,0.798,2.048,1.614,3.064,2.43c3.418,2.743,6.745,5.6,10.046,8.482c6.291,5.492,12.424,11.161,18.65,16.725
			c12.942,11.564,26.567,23.344,42.287,30.967c11.036,5.351,24.234,3.109,30.784-8.072c5.833-9.957,2.96-25.435-8.071-30.784
			c-4.228-2.05-8.264-4.41-12.188-6.992c-2.032-1.337-4.008-2.76-5.967-4.201c-1.181-0.868-4.797-3.706,0.608,0.507
			c-1.323-1.031-2.625-2.091-3.925-3.153c-8.407-6.871-16.354-14.293-24.427-21.549c-18.279-16.428-37.169-31.639-60.348-40.457
			c-27.229-10.359-55.838-2.959-82.583,5.087c-14.363,4.321-28.576,8.303-43.378,10.805c5.571-0.942-0.614,0.045-1.52,0.137
			c-1.88,0.19-3.768,0.3-5.653,0.413c-3.785,0.227-7.581,0.259-11.371,0.266c-8.292,0.015-16.581-0.362-24.871-0.495
			c-24.01-0.385-51.356,1.693-71.162,16.908c-8.311,6.384-14.953,13.542-20.406,22.584c-4.084,6.772-7.145,14.152-10.423,21.332
			c-1.868,4.09-3.832,8.129-5.803,12.17c-1.07,2.194-2.482,4.218-3.898,6.198c3.585-5.01,0.566-0.795-0.25,0.181
			c-0.986,1.178-2.011,2.325-3.028,3.476c-8.915,10.088-16.663,19.692-21.338,32.485c-3.844,10.518-3.626,22.927-3.053,33.977
			c0.55,10.592,2.047,21.134,2.125,31.75c0.089,12.264,10.167,22.5,22.5,22.5C37.143,224.857,47.535,214.623,47.445,202.357
			L47.445,202.357z"/>
	</g>
</g>
<g opacity="0.1">
	<g>
		<path fill="#BA1F39" d="M72.964,303.053c55.255,15.746,113.932,15.728,168.963-1c23.103-7.022,43.587-18.853,63.002-32.979
			c18.54-13.49,36.261-28.116,56.373-39.289c10.707-5.947,14.166-20.38,8.071-30.784c-6.294-10.744-20.06-14.029-30.784-8.071
			c-18.739,10.409-35.479,23.785-52.634,36.536c-8.683,6.454-17.546,12.659-26.843,18.2c-4.45,2.652-9.034,5.071-13.702,7.316
			c-0.943,0.448-1.892,0.887-2.845,1.315c-4.978,2.269,4.661-1.866-0.437,0.192c-2.972,1.2-6.003,2.244-9.051,3.229
			c-12.582,4.066-25.505,7.115-38.53,9.355c-1.245,0.21-2.492,0.41-3.74,0.603c-0.858,0.136-7.165,0.971-1.504,0.241
			c-3.114,0.401-6.238,0.714-9.364,1.006c-6.854,0.638-13.737,0.938-20.619,1.043c-6.252,0.096-12.505-0.095-18.748-0.437
			c-3.127-0.172-6.249-0.43-9.368-0.71c-1.875-0.168-3.747-0.375-5.618-0.582c-0.866-0.096-7.153-0.938-1.504-0.155
			c-13.238-1.834-26.31-4.761-39.156-8.422c-11.79-3.359-24.449,3.978-27.678,15.715C53.975,287.278,61.177,299.695,72.964,303.053
			L72.964,303.053z"/>
	</g>
</g>
</svg>
