<?xml version="1.0" encoding="utf-8"?>
<!-- Generator: Adobe Illustrator 16.0.0, SVG Export Plug-In . SVG Version: 6.00 Build 0)  -->
<!DOCTYPE svg PUBLIC "-//W3C//DTD SVG 1.1//EN" "http://www.w3.org/Graphics/SVG/1.1/DTD/svg11.dtd">
<svg version="1.1" id="Layer_1" xmlns="http://www.w3.org/2000/svg" xmlns:xlink="http://www.w3.org/1999/xlink" x="0px" y="0px"
	 width="544.115px" height="303.722px" viewBox="0 0 544.115 303.722" enable-background="new 0 0 544.115 303.722"
	 xml:space="preserve">
<path fill="none" stroke="#010101" stroke-miterlimit="10" d="M12,74.078c21.248,0,34.862-9.331,53.194-17.803
	c19.615-9.064,40-17.577,60.977-25.169c30.316-10.971,58.352-23.707,90.904-25.025c11.519-0.466,24.102,0.074,34.925,4.171
	c13.914,5.266,18.194,9.944,34.075,6.02c19.609-4.845,43.862-8.4,63.996-2c20.491,6.514,40.642,17.109,60.464,25.557
	c21.092,8.988,41.926,16.432,63.543,25.05c17.324,6.906,36.626,11.936,50.922,24.199"/>
<path fill="none" stroke="#010101" stroke-miterlimit="10" d="M10,104.078c19.854-8.809,36.298-16.99,59.023-11.246
	c10.016,2.532,18.521,6.726,29.025,7.246c11.895,0.588,24.246-2.165,35.955-4c23.452-3.675,46.209-8.854,69.754-11.223
	c12.499-1.257,25.373-2.647,38.013-0.503c9.906,1.68,18.869,5.169,29.011,5.726c16.309,0.896,30.779-3.003,46.777-3
	c20.178,0.004,38.677,10.638,58.647,12.945c22.801,2.634,47.458-0.941,70.719-0.945c22.702-0.004,46.243-6.203,68.075,3"/>
<path fill="none" stroke="#010101" stroke-miterlimit="10" d="M46,104.078c7.743-0.403,21.175,9.38,30.171,11.223
	c12.851,2.631,22.081,2.409,34.9,0.507c22.625-3.356,33.938,9.3,52.758,18.489c19.654,9.597,36.202,20.003,59.194,20.781
	c13.148,0.445,22.406,8.529,35.997,9c11.508,0.398,20.456-4.403,30.712-8.246c13.678-5.125,27.011-9.078,40.162-14.758
	c15.491-6.689,32.808-15.89,49.907-14.996c17.14,0.896,32.544,9.01,50.046,8.044c23.721-1.308,51.853-11.854,74.153-20.044"/>
<path fill="none" stroke="#010101" stroke-miterlimit="10" d="M22,138.078c17.772,2.265,37.02,39.111,47.023,52.023
	c14.561,18.795,24.917,40.162,36.954,60.728c22.777,38.916,70.898,48.089,111.772,46.197c19.897-0.921,40.156-4.958,60.276-3
	c12.215,1.189,24.111,6.096,36.224,6.829c15.305,0.927,30.802,1.757,46.019,0.445c22.637-1.952,41.409-11.593,59.707-24.196
	c18.021-12.411,42.497-29.613,55.3-47.979c18.7-26.825,25.514-61.882,43.726-89.048"/>
<path fill="none" stroke="#010101" stroke-miterlimit="10" d="M152,95.078c6.639,7.024,8.903,12.916,20.171,13
	c12.08,0.09,14.368-6.7,13.829-16.143c0,11.551-2.094,15.676,8.925,19.116c10.671,3.332,23.721,3.861,34.884,5.027
	c8.46,0.883,21.908,6.451,30.19,2.297c6.977-3.499,8.087-13.029,10.052-20.093c-0.108,7.04-2.154,19.563,4.702,23.644
	c7.658,4.558,25.814-2.925,33.826-3.626c8.237-0.721,19.733,1.354,27.439-1.226c8.113-2.716,7.029-8.105,6.929-16.472
	c1.037,3.928,2.817,7.534,4.175,11.324c17.098,0.917,53.616,6.063,61.877-10.849"/>
<path fill="none" stroke="#010101" stroke-miterlimit="10" d="M173,133.078c6.727-2.976,28.462-13.321,37.052-9.048
	c8.527,4.242,8.258,21.921,9.703,29.091c0.943-6.156,2.423-20.879,7.178-25.063c5.571-4.902,18.347-1.572,24.849-1.203
	c22.274,1.265,13.306,13.227,20.242,28.742c-0.396-4.224,0.298-18.988,3.683-22.621c4.473-4.8,16.152-3.262,22.29-3.843
	c10.396-0.984,26.035-3.707,27.374,10.817c3.254-0.071,6.767-1.121,9.63-2.872"/>
<g opacity="0.5">
	<g>
		<path fill="#010101" d="M46,105.578c18.497,0.195,36.129,6.57,54.502,8.044c9.281,0.745,18.412-0.705,27.597-1.802
			c4.339-0.519,8.68-0.811,13.048-0.618c1.821,0.081,3.52,0.522,5.259,1.039c0.678,0.201,2.478,1.567,0.709,0.152
			c6.823,5.459,12.762,12.088,20.525,16.309c4.599,2.501,9.101,3.185,13.976,1.12c5.405-2.29,6.228-9.768,5.884-14.744
			c-0.292-4.237-3.197-7.288-7.5-7.5c-5.284-0.261-9.752-1.425-14.994,0.268c-9.15,2.955-5.334,17.234,3.987,14.464
			c12.082-3.589,43.833-1.792,43.506,15.768c4.911-0.665,9.821-1.329,14.732-1.994c-0.197-0.588-0.373-1.182-0.527-1.783
			c-0.025-0.09-0.385-2.693-0.246-1.112c-0.142-1.609,0.023-1.199-0.353-0.317c0.594-1.396,0.308-0.383-0.304,0.041
			c0.338-0.234,1.926-0.88,0.215-0.215c0.571-0.222,1.172-0.364,1.765-0.51c1.103-0.272,3.229-0.39,5.932-0.383
			c3.082,0.007,6.165,0.233,9.239,0.428c11.293,0.715,26.647,1.87,31.279-11.162c-4.911-0.665-9.822-1.329-14.732-1.994
			c0.955,7.301,0.998,14.648,1,22c5,0,10,0,15,0c-0.038-3.245,0.174-3.579,1.964-5.233c0.829-0.766-0.827,0.49,0.896-0.558
			c0.276-0.168,2.641-1.266,1.066-0.619c1.954-0.803,4.031-1.294,6.096-1.71c3.11-0.627,7.546-0.887,11.868-1.024
			c5.047-0.16,10.099-0.095,15.147-0.109c15.069-0.041,42.38-0.763,39.963-22.746c-0.956-8.693-11.419-9.872-14.732-1.994
			c-1.734,4.125-2.684,8.514-4.044,12.767c-0.813,2.538-1.768,5.597-4.724,5.727c0.665,4.911,1.329,9.821,1.994,14.732
			c12.034-3.615,22.539-10.859,34.64-14.223c6.688-1.859,13.883-2.036,20.759-2.725c7.772-0.778,15.397-1.956,22.955-3.937
			c28.571-7.489,59.295-13.487,88.658-7.116c-1.103-4.178-2.206-8.357-3.31-12.535c-12.641,12.737-30.938,13.672-47.876,13.538
			c-18.261-0.145-36.912-2.149-54.814,2.533c-7.449,1.948-6.858,12.24,0,14.464c21.695,7.034,48.61,8.792,69.779-0.756
			c3.728-1.681,4.592-7.017,2.69-10.261c-2.226-3.8-6.534-4.372-10.261-2.691c-8.591,3.875-18.568,4.364-27.84,4.226
			c-10.296-0.154-20.585-1.806-30.381-4.982c0,4.821,0,9.643,0,14.464c35.952-9.402,79.656,9.951,109.31-19.929
			c3.803-3.833,2.311-11.316-3.31-12.535c-30.428-6.602-61.732-1.569-91.533,5.813c-7.426,1.84-14.659,3.666-22.283,4.516
			c-7.734,0.862-15.479,1.452-23.172,2.67c-13.58,2.151-24.989,11.092-38,15c-7.926,2.381-6.681,15.113,1.994,14.732
			c17.128-0.752,17.991-17.043,23.232-29.506c-4.911-0.665-9.821-1.329-14.732-1.994c0.097,0.88,0.146,1.744,0.132,2.629
			c-0.02,1.371,0.37-1.207-0.181,0.844c-0.331,1.23,0.737-1.186-0.326,0.585c-0.615,1.026,0.994-0.979-0.486,0.439
			c-0.84,0.804,1.108-0.666-0.667,0.405c-0.33,0.199-2.59,1.163-0.863,0.483c-1.858,0.731-3.835,1.153-5.793,1.509
			c-6.806,1.238-18.065,0.813-26.617,0.868c-16.773,0.109-42.461,1.707-42.198,24.236c0.113,9.667,15.003,9.678,15,0
			c-0.002-7.352-0.045-14.699-1-22c-1.08-8.262-11.753-10.376-14.732-1.994c0.212-0.599,1.021-1.239-0.117-0.177
			c1.317-1.229,0.134-0.212-0.325,0.029c1.602-0.844-0.076-0.032-0.465,0.084c-0.417,0.115-0.839,0.216-1.264,0.301
			c-2.154,0.475,1.542-0.115-0.767,0.13c-1.528,0.162-3.072,0.179-4.608,0.185c-6.177,0.02-12.332-0.749-18.507-0.832
			c-6.163-0.083-12.497,0.66-17.433,4.629c-5.617,4.517-5.488,12.365-3.513,18.637c2.538,8.063,14.572,6.593,14.732-1.994
			c0.543-29.212-40.584-36.742-62.494-30.232c1.329,4.821,2.658,9.643,3.987,14.464c3.68-1.188,7.239,0.082,11.006,0.268
			c-2.5-2.5-5-5-7.5-7.5c0.07,1.012,0.106,2.005,0.091,3.019c-0.013,0.834-0.377,1.082,0.092,0.175
			c0.424-0.821,1.42-1.629,2.312-1.869c1.144-0.308,2.838,0.244,0.876-0.342c-0.055-0.017-1.861-0.958-3.308-1.889
			c-1.94-1.248-3.008-2.129-4.712-3.535c-7.038-5.806-12.238-12.187-21.694-13.853c-7.692-1.355-15.474-0.316-23.141,0.669
			c-8.706,1.118-17.192,1.721-25.955,0.863C79.836,96.628,63.466,90.762,46,90.578C36.323,90.476,36.333,105.476,46,105.578
			L46,105.578z"/>
	</g>
</g>
<g opacity="0.5">
	<g>
		<path fill="#010101" d="M115,107.578c17.416,0.024,40.175-0.24,53.232,13.268c0.579,0.599,1.624,0.938,2.432,0.643
			c3.64-1.327,7.211-2.902,9.494-6.149c0.963-1.371-0.058-3.228-1.494-3.672c-3.633-1.125-7.367-1.875-11-3
			c-1.972-0.611-4.143,1.867-2.823,3.672c5.322,7.28,13.754,8.287,22.159,9.238c-0.804-1.055-1.607-2.11-2.411-3.165
			c-0.037,0.173-0.074,0.346-0.111,0.519c1.025-0.582,2.05-1.164,3.075-1.746c0.877,0.125-0.175-0.941-0.395-1.37
			c-0.72,1.254-1.439,2.508-2.159,3.762c10.537-1.409,23.944,11.339,32.768,1.268c-1.393-0.368-2.786-0.735-4.178-1.103
			c1.038,2.735,2.61,5.388,2.911,8.335c0.291,2.853,3.876,3.348,4.911,0.665c0.863-2.239,1.064-4.278,1.089-6.665
			c-1.423,0.589-2.845,1.179-4.268,1.768c0.089,0.078,0.178,0.155,0.268,0.232c0.042,0.826,0.433,1.784,1.238,2.159
			c2.14,0.996,3.652,0.605,5.926,0.252c-1.055-0.804-2.11-1.607-3.165-2.411c0.218,1.693,0.783,3.315,1,5
			c0.356,2.766,3.909,3.446,4.911,0.665c0.946-2.626,2.479-5.251,3-8c0.456-2.405-2.279-4.245-4.178-2.432
			c-2.625,2.505-5.485,4.596-8.494,6.609c1.14,0.299,2.28,0.598,3.42,0.897c-0.25-1.358-0.499-2.716-0.748-4.074
			c-1.607,0-3.214,0-4.821,0c1.132,4.127,2.725,8.005,2.911,12.335c1.637-0.222,3.274-0.443,4.911-0.665
			c-3.453-14.774,34.464-6.565,42.254-7.925c-1.025-0.582-2.05-1.164-3.075-1.746c0.758,2.233,2.667,3.542,3,6
			c0.322,2.374,3.499,2.132,4.569,0.597c1.971-2.822,3.951-5.392,5.253-8.597c-1.607-0.443-3.215-0.886-4.822-1.329
			c-0.837,2.5-1.649,5.001-2.747,7.403c1.309-0.169,2.617-0.337,3.926-0.506c-1.774-1.791-3.386-3.512-4.356-5.897
			c-1.226-3.009-5.277-1.869-4.822,1.329c0.395,2.778,1.958,5.156,3.252,7.597c1,1.886,4.089,1.486,4.57-0.597
			c0.288-1.251,1.055-2.341,1.747-3.403c-0.94,0.383-1.882,0.766-2.823,1.149c28.324,4.285,57.363-1.679,85.33-6
			c-0.643-1.523-1.285-3.046-1.927-4.569c-7.09,3.022-14.247,5.885-21.403,8.748c0.643,1.523,1.285,3.046,1.927,4.569
			c5.314-2.307,8.867-6.037,11.896-10.897c1.577-2.529-1.862-4.814-3.926-3.029c-2.763,2.389-6.413,3.684-9.494,5.609
			c1.01,1.309,2.02,2.618,3.029,3.926c5.404-6.17,16.999-5.231,24.398-5.481c8.675-0.292,18.155-0.135,26.096-4.128
			c2.881-1.449,0.349-5.762-2.523-4.317c-8.476,4.262-19.418,3.235-28.629,3.638c-7.56,0.33-17.475,0.586-22.877,6.753
			c-1.803,2.058,0.51,5.5,3.029,3.926c3.483-2.176,7.377-3.685,10.506-6.391c-1.309-1.01-2.617-2.02-3.926-3.029
			c-2.614,4.193-5.544,7.124-10.104,9.103c-2.588,1.123-0.699,5.62,1.927,4.569c7.557-3.023,15.109-6.06,22.597-9.252
			c2.823-1.204,0.621-4.963-1.927-4.569c-26.993,4.17-55.315,10.138-82.67,6c-1.174-0.178-2.15,0.118-2.823,1.149
			c-0.93,1.423-1.868,2.927-2.252,4.597c1.523-0.199,3.046-0.398,4.569-0.597c-1.099-2.073-2.411-4.041-2.747-6.403
			c-1.607,0.443-3.215,0.886-4.822,1.329c1.318,3.237,3.191,5.628,5.643,8.103c1.05,1.06,3.247,0.979,3.926-0.506
			c1.279-2.797,2.276-5.682,3.253-8.597c1.044-3.121-3.643-4.235-4.822-1.329c-1.113,2.744-3.07,5-4.748,7.403
			c1.523,0.199,3.046,0.398,4.57,0.597c-0.354-2.605-2.241-3.764-3-6c-0.471-1.385-1.67-1.992-3.076-1.746
			c-11.013,1.922-51.148-9.038-45.746,14.075c0.641,2.743,5.032,2.157,4.911-0.665c-0.206-4.805-1.83-9.076-3.089-13.665
			c-0.654-2.383-4.173-2.394-4.821,0c-0.816,3.014-0.065,5.177,1.252,7.926c0.564,1.178,2.354,1.61,3.42,0.897
			c3.368-2.253,6.571-4.589,9.506-7.391c-1.393-0.811-2.786-1.622-4.178-2.432c-0.521,2.749-2.054,5.374-3,8
			c1.637,0.222,3.274,0.443,4.911,0.665c-0.218-1.693-0.783-3.315-1-5c-0.223-1.732-1.417-2.682-3.165-2.411
			c-0.686,0.125-1.377,0.208-2.074,0.252c0.413,0.72,0.826,1.439,1.238,2.159c-0.083-1.665-0.593-2.568-1.732-3.768
			c-1.53-1.611-4.246-0.362-4.268,1.768c-0.02,1.908-0.223,3.551-0.911,5.335c1.637,0.222,3.274,0.443,4.911,0.665
			c-0.359-3.528-1.843-6.382-3.089-9.665c-0.614-1.618-2.829-2.644-4.178-1.103c-3.804,4.341-9.367,1.783-13.953,0.138
			c-4.94-1.772-9.956-3.583-15.28-2.871c-1.888,0.252-3.103,1.924-2.159,3.762c0.706,1.374,1.664,3.422,3.383,3.668
			c1.283,0.183,2.765-0.293,3.075-1.746c0.037-0.173,0.074-0.346,0.111-0.519c0.367-1.718-0.748-2.976-2.411-3.165
			c-6.278-0.711-13.786-1.215-17.841-6.762c-0.941,1.224-1.882,2.448-2.823,3.672c3.633,1.125,7.367,1.875,11,3
			c-0.498-1.224-0.996-2.448-1.494-3.672c-1.417,2.016-4.313,3.051-6.506,3.851c0.811,0.214,1.622,0.429,2.432,0.643
			c-14.074-14.56-37.948-14.706-56.768-14.732C111.775,102.573,111.776,107.573,115,107.578L115,107.578z"/>
	</g>
</g>
<g opacity="0.1">
	<g>
		<path fill="#010101" d="M15,111.078c15.114,0.397,29.645-3.68,43.914-8.185c6.447-2.036,12.896-4.029,19.491-5.537
			c1.634-0.374,3.284-0.672,4.934-0.966c5.198-0.927-2.603,0.188,2.662-0.312c4.389-0.417,8.807-0.492,13.212-0.498
			c15.2-0.019,30.33,1.741,45.488-0.183c16.3-2.069,31.313-5.452,47.695-6.484c15.677-0.988,31.414-0.697,47.087,0.202
			c15.699,0.9,31.4,3.637,47.09,4.108c7.281,0.218,14.585-0.51,21.846-0.95c7.268-0.439,15.154-0.631,21.188,0.592
			c13.449,2.724,25.457,10.155,38.755,13.486c22.459,5.625,45.724-1.359,68.367-1.635c23.569-0.287,46.253,5.344,69.285,10.827
			c7.947,1.892,16.228-2.393,18.451-10.477c2.11-7.67-2.523-16.559-10.477-18.452c-31.427-7.48-63.092-14.049-95.534-10.73
			c-7.2,0.737-14.376,1.657-21.596,2.199c-7.228,0.542-15.142,0.543-20.521-0.66c-13.404-2.998-25.36-10.385-38.755-13.486
			c-15.688-3.632-31.568-1.027-47.41-0.704c-7.501,0.153-14.956-1.038-22.402-1.797c-8.164-0.832-16.34-1.53-24.528-2.084
			c-32.368-2.192-65.255-1.184-97.06,5.657c-9.47,2.037-21.571,1.415-32.256,0.986c-12.429-0.498-24.563-0.51-36.909,1.205
			c-10.582,1.469-20.784,5.126-30.94,8.292C34.808,79.004,25.802,81.362,15,81.078c-8.177-0.215-15,6.986-15,15
			C0,104.417,6.828,110.863,15,111.078L15,111.078z"/>
	</g>
</g>
<g opacity="0.1">
	<g>
		<path fill="#010101" d="M18.012,128.542c31.017,6.558,62.712,4.933,92.862,14.548c13.207,4.212,23.795,9.603,36.837,15.902
			c14.28,6.896,28.539,13.442,43.947,17.409c14.34,3.691,29.117,5.434,43.738,7.594c13.9,2.054,27.945,3.586,42.003,2.532
			c13.039-0.977,25.529-4.142,37.614-9.053c14.203-5.772,27.498-12.833,41.52-18.021c18.573-6.874,36.387-11.083,55.78-10.249
			c14.49,0.623,28.874,2.766,43.357,3.537c14.695,0.783,30.164,0.191,44.178-4.669c16.235-5.631,29.487-16.94,37.103-32.424
			c3.608-7.337,2.044-16.173-5.382-20.523c-6.668-3.906-16.916-1.952-20.522,5.381c-1.13,2.299-2.367,4.511-3.753,6.666
			c-0.315,0.49-2.756,3.718-0.484,0.837c-0.718,0.911-1.501,1.767-2.283,2.621c-1.518,1.657-3.211,3.141-4.952,4.555
			c2.986-2.425,0.078-0.192-0.53,0.212c-1.209,0.804-2.482,1.51-3.758,2.2c-0.958,0.518-1.948,0.974-2.937,1.429
			c3.605-1.662,0.246-0.148-0.476,0.117c-2.079,0.765-4.219,1.355-6.365,1.897c-2.191,0.553-4.419,0.951-6.649,1.309
			c4.042-0.648,0.168-0.035-0.577,0.047c-1.547,0.168-3.101,0.276-4.652,0.377c-19.766,1.288-39.47-2.28-59.149-3.457
			c-29.679-1.774-58.127,7.394-85.057,18.947c-13.434,5.764-23.319,11.43-36.748,15.315c-2.717,0.786-5.477,1.41-8.247,1.971
			c-1.362,0.276-2.734,0.494-4.106,0.712c3.391-0.538-1.151,0.104-1.529,0.143c-6.312,0.645-12.68,0.576-19.008,0.256
			c-18.599-0.94-37.757-4.043-56.709-8.354c-19.463-4.427-36.113-13.427-54.115-21.863c-18.747-8.786-37.356-15.186-57.808-18.461
			c-21.828-3.495-43.874-3.867-65.167-8.369c-7.992-1.69-16.188,2.245-18.452,10.477C5.468,117.608,10.011,126.85,18.012,128.542
			L18.012,128.542z"/>
	</g>
</g>
<g opacity="0.1">
	<g>
		<path fill="#010101" d="M9.394,128.684c16.92,20.973,39.333,39.74,53.941,60.691c14.888,21.353,27.08,44.165,45.543,62.86
			c17.267,17.484,40.117,33.715,64.467,39.121c13.914,3.089,28.175,2.687,42.324,2.74c15.794,0.061,31.586,0.437,47.321,1.882
			c13.186,1.212,26.44,4.053,40.056,5.822c13.057,1.696,26.246,2.394,39.395,1.583c13.666-0.843,27.329-3.345,40.158-8.176
			c14.378-5.414,26.481-13.34,38.197-23.188c9.856-8.284,19.005-17.377,27.585-26.969c4.464-4.989,8.718-10.162,12.872-15.409
			c2.564-3.24,5.076-6.522,7.574-9.814c1.052-1.386,2.088-2.783,3.124-4.181c0.148-0.199,2.86-3.716,0.987-1.34
			c15.186-19.265,37.528-37.676,41.524-63.243c1.262-8.071-1.931-16.102-10.477-18.452c-7.197-1.979-17.187,2.387-18.451,10.477
			c-0.423,2.702-1.089,5.287-1.972,7.874c-1.449,4.245,1.264-2.536-0.685,1.607c-0.619,1.316-1.33,2.588-2.036,3.858
			c-1.464,2.636-3.158,5.143-4.881,7.614c-0.887,1.273-1.823,2.513-2.756,3.752c1.092-1.451-2.198,2.68-2.565,3.126
			c-8.538,10.377-17.616,20.18-25.635,30.988c-14.676,19.784-35.074,43.528-56.251,57.036
			c-11.347,7.237-21.967,10.773-35.873,13.271c0.088-0.016-5.121,0.76-2.39,0.406c-1.603,0.207-3.213,0.358-4.821,0.51
			c-3.233,0.306-6.481,0.451-9.727,0.552c-7.117,0.222-14.244-0.104-21.338-0.663c-13.801-1.088-27.013-4.039-42.191-6.004
			c-15.626-2.022-31.406-2.614-47.147-2.839c-12.409-0.178-24.899,0.396-37.275-0.688c-0.934-0.088-1.866-0.188-2.796-0.3
			c3.442,0.393-0.894-0.185-1.333-0.261c-2.512-0.435-4.99-1.042-7.447-1.717c-1.993-0.547-3.946-1.228-5.885-1.939
			c-3.891-1.429,2.803,1.295-1.024-0.394c-1.166-0.514-2.308-1.08-3.449-1.645c-19.264-9.524-34.605-22.97-48.23-40.054
			c-1.078-1.372-1.153-1.469-0.227-0.29c-0.853-1.12-1.683-2.257-2.514-3.393c-1.402-1.919-2.76-3.871-4.11-5.826
			c-3.118-4.518-6.099-9.129-9.07-13.744c-7.083-11.005-13.968-21.954-22.086-32.247c-15.137-19.192-33.867-35.187-49.215-54.21
			c-5.142-6.373-15.895-5.318-21.213,0C3.155,113.71,4.265,122.327,9.394,128.684L9.394,128.684z"/>
	</g>
</g>
<g opacity="0.1">
	<g>
		<path fill="#010101" d="M32.988,93.542c30.004-9.877,61.537-14.378,91-26c27.147-10.709,55.941-23.987,84.765-27.218
			c15.708-1.761,31.604,0.258,47.288,1.311c15.822,1.061,31.671,0.009,47.515,0.305c30.029,0.561,57.373,5.046,86.623,11.092
			c22.067,4.561,44.25,8.625,65.934,14.837c5.551,1.59,11.045,3.371,16.486,5.298c2.455,0.87,4.887,1.804,7.311,2.757
			c-0.075-0.03,4.631,1.931,2.163,0.873c1.424,0.61,2.833,1.255,4.242,1.901c5.135,2.353,10.123,5.012,14.986,7.88
			c2.201,1.298,4.347,2.688,6.475,4.102c1.276,0.849,2.523,1.74,3.771,2.631c-0.063-0.045,3.913,3.002,1.849,1.372
			c6.409,5.063,14.931,6.283,21.213,0c5.274-5.273,6.427-16.136,0-21.213c-43.092-34.042-97.78-40.664-149.728-52.204
			c-30.906-6.865-62.834-9.542-94.452-9.423c-15.983,0.06-31.642,0.026-47.6-1.184c-16.707-1.267-32.862-1.181-49.383,1.959
			c-28.187,5.359-54.406,17.179-81.036,27.396c-28.322,10.867-58.634,15.13-87.396,24.597c-7.759,2.554-12.726,10.274-10.477,18.452
			C16.623,90.652,25.22,96.099,32.988,93.542L32.988,93.542z"/>
	</g>
</g>
<g opacity="0.1">
	<g>
		<path fill="#010101" d="M3,83.078c-1.234,11.828-2.64,23.288,0.536,34.988c3.817,14.064,25.414,14.614,28.929,0
			c0.341-1.417,0.723-2.798,1.171-4.186c-0.95,2.938,0.844-1.53,1.256-2.212c0.961-1.389,0.912-1.36-0.149,0.085
			c0.542-0.629,1.11-1.235,1.704-1.816c0.408-0.417,4.42-3.587,2.125-1.907c-6.059-7.853-12.118-15.706-18.177-23.559
			c-4.058,3.154-5.766,10.271-4.098,14.936c2.494,6.975,7.648,10.482,14.812,11.079c3.687,0.307,8.392-1.232,12.005-2.193
			c4.711-1.254,9.729-2.725,13.332-6.172C66.913,92.104,58.058,76.486,45,76.078c-8.176-0.256-15,7.017-15,15
			c0,8.689,6.855,14.323,15,15c0.875,0.073,4.95,0.67,0.384-0.036c1.002,0.155,1.978,0.41,2.938,0.731
			c-9.487-3.176-10.32-14.558-5.59-20.454c-2.066,2.576-5.043,4.545-7.589,6.605C26.778,99.69,18.712,108.587,19,120.078
			c0.205,8.172,6.668,15,15,15c8.022,0,15.205-6.823,15-15c-0.063-2.497-1.131,4.17-0.071,0.477
			c-1.225,4.268-0.716,1.595,0.146,0.206c1.296-2.087-2.501,2.836,0.189-0.186c0.962-1.081,2.027-2.069,3.092-3.045
			c3.343-3.064,7.1-5.646,10.406-8.751c6.048-5.681,9.14-14.935,4.575-22.533C62.492,78.18,53.571,76.79,45,76.078c0,10,0,20,0,30
			c1.606,0.063,0.586-0.076-3.06-0.419c-2.206-1.286-4.413-2.572-6.619-3.857c0.024,0.028,0.049,0.057,0.073,0.086
			c-1.286-4.865-2.571-9.729-3.857-14.594c-0.011,0.036-0.021,0.071-0.032,0.107c1.286-2.207,2.572-4.413,3.857-6.619
			c2.577-2.465,2.07-1.859,5.116-3.079c-0.563,0.226-1.145,0.409-1.721,0.599c-1.447,0.478-2.921,0.876-4.393,1.268
			c-1.453,0.386-2.917,0.727-4.389,1.036c-1.263,0.266-3.926,0.6,1.819-0.166c-1.83,0.244-0.982-0.969,2.953,0.515
			c3.492,3.492,6.984,6.984,10.477,10.477c-0.01-0.027-0.019-0.053-0.029-0.08c-0.504,3.853-1.008,7.706-1.512,11.559
			c-0.692,0.925-1.385,1.849-2.077,2.774c5.233-4.067,5.433-12.907,2.346-18.177c-3.813-6.508-13.911-10.222-20.523-5.381
			C13.507,89.39,6.47,97.892,3.536,110.09c9.643,0,19.286,0,28.929,0c-2.003-7.379-0.418-17.877,0.536-27.012
			c0.851-8.148-7.467-15-15-15C9.181,68.078,3.849,74.948,3,83.078L3,83.078z"/>
	</g>
</g>
<g opacity="0.1">
	<g>
		<path fill="#010101" d="M486.43,99.03c2.309,1.084,4.562,2.236,6.766,3.521c0.755,0.453,1.496,0.927,2.224,1.423
			c3.389,2.241-2.146-1.919,0.632,0.549c0.51,0.471,0.998,0.964,1.463,1.479c-2.567-2.72-0.727-0.985-0.121,0.008
			c0.731,1.429,0.591,1.026-0.422-1.209c0.402,1.038,0.824,4.021,0.204-0.674c0.176,1.329-0.52,6.064,0.258,1.368
			c-0.275,1.668-0.809,3.291-1.353,4.887c-0.248,0.699-0.513,1.392-0.793,2.078c1.408-3.57-0.191,0.252-0.457,0.809
			c-1.171,2.458-2.478,4.851-3.782,7.238c-3.247,5.941-2.522,13.309,2.346,18.177c6.175,6.175,14.934,5.224,21.213,0
			c4.4-3.66,7.528-10.035,9.972-15.125c4.197-8.745,7.119-17.383,5.798-27.154c-1.561-11.529-14.335-17.368-24.728-14.554
			c-4.848,1.312-8.88,4.772-12.023,8.541c-1.118,1.34-2.201,2.699-3.378,3.988c-0.686,0.751-3.267,2.524-0.058,0.297
			c-2.159,1.499,2.018-0.551,2.811-0.6c2.523,9.317,5.047,18.635,7.57,27.952c3.947-2.607,7.668-5.525,11.377-8.457
			c1.575-1.245,3.132-2.513,4.702-3.763c1.325-1.041,1.194-0.939-0.391,0.305c0.82-0.619,1.666-1.2,2.518-1.775
			c1.154-0.779,5.736-2.64,1.094-0.909c0.477-0.163,0.962-0.291,1.458-0.382c-0.539,0.12-6.475-0.337-4.538,0.207
			c-1.581-0.372-2.938-1.136-4.07-2.293c2.321,1.943-1.87-2.979,0.038-0.013c0.412,0.688,0.79,1.395,1.133,2.12
			c-1.473-2.918,0.576,1.789,0.646,1.996c2.595,7.745,10.242,12.734,18.451,10.477c7.556-2.079,13.075-10.697,10.477-18.452
			c-4.75-14.178-14.247-26.505-30.834-22.809c-5.838,1.301-10.822,5.38-15.416,8.93c-2.184,1.687-4.323,3.428-6.479,5.149
			c-3.284,2.621,2.428-1.803-1.005,0.77c-1.398,1.049-2.842,2.032-4.3,2.996c-5.652,3.734-8.753,10.181-6.894,16.94
			c1.687,6.133,7.863,11.422,14.464,11.012c8.99-0.559,15.618-4.846,21.186-11.672c0.842-1.033,1.694-2.047,2.603-3.023
			c1.186-1.105,0.847-0.9-1.018,0.616c2.313-1.275,0.782-0.932-4.592,1.03c-3.513,0.371-7.136-2.642-8.862-5.38
			c-1.009-2.757-1.328-3.395-0.956-1.912c-0.306-2.906-0.441-3.552-0.409-1.938c-0.006,2.371,0.848-4.038-0.058,0.065
			c-0.271,1.225-0.663,2.421-1.056,3.611c-0.281,0.854-2.057,5.13-0.322,1.094c-0.531,1.237-1.124,2.448-1.722,3.653
			c-1.075,2.166-2.283,4.265-3.58,6.304c-0.676,1.063-2.997,3.97,0.388-0.295c-0.361,0.455-0.762,0.87-1.208,1.241
			c7.853,6.059,15.706,12.118,23.559,18.177c5.213-9.538,11.604-21.061,10.111-32.367c-1.968-14.893-12.401-24.008-25.493-30.156
			c-7.4-3.475-16.118-2.138-20.522,5.381C477.198,85.079,479.029,95.555,486.43,99.03L486.43,99.03z"/>
	</g>
</g>
<g opacity="0.1">
	<g>
		<path fill="#ED1F26" d="M46,104.578c28.453,2.031,55.975-9.519,83.533-14.554c13.858-2.532,27.067-6.722,40.431-11.105
			c6.282-2.061,12.598-4.001,19.012-5.612c3.24-0.814,6.516-1.469,9.805-2.046c5.723-1.004-5.079,0.542,0.748-0.122
			c2.3-0.262,4.613-0.39,6.925-0.496c32.437-1.479,64.975-5.235,97.459-5.013c7.843,0.053,15.676,0.501,23.479,1.288
			c0.737,0.074,7.251,0.931,1.845,0.174c1.963,0.274,3.916,0.609,5.869,0.945c4.492,0.771,8.926,1.86,13.365,2.886
			c15.661,3.619,31.242,7.578,46.851,11.417c12.456,3.063,24.936,6.03,37.476,8.73c3.141,0.676,6.287,1.322,9.436,1.958
			c1.262,0.253,2.523,0.502,3.786,0.748c-3.631-0.711,14.304,1.935,5.133,0.672c2.828,0.389,5.621,0.932,8.395,1.602
			c1.096,0.281,2.18,0.602,3.251,0.962c5.38,1.7-4.171-2.195,0.847,0.496c10.811,5.796,24.422,2.79,30.784-8.072
			c6.024-10.284,2.725-24.995-8.071-30.784c-7.392-3.963-15.004-6.362-23.242-7.596c-3.126-0.468-6.266-0.854-9.4-1.261
			c5.902,0.765-0.487-0.355-1.409-0.541c-4.405-0.89-8.799-1.839-13.189-2.805c-15.66-3.446-31.219-7.341-46.781-11.196
			c-15.644-3.875-31.331-8.214-47.223-10.944c-17.514-3.008-35.193-3.975-52.938-3.584c-16.334,0.359-32.628,1.822-48.913,3.047
			c-15.634,1.176-31.588,0.76-47.119,2.781c-15.365,1.999-29.756,6.206-44.431,11.045c-13.257,4.371-26.456,7.351-40.088,10.203
			c-11.886,2.487-23.568,5.884-35.403,8.596c-2.728,0.625-5.467,1.19-8.213,1.729c-1.62,0.318-3.248,0.596-4.876,0.871
			c-1.227,0.207-6.836,0.897-0.423,0.104C57.163,59.785,51.572,59.976,46,59.578c-12.248-0.874-22.5,10.896-22.5,22.5
			C23.5,95.003,33.771,103.705,46,104.578L46,104.578z"/>
	</g>
</g>
<g opacity="0.1">
	<g>
		<path fill="#ED1F26" d="M50.288,175.934c8.011,4.911,15.672,10.317,23.114,16.052c-3.036-2.345-6.072-4.69-9.107-7.036
			c19.332,15.067,36.758,32.281,55.412,48.136c22.729,19.318,49.678,30.264,78.636,36.441c15.615,3.331,31.266,5.902,47.12,7.85
			c16.11,1.979,31.394,0.817,47.433-1.381c13.179-1.806,25.169-6.207,37.392-11.282c15.814-6.567,31.457-13.525,47.222-20.207
			c-3.583,1.512-7.166,3.023-10.749,4.536c42.589-17.939,88.14-28.922,127.954-53.108c20.926-12.713,28.697-40.137,16.144-61.569
			c-12.23-20.878-40.592-28.887-61.568-16.144c-11.139,6.767-22.751,12.591-34.74,17.691c3.583-1.512,7.166-3.024,10.749-4.536
			c-18.526,7.766-37.667,13.894-56.557,20.691c-23.648,8.511-46.473,19.116-69.6,28.915c3.583-1.512,7.166-3.024,10.749-4.536
			c-13.365,5.629-26.464,10.783-40.921,12.764c3.988-0.535,7.976-1.071,11.963-1.607c-13.039,1.582-26.063,1.024-39.06-0.683
			c3.988,0.536,7.975,1.071,11.963,1.607c-22.001-3.068-44.955-7.258-65.557-15.797c3.583,1.512,7.167,3.024,10.75,4.536
			c-7.914-3.404-15.342-7.58-22.213-12.789c3.036,2.346,6.071,4.69,9.107,7.036c-13.581-10.696-25.906-23.084-38.931-34.445
			c-16.123-14.064-33.015-27.65-51.278-38.847c-20.926-12.831-49.376-4.67-61.569,16.144
			C21.551,135.863,29.415,163.136,50.288,175.934L50.288,175.934z"/>
	</g>
</g>
<g opacity="0.03">
	<g>
		<path fill="#ED1F26" d="M56.288,178.934c2.125,1.441,4.194,2.943,6.228,4.509c-3.036-2.346-6.072-4.69-9.107-7.036
			c10.035,7.943,18.724,17.324,27.67,26.433c11.263,11.465,23.654,22.267,37.465,30.55c11.507,6.9,23.849,12.587,36.186,17.815
			c16.162,6.85,32.369,13.251,49.146,18.439c13.375,4.136,26.979,7.529,40.718,10.206c16.717,3.256,33.915,6.089,50.984,5.848
			c34.788-0.493,67.906-12.371,98.02-29.099c14.834-8.24,29.624-17.147,43.807-26.464c10.013-6.577,19.928-13.831,28.551-22.159
			c5.555-5.365,10.544-11.24,16.606-16.07c-3.036,2.346-6.072,4.691-9.108,7.037c2.004-1.501,4.047-2.837,6.259-4.009
			c21.651-11.475,28.147-41.078,16.145-61.569c-12.77-21.799-39.893-27.632-61.568-16.144
			c-16.226,8.599-26.771,23.712-40.955,34.787c3.035-2.346,6.071-4.691,9.107-7.037c-12.027,9.159-25.204,16.508-38.152,24.25
			c-12.603,7.534-25.024,14.962-38.571,20.73c3.583-1.513,7.166-3.024,10.749-4.536c-12.181,5.061-24.765,8.8-37.832,10.693
			c3.987-0.536,7.975-1.072,11.962-1.607c-12.279,1.621-24.455,1.445-36.72-0.188c3.987,0.535,7.976,1.071,11.963,1.607
			c-33.125-4.594-65.615-14.064-96.435-26.965c3.583,1.513,7.167,3.024,10.75,4.536c-16.011-6.785-32.543-14.191-46.432-24.793
			c3.036,2.346,6.072,4.691,9.107,7.036c-9.274-7.281-17.401-15.795-25.607-24.227c-10.912-11.212-22.52-21.473-35.51-30.287
			c-20.328-13.792-49.801-3.944-61.569,16.144c-6.088,10.393-7.731,23.061-4.536,34.675
			C38.871,163.906,46.342,172.186,56.288,178.934L56.288,178.934z"/>
	</g>
</g>
<g opacity="0.03">
	<g>
		<path fill="#ED1F26" d="M90,122.078c22.364-1.029,42.439-7.678,63.077-15.59c9.09-3.485,18.208-6.894,27.595-9.506
			c9.757-2.715,19.936-4.143,29.953-5.515c-3.988,0.536-7.975,1.071-11.963,1.607c17.118-2.254,34.336-3.32,51.603-3.008
			c17.692,0.319,35.284,2.641,52.803,4.964c-3.987-0.536-7.975-1.072-11.962-1.607c33.993,4.578,68.182,10.868,99.955,24.198
			c-3.583-1.512-7.166-3.024-10.75-4.536c22.095,9.421,43.436,20.38,65.727,29.386c10.583,4.275,25.26,0.979,34.675-4.537
			c10.06-5.893,17.587-15.645,20.681-26.893c3.195-11.615,1.552-24.282-4.536-34.675c-6.446-11.003-15.507-16.08-26.894-20.68
			c-1.744-0.705-3.483-1.421-5.219-2.148c3.583,1.512,7.166,3.024,10.75,4.536c-31.854-13.567-62.15-30.092-95.774-39.169
			c-33.512-9.047-68.236-13.004-102.625-17.05c-35.119-4.132-70.658-0.892-105.356,5.157c-28.186,4.914-53.239,19.526-81.159,25.182
			c-1.567,0.317-3.148,0.558-4.729,0.794c3.988-0.536,7.976-1.071,11.963-1.607c-2.601,0.34-5.193,0.578-7.813,0.698
			c-24.496,1.127-45,19.617-45,45C45,100.754,65.479,123.206,90,122.078L90,122.078z"/>
	</g>
</g>
</svg>
