<?xml version="1.0" encoding="utf-8"?>
<!-- Generator: Adobe Illustrator 16.0.0, SVG Export Plug-In . SVG Version: 6.00 Build 0)  -->
<!DOCTYPE svg PUBLIC "-//W3C//DTD SVG 1.1//EN" "http://www.w3.org/Graphics/SVG/1.1/DTD/svg11.dtd">
<svg version="1.1" id="Layer_1" xmlns="http://www.w3.org/2000/svg" xmlns:xlink="http://www.w3.org/1999/xlink" x="0px" y="0px"
	 width="508.102px" height="305.287px" viewBox="0 0 508.102 305.287" enable-background="new 0 0 508.102 305.287"
	 xml:space="preserve">
<path fill="none" stroke="#010101" stroke-miterlimit="10" d="M7.722,121.273c10.355-15.324,18.24-32.133,25.749-49
	c9.395-21.102,24.737-28.701,44.002-38.274c20.111-9.993,46.929-23.358,69.301-24.726c19.324-1.182,37.83,2.333,56.226,4.777
	c19.896,2.644,41.435,5.27,61.746,2.223c22.55-3.383,44.069-9.888,66.726-13c25.824-3.547,49.446-5.514,73.306,5.749
	c26.468,12.494,44.969,26.777,67.949,44.728c11.001,8.594,23.749,20.153,29.024,33.495c3.254,8.228,0.21,21.302,5.972,28.028"/>
<path fill="none" stroke="#010101" stroke-miterlimit="10" d="M27.722,131.273c16.569,13.567,51.512,0.573,64.445-11
	c17.137-15.335,34.713-24.053,56.555-28c41.682-7.533,79.5,15.768,121.219,14c14.311-0.606,27.824-4.015,42.586-4
	c9.795,0.01,18.637,0.652,28.191,2.023c13.245,1.9,24.344,7.38,37.463,11.007c12.779,16.392,57.132,14.43,75.89,16.966
	c10.581,1.43,26.4,3.79,36.426-0.997c7.317-3.494,10.62-10.733,15.226-17"/>
<path fill="none" stroke="#010101" stroke-miterlimit="10" d="M488.722,131.273c-15.963-3.407-32.823,0.892-49,0
	c-19.365-1.067-32.969,4.397-50.004,14.278c-18.551,10.759-38.593,17.678-58,26.945c-18.48,8.824-33.601,15.779-54.893,14.777
	c-22.223-1.046-44.508-4.566-66.513-8.255c-24.987-4.188-48.12-5.101-71.591-14.722c-18.675-7.655-37.759-15.414-55.03-25.801
	c-11.167-6.717-16.666-5.228-27.271,1.781c-13.757,9.093-42.723,22.334-41.857,42.242c0.838,19.268,25.939,36.123,37.407,49.556
	c15.125,17.717,30.755,36.732,52.776,45.474c21.346,8.473,42.783,13.618,65.968,15.726c22.226,2.021,43.509,8.998,66.178,8.052
	c46.392-1.938,94.104-9.731,133.58-34.301c20.945-13.036,42.367-24.686,63.274-38.277c18.56-12.067,41.71-24.992,52.804-44.72
	c8.466-15.055,0.583-33.715,6.171-48.754"/>
<path fill="none" stroke="#010101" stroke-miterlimit="10" d="M11.722,123.273c-6.411,29.342,88.603,4.273,102.052,5
	c12.873,0.696,43.478,14.989,50.722-0.977c10.577-23.31-14.519-30.007-30.829-30.023c-5.497-0.005-16.515-1.667-19.793,3.98
	c-3.058,5.266,4.152,18.763,7.849,22.02"/>
<path fill="none" stroke="#010101" stroke-miterlimit="10" d="M324.722,103.273c0.981,11.176,2.688,22.317-8.925,28
	c-7.47,3.655-21.874,4.47-30.052,5c-7.019,0.455-26.704,4.233-30.85-1.729c-3.243-4.666-0.174-22.43-0.174-28.271"/>
<path fill="none" stroke="#010101" stroke-miterlimit="10" d="M365.722,113.273c2.288,17.422-29.583,13.448-40.872,12.849
	c-0.147-2.271-0.73-5.643-0.128-7.849"/>
<path fill="none" stroke="#000000" stroke-miterlimit="10" d="M168.722,95.273c1.646,12.159-7.34,26.397,2.023,35.997
	c7.175,7.355,21.305,6.003,31.029,6.003c10.333,0,24.365,1.401,33.948-2.003c11.076-3.935,9.675-20.089,6-29.997"/>
<g opacity="0.6">
	<g>
		<path d="M79.669,135.51c6.901-0.17,13.139-2.307,19.483-4.856c6.067-2.438,12.013-4.729,18.449-2.25
			c0.222-1.637,0.443-3.274,0.665-4.911c-14.848-1.565-29.258,3.508-43.86,5.263c-3.16,0.38-3.197,5.384,0,5
			c14.575-1.751,29.06-6.823,43.86-5.263c3.014,0.318,3.091-3.977,0.665-4.911c-13.359-5.144-25.944,6.599-39.261,6.928
			C76.45,130.589,76.443,135.589,79.669,135.51L79.669,135.51z"/>
	</g>
</g>
<g opacity="0.6">
	<g>
		<path d="M363.387,126.396c3.2-1.789,5.922-4.127,8.542-6.675c-0.96-0.354-0.927-0.11,0.1,0.734
			c0.353,0.499,0.686,1.01,0.998,1.535c0.354,0.567,0.671,1.16,0.975,1.754c0.941-1.224,1.883-2.448,2.824-3.672
			c-1.867-0.484-4.045-1.459-6.015-1.152c-1.753,0.273-3.321,2.2-4.684,3.159c-1.657,1.166-1.673,4.035,0.597,4.569
			c6.35,1.496,12.732,2.21,18.701,5.011c2.016,0.946,4.136-0.58,3.673-2.823c-0.516-2.493-2.415-4.59-4.152-6.366
			c-1.01,1.309-2.02,2.617-3.029,3.926c30.988,16.968,69.219,10.948,103.017,10.868c3.224-0.008,3.225-5.008,0-5
			c-32.774,0.078-70.446,6.267-100.493-10.185c-2.489-1.363-5.04,1.87-3.029,3.926c1.154,1.181,2.521,2.49,2.865,4.16
			c1.225-0.941,2.449-1.882,3.673-2.823c-6.403-3.005-13.079-3.91-19.895-5.515c0.198,1.523,0.397,3.046,0.597,4.569
			c1.076-0.757,2.114-1.531,3.11-2.392c0.338-0.292,2.174,0.485,3.734,0.89c2.204,0.572,3.811-1.741,2.824-3.672
			c-1.188-2.323-3.011-5.875-5.759-6.631c-1.202-0.331-2.538-0.026-3.431,0.862c-2.536,2.523-5.125,4.871-8.267,6.626
			C358.049,123.652,360.569,127.971,363.387,126.396L363.387,126.396z"/>
	</g>
</g>
<g opacity="0.3">
	<g>
		<path d="M10.592,134.1c-1.57,10.66-0.349,21.097,3.509,31.154c0.521,1.358,2.258,2.533,3.672,1.494
			c11.443-8.409,20.289-22.116,34.49-26.064c3.156-0.877,1.794-5.371-1.329-4.821c-9.1,1.601-18.187-0.462-26.144-5.011
			c-1.483-0.848-3.129-0.02-3.672,1.494c-2.391,6.662-6.378,12.629-8.772,19.298c1.607,0,3.214,0,4.821,0
			c-0.584-2.339-1.169-4.678-1.754-7.017c-0.69-2.763-4.916-2.142-4.911,0.665c0.007,3.808-0.288,8.558,2.096,11.788
			c1.934,2.621,5.586,0.437,4.317-2.523c-2.531-5.905,0.104-11.95,0.341-18.037c-0.833,0.833-1.667,1.667-2.5,2.5
			c5.479,0.229,11.704,2.576,15.776,6.285c0.589-1.422,1.178-2.845,1.768-4.268c-3.824,0.146-10.976,1.46-13.061,5.227
			c-2.679,4.841-3.354,11.125-3.475,16.572c-0.062,2.793,4.315,3.448,4.911,0.665c1.247-5.828,4.084-10.001,6.766-15.193
			c-1.439,0-2.878,0-4.317,0c2.205,3.291,6.263,3.979,8.776,4.655c0.221-1.637,0.443-3.273,0.665-4.91
			c-3.012,0.023-6.024,0.002-9.036,0.002c0.589,1.422,1.179,2.845,1.768,4.268c5.873-7.536,13.5-13.427,22.301-17.152
			c-1.224-0.498-2.448-0.996-3.672-1.494c1.212,3.232-1.979,8.861,1.76,10.907c2.293,1.254,5.964,0.185,8.333-0.389
			c2.775-0.671,2.132-4.911-0.665-4.911c-4.094,0-8.187,0-12.281,0c0,1.667,0,3.333,0,5c4.728-0.231,9.29-1.591,14.035-1.754
			c2.699-0.093,3.555-4.456,0.665-4.911c-10.476-1.647-21.105-1.862-31.579-3.509c-3.153-0.496-4.507,4.322-1.329,4.821
			c10.476,1.647,21.105,1.862,31.579,3.509c0.222-1.637,0.443-3.274,0.665-4.911c-4.745,0.163-9.316,1.524-14.035,1.754
			c-3.203,0.156-3.241,5,0,5c4.094,0,8.187,0,12.281,0c-0.222-1.637-0.443-3.274-0.665-4.911c-1.4,0.339-2.806,0.587-4.244,0.686
			c2.268-0.155,0.682-6.697,0.302-7.711c-0.617-1.646-2.102-2.159-3.672-1.494c-9.127,3.863-17.222,10.118-23.313,17.935
			c-1.271,1.63-0.616,4.268,1.768,4.268c3.012,0,6.024,0.021,9.036-0.002c2.817-0.021,3.412-4.171,0.665-4.911
			c-2.036-0.548-4.435-0.339-5.788-2.357c-0.983-1.468-3.404-1.769-4.317,0c-2.888,5.591-5.928,10.117-7.27,16.386
			c1.637,0.222,3.274,0.443,4.911,0.665c0.083-3.749,0.667-7.416,1.62-11.04c1.124-4.273,5.88-5.604,9.916-5.758
			c2.067-0.079,3.457-2.729,1.768-4.268c-5.078-4.625-12.476-7.465-19.312-7.75c-1.401-0.059-2.449,1.183-2.5,2.5
			c-0.29,7.446-2.749,13.351,0.341,20.56c1.439-0.841,2.878-1.683,4.317-2.523c-1.827-2.476-1.407-6.323-1.413-9.265
			c-1.637,0.222-3.274,0.443-4.911,0.665c0.585,2.339,1.169,4.678,1.754,7.018c0.638,2.553,4.029,2.208,4.821,0
			c2.391-6.662,6.378-12.63,8.772-19.299c-1.224,0.498-2.448,0.996-3.672,1.494c9.192,5.255,19.531,7.356,29.996,5.515
			c-0.443-1.607-0.886-3.214-1.329-4.821c-14.947,4.155-23.708,17.767-35.685,26.567c1.224,0.498,2.448,0.996,3.672,1.494
			c-3.51-9.149-4.943-18.754-3.509-28.495C15.877,132.276,11.06,130.919,10.592,134.1L10.592,134.1z"/>
	</g>
</g>
<g opacity="0.1">
	<g>
		<path d="M21.498,134.223c16.265,7.79,34.847,2.272,50.638-4.082c19.848-7.986,38.397-18.761,57.448-28.409
			c7.857-3.979,15.818-7.823,24.205-10.561c11.791-3.849,24.955-3.069,37.133-1.87c28.58,2.814,55.882,12.745,84.776,13.446
			c19.979,0.484,39.907-2.026,59.893-1.149c18.277,0.802,35.538,7.087,52.468,13.573c15.5,5.938,30.854,12.101,47.192,15.373
			c19.25,3.856,38.937,2.948,58.453,2.948c9.673,0,9.673-15,0-15c-14.57,0-29.291,0.625-43.81-0.796
			c-12.387-1.211-24.489-4.681-36.195-8.784c-24.673-8.647-48.247-20.053-74.685-22.109c-28.918-2.249-57.725,3.467-86.568-1.233
			c-28.837-4.699-56.94-13.806-86.508-11.742c-13.111,0.916-24.699,5.697-36.459,11.277c-12.485,5.924-24.575,12.659-36.858,18.981
			c-11.786,6.067-23.756,11.941-36.441,15.896c-8.9,2.775-19.819,4.78-27.112,1.287C20.39,117.114,12.776,130.046,21.498,134.223
			L21.498,134.223z"/>
	</g>
</g>
<g opacity="0.1">
	<g>
		<path d="M48.09,147.527c25.324-2.214,49.59,11.156,71.695,21.73c11.445,5.475,22.987,10.944,35.083,14.845
			c15.069,4.858,31.449,7.163,47.056,9.587c15.263,2.37,30.616,4.145,45.964,5.861c13.313,1.489,26.398,2.064,39.748,0.63
			c24.513-2.634,47.585-10.966,70.156-20.502c30.991-13.095,61.775-27.978,95.562-32.151c4.057-0.501,7.5-3.032,7.5-7.5
			c0-3.708-3.433-8.002-7.5-7.5c-25.182,3.111-48.824,11.091-72.124,20.886c-22.118,9.298-43.846,19.649-66.97,26.289
			c-11.641,3.343-23.542,5.52-35.636,6.225c-13.983,0.814-27.816-1.019-41.676-2.618c-15.361-1.772-30.68-3.831-45.901-6.572
			c-14.534-2.617-29.188-5.512-42.937-11.004c-31.893-12.741-64.046-36.35-100.021-33.206
			C38.531,133.363,38.449,148.37,48.09,147.527L48.09,147.527z"/>
	</g>
</g>
<g opacity="0.1">
	<g>
		<path d="M50.88,125.349c-19.809,6.02-36.303,21.052-35.672,43.145c0.542,18.971,11.71,35.147,23.121,49.395
			c10.224,12.767,22.393,24.052,35.122,34.272c6.627,5.321,13.4,10.521,20.519,15.175c2.118,1.385,4.283,2.698,6.5,3.919
			c0.894,0.492,1.805,0.951,2.725,1.391c0.399,0.191,0.806,0.367,1.212,0.543c1.912,0.822,3.831,1.631,5.755,2.425
			c-3.888-1.632-4.44-1.848-1.654-0.646c29.554,12.892,60.522,20.467,92.272,25.614c20.17,3.271,39.645,5.604,60.04,4.37
			c39.031-2.358,78.277-10.96,114.752-25.014c36.679-14.133,71.434-33.59,95.721-65.195c11.672-15.188,16.896-32.847,19.396-51.541
			c1.61-12.037-0.531-24.025-9.123-33.13c-10.754-11.397-27.184-10.263-41.211-8.231c-12.159,1.761-18.656,16.982-15.715,27.678
			c1.547,5.625,5.311,10.5,10.34,13.447c5.713,3.347,11.054,3.179,17.338,2.268c-7.088,1.027,1.371,0.052,3.193,0.052
			c1.89,0,5.852,0.754-1.975-0.448c0.844,0.129,1.657,0.377,2.467,0.635c-6.194-1.977-4.625-2.162-2.75-0.934
			c-1.169-0.882-2.338-1.764-3.507-2.646c1.454,1.571,0.701,0.575-2.259-2.989c1.877,2.743-2.219-6.069-1.121-2.816
			c1.546,4.586-0.439-5.686-0.135-2.035c0.161,1.931,0.014,3.888-0.146,5.812c-0.138,1.648-0.843,5.862,0.234-1.465
			c-0.183,1.244-0.407,2.481-0.627,3.719c-0.701,3.944-1.535,7.788-2.772,11.605c-0.626,1.932-3.378,8.539-0.017,0.621
			c-0.721,1.698-1.535,3.355-2.376,4.998c-1.854,3.62-4.042,7.063-6.389,10.381c-0.552,0.781-1.127,1.545-1.702,2.309
			c4.513-5.994,2.182-2.827,1.121-1.526c-1.237,1.519-2.538,2.983-3.856,4.432c-2.938,3.23-6.102,6.252-9.361,9.153
			c-1.549,1.379-3.144,2.706-4.75,4.017c-1.243,1.014-4.541,3.555,1.247-0.913c-0.842,0.649-1.696,1.282-2.55,1.916
			c-3.782,2.804-7.706,5.414-11.69,7.92c-8.007,5.033-16.392,9.452-24.938,13.492c-2.107,0.996-4.234,1.952-6.365,2.896
			c-1.072,0.475-2.149,0.937-3.228,1.399c6.591-2.827,2.467-1.045,1.031-0.455c-4.749,1.951-9.555,3.76-14.389,5.488
			c-9.321,3.331-18.796,6.223-28.352,8.801c-9.341,2.521-18.784,4.658-28.284,6.49c-4.391,0.846-8.799,1.599-13.217,2.291
			c-2.151,0.337-4.307,0.646-6.464,0.945c8.688-1.204-0.365,0.01-2.452,0.247c-15.108,1.718-30.482,2.527-45.652,1.157
			c-3.624-0.327,6.973,1.003,0.809,0.148c-1.838-0.255-3.675-0.519-5.512-0.783c-3.674-0.528-7.344-1.089-11.011-1.664
			c-7.934-1.246-15.84-2.652-23.718-4.213c-15.046-2.979-29.932-6.766-44.491-11.6c-3.476-1.153-6.917-2.407-10.344-3.698
			c-1.713-0.646-3.412-1.327-5.111-2.008c-5.715-2.293,4.276,1.879-1.37-0.584c-2.464-1.075-4.914-2.172-7.417-3.159
			c8.11,3.2,5.548,2.386,3.782,1.569c-1.095-0.507-2.159-1.08-3.216-1.662c-5.238-2.883-10.162-6.355-14.966-9.901
			c-0.925-0.684-1.842-1.379-2.757-2.076c6.436,4.903,2.444,1.89,1.019,0.763c-2.209-1.749-4.381-3.545-6.533-5.363
			c-4.537-3.833-8.928-7.838-13.195-11.97c-4.307-4.171-8.436-8.524-12.375-13.045c-1.5-1.721-7.91-9.855-2.563-2.9
			c-1.673-2.176-3.255-4.421-4.773-6.708c-1.422-2.143-2.731-4.356-3.956-6.617c-0.514-0.948-0.989-1.917-1.457-2.889
			c-2.188-4.549,2.22,5.733,0.469,1.125c-0.757-1.992-1.324-4.05-1.742-6.138c-0.669-3.348,0.744,7.218,0.38,2.723
			c-0.084-1.042-0.062-2.088-0.003-3.131c0.183-3.283-1.268,7.226-0.36,2.992c0.452-2.106,2.454-6.052-1.111,1.997
			c0.327-0.737,0.744-1.431,1.17-2.113c1.304-2.086-4.719,5.347-1.13,1.61c1.332-1.387,4.676-3.741-1.957,1.29
			c0.999-0.758,2.084-1.396,3.176-2.008c1.634-0.918,5.918-2.628-1.595,0.495c1.437-0.597,2.923-1.07,4.411-1.521
			c11.725-3.563,19.032-15.619,15.715-27.678C75.372,129.48,62.613,121.783,50.88,125.349L50.88,125.349z"/>
	</g>
</g>
<g opacity="0.1">
	<g>
		<path d="M27.709,131.809c5.14-11.191,11.232-21.861,18.572-31.761c2.689-3.627-1.792,2.223,1-1.264
			c0.838-1.046,1.705-2.069,2.572-3.091c1.703-2.007,3.49-3.94,5.304-5.846c3.807-3.999,7.912-7.704,12.186-11.195
			c3.229-2.638-2.417,1.789,0.895-0.711c0.987-0.745,1.994-1.462,3.001-2.178c2-1.423,4.06-2.761,6.137-4.07
			c4.459-2.811,9.12-5.292,13.871-7.569c1.094-0.524,2.2-1.02,3.307-1.516c3.726-1.671-2.897,1.167,0.883-0.382
			c2.249-0.921,4.53-1.761,6.819-2.576c4.996-1.777,10.096-3.25,15.233-4.556c4.808-1.223,9.675-2.207,14.56-3.069
			c2.472-0.437,4.954-0.81,7.438-1.165c-3.761,0.537,0.456-0.044,1.025-0.113c1.682-0.205,3.367-0.381,5.053-0.553
			c10.74-1.098,21.545-1.496,32.337-1.552c22.626-0.118,45.034,2.411,67.604,3.185c26.886,0.922,53.699-5.092,79.916-10.277
			c12.751-2.521,25.306-4.823,35.849-5.921c6.026-0.627,12.079-0.949,18.138-0.996c2.999-0.023,5.997,0.084,8.992,0.245
			c1.494,0.08,2.984,0.21,4.476,0.341c0.992,0.093,1.984,0.198,2.975,0.315c-1.513-0.222-1.358-0.197,0.463,0.074
			c5.993,0.899,11.881,2.39,17.638,4.27c1.47,0.48,2.918,1.026,4.365,1.572c4.711,1.776-2.44-1.157,2.208,0.928
			c3.456,1.55,6.784,3.368,10.051,5.279c6.639,3.885,11.019,7.797,16.962,12.34c-4.718-3.606-0.909-0.625,0.139,0.318
			c1.306,1.178,2.55,2.423,3.781,3.678c2.574,2.625,5,5.396,7.358,8.214c0.692,0.826,4.717,5.967,2.144,2.607
			c1.521,1.987,2.978,4.022,4.402,6.078c2.456,3.541,4.719,7.211,6.806,10.979c1.005,1.815,1.926,3.674,2.807,5.551
			c1.504,3.207-1.244-3.146,0.058,0.074c0.477,1.179,0.89,2.381,1.288,3.588c0.38,1.147,0.685,2.317,0.972,3.49
			c0.28,1.141,0.781,5.29,0.182,0.192c0.123,1.05,0.14,2.107,0.132,3.162c-0.03,3.975,0.598-2.766,0.093-0.309
			c-0.273,1.329-1.786,4.21,0.329-0.263c-0.58,1.226-2.739,3.486,0.354-0.13c-2.436,2.849,2.247-1.346,0.168,0.088
			c-0.456,0.298-0.926,0.574-1.407,0.829c-2.729,1.523,3.426-1.232,0.297-0.123c-7.699,2.729-12.764,10.138-10.477,18.452
			c2.05,7.453,10.74,13.21,18.451,10.477c47.014-16.667,7.75-73.275-13.313-94.749c-1.887-1.924-3.861-3.775-5.976-5.448
			c-1.012-0.782-2.023-1.563-3.036-2.346c1.701,1.215,1.643,1.104-0.175-0.332c-1.9-1.581-3.884-3.089-5.849-4.583
			c-3.21-2.441-6.504-4.73-9.921-6.873c-11.655-7.308-24.964-12.403-38.421-15.153c-26.761-5.471-53.957-1.837-80.493,3.079
			c-12.896,2.39-25.719,5.151-38.633,7.441c-12.822,2.273-22.26,3.561-36.347,3.882c-11.816,0.27-23.633-1.14-35.413-1.883
			c-11.102-0.7-22.218-1.18-33.342-1.315c-43.103-0.524-88.534,4.942-125.351,29.108C33.605,64.539,14.479,89.075,1.805,116.667
			c-3.413,7.43-2.182,16.092,5.381,20.523C13.712,141.013,24.296,139.239,27.709,131.809L27.709,131.809z"/>
	</g>
</g>
<g opacity="0.1">
	<g>
		<path d="M259.581,161.08c-0.151-1.274,0.247-7.407-0.444-3.343c0.14-0.687,0.329-1.358,0.568-2.017
			c-0.17,0.525-3.147,4.568-1.342,2.671c-0.983,1.019-2.167,1.674-3.551,1.967c2.944-1.24-3.521,0.009-0.056-0.079
			c1.651,0.103,1.48,0.076-0.513-0.079c1.343,0.272,2.627,0.806,3.894,1.31c2.658-9.643,5.316-19.286,7.975-28.929
			c-12.992-2.036-25.952-2.288-39.075-2.29c-19.346-0.002-19.346,29.997,0,30c10.054,0.001,22.953-0.058,31.1,1.219
			c8.07,1.265,16.102-1.934,18.451-10.477c2.351-8.543-2.887-15.43-10.477-18.452c-9.613-3.828-20.315-2.813-28.28,4.013
			c-6.847,5.868-9.277,15.824-8.251,24.486c0.961,8.117,6.096,15,15,15C252.029,176.08,260.545,169.218,259.581,161.08
			L259.581,161.08z"/>
	</g>
</g>
<g opacity="0.1">
	<g>
		<path fill="#D11F3F" d="M76.961,144.919c1.569-2.568,3.291-5.019,5.115-7.412c-1.955,2.53-3.909,5.06-5.864,7.589
			c10.366-13.303,23.208-24.641,36.491-34.945c-2.53,1.955-5.06,3.909-7.589,5.864c13.917-10.686,28.804-20.593,45.021-27.442
			c-2.986,1.26-5.972,2.52-8.958,3.78c6.071-2.49,12.053-4.125,18.564-5.023c-3.323,0.446-6.646,0.893-9.969,1.339
			c13.711-1.663,27.44-0.894,41.1,0.881c-3.323-0.447-6.646-0.893-9.969-1.34c30.545,4.175,60.19,12.413,91.159,13.48
			c12.649,0.436,25.302-0.134,37.923-0.952c13.494-0.875,27.604-3.224,41.079-1.62c-3.323-0.447-6.646-0.893-9.97-1.34
			c6.645,0.964,12.953,2.877,19.154,5.424c-2.985-1.26-5.972-2.52-8.957-3.78c15.546,6.631,30.063,16.329,46.373,21.108
			c14.928,4.374,30.482,6.262,44.907,12.324c-2.986-1.26-5.972-2.52-8.958-3.78c2.066,0.923,4.082,1.909,6.075,2.981
			c18.002,9.689,40.715,4.629,51.307-13.454c10.054-17.162,4.525-41.63-13.453-51.307c-10.894-5.863-22.636-10.025-34.615-12.991
			c-10.006-2.477-20.536-3.927-30.112-7.834c2.985,1.26,5.972,2.52,8.957,3.78c-14.105-5.962-27.395-13.542-41.585-19.369
			c-14.806-6.079-30.651-7.762-46.532-6.766c-27.462,1.722-54.563,3.882-82.057,1.218c3.323,0.446,6.646,0.893,9.969,1.339
			c-27.27-4.171-53.995-10.835-81.541-13.326c-15.307-1.384-30.302-0.143-45.44,2.47c-10.366,1.789-20.408,6.824-29.747,11.395
			c-19.145,9.371-36.526,22.572-52.885,36.081c-15.086,12.458-29.509,26.997-39.753,43.771
			c-10.661,17.457-3.915,41.133,13.453,51.307C43.545,168.853,66.327,162.333,76.961,144.919L76.961,144.919z"/>
	</g>
</g>
<g opacity="0.1">
	<g>
		<path fill="#D11F3F" d="M39.117,184.087c25.158,24.079,55.086,41.178,88.688,50.364c31.044,8.487,63.649,10.479,95.445,14.71
			c-3.323-0.447-6.646-0.894-9.969-1.34c22.197,2.992,44.25,6.451,66.693,6.714c18.849,0.22,38.05-1.924,56.361-6.37
			c36.111-8.769,68.638-28.892,99.102-49.442c16.91-11.406,24.288-32.812,13.453-51.307c-9.826-16.775-34.337-24.9-51.307-13.454
			c-20.509,13.834-41.485,27.353-64.33,37.038c2.986-1.261,5.972-2.521,8.958-3.78c-13.798,5.746-28.113,9.798-42.919,11.897
			c3.323-0.446,6.646-0.894,9.969-1.34c-23.841,3.202-47.939,1.56-71.698-1.566c3.323,0.446,6.646,0.893,9.969,1.34
			c-22.446-3.424-45.021-5.802-67.522-8.805c3.323,0.446,6.646,0.893,9.969,1.339c-22.293-3.019-44.492-7.122-65.344-15.84
			c2.986,1.26,5.972,2.521,8.958,3.78c-12.359-5.292-23.887-12.08-34.553-20.264c2.53,1.955,5.06,3.909,7.589,5.864
			c-5.044-3.946-9.854-8.144-14.48-12.571c-14.757-14.125-38.349-14.684-53.033,0C24.907,145.265,24.353,169.956,39.117,184.087
			L39.117,184.087z"/>
	</g>
</g>
<g opacity="0.1">
	<g>
		<path fill="#D11F3F" d="M13.956,202.814c21.513,43.355,66.118,68.971,112.48,77.307c45.566,8.193,90.824,4.656,136.348-1.549
			c34.319-4.678,67.779-12.626,100.609-23.683c39.043-13.148,76.896-29.882,114.149-47.395c8.413-3.954,14.851-13.746,17.233-22.411
			c2.663-9.679,1.293-20.235-3.78-28.896c-4.91-8.383-13.037-14.655-22.411-17.234c-10.396-2.86-19.448-0.66-28.896,3.78
			c-16.554,7.782-33.207,15.346-50.049,22.486c2.986-1.26,5.972-2.52,8.958-3.78c-50.902,21.473-103.053,37.7-157.893,45.101
			c3.323-0.446,6.646-0.893,9.969-1.339c-34.622,4.623-69.945,7.234-104.722,2.729c3.323,0.446,6.646,0.893,9.969,1.339
			c-15.631-2.106-31.04-5.722-45.613-11.837c2.986,1.261,5.972,2.521,8.958,3.78c-9.06-3.893-17.625-8.716-25.478-14.692
			c2.53,1.954,5.06,3.908,7.59,5.863c-6.633-5.164-12.572-11.043-17.76-17.659c1.955,2.529,3.909,5.06,5.864,7.589
			c-4.158-5.436-7.726-11.225-10.768-17.354c-9.081-18.301-34.589-23.247-51.307-13.453c-8.383,4.91-14.655,13.037-17.234,22.411
			C7.361,184.149,9.356,193.545,13.956,202.814L13.956,202.814z"/>
	</g>
</g>
<g opacity="0.1">
	<g>
		<path fill="#D11F3F" d="M116.511,171.299c10.411,0.05,20.763,0.937,31.085,2.248c-6.188-0.786,1.738,0.274,2.871,0.444
			c2.974,0.444,5.941,0.933,8.907,1.427c5.977,0.996,11.937,2.092,17.895,3.194c23.465,4.345,47.069,9.219,70.943,10.581
			c47.41,2.704,93.673-10.571,135.795-31.493c10.978-5.452,13.949-20.75,8.071-30.784c-6.506-11.106-19.8-13.528-30.784-8.072
			c-4.938,2.453-9.922,4.799-14.964,7.031c-2.346,1.011-2.219,0.969,0.381-0.127c-1.108,0.463-2.219,0.92-3.333,1.37
			c-2.761,1.125-5.548,2.182-8.343,3.22c-9.884,3.672-20.007,6.675-30.267,9.097c-5.071,1.197-10.192,2.17-15.332,3.022
			c-1.142,0.185-2.285,0.361-3.43,0.528c3.116-0.4,3.39-0.437,0.819-0.111c-2.877,0.364-5.766,0.637-8.654,0.887
			c-11.155,0.966-22.379,0.939-33.547,0.213c-2.295-0.149-4.582-0.386-6.869-0.623c-1.394-0.144-10.634-1.329-4.306-0.466
			c-5.258-0.717-10.497-1.573-15.728-2.46c-10.715-1.818-21.384-3.897-32.072-5.866c-22.78-4.196-45.917-8.148-69.139-8.26
			c-12.266-0.059-22.5,10.279-22.5,22.5C94.011,161.109,104.247,171.241,116.511,171.299L116.511,171.299z"/>
	</g>
</g>
<g opacity="0.1">
	<g>
		<path fill="#D11F3F" d="M162.125,174.808c20.523,2.48,40.986,5.604,61.623,7.018c23.122,1.582,46.147-0.031,68.92-4.313
			c12.063-2.268,18.761-16.604,15.715-27.678c-3.451-12.547-15.636-17.979-27.678-15.715c-2.568,0.483-5.14,0.934-7.72,1.353
			c-1.262,0.199-2.525,0.388-3.79,0.566c2.855-0.379,2.981-0.408,0.378-0.084c-5.418,0.649-10.865,1.036-16.314,1.295
			c-9.834,0.467-19.691,0.198-29.511-0.424c-20.636-1.308-41.11-4.538-61.623-7.017c-12.206-1.476-22.5,11.351-22.5,22.5
			C139.625,165.687,149.952,173.336,162.125,174.808L162.125,174.808z"/>
	</g>
</g>
</svg>
