<?xml version="1.0" encoding="utf-8"?>
<!-- Generator: Adobe Illustrator 16.0.0, SVG Export Plug-In . SVG Version: 6.00 Build 0)  -->
<!DOCTYPE svg PUBLIC "-//W3C//DTD SVG 1.1//EN" "http://www.w3.org/Graphics/SVG/1.1/DTD/svg11.dtd">
<svg version="1.1" id="Layer_1" xmlns="http://www.w3.org/2000/svg" xmlns:xlink="http://www.w3.org/1999/xlink" x="0px" y="0px"
	 width="404.683px" height="339.929px" viewBox="0 0 404.683 339.929" enable-background="new 0 0 404.683 339.929"
	 xml:space="preserve">
<path fill="none" stroke="#010101" stroke-miterlimit="10" d="M6.392,148.249c0-41.271,15.081-81.188,41.246-113.242
	c12.318-15.09,28.492-24.209,46.98-26.813c14.505-2.042,24.196-3.081,37.797,1.81c11.157,4.012,21.991,3.246,33.972,3.246
	c22.6,0,43.489-6.544,66.051-2.223c17.947,3.438,38.107,11.063,53.982,19.194c19.454,9.964,40.21,25.49,53.749,42.726
	c13.569,17.273,16.027,45.385,29.441,62.055c5.429,6.747,14.196,9.049,21.781,12.248"/>
<path fill="none" stroke="#010101" stroke-miterlimit="10" d="M345.392,161.249c-6.29-14.507-45.388-24.905-59.004-32.977
	c-17.138-10.159-32.832-19.075-51.944-24.777c-39.506-11.788-77.946-14.874-119.029-10.269c-19.116,2.143-43.834,3.883-59.845,15.8
	c-7.811,5.814-11.238,15.61-18.907,21.497c-6.409,4.919-18.748,5.311-23.271,11.726"/>
<path fill="none" stroke="#010101" stroke-miterlimit="10" d="M392.392,162.249c-4.57,14.366-5.388,29.54-10.948,44.004
	c-7.247,18.853-15.104,33.511-26.797,50.79c-15.492,22.891-31.852,45.806-56.231,59.513c-38.8,21.813-87.758,24.723-131,20.693
	c-20.433-1.904-44.263-0.118-62.575-11.301c-7.429-4.537-11.87,1.693-17.448-4.699c-3.495-4.006-7.031-9.415-11-13
	c-9.9-8.943-19.122-13.49-31.276-19.203c0.798-4.856-6.612-21.948-8.449-27.02c-3.526-9.729-7.544-17.445-9.297-27.726
	c-2.199-12.894-3.897-25.867-6.616-38.668c-1.757-8.272-5.219-17.854-2.731-26.38c5.439-18.639,31.706-15.409,45.367-8
	c16.763,9.091,28.782,26.232,43.811,37.215c16.947,12.386,29.439,25.296,51.241,28.556c20.792,3.108,40.097,3.998,60.729,0.226
	c19.143-3.5,36.75-12.386,54.166-21c13.993-6.921,28.952-14.226,41.619-23.223c7.281-5.172,13.961-13.635,21.438-17.777"/>
<path fill="none" d="M84.392,101.249c7.116,2.437,43.488,16.245,40-4.744c-1.686,19.815,11.937,17.249,26.19,18.499
	c4.821,0.422,18.872,4.245,23.075,0.54c3.858-3.401,0.999-12.368,3.135-17.266c11.273,6.066,12.133,17.377,26.604,18.972
	c11.232,1.238,28.599-0.246,34.996-10"/>
<path fill="none" d="M92.392,186.249c23.161-20.813,26.249,4.111,30.167,23.043c4.186-7.303,2.545-12.629,11.368-17.285
	c5.829-3.076,13.226-4.139,19.02-0.754c8.613,5.031,12.209,19.283,11.369,28.845c-11.717,2.142-15.607-9.847-11.947-19.875
	c2.729-7.477,12.53-10.321,19.774-12.22c23.796-6.234,26.774,14.715,26.158,33.65c-0.473,0.051,4.55-1.434,4.772-1.549
	c2.053-8.658-7.956-15.301-4.431-23.656c2.606-6.179,13.098-9.2,18.772-9.195c16.296,0.013,22.324,7.867,27.028,21.665
	c-0.138-10.432-0.735-13.722,9.483-17.224c6.909-2.368,17.472-4.252,24.592-2.246c3.564,1.005,0.787,4.677,7.147,4.598
	c4.178-0.052,10.477-6.696,14.02-8.845c5.813-3.526,12.613-5.675,17.706-9.952"/>
<path fill="none" d="M95.392,99.249c10.566,9.275,20.131,11.16,31.9,3.25c-5.151,24.291,41.852,20.054,45.301-3.071
	c3.085,6.9,6.801,19.142,13.995,22.844c4.67,2.404,16.605,2.026,22.007,2c7.338-0.035,15.156-1.205,21.043-6.194
	c8.341-7.069,10.624-12.986,20.754-1.829"/>
<path fill="none" d="M95.392,183.249c2.602-11.503,18.356-11.427,24.945-4.048c5.778,6.471,7.034,24.172,6.059,31.114
	c-2.349-15.253,11.164-27.496,25.04-19.285c8.736,5.169,10.888,18.434,9.731,28.868c-3.196-17.409-5.521-40.057,21.226-33.649
	c18.037,4.321,12.856,27.486,9.957,41.789c2.014-9.545,4.38-20.542,7.043-29.761c2.363-8.185,4.391-8.713,13.952-9.806
	c7.699-0.881,16.8-1.929,21.874,3.775c3.483,3.917,6.018,14.281,5.122,19.549c2.907-15.599,5.374-19.093,21.298-21.57
	c11.918-1.854,19.177-0.794,19.879,12.646c7.349,1.285,23.423-15.988,29.875-20.623"/>
<path fill="none" d="M95.392,100.249c6.189,6.341,29.563,11.029,29.223-3.717c0.263,4.194,1.273,12.16,4.507,15.159
	c4.338,4.023,10.985,2.339,17.493,2.559c6.749,0.228,15.184,2.988,20.38-1.231c3.666-2.976,4.792-12.317,5.548-16.669
	c3.3-0.577,6.944-0.264,9.772,0.884c-14.823,15.708,8.517,16.074,18.128,17.964c13.678,2.691,26.715,2.677,37.948-6.948"/>
<path fill="none" stroke="#080406" stroke-miterlimit="10" d="M126.392,207.249c0-10.109-0.438-24.707,15.028-19.849
	c12.261,3.852,19.216,22.92,22.972,32.849"/>
<path fill="none" stroke="#080406" stroke-miterlimit="10" d="M93.392,98.249c10.741,4.812,16.463,7.663,26.267-1.646
	c4.562,19.443,13.438,17.781,30.733,18.646c14.529,0.727,23.957-2.488,24.354-19.845c4.964-0.157,9.515,1.223,14.495,0.973
	c0.709,14.884-1.401,20.128,15.377,20.895c13.194,0.603,24.298-3.924,36.774-5.023"/>
<path fill="none" stroke="#080406" stroke-miterlimit="10" d="M92.392,182.249c11.361-26.883,34.925,3.008,35,20"/>
<path fill="none" stroke="#080406" stroke-miterlimit="10" d="M162.392,219.249c0.904-11.011-7.72-14.31-7.997-23
	c-0.348-10.943,12.314-8.43,20.212-9.223c19.34-1.941,25.807,12.857,24.784,30.223"/>
<path fill="none" stroke="#080406" stroke-miterlimit="10" d="M103.392,163.249c5.653-9.942,5.343-13.479,17-15.948
	c10.408-2.204,16.816-1.535,27,0.893c19.202,4.579,35.945,11.787,56.803,9.027c23.383-3.095,42.762-10.429,67.165-9.023
	c10.508,0.605,17.914,4.426,26.278,10.048c8.691,5.843,12.872,7.003,23.754,7.003"/>
<path fill="none" stroke="#000000" stroke-miterlimit="10" d="M202.392,220.249c2.338-11.094,4.782-30.169,20.774-29.075
	c7.665,0.524,17.131,18.429,22.452,24.899c-2.928-5.064-6.414-11.672-5.072-17.701c8.072-2.912,18.182-6.539,26.771-7.175
	c7.062-0.522,21.051,6.887,23.075,6.052"/>
<g opacity="0.6">
	<g>
		<path d="M53.868,140.034c7.073-10.775,18.006-17.146,30.225-20.536c11.132-3.089,23.998-4.349,35.199-1.163
			c12.112,3.444,23.441,9.104,36.035,10.818c14.614,1.989,27.875-2.081,38.369-12.601c2.88-2.887,2.9-7.722,0-10.606
			c-2.296-2.284-4.721-4.515-7.518-6.173c-6.422-3.808-14.193,3.802-10.261,10.261c6.943,11.406,16.566,18.229,29.869,19.734
			c11.426,1.293,22.965-2.243,34.408-2.212c13.421,0.036,26.277,7.24,37.612,13.709c13.233,7.553,25.831,16.265,39.802,22.46
			c0.597-4.569,1.194-9.139,1.791-13.708c-9.256,2.602-20.217-2.26-28.808-5.32c-10.602-3.774-20.792-7.792-32.027-9.173
			c-14.816-1.822-29.856,1.605-44.444,3.794c-15.4,2.311-31.239,1.544-46.759,1.204c-7.75-0.169-15.494-0.53-23.226-1.095
			c-6.608-0.483-13.152-1.792-19.768-2.077c-11.748-0.505-21.015,7.315-29.582,14.306c-1.409,1.15-2.814,2.368-4.215,3.375
			c-0.608,0.438-1.252,0.807-1.911,1.163c1.428-0.771-1.163-0.125,0.865-0.246c1.966-0.117-0.534-0.307,0.69,0.231
			c-0.771-0.339-1.48-0.829-2.183-1.287c-2.379-1.552-4.468-3.623-6.588-5.497c-9.868-8.72-20.654-17.942-34.688-15.749
			c-0.452,0.123-0.905,0.246-1.357,0.369c-4.196,1.141-5.977,5.218-5.238,9.226c1.937,10.507,12.385,15.061,18.929,22.31
			c4.056,4.493,10.743,1.665,12.535-3.31c7.798-21.637-24.758-30.342-39.017-20.47c-7.844,5.43-0.792,18.059,7.57,12.952
			c4.442-2.712,8.201-6.522,12.095-9.935c3.52-3.084,8.131-7.445,13.099-7.374c-0.135-0.002-0.641-0.149-0.912-0.372
			c0.718,0.591,1.447,1.351,2.008,2.089c1.698,2.233,3.096,4.7,4.448,7.151c2.603,4.721,4.856,9.738,6.244,14.958
			c2.482,9.34,16.948,5.374,14.464-3.987c-3.285-12.378-9.715-23.623-13-36c-3.075,3.075-6.15,6.15-9.226,9.226
			c6.73,2.579,11.656,13.111,12.494,19.768c4.268-1.768,8.536-3.536,12.803-5.303c-4.438-5.561-4.162-13.998-4.803-20.697
			c-1.835,2.411-3.671,4.821-5.506,7.232c29.268-7.433,57.52,4.395,86.717,5.322c28.35,0.9,57.49-2.301,85.295,4.678
			c-0.597-4.569-1.194-9.139-1.791-13.708c-17.48,9.547-40.729,7.499-59.804,5.731c-14.322-1.327-28.447-3.996-42.687-5.938
			c-15.381-2.099-75.705-11.916-67.957,19.676c1.063,4.338,7.138,7.38,11.017,4.482c3.194-2.386,5.443-2.432,9.208-3.244
			c-3.075-3.075-6.15-6.15-9.226-9.226c-0.8,3.854-0.223-0.012,3.222-0.918c1.329,0,2.658,0,3.987,0
			c-0.061-0.017-0.121-0.033-0.182-0.05c1.494,1.149,2.988,2.298,4.482,3.446c-0.024-0.037-0.049-0.073-0.074-0.11
			c0,2.524,0,5.047,0,7.571c0.02-0.037,0.039-0.073,0.058-0.11c-1.494,1.149-2.988,2.298-4.482,3.447
			c0.071-0.017,0.143-0.034,0.214-0.05c9.417-2.2,5.423-16.663-3.987-14.464c-1.96,0.458-3.809,1.813-4.754,3.606
			c-1.204,2.284-1.519,5.313,0,7.571c2.084,3.098,5.332,4.5,8.992,3.537c4.306-1.133,6.173-5.561,6.988-9.488
			c1.192-5.739-3.449-10.472-9.226-9.226c-4.821,1.04-8.683,1.686-12.792,4.756c3.672,1.494,7.345,2.988,11.017,4.482
			c-0.186-0.881-0.207-0.802-0.063,0.238c-0.062-0.481,0.086-2.27-0.206-0.112c0.267-1.976-0.717,0.761,0.338-0.89
			c-0.69,0.855-0.76,0.981-0.211,0.379c1.204-1.258-1.362,0.877,0.156-0.149c0.483-0.326,1.009-0.588,1.528-0.851
			c1.811-0.917-1.448,0.514,0.579-0.202c5.722-2.021,10.69-1.965,17.095-1.979c13.276-0.029,26.531,1.697,39.011,3.605
			c15.521,2.375,31.004,4.86,46.689,5.908c19.408,1.297,41.129,1.084,58.637-8.478c5.672-3.098,4.435-12.146-1.791-13.708
			c-28.579-7.173-58.413-4.531-87.564-5.168c-14.998-0.328-29.759-3.971-44.561-6.082c-16.053-2.291-32.029-2.771-47.862,1.25
			c-2.996,0.761-5.815,4.002-5.506,7.232c1.093,11.422,1.782,22.012,9.197,31.303c3.913,4.903,13.598,1.014,12.803-5.303
			c-1.765-14.029-9.726-28.952-23.506-34.232c-5.536-2.122-10.578,4.13-9.226,9.226c3.285,12.378,9.715,23.623,13,36
			c4.821-1.329,9.643-2.658,14.464-3.987c-1.819-6.845-4.962-13.474-8.371-19.657c-3.315-6.012-7.36-11.886-13.868-14.581
			c-7.014-2.905-15.814,1.974-21.268,5.962c-5.34,3.907-10.119,9.501-15.511,12.793c2.523,4.317,5.047,8.635,7.57,12.952
			c2.806-1.943,7.446-2.333,11.675-1.549c2.078,0.386,4.523,1.334,5.232,1.93c0.875,0.735,0.482,0.083,0.768,1.112
			c-0.092-0.713-0.121-0.583-0.088,0.388c0.017-0.966-0.653,1.785-0.604,1.649c4.178-1.104,8.357-2.207,12.535-3.31
			c-4.324-4.79-13.843-9.029-15.071-15.69c-1.746,3.075-3.492,6.15-5.238,9.226c5.287-1.438,10.437,2.617,14.471,5.572
			c5.249,3.845,9.723,8.669,14.936,12.578c7.743,5.806,14.926,4.913,22.283-0.866c7.325-5.754,14.503-13.792,24.392-13.367
			c6.231,0.268,12.44,1.539,18.667,2.029c8.371,0.659,16.768,0.953,25.161,1.137c15.743,0.344,31.419,0.605,47.047-1.528
			c14.737-2.013,29.101-5.126,44.05-3.288c10.296,1.267,20.488,6.46,30.216,9.817c10.107,3.489,21.107,6.568,31.804,4.188
			c0.325-0.091,0.649-0.183,0.975-0.274c5.737-1.613,8.001-10.954,1.791-13.708c-25.642-11.372-48.188-33.02-76.611-37.479
			c-11.227-1.761-22.197,0.551-33.374,1.464c-11.636,0.951-20.068-2.018-26.324-12.294c-3.42,3.42-6.841,6.841-10.261,10.261
			c1.708,1.013,3.079,2.432,4.482,3.827c0-3.536,0-7.071,0-10.606c-20.489,20.539-47.585-1.602-70.697-4.197
			c-12.623-1.417-27.039,1.127-38.894,5.379c-13.428,4.817-24.741,13.389-32.583,25.335
			C35.59,140.576,48.584,148.083,53.868,140.034L53.868,140.034z"/>
	</g>
</g>
<g opacity="0.6">
	<g>
		<path d="M119.695,139.552c7.434-7.069,18.95-5.42,28.141-3.596c11.273,2.237,22.153,6.225,33.519,8.021
			c15.062,2.379,30.494-1.335,45.468-2.91c16.178-1.701,31.57,3.45,47.569,4.682c9.652,0.743,9.58-14.263,0-15
			c-16.057-1.236-31.295-6.229-47.569-4.682c-15.085,1.435-30.814,5.699-45.92,2.64c-22.622-4.581-51.976-18.626-71.814,0.238
			C102.066,135.622,112.69,146.213,119.695,139.552L119.695,139.552z"/>
	</g>
</g>
<g opacity="0.6">
	<g>
		<path d="M131.385,140.48c12.134-2.663,23.216,6.768,34.25,10.288c14.418,4.599,30.762,4.934,45.756,4.98
			c9.675,0.03,9.672-14.97,0-15c-15.137-0.047-31.491-0.336-45.793-5.866c-5.757-2.226-11.108-5.399-16.901-7.586
			c-6.874-2.595-14.174-2.844-21.299-1.28C117.951,128.09,121.958,142.55,131.385,140.48L131.385,140.48z"/>
	</g>
</g>
<g opacity="0.2">
	<g>
		<path d="M159.606,163.725c20.808,13.625,44.726,7.378,66.779,0.756c7.933-2.382,6.677-15.092-1.994-14.732
			c-23.008,0.956-46.162-3.042-68.994,1.268c-6.052,1.142-7.703,11.172-1.792,13.708c3.325,1.426,6.395,2.35,10.007,2.728
			c2.577,0.27,5.622,0.075,7.993,1.272c2.01,1.015,3.838,3.567,5.566,5.036c2.198,1.87,4.446,3.025,7.088,4.121
			c4.066,1.685,7.804,2.646,10.828,5.671c3.677,3.677,12.817,2.607,17.297,0.929c6.044-2.266,7.561-10.027,1.791-13.708
			c-2.393-1.526-4.982-1.976-7.785-2.024c-9.678-0.167-9.662,14.833,0,15c1.137,0.031,1.208,0.023,0.215-0.024
			c0.597-4.569,1.194-9.139,1.791-13.708c-2.534,0.95-5.334,0.728-8.006,0.732c2.158,1.238,4.317,2.477,6.476,3.715
			c-4.613-7.29-12.905-7.527-19.594-11.715c-4.072-2.549-6.393-6.706-11.177-8.384c-4.77-1.673-10.323-0.621-14.919-2.592
			c-0.597,4.569-1.194,9.139-1.792,13.708c21.335-4.027,43.471,0.163,65.006-0.732c-0.665-4.911-1.329-9.821-1.994-14.732
			c-18.083,5.43-38.007,12.028-55.221,0.756C159.058,145.456,151.551,158.45,159.606,163.725L159.606,163.725z"/>
	</g>
</g>
<g opacity="0.2">
	<g>
		<path d="M62.177,151.725c16.355-10.628,37.917-15.776,57.215-16.976c-1.262-4.659-2.523-9.317-3.785-13.976
			c-10.914,5.208-22.88,6.256-32.518,14.173c-4.177,3.431-2.031,11.619,3.31,12.535c11.926,2.047,23.924,2.266,35.994,2.268
			c6.127,0.001,10.489-8.453,5.303-12.803c-8.738-7.331-21.045-8.285-29.688-14.125c0.814,0.659,0.947,0.732,0.399,0.22
			c2.192,2.167,1.667,5.58-0.118,7.743c-1.256,1.521,0.686-0.266,0.85-0.328c3.975-1.502,8.328-2.451,12.563-2.622
			c10.378-0.42,20.756,3.133,30.696,5.646c9.382,2.373,13.361-12.094,3.987-14.464c-12.262-3.101-24.898-7.02-37.692-6.002
			c-6.74,0.536-22.27,2.866-23.555,11.748c-1.313,9.072,7.396,12.507,14.321,15.299c3.47,1.399,7.001,2.641,10.485,4.005
			c1.505,0.589,2.333,0.953,3.9,1.702c0.703,0.336,1.386,0.709,2.066,1.088c0.335,0.187,2.567,1.861,1.177,0.696
			c1.768-4.268,3.536-8.536,5.303-12.803c-10.672-0.002-21.456,0.079-32.006-1.732c1.104,4.178,2.207,8.357,3.31,12.535
			c3.848-3.161,8.942-4.55,13.603-5.996c5.416-1.679,10.75-3.383,15.879-5.831c6.707-3.201,3.495-14.429-3.785-13.976
			c-21.86,1.359-46.23,6.966-64.785,19.024C46.53,144.021,54.04,157.013,62.177,151.725L62.177,151.725z"/>
	</g>
</g>
<g opacity="0.2">
	<g>
		<path d="M237.386,139.48c9.87-1.926,20.847-3.588,30.784-1.336c5.034,1.141,9.349,4.529,13.544,7.365
			c4.53,3.063,9.322,5.708,14.684,6.971c9.408,2.217,13.401-12.246,3.988-14.464c-5.577-1.314-10.065-4.785-14.755-7.922
			c-4.924-3.295-10.231-5.868-16.084-6.951c-11.86-2.196-24.438-0.414-36.149,1.873C223.909,126.868,227.938,141.325,237.386,139.48
			L237.386,139.48z"/>
	</g>
</g>
<g opacity="0.2">
	<g>
		<path d="M28.373,158.945c12.15-1.636,23.991-11.247,32.927-18.899c9.633-8.248,17.445-18.811,20.309-31.328
			c0.776-3.395,1.104-7.076,1.544-10.475c0.482-3.721-0.914,6.405-0.374,2.847c0.108-0.711,0.265-1.41,0.434-2.109
			c0.478-1.974,2.146-3.99-1.289,2.85c1.478-2.943-4.188,4.784-1.792,2.319c-4.183,4.303-3.953,2.81-1.766,1.532
			c1.97-0.983,1.171-0.678-2.397,0.917c0.817-0.31,1.645-0.591,2.481-0.845c13.422-4.334,27.544-6.713,41.474-8.703
			c5.896-0.842-4.983,0.64,0.878-0.112c1.688-0.217,3.378-0.418,5.068-0.62c3.271-0.39,6.546-0.743,9.822-1.089
			c7.175-0.757,14.256-1.316,21.479-1.111c3.469,0.099,6.93,0.4,10.381,0.751c1.052,0.107,6.962,0.955,0.996,0.095
			c1.751,0.252,3.494,0.555,5.237,0.856c7.538,1.304,14.982,3.121,22.356,5.142c13.208,3.62,26.144,7.895,39.469,11.132
			c13.428,3.263,26.887,6.446,39.902,11.148c1.529,0.553,3.041,1.152,4.553,1.753c-5.884-2.34,0.843,0.439,1.976,0.976
			c3.318,1.571,6.492,3.341,9.513,5.425c3.041,2.098,5.988,4.332,8.925,6.572c-4.701-3.586-0.2-0.149,0.631,0.498
			c1.751,1.365,3.5,2.733,5.252,4.097c14.561,11.332,28.769,21.578,46.049,28.384c11.428,4.501,24.687-4.84,27.678-15.715
			c3.516-12.781-4.313-23.188-15.715-27.678c-5.083-2.002,4.561,2.101-0.435-0.235c-1.457-0.681-2.874-1.443-4.292-2.2
			c-2.892-1.545-5.673-3.292-8.425-5.071c-2.805-1.813-5.523-3.758-8.226-5.72c-1.36-0.987-2.702-2-4.044-3.012
			c-0.894-0.676-1.784-1.356-2.672-2.04c2.34,1.81,2.534,1.957,0.581,0.44c-11.686-9.095-22.842-18.588-36.48-24.598
			c-26.409-11.638-54.989-15.982-82.376-24.623c-15.403-4.859-30.973-8.068-46.967-10.212c-14.1-1.89-27.78-0.918-41.841,0.652
			c-15.725,1.756-31.473,3.877-46.934,7.288c-15.014,3.312-29.549,7.167-38.846,20.312c-1.853,2.62-3,6.017-3.762,9.166
			c-0.234,0.966-0.353,1.964-0.488,2.947c-0.311,2.257-0.613,4.517-0.907,6.776c0.636-4.605,0.789-5.753,0.458-3.445
			c-0.34,2.347-0.906,4.631-1.642,6.884c-1.258,3.849,2.562-4.749,0.003-0.386c-2.77,4.724,2.929-3.39,0.405-0.293
			c-1.833,2.249-3.918,4.291-6.03,6.274c-1.295,1.217-2.657,2.363-4.024,3.499c-1.85,1.48-1.388,1.133,1.384-1.04
			c-0.708,0.528-1.424,1.045-2.148,1.551c-2.364,1.679-4.854,3.172-7.417,4.524c-5.161,2.722,3.802-1.34,0.527-0.196
			c-1.093,0.381-2.222,0.604-3.366,0.758c-12.18,1.64-18.632,17.073-15.715,27.678C4.272,156.234,16.228,160.58,28.373,158.945
			L28.373,158.945z"/>
	</g>
</g>
<g opacity="0.2">
	<g>
		<path d="M5.439,172.819c6.467,11.416,9.864,21.186,13.934,34.604c3.953,13.03,7.23,26.255,11.187,39.285
			c3.989,13.137,8.846,26.183,15.493,38.223c6.077,11.007,15.725,19.609,25.975,26.614c19.442,13.286,43.81,19.981,66.875,23.317
			c24.384,3.526,49.384,5.766,74.033,4.867c20.563-0.749,41.345-4.132,60.422-12.035c21.33-8.836,39.955-22.275,55.33-39.518
			c35.804-40.15,54.598-93.16,75.168-141.941c3.185-7.55-3.366-16.497-10.477-18.452c-8.663-2.383-15.277,2.949-18.451,10.477
			c-11.306,26.808-21.585,52.713-35.228,78.937c-13.003,24.996-27.382,47.976-48.808,65.902c-0.068,0.058-3.852,3.047-1.544,1.28
			c-1.141,0.873-2.309,1.708-3.478,2.543c-2.293,1.639-4.666,3.163-7.062,4.646c-5.041,3.121-10.346,5.799-15.771,8.181
			c3.026-1.328-1.063,0.391-1.395,0.52c-1.247,0.487-2.509,0.936-3.771,1.384c-2.516,0.895-5.07,1.677-7.634,2.422
			c-5.564,1.618-11.244,2.815-16.953,3.787c-1.326,0.226-2.658,0.42-3.989,0.614c3.516-0.513-0.94,0.093-1.374,0.143
			c-2.703,0.312-5.417,0.537-8.132,0.736c-5.978,0.44-11.977,0.572-17.97,0.563c-11.949-0.018-23.888-0.856-35.78-1.963
			c-4.415-0.41-8.823-0.881-13.229-1.368c-2.475-0.274-4.948-0.562-7.421-0.852c3.786,0.443-2.731-0.444-3.626-0.591
			c-9.05-1.481-17.986-3.635-26.732-6.387c-2.245-0.706-4.466-1.489-6.678-2.293c-0.882-0.325-1.762-0.659-2.638-1.002
			c-0.226-0.087-4.498-1.888-1.615-0.641c-4.242-1.834-8.351-3.962-12.343-6.288c-1.951-1.137-3.837-2.38-5.701-3.653
			c-0.732-0.509-1.457-1.028-2.172-1.56c2.618,1.911-0.817-0.712-1.101-0.95c-1.661-1.396-3.218-2.908-4.739-4.453
			c-0.596-0.617-1.178-1.247-1.748-1.888c-0.302-0.334-2.936-3.646-0.875-0.928c-6.089-8.029-9.032-16.201-11.924-24.189
			c-3.674-10.152-6.529-20.592-9.398-30.992c-5.875-21.296-11.795-42.892-22.758-62.245c-4.024-7.104-13.542-9.47-20.523-5.381
			C3.702,156.467,1.408,165.703,5.439,172.819L5.439,172.819z"/>
	</g>
</g>
<g opacity="0.2">
	<g>
		<path d="M30.177,170.725c20.64-10.533,42.532,14.414,56.108,26.728c17.699,16.053,36.754,30.365,60.22,36.483
			c13.018,3.394,26.714,4.137,40.104,4.475c15.204,0.384,30.441-0.51,45.512-2.534c14.14-1.898,28.398-4.371,41.462-10.306
			c10.07-4.574,18.578-12.068,26.171-19.972c8.039-8.369,15.453-17.44,24.833-24.395c12.02-8.911,25.035-14.998,38.799-20.724
			c3.771-1.569,6.426-4.909,5.238-9.226c-0.982-3.569-5.444-6.812-9.227-5.238c-12.47,5.188-25.271,10.151-36.398,17.945
			c-9.59,6.716-18.145,14.121-26.114,22.698c-7.042,7.578-13.876,15.474-22.521,21.287c-11.027,7.415-24.192,9.903-37.074,12.106
			c-14.922,2.553-30.136,3.441-45.259,3.428c-13.428-0.012-27.06-0.625-40.175-3.674c-22.945-5.332-40.998-20.195-58.004-35.73
			c-19.083-17.432-43.86-40.279-71.244-26.304C13.988,162.17,21.581,175.112,30.177,170.725L30.177,170.725z"/>
	</g>
</g>
<g opacity="0.2">
	<g>
		<path d="M16.624,120.255c-2.498-9.381,2.253-18.795,6.888-26.708c5.754-9.825,13.059-18.662,20.009-27.643
			c13.058-16.872,23.655-36.74,44.349-45.469c11.725-4.945,23.654-4.589,36.114-4.597c14.254-0.009,28.504-0.462,42.756-0.675
			c28.365-0.423,57.095-0.069,84.752,6.922c15.768,3.985,30.843,10.891,45.827,17.12c14.992,6.232,30.215,13.47,42.504,24.261
			c24.975,21.928,28.091,59.112,42.094,87.567c4.271,8.68,17.206,1.075,12.951-7.57c-11.316-22.997-15.526-48.84-28.668-71.057
			c-13.788-23.311-37.473-36.063-61.651-46.3c-12.002-5.082-24.104-10.307-36.389-14.663c-13.266-4.704-27.158-7.223-41.083-8.982
			c-28.55-3.605-57.501-2.336-86.189-1.812c-19.052,0.349-38.904-1.87-57.006,5.322c-16.292,6.473-28.615,18.59-38.982,32.397
			c-4.416,5.881-8.273,12.132-12.779,17.954c-5.487,7.089-11.093,14.086-16.237,21.432C6.58,91.039-2.277,107.579,2.16,124.242
			C4.646,133.581,19.116,129.614,16.624,120.255L16.624,120.255z"/>
	</g>
</g>
<g opacity="0.2">
	<g>
		<path fill="#DA1F26" d="M65.908,144.138c8.75-7.599,15.759-17.444,21.257-27.603c4.118-7.608,7.491-15.574,12.671-22.562
			c-1.955,2.53-3.909,5.06-5.864,7.59c2.31-2.948,4.848-5.564,7.762-7.918c-2.53,1.955-5.06,3.909-7.589,5.864
			c7.387-5.542,15.257-10.39,23.74-14.066c-2.986,1.26-5.972,2.52-8.958,3.78c8.134-3.376,16.572-5.41,25.279-6.63
			c-3.323,0.447-6.646,0.893-9.969,1.34c12.545-1.646,25.234-2.174,37.84-3.189c13.783-1.11,27.554-1.903,41.321-0.176
			c-3.323-0.447-6.646-0.893-9.969-1.34c15.381,2.157,29.75,7.761,44.002,13.732c-2.986-1.26-5.972-2.521-8.958-3.78
			c17.625,7.477,34.597,16.281,51.344,25.536c17.473,9.656,32.968,22.032,49.647,32.914c17.14,11.181,41.361,3.524,51.307-13.454
			c10.714-18.289,3.632-40.162-13.453-51.307c-12.632-8.24-24.505-17.577-37.212-25.705c-12.46-7.971-25.902-14.726-39.113-21.355
			c-15.146-7.601-30.773-14.314-46.598-20.365c-16.483-6.302-33.144-9.761-50.831-10.767c-14.1-0.802-28.261,0.843-42.3,1.931
			c-15.004,1.162-29.984,2.082-44.8,4.96c-13.801,2.681-27.29,8.569-39.294,15.778c-15.476,9.293-28.225,20.899-37.195,36.689
			c-4.861,8.557-8.553,17.639-14.424,25.61c1.955-2.53,3.909-5.06,5.864-7.589c-2.565,3.313-5.376,6.301-8.54,9.049
			c-15.443,13.412-13.687,39.346,0,53.033c7.001,7.001,16.611,10.983,26.517,10.983C49.881,155.122,58.19,150.841,65.908,144.138
			L65.908,144.138z"/>
	</g>
</g>
<g opacity="0.2">
	<g>
		<path fill="#DA1F26" d="M7.012,193.517c6.456,13.354,16.678,24.608,25.685,36.253c-1.954-2.53-3.909-5.06-5.863-7.59
			c3.561,4.656,7.241,9.41,9.844,14.686c2.474,5.014,4.624,10.177,7.211,15.136c7.678,14.718,20.575,27.159,35.356,34.626
			c26.938,13.607,56.884,13.581,86.147,17.463c-3.323-0.446-6.646-0.893-9.969-1.34c14.777,2.208,29.396,4.014,44.344,3.215
			c15.326-0.819,30.396-3.89,45.469-6.545c-3.322,0.446-6.646,0.893-9.969,1.34c7.471-0.995,15.023-0.519,22.5-1.45
			c13.115-1.635,24.036-4.383,35.833-10.699c13.201-7.067,23.1-18.883,34.309-28.504c-2.53,1.954-5.06,3.909-7.59,5.863
			c18.583-13.9,37.533-27.265,55.59-41.863c7.318-5.917,10.983-17.493,10.983-26.517c0-9.906-3.982-19.516-10.983-26.517
			s-16.61-10.983-26.517-10.983c-10.775,0-18.447,4.459-26.517,10.983c-3.07,2.482-6.168,4.929-9.29,7.346
			c2.529-1.954,5.06-3.909,7.59-5.864c-11.201,8.606-22.702,16.808-34.065,25.196c-7.054,5.208-13.861,10.539-20.194,16.591
			c-3.821,3.65-7.597,7.331-11.723,10.642c2.529-1.955,5.06-3.909,7.589-5.864c-3.43,2.638-7.009,4.878-10.954,6.664
			c2.986-1.26,5.973-2.521,8.958-3.78c-4.176,1.72-8.533,2.906-12.987,3.646c3.322-0.446,6.646-0.893,9.969-1.339
			c-10.859,1.353-21.6,0.875-32.469,2.789c-7.562,1.333-15.064,2.884-22.674,3.939c3.322-0.446,6.646-0.893,9.969-1.339
			c-14.501,1.896-28.866,1.843-43.367-0.054c3.323,0.446,6.646,0.893,9.969,1.339c-15.92-2.231-31.9-3.532-47.833-5.59
			c3.323,0.446,6.646,0.893,9.969,1.339c-10.457-1.415-20.876-3.375-30.649-7.477c2.986,1.26,5.972,2.521,8.958,3.78
			c-4.019-1.793-7.781-3.952-11.354-6.523c2.53,1.954,5.06,3.909,7.59,5.863c-3.045-2.355-5.717-4.963-8.118-7.973
			c1.955,2.529,3.909,5.06,5.864,7.59c-5.242-7.003-8.414-15.157-12.185-22.982c-5.592-11.605-15.124-21.471-22.959-31.563
			c1.955,2.53,3.909,5.059,5.864,7.589c-4.714-6.132-9.193-12.392-12.57-19.375c-8.894-18.397-34.727-23.166-51.307-13.454
			c-8.383,4.911-14.655,13.038-17.234,22.412C0.395,174.933,2.488,184.162,7.012,193.517L7.012,193.517z"/>
	</g>
</g>
<g opacity="0.2">
	<g>
		<path fill="#DA1F26" d="M106.392,175.749c8.371-1.03,13.798,7.236,19.761,11.872c9.353,7.271,20.211,5.232,31.05,2.861
			c7.544-1.65,16.488-1.804,24.065-0.127c7.391,1.636,11.467,6.958,13.891,13.888c1.684,4.814,8.672,8.005,12.536,3.31
			c5.125-6.23,11.589-9.962,19.952-9.775c5.191,0.115,10.276,1.281,15.483,0.798c5.688-0.529,11.048-1.807,16.804-1.834
			c20.71-0.099,43.08-3.013,57.761-19.188c2.554-2.814,3.247-7.895,0-10.607c-11.203-9.355-26.87-7.866-40.556-8.096
			c-15.169-0.255-29.026-7.623-44.321-8.121c-9.595-0.313-19.344,1.715-28.911,2.399c-10.382,0.742-20.792,1.066-31.195,1.324
			c-20.786,0.514-41.584,0.621-62.321,2.297c0.665,4.911,1.329,9.821,1.994,14.732c3-1,6-2,9-3c3.066-1.022,5.678-3.793,5.506-7.232
			c-0.153-3.066-1.116-5.113-3.197-7.303c-1.103,4.178-2.206,8.357-3.31,12.535c7.675-2.648,22.48-4.881,27.53,3.553
			c0.897-3.42,1.794-6.841,2.691-10.261c-3.951,1.688-9.234-0.055-13.221-0.756c-9.489-1.669-13.182,11.218-3.987,14.464
			c5.795,2.046,11.978,2.092,18,3c-0.597-4.57-1.194-9.139-1.792-13.708c-2.122,0.949-3.674,1.742-5.518,3.173
			c-2.702,2.095-2.597,6.379-1.173,9.088c4.798,9.129,21.656,8.165,30.169,8.498c6.687,0.261,13.382,0.286,20.072,0.389
			c2.848,0.044,5.695,0.108,8.541,0.228c1.035,0.044,2.069,0.108,3.103,0.183c0.45,0.034,0.9,0.073,1.35,0.117
			c2.074,0.194-1.528-0.266,0.247,0.033c0.665-4.911,1.329-9.821,1.994-14.732c-11.072-1.166-21.75-4.747-33-4
			c-7.9,0.524-9.643,9.489-3.785,13.976c9.087,6.962,20.214,9.364,30,15c3.927,2.262,10.109,0.368,11.018-4.481
			c1.904-10.171,11.559-13.979,20.762-15.762c-2.823-3.673-5.646-7.345-8.47-11.018c-3.434,4.916-8.012,8.875-11.828,13.481
			c-3.12,3.767-2.852,9.038,1.519,11.779c10.683,6.703,23.98,0.604,34.501-3.328c12.103-4.523,25.824-6.246,38.29-1.915
			c-0.597-4.569-1.194-9.139-1.791-13.708c-0.434,0.287-0.871,0.546-1.327,0.794c-1.751,0.952,0.204-0.01-1.059,0.448
			c-1.647,0.597-3.362,1.007-5.07,1.382c-3.647,0.801-7.069,1.065-11.282,1.132c-4.281,0.068-7.308-0.185-11.139-1.156
			c-2.231-0.565-2.425-0.724-3.716-1.449c-1.296-0.728-1.361-1.531-0.961-0.488c-0.667-1.737-0.037,1.528-0.142-0.427
			c-0.05-0.925-0.225,0.29,0.299-1.53c0.35-1.215,1.344-2.909,2.561-4.152c2.551-2.607,7.8-2.117,11.15-1.563
			c10.364,1.715,19.894,6.674,29.477,10.715c3.775,1.592,8.248-1.684,9.227-5.238c1.191-4.332-1.475-7.638-5.238-9.226
			c-10.848-4.575-24.673-11.427-38.086-11.605c-13.267-0.177-27.006,11.663-24.006,25.846c2.443,11.552,16.035,14.448,25.976,15.154
			c9.701,0.689,22.534-0.137,30.907-5.687c5.566-3.688,4.449-11.54-1.791-13.708c-12.26-4.259-27.623-4.011-40.003-0.267
			c-5.596,1.692-10.977,4.053-16.517,5.914c-3.709,1.245-9.088,3.368-12.689,1.109c0.506,3.926,1.012,7.853,1.519,11.779
			c4.652-5.616,9.976-10.509,14.172-16.519c4.111-5.886-2.624-12.15-8.47-11.017c-14.11,2.734-28.396,11.062-31.238,26.238
			c3.672-1.494,7.345-2.988,11.017-4.481c-9.79-5.64-20.923-8.048-30-15c-1.262,4.659-2.523,9.318-3.785,13.976
			c11.157-0.741,21.976,2.839,33,4c8.392,0.884,10.303-13.337,1.994-14.732c-10.375-1.742-21.18-1.096-31.656-1.321
			c-5.697-0.122-11.4-0.333-17.071-0.912c-1.318-0.134-3.414-0.48-5.297-0.943c-0.417-0.103-2.966-1.083-1.054-0.23
			c-2.039-0.908,0.75,1.215,0.56,0.854c-0.391,3.029-0.782,6.059-1.173,9.089c-2.141,1.66,2.209-0.706,2.482-0.828
			c5.699-2.547,4.453-12.766-1.792-13.708c-5.999-0.905-12.239-0.966-18-3c-1.329,4.821-2.658,9.643-3.987,14.464
			c8.751,1.54,16.353,2.844,24.779-0.756c3.738-1.597,4.593-7.085,2.691-10.261c-8.783-14.67-29.875-15.482-44.47-10.447
			c-5.344,1.843-7.36,8.272-3.31,12.535c-0.07-0.086-0.14-0.172-0.21-0.259c-0.341-1.262-0.683-2.523-1.024-3.785
			c0.012,0.247,0.025,0.494,0.037,0.741c1.835-2.411,3.671-4.821,5.506-7.232c-3,1-6,2-9,3c-7.655,2.551-6.833,15.446,1.994,14.732
			c19.433-1.571,38.928-1.789,58.411-2.208c9.763-0.21,19.523-0.509,29.274-1.046c10.063-0.554,20.031-2.058,30.07-2.69
			c14.967-0.943,28.137,6.36,42.735,7.75c6.569,0.626,13.227,0.279,19.816,0.465c5.046,0.143,12.266,0.089,16.39,3.533
			c0-3.536,0-7.071,0-10.607c-6.675,7.355-15.157,10.991-24.737,13.013c-10.031,2.119-20.19,1.016-30.28,2.155
			c-5.38,0.607-10.266,1.847-15.711,1.419c-5.608-0.441-10.399-0.782-15.979,0.19c-9.677,1.688-16.984,5.556-23.292,13.222
			c4.178,1.104,8.357,2.207,12.536,3.31c-3.243-9.27-8.494-17.688-17.669-21.98c-8.98-4.2-19.172-4.063-28.867-3.653
			c-9.426,0.398-21.142,6.978-29.173,0.059c-8.042-6.928-15.866-15.366-27.523-13.931c-4.057,0.5-7.5,3.034-7.5,7.5
			C98.892,171.958,102.324,176.25,106.392,175.749L106.392,175.749z"/>
	</g>
</g>
</svg>
