<?xml version="1.0" encoding="utf-8"?>
<!-- Generator: Adobe Illustrator 16.0.0, SVG Export Plug-In . SVG Version: 6.00 Build 0)  -->
<!DOCTYPE svg PUBLIC "-//W3C//DTD SVG 1.1//EN" "http://www.w3.org/Graphics/SVG/1.1/DTD/svg11.dtd">
<svg version="1.1" id="Layer_1" xmlns="http://www.w3.org/2000/svg" xmlns:xlink="http://www.w3.org/1999/xlink" x="0px" y="0px"
	 width="527.116px" height="326.167px" viewBox="0 0 527.116 326.167" enable-background="new 0 0 527.116 326.167"
	 xml:space="preserve">
<path fill="none" stroke="#010101" stroke-miterlimit="10" d="M71.084,111.164c-6.201,6.172-27.122-6.057-32.973-11.948
	c-7.312-7.361-13.249-19.396-16.027-29.052"/>
<path fill="none" stroke="#010101" stroke-miterlimit="10" d="M91.084,105.164c-9.532,7.833-23.096-11.092-26.968-18.052
	c-4.382-7.876-4.921-16.204-7.032-24.948"/>
<path fill="none" stroke="#010101" stroke-miterlimit="10" d="M498.084,32.164c-9.328,25.479-15.924,40.823-44.623,48.096
	c0.535,1.295,0.287,2.661,0.623,3.904"/>
<path fill="none" stroke="#010101" stroke-miterlimit="10" d="M81.084,118.164c-13.838,1.625-28.403,1.647-42.297-0.246
	c-16.487-2.246-22.391-13.568-35.703-20.754"/>
<path fill="none" stroke="#010101" stroke-miterlimit="10" d="M43.084,105.164C31.912,99.72-4.057,66.157,20.33,56.338
	c9.47-3.813,19.974,0.276,29.009,1.6c12.2,1.787,17.078-2.818,26.046-8.793c19.551-13.027,50.395-13.96,73.503-18.71
	c26.87-5.523,45.669-12.316,72.641-4.441c21.048,6.146,45.283,8.899,66.079,1.365c25.45-9.22,53.108-10.548,79.922-14.194
	c27.168-3.694,55.548-0.506,82.332,4.246c15.884,2.818,36.085,14.919,36.219,32.977c0.128,17.262-18.013,33.183-34.996,32.777"/>
<path fill="none" stroke="#010101" stroke-miterlimit="10" d="M90.084,108.164c24.711,3.845,47.591-19.275,72.071-20.997
	c20.875-1.468,42.192,7.549,61.825,12.997c49.258,13.668,96.171-22.634,146.052-18.023c22.527,2.082,45.554,5.046,67.829,8.242
	c21.279,3.053,44.315,6.832,63.223-6.219"/>
<path fill="none" stroke="#010101" stroke-miterlimit="10" d="M33.084,120.164c11.705-0.386,21.581,4.419,32.997,5
	c14.708,0.748,25.057-1.775,38.281-7c19.637-7.758,45.81-19.108,66.997-10.248c17.044,7.128,27.181,23.51,45.257,29.493
	c17.318,5.732,37.46,8.262,56.41,6.751c20.875-1.666,32.861-15.802,49.305-27.242c16.409-11.417,36.873-14.888,57.051-15.806
	c18.946-0.862,37.25,4.984,55.755,3.052c16.757-1.75,36.123-14.833,52.948-8"/>
<path fill="none" stroke="#010101" stroke-miterlimit="10" d="M36.084,164.164c-6.373,22.269,16.528,34.164,31.92,44.247
	c16.912,11.08,18.988,34.186,32.331,49.476c13.101,15.013,30.684,25.244,47.023,36.304c20.483,13.864,37.374,16.767,60.726,22.173
	c24.324,5.632,46.719,6.144,72.004,4.801c24.308-1.291,38.778-15.751,58.126-28.075c19.926-12.691,47.381-25.717,59.145-47.916
	c9.298-17.546,13.356-37.885,24.752-54.786c19.29-28.61,40.922-59.54,78.974-58.223"/>
<path fill="none" stroke="#010101" stroke-miterlimit="10" d="M177.084,126.164c-14.752-0.006-40.442,3.763-39,25"/>
<path fill="none" stroke="#010101" stroke-miterlimit="10" d="M211.084,144.164c-23.923,12.352-30.913,35.416-31,61"/>
<path fill="none" stroke="#010101" stroke-miterlimit="10" d="M260.084,160.164c0,24.108,5.881,47.045,6,71"/>
<path fill="none" stroke="#010101" stroke-miterlimit="10" d="M313.084,142.164c15.059,5.15,48.79,26.986,39,48"/>
<path fill="none" stroke="#010101" stroke-miterlimit="10" d="M366.084,112.164c18.073-2.914,22.853,16.376,31,27"/>
<g opacity="0.7">
	<g>
		<path fill="#010101" d="M79.078,123.396c14.511-2.772,28.985-5.733,43.35-9.193c14.171-3.414,27.952-8.712,42.662-8.99
			c14.552-0.276,28.78,3.755,42.933,6.567c15.681,3.115,31.543,5.593,47.547,6.037c15.634,0.434,30.813-2.09,45.854-6.18
			c14.874-4.045,29.578-9.584,44.983-11.205c29.775-3.132,59.338,3.922,88.98,5.426c7.231,0.367,14.473,0.291,21.696-0.194
			c9.572-0.643,9.708-15.472,0-15c-23.507,1.143-47.028-2.956-70.492-3.81c-23.26-0.847-48.484,0.852-67.479,15.703
			c-9.662,7.554-16.337,18.663-28.527,22.542c-13.476,4.287-29.141,5.555-43.204,4.563c-26.813-1.893-45.508-22.484-70.251-30.054
			c-12.261-3.751-25.413-4.833-37.262-9.92c0.897,3.42,1.794,6.841,2.691,10.261c0.559-0.872,0.343-0.579,1.331-1.209
			c1.377-0.877,2.583-1.144,4.273-1.571c3.631-0.918,7.495-0.822,11.208-0.663c7.297,0.313,15.678,1.967,21.699,5.351
			c4.042,2.271,7.252,7.022,10.219,10.499c3.614,4.235,7.646,7.961,12.61,10.56c12.458,6.523,26.913,5.119,40.19,8.48
			c1.329-4.821,2.658-9.643,3.987-14.464c-6.402-1.055-12.795-2.051-19-4c-0.665,4.911-1.329,9.821-1.994,14.732
			c15.628,1.756,30.994,6.274,46.847,5.1c15.093-1.118,27.884-8.282,42.147-12.368c9.373-2.685,5.418-16.371-3.988-14.464
			c-23.993,4.864-48.647,4.68-73.006,3.732c1.262,4.659,2.523,9.317,3.785,13.976c10.26-5.567,22.638-5.808,33.951-7.479
			c12.477-1.844,23.948-7.194,35.813-11.209c26.268-8.889,53.452-2.429,80.45-2.288c9.675,0.051,9.67-14.949,0-15
			c-27.832-0.146-55.499-6.339-82.717,2.259c-12.568,3.971-24.432,9.689-37.534,11.773c-12.902,2.052-25.797,2.622-37.534,8.991
			c-6.825,3.704-3.384,13.697,3.785,13.976c25.746,1.002,51.643,0.872,76.994-4.268c-1.329-4.821-2.659-9.643-3.988-14.464
			c-13.484,3.862-25.692,10.908-39.937,11.963c-15.069,1.116-30.188-3.559-45.069-5.231c-8.734-0.981-9.713,12.307-1.994,14.732
			c6.204,1.949,12.598,2.945,19,4c9.339,1.539,13.539-12.046,3.987-14.464c-12.698-3.215-30.097-0.792-40.764-9.553
			c-4.196-3.446-7.371-8.11-11.083-12.042c-3.942-4.174-7.997-6.844-13.205-9.04c-14.883-6.275-43.186-9.887-53.417,6.081
			c-2.005,3.13-0.967,8.691,2.691,10.261c12.635,5.424,26.065,7.344,39.241,10.968c13.58,3.735,24.297,12.126,36.464,18.8
			c10.887,5.972,22.533,10.218,34.877,11.771c14.145,1.78,28.773,0.12,42.731-2.434c14.275-2.611,24.532-9.406,34.551-19.576
			c8.21-8.334,16.119-14.114,27.504-17.224c23.008-6.285,48.387-2.796,71.766-0.832c12.507,1.051,25.092,2.161,37.651,1.55
			c0-5,0-10,0-15c-29.833,2.003-59.134-4.87-88.849-5.893c-15.607-0.538-30.827,1.221-45.898,5.255
			c-14.819,3.968-29.326,9.02-44.494,11.578c-31.175,5.258-62.004-4.607-92.448-9.599c-14.62-2.397-29.02-2.316-43.422,1.398
			c-14.266,3.679-28.377,7.614-42.8,10.699c-8.006,1.712-16.041,3.292-24.082,4.829C65.595,110.745,69.627,125.201,79.078,123.396
			L79.078,123.396z"/>
	</g>
</g>
<g opacity="0.7">
	<g>
		<path fill="#010101" d="M110.078,112.396c12.057-3.878,24.679-5.233,37-8c9.437-2.119,5.434-16.58-3.987-14.464
			c-12.321,2.767-24.944,4.121-37,8C96.921,100.881,100.843,115.367,110.078,112.396L110.078,112.396z"/>
	</g>
</g>
<g opacity="0.7">
	<g>
		<path fill="#010101" d="M142.084,105.664c19.681-2.252,40.925-7.496,60.338-1.305c16.882,5.384,31.133,15.572,49.406,16.338
			c19.642,0.824,38.301-8.519,56.769-13.717c20.979-5.905,43.193-3.322,64.481-7.584c8.226-1.647,6.424-15.723-1.994-14.732
			c-18.2,2.142-37.679,3.389-55.137,9.284c-15.188,5.128-27.939,15.895-43.857,18.984c-17.288,3.355-34.708-1.282-51.207-5.964
			c-6.367-1.807-12.902-2.992-19.306-4.661c-5.606-1.461-12.066-3.113-16.19-7.446c-3.029,3.926-6.059,7.853-9.088,11.779
			c24.619,13.979,49.505,31.002,78.604,32.938c12.724,0.846,25.485-3.258,37.069-8.093c12.505-5.22,24.338-11.803,35.896-18.845
			c8.245-5.023,0.714-18-7.57-12.952c-19.269,11.74-41.997,25.837-65.396,24.89c-12.517-0.507-24.787-5.707-35.867-11.156
			c-12.067-5.936-23.483-13.1-35.167-19.734c-7.495-4.256-14.963,5.607-9.088,11.779c9.349,9.824,24.794,11.802,37.352,14.756
			c7.854,1.848,15.453,4.507,23.373,6.13c9.613,1.97,19.479,2.822,29.279,2.347c9.427-0.457,18.031-2.656,26.657-6.372
			c7.817-3.367,15.08-7.917,22.762-11.57c8.451-4.018,17.862-5.518,27.013-7.085c9.903-1.697,19.894-2.835,29.868-4.009
			c-0.665-4.911-1.329-9.821-1.994-14.732c-20.217,4.048-41.098,1.965-61.248,6.742c-18.724,4.438-36.375,14.17-56.014,14.023
			c-17.153-0.127-32.297-11.966-48.313-16.691c-19.77-5.833-41.518-0.621-61.431,1.658c-4.061,0.465-7.5,3.06-7.5,7.5
			C134.584,101.899,138.013,106.129,142.084,105.664L142.084,105.664z"/>
	</g>
</g>
<g opacity="0.2">
	<g>
		<path fill="#010101" d="M81.44,99.735c-10.183-4.327-20.725-6.839-31.106-10.547c-1.512-0.54-5.511-2.25,1.207,0.611
			c-1.014-0.432-2.001-0.92-2.987-1.411c-0.967-0.482-1.898-1.031-2.826-1.583c-4.862-2.891,3.119,2.785,0.295,0.428
			c-0.796-0.665-1.513-1.417-2.224-2.168c-2.497-2.639,3.316,5.155,0.477,0.334c-2.126-3.61,1.962,5.445,0.531,1.385
			c-0.524-1.486-0.789-3.051-1.026-4.602C41.922,70.04,26.87,63.505,16.103,66.467C3.257,70.001-1.466,82.032,0.388,94.145
			c2.323,15.179,13.894,27.672,27.429,34.058c6.562,3.096,13.348,5.453,20.297,7.474c2.476,0.72,4.958,1.418,7.429,2.157
			c2.18,0.652,11.314,4.212,3.185,0.758c5.851,2.486,10.927,4.032,17.338,2.268c5.624-1.547,10.5-5.311,13.447-10.34
			C95.111,120.961,92.737,104.536,81.44,99.735L81.44,99.735z"/>
	</g>
</g>
<g opacity="0.2">
	<g>
		<path fill="#010101" d="M54.174,111.253c-20.735,17.274-31.143,46.059-20.786,71.892c4.56,11.374,14.842,19.245,27.678,15.715
			c10.821-2.977,20.286-16.275,15.715-27.678c-0.787-1.962-1.462-3.927-2.035-5.962c-0.255-0.975-0.474-1.957-0.657-2.947
			c0.403,3.546,0.488,4.083,0.255,1.612c-0.165-1.901-0.074-3.812,0.056-5.71c-0.482,7.077,0.286-0.322,0.88-2.28
			c0.819-2.266,0.571-1.797-0.744,1.406c0.39-0.873,0.809-1.732,1.257-2.577c0.884-1.738,1.968-3.368,3.066-4.975
			c-3.604,5.272,0.285-0.195,1.3-1.293c1.797-1.946,3.803-3.689,5.835-5.382c9.433-7.859,8.079-23.741,0-31.82
			C76.737,101.997,63.588,103.412,54.174,111.253L54.174,111.253z"/>
	</g>
</g>
<g opacity="0.2">
	<g>
		<path fill="#010101" d="M43.084,98.664c-13.812-1.32-24.807,7.822-29.293,20.194c-2.93,8.079-0.79,18.1,1.89,25.936
			c5.622,16.439,14.576,31.71,23.353,46.618c2.764,4.694,5.686,9.332,8.175,14.182c5.879,11.454,14.483,21.105,20.649,32.378
			c6.833,12.492,13.971,24.596,23.501,35.276c9.905,11.102,23.388,19.6,36.784,25.885c26.118,12.255,54.114,16.918,82.351,21.467
			c16.242,2.617,32.466,5.46,48.966,5.564c16.31,0.103,32.549-2.855,47.729-8.738c20.924-8.11,39.261-20.334,55.381-35.936
			c14.695-14.223,26.98-30.897,38.845-47.482c7.57-10.581,14.93-21.313,22.66-31.78c0.905-1.225,1.819-2.443,2.735-3.659
			c0.984-1.308,4.547-5.908-0.055,0.029c2.086-2.691,4.222-5.343,6.391-7.968c4.067-4.922,8.333-9.676,12.791-14.246
			c4.435-4.545,9.133-8.825,14.051-12.842c4.537-3.706-3.216,2.398-0.127,0.069c1.198-0.904,2.422-1.774,3.649-2.639
			c2.783-1.961,5.664-3.779,8.591-5.517c2.643-1.569,5.363-3.004,8.113-4.374c1.396-0.695,2.816-1.344,4.238-1.985
			c2.139-0.934,1.434-0.643-2.113,0.872c1.104-0.459,2.219-0.887,3.335-1.314c6.61-2.532,13.462-4.387,20.393-5.793
			c12.024-2.441,18.797-16.474,15.715-27.678c-3.416-12.42-15.67-18.152-27.678-15.715c-20.824,4.228-40.886,13.165-57.854,25.964
			c-17.724,13.37-32.031,29.272-45.53,46.8c-11.664,15.146-22.25,31.077-33.538,46.499c-1.352,1.847-2.72,3.681-4.095,5.509
			c-0.687,0.912-1.38,1.819-2.074,2.727c4.325-5.653,1.676-2.169,0.723-0.954c-3.034,3.869-6.17,7.656-9.395,11.367
			c-6.152,7.081-12.768,13.754-19.89,19.86c-1.402,1.203-7.883,6.288-1.574,1.429c-1.79,1.38-3.63,2.694-5.485,3.985
			c-4.072,2.833-8.334,5.386-12.702,7.733c-2.058,1.106-4.161,2.125-6.277,3.113c-1.397,0.653-5.534,2.402,1.033-0.365
			c-1.104,0.466-2.224,0.899-3.342,1.333c-7.456,2.89-15.011,4.994-22.914,6.242c5.879-0.929-0.041-0.077-1.09,0.02
			c-1.768,0.163-3.542,0.245-5.314,0.329c-3.552,0.168-7.111,0.115-10.663,0.007c-3.581-0.109-7.155-0.399-10.722-0.73
			c-1.798-0.166-3.593-0.38-5.386-0.591c-2.592-0.329-2.4-0.3,0.576,0.088c-1.207-0.172-2.412-0.351-3.616-0.536
			c-13.858-2.096-27.74-4.392-41.513-6.995c-13.273-2.51-26.412-5.763-39.064-10.537c-1.059-0.399-6.184-2.555-0.596-0.167
			c-1.485-0.635-2.947-1.32-4.409-2.006c-2.938-1.379-5.797-2.918-8.621-4.516c-2.859-1.617-5.616-3.408-8.329-5.258
			c-1.376-0.938-2.71-1.935-4.044-2.933c4.735,3.542-1.005-1.136-1.872-1.975c-2.257-2.183-4.335-4.541-6.336-6.956
			c3.946,4.762,0.722,0.921-0.036-0.132c-0.847-1.176-1.642-2.39-2.438-3.601c-3.694-5.619-6.877-11.575-10.204-17.414
			c-6.551-11.496-15.513-21.678-21.283-33.595c-6.49-13.403-15.228-25.739-22.021-39.019c-0.888-1.735-1.744-3.487-2.584-5.246
			c-0.917-1.918-4.164-9.587-0.736-1.368c-1.419-3.403-2.653-6.896-3.492-10.489c-1.308-5.606,0.327,6.413,0.157,1.116
			c-0.017-0.52,0.021-1.037,0.063-1.554c-0.844,5.158-1.029,6.689-0.558,4.593c0.609-2.013,0-0.625-1.829,4.164
			c0.741-1.683,3.542-3.744-2.613,3.235c1.486-1.406,0.279-0.483-3.622,2.767c1.811-1.002,0.405-0.424-4.215,1.732
			c1.714-0.639,5.583-0.48-4.063,0.446c0.786-0.075,1.584,0,2.367,0.075c12.23,1.168,22.5-11.119,22.5-22.5
			C65.584,108.016,55.289,99.83,43.084,98.664L43.084,98.664z"/>
	</g>
</g>
<g opacity="0.2">
	<g>
		<path fill="#010101" d="M23.084,87.664c32.537-0.034,65.021-2.223,96.365-11.476c13.733-4.054,27.269-8.742,41.255-11.89
			c3.385-0.762,6.8-1.375,10.226-1.922c5.927-0.946-4.985,0.56,1.051-0.098c1.801-0.196,3.609-0.32,5.416-0.442
			c8.336-0.566,16.756-0.344,25.099-0.063c30.462,1.027,61.777,6.831,92.195,2.977c27.439-3.477,52.733-14.971,79.945-19.23
			c-6.443,1.009-1.036,0.164,0.263,0.029c2.114-0.22,4.237-0.334,6.36-0.431c3.821-0.173,7.648-0.042,11.462,0.224
			c0.922,0.064,6.579,0.756,1.144,0.011c2.489,0.341,4.963,0.783,7.435,1.231c4.282,0.776,8.532,1.729,12.775,2.694
			c8.337,1.897,16.629,3.971,25.028,5.583c4.728,0.908,9.655,1.176,14.442,1.731c2.488,0.31,2.004,0.24-1.454-0.209
			c1.006,0.146,2.009,0.307,3.01,0.48c1.941,0.324,3.857,0.758,5.766,1.234c1.324,0.33,2.613,0.77,3.898,1.224
			c-6.283-2.222-1.568-0.46,0.177,0.771c-5.22-3.683-1.945-1.405-0.766-0.258c4.204,4.09-1.918-3.049,0.056-0.093
			c0.597,0.895,1.074,1.861,1.548,2.824c-3.182-6.469-1.132-2.593-0.641-0.532c0.95,3.993-0.546-6.125-0.325-2.071
			c0.114,2.097-0.916,6.742,0.425-1.18c-0.159,0.945-0.443,1.863-0.726,2.776c-1.072,3.468,2.947-5.723,0.269-1.03
			c-0.891,1.56-3.36,4.115,1.242-1.42c-0.845,1.016-1.839,1.893-2.844,2.743c5.258-4.447,2.809-2.196,1.172-1.244
			c-3.155,1.837,5.922-1.967,0.439-0.205c-1.84,0.592-7.187,1.022,0.313,0.25c-1.668,0.172-3.351,0.104-5.021,0.012
			c-9.914-0.546-19.151,7.268-21.696,16.519c-3.075,11.178,3.683,25.271,15.715,27.678c9.68,1.936,19.36,3.872,29,6
			c11.966,2.641,24.303-3.444,27.678-15.715c3.231-11.746-3.869-24.522-15.715-27.678c-0.009-0.002-0.019-0.005-0.027-0.007
			c0,14.464,0,28.928,0,43.393c0.494-0.159,1.048-0.197,1.559-0.274c2.999-0.453-7.026,0.903-3.729,0.511
			c0.928-0.11,1.858-0.192,2.79-0.269c1.457-0.12,2.917-0.165,4.378-0.148c1.981,0.022,5.232,0.674-3.477-0.593
			c5.441,0.792-10.106-7.703-7.722-4.765c-1.929-3.31-3.857-6.619-5.786-9.929c0.721-5.349,1.441-10.698,2.163-16.046
			c3.16-3.73,3.942-4.795,2.347-3.197c3.423-2.542,4.243-3.179,2.462-1.909c-1.932,1.078-0.955,0.713,2.93-1.094
			c-0.924,0.363-1.917,0.547-2.885,0.743c7.521-1.519,2.581-0.402,0.405-0.375c-1.228,0.016-2.457-0.064-3.683-0.137
			c-1.628-0.096-7.923-0.924-0.476,0.097c-3.055-0.419-6.09-0.99-9.118-1.562c-6.692-1.265-13.324-2.542-20.113-3.242
			c-9.438-0.974-19.507,0-29,0c-12.266,0-22.5,10.235-22.5,22.5s10.234,22.5,22.5,22.5c8.449,0,16.899,0,25.349,0
			c1.502,0,3.008-0.066,4.502,0.088c-8.001-0.826-3.944-0.538-2.109-0.231c2.726,0.454,5.435,1.011,8.147,1.536
			c13.015,2.518,28.918,6.2,41.811,1.135c8.754-3.439,18.645-9.875,20.727-19.89c2.771-13.332-4.115-25.819-17.466-29.509
			c-7.196-1.989-18.91-1.604-25.969,0.668c-9.589,3.086-16.519,11.36-16.519,21.696c0,9.944,6.857,19.123,16.519,21.696
			c0.009,0.002,0.019,0.005,0.027,0.007c3.987-14.464,7.976-28.928,11.963-43.393c-9.64-2.128-19.32-4.064-29-6
			c-1.994,14.732-3.987,29.464-5.981,44.196c13.804,0.76,28.363-4.392,37.76-14.737c10.389-11.439,13.545-25.904,10.688-40.856
			c-2.998-15.683-16.461-27.978-30.62-33.667c-6.788-2.727-14.157-3.49-21.353-4.431c-2.93-0.383-5.865-0.708-8.803-1.021
			c-5.009-0.532,5.737,1.017-0.246-0.182c-2.382-0.477-4.752-1.011-7.122-1.543c-16.346-3.675-32.547-7.833-49.333-9.001
			c-14.562-1.013-29.513,1.523-43.603,5.023c-12.536,3.113-24.744,7.412-37.201,10.812c-6.061,1.654-12.192,3.017-18.392,4.034
			c-5.489,0.9,5.213-0.594-0.349,0.037c-1.606,0.182-3.219,0.299-4.83,0.414c-3.86,0.276-7.732,0.262-11.597,0.118
			c-21.66-0.806-43.221-2.381-64.865-3.547c-23.046-1.242-45.667-0.28-68.138,5.378c-19.313,4.862-37.899,12.379-57.518,16.057
			c-2.455,0.46-4.922,0.854-7.39,1.239c-2.609,0.375-2.465,0.369,0.432-0.019c-1.234,0.161-2.469,0.314-3.705,0.459
			c-5.563,0.67-11.152,1.125-16.742,1.499c-11.339,0.759-22.713,0.922-34.075,0.934c-12.265,0.013-22.5,10.225-22.5,22.5
			C0.584,77.419,10.819,87.676,23.084,87.664L23.084,87.664z"/>
	</g>
</g>
<g opacity="0.2">
	<g>
		<path fill="#010101" d="M94.869,110.64c10.18-4.476,19.083-11.047,30.1-13.437c6.831-1.481,13.978-1.999,20.89-3.088
			c6.93-1.092,13.82-2.075,20.853-1.978c13.02,0.18,25.555,4.998,37.871,8.706c13.611,4.098,27.5,7.08,41.75,7.413
			c28.374,0.664,56.05-8.405,83.342-14.892c13.78-3.276,27.691-6.072,41.911-5.816c15.933,0.287,31.694,3.399,47.5,5.116
			c4.073,0.442,7.5-3.747,7.5-7.5c0-4.422-3.438-7.059-7.5-7.5c-15.208-1.652-30.296-4.381-45.6-5.056
			c-14.947-0.659-29.838,2.219-44.355,5.493c-27.95,6.304-55.55,15.793-84.542,15.115c-28.036-0.656-53.215-16.384-81.325-16.084
			c-7.147,0.076-14.347,1.418-21.391,2.52c-7.456,1.165-15.076,1.827-22.449,3.426c-11.647,2.526-21.374,9.884-32.124,14.61
			c-3.745,1.646-4.577,7.042-2.691,10.261C86.848,111.773,91.127,112.285,94.869,110.64L94.869,110.64z"/>
	</g>
</g>
<g opacity="0.2">
	<g>
		<path fill="#010101" d="M79.078,141.396c27.378-4.495,53.047-22.501,81.508-19.578c13.083,1.344,25.71,8.914,37.148,14.83
			c11.968,6.19,23.991,12.296,37.313,14.9c23.093,4.514,45.117-1.331,66.028-11.041c19.761-9.175,38.216-21.051,59.486-26.613
			c24.153-6.316,48.162-0.389,72.11,3.708c26.411,4.519,52.542,0.906,78.406-5.207c9.411-2.224,5.419-16.688-3.988-14.464
			c-13.803,3.262-27.642,5.888-41.825,6.682c-15.095,0.846-29.24-1.531-44.013-4.284c-14.4-2.683-28.898-4.875-43.587-4.139
			c-12.066,0.605-23.848,3.478-35.109,7.752c-20.424,7.752-38.726,20.068-59.09,27.904c-22.278,8.572-44.54,8.098-66.197-2.129
			c-21.954-10.367-42.916-24.771-68.261-22.97c-25.858,1.837-48.592,16.024-73.917,20.183
			C65.563,128.496,69.618,142.949,79.078,141.396L79.078,141.396z"/>
	</g>
</g>
<g opacity="0.2">
	<g>
		<path fill="#010101" d="M460.09,102.396c18.418,2.808,35.805,1.976,53.988-2c-1.33-4.821-2.658-9.643-3.988-14.464
			c-11.729,3.71-24.075,4.169-36,7c-8.117,1.927-6.512,15.536,1.994,14.732c13.096-1.237,26.224-3.383,37.785-10.024
			c-3.42-0.897-6.841-1.794-10.262-2.691c1.055,2.124,2.59,4.732,2.244,7.221c4.569-0.597,9.139-1.194,13.709-1.792
			c-2.648-5.514-4.336-11.413-6.244-17.208c-2.579-7.829-14.938-6.761-14.732,1.994c0.064,2.775-0.023,6.189-1.355,7.589
			c0.072-0.075-1.116,0.514-1.61,0.653c-1.089,0.307-2.748,0.329-4.458,0.315c-8.061-0.065-16-1.972-24.076-2.058
			c-9.677-0.103-9.667,14.897,0,15c10.236,0.108,20.609,3.283,30.814,1.542c11.591-1.978,15.938-12.276,15.686-23.042
			c-4.91,0.665-9.821,1.329-14.732,1.994c2.322,7.048,4.536,14.086,7.756,20.792c2.65,5.519,12.821,4.603,13.709-1.792
			c0.979-7.053-0.63-12.481-3.756-18.779c-1.828-3.682-6.902-4.62-10.262-2.691c-9.174,5.27-19.813,6.993-30.215,7.976
			c0.664,4.911,1.329,9.821,1.994,14.732c11.924-2.831,24.27-3.29,36-7c9.242-2.923,5.453-16.528-3.988-14.464
			c-15.369,3.36-30.402,4.38-46.012,2c-4.038-0.616-8.048,0.955-9.227,5.238C453.865,96.757,456.042,101.778,460.09,102.396
			L460.09,102.396z"/>
	</g>
</g>
<g opacity="0.2">
	<g>
		<path fill="#010101" d="M2.608,108.949c6.329,13.785,12.081,27.959,22.173,39.518c2.292,2.625,6.216,2.626,9.088,1.173
			c12.354-6.252,12.572-21.488,13.715-33.476c-4.911,0.665-9.821,1.329-14.732,1.994c0.6,2.683,0.726,5.262,0.732,8.006
			c4.911-0.665,9.821-1.329,14.732-1.994c-1.373-10.006-4.929-19.852-11.929-27.31c-3.731-3.976-11.36-2.177-12.535,3.31
			c-1.915,8.94,2.427,15.513,4,23.987c4.569-1.926,9.139-3.853,13.708-5.779c-2.526-3.57-6.021-4.782-9.173-7.518
			c-4.188-3.635-10.935-2.409-12.535,3.31c-2.712,9.687-4.12,20.7,3.929,28.297c3.831,3.617,8.833,2.351,11.779-1.518
			c5.665-7.438,8.838-16.738,3.37-25.215c-3.424-5.309-10.733-9.096-12.614-14.564c-2.354-6.842-12.374-7.452-14.464,0
			c-3.386,12.072,3.105,22.524,11.929,30.297c4.315,3.801,10.722,2.246,12.535-3.31c0.578-1.769,1.85-3.363,2.772-4.976
			c1.621-2.838,2.244-5.801,2.496-9.018c-4.268,1.768-8.536,3.536-12.803,5.303c6.976,8.12,14.595,16.147,25.31,18.929
			c5.791,1.503,10.369-3.673,9.226-9.226c-1.331-6.468-3.846-11.932-8.929-16.31c-1.103,4.178-2.206,8.357-3.31,12.535
			c2.117-0.57,3.667-1.491,5.31-2.929c3.259-2.851,2.5-7.655,0-10.606c-4.985-5.883-11.705-10.349-19.31-11.929
			c-6.944-1.442-13.146,7.12-7.297,12.535c4.895,4.532,11.734,6.563,17.592,9.517c1.533,0.773,3.018,1.63,4.457,2.567
			c0.109,0.071,1.997,2.067,1.329,1.083c0.811,1.195-0.23-0.727-0.251-1.194c-0.038-0.874,0.239-1.299,0.725-1.926
			c-1.122,1.449-2.773,2.289-4.333,3.174c-7.521,4.267-2.396,15.765,5.779,13.708c5.732-1.442,10.509-4.986,16-7
			c9.003-3.302,5.115-17.802-3.987-14.464c-5.441,1.995-10.396,5.589-16,7c1.926,4.569,3.853,9.139,5.779,13.708
			c4.597-2.608,9.497-6.188,10.722-11.665c1.167-5.214-1.415-10.084-5.414-13.3c-3.71-2.983-7.895-5.04-12.2-7.019
			c-2.099-0.965-4.208-1.906-6.281-2.925c-0.871-0.428-1.721-0.893-2.56-1.379c-1.788-1.037-0.107,0.103-0.75-0.491
			c-2.432,4.178-4.865,8.357-7.297,12.535c5.331,1.107,9.209,3.963,12.69,8.071c0-3.536,0-7.071,0-10.606
			c0.437-0.31,0.873-0.619,1.31-0.929c-5.156,1.388-7.662,8.787-3.31,12.535c3.308,2.849,4.207,5.494,5.071,9.69
			c3.075-3.075,6.15-6.15,9.226-9.226c-8.026-2.084-13.507-9.038-18.69-15.071c-4.637-5.398-12.339-0.622-12.803,5.303
			c-0.253,3.227-3.699,6.843-4.732,10.006c4.178-1.104,8.357-2.207,12.535-3.31c-4.567-4.023-9.926-9.089-8.071-15.703
			c-4.821,0-9.643,0-14.464,0c2.312,6.721,7.012,11.122,12.001,15.907c0.541,0.519,2.284,2.46,2.125,2.241
			c0.299,0.434,0.57,0.884,0.815,1.351c-0.638-1.133,0.259,1.306,0.09-0.035c0.377,2.986-2.332,6.207-4.275,8.758
			c3.926-0.506,7.853-1.012,11.779-1.518c-3.596-3.395-1.213-9.625-0.071-13.703c-4.178,1.104-8.357,2.207-12.535,3.31
			c1.346,1.168,2.76,2.212,4.258,3.173c0.671,0.43,3.859,3.132,2.569,1.309c4.981,7.037,15.287,2.723,13.708-5.779
			c-0.924-4.976-5.085-10.945-4-16.013c-4.178,1.104-8.357,2.207-12.535,3.31c5.193,5.533,7.067,13.374,8.071,20.69
			c1.173,8.55,14.75,6.233,14.732-1.994c-0.009-4.062-0.38-8.022-1.268-11.994c-1.969-8.808-13.977-5.934-14.732,1.994
			c-0.589,6.186,0.208,17.237-6.285,20.524c3.029,0.391,6.059,0.782,9.088,1.173c-9.103-10.425-14.123-24.058-19.827-36.482
			C11.528,92.596-1.398,100.224,2.608,108.949L2.608,108.949z"/>
	</g>
</g>
<g opacity="0.2">
	<g>
		<path fill="#C11F3C" d="M51.226,109.068c0.344-0.15,0.688-0.301,1.032-0.451c-2.389,1.008-4.777,2.017-7.167,3.024
			c9.593-3.948,19.929-5.75,30.156-7.167c-2.659,0.357-5.317,0.715-7.975,1.072c16.042-2.13,32.2-2.942,48.324-4.182
			c10.028-0.771,19.859-1.227,29.841-2.676c10.798-1.568,20.561-7.259,30.451-11.54c-2.389,1.008-4.778,2.016-7.167,3.024
			c4.771-1.995,9.56-3.575,14.695-4.289c-2.659,0.357-5.317,0.714-7.975,1.071c6.075-0.634,12.032,0.065,18.064,0.827
			c-2.658-0.357-5.317-0.714-7.975-1.071c29.1,3.995,57.234,13.575,86.833,14.101c29.977,0.533,59.766-7.363,89.321-11.399
			c-2.658,0.357-5.317,0.714-7.976,1.072c18.75-2.47,37.49-3.354,56.294-0.952c-2.658-0.357-5.316-0.714-7.976-1.071
			c20.698,2.81,41.137,7.648,62.057,8.703c16.345,0.824,30-14.27,30-30c0-16.976-13.674-29.177-30-30
			c-4.996-0.252-9.958-0.735-14.919-1.369c2.658,0.357,5.316,0.714,7.976,1.071c-27.174-3.689-53.643-9.921-81.262-8.544
			c-27.894,1.391-55.271,7.754-82.874,11.532c2.658-0.357,5.316-0.714,7.976-1.071c-14.646,1.919-29.312,2.781-44.013,0.96
			c2.658,0.357,5.316,0.715,7.975,1.072c-20.747-2.918-40.935-8.653-61.646-11.711c-13.57-2.004-25.007-3.004-38.596-0.645
			c-10.332,1.794-19.942,7.305-29.421,11.544c2.389-1.008,4.777-2.016,7.167-3.024c-4.64,1.938-9.316,3.323-14.294,4.046
			c2.658-0.357,5.317-0.714,7.975-1.071c-17.234,2.104-34.817,2.246-52.127,3.76c-21.835,1.911-42.891,4.74-63.058,13.546
			C14.22,60.195,9.015,68.429,7.156,75.188c-2.13,7.743-1.035,16.188,3.024,23.117c3.929,6.706,10.43,11.724,17.929,13.787
			C36.597,114.427,43.487,112.447,51.226,109.068L51.226,109.068z"/>
	</g>
</g>
<g opacity="0.2">
	<g>
		<path fill="#C11F3C" d="M112.084,194.164c2.786-0.078,5.517,0.085,8.281,0.436c-2.658-0.356-5.317-0.714-7.975-1.071
			c7.521,1.156,14.665,3.599,21.658,6.544c-2.389-1.009-4.777-2.017-7.166-3.024c22.229,9.646,42.758,22.912,64.462,33.624
			c15.38,7.59,31.018,12.089,48.259,12.531c13.364,0.343,27.193-1.745,39.976-5.606c44.218-13.357,75.163-49.627,117.014-67.454
			c-2.389,1.008-4.777,2.017-7.166,3.024c3.157-1.308,7.078-2.505,9.799-4.099c2.023-1.563,4.048-3.127,6.071-4.691
			c-4.966,3.172-6.099,4.126-3.399,2.863c-5.047,1.365-10.095,2.73-15.142,4.096c0.442-0.058,0.886-0.114,1.328-0.172
			c8.313-1.076,15.033-2.606,21.213-8.787c5.601-5.601,8.787-13.289,8.787-21.213s-3.187-15.612-8.787-21.213
			c-5.01-5.01-13.826-9.743-21.213-8.787c-6.814,0.882-10.186,1.548-16.47,4.268c-3.313,1.434-6.156,4.038-8.743,6.519
			c4.412-2.572,8.825-5.143,13.237-7.715c-21.222,8.536-39.826,20.051-58.353,33.336c-15.968,11.452-31.902,23.179-50.028,31.039
			c2.39-1.008,4.778-2.016,7.167-3.023c-8.786,3.7-17.866,6.356-27.306,7.741c2.658-0.357,5.316-0.715,7.976-1.072
			c-8.102,1.072-16.248,1.294-24.371,0.317c2.659,0.357,5.317,0.714,7.975,1.071c-6.682-0.958-13.047-2.768-19.285-5.336
			c2.389,1.008,4.778,2.017,7.167,3.024c-8.626-3.713-16.718-8.493-24.958-12.969c-8.348-4.534-16.814-8.853-25.173-13.371
			c-19.786-10.692-41.758-21.474-64.835-20.831c-16.343,0.456-30,13.302-30,30C82.084,180.172,95.73,194.62,112.084,194.164
			L112.084,194.164z"/>
	</g>
</g>
<g opacity="0.1">
	<g>
		<path fill="#C11F3C" d="M80.059,176.092c7.094-2.35,14.296-4.043,21.698-5.074c-2.658,0.356-5.317,0.714-7.975,1.071
			c11.142-1.371,22.261-1.153,33.384,0.289c-2.658-0.357-5.316-0.715-7.975-1.072c19.928,2.817,38.994,9.263,57.799,16.23
			c9.627,3.567,19.152,7.631,28.986,10.595c10.866,3.274,22.649,4.653,33.976,4.521c11.213-0.131,22.489-2.125,33.471-4.266
			c9.603-1.871,19.371-3.643,28.747-6.452c19.479-5.836,37.17-16.278,55.76-24.28c-2.389,1.008-4.777,2.016-7.166,3.023
			c12.031-5.062,24.291-8.108,37.206-9.912c-2.659,0.357-5.317,0.714-7.976,1.072c16.278-2.142,32.687-2.655,49.09-2.673
			c16.354-0.018,30-13.633,30-30c0-16.34-13.646-30.018-30-30c-24.246,0.026-48.669,1.294-72.429,6.455
			c-22.64,4.917-42.757,17.392-63.861,26.419c2.389-1.008,4.778-2.016,7.167-3.024c-17.475,7.301-36.706,11.127-55.425,13.708
			c2.658-0.357,5.317-0.714,7.975-1.072c-8.423,1.066-16.799,1.338-25.243,0.346c2.658,0.357,5.316,0.714,7.975,1.072
			c-13.612-1.871-26.173-7.34-38.945-12.133c-12.782-4.797-25.647-9.381-38.839-12.931c-30.472-8.2-63.099-9.785-93.35,0.233
			c-15.509,5.136-25.458,20.527-20.953,36.903C47.324,170.292,64.532,181.234,80.059,176.092L80.059,176.092z"/>
	</g>
</g>
<g opacity="0.2">
	<g>
		<path fill="#C11F3C" d="M70.084,200.164c2.995-0.122,5.937-0.018,8.911,0.367c-2.658-0.357-5.316-0.715-7.975-1.072
			c3.451,0.549,6.737,1.463,9.969,2.792c-2.389-1.008-4.778-2.017-7.167-3.024c2.03,0.902,3.967,1.926,5.862,3.085
			c0.939,0.574,1.836,1.216,2.733,1.854c-8.234-5.866-4.467-3.508-2.607-1.938c3.757,3.174,7.046,6.887,10.174,10.667
			c0.742,0.896,1.462,1.811,2.184,2.725c-1.085-1.407-2.17-2.814-3.256-4.222c0.477,0.622,0.951,1.246,1.422,1.872
			c1.425,1.884,2.824,3.787,4.229,5.687c4.318,5.841,8.696,11.646,13.292,17.271c8.425,10.312,19.229,18.167,30.024,25.838
			c12.628,8.974,26.218,15.726,40.627,21.372c28.714,11.254,61.221,10.533,90.999,4.412c25.991-5.344,50.868-17.534,72.566-32.597
			c21.683-15.052,40.428-32.976,59.487-51.073c5.018-4.765,10.147-9.41,15.374-13.944c2.598-2.253,5.241-4.451,7.902-6.627
			c1.328-1.086,2.673-2.15,4.019-3.214c-7.07,5.591-2.161,1.668-0.635,0.518c11.006-8.292,22.708-15.628,35.007-21.844
			c14.585-7.371,18.643-27.593,10.763-41.046c-8.633-14.736-26.45-18.139-41.046-10.763c-32.896,16.625-59.919,41.432-86.312,66.687
			c-5.587,5.347-11.308,10.552-17.157,15.608c-3.069,2.652-6.198,5.235-9.359,7.778c-6.116,4.92,4.221-3.18,0.13-0.056
			c-1.588,1.213-3.198,2.396-4.812,3.572c-12.304,8.977-25.484,16.739-39.473,22.783c2.389-1.008,4.777-2.017,7.166-3.024
			c-12.861,5.426-26.235,9.223-40.056,11.215c2.658-0.356,5.317-0.714,7.975-1.071c-12.747,1.708-25.712,2.081-38.488,0.469
			c2.658,0.357,5.317,0.714,7.975,1.071c-10.521-1.482-20.65-4.364-30.439-8.484c2.389,1.009,4.778,2.017,7.167,3.024
			c-6.799-2.959-13.314-6.428-19.634-10.303c-3.227-1.979-6.361-4.104-9.463-6.271c-1.349-0.943-2.676-1.917-4.003-2.89
			c-0.889-0.657-1.774-1.319-2.654-1.989c3.863,3.005,4.566,3.544,2.108,1.619c-4.349-3.416-8.225-7.234-11.839-11.416
			c-1.818-2.104-8.225-10.462-1.16-1.23c-1.916-2.503-3.777-5.047-5.651-7.58c-7.58-10.248-15.153-21.152-25.309-29.064
			c-14.55-11.335-30.717-18.31-49.572-17.543c-16.334,0.664-30,13.144-30,30C40.084,186.014,53.734,200.829,70.084,200.164
			L70.084,200.164z"/>
	</g>
</g>
<g opacity="0.1">
	<g>
		<path fill="#C11F3C" d="M165.299,201.639c14.648,6.344,26.854,17.514,43.059,20.021c14.464,2.236,29.234,0.177,43.758-0.451
			c23.706-1.025,54.418-2.445,71.272-21.741c4.742-5.43,0.305-14.723-7.298-12.536c-22.69,6.529-46.215,10.048-69.853,9.059
			c-23.584-0.987-44.383-14.945-68.153-15.326c-7.914-0.127-9.628,9.931-3.785,13.976c16.276,11.27,35.042,17.106,53,25
			c1.926-4.569,3.853-9.139,5.779-13.708c-27.178-6.795-56.188-13.215-80.208-28.243c-8.28-5.182-15.483,7.573-7.57,12.951
			c21.325,14.494,42.537,29.014,66.519,38.844c23.531,9.645,53.153,13.269,71.57-8.016c5.583-6.453-1.348-15.765-9.089-11.779
			c-13.378,6.887-33.173,7.016-47.221,2.243c0,4.821,0,9.644,0,14.465c11.056-1.737,22.774,1.089,33.848,1.604
			c11.443,0.533,22.564-1.597,31.78-8.682c4.492-3.455,8.546-7.382,12.701-11.223c4.294-3.969,9.279-7.258,13.86-10.895
			c9.043-7.178,18.508-15.535,29.811-18.805c-2.433-4.179-4.865-8.357-7.298-12.536c-14.618,16.125-40.556,18.861-60.69,23.071
			c-9.466,1.979-5.449,16.438,3.988,14.465c22.913-4.792,50.718-8.626,67.31-26.929c4.885-5.39,0.211-14.708-7.298-12.536
			c-11.864,3.432-21.733,11.095-31.306,18.597c-9.157,7.178-18.042,14.33-26.702,22.093c-8.684,7.783-17.922,8.887-29.239,8.215
			c-11.681-0.693-23.067-2.741-34.752-0.905c-7.927,1.246-6.342,12.31,0,14.465c17.894,6.078,41.915,4.926,58.779-3.757
			c-3.029-3.926-6.059-7.853-9.089-11.779c-15.589,18.017-40.744,11.29-59.786,2.965c-21.515-9.405-40.793-22.998-60.125-36.137
			c-2.523,4.317-5.047,8.634-7.57,12.951c25.109,15.711,55.377,22.652,83.792,29.757c7.954,1.988,13.801-10.183,5.779-13.708
			c-17.948-7.89-36.738-13.741-53-25c-1.262,4.658-2.523,9.317-3.785,13.976c11.363,0.182,22.156,4.017,32.822,7.592
			c11.62,3.896,23.03,7.09,35.331,7.734c24.76,1.299,50.095-2.762,73.841-9.594c-2.433-4.179-4.865-8.357-7.298-12.536
			c-14.075,16.115-40.969,16.462-60.665,17.349c-13.33,0.6-26.805,2.295-40.125,0.928c-14.517-1.49-26.128-12.822-39.121-18.448
			c-3.751-1.625-8.013-1.148-10.261,2.69C160.731,194.583,161.544,200.014,165.299,201.639L165.299,201.639z"/>
	</g>
</g>
<g opacity="0.2">
	<g>
		<path fill="#C11F3C" d="M227.084,225.664c9.999,1.057,19.915,2.824,30,2c8.033-0.657,10.697-12.692,1.994-14.732
			c-23.893-5.599-48.896-6.191-72-15c-9.054-3.451-12.932,11.055-3.987,14.465c23.104,8.808,48.108,9.4,72,15
			c0.665-4.911,1.329-9.821,1.994-14.732c-10.085,0.824-20.001-0.943-30-2c-4.074-0.431-7.5,3.737-7.5,7.5
			C219.584,222.577,223.02,225.234,227.084,225.664L227.084,225.664z"/>
	</g>
</g>
<g opacity="0.1">
	<g>
		<path fill="#C11F3C" d="M180.299,204.639c13.372,9.887,28.852,10.057,44.785,10.024c9.672-0.02,9.674-15.02,0-15
			c-13.481,0.027-25.888,0.398-37.215-7.976c-3.295-2.437-8.362-0.552-10.261,2.69C175.374,198.193,177.019,202.214,180.299,204.639
			L180.299,204.639z"/>
	</g>
</g>
<g opacity="0.1">
	<g>
		<path fill="#C11F3C" d="M204.09,212.396c28.04,6.673,58.833,11.263,85.779-1.757c-3.42-3.42-6.841-6.841-10.261-10.261
			c-2.317,5.347-8.304,5.632-13.524,6.285c-4.056,0.507-7.5,3.027-7.5,7.5c0,3.878,3.417,7.778,7.5,7.5
			c19.652-1.338,40.518-8.486,53.304-24.196c5.038-6.191-1.431-16.748-9.089-11.779c-11.915,7.73-26.031,11.814-40.215,11.976
			c-9.666,0.11-9.677,15.11,0,15c16.695-0.19,33.737-4.909,47.785-14.024c-3.029-3.926-6.059-7.853-9.089-11.779
			c-10.318,12.679-26.723,18.717-42.696,19.804c0,5,0,10,0,15c10.225-1.279,21.861-3.064,26.476-13.715
			c2.991-6.903-3.129-13.707-10.261-10.261c-22.915,11.07-50.559,5.875-74.221,0.243
			C198.673,195.693,194.682,210.157,204.09,212.396L204.09,212.396z"/>
	</g>
</g>
<g opacity="0.1">
	<g>
		<path fill="#C11F3C" d="M120.132,216.734c22.498,36.65,64.597,45.483,103.967,52.05c11.193,1.867,22.285,3.77,33.673,3.683
			c10.973-0.084,22.116-1.858,32.625-4.979c22.629-6.722,42.416-20.523,59.294-36.717c5.899-5.659,5.689-15.523,0-21.213
			c-5.868-5.869-15.316-5.657-21.213,0c-7.821,7.504-13.379,12.093-21.798,17.521c-3.76,2.424-7.683,4.584-11.683,6.582
			c-0.876,0.431-1.758,0.851-2.646,1.258c-4.313,2.018,2.629-1-1.763,0.778c-2.23,0.902-4.508,1.685-6.794,2.434
			c-4.105,1.345-8.316,2.343-12.556,3.159c-0.948,0.176-1.898,0.337-2.851,0.485c3.204-0.522-1.521,0.17-1.783,0.197
			c-2.44,0.258-4.895,0.377-7.346,0.463c-5.062,0.179-10.13-0.105-15.165-0.606c-1.839-0.223-2.069-0.24-0.69-0.051
			c-1.586-0.22-3.164-0.498-4.74-0.776c-2.197-0.388-4.392-0.776-6.591-1.145c-17.17-2.873-34.42-5.676-50.887-11.508
			c-1.689-0.599-3.357-1.257-5.02-1.925c2.825,1.136-2.934-1.397-3.723-1.784c-3.977-1.945-7.772-4.234-11.416-6.743
			c-0.725-0.507-1.44-1.026-2.147-1.558c2.618,1.934-0.83-0.768-1.101-0.999c-1.702-1.453-3.293-3.029-4.851-4.634
			c-0.624-0.656-1.235-1.323-1.833-2.003c-0.174-0.194-2.993-3.689-1.123-1.238c-1.431-1.875-2.706-3.863-3.938-5.871
			c-4.27-6.956-13.354-9.581-20.523-5.382C118.578,200.274,115.852,209.761,120.132,216.734L120.132,216.734z"/>
	</g>
</g>
</svg>
