<?xml version="1.0" encoding="utf-8"?>
<!-- Generator: Adobe Illustrator 16.0.0, SVG Export Plug-In . SVG Version: 6.00 Build 0)  -->
<!DOCTYPE svg PUBLIC "-//W3C//DTD SVG 1.1//EN" "http://www.w3.org/Graphics/SVG/1.1/DTD/svg11.dtd">
<svg version="1.1" id="Layer_1" xmlns="http://www.w3.org/2000/svg" xmlns:xlink="http://www.w3.org/1999/xlink" x="0px" y="0px"
	 width="543.5px" height="351.595px" viewBox="0 0 543.5 351.595" enable-background="new 0 0 543.5 351.595" xml:space="preserve">
<path fill="none" stroke="#010101" stroke-miterlimit="10" d="M17,130.522c5.105-6.377,16.875-7.802,23.722-14.251
	c6.927-6.524,11.625-14.861,18.251-21.283c14.105-13.667,31.231-24.599,47.979-34.164c19.452-11.109,32.101-27.272,52.966-36.554
	c24.295-10.807,48.675-13.268,75.134-15.801c23.84-2.282,47.474-8.419,71.929-7.945c24.603,0.477,46.821,9.506,70.797,13.023
	c25.569,3.75,46.938,9.923,70.974,20.001c19.931,8.357,40.456,18.138,62.026,19.968c3.027,0.257,6.184-0.006,9.223,0.003"/>
<path fill="none" stroke="#010101" stroke-miterlimit="10" d="M11,162.522c10.012-6.379,20.57,2.661,30,5.804
	c11.993,3.997,24.501,1.713,36.749-0.503c12.968-2.347,24.188-5.772,37.274-6.301c9.872-0.398,15.678,3.534,23.98,7.973
	c32.689,17.478,72.151,31.127,110,31.027c38.844-0.104,79.708-4.346,102.025-39.281c5.263-8.238,11.248-15.379,15.777-23.696
	c4.064-7.461,5.774-16.373,11.64-23.023c6.123-6.942,15.65-11.503,23.75-14.973c10.867-4.656,21.786-2.728,32.835-6.059
	c26.505-7.991,50.604-27.304,78.97-29.968"/>
<path fill="none" stroke="#010101" stroke-miterlimit="10" d="M36,210.522c28.692,32.932,62.453,59.856,94.979,88.025
	c36.414,31.535,74.452,42.626,121.991,48.724c22.689,2.91,47.221,4.488,68.253-4.968c20.214-9.089,40.918-22.036,56.706-36.559
	c8.841-8.133,16.804-13.409,24.043-23.175c7.345-9.906,12.673-20.476,18.751-31.325c12.087-21.577,28.917-40.653,42.031-61.729
	c12.918-20.76,14.83-49.249,33.246-65.993"/>
<path fill="none" stroke="#010101" stroke-miterlimit="10" d="M191,74.522c10.922-1.025,34.826-2.126,42.512,6.835
	c6.102,7.115,8.914,28.605,2.513,35.964c-5.988,6.881-25.291,7.1-34.021,7.201c-10.627,0.124-30.145,2.718-38.252-3.98
	c-5.719-4.725-17.445-26.623-14.982-34.169C152.212,75.821,181.394,75.424,191,74.522z"/>
<path fill="none" stroke="#010101" stroke-miterlimit="10" d="M297,66.522c-0.999,28.694,43.588,42.949,51.576,13.754
	c3.132-11.448,1.339-26.583,15.015-31.112c15.512-5.139,36.155,6.063,51.683,7.604c26.617,2.641,52.642,5.754,79.727,5.754"/>
<path fill="none" stroke="#010101" stroke-miterlimit="10" d="M28,144.522c44.908,1.309,81.924-43.207,118.249-63.251
	c44.039-24.3,93.178-2.128,140.699-11.694c22.071-4.443,42.789-11.333,65.249-14.278c10.563-1.385,22.129-4.1,32.774-4.023
	c10.825,0.079,20.853,8.542,32.028,7.246"/>
<path fill="none" stroke="#010101" stroke-miterlimit="10" d="M241,107.522c4.758,7.686,4.018,10.332,14,11
	c9.031,0.604,16.962-1.819,25.297-4.777c11.351-4.028,34.999-11.51,24.703-28.223"/>
<path fill="none" stroke="#010101" stroke-miterlimit="10" d="M168,178.522c-0.736-13.037,18.714-13.829,27.223-11.219
	c12.906,3.958,7.757,13.299,11.703,23.39c11.187-7.759,13.854-6.772,23.9-1.279c0.421-6.923-1.511-14.2,3.178-17.859
	c3.749-2.926,14.373-2.563,18.938-3.005c9.165-0.889,13.658-3.38,17.855,5.973c2.124,4.73,1.189,12.354,1.18,17.697
	c3.167-15.933,4.509-24.327,23.047-27.72c4.45-0.815,14.193-2.739,18.195-0.267c6.614,4.085,4.776,14.525,9.61,19.21
	c1.843-10.07-10.441-21.597,0.374-29.666c7.643-5.702,23.308-2.101,29.793,2.669c1.851-4.735,4.939-8.696,10.004-9.924"/>
<g opacity="0.6">
	<g>
		<path fill="#010101" d="M39,155.022c21.382,0.941,42.256-7.976,60.252-18.749c18.044-10.803,35.02-24.882,48.051-41.448
			c-4.178-1.103-8.357-2.206-12.535-3.31c1.64,10.409,4.076,21.01,9.829,29.997c5.686,8.88,14.515,14.531,24.543,17.363
			c6.33,1.788,13.109,2.17,19.635,2.662c8.261,0.622,16.84,0.911,25.106,0.267c13.19-1.027,21.495-8.741,31.903-15.806
			c-3.029-0.391-6.059-0.782-9.088-1.173c5.386,5.915,14.097,7.334,21.664,7.876c9.533,0.684,19.398-0.797,28.636-3.073
			c15.578-3.838,38.225-13.458,35.236-33.101c-3.673,2.823-7.346,5.646-11.018,8.47c6.916,4.15,14.21,6.068,22.187,4.349
			c6.661-1.436,12.37-6.367,17.072-11.015c5.276-5.215,10.473-10.808,14.979-16.691c3.144-4.104,6.983-13.04,12.966-13.798
			c4.128-0.523,8.495,0.292,12.592,0.757c4.145,0.47,8.263,0.424,12.427,0.394c9.043-0.065,18.083-0.212,27.126-0.127
			c18.019,0.169,36.196,1.297,53.443,6.888c-0.597-4.569-1.194-9.139-1.791-13.708c-14.296,9.247-32.061,9.948-48.581,9.566
			c-17.264-0.399-34.386-2.953-51.634-3.59c0.665,4.911,1.329,9.821,1.994,14.732c14.483-5.416,29.956-1.965,45.006-2.732
			c9.907-0.505,9.378-13.802,0-15c-23.862-3.048-55.293-3.319-70.92,18.118c-5.6,7.682-9.199,18.352-17.432,23.756
			c-2.112,1.387-3.479,1.181-7.268,1.093c-5.801-0.135-11.393-0.053-17.134,0.969c-6.148,1.095-11.998,3.654-17.821,5.815
			c-5.932,2.201-12.049,3.658-18.15,5.284c-10.636,2.833-21.244,5.757-31.955,8.297c-21.864,5.186-45.509,9.586-67.894,5.205
			c-10.704-2.095-22.955-6.589-28.711-16.402c-3.01-5.131-6.437-9.555-12.53-10.979c-6.502-1.52-12.576,0.815-17.922,4.334
			c-5.47,3.601-10.426,7.921-16.135,11.168c-5.902,3.356-13.746,4.459-20.289,6.034c-15.384,3.703-30.477,7.563-43.143,17.506
			c-4.505,3.537-1.735,11.299,3.31,12.535c14.296,3.503,28.847,5.357,43.563,5.6c6.949,0.114,13.957-0.067,20.891-0.521
			c6.507-0.425,13.395-1.987,19.895-0.837c4.117,0.728,7.167,4.294,10.018,7.088c4.053,3.973,8.025,7.916,12.722,11.146
			c3.96,2.724,9.098,4.354,13.905,3.793c4.285-0.5,6.947-3.701,10.062-6.389c1.688-1.456,3.408-2.876,5.151-4.266
			c0.541-0.432,1.124-0.82,1.689-1.218c0.197-0.139,2.31-1.133,0.768-0.62c2.057-0.684,4.131-1.307,6.224-1.872
			c2.421-0.654,4.076-0.914,5.148-0.598c3.035,0.894,5.447,4.868,7.215,7.257c2.964,4.002,5.822,7.798,10.032,10.57
			c4.005,2.636,9.776,3.01,14.081,1.01c4.637-2.153,7.638-7.492,10.543-11.448c0.817-1.113,1.595-1.072-0.393-0.292
			c1.573-0.617,3.167-1.176,4.761-1.737c2.866-1.009,5.774-1.895,8.712-2.664c4.433-1.16,10.07-2.41,14.661-1.656
			c2.365,0.389,2.889,1.072,3.87,3.209c2.185,4.761,8.397,4.302,11.779,1.518c7.115-5.856,20.889-7.647,29.702-6.071
			c3.362,0.602,6.647-0.35,8.47-3.447c4.986-8.473,22.833-16.252,31.739-10.309c3.032,2.024,6.516,0.835,9.089-1.173
			c9.039-7.055,10.316-17.314,13.225-27.629c2.622-9.302,12.306-16.277,19.921-21.491c19.608-13.425,43.248-9.457,65.545-12.951
			c3.245-0.508,5.506-4.184,5.506-7.232c0-4.35-3.428-7.155-7.5-7.5c-15.278-1.294-30.607-0.454-45.893,0.267
			c-7.426,0.35-14.853,0.655-22.287,0.727c-5.7,0.055-11.504,0.016-17.028,1.624c-10.381,3.023-16.134,13.024-22.999,20.52
			c-7.053,7.7-15.622,13.782-25.347,17.626c-10.514,4.156-21.664,5.863-32.664,8.168c-10.536,2.208-20.987,4.81-31.488,7.176
			c-22.862,5.152-46.516,10.024-70.072,8.17c-8.969-0.706-17.675-3.227-25.381-7.904c-7.064-4.288-11.276-12.011-18.622-15.931
			c-9.917-5.292-20.39-0.414-29.738,3.616c-12.939,5.578-25.831,11.324-38.266,17.964c2.523,4.317,5.047,8.635,7.57,12.952
			c20.528-14.635,47.208-10.736,69.282-2.269c13.059,5.01,26.52,8.835,40.384,10.783c14.304,2.01,28.622,1.746,43.012,1.016
			c28.561-1.449,57.163-5.909,84.432-14.635c13.61-4.356,26.868-9.972,39.476-16.696c9.82-5.237,20.749-11.059,28.119-19.58
			c4.646-5.372,7.264-11.958,7.01-19.096c-0.149-4.194-3.303-7.354-7.5-7.5c-24.201-0.839-26.556,27.473-36.298,43
			c-1.258,2.004-3.491,3.099-6.548,4.038c-6.715,2.062-13.688,3.29-20.429,5.345c-14.427,4.4-28.553,9.756-43.432,12.501
			c-14.922,2.753-30.283,0.009-45.108,4.098c-6.096,1.682-10.816,3.868-17.12,1.878c-5.143-1.624-10.007-4.041-15.693-4.875
			c-14.218-2.083-28.621,0.769-42.804-1.22c-6.5-0.912-12.225-3.74-18.223-6.219c-5.746-2.375-11.632-4.329-17.732-5.556
			c-10.209-2.054-20.407-1.481-30.607,0.278c-9.519,1.642-5.471,16.095,3.987,14.464c12.617-2.176,24.283-0.73,36.231,3.656
			c5.886,2.162,11.439,5.175,17.494,6.852c7.105,1.968,14.756,2.142,22.077,2.093c12.629-0.085,25.827-1.822,37.669,3.519
			c5.587,2.52,11.705,3.742,17.796,2.614c7.184-1.331,13.774-4.056,21.114-4.815c7.452-0.771,14.921-0.349,22.381-0.743
			c7.772-0.409,15.508-1.971,23.035-3.87c14.58-3.68,28.592-9.294,43.139-13.102c10.182-2.665,19.407-4.125,25.725-13.365
			c5.381-7.873,7.275-17.773,11.622-26.192c2.506-4.853,5.793-9.583,11.724-9.378c-2.5-2.5-5-5-7.5-7.5
			c0.363,10.206-10.709,15.823-18.293,20.336c-11.882,7.071-24.219,13.042-37.205,17.797c-26.749,9.795-55.116,14.658-83.461,16.573
			c-14.232,0.961-28.606,1.473-42.813-0.042c-13.712-1.462-27.12-5.536-40.007-10.294c-12.211-4.508-23.854-7.904-36.96-8.599
			c-12.702-0.673-25.362,1.588-36.973,6.732c-3.038,1.346-5.873,3.095-8.572,5.02c-7.776,5.544-1.094,17.579,7.57,12.952
			c12.947-6.913,26.388-12.843,39.858-18.651c3.765-1.623,8.742-3.93,12.414-3.078c2.439,0.566,4.918,3.475,7.288,5.947
			c15.589,16.258,36.373,20.876,58.266,20.438c24.132-0.482,48.084-6.105,71.486-11.54c21.089-4.898,43.613-7.294,63.104-17.205
			c8.794-4.472,16.55-10.978,23.185-18.221c5.619-6.134,9.97-14.635,18.269-16.281c5.01-0.994,10.591-0.37,15.669-0.476
			c6.851-0.142,13.696-0.497,20.54-0.82c14.037-0.663,28.109-1.278,42.136-0.09c-0.665-4.911-1.329-9.821-1.994-14.732
			c-12.116,1.898-24.503,1.255-36.673,2.769c-11.731,1.459-22.569,5.167-32.455,11.694c-8.766,5.789-19.138,13.75-24.032,23.308
			c-4.764,9.302-3.383,21.316-12.149,28.158c3.03-0.391,6.06-0.782,9.089-1.173c-15.767-10.522-43.305,0.471-52.261,15.691
			c2.823-1.149,5.646-2.298,8.47-3.447c-14.645-2.619-32.616,0.314-44.298,9.929c3.927,0.506,7.854,1.012,11.779,1.518
			c-6.656-14.507-25.706-11.224-38.085-7.735c-4.203,1.185-8.321,2.694-12.384,4.288c-3.62,1.42-5.535,4.531-7.759,7.559
			c-0.834,1.136-1.649,2.274-2.543,3.364c-1.479,1.803-2.202,1.261,0.345,0.932c-1.183,0.153-2.176-0.92-3.806-2.774
			c-4.017-4.57-6.914-9.712-11.853-13.445c-5.674-4.289-11.573-4.543-18.285-3.032c-6,1.351-10.818,3.437-15.649,7.204
			c-3.708,2.891-7.277,5.963-10.76,9.121c1.768-0.732,3.536-1.464,5.303-2.197c-7.181,0.837-13.232-7.87-17.822-12.297
			c-7.587-7.318-15.265-10.324-25.888-9.973c-11.866,0.392-23.555,1.769-35.474,1.572c-12.813-0.211-25.387-1.987-37.823-5.034
			c1.104,4.178,2.207,8.357,3.31,12.535c9.9-7.771,23.046-10.42,34.996-13.283c11.878-2.845,22.902-5.645,32.923-12.862
			c4.066-2.928,7.984-6.121,12.404-8.512c3.058-1.654,4.123,0.133,5.613,2.656c5.805,9.826,14.293,15.832,24.769,20.115
			c21.549,8.811,45.893,6.904,68.33,3.179c11.581-1.923,23.013-4.69,34.369-7.64c10.661-2.769,21.521-5.301,32.024-8.61
			c7.057-2.223,13.767-5.356,20.974-7.121c5.394-1.321,10.993-0.797,16.488-0.727c12.03,0.154,19.589-7.604,26.119-16.904
			c5.794-8.252,9.381-18.925,19.412-22.968c14.894-6.003,32.683-5.119,48.276-3.127c0-5,0-10,0-15
			c-16.43,0.837-33.144-2.659-48.994,3.268c-7.803,2.917-6.789,14.408,1.994,14.732c18.243,0.674,36.344,3.348,54.614,3.649
			c18.099,0.299,37.618-1.613,53.171-11.673c5.542-3.585,4.49-11.672-1.791-13.708c-16.805-5.447-34.647-6.889-52.214-7.335
			c-9.131-0.232-18.27-0.102-27.402-0.007c-8.586,0.089-16.844-0.554-25.388-1.142c-7.877-0.542-14.821,2.339-20.444,7.778
			c-5.33,5.155-8.529,12.161-13.681,17.517c-4.555,4.735-8.678,10.24-14.037,14.114c-5.506,3.979-10.406,3.215-16.043-0.167
			c-6.186-3.711-11.948,2.352-11.018,8.47c-0.139-0.915-0.129,0.501-0.102,0.368c-0.059,0.288-0.767,2.146-0.073,0.572
			c-0.263,0.598-0.612,1.155-0.956,1.708c-0.614,0.991-3.142,3.239-5.006,4.467c-5.941,3.914-12.746,6.086-19.628,7.782
			c-7.151,1.762-14.475,2.579-21.838,2.377c-3.553-0.097-5.172-0.285-8.647-1.243c-0.684-0.188-1.35-0.43-2.015-0.674
			c1.506,0.553-0.364-0.229-0.575-0.342c-0.288-0.153-1.909-1.312-0.444-0.158c-0.435-0.342-0.81-0.748-1.181-1.155
			c-2.145-2.355-6.417-2.986-9.088-1.173c-7.638,5.184-14.113,11.872-23.467,13.65c-6.413,1.219-13.768,0.352-20.255,0.139
			c-6.309-0.207-12.767-0.573-18.962-1.842c-7.657-1.569-14.26-5.241-18.521-11.897c-4.817-7.523-6.411-16.898-7.777-25.568
			c-0.834-5.296-9.202-7.547-12.535-3.31c-12.033,15.297-27.224,28.038-43.701,38.299C76.983,132.491,58.241,140.87,39,140.022
			C29.325,139.597,29.366,154.598,39,155.022L39,155.022z"/>
	</g>
</g>
<g opacity="0.6">
	<g>
		<path fill="#010101" d="M126.994,135.754c22.688-6.569,44.556,7.253,67.32,7.31c23.233,0.058,43.467-13.8,66.461-14.062
			c24.784-0.282,47.312-12.912,70.795-19.212c13.279-3.563,26.657-6.752,39.951-10.268c13.502-3.571,26.683-8.426,40.473-10.768
			c-1.329-4.821-2.659-9.643-3.988-14.464c-20.487,6.806-41.761,12.98-60.264,24.409c-18.704,11.553-32.372,29.661-51.824,40.205
			c-21.009,11.388-48.296,11.935-71.383,8.542c-25.016-3.676-49.059-12.118-73.541-18.156c0,4.821,0,9.643,0,14.464
			c7.314-1.919,14.679,0.4,21.659,2.638c8.287,2.657,16.377,5.932,25.056,7.099c18.646,2.507,37.935-4.13,56.257-6.909
			c27.249-4.132,61.387-4.307,80.338-27.756c3.521-4.358,1.984-13.72-5.304-12.803c-26.801,3.37-50.921,18.686-78,20
			c-9.627,0.467-9.673,15.47,0,15c27.428-1.331,51.118-16.62,78-20c-1.768-4.268-3.535-8.536-5.304-12.803
			c-8.627,10.675-21.364,15.125-34.364,18.037c-13.742,3.077-27.849,4.043-41.738,6.23c-17.231,2.713-35.773,9.403-53.188,5.136
			c-15.709-3.849-30.776-12.695-47.4-8.332c-7.101,1.863-7.241,12.678,0,14.464c48.953,12.074,101.531,32.733,151.077,10.703
			c20.4-9.071,34.911-26.332,52.44-39.53c17.781-13.387,40.67-19.263,61.471-26.172c9.306-3.091,5.445-16.066-3.988-14.464
			c-13.178,2.238-25.768,6.808-38.652,10.282c-13.285,3.582-26.672,6.773-39.978,10.277c-24.017,6.324-46.591,18.834-71.835,19.194
			c-22.501,0.32-42.224,14.073-64.894,14.017c-11.312-0.028-22.218-3.977-33.09-6.622c-12.165-2.959-24.423-3.66-36.551-0.148
			C113.733,123.975,117.681,138.451,126.994,135.754L126.994,135.754z"/>
	</g>
</g>
<g opacity="0.2">
	<g>
		<path fill="#010101" d="M11.768,133.516C15.675,145.87,29.507,148.891,41,149.022c-0.665-4.911-1.329-9.821-1.994-14.732
			c-7.201,1.584-15.339,1.514-21.714,5.661c-9.645,6.274-6.961,17.614-2.768,26.356c2.516,5.245,10.241,4.509,12.952,0
			c2.818-4.685,5.621-8.917,9.827-12.482c-4.178-1.103-8.357-2.206-12.535-3.31c1.09,3.593,1.645,7.256,1.732,11.006
			c0.223,9.657,15.224,9.679,15,0c-0.116-5.012-0.81-10.189-2.268-14.994c-1.73-5.7-8.243-6.947-12.535-3.31
			c-5.106,4.327-8.75,9.828-12.173,15.518c4.317,0,8.635,0,12.952,0c-0.748-1.559-1.322-3.065-1.789-4.73
			c-0.088-0.313-0.05-2.439-0.224-1.562c-0.122,0.616,0.53-0.412-0.6,0.458c1.101-0.848,0.879-0.641,1.768-0.96
			c5.201-1.868,10.989-2.006,16.363-3.188c8.444-1.857,6.304-14.637-1.994-14.732c-3.704-0.042-13.361-0.045-14.768-4.494
			C23.326,120.341,8.843,124.268,11.768,133.516L11.768,133.516z"/>
	</g>
</g>
<g opacity="0.2">
	<g>
		<path fill="#010101" d="M17.5,155.522c0.109,23.126,5.012,45.72,16.768,65.788c11.011,18.799,27.266,33.928,44.143,47.39
			c20.819,16.607,43.006,31.923,65.555,46.079c23.281,14.616,48.457,27.085,75.581,32.492c12.818,2.555,25.857,2.86,38.867,3.508
			c11.969,0.595,23.947,1.046,35.931,0.688c23.348-0.698,47.467-5.013,66.896-18.736c10.969-7.748,18.764-18.271,27.086-28.628
			c9.555-11.89,19.038-23.841,28.104-36.109c8.75-11.84,16.11-23.925,22.277-37.305c6.158-13.362,11.507-27.08,18.082-40.251
			c5.049-10.112,10.659-19.858,15.502-30.093c5.03-10.631,10.07-21.29,16.495-31.167c11.94-18.354,32.847-28.947,49.518-42.352
			c3.19-2.565,2.655-7.951,0-10.606c-3.123-3.123-7.424-2.559-10.607,0c-10.405,8.367-21.727,15.51-32.097,23.936
			c-10.743,8.73-18.938,19.194-25.634,31.257c-6.838,12.321-12.242,25.38-18.694,37.9c-6.703,13.006-13.289,25.773-19.099,39.239
			c-5.736,13.298-11.386,26.964-19.545,38.998c-8.411,12.405-17.632,24.254-26.944,35.989
			c-8.605,10.842-16.802,22.723-27.002,32.134c-8.169,7.537-18.388,12.482-28.941,15.683c-22.472,6.814-46.743,5.608-69.905,4.494
			c-12.705-0.61-25.404-0.869-37.914-3.363c-13.304-2.652-26.178-7.287-38.455-13.001c-25.153-11.708-47.96-27.898-70.594-43.774
			c-18.867-13.235-37.574-27.214-52.928-44.536c-18.843-21.258-27.312-47.475-27.445-75.651
			C32.455,145.852,17.455,145.848,17.5,155.522L17.5,155.522z"/>
	</g>
</g>
<g opacity="0.2">
	<g>
		<path fill="#010101" d="M521,48.022c-31.307,0.262-60.85,12.635-85.632,31.287c-3.892,2.929-7.717,5.948-11.525,8.983
			c-1.376,1.096-2.75,2.193-4.128,3.286c-4.646,3.685,3.737-2.803-0.982,0.75c-5.73,4.313-11.907,8.118-18.124,11.687
			c-11.195,6.426-22.542,12.52-30.631,22.933c-8.352,10.752-15.065,22.243-21.934,33.955c-1.353,2.306-2.759,4.577-4.21,6.822
			c-0.95,1.47-6.416,8.726-1.94,3.036c-1.696,2.157-3.557,4.177-5.477,6.136c-0.997,1.017-2.055,1.971-3.111,2.924
			c-0.731,0.646-1.478,1.277-2.236,1.893c2.598-1.966,2.907-2.223,0.93-0.77c-2.651,1.923-5.487,3.577-8.355,5.151
			c-1.551,0.851-3.208,1.551-4.814,2.287c-5.384,2.469,4.417-1.734-1.017,0.398c-6.739,2.646-13.756,4.521-20.855,5.896
			c-1.626,0.315-3.265,0.564-4.901,0.815c6.218-0.95,0.535-0.124-0.646-0.004c-3.389,0.347-6.793,0.513-10.195,0.633
			c-7.939,0.28-15.872-0.176-23.815,0.102c-9.604,0.334-19.186,1.033-28.8,1.08c-1.921,0.009-3.84-0.041-5.76-0.096
			c-1.301-0.036-9.37-0.958-2.953-0.01c-4.391-0.649-8.691-1.838-12.913-3.184c-1.566-0.5-3.108-1.073-4.649-1.644
			c-1.023-0.388-2.042-0.787-3.056-1.2c2.846,1.221,3.126,1.335,0.839,0.344c-4.031-1.757-7.99-3.681-11.953-5.584
			c-9.396-4.514-18.887-8.806-28.677-12.404c-34.8-12.792-71.623-16.458-108.478-16.503c-12.266-0.015-22.5,10.246-22.5,22.5
			c0,12.276,10.235,22.484,22.5,22.5c14.419,0.018,28.827,0.439,43.177,1.917c1.634,0.168,3.264,0.365,4.895,0.563
			c5.652,0.685-5.121-0.741,0.507,0.086c3.246,0.478,6.477,1.052,9.7,1.66c7.163,1.351,14.242,3.111,21.249,5.111
			c6.929,1.979,13.746,4.33,20.491,6.858c0.983,0.368,6.289,2.587,0.843,0.266c1.536,0.654,3.055,1.349,4.574,2.04
			c3.525,1.603,7.008,3.301,10.499,4.978c13.62,6.542,27.6,13.109,42.67,15.336c17.208,2.544,34.349,0.761,51.635,0.263
			c7.234-0.209,14.46,0.215,21.698-0.04c8.703-0.307,17.419-1.451,25.981-2.991c14.96-2.689,30.337-8.382,43.179-16.5
			c12.633-7.987,22.4-18.75,30.592-31.133c3.74-5.653,6.974-11.636,10.373-17.496c1.681-2.896,3.419-5.755,5.217-8.579
			c1.074-1.687,2.203-3.336,3.343-4.979c0.701-1.009,5.016-6.848,1.128-1.844c2.021-2.6,4.405-4.887,6.919-7.001
			c-5.28,4.441-0.64,0.612,0.717-0.274c1.453-0.95,2.963-1.813,4.468-2.678c7.042-4.048,14.102-7.954,20.916-12.39
			c8.445-5.499,16.138-12.154,24.051-18.376c-4.46,3.507,1.746-1.234,2.574-1.83c1.921-1.381,3.907-2.67,5.892-3.959
			c3.827-2.487,7.767-4.795,11.771-6.985c3.404-1.862,6.907-3.535,10.453-5.107c-5.714,2.534,1.09-0.327,2.239-0.745
			c2.044-0.743,4.124-1.381,6.209-2c4.197-1.249,8.494-2.13,12.813-2.827c-6.482,1.046,1.035-0.012,2.352-0.112
			c2.287-0.174,4.583-0.211,6.876-0.23c12.264-0.103,22.5-10.157,22.5-22.5C543.5,58.335,533.266,47.92,521,48.022L521,48.022z"/>
	</g>
</g>
<g opacity="0.2">
	<g>
		<path fill="#010101" d="M48.988,148.987c14.769-2.423,28.374-8.672,39.479-18.753c5.074-4.607,9.252-9.96,14.113-14.762
			c2.002-1.979,1.79-1.434,4.992-2.616c4.403-1.625,8.797-3.18,13.104-5.06c6.009-2.624,11.385-6.603,16.776-10.293
			c2.6-1.78,5.215-3.53,7.881-5.208c1.318-0.83,2.67-1.602,4.026-2.368c0.494-0.28,5.269-2.631,3.481-1.881
			c13.815-5.8,28.624-4.86,43.729-7.754c29.434-5.639,60.132-7.149,90.786-8.83c15.562-0.853,31.125-1.695,46.66-2.953
			c15.682-1.269,31.237-2.681,46.988-2.753c38.275-0.176,74.921,5.212,112.011,14.232c7.938,1.931,16.235-2.422,18.451-10.477
			c2.118-7.7-2.533-16.52-10.477-18.452c-31.266-7.604-63.187-12.721-95.321-14.62c-31.525-1.862-62.51,1.694-93.914,3.639
			c-31.258,1.936-62.59,2.993-93.698,6.811c-15.473,1.898-30.794,5.148-45.146,6.662c-16.027,1.69-30.267,5.002-44.039,13.671
			c-7.285,4.586-14.061,10.311-21.858,14.025c1.095-0.458,0.765-0.34-0.988,0.355c-1.064,0.398-2.132,0.787-3.203,1.168
			c-2.133,0.769-4.266,1.533-6.383,2.347c-5.898,2.267-10.384,4.86-15.071,9.141c-3.259,2.977-5.949,6.579-8.945,9.811
			c-1.625,1.754-3.453,3.291-5.168,4.952c-0.769,0.72-1.559,1.416-2.371,2.085c0.971-0.732,0.726-0.572-0.734,0.48
			c-1.713,1.205-3.547,2.228-5.387,3.224c-0.931,0.487-1.875,0.949-2.832,1.386c1.161-0.467,0.888-0.369-0.819,0.294
			c-4.539,1.729-9.316,2.784-14.098,3.568c-8.079,1.326-12.469,11.209-10.477,18.452C32.874,147.011,40.926,150.309,48.988,148.987
			L48.988,148.987z"/>
	</g>
</g>
<g opacity="0.2">
	<g>
		<path fill="#D31F2D" d="M50.975,158.451c26.43-9.37,47.901-25.507,69.604-42.827c4.483-3.577,8.944-7.181,13.441-10.741
			c1.123-0.889,2.251-1.771,3.379-2.653c4.441-3.471-6.019,4.617-1.543,1.203c2.639-2.013,5.314-3.978,8.011-5.912
			c9.835-7.05,20.222-13.346,31.382-18.068c-2.389,1.008-4.777,2.016-7.166,3.024c11.485-4.698,23.519-6.476,35.498-9.432
			c14.208-3.506,28.264-7.694,42.788-9.74c-2.659,0.357-5.317,0.714-7.975,1.072c6.354-0.811,12.729-1.279,19.105-0.466
			c-2.659-0.357-5.317-0.714-7.976-1.072c13.371,2.101,25.96,6.89,39.716,6.778c14.752-0.12,29.534-4.304,44.1-6.359
			c-2.658,0.357-5.316,0.714-7.976,1.072c9.924-1.277,19.691-1.82,29.649-0.636c-2.658-0.357-5.316-0.714-7.975-1.071
			c12.978,1.747,25.439,5.679,37.979,9.307c15.62,4.519,31.239,6.437,47.323,8.559c-2.658-0.357-5.316-0.715-7.976-1.072
			c12.809,1.798,25.257,4.896,37.2,9.902c-2.389-1.008-4.777-2.016-7.167-3.024c10.746,4.64,20.774,10.588,30.46,17.133
			c13.568,9.169,33.189,2.648,41.046-10.763c8.673-14.805,2.758-31.909-10.763-41.046c-13.901-9.394-28.484-16.953-44.253-22.767
			c-16.78-6.187-34.392-7.591-51.981-9.926c2.658,0.357,5.316,0.714,7.975,1.071c-19.594-2.887-38.016-10.514-57.425-14.219
			c-12.005-2.292-24.274-3.6-36.457-2.255c-14.227,1.57-28.185,4.268-42.339,6.265c2.658-0.357,5.316-0.714,7.976-1.072
			c-5.452,0.702-10.757,1.148-16.237,0.545c2.658,0.357,5.316,0.714,7.976,1.072c-14.34-2.046-27.728-7.256-42.482-6.811
			c-14.205,0.429-28.45,3.579-42.193,7.025c-11.671,2.927-23.243,5.996-35.053,8.318c-11.999,2.359-23.595,7.37-34.453,12.852
			c-20.375,10.287-38.101,25.5-55.803,39.69c-1.862,1.492-3.727,2.979-5.596,4.463c-1.118,0.888-2.241,1.77-3.364,2.65
			c-4.425,3.472,6.025-4.624,1.57-1.207c-4.101,3.145-8.276,6.188-12.53,9.121c-8.294,5.718-17.031,10.789-26.298,14.758
			c2.389-1.008,4.778-2.016,7.167-3.024c-2.086,0.863-4.187,1.672-6.314,2.426c-15.398,5.458-25.527,20.276-20.953,36.903
			C18.172,152.404,35.552,163.918,50.975,158.451L50.975,158.451z"/>
	</g>
</g>
<g opacity="0.2">
	<g>
		<path fill="#D31F2D" d="M45,239.522c5.962-0.132,11.872,0.146,17.784,0.94c-3.987-0.536-7.975-1.072-11.962-1.607
			c8.247,1.242,16.171,3.503,23.87,6.702c-3.583-1.513-7.167-3.024-10.75-4.536c14.503,6.254,27.481,15.312,40.346,24.357
			c-3.036-2.346-6.072-4.691-9.107-7.036c12.666,9.837,24.78,20.492,38.16,29.368c16.444,10.908,34.707,16.076,54.067,18.289
			c12.537,1.433,25.225,1.639,37.792,3.035c11.718,1.302,23.415,2.809,35.181,3.627c29.836,2.076,59-2.869,85.758-16.444
			c28.532-14.478,49.905-41.113,69.914-65.289c11.947-14.436,23.59-29.203,36.693-42.623c12.401-12.703,26.121-24.022,40.074-34.963
			c8.822-6.918,13.18-21.14,13.18-31.82c0-11.887-4.779-23.419-13.18-31.82c-8.401-8.401-19.934-13.18-31.82-13.18
			c-3.987,0.536-7.976,1.072-11.963,1.607c-7.623,2.138-14.242,5.996-19.857,11.573c-22.235,17.437-42.139,36.201-60.365,57.797
			c-19.637,23.266-37.982,49.417-62.097,68.351c3.035-2.346,6.071-4.691,9.107-7.036c-6.664,5.076-13.775,9.349-21.468,12.675
			c3.583-1.512,7.166-3.023,10.749-4.536c-7.9,3.274-16.093,5.43-24.553,6.649c3.987-0.535,7.976-1.071,11.963-1.607
			c-16.704,2.207-33.518,0.822-50.187-1.005c-8.628-0.946-17.242-2.015-25.878-2.886c-9.658-0.974-19.415-1.005-29.044-2.104
			c3.987,0.535,7.975,1.071,11.963,1.607c-6.032-0.831-11.806-2.365-17.45-4.649c3.583,1.513,7.167,3.024,10.75,4.537
			c-8.961-3.842-16.93-9.301-24.62-15.236c3.036,2.346,6.072,4.691,9.107,7.037c-18.191-14.197-35.9-28.996-56.131-40.28
			C97.712,156.012,71.77,148.931,45,149.522c-24.519,0.542-45,20.06-45,45C0,218.643,20.469,240.064,45,239.522L45,239.522z"/>
	</g>
</g>
<g opacity="0.2">
	<g>
		<path fill="#D31F2D" d="M169.012,326.986c13.584,3.433,26.983,7.596,40.704,10.475c15.081,3.165,30.581,4.333,45.967,4.329
			c15.173-0.005,30.325-1.305,45.439-2.504c14.05-1.114,27.937-2.572,41.645-5.982c25.213-6.271,50.935-18.17,66.437-39.71
			c5.892-8.187,9.622-17.753,13.861-26.836c2.189-4.69,4.583-9.269,7.414-13.605c0.242-0.371,2.76-3.77,0.666-1.093
			c0.791-1.012,1.654-1.961,2.52-2.908c0.874-0.959,1.826-1.842,2.777-2.722c3.125-2.891-2.397,1.582,1.129-0.955
			c6.623-4.765,9.81-12.964,5.382-20.522c-3.838-6.552-13.872-10.166-20.522-5.382c-9.295,6.687-16.321,15.013-21.792,25.064
			c-4.809,8.835-8.299,18.315-13.158,27.13c-1.059,1.92-2.226,3.775-3.434,5.604c-0.206,0.312-2.809,3.776-0.785,1.212
			c-0.825,1.046-1.725,2.031-2.624,3.014c-1.536,1.678-3.246,3.182-4.997,4.628c2.41-1.992-1.583,1.065-1.703,1.15
			c-1.27,0.9-2.584,1.736-3.896,2.572c-4.947,3.152-10.231,5.76-15.595,8.115c2.231-0.979-2.721,1.032-2.47,0.936
			c-1.53,0.588-3.08,1.125-4.628,1.662c-3.098,1.075-6.245,2.003-9.401,2.886c-5.687,1.59-11.475,2.801-17.291,3.8
			c-1.029,0.172-2.061,0.335-3.093,0.488c-5.007,0.767,2.846-0.318-2.103,0.256c-3.452,0.401-6.924,0.619-10.388,0.888
			c-15.134,1.175-30.256,2.473-45.439,2.774c-14.399,0.285-28.629-0.55-41.943-3.216c-13.738-2.752-27.129-7.046-40.703-10.475
			c-7.922-2.002-16.25,2.474-18.452,10.477C156.403,316.288,161.088,324.984,169.012,326.986L169.012,326.986z"/>
	</g>
</g>
</svg>
