<?xml version="1.0" encoding="utf-8"?>
<!-- Generator: Adobe Illustrator 16.0.0, SVG Export Plug-In . SVG Version: 6.00 Build 0)  -->
<!DOCTYPE svg PUBLIC "-//W3C//DTD SVG 1.1//EN" "http://www.w3.org/Graphics/SVG/1.1/DTD/svg11.dtd">
<svg version="1.1" xmlns="http://www.w3.org/2000/svg" xmlns:xlink="http://www.w3.org/1999/xlink" x="0px" y="0px"
	 width="437.617px" height="163.602px" viewBox="0 0 437.617 163.602" enable-background="new 0 0 437.617 163.602"
	 xml:space="preserve">
<g id="Layer_1">
	<path fill="none" stroke="#020101" stroke-miterlimit="10" d="M431.293,55.416c-29.496-6.083-60.321,0.784-89.15,8.779
		c-57.467,15.936-121.855,15.009-180.538,6.221c-25.154-3.767-50.141-4.71-75.312-7.467c-25.916-2.838-49.857-11.283-76.25-11.283"
		/>
	<path fill="none" stroke="#020101" stroke-miterlimit="10" d="M8.793,36.666c33.645,1.012,69.694-16.617,102.489-23.746
		c12.73-2.767,26.208-6.51,39.04-3.476c14.575,3.446,28.94,8.729,43.407,12.569c29.853,7.923,55.987,4.735,86.593-1.259
		c19.541-3.827,35.646-9.371,54.845-2.803c12.465,4.265,24.154,9.494,36.443,13.748c12.686,4.392,25.554,6.545,38.502,10.305
		c8.965,2.603,17.276,7.974,26.182,9.662"/>
	<path fill="none" stroke="#020101" stroke-miterlimit="10" d="M85.043,62.916c24.326,0,47.602,3.779,71.314,3.75
		c21.687-0.026,42.876-2.373,64.687-1.314c11.188,0.543,22.387,2.583,33.935,2.564c13.691-0.022,20.238-4.24,32.598-7.531
		c15.652-4.168,53.145-5.583,66.217,3.781"/>
	<path fill="none" stroke="#020101" stroke-miterlimit="10" d="M16.293,61.666c4.23,14.324,24.513,23.57,35.654,32.227
		c11.441,8.889,20.692,19.948,31.846,29.02c20.67,16.809,44.937,23.69,69.971,28.719c27.436,5.509,44.954,8.25,72.496,0.979
		c10.321-2.726,19.897-3.834,31.287-3.443c13.388,0.459,26.83,6.113,40.274,3.779c26.054-4.525,58.589-27.413,76.257-46.464
		c10.017-10.801,20.453-21.289,30.934-31.439c7.77-7.525,15.9-19.037,26.281-23.376"/>
	<path fill="none" stroke="#020101" stroke-miterlimit="10" d="M235.043,69.166c1.76,3.328,4.549,6.596,7.5,8.75"/>
	<path fill="none" stroke="#020101" stroke-miterlimit="10" d="M298.793,70.416c0-3.333,0-6.667,0-10"/>
	<path opacity="0.4" fill="none" stroke="#020101" stroke-miterlimit="10" d="M346.293,62.916c-0.416,0.417-0.834,0.833-1.25,1.25"
		/>
	<g opacity="0.4">
		<g>
			<path fill="#020101" d="M165.043,72.916c11.158-0.081,22.309-1.738,33.455-2.253c6.151-0.285,12.341-0.343,18.473,0.293
				c3.441,0.357,9.141,0.972,10.914,4.472c0.719-1.254,1.438-2.508,2.158-3.762c-15.668-0.002-31.51,0.008-46.835-3.661
				c-3.134-0.75-4.464,4.071-1.329,4.821c15.762,3.774,32.047,3.837,48.165,3.839c1.981,0,3-2.101,2.158-3.762
				c-4.504-8.892-21.035-7.547-29.071-7.396c-12.724,0.239-25.374,2.316-38.087,2.408C161.82,67.939,161.818,72.939,165.043,72.916
				L165.043,72.916z"/>
		</g>
	</g>
	<g opacity="0.4">
		<g>
			<path fill="#020101" d="M162.543,74.166c13.217,0.065,26.391,1.599,39.605,1.889c12.01,0.264,25.961,0.286,36.657-5.98
				c2.378-1.393,0.77-5.637-1.927-4.569c-1.633,0.647-3.807,1.108-4.794,2.709c-0.913,1.481-0.19,4.809-0.702,6.537
				c-0.231,0.784-0.019,1.893,0.644,2.432c3.101,2.528,4.03,1.198,7.433,0.643c3.176-0.518,1.823-5.335-1.33-4.821
				c-0.399,0.065-2.404,0.775-2.567,0.643c0.215,0.811,0.429,1.622,0.644,2.432c0.52-1.759,0.981-3.54,0.783-5.387
				c-0.053-0.496-0.142-0.957-0.278-1.434c-1.297,1.812-1.445,2.423-0.446,1.835c0.648-0.256,1.297-0.512,1.945-0.769
				c-0.643-1.523-1.285-3.046-1.927-4.569c-10.314,6.044-23.992,5.521-35.532,5.267c-12.749-0.28-25.454-1.795-38.207-1.858
				C159.318,69.15,159.319,74.15,162.543,74.166L162.543,74.166z"/>
		</g>
	</g>
	<g opacity="0.4">
		<g>
			<path fill="#020101" d="M336.878,62.827c13.745,3.572,26.075-4.524,39.415-6.161c3.157-0.387,3.195-5.392,0-5
				c-12.564,1.541-25.274,9.668-38.085,6.339C335.084,57.194,333.76,62.017,336.878,62.827L336.878,62.827z"/>
		</g>
	</g>
	<g opacity="0.2">
		<g>
			<path fill="#020101" d="M346.293,61.666c13.06-0.828,26.158-0.758,39.218-1.659c11.929-0.823,24.995-1.854,35.794-7.432
				c1.57-0.811,1.694-3.544,0-4.317c-12.342-5.629-23.767-13.616-37.512-15.341c-3.013-0.378-3.071,3.974-0.665,4.911
				c12.575,4.896,25.839,7.449,38.75,11.25c-0.611-0.804-1.224-1.607-1.835-2.411c0.781,10.765-7.543,18.211-13.408,26.238
				c-1.906,2.608,2.436,5.098,4.316,2.523c6.479-8.864,14.953-16.896,14.092-28.762c-0.082-1.137-0.706-2.078-1.835-2.411
				c-12.912-3.801-26.176-6.354-38.75-11.25c-0.222,1.637-0.443,3.274-0.665,4.911c12.71,1.596,23.579,9.455,34.988,14.659
				c0-1.439,0-2.878,0-4.317c-10.793,5.575-24.203,6.171-36.083,6.937c-12.123,0.781-24.283,0.703-36.405,1.472
				C343.092,56.869,343.071,61.87,346.293,61.666L346.293,61.666z"/>
		</g>
	</g>
	<g opacity="0.2">
		<g>
			<path fill="#020101" d="M2.543,41.666c0.178,4.276,1.472,7.164-1.768,10.732c1.393,0.811,2.786,1.622,4.178,2.432
				c1.307-3.673,3.009-7.169,4.748-10.653c-1.14,0.299-2.28,0.598-3.42,0.897c7.607,3.606,11.42,11.311,5.744,18.574
				c1.393,0.811,2.786,1.622,4.178,2.432c1.132-7.928-0.03-14.945-4.002-21.926c-1.518-2.667-4.927-0.7-4.569,1.926
				c0.117,0.854,0.703,2.248,0.252,3.074c1.523,0.642,3.046,1.284,4.569,1.926c1.134-6.152,3.495-10.155,8.851-13.506
				c1.532-0.958,1.709-3.401,0-4.317c-2.511-1.345-4.818-0.63-7.512-0.341c-1.354,0.145-2.5,1.027-2.5,2.5c0,3.75,0,7.5,0,11.25
				c0,1.123,0.765,2.101,1.835,2.411c1.823,0.528,4.028,3.26,5.591,4.42c2.816,2.09,5.988,3.582,9.409,4.33
				c2.188,0.479,3.845-1.682,2.823-3.672c-2.469-4.811-5.378-9.114-9.141-13.006c-1.986-2.055-5.372,0.587-3.926,3.029
				c9.362,15.815,31.501,10.366,45.897,17.147c0.42-1.553,0.841-3.106,1.262-4.659c-14.332-1.604-53.798-16.008-47.411,13.165
				c0.689,3.149,5.509,1.813,4.821-1.329c-0.943-4.309-1.123-8.831,3.272-11.066c3.741-1.902,8.953-1.23,12.942-0.803
				c8.922,0.956,17.472,4.038,26.375,5.034c2.452,0.274,3.452-3.627,1.262-4.659c-6.854-3.229-14.5-3.908-21.9-5.052
				c-7.969-1.232-17.731-2.747-22.203-10.301c-1.309,1.01-2.618,2.02-3.926,3.029c3.471,3.59,6.085,7.565,8.359,11.994
				c0.941-1.224,1.882-2.448,2.823-3.672c-4.084-0.894-7.377-3.062-10.579-5.668c-1.35-1.099-2.702-2.584-4.421-3.082
				c0.612,0.804,1.224,1.607,1.835,2.411c0-3.75,0-7.5,0-11.25c-0.833,0.833-1.667,1.667-2.5,2.5
				c1.45-0.155,3.699-1.032,4.988-0.341c0-1.439,0-2.878,0-4.317c-6.421,4.017-9.776,9.046-11.149,16.494
				c-0.49,2.66,3.135,4.555,4.569,1.926c1.31-2.401,0.604-4.346,0.252-6.926c-1.523,0.642-3.046,1.284-4.569,1.926
				c3.258,5.726,4.431,11.542,3.498,18.074c-0.303,2.119,2.431,4.668,4.178,2.432c7.512-9.611,4.157-21.252-6.756-26.426
				c-1.165-0.552-2.775-0.396-3.42,0.897c-1.931,3.87-3.8,7.769-5.252,11.847c-0.841,2.362,2.534,4.243,4.178,2.432
				c4.391-4.835,3.483-8.261,3.232-14.268C7.409,38.454,2.408,38.441,2.543,41.666L2.543,41.666z"/>
		</g>
	</g>
	<g opacity="0.2">
		<g>
			<path fill="#020101" d="M18.128,51.577c52.736,7.451,104.499,22.377,158.165,21.339c3.22-0.063,3.226-5.063,0-5
				c-53.22,1.029-104.537-13.771-156.835-21.161C16.306,46.31,14.947,51.127,18.128,51.577L18.128,51.577z"/>
		</g>
	</g>
	<g opacity="0.2">
		<g>
			<path fill="#020101" d="M24.458,44.077c15.452-4.194,31.011-7.966,46.562-11.771c15.453-3.781,30.778-8.229,46.28-11.776
				c12.823-2.934,25.739-3.355,38.716-1.289c13.897,2.212,27.37,6.425,41.264,8.718c28.177,4.651,57.57,6.294,85.573-0.099
				c12.983-2.964,25.724-6.662,39.171-6.384c14.348,0.297,28.995,6.161,42.671,10.122c18.062,5.231,36.103,11.037,52.837,19.727
				c2.857,1.484,5.386-2.831,2.523-4.317c-25.326-13.152-53.312-19.978-80.597-27.752c-27.032-7.702-51.737,4.91-78.425,7.203
				c-30.384,2.609-60.754-2.363-90.206-9.288c-11.617-2.731-23.353-4.688-35.321-4.213c-14.229,0.565-27.862,4.93-41.542,8.467
				C70.39,27.52,46.63,32.875,23.128,39.255C20.02,40.099,21.341,44.923,24.458,44.077L24.458,44.077z"/>
		</g>
	</g>
	<g opacity="0.2">
		<g>
			<path fill="#020101" d="M18.781,71.325C43.132,88,64.653,108.326,88.232,126.017c11.393,8.548,23.292,16.872,36.661,21.994
				c12.351,4.732,25.736,6.097,38.822,7.109c14.983,1.159,29.726,2.144,44.76,1.317c15.672-0.86,31.219-2.122,46.924-2.309
				c11.927-0.142,23.848-1.088,35.484-3.798c11.628-2.708,22.688-7.468,33.474-12.492c11.166-5.201,22.619-9.565,33.905-14.48
				c11.341-4.939,20.84-11.595,29.174-20.729c15.734-17.242,23.702-40.905,45.118-52.555c2.833-1.541,0.31-5.858-2.523-4.317
				c-21.821,11.87-30.399,35.502-46.13,53.336c-9.224,10.458-20.521,16.873-33.285,22.109
				c-12.245,5.023-24.222,10.408-36.329,15.743c-10.887,4.798-22.157,8.464-33.913,10.371c-13.833,2.245-27.863,1.53-41.805,2.135
				c-15.719,0.683-31.355,2.537-47.107,2.46c-14.271-0.07-29.085-1.413-43.226-3.358c-11.898-1.637-23.328-5.052-33.833-10.931
				c-11.666-6.527-22.493-14.838-32.963-23.099C61.375,98.693,42.426,81.471,21.305,67.007
				C18.636,65.18,16.139,69.516,18.781,71.325L18.781,71.325z"/>
		</g>
	</g>
	<g opacity="0.1">
		<g>
			<path fill="#020101" d="M13.049,63.898C76.604,75.341,140.596,85.072,205.166,88.18c30.727,1.479,61.526,1.493,92.159-1.563
				c14.729-1.47,29.253-3.886,43.76-6.776c13.688-2.728,26.724-8.292,39.887-12.779c12.226-4.167,24.792-7.691,37.822-6.645
				c9.648,0.775,9.573-14.231,0-15c-28.084-2.255-53.549,13.452-80.145,19.624c-28.505,6.616-58.139,8.761-87.331,9.101
				c-64.452,0.751-128.832-7.049-192.328-17.45c-14.005-2.294-27.986-4.742-41.953-7.256C7.581,47.731,3.54,62.186,13.049,63.898
				L13.049,63.898z"/>
		</g>
	</g>
	<g opacity="0.1">
		<g>
			<path fill="#020101" d="M38.049,57.648c62.078,10.982,125.267,12.296,188.134,10.268c31.588-1.019,63.142-2.916,94.684-4.869
				c30.791-1.906,61.715-4.817,92.564-2.618c4.296,0.307,8.582,0.747,12.861,1.237c4.07,0.466,7.5-3.765,7.5-7.5
				c0-4.44-3.439-7.035-7.5-7.5c-30.798-3.529-61.478-1.349-92.303,0.565c-31.484,1.956-62.971,3.929-94.492,5.2
				c-62.762,2.529-126.123,2.303-188.286-7.684c-3.063-0.492-6.121-1.022-9.176-1.563C32.58,41.511,28.536,55.965,38.049,57.648
				L38.049,57.648z"/>
		</g>
	</g>
	<g opacity="0.1">
		<g>
			<path fill="#020101" d="M106.799,65.684c-16.503,2.364-32.551,0.886-48.042,8.256c-8.731,4.154-1.116,17.084,7.57,12.952
				c13.676-6.506,29.805-4.644,44.458-6.744c4.054-0.581,6.218-5.666,5.238-9.226C114.839,66.612,110.843,65.104,106.799,65.684
				L106.799,65.684z"/>
		</g>
	</g>
	<g opacity="0.1">
		<g>
			<path fill="#020101" d="M131.293,69.166c-11.993,0.218-23.34,3.618-34.494,7.768c-8.982,3.342-5.098,17.844,3.987,14.464
				c9.86-3.669,19.892-7.039,30.506-7.232C140.954,83.99,140.971,68.99,131.293,69.166L131.293,69.166z"/>
		</g>
	</g>
	<g opacity="0.1">
		<g>
			<path fill="#020101" d="M70.008,78.142c22.674,14.08,52.014,12.625,77.422,17.804c15.047,3.068,29.959,6.522,45.212,8.463
				c11.012,1.401,22.232,1.734,33.313,2.354c23.151,1.297,46.432,1.874,69.543-0.363c21.5-2.081,44.255-6.44,62.401-18.848
				c0.311-0.221,0.62-0.44,0.93-0.661c7.814-5.551,0.335-18.567-7.57-12.952c-16.519,11.734-37.373,15.68-57.169,17.597
				c-22.202,2.148-44.624,1.491-66.861,0.297c-10.29-0.553-20.633-1.019-30.89-2.01c-14.556-1.405-28.862-4.98-43.146-7.975
				c-13.084-2.742-26.245-4.365-39.488-6.085c-12.415-1.612-25.343-3.879-36.125-10.575C69.335,60.072,61.811,73.052,70.008,78.142
				L70.008,78.142z"/>
		</g>
	</g>
	<g opacity="0.1">
		<g>
			<path fill="#020101" d="M29.74,75.719c19.905,17.602,40.029,35.042,62.281,49.658c11.496,7.55,23.577,14.163,36.011,20.027
				c13.76,6.488,27.738,8.553,42.855,8.434c6.955-0.055,13.901-0.38,20.858-0.296c7.846,0.096,15.424,1.325,23.112,2.794
				c13.342,2.55,26.542,5.733,40.106,6.927c28.442,2.502,55.748-9.201,79.683-23.513c18.458-11.037,35.071-24.902,51.627-38.541
				c8.304-6.841,16.823-12.97,25.633-19.127c9.312-6.507,17.92-13.629,24.613-22.881c2.402-3.319,0.578-8.346-2.69-10.261
				c-3.786-2.218-7.87-0.614-10.261,2.691c-7.6,10.503-19.196,17.52-29.743,24.68c-11.17,7.583-21.239,16.919-31.734,25.403
				c-20.582,16.637-42.494,31.448-67.377,40.857c-13.403,5.067-27.057,6.808-41.296,5.555c-13.405-1.18-26.569-4.831-39.786-7.225
				c-14.887-2.696-29.414-2.168-44.453-2.05c-6.771,0.054-13.49-0.309-20.125-1.709c-7.551-1.594-14.407-5.057-21.258-8.48
				c-32.639-16.312-60.286-39.529-87.449-63.549C33.129,58.73,22.479,69.299,29.74,75.719L29.74,75.719z"/>
		</g>
	</g>
	<g opacity="0.1">
		<g>
			<path fill="#020101" d="M108.049,122.648c34.489,6.719,69.476,3.537,104.308,5.878c34.749,2.336,68.724,10.316,103.43,2.872
				c-1.927-4.569-3.854-9.139-5.779-13.708c-24.387,14.295-53.33,19.018-81.215,20.069c-29.116,1.099-58.593-2.101-86.756-9.576
				c0,4.821,0,9.644,0,14.465c41.606-10.696,84.919-0.392,126.855,2.54c17.487,1.222,33.322-1.604,49.194-8.989
				c14.246-6.628,27.326-14.589,42.701-18.551c9.36-2.413,5.387-16.88-3.988-14.465c-15.33,3.951-28.914,11.415-42.958,18.451
				c-6.217,3.115-12.591,5.625-19.357,7.271c-9.024,2.194-18.235,1.797-27.422,1.155c-42.96-3.003-86.361-12.842-129.012-1.877
				c-7.207,1.854-7.132,12.571,0,14.465c29.443,7.814,60.315,11.094,90.744,10.111c30.446-0.983,62.201-6.534,88.785-22.118
				c7.564-4.434,2.388-15.459-5.779-13.708c-32.993,7.077-66.382-0.982-99.442-3.407c-33.441-2.453-67.202,1.109-100.32-5.343
				C102.588,106.343,98.56,120.8,108.049,122.648L108.049,122.648z"/>
		</g>
	</g>
	<g opacity="0.1">
		<g>
			<path fill="#020101" d="M33.828,53.142c11.193-5.94,24.197-5.454,36.499-4.976c13.15,0.511,26.278,1.271,39.21-1.768
				c9.415-2.212,5.421-16.675-3.987-14.464c-26.343,6.19-54.167-5.078-79.292,8.256C17.711,44.726,25.29,57.673,33.828,53.142
				L33.828,53.142z"/>
		</g>
	</g>
	<g opacity="0.1">
		<g>
			<path fill="#020101" d="M57.037,50.148c21.447-5.956,43.084-12.061,65.506-12.232c9.669-0.074,9.676-15.074,0-15
				c-23.753,0.182-46.771,6.458-69.494,12.768C43.742,38.269,47.699,52.741,57.037,50.148L57.037,50.148z"/>
		</g>
	</g>
	<g opacity="0.1">
		<g>
			<path fill="#020101" d="M86.293,50.416c16.579,1.271,32.852,4.67,49.256,7.232c4.036,0.63,8.05-0.965,9.226-5.238
				c0.99-3.598-1.193-8.594-5.238-9.226c-17.728-2.769-35.325-6.395-53.244-7.768C76.641,34.676,76.712,49.682,86.293,50.416
				L86.293,50.416z"/>
		</g>
	</g>
	<g opacity="0.1">
		<g>
			<path fill="#020101" d="M399.537,34.434c-15.726-2.473-31.136-6.261-46.25-11.25c-9.212-3.041-13.128,11.447-3.988,14.464
				c15.115,4.99,30.524,8.777,46.25,11.25c4.035,0.635,8.052-0.968,9.227-5.238C405.766,40.058,403.581,35.07,399.537,34.434
				L399.537,34.434z"/>
		</g>
	</g>
	<g opacity="0.1">
		<g>
			<path fill="#B25757" d="M31.151,93.82c54.847,32.38,117.136,42.758,179.339,50.706c61.888,7.908,123.743-11.771,178.037-40.4
				c0.972-0.515,1.94-1.033,2.907-1.556c14.385-7.737,18.804-27.319,10.763-41.046c-8.476-14.468-26.643-18.51-41.046-10.763
				c-10.941,5.885-22.124,11.278-33.556,16.144c2.389-1.008,4.777-2.016,7.166-3.024c-24.783,10.412-50.637,18.293-77.321,21.902
				c2.659-0.357,5.317-0.714,7.976-1.071c-22.771,2.907-44.593,1.234-67.235-1.794c2.658,0.357,5.317,0.715,7.975,1.072
				c-40.992-5.533-82.006-12.933-120.323-29.056c2.389,1.008,4.778,2.016,7.167,3.024c-10.859-4.65-21.393-9.942-31.565-15.948
				c-14.089-8.317-32.815-3.289-41.046,10.763C12.098,66.927,17.093,85.521,31.151,93.82L31.151,93.82z"/>
		</g>
	</g>
	<g opacity="0.1">
		<g>
			<path fill="#B25757" d="M53.018,78.094c14.43-5.286,29.363-8.693,44.574-10.781c-2.659,0.357-5.317,0.714-7.976,1.071
				c43.734-5.695,87.545-0.45,131.354,1.011c41.071,1.37,82.296-2.219,123.187,3.241c-2.658-0.357-5.316-0.714-7.975-1.072
				c15.286,2.137,30.361,5.562,44.636,11.529c6.981,2.918,16.907,0.613,23.117-3.024c6.706-3.929,11.724-10.43,13.787-17.929
				c2.13-7.743,1.034-16.188-3.024-23.117c-4.334-7.398-10.339-10.613-17.929-13.787c-26.172-10.941-55.398-13.952-83.495-15.257
				c-27.202-1.264-54.439-0.074-81.654-0.361C203.237,9.32,174.94,6.5,146.565,5.838c-31.563-0.736-63.771,1.231-94.354,9.517
				c-5.122,1.388-10.163,3.058-15.144,4.883c-15.34,5.619-25.562,20.151-20.953,36.903C20.181,71.924,37.65,83.724,53.018,78.094
				L53.018,78.094z"/>
		</g>
	</g>
	<g opacity="0.1">
		<g>
			<path fill="#B25757" d="M34.139,99.308c16.042,22.867,38.664,37.026,65.095,45.331c22.583,7.097,47.223,9.214,70.81,8.888
				c57.694-0.799,113.157-18.831,167.818-35.368c7.121-2.154,14.255-4.264,21.407-6.313c15.708-4.503,25.323-21.016,20.953-36.904
				c-4.3-15.632-21.19-25.458-36.904-20.953c-48.44,13.885-96.069,30.984-146.217,37.818c2.658-0.357,5.317-0.715,7.975-1.071
				c-23.607,3.1-47.398,3.922-71.055,0.766c2.658,0.357,5.317,0.714,7.975,1.071c-13.292-1.861-26.385-4.957-38.791-10.149
				c2.389,1.008,4.778,2.016,7.167,3.024c-6.447-2.784-12.585-6.106-18.318-10.17c-3.973-2.816,6.712,5.472,1.314,0.978
				c-1.539-1.281-2.992-2.661-4.417-4.064c-1.14-1.123-2.211-2.314-3.269-3.514c-4.729-5.363,4.388,6.227,0.265,0.349
				C76.576,55.666,59.893,49.48,44.901,58.262C31.673,66.011,24.731,85.896,34.139,99.308L34.139,99.308z"/>
		</g>
	</g>
	<g opacity="0.1">
		<g>
			<path fill="#B25757" d="M43.651,97.57c27.666,12.818,55.46,25.655,84.322,35.584c13.134,4.519,26.532,8.233,40.113,11.143
				c16.173,3.464,32.588,5.066,48.96,7.23c-2.658-0.357-5.317-0.715-7.975-1.071c22.933,3.143,45.833,8.17,69.059,8.381
				c12.781,0.116,25.644-1.918,37.753-5.967c10.761-3.598,21.07-8.347,32.135-11.025c15.89-3.848,25.186-21.517,20.953-36.904
				c-4.435-16.121-21.022-24.798-36.904-20.953c-16.188,3.92-30.999,12.232-47.5,15c2.659-0.356,5.317-0.714,7.976-1.071
				c-13.864,1.844-27.843,0.559-41.636-1.288c2.658,0.357,5.316,0.715,7.975,1.072c-19.541-2.702-39.029-5.619-58.593-8.17
				c2.658,0.357,5.317,0.715,7.975,1.072c-33.573-4.564-65.612-14.69-96.776-27.781c2.389,1.008,4.777,2.016,7.166,3.024
				c-15.052-6.366-29.892-13.214-44.719-20.084c-7.594-3.519-14.765-5.321-23.117-3.024c-7.499,2.063-14,7.081-17.929,13.787
				C25.222,69.612,28.813,90.695,43.651,97.57L43.651,97.57z"/>
		</g>
	</g>
	<g opacity="0.1">
		<g>
			<path fill="#B25757" d="M66.768,80.594c30.172-6.781,60.3-14.026,90.97-18.232c-2.659,0.357-5.317,0.715-7.976,1.072
				c30.814-4.101,61.84-4.533,92.693-0.51c-2.659-0.357-5.317-0.714-7.976-1.071c36.479,5,71.483,16.881,107.588,23.742
				c16.051,3.05,32.309-4.247,36.904-20.954c4.067-14.788-4.877-33.849-20.953-36.903c-24.636-4.681-48.729-11.691-73.149-17.317
				c-26.868-6.19-54.383-9.917-81.966-10.377C151.349-0.819,100.77,11.512,50.818,22.738c-15.956,3.586-25.131,21.714-20.953,36.903
				C34.353,75.957,50.827,84.177,66.768,80.594L66.768,80.594z"/>
		</g>
	</g>
</g>
<g id="trace">
</g>
</svg>
