<?xml version="1.0" encoding="utf-8"?>
<!-- Generator: Adobe Illustrator 16.0.0, SVG Export Plug-In . SVG Version: 6.00 Build 0)  -->
<!DOCTYPE svg PUBLIC "-//W3C//DTD SVG 1.1//EN" "http://www.w3.org/Graphics/SVG/1.1/DTD/svg11.dtd">
<svg version="1.1" id="Layer_1" xmlns="http://www.w3.org/2000/svg" xmlns:xlink="http://www.w3.org/1999/xlink" x="0px" y="0px"
	 width="465.111px" height="266.918px" viewBox="0 0 465.111 266.918" enable-background="new 0 0 465.111 266.918"
	 xml:space="preserve">
<path fill="none" stroke="#010101" stroke-miterlimit="10" d="M3.5,71.589c25.369-1.156,49.531-19.302,72.777-29.023
	c23.896-9.993,46.652-24.477,71.219-33.004c22.19-7.702,43.507-7.129,66.01-0.941c10.464,2.877,18.549,10.383,28.97,8.745
	c10.67-1.677,18.352-6.645,29.753-6.777c41.429-0.48,73.752,12.087,106.489,35.497c13.17,9.417,23.679,20.075,35.781,30.555
	c10.91,9.447,21.169,15.464,29.088,27.71c-2.55-10.19-11.494-19.666-17.205-28.33c1.093,8.547,7.598,19.44,10.014,28.62
	c-10.601,8.076-25.829,8.778-36.92,15.203c-9.752,5.65-9.115,15.354-16.176,22.713c-8.356,8.711-26.757,10.443-37.63,15.032
	c-11.396,4.81-22.069,9.402-33.445,14.249c-25.652,10.931-57.072,13.629-84.722,9.974c-29.941-3.959-58.453-21.506-88.063-29.417
	c-21.304-5.691-43.721-6.878-62.39-20.03C55.787,117.384,29.601,95.161,1.5,97.589"/>
<path fill="none" stroke="#010101" stroke-miterlimit="10" d="M20.5,123.589c11.962,2.556,21.14,25.511,28.194,35.251
	c8.25,11.39,16.654,22.731,25.304,33.968c17.577,22.833,36.206,36.457,62.669,46.972c50.791,20.181,114.083,29.166,167.365,8.81
	c27.898-10.658,55.958-36.07,77.723-56.249c24.147-22.389,44.182-48.178,68.745-69.751"/>
<path fill="none" stroke="#010101" stroke-miterlimit="10" d="M282.47,64.591c7.187,3.275,33.093,12.577,35.722,20.149
	c4.473,12.888-13.861,8.857-20.718,7.825c-12.115-1.824-17.906-2.375-12.922-17.452c1.786,22.561-15.994,30.889-35.028,29.252
	c-6.203-0.533-20.432-0.678-25.826-3.729c-7.914-4.477-8.329-21.498-9.269-29.461c5.312,6.114,5.969,19.921,2.091,26.885
	c-5.727,10.285-18.568,5.164-29.042,4.528c-10.592-0.643-19.721,0.132-25.726-9.08c-4.012-6.154-9.828-19.207-9.025-26.398
	c2.739,4.043,8.513,12.43,8.797,17.456c0.648,11.481-13.09,10.113-22.126,11.046c-10.719,1.107-24.696-0.549-29.876-11.672
	c-6.533-14.029,17.813-20.539,28.983-25.108c21.352-8.735,45.844-3.173,67.993-1.239c10.917,0.953,20.764-1.933,31.761-3.026
	C254.596,52.94,267.926,57.962,282.47,64.591z"/>
<path fill="none" stroke="#010101" stroke-miterlimit="10" d="M360.5,144.589c-4.577-5.654-11.235-28.23-20.071-26.313
	c-12.088,2.623-16.353,40.126-15.948,46.709c0.198-16.056,8.481-45.29-14.032-49.244c-8.921-1.567-19.874,9.431-23.214,16.868
	c-5.295,11.793,2.292,26.999,1.114,39.897c-3.848-0.418-7.049,0.479-7.845,2.229c0.047-12.117,2.746-23.161,4.02-34.924
	c1.463-13.523,1.063-22.787-13.023-24.223c-40.008-4.077-18.082,35.429-12.184,56.589c0.14-2.452,1.376-9.153,0.278-11.541
	c-3.717-8.085-4.572-4.692-10.266-3.052c-9.662,2.786-13.143,11.302-10.052,20.969c0.481-6.001,0.29-12.028,1.227-17.965
	c1.104-7.01,5.239-13.185,6.02-20.052c0.505-4.444-0.91-14.253-3.194-18.003c-4.046-6.642-6.473-4.629-12.777-4.922
	c-9.636-0.446-25.146-3.021-28.045,7.977c-1.283,4.867,1.775,12.604,1.993,17.758c0.336,7.952-0.367,16.142,0.801,23.792
	c-3.543-14.527,4.245-51.683-12.824-57.569c-9.472-3.267-16.37,0.956-20.949,8.19c-6.052,9.562-15.975,27.466-16.802,38.526
	c3.762-12.83,12.432-19.914,11.774-34.452c-0.45-9.931-1.938-20.695-13-24.242c-34.49-11.058-36.44,24.917-34,47.997"/>
<path fill="none" stroke="#010101" stroke-miterlimit="10" d="M77.5,122.589c4.603-7.115,19.184-19.618,27.271-21.781
	c10.45-2.795,10.299,6.966,15.729,14.781"/>
<path fill="none" stroke="#010101" stroke-miterlimit="10" d="M16.5,91.589c24.702,5.774,46.785,5.749,69.215-7.972
	c10.678-6.531,20.419-14.1,32.539-18.247c11.116-3.805,24.036-4.969,36.052-6.754c50.423-7.493,110.476-11.738,156.17,14.167
	c34.979,19.83,74.627,17.599,113.023,24.806"/>
<g opacity="0.6">
	<g>
		<path fill="#010101" d="M44.165,103c23.554-3.915,47.129-8.188,63.103-27.643c-1.393-0.368-2.786-0.735-4.178-1.103
			c0.982,7.144,2.991,15.185,9.229,19.606c5.563,3.944,12.58,4.224,19.164,4.27c7.849,0.054,17.666-1.405,23.892,4.474
			c5.209,4.918,6.348,14.208,8.715,20.651c0.781,2.125,3.261,2.39,4.569,0.597c3.644-4.996,9.367-8.895,15.107-11.061
			c7.849-2.961,12.688,0.493,13.234,8.799c0.101,1.532,1.534,2.959,3.165,2.411c10.82-3.643,23.624-5.434,34.366-0.541
			c12.53,5.707,13.375,19.601,10.559,31.465c1.607,0,3.215,0,4.822,0c-2.881-11.508-0.291-37.821,15.574-38.554
			c11.043-0.51,17.394,9.024,17.9,18.865c0.5,9.721-2.476,19.499-5.297,28.688c1.638,0.222,3.274,0.443,4.911,0.665
			c-0.045-12.677-2.911-28.307,7.785-37.621c4.761-4.145,12.37-7.537,18.699-7.928c7.567-0.467,9.11,7.639,9.516,13.549
			c0.118,1.718,2.097,3.342,3.762,2.159c8.444-5.997,19.521-21.102,28.358-6.98c4.983,7.963,7.017,18.279,17.715,20.232
			c11.348,2.071,20.831-10.505,27.108-17.935c3.871-4.581,8.058-9.105,12.878-12.698c5.177-3.86,11.377-6.069,17.344-8.367
			c1.151-0.444,2.293-1.723,1.746-3.075c-2.619-6.471-9.347-8.871-15.707-10.243c-9.367-2.02-19.193-1.928-28.726-1.984
			c-25.269-0.148-50.005-6.056-72.717-17.268c-0.642,1.523-1.284,3.046-1.927,4.569c4.358,0.638,9.552,2.439,8.279,7.81
			c-1.079,4.559-6.008,7.188-10.161,8.174c-6.186,1.469-13.614-2.733-19.321-4.634c-5.023-1.672-9.688-1.96-14.711-0.274
			c-18.407,6.18-42.957,27.19-57.262,3.251c-1.014-1.696-3.269-1.527-4.317,0c-11.046,16.092-38.787,8.274-50.074-3.506
			c-1.464-1.528-4.382-0.422-4.268,1.768c0.403,7.69,4.713,14.198,6.089,21.665c0.294,1.598,2.375,2.273,3.672,1.494
			c4.609-2.768,8.479-7.209,5.073-12.527c-3.397-5.306-11.129-7.813-16.806-9.546c-6.766-2.066-14.533-2.641-21.182,0.128
			c-6.707,2.794-10.73,9.605-15.114,15.019c1.309,0.168,2.617,0.337,3.926,0.506c-2.822-5.646-7.262-13.873-14.778-13.129
			c-6.232,0.617-10.724,7.171-14.353,11.566c-2.229,2.701-4.492,5.524-7.29,7.666c-5.826,4.46-11.245,1.438-16.342-2.129
			c-9.119-6.382-19.437-10.967-29.731-15.123c-0.222,1.637-0.443,3.274-0.665,4.911c7.952-0.756,15.633,0.472,23.54,1.045
			c8.147,0.591,15.64-1.407,22.722-5.386c2.569-1.444,0.769-5.131-1.926-4.569c-8.987,1.871-18.197,2.254-27,5
			c-3.065,0.956-1.772,5.746,1.329,4.821c15.574-4.644,39.433-5.564,45.746-23.746c-1.393,0.368-2.786,0.735-4.178,1.103
			c8.307,7.372,15.896,15.647,22.609,24.494c0.498-1.224,0.996-2.448,1.494-3.672c-5.851,1.902-6.61-2.195-9.557-6.17
			c-3.542-4.78-8.877-4.941-14.2-3.283c-6.31,1.966-10.611,6.873-15.099,11.446c-2.271,2.314-4.721,4.785-7.809,5.96
			c-4.466,1.699-8.254-2.27-10.904-5.31c-2.14-2.456-5.549,1.081-3.535,3.535c3.148,3.836,7.119,6.187,11.506,8.391
			c1.649,0.829,3.781-0.168,3.762-2.159c-0.025-2.638-0.394-5.121-1.089-7.665c-1.393,0.811-2.786,1.622-4.178,2.432
			c1.98,1.553,5.141,2.418,6.609,4.494c1.166,1.648,4.041,1.68,4.569-0.597c0.977-4.208,0.017-8.214-1-12.329
			c-0.375-1.516-2.336-2.37-3.672-1.494c-1.276,0.836-2.726,1.165-4,2c-2.757,1.807-0.381,5.575,2.523,4.317
			c10.071-4.361,24.512-7.148,29.897-17.897c0.799-1.595-0.148-3.861-2.159-3.762c-10.577,0.524-17.413,9.285-23.768,16.732
			c-1.725,2.021,0.591,5.702,3.029,3.926c7.816-5.692,17.182-10.022,26.477-5c0.642-1.523,1.284-3.046,1.926-4.569
			c-16.519-3.747-31.867,1.821-46.926,8.252c-1.274,0.544-1.494,2.345-0.897,3.42c2.604,4.69,6.339,8.443,11.494,10.149
			c3.07,1.016,4.375-3.813,1.329-4.821c-3.941-1.304-6.548-4.324-8.506-7.851c-0.299,1.14-0.598,2.28-0.897,3.42
			c13.722-5.86,27.995-11.168,43.074-7.748c2.69,0.61,4.504-3.176,1.926-4.569c-10.892-5.886-22.124-1.845-31.523,5
			c1.01,1.309,2.02,2.618,3.029,3.926c5.281-6.188,11.343-14.827,20.232-15.268c-0.72-1.254-1.439-2.508-2.159-3.762
			c-4.825,9.631-19.033,12.175-28.103,16.103c0.841,1.439,1.682,2.878,2.523,4.317c1.276-0.836,2.726-1.165,4-2
			c-1.224-0.498-2.448-0.996-3.672-1.494c0.786,3.182,1.762,6.389,1,9.671c1.523-0.199,3.046-0.398,4.569-0.597
			c-1.928-2.726-4.871-3.53-7.391-5.506c-1.853-1.454-4.896-0.192-4.178,2.432c0.576,2.104,0.89,4.157,0.911,6.335
			c1.254-0.72,2.508-1.439,3.762-2.159c-4.017-2.019-7.598-4.08-10.494-7.609c-1.178,1.178-2.357,2.357-3.535,3.535
			c4.834,5.548,10.756,9.015,17.916,5.689c6.818-3.167,10.791-10.591,16.932-14.735c2.615-1.765,7.362-3.621,10.483-2.271
			c2.071,0.896,3.143,3.343,4.229,5.164c2.99,5.015,7.273,6.616,12.873,4.796c1.382-0.449,2.522-2.318,1.494-3.672
			c-6.979-9.197-14.75-17.838-23.391-25.506c-1.456-1.292-3.544-0.723-4.178,1.103c-5.414,15.592-28.965,16.292-42.254,20.254
			c0.443,1.607,0.886,3.214,1.329,4.821c8.801-2.745,18.016-3.129,27-5c-0.642-1.523-1.284-3.046-1.926-4.569
			c-6.918,3.887-13.678,5.177-21.529,4.607c-7.479-0.542-14.682-1.665-22.209-0.949c-2.894,0.275-3.299,3.847-0.665,4.911
			c9.874,3.985,19.816,8.46,28.537,14.619c7.289,5.147,13.299,6.643,21.389,2.129c5.365-2.993,9.059-9.659,13.13-14.087
			c1.806-1.964,4.558-4.929,7.534-4.503c4.446,0.636,7.206,7.274,8.916,10.693c0.674,1.349,2.941,1.722,3.926,0.506
			c3.274-4.041,6.229-8.484,10.161-11.93c4.095-3.589,10.739-4.023,15.87-3.218c4.729,0.743,9.441,2.404,13.709,4.535
			c2.022,1.01,3.895,2.247,5.434,3.91c2.302,2.489-1.335,4.655-3.203,5.777c1.224,0.498,2.448,0.996,3.672,1.494
			c-1.286-6.979-5.536-13.181-5.911-20.335c-1.423,0.589-2.845,1.179-4.268,1.768c13.747,14.348,44.964,21.377,57.926,2.494
			c-1.439,0-2.878,0-4.317,0c7.027,11.759,17.74,16.044,30.929,12.691c6.542-1.664,12.73-4.799,18.77-7.737
			c5.825-2.833,12.579-7.134,19.246-6.974c7.626,0.183,14.464,5.417,22.075,6.162c5.992,0.587,11.575-1.388,15.878-5.609
			c3.192-3.133,4.804-7.727,3.723-12.098c-1.291-5.219-7.08-7.417-11.797-8.108c-2.572-0.376-4.689,3.206-1.927,4.569
			c20.443,10.092,44.013,17.411,66.957,17.881c8.896,0.182,17.787-0.02,26.668,0.661c6.058,0.465,18.45,1.104,21.226,7.963
			c0.582-1.025,1.164-2.05,1.746-3.075c-5.356,2.063-10.759,4.083-15.722,7.002c-5.428,3.193-9.657,7.801-13.994,12.273
			c-6.635,6.841-18.773,26.525-30.282,17.53c-7.602-5.94-7.412-17.592-16.247-22.77c-11.294-6.619-20.444,6.601-28.352,12.216
			c1.254,0.72,2.508,1.439,3.762,2.159c-0.452-6.586-1.951-14.95-8.965-17.634c-6.854-2.622-14.48,0.79-20.59,3.844
			c-7.438,3.719-12.929,9.328-15.252,17.404c-2.596,9.022-1.226,19.146-1.193,28.386c0.01,2.867,4.088,3.346,4.911,0.665
			c3.313-10.793,6.82-22.66,5.107-34.054c-1.697-11.287-10.176-18.996-21.636-19.817c-20.455-1.467-24.848,30.673-21.294,44.872
			c0.595,2.372,4.25,2.41,4.822,0c3.238-13.649,1.916-28.525-11.212-36.259c-11.76-6.928-27.551-4.963-39.864-0.817
			c1.055,0.804,2.11,1.607,3.165,2.411c-0.588-8.941-5.436-16.376-15.309-14.713c-8.702,1.466-17.2,7.392-22.35,14.452
			c1.523,0.199,3.046,0.398,4.569,0.597c-2.407-6.549-3.806-13.759-7.518-19.746c-3.821-6.163-10.579-8.229-17.421-8.915
			c-7.836-0.786-15.809,0.712-23.557-1.123c-8.99-2.129-11.391-11.122-12.504-19.216c-0.249-1.809-3.063-2.462-4.178-1.103
			c-15.429,18.79-38.196,22.584-60.897,26.357C39.66,98.706,41.012,103.523,44.165,103L44.165,103z"/>
	</g>
</g>
<g opacity="0.6">
	<g>
		<path fill="#010101" d="M202.494,118.821c8.786-1.327,17.888,1.942,26.419,3.56c10.245,1.943,19.653,1.468,29.676-1.346
			c8.534-2.396,16.256-9.673,25.183-10.294c4.609-0.32,9.241,1.271,13.671,2.312c5.421,1.275,10.554,1.628,16.052,0.768
			c7.469-1.168,12.446-6.688,18.728-10.211c6.553-3.676,14.644,0.791,20.988,2.952c8.971,3.056,18.65,3.743,27.964,5.339
			c11.337,1.942,22.791,3.728,34.326,3.188c-0.665-4.911-1.329-9.821-1.994-14.732c-9.292,2.423-18.402,6.079-26.791,10.756
			c-7.368,4.108-10.103,12.073-15.745,17.754c-1.812,1.824-5.34,3.969-7.106,4.51c1.767-0.541,3.527,1.065,4.446,2.287
			c-0.377-0.684-0.337-0.551,0.119,0.397c-0.202-0.566-0.294-1.177-0.398-1.766c0.307,1.734-0.037-1.243-0.056-1.565
			c-0.074-1.336-0.11-2.676-0.172-4.013c-0.142-3.082-0.457-6.207-1.217-9.201c-4.291-16.907-24.649-15.094-37.721-12.06
			c-3.067,0.712-6.102,1.559-9.17,2.269c-0.35,0.081-3.521,0.521-1.639,0.343c-2.312,0.218-4.725-0.813-6.896-1.461
			c-10.435-3.118-19.503,0.524-29.654,2.749c1.329,4.821,2.659,9.643,3.988,14.464c9.087-3.426,18.444-3.827,28.006-4.732
			c9.126-0.864,17.262-5.006,26.213-6.467c5.66-0.924,12.43-0.313,17.627,2.193c5.422,2.615,7.119,6.981,6.66,12.774
			c-0.497,6.271,8.732,10.296,12.804,5.303c3.52-4.317,7.137-11.175,12.69-13.071c-2.823-1.149-5.646-2.298-8.47-3.447
			c1.688,3.573-4.155,9.713-6,12.43c-5.452,8.026,7.552,15.521,12.951,7.57c5.95-8.76,10.968-17.056,6-27.57
			c-1.357-2.875-5.518-4.455-8.47-3.447c-8.89,3.036-13.622,9.953-19.31,16.929c4.269,1.768,8.536,3.536,12.804,5.303
			c1.54-19.434-15.297-29.394-32.632-30.207c-10.003-0.47-18.898,3.312-28.363,5.805c-5.467,1.44-11.257,1.436-16.857,1.978
			c-6.72,0.65-13.311,1.805-19.642,4.192c-8.958,3.377-5.584,16.562,3.988,14.464c4.381-0.96,8.654-2.34,13.039-3.293
			c4.848-1.054,8.98,0.799,13.64,1.915c6.667,1.597,13.12-0.661,19.547-2.249c5.16-1.275,12.794-3.596,17.979-1.287
			c3.747,1.669,3.021,5.586,3.207,10.252c0.199,5.025,0.45,10.493,4.214,14.276c5.456,5.485,13.402,1.97,18.75-1.612
			c3.577-2.396,6.637-5.013,9.194-8.481c2.161-2.933,3.954-6.124,6.391-8.844c2.876-3.211,7.297-4.848,11.144-6.581
			c4.775-2.15,9.834-3.777,14.896-5.097c8.109-2.115,6.552-15.132-1.994-14.732c-10.853,0.508-21.483-1.135-32.146-2.962
			c-9.785-1.677-19.418-2.701-28.829-5.945c-8.287-2.857-15.974-5.298-24.695-2.728c-7.199,2.122-11.916,8.617-18.994,10.617
			c-4.072,1.151-8.51-0.253-12.467-1.214c-4.802-1.167-9.638-2.132-14.598-2.116c-10.202,0.033-18.503,6.909-27.666,10.334
			c-19.307,7.216-37.975-4.683-57.599-1.718c-4.049,0.611-6.224,5.643-5.238,9.226C194.447,117.87,198.455,119.431,202.494,118.821
			L202.494,118.821z"/>
	</g>
</g>
<g opacity="0.6">
	<g>
		<path fill="#010101" d="M216.5,120.089c13.56-0.003,27.56-0.002,40.771-3.453c4.597-1.201,9.091-2.74,13.723-3.815
			c1.756-0.408,3.403-0.601,5.207-0.566c-0.973-0.019,1.258,0.614,0.069-0.005c-1.045-0.543-1.438-2.46-1.003-0.667
			c1.439,5.939,8.405,6.688,12.536,3.31c1.752-1.433,4.93-2.838,6.172-5.518c-4.317,0-8.634,0-12.951,0
			c5.587,7.447,13.319,10.302,22.438,10.7c4.217,0.185,7.829-2.484,11.304-4.537c2.137-1.263-0.864-0.612,1.432,0.18
			c2.403,0.829,4.578,1.383,7.135,1.573c4.303,0.319,9.4-2.083,13.311-3.568c1.881-0.714,3.763-1.399,5.682-2.005
			c0.878-0.265,1.769-0.481,2.67-0.65c-2.678,0.575-4.13-2.366-1.883,0.418c5.764,7.136,15.303,6.813,23.383,4.336
			c9.22-2.825,5.285-17.306-3.988-14.464c-3.219,0.986-5.708,1.174-9.006,0.732c2.943,0.395,0.759-0.542-0.419-2
			c-0.926-1.146-2.035-2-3.249-2.836c-6.151-4.24-17.058,2.155-23.03,4.096c-3.816,1.241-4.274,0.713-7.901-0.539
			c-3.816-1.316-7.19-0.503-10.661,1.194c-1.525,0.746-2.959,1.725-4.42,2.588c-1.373,0.609-1.492,0.771-0.357,0.482
			c-0.757-0.021-1.512-0.066-2.266-0.137c-2.377-0.183-5.707-1.117-7.221-3.133c-3.007-4.008-10.323-5.666-12.951,0
			c0.346-0.337,0.691-0.674,1.037-1.012c-0.634,0.43-1.273,0.852-1.918,1.266c-1.034,0.672-1.993,1.448-2.947,2.228
			c4.179,1.103,8.357,2.206,12.536,3.31c-3.274-13.507-18.602-10.548-28.502-7.727c-5.452,1.554-10.642,2.96-15.665,3.821
			c-9.533,1.633-19.43,1.397-29.065,1.399C206.827,105.091,206.827,120.091,216.5,120.089L216.5,120.089z"/>
	</g>
</g>
<g opacity="0.6">
	<g>
		<path fill="#010101" d="M74.5,112.089c7.955,0.672,15.478-1.631,22.977-3.965c7.378-2.296,12.925-3.091,18.72,2.769
			c2.673,2.703,8.005,3.14,10.606,0c3.096-3.736,5.873-6.108,10.69-7.071c9.481-1.895,5.458-16.352-3.987-14.464
			c-7.11,1.42-12.738,5.411-17.31,10.929c3.536,0,7.071,0,10.606,0c-7.373-7.456-15.844-10.016-26.086-8.47
			c-8.999,1.358-16.878,6.062-26.217,5.273C64.856,96.274,64.935,111.281,74.5,112.089L74.5,112.089z"/>
	</g>
</g>
<g opacity="0.1">
	<g>
		<path fill="#010101" d="M28.5,94.089c28.262-0.208,52.869-11.055,77.688-23.474c26.386-13.203,55.187-14.92,84.113-17.473
			c15.135-1.336,30.369-2.21,45.508-0.475c14.889,1.708,29.487,7.488,43.502,12.505c13.963,4.999,28.145,8.985,42.235,13.553
			c13.05,4.23,25.774,9.396,38.723,13.916c21.995,7.678,44.891,12.441,68.23,9.448c4.054-0.52,7.5-3.018,7.5-7.5
			c0-3.694-3.435-8.021-7.5-7.5c-27.968,3.587-53.647-4.847-79.524-14.458c-13.2-4.903-26.415-9.364-39.947-13.253
			c-14.553-4.182-28.604-9.944-42.991-14.64c-14.561-4.752-29.202-7.657-44.537-8.031c-15.299-0.373-30.596,1.386-45.808,2.766
			c-14.461,1.312-28.912,2.697-43.132,5.748c-14.304,3.068-27.001,9.007-40.015,15.47C72.149,70.821,51.59,78.919,28.5,79.089
			C18.831,79.16,18.824,94.16,28.5,94.089L28.5,94.089z"/>
	</g>
</g>
<g opacity="0.1">
	<g>
		<path fill="#010101" d="M25.715,108.065c8.117,5.713,16.765,10.346,25.87,14.276c8.178,3.53,16.812,6.098,24.641,10.368
			c13.563,7.396,29.178,19.076,45.06,11.355c-3.42-0.896-6.841-1.793-10.261-2.69c3.781,7.442,12.778,10.765,20.482,12.197
			c8.059,1.498,17.451,1.679,24.779-2.507c-3.762-2.158-7.523-4.317-11.285-6.476c0.846,25.961,44.586,42.692,59.976,19.785
			c-4.317,0-8.635,0-12.952,0c4.291,5.735,8.392,11.105,14.292,15.276c5.396,3.814,12.591,5.561,18.885,7.423
			c5.521,1.635,11.883,2.783,17.506,1.021c6.771-2.121,10.019-8.724,9.293-15.506c-5,0-10,0-15,0
			c1.627,13.021,14.881,17.108,26.375,17.25c10.943,0.135,25.009-4.412,25.625-17.25c-4.658,1.262-9.317,2.523-13.976,3.785
			c6.229,10.065,16.446,14.452,27.598,9.551c9.205-4.046,16.789-12.756,21.354-21.551c-4.658-1.262-9.317-2.523-13.976-3.785
			c1.399,10.43,7.992,17.899,19.128,17.228c10.974-0.661,21.472-6.607,30.705-12.104c10.802-6.431,20.992-13.889,30.977-21.508
			c4.458-3.402,8.872-6.861,13.272-10.336c1.498-1.183,2.995-2.366,4.498-3.541c0.773-0.604-1.204,0.911,0.484-0.368
			c0.402-0.305,0.809-0.603,1.221-0.895c7.825-5.54,0.344-18.555-7.57-12.952c-14.859,10.519-27.62,21.873-43.031,31.99
			c-8.396,5.513-17.493,11.035-26.243,13.729c-0.87,0.268-1.753,0.485-2.64,0.691c-0.419,0.094-0.84,0.178-1.263,0.253
			c-2.049,0.388,1.575-0.135-0.41,0.041c-0.74,0.066-1.484,0.058-2.227,0.031c-0.854-0.072-0.704-0.04,0.449,0.099
			c-0.485-0.073-0.959-0.207-1.43-0.344c-1.236-0.359,1.438,0.838-0.317-0.226c2.146,1.301-1.026-1.53,0.364,0.401
			c-0.286-0.397-1.134-2.4-0.416-0.547c-0.168-0.435-0.777-3.323-0.552-1.643c-0.453-3.372-1.964-6.258-5.506-7.232
			c-3.118-0.857-6.933,0.484-8.47,3.447c-2.642,5.089-6.301,9.928-10.952,13.354c-4.92,3.624-8.706,4.125-12.097-1.354
			c-4.017-6.491-13.619-3.637-13.976,3.785c0.048-1.003-0.22-0.016,0.328-0.666c-0.146,0.174-1.741,1.364-0.607,0.59
			c-0.626,0.428-1.32,0.751-2.002,1.078c-1.673,0.802-5.601,1.214-8.344,1.248c-3.198,0.039-5.608-0.36-8.77-1.401
			c-0.28-0.093-2.561-1.442-2.073-1.039c-0.251-0.207-1.413-1.803-0.563-0.522c-0.779-1.173-0.038,0.163,0.03,0.713
			c-0.507-4.056-3.028-7.5-7.5-7.5c-3.759,0-7.936,3.427-7.5,7.5c0.123,1.146-0.363,2.879,0.792,1.437
			c0.204-0.255,0.027-0.084-1.095-0.056c-3.269,0.082-6.91-1.127-10.25-2.211c-4.326-1.402-8.701-2.593-12.56-5.061
			c-3.674-2.35-6.343-6.462-8.911-9.895c-3.435-4.592-9.589-5.006-12.952,0c-6.479,9.645-31.678-1.618-32.024-12.215
			c-0.185-5.669-6.233-9.361-11.285-6.476c-5.372,3.067-21.767,1.539-24.739-4.31c-1.952-3.842-6.761-4.393-10.261-2.691
			c-4.774,2.321-11.317-1.197-15.545-3.311c-6.396-3.198-12.362-7.187-18.784-10.339c-7.458-3.661-15.565-5.998-23.17-9.357
			c-8.069-3.564-15.72-7.918-22.931-12.994C25.354,89.531,17.871,102.544,25.715,108.065L25.715,108.065z"/>
	</g>
</g>
<g opacity="0.1">
	<g>
		<path fill="#010101" d="M36.715,122.065c46.213,33.29,100.29,59.839,156.984,68.505c51.685,7.901,106.563,5.486,157.133-7.904
			c19.577-5.184,38.576-12.35,55.453-23.602c8.005-5.336,0.504-18.335-7.57-12.951c-21.553,14.368-46.655,21.672-71.896,26.724
			c-26.122,5.229-52.888,7.16-79.499,6.913c-26.163-0.243-52.313-2.874-77.67-9.458c-28.156-7.311-55.054-18.914-80.538-32.836
			c-15.524-8.48-30.476-18.006-44.827-28.343c-3.324-2.395-8.343-0.583-10.261,2.691C31.809,115.584,33.405,119.681,36.715,122.065
			L36.715,122.065z"/>
	</g>
</g>
<g opacity="0.1">
	<g>
		<path fill="#010101" d="M17.506,116.821c7.738,3.259,13.372,11.122,17.848,17.864c6.012,9.056,10.887,18.837,16.056,28.382
			c4.855,8.967,9.986,17.828,16.678,25.572c8.919,10.322,19.748,19.252,30.602,27.441c11.476,8.66,23.938,15.819,37.307,21.113
			c13.291,5.264,27.691,8.54,41.616,11.629c28.988,6.429,59.032,9.697,88.699,7.393c16.191-1.258,32.565-4.107,47.711-10.101
			c14.523-5.746,27.519-14.106,39.706-23.792c23.615-18.767,42.468-42.728,62.075-65.431c6.288-7.282-4.274-17.94-10.607-10.607
			c-31.253,36.189-63.15,79.104-112.21,90.741c-28.28,6.709-58.117,6.04-86.729,1.877c-14.686-2.137-29.21-5.329-43.539-9.173
			c-13.678-3.67-26.643-7.954-38.982-15.005c-14.075-8.042-26.753-18.361-38.292-29.696c-8.605-8.454-14.683-17.845-20.462-28.392
			c-10.906-19.908-21.179-44.887-43.489-54.281c-3.775-1.59-8.248,1.682-9.226,5.238C11.077,111.925,13.741,115.236,17.506,116.821
			L17.506,116.821z"/>
	</g>
</g>
<g opacity="0.1">
	<g>
		<path fill="#010101" d="M8.268,77.595c-1.816,10.223,2.474,18.18,4,27.987c4.569-1.926,9.139-3.853,13.708-5.779
			c-3.002-4.098-5.547-8.407-7.244-13.208c-4.178,2.432-8.357,4.865-12.535,7.297c5.665,6.864,12.237,16.068,21.928,16.822
			c10.929,0.85,18.477-10.571,23.851-18.34c2.795-4.041-0.08-9.799-4.482-11.017c-9.339-2.585-19.638-1.062-24.022,8.619
			c-3.641,8.04-2.829,17.029-3.472,25.613c4.911-0.665,9.821-1.329,14.732-1.994C32.999,104.06,33.948,94.22,34,84.589
			c0.046-8.601-12.313-10.039-14.732-1.994c-1.892,6.292-4.639,12.193-7.244,18.208c-1.625,3.751-1.148,8.013,2.691,10.261
			c3.205,1.877,8.635,1.063,10.261-2.691c3.114-7.189,6.495-14.272,8.756-21.792c-4.911-0.665-9.821-1.329-14.732-1.994
			c-0.06,11.082-0.727,22.02,1.268,32.994c1.603,8.816,14.138,5.942,14.732-1.994c0.386-5.147,0.118-11.055,0.964-15.688
			c0.457-2.5,1.009-3.829,1.864-4.696c-0.396,0.402,0.612-0.148,0.705-0.156c1.737-0.15,3.318,0.313,4.974,0.771
			c-1.494-3.672-2.988-7.345-4.482-11.017c-2.322,3.356-4.707,6.562-7.65,9.402c-0.781,0.753-1.591,1.223-2.549,1.728
			c1.255-0.661-0.393-0.252,0.563-0.082c-3.899-0.694-9.52-8.852-12.585-12.566c-4.759-5.767-14.978,0.385-12.535,7.297
			c2.136,6.044,4.966,11.62,8.756,16.792c5.154,7.035,15.033,2.735,13.708-5.779c-1.017-6.535-5.192-13.301-4-20.013
			C24.412,72.126,9.957,68.083,8.268,77.595L8.268,77.595z"/>
	</g>
</g>
<g opacity="0.1">
	<g>
		<path fill="#010101" d="M419.024,101.374c3.246,7.223,7.753,13.777,11,21c2.158-3.762,4.317-7.523,6.476-11.285
			c-6.558,0.121-13.264,1.292-18.785,5.024c-4.221,2.853-5.496,10.418,0,12.952c5.744,2.648,11.676,4.883,17.819,2.243
			c4.521-1.943,6.348-7.118,6.261-11.695c-0.169-8.952-5.221-18.36-9.819-25.809c-0.896,3.42-1.793,6.841-2.69,10.261
			c1.699-1.059,1.354-0.963,3.215-0.976c-2.5-2.5-5-5-7.5-7.5c-0.516,9.198,1.092,19.565,7.228,26.759
			c9.041,10.6,20.792-0.916,25.749-8.974c-4.318,0-8.635,0-12.952,0c2.14,4.558,3.427,9.515,5.243,14.208
			c1.475,3.809,4.983,6.405,9.227,5.238c3.643-1.002,6.715-5.408,5.238-9.226c-2.292-5.922-4.052-12.033-6.756-17.792
			c-2.495-5.313-10.225-4.435-12.952,0c-0.919,1.492-3.284,5.301-4.301,5.674c0.953-0.35,1.95,0.243,2.665,0.803
			c-0.667-0.522-0.713-0.78-1.326-1.917c-2.274-4.216-2.323-10.123-2.063-14.775c0.228-4.065-3.584-7.527-7.5-7.5
			c-4.061,0.028-7.327,0.868-10.785,3.024C418.313,93.233,416.831,97.822,419.024,101.374c2.941,4.767,5.289,9.5,6.874,14.423
			c0.397,1.235,0.694,2.496,0.935,3.77c-0.299-1.58-0.03,0.413-0.025,0.677c0.036,1.933,0.408-1.452-0.054,0.222
			c0.255-0.924,0.841-1.806,1.676-2.31c0.458-0.276,2.533-0.514,0.899-0.56c1.434,0.04-1.394-0.437-1.387-0.435
			c-0.95-0.276-1.756-0.632-2.657-1.048c0,4.317,0,8.635,0,12.952c3.423-2.313,7.147-2.901,11.215-2.976
			c6.115-0.113,8.77-6.183,6.476-11.285c-3.246-7.223-7.753-13.777-11-21c-1.676-3.73-7.02-4.589-10.261-2.691
			C417.912,93.341,417.348,97.645,419.024,101.374L419.024,101.374z"/>
	</g>
</g>
<g opacity="0.1">
	<g>
		<path fill="#010101" d="M12.285,81.065c27.418-11.893,56.934-17.49,83.875-30.764c11.674-5.752,22.433-13.172,33.878-19.343
			c12.276-6.62,24.809-9.608,38.553-11.424c15.266-2.018,30.687-3.187,46.067-1.913c14.675,1.215,27.344,7.433,41.293,11.362
			c14.327,4.035,27.104,1.473,40.73-3.522c5.867-2.15,11.748-3.99,18.02-4.338c6.196-0.344,12.596,1.059,18.596,2.428
			c23.406,5.343,48.026,16.625,65.34,33.527c17.75,17.327,27.868,40.858,41.388,61.297c5.309,8.027,18.306,0.523,12.952-7.57
			c-14.321-21.651-25.233-45.703-43.732-64.333c-18.166-18.294-44.322-30.119-68.937-36.638c-12.838-3.4-25.925-4.993-38.932-1.677
			c-5.903,1.505-11.53,3.996-17.31,5.894c-6.969,2.289-13.707,2.739-20.896,1.263c-6.527-1.341-12.794-3.888-19.007-6.233
			c-7.198-2.718-14.516-4.506-22.133-5.59c-15.3-2.178-30.698-1.515-46.013,0.145c-15.707,1.702-30.71,3.917-45.261,10.292
			c-12.79,5.604-24.321,13.72-36.509,20.456C66.097,49.938,34.041,55.393,4.715,68.113c-3.753,1.628-4.569,7.055-2.691,10.261
			C4.271,82.211,8.535,82.692,12.285,81.065L12.285,81.065z"/>
	</g>
</g>
<g opacity="0.1">
	<g>
		<path fill="#ED2024" d="M26.5,99.089c13.709,0.322,27.187-3.484,39.881-8.309c7.272-2.764,14.413-5.888,21.576-8.915
			c-5.647,2.387-0.579,0.25,0.483-0.193c1.449-0.605,2.904-1.197,4.359-1.788c3.305-1.341,6.64-2.601,10.003-3.787
			c13.306-4.689,27.525-5.827,41.248-8.896c16.133-3.609,31.562-8.916,46.557-15.87c1.52-0.705,3.039-1.413,4.561-2.114
			c0.967-0.445,6.232-2.683,0.739-0.398c3.059-1.272,6.195-2.308,9.39-3.174c1.183-0.32,6.719-1.213,0.532-0.403
			c1.5-0.196,3.011-0.203,4.521-0.233c3.519-0.069,7.041,0.138,10.548,0.397c3.195,0.236,6.379,0.616,9.557,1.02
			c-6.324-0.804-0.64-0.047,0.542,0.134c1.646,0.251,3.287,0.526,4.929,0.801c7.031,1.175,14.027,2.552,21.029,3.882
			c5.838,1.108,11.683,2.181,17.563,3.042c3.289,0.482,6.519,1.505,9.661,2.554c1.007,0.336,6.285,2.479,0.858,0.175
			c2.066,0.877,4.085,1.866,6.099,2.856c13.98,6.876,26.941,15.552,42.215,19.489c5.637,1.453,11.449,2.217,17.19,3.127
			c2.863,0.454,5.713,0.967,8.553,1.548c1.462,0.299,10.235,3.037,4.471,0.586c10.146,4.314,18.263,12.652,27.578,18.396
			c10.448,6.441,24.7,2.315,30.784-8.072c6.309-10.769,2.349-24.36-8.071-30.784c-13.293-8.195-23.855-18.619-39.409-22.732
			c-6.726-1.778-13.7-2.567-20.549-3.714c-3.464-0.58-6.891-1.31-10.291-2.187c-1.723-0.444-3.408-1.008-5.092-1.579
			c-2.362-0.902-2.249-0.831,0.341,0.212c-0.974-0.455-1.942-0.922-2.904-1.401c-13.822-6.778-26.678-14.928-41.393-19.841
			c-5.832-1.947-11.977-2.582-18.004-3.652c-6.833-1.214-13.639-2.574-20.462-3.84c-14.575-2.704-29.431-5.253-44.288-5.421
			c-17.097-0.194-31.798,6.915-46.958,13.877c-0.959,0.44-6.242,2.656-0.773,0.398c-1.682,0.694-3.404,1.285-5.118,1.892
			c-3.534,1.25-7.113,2.366-10.703,3.441c-7.705,2.307-15.547,4.138-23.423,5.752c-13.549,2.776-26.671,4.485-39.672,9.426
			c-6.71,2.55-13.302,5.428-19.913,8.22c-2.28,0.964-1.96,0.829,0.96-0.405c-1.472,0.62-2.947,1.232-4.423,1.843
			c-2.926,1.211-5.871,2.374-8.832,3.499c-5.21,1.98-10.513,3.697-15.923,5.039c-1.649,0.409-9.916,1.725-2.421,0.738
			c-2.688,0.354-5.398,0.43-8.105,0.366C14.234,53.8,4,64.542,4,76.589C4,89.072,14.241,98.8,26.5,99.089L26.5,99.089z"/>
	</g>
</g>
<g opacity="0.1">
	<g>
		<path fill="#ED2024" d="M10.983,143.105c39.278,31.781,69.746,73.753,114.389,98.937c12.613,7.115,26.428,12.849,40.465,16.438
			c17.137,4.383,35.32,5.989,52.912,7.423c17.965,1.465,35.381,1.595,53.227-1.297c15.432-2.5,30.223-9.884,43.785-17.373
			c44.807-24.739,90.295-51.147,126.255-88.128c14.241-14.646,14.599-38.434,0-53.033c-14.296-14.296-38.787-14.651-53.033,0
			c-9.708,9.984-20.171,19.136-31.185,27.652c2.53-1.955,5.06-3.909,7.59-5.864c-16.118,12.332-33.224,23.238-50.677,33.568
			c-16.936,10.023-34.103,20.864-52.169,28.733c2.986-1.261,5.972-2.521,8.958-3.78c-7.325,3.071-14.827,5.288-22.702,6.394
			c3.323-0.446,6.646-0.894,9.969-1.34c-19.82,2.352-40.92-0.132-60.611-2.722c3.323,0.446,6.646,0.893,9.969,1.34
			c-13.768-1.882-27.052-4.438-39.941-9.756c2.986,1.26,5.972,2.52,8.958,3.78c-13.05-5.553-25.018-13.08-36.25-21.696
			c2.53,1.954,5.06,3.909,7.589,5.863c-30.383-23.608-54.584-53.996-84.464-78.173C55.951,83.546,48.272,79.089,37.5,79.089
			c-9.906,0-19.516,3.982-26.517,10.983S0,106.683,0,116.589C0,125.615,3.666,137.185,10.983,143.105L10.983,143.105z"/>
	</g>
</g>
</svg>
