<?xml version="1.0" encoding="utf-8"?>
<!-- Generator: Adobe Illustrator 16.0.0, SVG Export Plug-In . SVG Version: 6.00 Build 0)  -->
<!DOCTYPE svg PUBLIC "-//W3C//DTD SVG 1.1//EN" "http://www.w3.org/Graphics/SVG/1.1/DTD/svg11.dtd">
<svg version="1.1" id="Layer_1" xmlns="http://www.w3.org/2000/svg" xmlns:xlink="http://www.w3.org/1999/xlink" x="0px" y="0px"
	 width="540.94px" height="362.683px" viewBox="0 0 540.94 362.683" enable-background="new 0 0 540.94 362.683"
	 xml:space="preserve">
<path fill="none" stroke="#040303" stroke-miterlimit="10" d="M16.677,158.183c-1.182-9.488,6.459-20.155,8.945-28.997
	c2.64-9.392,4.047-18.522,7.33-28.078c6.672-19.427,16.675-39.585,27.451-56.902c12.502-20.09,24.103-30.047,48.251-30.023
	c23.857,0.023,44.141,9.807,68.349,6.052C224.894,12.806,272.99-7.574,321.876,3.96c28.037,6.616,54.667,14.12,76.298,34.445
	c18.099,17.007,31.979,37.843,48.754,55.777c11.632,12.437,31.58,17.49,46.694,23.226c13.707,5.202,24.032,12.191,36.055,19.774"/>
<path fill="none" stroke="#040303" stroke-miterlimit="10" d="M24.677,200.183c29.118,1.605,15.063,48.243,16,64.251
	c1.501,25.644,19.276,45.604,38.749,60.743c37.822,29.404,83.863,37.006,131.474,37.006c22.238,0,44.217-1.702,65.879-4.777
	c21.354-3.031,44.267-3.271,64.844-9.474c23.833-7.185,42.525-25.506,64.277-36.972c29.035-15.305,42.688-41.846,62.996-64.832
	c13.938-15.775,34.592-36.131,52.781-46.945"/>
<path fill="none" stroke="#040303" stroke-miterlimit="10" d="M28.677,173.183c21.462-4.968,55.344-7.253,69.722,11.469
	c11.223,14.612,15.879,27.865,32.258,38.453c18.709,12.094,36.51,12.754,57.849,17.882c20.667,4.968,44.038,4.103,65.269,2.22
	c19.995-1.774,41.045-0.783,59.711-7.997c19.557-7.558,41.183-10.188,59.167-21.226c9.679-5.939,18.639-13.371,28.043-19.85
	c7.839-5.398,19.817-11.088,24.023-18.686c4.179-7.549-1.332-8.213,9.035-13.288c5.068-2.481,10.545-4.138,16.168-4.754
	c11.689-1.282,22.488,0.668,33.829,1.829c12.151,1.244,20.053-3.906,30.925-6.052"/>
<path fill="none" stroke="#040303" stroke-miterlimit="10" d="M36.677,169.183c11.077-2.687,20.24-1.952,31-3.003
	c10.39-1.016,12.996-7.294,18.729-15.029c9.695-13.081,21.482-35.072,40.244-34.968c3.107,0.017,10.171,3.482,11.752,3.271
	c6.587-0.88,4.196-4.604,8.248-9.293c6.406-7.414,17.702-8.432,27.027-8.974c11.633-0.675,22.253-1.401,31,4.771
	c11.41,8.052,11.814,7.875,23.957,0.472c19.699-12.009,39.896-15.521,58.794,0c4.538,3.727,4.55,6.421,10.448,5.826
	c5.025-0.507,9.716-7.749,14.749-9.346c8.642-2.741,24.6-2.24,32.274,2.477c2.53,1.556,7.6,10.135,9.702,10.669
	c5.827,1.48,10.404-6.858,16.023-6.721c7.778,0.189,15.228,10.668,22.561,13.123c12.729,4.26,22.545,0.902,33.468,9.701
	c7.354,5.923,13.222,14.949,22.023,18.854c15.097,6.698,38.954,5.177,55,5.171"/>
<path fill="none" stroke="#040303" stroke-miterlimit="10" d="M47.677,144.183c18.131-20.281,32.193-45.246,61-51.777
	c12.461-2.826,26.451-0.572,39-2c14.036-1.598,28.006-5.014,41.98-6.468c32.041-3.335,62.393-6.102,95.29-3.731
	c32.39,2.334,65.679,12.111,97.784,18.781c22.408,4.655,40.654,16.373,61.164,25.661c16.422,7.437,33.056,14.47,48.781,23.535"/>
<path fill="none" stroke="#040303" stroke-miterlimit="10" d="M89.677,170.183c6.666-0.717,22.178-9.675,24.171-15.972
	c6.509,9.385,23.551,21.454,29.802,7.02c4.522-10.439,0.027-30.022,0.027-39.21c-0.442,14.354,3.802,33.118,8.174,46.189
	c6.381,19.074,21.385,22.565,39.797,21.75c5.833-0.258,19.125-0.043,23.826-4.004c6.234-5.254,2.364-13.697,0.647-20.524
	c-2.267-9.018-1.982-13.671,0.555-22.146c1.992-6.654,5.68-16.176,0.174-21.426c-1.945,12.593,3.244,37.35,8.603,48.545
	c7.575,15.823,20.099,11.729,36.441,10.777c18.913-1.101,35.995-4.787,32.81-26c-1.967-13.101,0.663-30.043-1.028-41.194
	c-0.399,12.481,4.361,42.625,17.781,46.214c12.555,3.358,37.052-10.778,39.219-22.046c1.491-7.753-3.219-19.098,6.977-11.767
	c6.84,4.917,9.246,15.585,16.472,20.548c16.069,11.035,34.441-5.073,25.552-21.754"/>
<path fill="none" stroke="#040303" stroke-miterlimit="10" d="M127.677,212.183c1.501-8.428,21.233-26.143,31.02-22.071
	c11.124,4.628,1.832,26.016-0.016,33.566c-1.325-15.117,10.713-19.021,23.974-15.519c13.12,3.466,12.805,15.914,17.051,26.714
	c1.5-15.77,4.21-16.974,18.949-17.69c16.438-0.8,14.27,3.376,15.197,18.698c2.488-6.083,3.095-12.98,2.977-19.524
	c8.938-4.236,23.16-4.396,32.849-4.948c13.542-0.771,15.389,8.754,15,21.095c-0.632-9.941-0.986-16.724,6.223-20.543
	c5.162-2.734,14.742-2.712,20.505-3.804c3.401-0.645,13.072-4.547,16.272-3.071c6.33,2.917,3.623,11.927,4.37,17.719
	c5.444-4.627,4.306-13.342,9.409-18.617c4.161-4.302,10.731-6.791,15.991-9.227c15.271-7.072,11.016,3.914,22.229,9.223"/>
<g opacity="0.3">
	<g>
		<path fill="#040303" d="M105.462,178.659c2.137-1.296,4.179-2.575,6.612-3.195c-0.436,0.111-1.819-0.275-0.423,0.111
			c-0.737-0.204-0.583-0.295-0.085,0.111c3.676,2.998,7.193,5.34,11.873,6.5c6.043,1.497,12.167,1.835,17.233-2.262
			c4.064-3.287,5.75-8.676,9.309-12.438c-4.268-1.768-8.536-3.536-12.803-5.303c0.577,11.797,3.755,23.799,13.318,31.514
			c9.573,7.724,21.917,9.76,33.829,10.872c9.997,0.934,20.372,2.296,30.286,0.063c12.967-2.923,17.141-14.412,15.3-26.442
			c-4.569,1.927-9.139,3.854-13.708,5.779c4.082,8.485,15.197,10.848,23.596,11.922c11.268,1.44,22.863,0.405,33.937-1.944
			c10.355-2.196,21.216-6.188,28.948-13.669c8.198-7.932,8.853-19.194,3.471-28.879c-4.715-8.487-17.396-0.98-12.951,7.57
			c3.635,6.994,8.721,13.579,16.691,15.634c7.399,1.908,14.894-1.425,21.32-4.764c14.412-7.489,33.269-14.869,33.964-33.655
			c-4.268,1.768-8.535,3.536-12.804,5.303c14.04,16.754,43.428,30.723,59.936,9.123c2.234-2.922,3.264-7.716,5.176-10.125
			c1.195-1.506-0.424,0.063-1.376,0.157c-2.029,0.199,0.118,0.305-0.944-0.181c1.615,0.739,3.089,1.819,4.526,2.848
			c6.067,4.346,11.417,9.914,16.683,15.178c1.104-4.178,2.207-8.357,3.31-12.535c-5.757,1.348-11.935-1.306-17.813-1.251
			c-5.691,0.052-11.103,1.078-16.417,3.06c-6.024,2.248-12.025,5.011-18.291,6.478c-5.505,1.288-11.44-0.075-16.885-1.014
			c-27.876-4.809-50.027,15.695-72.983,27.77c-11.892,6.256-25.223,8-38.452,9.015c-13.619,1.045-27.354,2.261-41.015,2.361
			c-11.796,0.086-23.13-1.599-34.388-5.109c-6.253-1.949-12.187-4.677-18.343-6.869c-6.354-2.263-13.285-2.631-19.967-2.7
			c-6.114-0.063-12.761,2.184-18.772,1.002c-6.146-1.208-11.932-4.383-17.686-6.742c-5.956-2.442-12.204,5.92-8.47,11.017
			c5.331,7.277,11.675,13.731,17,21c3.331,4.548,12.59,5.373,13.708-1.791c0.667-4.275,1.624-5.653,5.629-6.576
			c4.642-1.07,9.975-0.247,14.683-0.033c4.955,0.226,9.674-0.444,14.594-0.943c1.057-0.107,2.115-0.169,3.176-0.214
			c1.699-0.072-0.505-0.601,0.84,0.705c-0.717-0.695-0.807-2.197-0.125-2.939c-0.562,0.612-2.296,0.65-3.024,0.774
			c1.926,4.569,3.853,9.139,5.779,13.708c9.448-5.594,18.775,10.954,23.912,16.828c4.135,4.729,10.557,1.417,12.535-3.31
			c0.868-2.074,5.63-2.238,7.69-2.238c3.705-0.001,8.274,1.22,10.774,3.548c3.255,3.03,9.67,3.051,11.779-1.519
			c0.199-0.432,1.111-1.615-0.007-0.284c0.273-0.301,0.565-0.582,0.875-0.846c-0.661,0.499-0.62,0.492,0.121-0.02
			c1.698-1.12,2.57-1.39,4.18-1.952c4.168-1.458,8.594-2.268,12.98-2.684c4.215-0.399,9.505-0.48,13.145,0.077
			c0.858,0.131,1.706,0.322,2.551,0.519c0.28,0.064,3.063,0.988,1.852,0.47c0.613,0.263,1.183,0.607,1.746,0.961
			c-0.415-0.26-0.678-0.739-0.395-0.241c2.532,4.46,10.675,5.318,12.951,0c0.89-2.078,0.815-1.71,1.977-2.847
			c1.259-1.233,2.734-2.064,4.768-3.181c4.147-2.279,8.778-3.601,13.382-4.604c3.774-0.822,9.356-1.158,12.075-0.705
			c2.256,0.375,2.539,0.532,3.775,1.264c-1.424-0.843,1.032,1.505,0.021-0.005c0.4,0.75,0.406,0.736,0.019-0.041
			c0.129,0.435,0.221,0.877,0.275,1.327c1.003,6.05,8.703,6.577,12.536,3.31c6.712-5.723,19.258-17.981,28.917-12.953
			c3.992,2.078,7.208,5.006,11.785,5.882c5.166,0.988,10.047,0.706,15.165-0.469c11.206-2.574,21.399-9.618,29.958-17.013
			c8.287-7.161,15.581-16.29,19.104-26.757c1.601-4.758-2.59-9.371-7.232-9.494c-20.295-0.536-38.687,15.213-55.418,24.68
			c-9.392,5.313-19.026,8.024-29.563,10.219c-12.685,2.643-26.233,4.029-39.025,1.369c1.103,4.179,2.206,8.357,3.31,12.536
			c9.405-7.456,21.729-11.698,33.011-15.292c11.827-3.768,24.252-6.832,36.686-7.512c0-5,0-10,0-15
			c-8.103,0.542-16.194-1.321-24.288-0.238c-10.3,1.378-17.509,7.831-17.212,18.738c0.097,3.539,2.26,6.077,5.506,7.232
			c9.67,3.438,18.974-0.946,27.779-4.757c3.755-1.624,4.567-7.057,2.69-10.261c-2.249-3.84-6.509-4.314-10.261-2.691
			c-5.096,2.205-10.652,5.225-16.221,3.244c1.835,2.411,3.671,4.821,5.506,7.232c-0.034-1.243-0.008-1.966,0.302-3.013
			c-0.237,0.803,0.108,0.103,0.69-0.233c1.039-0.598,4.036-0.806,6.178-0.854c6.451-0.143,12.879,1.031,19.33,0.6
			c9.58-0.641,9.693-15.53,0-15c-14.288,0.781-28.47,4.16-42.063,8.49c-13.501,4.301-27.064,9.847-38.241,18.706
			c-4.371,3.466-1.862,11.46,3.31,12.536c13.336,2.772,26.664,1.987,40.034-0.095c11.72-1.825,23.389-4.622,34.091-9.814
			c9.852-4.781,18.941-11.053,28.396-16.547c7.643-4.441,16.352-9.517,25.474-9.276c-2.411-3.165-4.821-6.329-7.232-9.494
			c-2.98,8.86-10.321,16.047-17.315,21.898c-6.931,5.797-16.347,11.599-25.619,12.029c-3.506,0.163-5.494-0.987-8.521-2.987
			c-4.654-3.077-9.65-4.729-15.253-4.757c-13.034-0.064-25.054,10.569-34.363,18.507c4.179,1.104,8.357,2.207,12.536,3.31
			c-2.393-14.437-20.56-14.488-31.588-12.869c-10.894,1.599-27.354,6.943-32.12,18.078c4.317,0,8.634,0,12.951,0
			c-5.817-10.242-21.747-10.033-31.851-9.215c-9.749,0.79-26.361,2.945-31.101,13.215c3.926-0.506,7.853-1.012,11.779-1.519
			c-12.167-11.326-36.458-11.601-43.535,5.31c4.178-1.103,8.357-2.206,12.535-3.31c-10.789-12.339-23.766-30.021-42.088-19.172
			c-7.723,4.572-2.292,15.084,5.779,13.708c9.85-1.681,16.98-10.924,11.655-20.476c-5.311-9.527-15.569-7.385-24.407-6.416
			c-8.111,0.889-16.197-0.748-24.361,0.427c-9.092,1.309-15.717,8.291-17.113,17.238c4.569-0.597,9.139-1.194,13.708-1.791
			c-5.331-7.277-11.675-13.731-17-21c-2.823,3.672-5.646,7.345-8.47,11.018c5.417,2.221,10.685,4.76,16.321,6.402
			c6.569,1.914,12.538,0.466,19.105-0.089c5.872-0.496,12.246-0.154,17.974,1.223c6.818,1.639,13.285,5.079,19.942,7.311
			c24.882,8.339,50.194,5.707,75.868,4.085c13.673-0.864,27.593-2.099,40.577-6.739c12.729-4.549,23.948-12.674,35.447-19.588
			c10.807-6.497,22.29-12.349,35.231-11.498c5.757,0.378,11.333,2.055,17.153,2.161c7.298,0.132,13.443-2.591,20.176-4.883
			c5.931-2.019,11.414-4.699,17.75-5.051c8.063-0.447,15.334,2.564,23.443,0.666c5.558-1.301,7.183-8.663,3.31-12.535
			c-5.274-5.273-10.667-10.457-16.524-15.083c-7.199-5.687-14.737-10.138-22.999-3.514c-3.24,2.598-4.618,7.352-6.4,10.926
			c-2.047,4.104-5.85,6.036-10.421,6.445c-10.978,0.984-21.121-7.976-27.655-15.774c-4.462-5.324-12.581-0.704-12.804,5.303
			c-0.188,5.086-3.725,7.964-7.771,10.495c-5.3,3.314-11.094,5.967-16.558,9.014c-3.446,1.922-7.685,4.297-11.292,4.445
			c-3.614,0.149-6.529-5.135-8.403-8.738c-4.317,2.523-8.634,5.047-12.951,7.57c1.155,2.081,1.062,1.747,1.623,4.245
			c0.282,1.258,0.014-0.972,0.03,1.114c0.018,2.144,0.159-0.255-0.101,0.937c-0.089,0.412-1.017,2.689-0.229,0.96
			c-0.331,0.728-0.762,1.405-1.198,2.072c-0.606,0.924,0.538-0.541-0.798,0.909c-0.597,0.647-1.259,1.233-1.922,1.811
			c-1.036,0.901-6.551,3.994-8.433,4.755c-4.288,1.735-8.787,2.937-13.305,3.896c-8.498,1.802-17.624,2.337-26.747,1.491
			c-1.597-0.148-2.291-0.254-4.686-0.759c-1.723-0.362-3.413-0.863-5.066-1.466c-1.252-0.457,0.989,0.518-0.864-0.428
			c-0.627-0.32-1.219-0.701-1.8-1.096c1.712,1.164,0.093,0.005-0.285-0.385c-0.443-0.457,0.613,1.204-0.269-0.628
			c-1.441-2.996-5.428-4.284-8.47-3.447c-4.282,1.178-5.856,5.188-5.238,9.226c0.446,2.914-0.075,5.279-0.955,6.228
			c-0.985,1.063-3.967,1.969-6.421,2.225c-7.838,0.819-15.933-0.401-23.746-1.061c-8.335-0.703-16.998-2.211-23.977-7.078
			c-6.282-4.382-7.822-13.198-8.17-20.308c-0.306-6.262-8.09-10.285-12.803-5.303c-3.202,3.384-5.414,8.089-8.06,11.306
			c-0.825,1.003-6.247-1.02-8.326-2.43c-1.581-1.072-5.25-4.39-8.613-4.916c-6.07-0.949-11.417,1.793-16.482,4.867
			C89.636,170.716,97.169,183.691,105.462,178.659L105.462,178.659z"/>
	</g>
</g>
<g opacity="0.3">
	<g>
		<path fill="#040303" d="M181.374,203.487c4.595,4.266,9.866,6.815,16.23,6.659c4.772-0.117,9.57-2.604,13.964-2.775
			c0.968-0.037,2.022,1.526,3.324,2.288c3.097,1.814,7.333,0.926,10.63,0.196c6.928-1.532,11.267-7.305,13.387-13.678
			c3.062-9.205-11.427-13.119-14.464-3.988c-1.003,3.017-2.751,3.419-5.768,3.494c1.768,0.732,3.536,1.465,5.303,2.196
			c-5.121-5.184-11.287-6.198-18.213-4.741c-5.096,1.072-9.444,3.774-13.787-0.259C184.903,186.309,174.271,196.892,181.374,203.487
			L181.374,203.487z"/>
	</g>
</g>
<g opacity="0.3">
	<g>
		<path fill="#040303" d="M222.177,191.183c0.216,7.634,3.262,16.6,11.983,17.834c7.708,1.091,14.736-2.981,19.82-8.53
			c5.446-5.945-0.088-13.571-7.297-12.536c-2.848,0.409-6.143-1.075-9.006-1.268c1.768,4.268,3.536,8.535,5.303,12.804
			c2.386-2.894,0.578-0.135-1.463-1.203c1.167,0.611,2.231,1.486,3.317,2.227c3.042,2.071,6.597,3.235,10.274,3.133
			c8.453-0.237,16.351-3.688,24.563-5.228c-1.927-0.252-3.854-0.504-5.779-0.757c15.461,6.786,33.447-4.433,37.018-20.482
			c1.756-7.895-10.139-13.903-13.708-5.779c-3.074,6.995-6.802,13.62-11,20c-3.486,5.296,2.31,13.281,8.47,11.018
			c6.721-2.471,12.482-6.468,18.791-9.757c-3.672-1.493-7.345-2.987-11.018-4.481c0.54,2.844,2.144,5.105,3.929,7.31
			c2.092,2.581,6.41,2.742,9.089,1.172c3.143-1.841,3.981-5.092,3.447-8.47c-0.627-3.958,0.244-8.139,1-12.012
			c-4.179,1.104-8.357,2.207-12.536,3.31c1.955,1.911,4.624,3.752,4.804,6.696c0.369,6.045,8.174,10.56,12.804,5.304
			c6.207-7.05,13.572-12.809,21.481-17.828c-3.762-2.159-7.523-4.317-11.285-6.476c-0.114,3.085-0.825,6.062-1.732,9.006
			c4.911,0.665,9.821,1.329,14.732,1.994c0.322-3.042,0.539-4.948-1.024-7.785c-2.688-4.878-10.264-4.875-12.951,0
			c-2.333,4.229-5.668,7.77-8,12c4.569,0.597,9.139,1.194,13.708,1.791c-0.71-2.673-1.632-5.229-1.732-8.006c-5,0-10,0-15,0
			c0.163,3.351,0.881,6.643,1,10c0.139,3.916,3.309,7.724,7.5,7.5c9.536-0.508,17.02-5.447,24.304-11.196
			c-4.269-1.769-8.536-3.536-12.804-5.304c0,1,0,2,0,3c0,9.713,14.58,9.62,15,0c0.181-4.152,1.931-7.67,3.976-11.215
			c-4.569-0.597-9.139-1.194-13.708-1.792c3.769,11.579,13.97,15.991,23.536,7.31c-2.433,0.643-4.865,1.286-7.298,1.929
			c-4.654-1.939,1.839,1.516,3,2c3.082,1.284,6.897-0.837,8.47-3.447c3.46-5.739,10.696-4.308,16.524-4.285
			c9.675,0.039,9.671-14.961,0-15c-11.876-0.047-22.721,0.506-29.476,11.715c2.823-1.149,5.646-2.298,8.47-3.447
			c4.654,1.939-1.839-1.516-3-2c-2.469-1.029-5.486,0.285-7.298,1.929c-1.25,0.826-0.879,1.065,1.112,0.717
			c1.889,0.268,1.307,1.306,0.424-1.408c-1.965-6.035-10.343-7.625-13.708-1.792c-3.404,5.899-5.726,11.93-6.024,18.785
			c5,0,10,0,15,0c0-1,0-2,0-3c0-7.119-7.923-9.156-12.804-5.303c-3.901,3.08-8.564,6.53-13.696,6.803c2.5,2.5,5,5,7.5,7.5
			c-0.119-3.357-0.837-6.649-1-10c-0.469-9.615-15.353-9.695-15,0c0.152,4.181,1.203,7.983,2.268,11.994
			c1.643,6.188,10.562,7.498,13.708,1.791c2.333-4.229,5.668-7.77,8-12c-4.317,0-8.634,0-12.951,0
			c0.141,0.256,0.281,0.511,0.422,0.766c-0.342-1.262-0.683-2.523-1.024-3.785c0.07-1.295-0.45,3.505-0.422,3.234
			c-0.923,8.718,12.341,9.755,14.732,1.994c1.292-4.194,2.104-8.604,2.268-12.994c0.207-5.591-6.562-9.474-11.285-6.476
			c-8.923,5.662-17.513,12.218-24.519,20.172c4.269,1.769,8.536,3.536,12.804,5.304c-0.457-7.485-4.016-12.238-9.196-17.303
			c-3.786-3.701-11.423-2.399-12.536,3.31c-1.314,6.74-2.08,13.167-1,19.988c4.179-2.433,8.357-4.865,12.536-7.298
			c0.212,0.501,0.188,0.271-0.071-0.69c-0.946-4.987-7.027-6.562-11.018-4.481c-5.085,2.649-9.809,6.259-15.209,8.243
			c2.823,3.673,5.646,7.346,8.47,11.018c4.198-6.379,7.927-13.005,11-20c-4.569-1.926-9.139-3.853-13.708-5.779
			c-1.271,5.716-5.619,10.05-11.235,11.62c-2.881,0.805-4.725-1.126-7.532-1.126c-3.63,0-7.567,1.583-11.021,2.54
			c-3.3,0.916-6.673,1.893-10.082,2.306c-2.896,0.35-4.347-1.109-6.689-2.701c-6.08-4.133-13.008-2.407-17.511,3.052
			c-4.221,5.117-1.529,12.346,5.303,12.804c4.565,0.306,8.258,1.412,12.994,0.732c-2.432-4.179-4.865-8.357-7.297-12.536
			c-1.969,2.149-3.96,3.846-6.744,4.514c0.252-0.124,0.5-0.107,0.744,0.05c-1.277-0.181-0.218-0.255,0.638,0.854
			c-0.885-1.146-0.796-2.743-0.834-4.113C236.904,181.531,221.903,181.504,222.177,191.183L222.177,191.183z"/>
	</g>
</g>
<g opacity="0.3">
	<g>
		<path fill="#040303" d="M457.106,153.135c10.177,6.106,22.172,9.982,33.881,11.703c15.057,2.212,30.312,1.355,42.296-9.048
			c6.179-5.363,5.475-15.739,0-21.213c-6.083-6.083-15.045-5.355-21.213,0c3.943-3.424-4.293,1.853,0.429-0.1
			c-1.018,0.421-2.088,0.704-3.147,0.992c-0.724,0.196-4.497,0.769-0.565,0.27c-2.443,0.311-4.923,0.297-7.379,0.223
			c-1.284-0.039-2.565-0.159-3.844-0.277c-4.313-0.396,3.111,0.528-1.197-0.179c-5.101-0.836-10.104-2.252-14.983-3.943
			c-1.138-0.394-2.26-0.833-3.381-1.274c3.518,1.381,0.075,0.007-0.554-0.282c-1.787-0.823-3.515-1.764-5.201-2.775
			c-7.015-4.209-16.429-1.607-20.522,5.381C447.557,139.727,450.107,148.936,457.106,153.135L457.106,153.135z"/>
	</g>
</g>
<g opacity="0.3">
	<g>
		<path fill="#040303" d="M462.664,178.647c4.298-1.694,8.616-3.251,13.094-4.4c0.979-0.238,1.963-0.446,2.954-0.624
			c-1.587,0.169-1.489,0.172,0.293,0.007c0.927-0.061,1.855-0.082,2.784-0.063c4.35-0.005-2.803-0.708,1.509,0.087
			c0.552,0.102,5.5,1.709,3.377,0.799c2.015,1.07,1.925,0.881-0.269-0.567c-1.442-2.004-1.786-2.337-1.032-0.998
			c-3.146-6.092,1.561,3.671,1.196,2.901c0.943,1.998,2.371,3.84,3.934,5.377c3.862,3.798,9.499,5.636,14.849,5.252
			c7.295-0.521,12.198-3.68,16.548-9.389c3.519-4.617,4.763-10.374,7.729-15.274c-9.139-1.194-18.277-2.389-27.416-3.583
			c0.54,2.522,0.461,6.707,0.467,10.52c0.008,5.208,0.551,10.365,1.533,15.48c2.696,14.046,26.828,14.7,28.928,0c1-7,2-14,3-21
			c1.155-8.088-1.854-16.081-10.477-18.452c-7.118-1.958-17.293,2.368-18.451,10.477c-1,7-2,14-3,21c9.643,0,19.285,0,28.928,0
			c-1.532-7.979-0.165-17.433-2-26c-2.812-13.133-21.021-14.149-27.416-3.583c-2.627,4.341-3.985,9.35-6.618,13.717
			c-0.947,1.392-0.724,1.108,0.672-0.852c1.862-1.822,4.006-2.815,6.432-2.978c3.903,0.276,6.883,2.09,8.939,5.44
			c-0.727-1.326-0.545-0.797,0.545,1.584c-1.803-4.355-3.126-7.17-6.074-10.852c-5.43-6.779-17.762-8.755-25.831-9.105
			c-9.276-0.402-18.607,2.803-27.1,6.152c-7.6,2.997-12.821,9.929-10.477,18.452C446.206,175.418,455.047,181.651,462.664,178.647
			L462.664,178.647z"/>
	</g>
</g>
<g opacity="0.3">
	<g>
		<path fill="#040303" d="M46.677,163.183c-0.009-6.696-0.279-13.625-2.536-19.988c-2.255-6.357-7.423-11.012-14.464-11.012
			c-6.284,0-13.201,4.532-14.464,11.012c-3.932,20.168,1.456,42.577,15.858,57.594c8.096,8.442,21.741,3.838,25.071-6.619
			c1.739-5.462,2.527-10.945,3.25-16.624c0.215-1.688,0.165-1.306-0.151,1.144c0.13-0.887,0.321-1.758,0.527-2.63
			c0.246-1.041,1.512-3.61-0.255,0.192c0.433-0.931,1.027-1.777,1.606-2.619c-1.155,1.505-1.14,1.576,0.043,0.213
			c0.988-1.072,2.101-2.037,3.157-3.04c3.226-3.059-2.102,1.345,1.683-1.274c1.269-0.878,2.598-1.672,3.914-2.477
			c5.329-3.258,10.462-6.362,15.368-10.268c6.407-5.101,5.291-15.923,0-21.213c-6.267-6.267-14.823-5.088-21.213,0
			c2.554-2.034-1.228,0.715-1.469,0.873c-1.255,0.818-2.553,1.572-3.839,2.338c-2.657,1.582-5.317,3.144-7.901,4.843
			c-6.234,4.098-11.138,8.988-15.646,14.862c-2.844,3.707-4.366,8.563-5.037,13.141c-0.288,1.964-0.536,3.942-0.786,5.914
			c-0.458,3.611,0.556-3.59-0.086,0.354c-0.46,2.823-1.226,5.573-2.093,8.295c8.357-2.207,16.714-4.413,25.071-6.619
			c-0.269-0.28-2.994-3.518-1.065-0.973c-1.109-1.463-2.035-3.058-2.938-4.652c-0.7-1.235-1.286-2.531-1.874-3.821
			c1.145,2.515-0.784-2.705-0.943-3.232c-0.422-1.399-0.736-2.828-1.05-4.254c-0.196-0.951-0.368-1.906-0.516-2.866
			c0.22,1.595,0.236,1.492,0.049-0.309c-0.162-1.872-0.144-3.751-0.093-5.627c0.038-0.911,0.105-1.82,0.201-2.728
			c-0.249,1.771-0.22,1.789,0.086,0.056c-9.643,0-19.286,0-28.929,0c1.622,4.573,1.457,6.388,1.464,12.012
			C16.702,182.528,46.702,182.531,46.677,163.183L46.677,163.183z"/>
	</g>
</g>
<g opacity="0.3">
	<g>
		<path fill="#040303" d="M37.106,184.135c2.727,1.767,5.624,3.232,8.426,4.872c0.553,0.329,1.098,0.67,1.635,1.024
			c2.853,1.832-2.548-2.22,0.042,0.005c0.491,0.439,0.96,0.902,1.406,1.389c2.384,2.474-1.768-2.75,0.11,0.328
			c4.25,6.968,13.37,9.572,20.523,5.382c6.95-4.071,9.642-13.538,5.381-20.523c-3.214-5.269-7.259-9.032-12.32-12.485
			c-3.211-2.191-6.798-3.783-10.062-5.896c-6.87-4.45-16.535-1.427-20.523,5.381C27.449,170.911,30.257,179.699,37.106,184.135
			L37.106,184.135z"/>
	</g>
</g>
<g opacity="0.1">
	<g>
		<path fill="#040303" d="M41.689,192.647c9.324,2.545,20.267,9.641,27.64,15.691c10.322,8.47,20.04,17.578,30.633,25.729
			c22.525,17.334,50.223,28.478,77.384,36.152c15.189,4.292,30.671,6.933,46.476,7.202c16.174,0.276,32.066-2.432,47.978-4.949
			c30.003-4.747,60.552-6.925,88.23-20.497c11.229-5.507,21.605-12.67,31.695-20.008c10.617-7.722,21.243-15.335,32.022-22.833
			c11.024-7.668,21.831-15.958,34.093-21.556c9.879-4.51,24.205-8.953,35.407-14.444c7.339-3.597,9.283-13.862,5.382-20.523
			c-4.354-7.432-13.181-8.98-20.522-5.381c-12.262,6.01-26.901,10.146-40.04,16.646c-13.806,6.83-26.248,17.186-38.91,25.9
			c-11.856,8.158-23.163,17.08-35.135,25.077c-11.835,7.905-22.994,14.007-35.739,17.466c-14.584,3.958-29.51,6.222-44.451,8.33
			c-14.723,2.077-29.334,4.938-43.331,6.155c-15.146,1.318-29.875,0.716-44.018-2.627c-13.683-3.234-27.094-7.518-40.139-12.757
			c-3.541-1.422-9.24-4.073-13.781-6.336c-5.058-2.521-9.98-5.303-14.793-8.262c-9.958-6.121-14.711-10.167-23.457-17.804
			c-16.454-14.367-33.06-29.41-54.648-35.301c-7.884-2.151-16.281,2.586-18.452,10.477
			C29.048,182.063,33.806,190.496,41.689,192.647L41.689,192.647z"/>
	</g>
</g>
<g opacity="0.1">
	<g>
		<path fill="#040303" d="M72.283,169.79c8.692-10.278,20.675-16.911,29.922-26.618c9.897-10.39,14.742-20.083,25.107-28.905
			c-2.04,1.736,1.907-1.114,1.935-1.131c1.222-0.749,2.535-1.355,3.828-1.968c-2.699,1.279,1.648-0.525,1.832-0.588
			c1.399-0.479,2.832-0.856,4.26-1.236c2.929-0.781,5.926-1.302,8.916-1.782c4.977-0.798-2.885,0.316,2.165-0.274
			c2.078-0.243,4.162-0.432,6.245-0.623c13.88-1.271,27.319-2.751,40.899-5.951c12.718-2.997,28.591-0.277,42.432,1.028
			c15.424,1.455,30.719-0.387,46.153-0.671c30.023-0.553,57.12,5.008,85.758,15.177c44.685,15.867,87.369,41.488,132.954,58.399
			c7.673,2.846,16.425-3.109,18.451-10.477c2.312-8.401-2.817-15.611-10.477-18.452c-53.695-19.919-104.604-52.646-161.54-67.155
			c-15.462-3.94-31.247-6.347-47.181-7.212c-15.377-0.836-30.648,0.3-45.995,1.052c-14.932,0.732-29.748-2.447-44.641-2.902
			c-8.003-0.245-16.061,0.662-23.89,2.284c-3.144,0.651-6.21,1.626-9.355,2.288c-1.454,0.306-2.924,0.54-4.39,0.778
			c-1.815,0.267-1.988,0.295-0.519,0.083c-1.018,0.124-2.037,0.239-3.057,0.346c-25.166,2.746-51.379,2.471-70.373,21.864
			c-9.361,9.558-13.541,17.7-22.95,27.083c-8.743,8.718-19.672,14.853-27.703,24.349c-5.275,6.237-6.139,15.074,0,21.213
			C56.488,175.208,66.999,176.039,72.283,169.79L72.283,169.79z"/>
	</g>
</g>
<g opacity="0.1">
	<g>
		<path fill="#040303" d="M32.212,187.196c-4.203,12.111-3.123,25.426-1.326,37.865c1.728,11.961,4.795,23.668,8.549,35.144
			c3.632,11.107,7.723,22.283,13.608,32.413c5.867,10.097,13.79,18.372,22.988,25.438c9.263,7.117,19.76,12.296,30.449,16.899
			c14.122,6.081,28.575,11.14,43.438,15.081c29.071,7.71,59.468,11.204,89.517,11.133c14.535-0.034,28.967-1.764,43.504-1.356
			c14.958,0.419,30.228,1.389,44.724-3.166c26.198-8.23,52.975-16.813,74.975-33.818c10.236-7.913,16.833-19.225,26.704-27.5
			c10.847-9.093,23.072-17.344,34.798-26.225c23.306-17.649,44.925-38.34,61.354-62.649c5.992-8.866,10.613-18.396,14.646-28.284
			c3.094-7.584-3.298-16.478-10.477-18.452c-8.593-2.363-15.366,2.913-18.451,10.477c0.868-2.129-1.271,2.848-1.125,2.526
			c-0.685,1.504-1.429,2.98-2.171,4.456c-1.479,2.937-3.12,5.788-4.807,8.608c-1.682,2.813-3.506,5.537-5.368,8.231
			c-0.932,1.348-1.903,2.666-2.875,3.984c-1.1,1.456-1.315,1.744-0.645,0.867c-0.677,0.858-1.361,1.711-2.054,2.558
			c-8.652,10.683-18.538,20.326-28.693,29.563c-10.74,9.769-21.891,17.731-33.697,26.408c-11.996,8.816-24.009,17.484-33.513,29.027
			c-3.829,4.651-7.698,9.177-12.26,13.135c-3.308,2.871-10.061,6.762-15.164,9.511c-2.762,1.488-5.596,2.84-8.439,4.16
			c-3.567,1.656-3.742,1.692-6.83,2.937c-6.476,2.608-13.073,4.912-19.699,7.107c-5.727,1.896-11.495,3.754-17.308,5.368
			c-3.925,1.09-4.048,0.992-7.466,1.293c-4,0.351-8.032,0.341-12.043,0.299c-7.065-0.073-14.122-0.497-21.188-0.556
			c-7.528-0.063-15.015,0.773-22.527,1.138c-28.108,1.363-55.152-0.828-81.698-6.438c-26.036-5.502-51.31-13.388-73.45-27.293
			c-2.087-1.31-4.099-2.734-6.073-4.206c2.905,2.165-0.204-0.245-0.652-0.623c-0.888-0.749-1.74-1.54-2.591-2.33
			c-1.685-1.566-3.25-3.256-4.768-4.982c-0.412-0.469-2.821-3.518-0.555-0.559c-0.712-0.931-1.378-1.896-2.043-2.859
			c-2.833-4.104-5.143-8.55-7.223-13.072c-1.853-4.028,1.095,2.795-0.623-1.441c-0.538-1.328-1.035-2.673-1.532-4.017
			c-0.883-2.384-1.723-4.788-2.561-7.188c-3.739-10.708-6.752-21.694-8.817-32.849c-0.271-1.466-0.501-2.938-0.73-4.41
			c0.485,3.124-0.179-1.604-0.204-1.83c-0.306-2.806-0.452-5.624-0.517-8.444c-0.06-2.634,0.083-5.264,0.334-7.884
			c-0.358,3.734,0.1-0.165,0.236-0.833c0.304-1.495,0.766-2.948,1.265-4.388c2.682-7.729-2.984-16.391-10.477-18.452
			C42.391,174.443,34.891,179.478,32.212,187.196L32.212,187.196z"/>
	</g>
</g>
<g opacity="0.1">
	<g>
		<path fill="#040303" d="M37.177,141.183c0.183-12.914,5.26-24.311,11.072-35.599c5.838-11.339,10.438-23.009,15.746-34.566
			c3.833-8.346,8.511-16.199,15.485-22.282c6.625-5.779,15.518-8.333,23.944-10.024c14.592-2.93,29.831-2.32,44.627-2.029
			c15.906,0.313,31.476-0.169,47.282-2.06c31.388-3.755,62.34-11.795,93.877-14.18c11.31-0.855,22.012,0.788,32.452,5.281
			c6.771,2.915,13.326,6.192,20.227,8.828c7.553,2.886,15.299,5.257,22.995,7.72c10.786,3.451,21.979,6.609,31.265,13.307
			c6.651,4.798,12.27,11.51,17.228,17.977c20.696,26.99,39.065,68.823,78.3,70.126c9.678,0.322,9.646-14.679,0-15
			c-17.066-0.567-29.323-13.307-39.247-25.899c-11.77-14.935-21.113-31.61-33.544-46.063c-5.792-6.734-12.497-12.829-20.157-17.372
			c-11.691-6.933-25.88-10.239-38.717-14.38c-7.115-2.295-14.22-4.705-21.085-7.679c-6.702-2.905-13.123-6.251-20.074-8.574
			c-11.646-3.892-23.931-3.992-36.012-2.681c-31.939,3.463-63.271,11.106-95.228,14.455c-30.139,3.159-60.901-2.114-90.72,4.286
			c-19.864,4.263-34.256,16.267-43.599,34.076c-5.731,10.924-9.504,22.708-15.16,33.692c-5.876,11.412-12.013,22.82-14.618,35.507
			c-0.884,4.308-1.277,8.741-1.339,13.132C22.04,150.861,37.04,150.848,37.177,141.183L37.177,141.183z"/>
	</g>
</g>
<g opacity="0.1">
	<g>
		<path fill="#ED1B36" d="M70.057,149.11c4.001-6.031,8.168-11.94,12.568-17.688c-1.954,2.53-3.909,5.06-5.863,7.589
			c9.586-12.378,20.264-23.851,32.667-33.454c-2.53,1.955-5.06,3.909-7.589,5.864c8.797-6.688,18.276-12.278,28.439-16.625
			c-2.986,1.26-5.972,2.52-8.958,3.78c11.588-4.825,23.707-7.907,36.129-9.629c-3.323,0.446-6.646,0.893-9.969,1.339
			c21.878-2.849,43.56-0.508,65.495-0.02c14.628,0.325,29.132-1.063,43.535-3.662c11.606-2.094,22.447-6.883,34.142-8.626
			c-3.322,0.446-6.646,0.893-9.969,1.339c6.212-0.805,12.372-0.908,18.596-0.173c-3.323-0.446-6.646-0.893-9.969-1.339
			c7.428,1.031,14.502,3.201,21.429,6.041c-2.986-1.26-5.973-2.521-8.958-3.78c10.637,4.51,20.439,10.639,30.983,15.318
			c13.64,6.053,27.825,10.512,41.558,16.287c-2.986-1.26-5.972-2.52-8.958-3.78c6.458,2.807,12.577,6.088,18.235,10.299
			c-2.529-1.955-5.06-3.909-7.59-5.864c18.125,14.211,33.202,31.72,49.789,47.571c7.414,7.085,14.896,14.1,22.85,20.583
			c5.941,4.844,12.046,9.608,18.438,13.861c6.439,4.283,13.452,7.098,20.62,10.003c8.81,3.571,21.058,0.812,28.896-3.78
			c8.383-4.91,14.655-13.037,17.233-22.411c2.663-9.679,1.293-20.235-3.78-28.896c-5.376-9.177-12.922-13.387-22.411-17.234
			c-0.377-0.152-0.753-0.305-1.13-0.458c2.986,1.26,5.972,2.521,8.958,3.78c-6.878-3.007-13.046-7.273-18.967-11.845
			c2.529,1.955,5.06,3.909,7.59,5.864c-20.57-16.192-37.663-35.897-56.604-53.82c-11.69-11.062-24.019-22.416-38.448-29.737
			c-14.702-7.459-30.619-11.949-45.785-18.277c2.986,1.26,5.973,2.52,8.958,3.78c-20.846-8.961-39.982-22.635-62.969-25.827
			c-7.14-0.992-13.975-2.036-21.155-1.833c-7.911,0.224-15.881,1.523-23.62,3.116c-11.851,2.439-22.908,6.99-34.988,8.638
			c3.323-0.447,6.646-0.893,9.969-1.34c-24.004,2.947-47.913-0.873-71.948-0.336c-21.497,0.48-43.745,3.674-63.838,11.587
			c-21.375,8.417-39.724,19.765-56.833,35.217c-16.183,14.617-29.536,32.628-41.54,50.724
			c-11.314,17.055-3.423,41.421,13.453,51.307C37.142,173.337,58.78,166.108,70.057,149.11L70.057,149.11z"/>
	</g>
</g>
<g opacity="0.1">
	<g>
		<path fill="#ED1B36" d="M14.516,211.152c11.224,52.093,52.691,94.588,100.466,115.717c25.78,11.402,52.067,18.352,80.361,19.679
			c29.672,1.391,60.32-2.566,89.351-8.28c34.437-6.777,68.134-19.168,98.909-36.014c32.028-17.531,57.929-43.004,86.591-65.179
			c-2.53,1.954-5.06,3.909-7.59,5.863c12.581-9.639,25.742-18.402,40-25.375c18.354-8.977,23.201-34.666,13.453-51.307
			c-4.91-8.383-13.037-14.655-22.411-17.234c-10.275-2.827-19.578-0.776-28.896,3.78c-34.772,17.006-62.091,44.528-92.283,68.067
			c2.53-1.955,5.06-3.909,7.59-5.864c-18.719,14.4-39.231,26.136-60.938,35.408c2.986-1.261,5.973-2.521,8.958-3.781
			c-27.613,11.615-56.705,19.129-86.37,23.128c3.323-0.447,6.646-0.894,9.969-1.34c-23.154,3.014-47.198,4.877-70.447,1.882
			c3.323,0.446,6.646,0.893,9.969,1.339c-15.432-2.112-30.455-6.273-44.835-12.248c2.986,1.261,5.972,2.521,8.958,3.78
			c-13.708-5.816-26.632-13.22-38.436-22.309c2.53,1.954,5.06,3.909,7.589,5.863c-9.472-7.425-18.044-15.835-25.44-25.338
			c1.955,2.53,3.909,5.06,5.864,7.59c-6.176-8.107-11.362-16.827-15.398-26.189c1.26,2.986,2.521,5.972,3.781,8.958
			c-2.775-6.652-4.924-13.487-6.442-20.534c-4.307-19.987-27.276-31.377-46.129-26.192
			C20.184,170.668,10.215,191.188,14.516,211.152L14.516,211.152z"/>
	</g>
</g>
</svg>
