<?xml version="1.0" encoding="utf-8"?>
<!-- Generator: Adobe Illustrator 16.0.0, SVG Export Plug-In . SVG Version: 6.00 Build 0)  -->
<!DOCTYPE svg PUBLIC "-//W3C//DTD SVG 1.1//EN" "http://www.w3.org/Graphics/SVG/1.1/DTD/svg11.dtd">
<svg version="1.1" id="Layer_1" xmlns="http://www.w3.org/2000/svg" xmlns:xlink="http://www.w3.org/1999/xlink" x="0px" y="0px"
	 width="493.123px" height="227.693px" viewBox="0 0 493.123 227.693" enable-background="new 0 0 493.123 227.693"
	 xml:space="preserve">
<path opacity="0.4" fill="none" stroke="#040303" stroke-miterlimit="10" d="M9.35,114.637c2.8-10.389,17.539-16.572,25.722-23
	c7.783-6.113,14.849-12.07,23.255-17c15.292-8.968,30.9-18.857,47.078-26.248c17.326-7.915,35.16-10.069,52.975-15.503
	c17.701-5.399,40.988-23.625,58.525-16.026c17.369,7.526,30.421,17.734,50.445,13.503c20.796-4.394,29.654-15.152,45.174-29.688
	c17.431,15.201,31.563,12.653,51.803,17.688c15.673,3.9,31.826,13.629,46.023,22.33c15.91,9.75,26.082,18.649,37.925,32.674
	c5.545,6.565,12.747,14.14,20.127,18.626c6.153,3.741,15.263,3.539,18.948,10.644"/>
<path opacity="0.4" fill="none" stroke="#040303" stroke-miterlimit="10" d="M4.35,125.637c0.338,10.846-3.603,20.238-0.777,31.025
	c2.572,9.821,8.797,17.12,16.055,23.975c16.91,15.971,30.841,23.537,52.496,31.249c18.627,6.634,42.679,18.4,63.229,14.552
	c10.026-1.878,19.128-6.61,29.248-7.578c9.518-0.91,19.397,0.099,29.023-0.223c20.913-0.697,41.11-4.7,62.777-4
	c20.801,0.672,41.017,3.729,62.096,3c24.061-0.832,48.832-4.9,71.149-13.996c19.542-7.965,43.961-18.324,57.68-34.449
	c12.458-14.642,26.991-41.574,28.023-60.555"/>
<path opacity="0.4" fill="none" stroke="#040303" stroke-miterlimit="10" d="M425.35,97.637c-22.001-16.896-54-16.412-81-13.43
	c-35.689,3.941-64.117,20.572-99.857,17.453c-16.293-1.422-30.739-3.975-46.149-8.048c-32.617-8.622-67.008-14.068-98.245,2.725
	c-21.781,11.709-38.071,25.3-64.749,25.3"/>
<path opacity="0.4" fill="none" stroke="#040303" stroke-miterlimit="10" d="M149.35,81.637c16.306-9.706,44.631-2.469,61.394,0.726
	c21.387,4.076,43.109,6.292,64.806,2.493c22.429-3.927,43.811-9.187,67-9.219c19.775-0.027,42.288,4.668,61.801,8"/>
<g>
	<g>
		<path fill="#040303" d="M161.35,86.137c36.982,0.267,71.604,16.988,108.846,14.896c18.464-1.037,36.038-7.274,53.476-12.918
			c9.335-3.021,18.629-4.372,28.435-4.266c9.428,0.102,18.811,1.228,28.244,1.288c3.259,0.021,3.177-4.763,0-5
			c-22.024-1.643-43.984-0.017-65.962,1.538c-22.216,1.572-44.385,2.064-66.624,0.576c-18.889-1.264-37.649-3.518-56.392-6.078
			c-13.904-1.898-30.571-4.202-43.284,3.305c-1.724,1.018-1.627,4.193,0.597,4.569c35.838,6.068,72.298,6.064,108.316,10.479
			c14.127,1.731,28.458,2.994,42.677,1.722c11.331-1.014,23.606-4.001,31.439-12.844c1.16-1.309,0.856-3.776-1.103-4.178
			c-20.873-4.288-37.672,9.046-57.619,11.662c-23.498,3.081-46.501-8.517-70.046-7.751c0,1.667,0,3.333,0,5
			c8.509-0.542,15.75,4.953,23.844,6.691c8.768,1.882,17.704-1.611,26.491,0.22c2.682,0.559,4.522-3.155,1.927-4.569
			c-7.843-4.275-16.099-6.148-24.926-4.252c-1.528,0.328-2.36,2.371-1.494,3.672c7.65,11.494,21,6.044,30.42-0.103
			c1.494-0.975,1.745-3.402,0-4.317c-8.93-4.685-15.523,0.323-14.762,10.159c0.108,1.392,1.057,2.455,2.5,2.5
			c24.699,0.774,47.528-11.662,72-13c-0.421-1.553-0.841-3.106-1.262-4.659c-6.265,2.946-13.067,4.309-19,8
			c-2.424,1.508-0.847,5.246,1.927,4.569c8.955-2.184,17.044-6.816,26-9c3.147-0.768,1.805-5.482-1.33-4.821
			c-11.172,2.355-21.929,6.692-33.335,7.911c-3.172,0.339-3.204,5.342,0,5c11.884-1.27,23.029-5.636,34.665-8.089
			c-0.443-1.607-0.887-3.214-1.33-4.821c-8.955,2.184-17.044,6.816-26,9c0.643,1.523,1.285,3.046,1.927,4.569
			c5.9-3.672,12.753-5.062,19-8c2.255-1.061,1.151-4.791-1.262-4.659c-24.464,1.338-47.372,13.772-72,13
			c0.833,0.833,1.667,1.667,2.5,2.5c-0.439-5.675,1.531-8.836,7.238-5.841c0-1.439,0-2.878,0-4.317
			c-6.666,4.349-17.741,10.67-23.58,1.897c-0.498,1.224-0.996,2.448-1.494,3.672c7.493-1.609,14.447,0.136,21.074,3.748
			c0.642-1.523,1.284-3.046,1.927-4.569c-9.322-1.942-18.703,1.452-27.966-0.537c-8.207-1.762-14.964-7.109-23.699-6.553
			c-3.19,0.203-3.243,5.105,0,5c23.197-0.754,45.274,9.412,68.529,7.9c20.022-1.301,37.157-16.232,57.806-11.99
			c-0.367-1.393-0.735-2.786-1.103-4.178c-8.13,9.178-21.342,11.108-32.948,11.74c-13.363,0.728-26.816-0.733-40.06-2.383
			c-34.764-4.331-69.954-4.141-104.56-10c0.199,1.523,0.398,3.046,0.597,4.569c13.302-7.855,31.953-3.922,46.324-1.822
			c18.132,2.651,36.472,4.39,54.759,5.532c21.538,1.344,43.04,0.56,64.541-0.961c21.363-1.512,42.707-3.004,64.114-1.407
			c0-1.667,0-3.333,0-5c-17.849-0.114-35.223-3.025-52.804,1.556c-18.674,4.866-36.068,12.464-55.521,14.207
			c-37.746,3.382-73.165-14.492-110.676-14.763C158.125,81.113,158.126,86.113,161.35,86.137L161.35,86.137z"/>
	</g>
</g>
<g opacity="0.3">
	<g>
		<path fill="#040303" d="M69.135,113.113c25.984-13.544,53.277-24.383,82.191-29.675c30.401-5.564,60.351-0.938,90.774,1.649
			c15.83,1.347,31.647,1.693,47.461-0.013c15.183-1.637,30.185-4.634,45.487-5.028c29.698-0.766,58.349,8.184,85.793,18.602
			c6.193,2.351,12.352,4.792,18.514,7.22c3.81,1.501,8.229-1.613,9.227-5.238c1.172-4.26-1.438-7.729-5.238-9.226
			c-27.573-10.864-55.057-21.305-84.636-25.045c-15.178-1.919-30.227-1.417-45.362,0.539c-15.571,2.011-30.912,4.415-46.66,4.393
			c-31.118-0.044-61.87-7.135-93.02-5.479c-29.473,1.566-57.885,9.925-84.92,21.388c-9.245,3.919-18.28,8.321-27.181,12.961
			C52.984,104.633,60.569,117.578,69.135,113.113L69.135,113.113z"/>
	</g>
</g>
<g opacity="0.1">
	<g>
		<path fill="#040303" d="M0.118,125.631c6.853,48.135,47.819,84.75,93.368,96.753c28.702,7.564,60.06,4.689,89.245,2.073
			c16.28-1.46,32.522-3.313,48.81-4.704c15.731-1.343,31.255-1.241,47.003-0.252c11.598,0.729,23.18,1.59,34.807,1.636
			c11.57,0.045,23.089-2.026,34.379-4.361c19.758-4.087,40.634-6.204,59.251-14.378c18.635-8.182,31.883-23.002,42.327-40.125
			c10.913-17.894,18.265-37.742,30.52-54.851c5.645-7.881-7.374-15.359-12.952-7.57c-16.051,22.408-24.312,49.276-41.855,70.739
			c-17.051,20.859-42.532,23.791-67.265,28.759c-14.756,2.963-29.262,6.646-44.404,6.787c-15.268,0.142-30.515-1.53-45.752-2.246
			c-32.275-1.517-64.473,4.058-96.582,6.549c-20.072,1.559-41.068,2.883-61.081,0.014c-15.773-2.263-30.846-7.86-44.537-15.941
			c-26.637-15.724-46.415-41.949-50.816-72.869c-0.577-4.055-5.668-6.217-9.226-5.238C1.043,117.591-0.458,121.586,0.118,125.631
			L0.118,125.631z"/>
	</g>
</g>
<g opacity="0.1">
	<g>
		<path fill="#040303" d="M16.653,127.94c17.428-20.701,42.689-30.464,66.141-42.538c26.457-13.62,51.148-30.453,78.145-43.027
			c12.376-5.764,25.712-10.662,39.419-11.705c13.386-1.019,26.07,4.156,39.031,6.686c11.936,2.33,23.683,2.365,35.52-0.562
			c13.548-3.35,24.989-11.396,38.06-15.801c7.576-2.554,14.59-1.285,22.053,1.013c8.92,2.746,17.93,5.189,26.855,7.918
			c16.223,4.961,32.545,11.245,47.202,19.864c6.854,4.03,13.042,8.881,18.636,14.524c5.637,5.687,9.506,12.542,13.929,19.146
			c4.87,7.271,10.616,12.751,17.832,17.652c6.838,4.645,14.282,8.412,20.57,13.83c7.288,6.279,17.947-4.282,10.607-10.606
			c-10.451-9.003-24.407-14.107-33.354-24.722c-4.054-4.811-7.009-10.585-10.577-15.752c-4.042-5.853-8.945-11.017-14.295-15.681
			c-21.377-18.638-50.431-28.103-77.19-35.874c-13.954-4.052-27.528-9.639-42.248-6.844c-13.209,2.508-24.755,11.335-37.453,15.533
			c-11.088,3.665-22.158,3.852-33.545,1.629c-13.397-2.615-26.143-7.433-39.976-7.038c-18.59,0.53-36.432,7.963-52.958,15.876
			c-17.87,8.557-34.579,19.177-51.713,29.069c-16.09,9.29-32.936,17.057-49.447,25.537c-15.605,8.016-30.464,17.742-41.851,31.266
			C-0.14,124.682,10.415,135.35,16.653,127.94L16.653,127.94z"/>
	</g>
</g>
<g opacity="0.1">
	<g>
		<path fill="#040303" d="M17.35,131.137c13.6,1.053,27.239,2.361,40.878,1.252c14.209-1.156,27.443-5.414,40.361-11.281
			c13.194-5.992,25.746-13.375,39.667-17.639c13.047-3.996,27.275-3.461,40.628-1.436c27.873,4.229,54.474,14.74,82.869,15.798
			c28.667,1.068,55.233-12.237,82.465-19.13c9.314-2.357,18.724-3.783,28.337-3.915c10.316-0.141,19.771,2.157,29.394,5.717
			c9.775,3.616,18.907,8.292,29.314,9.849c10.012,1.499,20.299,0.715,30.094,3.516c9.32,2.665,13.271-11.81,3.988-14.464
			c-13.965-3.993-28.979-1.318-42.631-6.635c-14.249-5.549-27.687-11.589-43.139-12.768c-28.872-2.203-56.188,9.669-83.298,17.608
			c-13.703,4.013-26.863,5.955-41.146,4.837c-13.854-1.083-27.466-4.726-40.907-8.065c-27.155-6.745-55.74-13.316-83.195-4.353
			c-19.404,6.335-36.406,18.338-56.012,24.14c-18.813,5.567-38.427,3.456-57.666,1.967C7.698,115.39,7.771,130.396,17.35,131.137
			L17.35,131.137z"/>
	</g>
</g>
<g opacity="0.1">
	<g>
		<path fill="#040303" d="M188.685,96.226c-14.946,4.002-22.294,21.022-29.494,33.149c-1.65,2.779,2.673,5.293,4.317,2.523
			c6.441-10.848,13.131-27.27,26.506-30.851C193.126,100.214,191.804,95.391,188.685,96.226L188.685,96.226z"/>
	</g>
</g>
<g opacity="0.1">
	<g>
		<path fill="#040303" d="M251.938,96.972c-3.181,19.1-10.936,36.822-18.748,54.403c-1.297,2.919,3.01,5.465,4.317,2.523
			c7.981-17.962,16-36.079,19.252-55.597C257.285,95.148,252.468,93.797,251.938,96.972L251.938,96.972z"/>
	</g>
</g>
<g opacity="0.1">
	<g>
		<path fill="#040303" d="M295.088,104.795c11.025,8.433,15.212,23.132,21.104,35.103c1.424,2.893,5.735,0.358,4.316-2.523
			c-6.405-13.016-10.932-27.746-22.896-36.897C295.049,98.519,292.563,102.865,295.088,104.795L295.088,104.795z"/>
	</g>
</g>
<g opacity="0.1">
	<g>
		<path fill="#040303" d="M356.088,93.795c5.634,2.911,10.049,7.166,14.494,11.609c2.282,2.281,5.817-1.254,3.535-3.535
			c-4.731-4.729-9.511-9.293-15.506-12.391C355.752,88,353.223,92.315,356.088,93.795L356.088,93.795z"/>
	</g>
</g>
<g opacity="0.1">
	<g>
		<path fill="#040303" d="M340.015,67.047c9.12-3.837,11.833-13.163,10.835-22.411c-0.342-3.17-5.346-3.204-5,0
			c0.712,6.593-0.23,14.672-7.165,17.589C335.76,63.457,337.043,68.297,340.015,67.047L340.015,67.047z"/>
	</g>
</g>
<g opacity="0.1">
	<g>
		<path fill="#040303" d="M297.508,69.375c-1.763-2.726-2.609-5.488-2.658-8.738c-0.048-3.221-5.048-3.226-5,0
			c0.061,4.09,1.115,7.821,3.342,11.262C294.935,74.595,299.266,72.091,297.508,69.375L297.508,69.375z"/>
	</g>
</g>
<g opacity="0.1">
	<g>
		<path fill="#040303" d="M247.117,75.869c-5.138-6.224-9.861-12.776-15-19c-2.054-2.489-5.571,1.069-3.535,3.535
			c5.138,6.224,9.861,12.776,15,19C245.637,81.893,249.153,78.335,247.117,75.869L247.117,75.869z"/>
	</g>
</g>
<g opacity="0.1">
	<g>
		<path fill="#040303" d="M195.014,69.226c-13.252-3.153-26.01-7.958-39-12c-3.087-0.961-4.397,3.867-1.329,4.821
			c12.99,4.042,25.748,8.847,39,12C196.82,74.793,198.15,69.972,195.014,69.226L195.014,69.226z"/>
	</g>
</g>
<g opacity="0.1">
	<g>
		<path fill="#D22026" d="M57.381,172.797c56.992,16.391,116.323,29.185,175.818,30.438c30.264,0.638,60.425-5.308,90.119-10.438
			c13.137-2.27,26.351-4.07,39.481-6.37c6.597-1.155,13.117-2.664,19.519-4.63c8.787-2.697,16.882-7.708,25.286-11.38
			c-2.986,1.26-5.973,2.52-8.958,3.78c3.574-1.464,7.145-2.571,10.959-3.201c-3.322,0.446-6.646,0.893-9.969,1.339
			c0.571-0.066,1.142-0.132,1.713-0.198c10.354-1.199,18.864-3.331,26.517-10.983c7.001-7.001,10.983-16.61,10.983-26.517
			s-3.982-19.516-10.983-26.517c-6.339-6.338-17.207-12.062-26.517-10.983c-12.374,1.434-20.305,3.585-31.6,8.52
			c-4.987,2.179-9.781,4.763-14.765,6.953c2.986-1.26,5.973-2.52,8.958-3.78c-14.916,6.176-32.431,6.982-48.24,9.431
			c-17.227,2.667-34.289,6.248-51.572,8.606c3.323-0.446,6.646-0.893,9.969-1.339c-31.645,4.177-62.994,2.464-94.551-1.753
			c3.323,0.446,6.646,0.893,9.969,1.339c-38.001-5.207-75.364-14.043-112.199-24.637c-19.637-5.647-40.758,6.665-46.129,26.192
			C25.723,146.541,37.75,167.151,57.381,172.797L57.381,172.797z"/>
	</g>
</g>
<g opacity="0.1">
	<g>
		<path fill="#D22026" d="M89.866,168.153c2.561-3.215,5.385-6.071,8.614-8.616c-2.53,1.954-5.06,3.909-7.59,5.863
			c3.083-2.288,6.334-4.17,9.846-5.72c-2.986,1.26-5.972,2.521-8.958,3.78c4.695-1.928,9.531-3.148,14.551-3.861
			c-3.323,0.446-6.646,0.893-9.969,1.34c8.727-1.071,17.46-0.609,26.153,0.557c-3.323-0.446-6.646-0.894-9.969-1.34
			c11.95,1.709,23.632,4.701,35.343,7.565c18.763,4.59,37.375,8.303,56.567,10.675c38.302,4.732,76.181-5.549,113.92-10.767
			c-3.323,0.446-6.646,0.893-9.969,1.339c21.393-2.87,42.08-3.219,63.546-1.196c23.398,2.204,46.661,2.147,69.366-4.976
			c19.487-6.113,31.758-25.896,26.191-46.129c-5.273-19.174-26.626-32.31-46.129-26.192c-5.93,1.86-11.922,3.251-18.071,4.154
			c3.323-0.446,6.646-0.893,9.969-1.339c-25.956,3.371-51.813-3.23-77.829-1.982c-32.548,1.561-64.564,8.893-96.763,13.381
			c3.323-0.447,6.646-0.893,9.969-1.34c-15.947,2.032-31.893,1.684-47.813-0.415c3.323,0.446,6.646,0.893,9.969,1.339
			c-26.492-3.704-51.883-12.658-78.328-16.438c-17.941-2.565-34.395-3.479-52.315,0.584c-16.298,3.695-32.898,13.602-43.334,26.701
			c-6.485,8.14-10.983,15.684-10.983,26.517c0,9.906,3.982,19.516,10.983,26.517s16.611,10.983,26.517,10.983
			C72.313,179.137,84.022,175.488,89.866,168.153L89.866,168.153z"/>
	</g>
</g>
<g opacity="0.1">
	<g>
		<path fill="#D22026" d="M81.276,135.017c9.074-6.076,18.636-11.237,28.672-15.539c-2.986,1.26-5.972,2.52-8.958,3.78
			c14.825-6.183,30.329-10.407,46.233-12.637c-3.323,0.446-6.646,0.893-9.969,1.339c10.904-1.452,21.947-1.97,32.576-5.004
			c10.939-3.123,21.29-8.225,31.73-12.66c-2.986,1.26-5.972,2.52-8.958,3.78c7.835-3.294,15.752-6.209,24.203-7.426
			c-3.323,0.447-6.646,0.893-9.969,1.34c4.787-0.574,9.504-0.578,14.293-0.017c-3.323-0.447-6.646-0.893-9.969-1.34
			c16.851,2.439,33.222,8.495,50.497,7.486c14.115-0.824,24.547-4.608,37.313-10.229c6.686-2.944,13.145-6.367,19.861-9.245
			c-2.986,1.26-5.972,2.52-8.958,3.78c5.769-2.377,11.626-4.29,17.814-5.196c-3.323,0.447-6.646,0.893-9.969,1.34
			c3.114-0.322,6.138-0.332,9.251,0.003c-3.322-0.447-6.646-0.893-9.969-1.34c5.282,0.776,10.201,2.497,15.104,4.564
			c-2.985-1.26-5.972-2.52-8.958-3.78c12.554,5.428,24.547,10.791,37.935,13.667c11.47,2.464,22.897,5.091,33.798,9.511
			c-2.985-1.26-5.972-2.52-8.958-3.78c7.148,3.045,14.005,6.579,21.234,9.495c-2.985-1.26-5.972-2.52-8.958-3.78
			c1.956,0.831,3.756,1.726,5.471,2.99c-2.53-1.955-5.06-3.909-7.59-5.863c1.029,0.906,1.891,1.832,2.754,2.898
			c5.925,7.316,17.487,10.983,26.517,10.983c9.906,0,19.516-3.982,26.517-10.983s10.983-16.611,10.983-26.517
			c0-10.77-4.456-18.455-10.983-26.517C444.7,41.27,434.5,37.529,424.318,33.476c2.986,1.26,5.973,2.521,8.958,3.78
			c-12.058-6.612-25.147-11.392-38.46-14.759c-11.148-2.82-22.472-4.394-33.15-8.812c2.985,1.26,5.972,2.52,8.958,3.78
			c-8.405-3.58-16.654-7.604-25.298-10.584c-12.378-4.268-24.889-3.83-37.576-1.971c-17.732,2.598-33.428,12.625-49.693,19.546
			c2.985-1.26,5.972-2.521,8.958-3.78c-3.899,1.592-7.728,2.718-11.89,3.404c3.323-0.447,6.646-0.893,9.969-1.339
			c-4.977,0.639-9.848,0.591-14.827,0.004c3.323,0.446,6.646,0.893,9.97,1.339c-17.329-2.43-34.297-8.946-52.038-7.256
			c-9.273,0.884-18.118,2.38-26.865,5.485c-8.936,3.172-17.55,7.232-26.281,10.918c2.986-1.26,5.972-2.52,8.958-3.78
			c-8.163,3.405-16.424,6.314-25.21,7.588c3.323-0.447,6.646-0.893,9.969-1.339c-16.638,2.039-33.029,3.852-49.161,8.584
			c-19.717,5.784-39.1,14.534-56.185,25.974c-16.949,11.35-24.261,32.857-13.453,51.307
			C39.822,138.383,64.27,146.405,81.276,135.017L81.276,135.017z"/>
	</g>
</g>
<g opacity="0.1">
	<g>
		<path fill="#D22026" d="M34.026,174.69c11.373,2.45,20.721,8.765,30.764,15.741c10.861,7.546,21.459,15.15,33.759,20.216
			c25.123,10.348,54.07,4.686,80.377,4.379c15.415-0.179,30.914,1.033,46.313,1.651c16.165,0.649,32.336,1.167,48.516,1.208
			c31.579,0.082,64.27-1.415,95.061-8.939c24.547-5.999,48.782-17.309,68.879-32.632c21.714-16.556,39.059-38.599,41.154-66.678
			c0.508-6.804-6.07-12.5-12.5-12.5c-7.197,0-11.993,5.708-12.5,12.5c-0.017,0.218-0.444,4.185-0.067,1.485
			c-0.166,1.187-0.406,2.361-0.646,3.535c-0.478,2.336-1.169,4.624-1.924,6.882c-0.377,1.131-0.819,2.239-1.261,3.346
			c0.939-2.357-0.646,1.231-0.715,1.375c-1.234,2.54-2.688,4.97-4.206,7.348c-2.975,4.657-4.078,5.834-8.074,10.133
			c-3.807,4.093-8.004,7.813-12.347,11.323c-14.807,11.97-35.045,21.548-53.705,27.346c-27.347,8.497-57.096,9.907-85.534,10.396
			c-32.376,0.558-64.734-1.454-97.076-2.602c-13.967-0.496-27.872,0.651-41.82,1.183c-13.434,0.512-26.157,0.711-38.56-3.761
			c-10.512-3.789-21.854-12.77-31.757-19.649c-10.826-7.521-22.447-14.584-35.485-17.394c-6.655-1.434-13.495,1.889-15.377,8.73
			C23.567,165.598,27.364,173.255,34.026,174.69L34.026,174.69z"/>
	</g>
</g>
</svg>
