<svg xmlns="http://www.w3.org/2000/svg" version="1.1" x="0" y="0"  viewBox="0 0 816.7 627.6" xml:space="preserve"><style type="text/css">
	.st0{opacity:0.2;}
	.st1{fill:none;stroke:#000000;stroke-miterlimit:10;}
	.st2{opacity:9.999999e-002;}
</style><path class="st1" d="M256.9 47.6c3.9 72.2-58.5 132.9-20.9 207.1 16 31.6 44.2 55.3 69.1 81.5 24 25.2 37.7 55.1 57 83.3M562.2 40.6c13.9 33.6 49.3 56.3 59.7 94.7 11.5 42.5-5.5 74.5-24.5 109.7 -30.6 56.6-55.2 119.8-84.4 178.1M211.3 528.3c51.8 0 81.8 0.4 122.7 32.5 36.6 28.7 72.2 46.5 119.4 48.3 62.3 2.4 75.1-26.2 108-64.4 25-29 96.2-38.9 120.1 1.1M256.9 335.3c-33.6-36.9-115.3-32.4-155.4-10.8 -47.8 25.7-69.8 63.1-72.6 120.3 -1.6 31.5-19.1 141.9 6.9 153.8 14.4 6.6 62.4-8.4 76.5-8.1 22.7 0.5 48.5 12.9 50.5-26.6 11.8-2.1 17.8 3.6 24 13.6"/><g class="st2"><path d="M560.7 381.1c25.3-8.8 48.6-22.5 74.5-29.8 12.4-3.6 25.6-5.3 38.5-3.2 12 1.9 22.7 7.1 32.8 13.7 20.3 13.3 37.4 31.7 52.8 50.3 14.7 17.8 28.8 37.5 38.2 58.7 3.7 8.4 5.8 18.3 4.4 27.5 -1.4 8.9-5.5 16.8-10.4 24.3 -5.5 8.5-12 16.3-18.1 24.2 -6.9 9-12.7 18.6-19.2 27.8 -9.5 13.6-22.5 23.8-39.6 23.3 -18.9-0.6-37.5-11.4-53.8-19.9 -8.6-4.5-16.1 8.4-7.6 13 19 10 39.5 20.8 61.4 22 20.1 1.1 36.8-10.4 48.8-25.7 7.6-9.8 13.7-20.7 21.2-30.6 6.6-8.8 13.7-17.3 19.8-26.5 12.7-19.1 16.2-40.4 8-62.1 -8.3-22.1-23.4-42.2-37.8-60.6 -15.4-19.7-32.9-38-52.9-53.2 -20.4-15.4-44.1-24.1-69.9-21.4 -27.2 2.8-51.9 15.7-76.6 26.5 -6.1 2.7-12.3 5.1-18.5 7.3C547.6 369.8 551.5 384.3 560.7 381.1L560.7 381.1z"/></g><g class="st2"><path d="M597.8 19.8c12.1 20.3 24.1 41.1 30.8 64 5.4 18.8 5.6 38.2 2.5 57.4 -4.5 27.8-13.7 54.9-21.4 81.9 -8.8 30.9-17.8 61.7-27.3 92.4 -6.6 21.2-13.4 42.4-20.4 63.5 -3.1 9.2 11.4 13.1 14.5 4 20.5-61.5 38.8-123.6 56.1-186 6.7-24 13.8-47.7 15.4-72.7 1.2-20-2.4-39.7-9.6-58.3 -7.2-18.8-17.3-36.4-27.6-53.7C605.8 3.9 592.8 11.5 597.8 19.8L597.8 19.8z"/></g><g class="st2"><path d="M531.1 54.9c14.4 22.7 25.2 47.2 29.5 73.8 3.4 21.5 1.4 43.6-3.4 64.7 -10.2 44.6-31.7 85.7-44.6 129.4 -4.9 16.7-8.4 33.7-10.5 51 -0.5 4.1 3.8 7.5 7.5 7.5 4.5 0 7-3.4 7.5-7.5 5.7-47.2 25.7-90.4 41.8-134.6 7.6-20.9 14-42.3 16.9-64.4 3-22.9 1.5-46.1-4.5-68.4 -5.7-21-15.5-40.8-27.1-59.1C538.9 39.2 525.9 46.7 531.1 54.9L531.1 54.9z"/></g><g class="st2"><path d="M538.2 139.1c12.4 21.9 20.7 45.8 23.8 70.8 3 24.2 1.3 48.7-3.2 72.5 -9.2 48.8-29.4 94.8-48.6 140.3 -1.6 3.8-1.2 8 2.7 10.3 3.2 1.9 8.7 1.1 10.3-2.7 20-47.3 41-94.9 50.5-145.6 4.7-25.2 6.3-51 3.2-76.5 -3.4-27.1-12.2-52.9-25.6-76.6C546.3 123.1 533.4 130.6 538.2 139.1L538.2 139.1z"/></g><g class="st2"><path d="M228.6 42.1c-10.9 46.3-20.1 93.9-18.5 141.7 1.5 42.2 13.3 83.1 36.5 118.6 15.7 23.9 35.7 44.6 57.5 62.8 7.4 6.2 18-4.4 10.6-10.6 -34.6-28.9-64-64.1-78.6-107.3 -13.7-40.6-13.1-84.1-7.7-126.1 3.3-25.3 8.6-50.3 14.5-75C245.3 36.6 230.9 32.7 228.6 42.1L228.6 42.1z"/></g><g class="st2"><path d="M228.4 89.7c-3.9 50.1 7.4 101.2 22.8 148.6 15.7 48.4 37.1 95.8 65.2 138.3 0.2 0.4 0.5 0.7 0.7 1.1 5.3 8 18.3 0.5 13-7.6 -27.5-41.4-48.3-87.2-63.9-134.3 -15.4-46.6-26.6-96.8-22.8-146.1C244.1 80 229.1 80.1 228.4 89.7L228.4 89.7z"/></g><g class="st2"><path d="M186.3 268.6c0 7 0 14 0 21.1 3.2-2.4 6.3-4.8 9.5-7.2 2.1 0.4 3 3.5 2.4 1.1 -0.2-0.8-0.2-1.5-0.3-2.3 -0.2-1.8-0.2-3.7-0.2-5.6 0-3.7-3.4-8-7.5-7.5 -2.9 0.4-5.1 1.1-7.4 2.8 -1.8 1.4-4.1 4-6.6 4.2 2.4 3.2 4.8 6.3 7.2 9.5 0.6-2.9 1.2-5.9 1.9-8.8 0.3-1.2 0.6-2.4 1-3.5 0.4-1.1-0.1-0.1 0.8-1.5 0.5-0.7 0.5-0.7 0-0.1 0.3-0.3 0.6-0.7 1-1 0.6-0.6 0.3-0.2 1.6-1.1 2.5-1.5 5.2-2.8 7.8-4.1 -3.7-2.8-7.3-5.6-11-8.5 -0.7 4.2-1.2 8.3-1.5 12.5 -0.1 1.5-0.2 3-0.3 4.5 0.2-1.7-0.3 1.4-0.5 2 0.7-2.3-1.4 1.6 0-0.1 -1.3 1.5-0.7 0.9-2.3 1.9 -4 2.6-8.6 4.4-13 6.3 -7.8 3.4-2.1 16.9 5.8 13.7 12.3-5 26.4-1.8 37.9 4 12 6 24.5 16.8 26.3 30.9 3.8-2.2 7.5-4.3 11.3-6.5 -17.5-11.1-33.2-27.5-44.5-44.9 -5.3-8.2-10.2-18.1-10.5-27.5 -0.3-8.8 4.6-15.3 12.9-19.9 -3.4-0.9-6.8-1.8-10.3-2.7 21.3 35.7 31.7 81.4 69.4 104.4 5.4 3.3 13.2-2.2 11-8.5 -5.1-14.9-13.3-29-27.1-37.3 -12.1-7.3-26.6-8-40.2-5.8 -32.3 5.2-61.9 27-86.1 47.8 -12.6 10.9-24.5 22.8-35.2 35.6 -8.5 10.1-16.8 20.9-22.7 32.9 -3.4 7-5.5 14.5-8 21.9 -3.6 11-7.1 22-10.2 33.2 -5.9 21.5-11.3 44.6-8.2 67 1.9 14.1 10.3 26.8 19.1 37.6 10.4 12.7 23.5 23.3 37.7 31.5 13.3 7.7 28.6 13.3 44.2 13.3 15.4 0 28.5-7.2 37.8-19.2 2.5-3.2 0.5-8.4-2.7-10.3 -3.9-2.3-7.8-0.5-10.3 2.7 -10.4 13.6-27.9 13.4-42.9 8.8 -18.6-5.7-35.3-18.1-48.5-32.2 -12.1-12.9-20.4-27.7-20.3-45.7 0.1-22.9 7.2-45.8 13.9-67.5 3.1-9.9 6.4-19.8 9.7-29.7 0.2-0.5 0.4-1 0.6-1.5 0.7-1.8-0.7 1.5 0.1-0.3 0.5-1.1 1-2.2 1.5-3.3 1.3-2.6 2.8-5.1 4.3-7.6 7.5-12.3 16.4-22.7 26.3-33.3 22.8-24.4 49.8-46.8 80.5-60.4 7.1-3.2 15.4-5.7 23.4-7.1 5.9-1 13.8-0.9 19.7 0.6 6.4 1.6 11.7 4.8 16.5 9.6 5.8 5.9 9.9 14.1 12.7 22.4 3.7-2.8 7.3-5.6 11-8.5 -16.7-10.2-27.3-26.6-36.2-43.6 -9.6-18.3-17.1-37.7-27.7-55.5 -2.1-3.6-6.7-4.7-10.3-2.7 -53.9 29.9 11 98.5 42.1 118.2 4.4 2.8 12-0.8 11.3-6.5 -2.4-19-15.3-33.6-31.6-42.7 -14.9-8.4-35.2-13.3-51.6-6.6 1.9 4.6 3.9 9.1 5.8 13.7 7.4-3.2 17-6.6 21-14.3 3.4-6.5 2.4-14.7 3.5-21.8 1-6.5-4.8-11.6-11-8.5 -5.6 2.8-11.2 5.4-15 10.5 -3.9 5.2-4.8 12.4-6 18.5 -0.9 4.5 2.1 9.8 7.2 9.5 3.6-0.2 6.6-1.1 9.8-2.8 1.5-0.9 2.9-2.1 4.3-3.2 1.1-0.9 2.8-1.3 0-1 -2.5-2.5-5-5-7.5-7.5 0 7 0 19.6 9 21.3 4.7 0.9 9.5-2 9.5-7.2 0-7 0-14 0-21.1C201.3 259 186.3 259 186.3 268.6L186.3 268.6z"/></g><g class="st2"><path d="M341.4 563.9c-32-13.8-63.6-30.3-98.3-36.2 -17.3-3-35.4-3-51.8 4 -17.7 7.6-29.1 22.9-36.4 40.2 -1.6 3.8 1.7 8.2 5.2 9.2 4.3 1.2 7.7-1.5 9.2-5.2 28.9-69.1 118.5-18.8 164.4 1 3.8 1.6 8 1.2 10.3-2.7C346 571 345.2 565.5 341.4 563.9L341.4 563.9z"/></g><g class="st2"><path d="M201.3 43.8c-10.9 23.1-18.7 47.4-20.4 73 -1.4 20.7 2.1 41.7 9.6 61 15.7 40.4 46.7 72.6 77 102.5 19.2 18.9 39 37.4 57.7 56.9 6.7 7 17.3-3.6 10.6-10.6 -32-33.3-67.5-63.3-97.1-98.7 -26.2-31.3-45-67.9-43-109.6 1.1-23.2 8.7-45.9 18.5-66.7C218.4 42.7 205.4 35 201.3 43.8L201.3 43.8z"/></g><g class="st2"><path d="M183 204c14.1 35.4 25 72 35.1 108.8 4.6-1.9 9.1-3.9 13.7-5.8 -23.6-47.4-37.4-101-30.6-154.1 1-8.1-10.2-9.2-14-3.8 -16.4 23.9-21.2 51.6-27 79.3 -2.7 13.2-6.8 25.6-11.3 38.3 -1.5 4.1-3 8.1-4.9 12 -0.8 1.6-1.6 3.1-2.5 4.6 -0.4 0.7-0.8 1.3-1.3 2 -0.1 0.2-1.8 2.5-1 1.4 -4.1 5.2-7.4 7.1-12.9 10.7 -8.4 5.5-16.6 11.3-24.5 17.5 -16.4 12.9-28.9 28.3-38.1 47.1 -21.4 43.6-27.1 103.2 0.6 145.4 5.3 8 18.3 0.5 13-7.6 -23.1-35.1-19.5-82.6-5-120.3 7.1-18.6 18.3-36 33.5-48.9 7.6-6.5 16-12.3 24.3-17.8 5.7-3.8 11.5-7.4 16.5-12 5.6-5.3 9.4-12.2 12.4-19.2 5.3-12.3 9.8-25.2 13.1-38.2 7.6-29.9 10-60.6 28-86.8 -4.7-1.3-9.3-2.5-14-3.8 -7.2 55.6 8 112.1 32.6 161.7 3.9 7.8 15.9 2.3 13.7-5.8 -10-36.8-21-73.3-35.1-108.8 -1.5-3.8-5-6.4-9.2-5.2C184.6 195.7 181.5 200.1 183 204L183 204z"/></g><g class="st2"><path d="M106 296.2c-32.2-0.7-64.7 9.2-82.2 38C8 360.4 8.4 393.5 13 422.6c3.8 24 11.5 47.2 21.4 69.3 9 19.9 20.2 39.2 34.8 55.6 6.4 7.3 17-3.4 10.6-10.6C61 515.7 47 487.3 37.7 459.7c-9.7-28.7-16-61.4-10.6-90.7 3.1-17 9.8-31.3 22.8-42.4 14.6-12.3 36.4-15.8 56.2-15.4C115.7 311.4 115.7 296.4 106 296.2L106 296.2z"/></g><g class="st2"><path d="M86.5 345.6C58.9 352 44.6 382.8 36.2 407c-11.6 33.7-16 70.5-16.1 106 -0.1 18.5 1.2 37.2 4.9 55.4 2.7 13.7 7.1 27.9 16.1 38.9 2.6 3.2 7.9 2.7 10.6 0 3.1-3.1 2.6-7.4 0-10.6 -1.2-1.4 1 1.3-0.2-0.2 -0.3-0.5-0.7-0.9-1-1.4 -0.7-1-1.3-2-1.9-3 -0.6-1.1-1.2-2.2-1.8-3.4 -0.7-1.5-1.3-2.9-1.4-3.2 -2.4-6-4.1-12.3-5.5-18.6 -3.4-15.3-4.5-30.7-4.8-46.5 -0.7-35.2 3.4-71.1 14-104.7 4.2-13.4 9.6-26.2 17.8-37.9 6-8.5 14-15.5 23.5-17.7C99.9 357.9 95.9 343.4 86.5 345.6L86.5 345.6z"/></g><g class="st2"><path d="M11.1 378.9c-15 37.2-14.9 77.5 0.9 114.4 15.5 36.1 45.8 64.7 79.7 83.6 8.5 4.7 16-8.3 7.6-13 -31.8-17.6-58.7-43.5-73.8-76.9 -15-33.2-13.4-70.7 0-104.1 1.5-3.8-1.6-8.2-5.2-9.2C16 372.5 12.6 375.1 11.1 378.9L11.1 378.9z"/></g><g class="st2"><path d="M177.8 124.8c-0.2 1.7-0.4 3.4-0.6 5 0.4-2.7 0.7-5.3 1.1-8 -8.5 63.2-33 130.5-9.9 193.4 5.6 15.3 20.1 25.6 36.9 21 14.8-4.1 26.6-21.5 21-36.9 -3.3-8.9-5.5-18.1-6.8-27.5 0.4 2.7 0.7 5.3 1.1 8 -2.6-19.9-1.4-40 1.2-59.8 -0.4 2.7-0.7 5.3-1.1 8 4.7-34.6 13.1-68.5 17.2-103.1 0.9-7.4-3.7-16.2-8.8-21.2 -5.6-5.6-13.3-8.8-21.2-8.8s-15.6 3.2-21.2 8.8C180.4 109.7 178.8 116.5 177.8 124.8L177.8 124.8z"/></g><g class="st2"><path d="M268.5 326.9c-43.9-19.7-95.1-30.5-141.4-11.8 -21.1 8.6-40.1 20.9-55.6 37.8C55 371.1 43.5 392 34.3 414.7 25.1 437.6 20 462.4 18.5 487c-1.4 22.9 1.8 46.6 12.9 66.9 11.6 21.3 32.9 35 55.7 41.7 25.4 7.5 55.7 8.5 80.6-1.1 27.8-10.7 49.5-31.4 76.3-43.9 14.8-6.9 18.4-27.9 10.8-41 -3.9-6.7-10.4-11.7-17.9-13.8 -8.3-2.3-15.5-0.5-23.1 3 -12.5 5.9-24.1 13.3-35.4 21.1 -10.1 7-20.2 14-31.5 18.9 2.4-1 4.8-2 7.2-3 -6.9 2.9-14.1 4.8-21.5 5.9 2.7-0.4 5.3-0.7 8-1.1 -9.6 1.2-19.2 0.8-28.8-0.4 2.7 0.4 5.3 0.7 8 1.1 -9.1-1.3-17.9-3.3-26.4-6.9 2.4 1 4.8 2 7.2 3 -3.3-1.4-6.4-3.1-9.4-4.9 -2.3-1.4-7.9-5.8 1.2 1.2 -1.5-1.2-3-2.5-4.4-3.9 -1.2-1.1-2.2-2.3-3.3-3.5 -3-3.5 5 6.7 2.3 3.1 -0.6-0.8-1.1-1.6-1.6-2.4 -2-3-3.6-6.2-5-9.4 1 2.4 2 4.8 3 7.2 -2.5-6.2-4.1-12.6-5-19.2 0.4 2.7 0.7 5.3 1.1 8 -1.8-13.8-1.1-27.7 0.6-41.4 -0.4 2.7-0.7 5.3-1.1 8 3-18.1 7.7-36 14.8-52.9 -1 2.4-2 4.8-3 7.2 3.5-8.3 7.6-16.2 12.3-23.9 2.2-3.6 4.7-7.2 7.2-10.6 3-4-5 6.3-1.9 2.4 0.7-0.9 1.4-1.8 2.2-2.6 1.4-1.7 2.9-3.4 4.5-5.1 2.7-3 5.7-5.8 8.7-8.6 1.4-1.2 2.8-2.4 4.2-3.6 1.8-1.5 5.7-4.4-2.6 2 0.9-0.7 1.7-1.3 2.6-1.9 6.7-4.8 14-8.9 21.7-12.1 -2.4 1-4.8 2-7.2 3 9.6-4 19.6-6.6 29.8-8 -2.7 0.4-5.3 0.7-8 1.1 11.9-1.5 24-1.3 35.9 0.3 -2.7-0.4-5.3-0.7-8-1.1 16.5 2.3 32.5 7.2 47.9 13.6 -2.4-1-4.8-2-7.2-3 1.9 0.8 3.8 1.6 5.6 2.5 7.7 3.4 14.7 5.3 23.1 3 7.5-2.1 14-7.1 17.9-13.8C286.9 355 283.5 333.6 268.5 326.9L268.5 326.9z"/></g><g class="st2"><path d="M210.2 536.6c22.2 11.2 42 25.9 62.6 39.8 20.7 14 43.3 25.7 67.9 30.8 14.4 3 29.1 3.7 43.6 4.8 12.6 1 25.2 1.9 37.8 2.5 27.5 1.3 55.2 0.8 82.3-4.5 10.8-2.1 20.8-5.9 30.8-10.4 14.9-6.7 18.3-28.1 10.8-41C542 552 535.5 547 528 545c-8.4-2.3-15.4-0.4-23.1 3 -0.7 0.3-1.5 0.7-2.3 1 2.4-1 4.8-2 7.2-3 -10.4 4.3-21.5 6.7-32.6 8.2 2.7-0.4 5.3-0.7 8-1.1 -21.4 2.8-43.1 2.5-64.7 1.5 -20.8-1-42-2.1-62.7-4.7 2.7 0.4 5.3 0.7 8 1.1 -12-1.7-23.7-4.8-34.9-9.5 2.4 1 4.8 2 7.2 3 -16.6-7.1-31.5-17.3-46.3-27.6 -16.6-11.6-33.2-22.9-51.3-32 -14.6-7.4-32.4-4-41 10.8C191.6 509 195.6 529.3 210.2 536.6L210.2 536.6z"/></g><g class="st2"><path d="M242 41.5c1.6 9.5 3 19.1 4.3 28.6 -0.4-2.7-0.7-5.3-1.1-8 13.2 98.2 17.7 206.1 87.8 283.6 5.7 6.4 12 12.3 18.5 17.8 12.5 10.6 30.2 12.3 42.4 0 10.8-10.8 12.5-31.9 0-42.4 -6.2-5.2-12.1-10.8-17.6-16.8 -2.9-3.1-5.6-6.3-8.2-9.5 -4.8-5.9 3.5 4.6 0.4 0.6 -1.4-1.8-2.7-3.7-4.1-5.6 -9.6-13.5-17.3-28.3-23.8-43.5 1 2.4 2 4.8 3 7.2 -17-40.4-24.6-83.9-30.4-127 0.4 2.7 0.7 5.3 1.1 8 -4.9-36.3-8.5-72.8-14.4-108.9 -2.7-16.2-22.4-24.9-36.9-21 -7.5 2.1-14 7.1-17.9 13.8C240.6 25.9 240.6 33.2 242 41.5L242 41.5z"/></g><g class="st2"><path d="M312.9 29.9c-20 25.2-36.1 52.6-45 83.8 -8.1 28.4-8.5 57.4-4.5 86.4 7.5 54.3 38.4 103.9 74.7 143.7 8.6 9.5 17.9 18.4 27.4 26.8 12.2 10.8 30.3 12.1 42.4 0 11-11 12.3-31.6 0-42.4 -8.4-7.4-16.5-15.2-24.2-23.3 -3.6-3.8-7.2-7.8-10.6-11.8 -1.7-2-3.4-4-5.1-6 -1-1.2-2-2.4-3-3.7 -3.7-4.7 4.5 5.9 0.8 1.1 -13.3-17.4-24.7-36.4-33.3-56.6 1 2.4 2 4.8 3 7.2 -7.1-16.8-12.1-34.3-14.6-52.3 0.4 2.7 0.7 5.3 1.1 8 -1.9-15.1-2-30.3-0.1-45.4 -0.4 2.7-0.7 5.3-1.1 8 2.1-15.3 6.2-30.1 12.1-44.4 -1 2.4-2 4.8-3 7.2 3.4-8.1 7.4-16 11.8-23.6 2.3-4 4.8-7.9 7.4-11.7 1.3-2 2.7-3.9 4.1-5.8 0.7-1 1.4-1.9 2.2-2.9 3.9-5.3-4.3 5.5-0.2 0.3 5.2-6.5 8.8-12.5 8.8-21.2 0-7.9-3.2-15.6-8.8-21.2C344.8 19.3 323.1 17 312.9 29.9L312.9 29.9z"/></g><g class="st2"><path d="M381.1 407.9c-7.1-16.4-22.8-28.9-37.3-38.4 -16.9-11.2-36.1-19.1-55-26.2 -31.4-11.9-64.4-20.8-97.5-26.3 -8.3-1.4-15.6-1.4-23.1 3 -6.7 3.9-11.7 10.4-13.8 17.9 -4 14.5 4.8 34.2 21 36.9 37.6 6.3 75.2 16.7 110.3 31.4 -2.4-1-4.8-2-7.2-3 13.1 5.5 25.9 11.8 37.7 19.9 1.1 0.8 2.2 1.6 3.3 2.4 2.3 1.7 1.1 0.8-3.7-2.9 0.8 0.6 1.5 1.2 2.3 1.8 2.4 2 4.6 4.1 6.8 6.3 0.8 0.8 1.6 1.7 2.3 2.6 2.4 2.8-5.6-7.7-1.7-2.1 1.5 2.2 2.7 4.5 3.8 6.9 2.9 6.7 11.2 11.9 17.9 13.8 7.7 2.1 16.2 1 23.1-3 6.7-3.9 11.7-10.4 13.8-17.9C386.4 422.5 384.4 415.6 381.1 407.9L381.1 407.9z"/></g><g class="st2"><path d="M462.8 55.9c-10-7.7-1.7-1.2 0.6 0.9 2 1.8 3.9 3.7 5.8 5.7 1.9 2 3.7 4.1 5.5 6.3 0.4 0.5 0.8 1 1.2 1.5 2.8 3.5-5.1-6.7-2.4-3.1 1 1.3 1.9 2.6 2.8 3.9 7.5 10.7 13.6 22.3 18.7 34.3 -1-2.4-2-4.8-3-7.2 9.4 22.4 15.5 46.1 18.8 70.1 -0.4-2.7-0.7-5.3-1.1-8 3.4 25 3.8 50.4 0.5 75.5 0.4-2.7 0.7-5.3 1.1-8 -2.4 17.3-6.5 34.3-13.3 50.5 1-2.4 2-4.8 3-7.2 -4.4 10.2-9.8 20-16.5 28.8 7.4-9.7 1.1-1.6-0.9 0.7 -1.9 2.2-4 4.2-6.1 6.2 -1.9 1.8-3.8 3.4-5.8 5 9.6-7.7 0.9-0.8-1.8 0.9 -13.7 8.9-19.3 26.5-10.8 41 8 13.6 27.3 19.7 41 10.8 73.2-47.4 80.5-149.4 66.1-227.3 -4.8-26-13.4-51.2-25.2-74.8 -11.5-23.1-27.5-42.8-47.9-58.5 -6-4.6-16.2-4.9-23.1-3 -7.5 2.1-14 7.1-17.9 13.8 -4.1 6.9-5.2 15.4-3 23.1C451.3 46.3 456.3 50.9 462.8 55.9L462.8 55.9z"/></g><g class="st2"><path d="M568.3 104.7c7 17 12.2 34.6 14.8 52.8 -0.4-2.7-0.7-5.3-1.1-8 2.3 17 2.2 34.1 0 51 0.4-2.7 0.7-5.3 1.1-8 -4 29.5-14.2 57.5-25.2 84.9 -12.3 30.5-25.4 60.5-35.2 91.9 -4.9 15.6 5.6 32.7 21 36.9 16.2 4.4 32-5.4 36.9-21 14.7-47.1 37.8-91.2 52-138.4 7.2-24 11.5-49.3 11.3-74.4 -0.2-28.7-6.7-57.3-17.6-83.8 -3.1-7.6-6.4-13.6-13.8-17.9 -6.9-4.1-15.4-5.2-23.1-3 -7.5 2.1-14 7.1-17.9 13.8C567.7 87.8 565.4 97.7 568.3 104.7L568.3 104.7z"/></g><g class="st0"><path d="M534 54.7c2.1 1.9 4.1 4 6 6.2 0.7 0.8 2.4 3.1-0.5-0.7 0.5 0.6 0.9 1.2 1.3 1.8 1 1.4 2 2.9 2.9 4.5 1.7 2.7 3.1 5.5 4.5 8.4 0.4 0.7 0.7 1.5 1 2.2 1.3 2.8-1.4-3.4-0.2-0.5 0.7 1.8 1.4 3.7 2.1 5.6 2.5 7.2 4.3 14.6 5.7 22.1 0.4 1.9 0.7 3.8 1 5.8 0.2 1 0.3 2 0.4 2.9 0.5 3.5-0.5-3.6 0 0 0.6 4.4 1 8.9 1.3 13.4 1.5 18.7 1.1 37.4-0.1 56.1 -0.7 9.9-1.6 19.8-2.8 29.7 -0.3 2.4-0.6 4.8-0.9 7.2 -0.5 4.1 0.4-3.3-0.1 0.8 -0.2 1.2-0.3 2.4-0.5 3.6 -0.7 5.2-1.6 10.4-2.4 15.6 -5.4 32.5-13 64.7-22.9 96.2 -4.1 12.9-8.6 25.7-13.8 38.2 2-4.7 0-0.1-0.4 1 -0.5 1.2-1.1 2.4-1.6 3.6 -1.1 2.5-2.3 4.9-3.5 7.4 -2.1 4.2-4.4 8.3-6.9 12.2 -4.4 6.9-1.4 16.5 5.4 20.5 7.3 4.3 16.1 1.5 20.5-5.4 7.1-11 12.2-23.2 17.1-35.3 6.1-15.2 11.3-30.7 15.9-46.4 11.3-38.6 19.2-78.1 24-118 4.1-33.8 6-68.5 1.5-102.3 -3.7-27.7-11.3-58-32.8-77.6 -6.1-5.5-15.2-6-21.2 0C528.5 39 528 49.2 534 54.7L534 54.7z"/></g><g class="st0"><path d="M531 402.4c1-4.5 2.2-8.8 3.7-13.1 0.3-0.8 0.6-1.6 0.9-2.4 0.2-0.5 1.8-4.4 0.4-1.1 0.9-2.2 2-4.4 3.1-6.5 1.9-3.7 4.2-7.2 6.6-10.5 1-1.3 0.9-1.2-0.4 0.4 0.7-0.8 1.4-1.7 2.1-2.5 1.4-1.6 2.8-3.2 4.3-4.7 2.4-2.5 5-4.8 7.7-7 0.5-0.4 1.1-0.9 1.6-1.3 2.8-2.2-2.6 2 0.2-0.2 1.6-1.2 3.3-2.4 5-3.6 6.2-4.2 12.7-8 19.2-11.7 13.5-7.6 26.8-15.1 38.9-24.8 13.5-10.8 23-25 29.4-41 -9.6-2.7-19.3-5.3-28.9-8 -1.5 4.4-1.9 5.4-4.6 10.2 -1.2 2.1-2.5 4-3.9 5.9 0.9-1.2 0.9-1.2-0.2 0.2 -0.9 1-1.8 2-2.7 3 -1.2 1.3-2.6 2.4-3.9 3.5 2.4-2-2.5 1.5-3.3 2 -0.7 0.4-1.5 0.8-2.2 1.2 -3.7 1.9 2.8-1-1.1 0.5 -2 0.7-4 1.3-6.1 1.7 5.6 2.3 11.3 4.6 16.9 6.9 -3.2-4.7-6.2-9.5-9.1-14.4 -1.3-2.3-2.5-4.6-3.7-6.9 -0.6-1.1-1.1-2.3-1.6-3.4 1.5 3.3-0.4-1.4-0.7-2.1 -0.4-1.2-1.7-8.1-1.2-3.6 -0.1-1-0.1-2.1-0.1-3.1 0-0.7 0.1-1.3 0.1-2 -0.3 2.3-0.3 2.7 0 1.1 0.8-3.3-1.6 3-0.1 0 0.3-0.6 0.7-1.2 1.1-1.7 -1.3 1.7-1.4 1.9-0.3 0.6 2.5-2.6-2.7 1.7 0.6-0.5 0.5-0.3 5-2.5 2.5-1.5 -5.6-2.3-11.3-4.6-16.9-6.9 6.1 9.3 8.8 17.8 10.6 29.4 -0.1-1.2-0.1-0.9 0.1 1 0.2 1.7 0.3 3.3 0.5 5 0.2 2.8 0.4 5.6 0.5 8.4 0.3 6.3 0.2 12.5 0.2 18.8 0 6.7 4.6 12.7 11 14.5 7.2 2 17.2-2.4 18.5-10.5 3.6-22.9 2.1-48.3-12-67.7 -4.3 7.5-8.6 15-13 22.6 5.6 0 11.1 0.3 16.7 0.9 4.2 0.4-3.2-0.5 0.8 0.1 1.1 0.2 2.3 0.4 3.4 0.6 2.1 0.4 4.1 0.9 6.2 1.4 1.8 0.5 3.6 1.1 5.4 1.8 3.1 1.1-3.2-1.5-0.4-0.2 0.8 0.3 1.5 0.7 2.2 1.1 1.4 0.7 2.7 1.5 3.9 2.4 2.3 1.6-2.9-2.4-0.8-0.6 0.5 0.4 1 0.9 1.5 1.4 1 1 3.8 4.8 0.5 0.3 0.7 1 1.3 2 1.8 3.1 1.1 2.2-1.5-3.8-0.6-1.5 0.2 0.5 0.4 1.1 0.5 1.6 0.2 0.5 0.3 1.1 0.4 1.7 0.5 2.5-0.5-4.3-0.2-1.7 0.1 1.1 0.1 2.3 0.1 3.4 -0.1 4.4 0.7-3.4 0.1 0.1 -0.2 1.2-0.5 2.3-0.9 3.5 -0.4 1.3-2.3 5.7 0 0.5 -1 2.4-2.3 4.6-3.7 6.7 -0.7 1.1-3.8 5-0.4 0.7 -0.8 1.1-1.7 2.1-2.6 3.1 -1.8 2-3.9 3.9-6 5.6 -2.1 1.7 3.1-2.3 0.9-0.7 -0.5 0.4-1.1 0.8-1.7 1.2 -1.1 0.8-2.3 1.5-3.4 2.2 -1.2 0.7-2.3 1.3-3.5 1.9 -4.1 2 2.7-1-0.7 0.3 -2.4 0.9-4.9 1.5-7.4 2 5.7-1 1.2-0.2-0.3-0.1 -1.2 0-2.4 0-3.7-0.1 -2.6-0.2 4.2 0.7 1.6 0.2 -0.6-0.1-1.2-0.3-1.8-0.4 -1.4-0.3-5.6-2.2-0.4 0.1 1 7.9 2 15.7 3 23.6 2.3-2 4.5-3.6 8.8-6.1 2-1.2 4.2-2.2 6.3-3.2 -1.4 0.6-1.3 0.6 0.3-0.1 1.3-0.5 2.7-0.9 4-1.3 2.2-0.7 4.5-1.2 6.8-1.7 0.9-0.2 1.8-0.4 2.8-0.5 4.5-0.8-3 0.3 1.6-0.2 4.7-0.5 9.5-0.4 14.2-0.1 1 0.1 1.9 0.2 2.8 0.3 -3.3-0.3 1.4 0.2 1.7 0.3 2.4 0.4 4.7 0.9 7.1 1.5 2.4 0.6 4.7 1.3 7 2.1 0.9 0.3 1.8 0.6 2.8 1 0.1 0 4.5 1.9 1.9 0.7 4.5 2 8.8 4.3 13 6.9 2.1 1.3 4.1 2.7 6.1 4.2 -1.1-0.9-0.9-0.7 0.5 0.4 1.2 0.9 2.3 1.9 3.4 2.9 6.1 5.4 15.1 6.1 21.2 0 5.5-5.5 6.2-15.8 0-21.2 -37.3-32.6-94.3-41.2-133.5-7 -6.8 5.9-5.6 19.8 3 23.6 27.3 12 57.5-4.7 71.9-28.8 7.6-12.7 9.5-27.6 3.4-41.2 -6.7-14.9-23.8-22.5-38.9-25.5 -9.5-1.9-19.2-2.6-28.9-2.6 -10.5 0-19.8 13.1-13 22.6 9.4 13 11.5 29 9 44.6 9.8 1.3 19.6 2.7 29.5 4 0-26.8-1-54.5-16.1-77.7 -3.4-5.2-10.6-9.4-16.9-6.9 -8.8 3.5-15.9 7.9-21.3 16 -4.9 7.4-5.2 16.7-3.9 25.1 2.4 14.8 11.5 28.3 19.7 40.6 3.9 5.9 10 8.4 16.9 6.9 24.8-5.3 41.2-26.1 49.1-49.1 2.7-7.7-3-16.4-10.5-18.5 -8.5-2.3-15.4 2.9-18.5 10.5 -0.6 1.6-0.6 1.5 0.2-0.3 -0.4 1-0.9 2.1-1.4 3.1 -0.8 1.7-1.7 3.3-2.6 4.9 -0.9 1.6-1.9 3.1-2.8 4.5 -0.6 0.9-1.2 1.7-1.8 2.6 -2.1 2.9 2.1-2.6-0.2 0.2 -2.3 2.9-4.9 5.6-7.6 8.1 -1.2 1.1-2.5 2.2-3.8 3.3 -0.8 0.6-1.5 1.3-2.3 1.9 -2.7 2.2 2.7-2-0.1 0.1 -11.6 8.7-24.7 15.2-37.2 22.5 -13.6 7.8-26.8 16.8-37.5 28.4 -13 14.2-21.4 31.8-25.6 50.5 -1.8 8 2.3 16.2 10.5 18.5C520.2 415 529.2 410.4 531 402.4L531 402.4z"/></g><g class="st0"><path d="M562.7 565.8c2.9-2 6-3.7 9.3-5.2 -3.7 1.7 2-0.7 2.9-1 2.3-0.8 4.7-1.4 7-2 2-0.5 4.1-0.9 6.2-1.3 0.8-0.1 1.7-0.3 2.5-0.4 4.3-0.7-3.2 0.4 1.2-0.1 4.9-0.5 9.8-0.7 14.6-0.7 4.5 0 8.9 0.4 13.4 0.9 -1.8-0.3-1.8-0.3 0 0 1.3 0.2 2.6 0.4 3.9 0.7 2.5 0.5 5.1 1.1 7.6 1.7 2 0.5 4 1.2 6 1.9 1.2 0.4 2.3 0.8 3.4 1.3 -3.4-1.3 0.3 0.2 0.8 0.4 1.7 0.8 3.4 1.8 5.1 2.8 1 0.6 1.9 1.2 2.8 1.8 3.1 2.1-2.4-2 0.4 0.3 6.3 5.2 15 6.2 21.2 0 5.4-5.4 6.3-16 0-21.2 -17.3-14.5-39.7-19.7-61.9-20.6 -20.5-0.8-44.3 2.7-61.5 14.7 -6.7 4.7-9.8 13-5.4 20.5C546.1 567 556 570.5 562.7 565.8L562.7 565.8z"/></g><g class="st0"><path d="M201.7 580.9c0-0.7 0-1.4 0.1-2.1 0.2-3.5-0.7 3.4 0.1 0.1 0.1-0.6 0.3-1.2 0.5-1.8 0.9-3.1-1.6 3.2-0.1 0.4 1.9-3.6-2.1 1.9 0.6-0.9 2.7-2.9-2.5 1.4 0.9-0.8 1-0.6 5.6-2.5 1.2-0.8 1.4-0.6 3-1 4.5-1.3 1.1-0.3 6.6-1 1.9-0.4 1.7-0.2 3.5-0.3 5.2-0.3 3.7-0.1 7.3 0.1 10.9 0.5 0.7 0.1 1.5 0.2 2.2 0.3 -4.1-0.5-0.3 0 0.5 0.1 1.9 0.3 3.7 0.7 5.5 1 3.6 0.7 7.1 1.7 10.6 2.7 1.6 0.5 3.3 1.1 4.9 1.6 1 0.3 6.2 2.5 1.8 0.6 7.5 3.2 16 2.3 20.5-5.4 3.7-6.4 2.2-17.3-5.4-20.5 -17.4-7.3-36.7-12.2-55.7-10.7 -10.6 0.9-20.5 3.7-28.8 10.6 -8.1 6.6-11.6 16.9-11.8 27.1 -0.1 8.2 6.9 15 15 15C195 595.9 201.6 589.1 201.7 580.9L201.7 580.9z"/></g><g class="st0"><path d="M228.8 557.3c5.8-0.2 11.6-0.1 17.3 0.4 1.4 0.1 2.7 0.3 4.1 0.4 -3.5-0.4 1 0.2 1.4 0.2 3.1 0.5 6.1 1.1 9.1 1.8 5 1.2 9.9 2.7 14.8 4.4 2.4 0.8 4.7 1.8 7.1 2.7 3.9 1.6-2.8-1.2 1 0.4 1.5 0.7 3 1.4 4.5 2.1 18.6 8.8 35.7 20.4 53.4 30.8 18.7 10.9 38.7 20.3 60.1 24.4 25.5 4.8 53 3.2 78-3.5 44.4-11.8 76.1-46.8 114.6-69.6 16.6-9.8 1.5-35.8-15.1-25.9 -19.1 11.3-36.5 25-54.3 38.3 -7.8 5.8-15.8 11.4-24.2 16.2 -4.1 2.4-8.3 4.5-12.6 6.4 -0.5 0.2-4.3 1.8-0.9 0.4 -1.1 0.5-2.3 0.9-3.4 1.3 -2.8 1-5.5 2-8.4 2.8 -5.2 1.6-10.4 2.8-15.8 3.8 -1.4 0.3-2.8 0.5-4.3 0.7 -4.8 0.8 3-0.3-1.9 0.3 -3.7 0.4-7.3 0.7-11 1 -6.4 0.4-12.9 0.5-19.4 0.3 -2.8-0.1-5.5-0.3-8.3-0.6 -4.5-0.5 3.1 0.5-1.3-0.2 -1.7-0.3-3.5-0.6-5.2-0.9 -5.1-1-10-2.3-14.9-3.8 -2.4-0.8-4.8-1.6-7.1-2.5 -1.2-0.4-2.3-0.9-3.5-1.4 -1.6-0.7-1.5-0.6 0.1 0.1 -0.8-0.3-1.5-0.7-2.3-1 -9.4-4.1-18.4-9.2-27.2-14.4 -17.7-10.5-34.8-21.9-53.6-30.5 -22.5-10.2-46.3-15.8-71.1-14.9 -8.2 0.3-15 6.6-15 15C213.8 550.3 220.7 557.6 228.8 557.3L228.8 557.3z"/></g><g class="st0"><path d="M234.9 58.1c-0.1 28.3-6.3 56-7.6 84.1 -1.3 28.2 4.6 55.6 20 79.4 12.2 19 28.4 35 42.8 52.3 1.7 2 3.3 4.1 4.9 6.1 -2-2.6 0.6 0.8 0.8 1.1 0.8 1 1.5 2.1 2.3 3.2 3 4.3 5.8 8.7 8.3 13.3 1.3 2.3 2.4 4.7 3.5 7.1 1.8 4-1.1-2.8 0.5 1.3 0.5 1.2 0.9 2.5 1.4 3.8 0.9 2.6 1.6 5.2 2.3 7.9 0.3 1.4 0.6 2.7 0.9 4.1 0.1 0.5 1 6.2 0.6 3.1 5-5 10-10 15-15 3.2 0.4-1.5-0.2-1.7-0.3 -1.9-0.3-3.8-0.7-5.6-1.1 -3.7-0.8-7.4-1.8-11.1-2.8 -7.3-2.1-14.4-4.8-21.5-7.5 -13.9-5.5-27.5-11.8-41.6-16.7 -14-4.9-28.8-8.1-43.7-8.1 -17.9 0-35.2 5.5-50.8 14 -7.2 3.9-9.4 13.6-5.4 20.5 4.2 7.2 13.3 9.3 20.5 5.4 12.8-7 24.4-10.1 38.4-9.9 3.2 0 6.3 0.3 9.4 0.7 -3.5-0.4 2 0.4 2.7 0.5 1.8 0.3 3.5 0.7 5.3 1.1 7.1 1.6 14 4 20.8 6.5 13.2 4.9 25.9 10.8 39 15.9 14.7 5.8 29.6 9.8 45.3 11.8 7.4 0.9 16-7.6 15-15 -3.3-24.7-13.5-45.4-28.6-65 -6.5-8.3-13.5-16.2-20.4-24.1 -3.5-4-7-8-10.4-12 -1.7-2-3.4-4.1-5.1-6.2 -2.8-3.4 1.8 2.3-0.9-1.2 -1.1-1.4-2.1-2.9-3.2-4.3 -3.1-4.4-6-8.9-8.6-13.6 -3.2-5.7-4.7-9.2-6.3-14.3 -4.4-13.8-5.2-25.3-4.8-40.1 0.9-28.8 7.6-57 7.7-85.8C265 38.7 235 38.8 234.9 58.1L234.9 58.1z"/></g><path class="st1" d="M198.9 261.6c6.7-12 15.9-27.8 14-42.1M228.7 259.9c1.1 6.2-0.6 11.6-5.3 15.8M263.8 345.8c2.7-11.8 8.2-22.1 7-35.1M248 291.4c-2.7 10.7-2.9 23.6-3.5 35.1M218.2 305.5c6.1-9 7.6-23.2 15.8-31.6M253.3 333.5c2.5-9.7 0.3-20.2 3.5-29.8M272.6 375.6c0.4-10.9 10.2-33.4 8.8-49.1"/></svg>