<?xml version="1.0" encoding="utf-8"?>
<!-- Generator: Adobe Illustrator 16.0.0, SVG Export Plug-In . SVG Version: 6.00 Build 0)  -->
<!DOCTYPE svg PUBLIC "-//W3C//DTD SVG 1.1//EN" "http://www.w3.org/Graphics/SVG/1.1/DTD/svg11.dtd">
<svg version="1.1" id="Layer_1" xmlns="http://www.w3.org/2000/svg" xmlns:xlink="http://www.w3.org/1999/xlink" x="0px" y="0px"
	 width="1600px" height="900px" viewBox="0 0 1600 900" enable-background="new 0 0 1600 900" xml:space="preserve">
<g id="white">
	<g>
		<g>
			<path fill="#FFFFFF" d="M682.267,19.964c-22.966,5.516-44.419,19.058-60.044,36.666C605.149,75.868,594.049,97.743,585,121.653
				c-7.1,18.758-11.628,38.459-14.779,58.235c-3.399,21.341-5.753,42.874-6.287,64.485c-1.389,56.311,17.078,110.328,42.132,160.043
				c24.938,49.489,58.321,95.448,95.699,136.254c1.896,2.069,3.814,4.115,5.743,6.153c15.358,16.232,42.515,15.469,57.982,0
				c16.123-16.123,15.349-41.76,0-57.982c-13.259-14.013-25.747-28.723-37.564-43.967c2.138,2.766,4.274,5.532,6.411,8.297
				c-28.033-36.353-52.536-75.769-70.441-118.114c1.379,3.266,2.757,6.529,4.134,9.795c-10.14-24.249-18.052-49.483-21.72-75.563
				c0.487,3.633,0.977,7.267,1.465,10.899c-3.553-26.501-1.852-53.648,1.627-80.078c-0.488,3.633-0.977,7.267-1.465,10.9
				c3.457-25.687,9.182-51.266,19.188-75.244c-1.378,3.265-2.755,6.53-4.133,9.794c5.156-12.152,11.44-23.802,19.516-34.276
				c-2.137,2.766-4.273,5.532-6.411,8.298c5.024-6.39,10.654-12.208,17.065-17.215c-2.767,2.137-5.532,4.274-8.298,6.411
				c5.242-3.99,10.863-7.331,16.912-9.947c-3.266,1.377-6.529,2.755-9.794,4.133c3.929-1.633,7.946-2.937,12.084-3.931
				c21.727-5.218,34.411-29.436,28.636-50.435C726.633,26.538,703.979,14.75,682.267,19.964L682.267,19.964z"/>
		</g>
	</g>
	<g>
		<g>
			<path fill="#FFFFFF" d="M717.267,34.964c-14.248,5.071-24.445,11.172-36.177,20.359c-8.53,6.68-14.994,15.238-21.373,23.938
				c-11.649,15.89-18.91,35.612-23.929,54.522c-10.438,39.32-11.888,81.513-9.526,121.955c2.352,40.242,7.442,82.081,23.07,119.509
				c10.967,26.264,24.575,50.167,41.854,72.801c17.323,22.689,36.09,44.04,54.862,65.521c3.843,4.396,7.665,8.813,11.458,13.256
				c13.769,16.118,44.193,16.001,57.982,0c6.718-7.794,9.927-12.951,13.156-22.785c2.011-6.115,2.172-13.077,2.187-19.539
				c0.049-22.351-18.688-41-41-41c-22.388,0-40.95,18.65-41,41c-0.004,1.974-0.044,3.927-0.213,5.894
				c0.487-3.634,0.977-7.267,1.465-10.898c-0.205,1.407-0.486,2.684-0.93,4.035c1.377-3.267,2.755-6.53,4.133-9.795
				c-0.324,0.843-0.753,1.629-1.287,2.355c2.137-2.766,4.274-5.531,6.411-8.298c-0.301,0.35-0.604,0.699-0.903,1.049
				c19.327,0,38.655,0,57.982,0c-19.701-23.063-40.419-45.291-58.998-69.294c2.137,2.767,4.273,5.532,6.411,8.298
				c-15.294-19.894-28.79-41.052-38.635-64.191c1.379,3.265,2.756,6.529,4.134,9.794c-9.359-22.414-14.625-45.944-17.884-69.934
				c0.488,3.633,0.978,7.266,1.466,10.899c-5.268-39.342-6.699-79.775-1.54-119.2c-0.488,3.633-0.978,7.266-1.465,10.899
				c2.449-18.197,6.407-36.303,13.517-53.288c-1.378,3.265-2.755,6.529-4.133,9.794c3.666-8.583,8.138-16.773,13.823-24.192
				c-2.138,2.766-4.274,5.532-6.411,8.298c3.909-4.99,8.303-9.508,13.296-13.419c-2.766,2.137-5.532,4.274-8.298,6.411
				c4.288-3.267,8.887-5.992,13.823-8.159c-3.265,1.377-6.529,2.755-9.794,4.133c1.406-0.593,2.824-1.144,4.263-1.655
				c10.355-3.686,18.81-9.125,24.503-18.842c5.547-9.469,7.044-21.01,4.133-31.593C762.104,43.248,738.336,27.467,717.267,34.964
				L717.267,34.964z"/>
		</g>
	</g>
	<g>
		<g>
			<path fill="#FFFFFF" d="M716.964,55.267c-4.773,33.423-5.394,66.283-2.711,99.919c2.495,31.275,7.04,62.342,10.395,93.527
				c3.623,33.666,6.496,67.234,12.513,100.612c5.44,30.186,12.944,59.957,21.471,89.408c5.083,17.556,21.115,30.101,39.536,30.101
				c22.1,0,41.332-18.649,41-41c-0.107-7.265-1.533-14.411-1.666-21.667c-0.407-22.342-18.342-41-41-41
				c-22.042,0-41.408,18.649-41,41c0.132,7.256,1.559,14.402,1.667,21.667c26.845-3.633,53.69-7.266,80.536-10.899
				c-11.58-40-20.979-80.549-26.6-121.835c0.488,3.633,0.978,7.267,1.466,10.899c-2.544-19.047-3.896-38.184-5.92-57.284
				c-2.112-19.922-4.736-39.785-7.019-59.688c-4.529-39.526-7.748-79.592-2.637-119.227c-0.488,3.633-0.977,7.267-1.465,10.899
				c0.16-1.212,0.329-2.423,0.506-3.633c1.637-11.464,1.973-21.168-4.133-31.593c-5.369-9.166-14.254-16.023-24.503-18.842
				c-10.583-2.911-22.124-1.414-31.594,4.133C727.603,35.57,718.377,45.377,716.964,55.267L716.964,55.267z"/>
		</g>
	</g>
	<g>
		<g>
			<path fill="#FFFFFF" d="M760.5,72.833c0.12,12.905,2.086,25.869,4.786,38.471c2.129,9.939,5.379,19.603,7.484,29.539
				c4.272,20.161,7.597,40.517,10.342,60.938c-0.488-3.633-0.978-7.267-1.465-10.899c5.973,45.111,8.946,90.58,11.278,136.006
				c2.381,46.363,0.744,92.832,10.706,138.511c4.764,21.839,29.78,34.316,50.436,28.636c22.398-6.161,33.394-28.619,28.636-50.436
				c-1.542-7.073-2.777-14.194-3.779-21.364c0.488,3.633,0.978,7.266,1.465,10.898c-3.748-28.031-3.925-56.337-4.671-84.56
				c-0.762-28.813-2.677-57.646-4.824-86.387c-2.438-32.634-6.053-65.149-10.88-97.518c-2.185-14.647-4.784-29.231-7.775-43.735
				c-3.058-14.82-8.033-29.102-10.164-44.139c0.487,3.633,0.977,7.266,1.464,10.899c-0.629-4.944-0.989-9.877-1.036-14.862
				c-0.208-22.347-18.492-41-41-41C779.308,31.833,760.292,50.482,760.5,72.833L760.5,72.833z"/>
		</g>
	</g>
	<g>
		<g>
			<path fill="#FFFFFF" d="M817.509,58.491c2.35,2.628,4.596,5.333,6.757,8.119c-2.137-2.766-4.273-5.532-6.411-8.298
				c9.16,12.045,16.359,25.347,22.24,39.265c-1.378-3.265-2.755-6.529-4.133-9.794c11.469,27.625,17.811,57.079,21.848,86.629
				c-0.487-3.633-0.977-7.266-1.465-10.899c4.288,32.047,5.219,64.223,6.33,96.482c0.975,28.291,1.618,56.596,1.206,84.904
				c-0.352,24.197-1.339,48.493-4.524,72.503c0.488-3.634,0.978-7.268,1.465-10.899c-1.748,12.914-3.957,26.131-8.952,38.242
				c1.378-3.265,2.756-6.529,4.133-9.794c-1.424,3.367-3.088,6.63-5.307,9.549c2.137-2.766,4.273-5.532,6.411-8.298
				c-1.058,1.342-2.213,2.571-3.547,3.642c2.767-2.137,5.532-4.273,8.299-6.411c-1.016,0.774-2.084,1.419-3.259,1.92
				c3.266-1.378,6.529-2.756,9.794-4.133c-0.916,0.357-1.842,0.608-2.813,0.756c3.633-0.487,7.267-0.977,10.898-1.465
				c-1.139,0.138-2.255,0.122-3.393-0.022c3.634,0.487,7.268,0.976,10.898,1.464c-0.534-0.084-1.061-0.191-1.586-0.32
				c-21.69-5.313-44.387,6.646-50.436,28.636c-5.797,21.073,6.934,45.119,28.636,50.436c4.892,1.198,10.089,2.17,15.146,1.885
				c11.66-0.656,14.114-2.119,24.577-6.574c9.309-3.963,15.998-13.063,21.729-20.867c7.877-10.729,11.878-25.232,14.668-38.158
				c7.262-33.64,8.678-68.776,9.176-103.088c0.408-28.167-0.271-56.334-1.241-84.483c-1.233-35.796-2.916-71.256-7.773-106.802
				C929.407,97.93,912.96,42.427,875.491,0.51c-14.899-16.669-42.85-15.134-57.982,0C801.052,16.966,802.628,41.844,817.509,58.491
				L817.509,58.491z"/>
		</g>
	</g>
	<g>
		<g>
			<path fill="#FFFFFF" d="M938.219,29.234c-1.524-0.799-3.053-1.597-4.581-2.395c-3.731-1.686-7.457-3.386-11.176-5.098
				c5.725,3.583,11.64,6.863,17.735,9.76C939.547,30.738,938.886,29.984,938.219,29.234z"/>
			<path fill="#FFFFFF" d="M917.846-19.817c2.326,1.471,4.627,2.983,6.899,4.543C922.597-17.004,920.255-18.53,917.846-19.817z"/>
			<path fill="#FFFFFF" d="M1022.581,117.056c-6.976-17.59-15.049-33.638-28.423-47.373c-5.745-5.9-12.592-11.255-19.917-15.044
				c-5.452-2.82-10.455-4.795-15.558-6.232c-0.248-0.569-0.489-1.141-0.74-1.709c-1.182,1.021-2.782,1.52-4.439,0.957
				c-17.261-5.859-33.691-14.664-48.295-25.56c-13.432-10.022-26.033-21.643-34.887-35.991c-5.548,5.156-9.663,11.804-11.688,19.164
				c-3.141,11.406-0.686,21.22,4.13,31.592c6.997,15.069,14.842,29.735,21.61,44.908c5.964,15.163,10.386,30.809,13.022,46.877
				c4.113,37.483,0.593,75.272-2.215,112.734c-2.837,37.863-5.984,75.737-10.854,113.404c-1.431,10.061-3.035,20.091-4.856,30.073
				c-9.305,6.965-17.46,15.107-23.861,25.154c-8.636,13.552-10.769,31.1-10.611,46.788c0.118,11.786,1.687,23.735,3.952,35.369
				c-1.475,3.338-2.974,6.666-4.521,9.972c-3.709,6.396-5.574,13.293-5.598,20.693c0,10.83,4.354,21.337,12.009,28.991
				c13.069,13.068,33.72,15.646,49.685,6.411c24.688-14.283,45.896-34.927,58.989-60.43c10.153-19.776,15.56-40.789,20.395-62.111
				c4.079-9.338,8.128-18.679,13.212-27.543c10.027-17.486,19.833-34.776,23.181-54.448c4.422-10.337,8.307-20.932,11.53-31.668
				c10.734-35.745,14.2-73.417,12.204-110.585C1038.34,179.862,1034.324,146.669,1022.581,117.056z"/>
		</g>
	</g>
	<g>
		<g>
			<path fill="#FFFFFF" d="M713.631,532.066c2.317,15.78,13.219,27.796,25.688,36.61c9.645,6.818,23.89,8.968,35.306,9.189
				c16.29,0.316,32.041-4.791,48.021-6.999c-3.634,0.488-7.267,0.977-10.898,1.465c0.473-0.063,0.946-0.118,1.421-0.166
				c11.296-1.229,20.667-3.685,28.991-12.009c7.654-7.654,12.009-18.161,12.009-28.991s-4.354-21.337-12.009-28.991
				c-6.975-6.975-18.771-13.119-28.991-12.009c-13.209,1.436-25.974,4.69-39.104,6.457c3.633-0.488,7.267-0.977,10.898-1.465
				c-5.041,0.63-10.098,0.965-15.161,0.406c3.634,0.487,7.267,0.976,10.899,1.464c-2.372-0.325-4.643-0.851-6.871-1.731
				c3.265,1.377,6.529,2.755,9.794,4.133c-1.272-0.568-2.445-1.223-3.584-2.027c2.766,2.137,5.532,4.272,8.298,6.411
				c-1.092-0.864-2.029-1.796-2.898-2.885c2.137,2.768,4.273,5.532,6.41,8.298c-0.679-0.959-1.241-1.932-1.748-2.992
				c1.379,3.265,2.756,6.529,4.134,9.795c-0.771-1.876-1.238-3.758-1.532-5.763c-1.454-9.902-10.608-19.68-18.842-24.503
				c-9.469-5.547-21.01-7.044-31.594-4.133c-10.248,2.818-19.134,9.677-24.502,18.842
				C711.675,510.869,711.951,520.626,713.631,532.066L713.631,532.066z"/>
		</g>
	</g>
	<g>
		<g>
			<path fill="#FFFFFF" d="M788.86,612.431c-23.939-17.876-49.566-33.304-75.598-47.909c-25.751-14.449-51.703-29.025-78.512-41.43
				c-30.15-13.95-61.462-25.927-94.122-32.415c-30.541-6.067-61.646-8.631-91.992-0.089c-46.11,12.979-84.048,49.509-102.613,93.177
				c-5.096,11.987-9.756,23.813-12.774,36.499c-3.138,13.188-4.896,26.85-5.745,40.365c-0.655,10.428-0.259,20.909,0.986,31.278
				c1.025,8.539,1.852,17.592,4.707,25.813c3.939,11.348,9.269,20.389,17.645,29.104c19.328-19.327,38.655-38.655,57.982-57.982
				c-3.778-3.709-7.309-7.6-10.569-11.771c2.137,2.766,4.274,5.532,6.411,8.298c-4.081-5.416-7.559-11.141-10.308-17.344
				c1.377,3.265,2.755,6.528,4.133,9.795c-2.38-5.678-4.051-11.506-4.981-17.592c0.488,3.633,0.977,7.267,1.464,10.898
				c-0.839-6.35-0.838-12.665-0.089-19.023c-0.488,3.634-0.976,7.267-1.464,10.898c1.138-8.389,3.509-16.435,6.755-24.242
				c-1.378,3.266-2.756,6.529-4.133,9.794c5.022-11.659,11.771-22.378,19.441-32.468c-2.137,2.768-4.274,5.532-6.411,8.298
				c6.603-8.546,13.805-16.569,21.418-24.226c12.985-13.059,15.747-33.748,6.411-49.686c-9.052-15.449-28.822-24.296-46.302-18.842
				c-27.36,8.536-40.646,33.313-48.874,58.86c-6.843,21.251-9.674,43.838-12.356,65.905c-2.445,20.127-3.938,40.517,3.875,59.848
				c6.379,15.784,14.659,30.816,28.029,41.876c6.359,5.26,12.792,10.386,20.42,13.608c12.189,5.153,21.311,7.813,34.806,8.771
				c22.319,1.584,41-19.849,41-41c0-10.83-4.354-21.337-12.009-28.991c-8.097-8.097-17.835-11.217-28.991-12.009
				c-1.352-0.096-2.685-0.231-4.028-0.41c3.633,0.488,7.266,0.978,10.899,1.465c-3.478-0.57-6.801-1.482-10.085-2.762
				c3.265,1.378,6.529,2.756,9.794,4.134c-3.986-1.685-7.646-3.814-11.111-6.404c2.766,2.138,5.532,4.274,8.298,6.411
				c-3.752-2.95-7.057-6.284-10.031-10.017c2.137,2.766,4.273,5.531,6.411,8.298c-3.438-4.51-6.236-9.351-8.465-14.563
				c1.378,3.265,2.755,6.528,4.133,9.794c-2.088-5.166-3.535-10.469-4.286-15.99c0.488,3.633,0.976,7.266,1.464,10.898
				c-1.461-12.865,0.996-26.618,2.692-39.37c-0.488,3.634-0.977,7.267-1.465,10.898c2.709-20.006,6.131-40.608,14.012-59.315
				c-1.379,3.265-2.757,6.528-4.133,9.794c1.875-4.32,4.021-8.505,6.856-12.279c-2.137,2.766-4.274,5.532-6.411,8.298
				c1.341-1.705,2.791-3.262,4.484-4.622c-2.767,2.137-5.532,4.273-8.298,6.411c1.03-0.771,2.09-1.427,3.253-1.977
				c-3.265,1.378-6.529,2.756-9.794,4.133c0.564-0.235,1.124-0.44,1.708-0.623c-13.297-22.842-26.594-45.686-39.891-68.526
				c-25.033,25.171-48.283,55.756-56.701,90.9c-4.598,19.197-4.679,39.388,0.688,58.442c5.952,21.132,18.811,40.057,34.346,55.306
				c15.94,15.646,42.077,15.905,57.982,0c16.032-16.031,15.475-41.878,0-57.982c-0.985-1.024-1.91-2.064-2.804-3.171
				c2.137,2.766,4.274,5.532,6.411,8.298c-1.546-2.099-2.795-4.268-3.836-6.657c1.377,3.266,2.755,6.53,4.133,9.795
				c-1.844-4.74-2.853-9.771-3.537-14.802c0.488,3.633,0.976,7.268,1.464,10.899c-1.937-15.132-1.875-30.389,0.096-45.514
				c-0.488,3.633-0.977,7.267-1.465,10.898c2.049-14.865,5.91-29.373,11.673-43.232c-1.378,3.266-2.756,6.529-4.133,9.796
				c5.048-11.875,11.429-23.078,19.288-33.32c-2.138,2.766-4.274,5.532-6.411,8.298c6.499-8.313,13.87-15.818,22.185-22.321
				c-2.766,2.138-5.531,4.273-8.298,6.411c7.717-5.908,16.056-10.813,25.006-14.608c-3.265,1.378-6.529,2.756-9.794,4.134
				c8.928-3.667,18.205-6.128,27.769-7.428c-3.634,0.487-7.268,0.977-10.899,1.465c12.778-1.587,25.466-0.816,38.202,0.823
				c-3.633-0.487-7.266-0.977-10.899-1.465c30.025,4.088,59.051,13.273,86.911,25.02c-3.265-1.378-6.53-2.756-9.794-4.134
				c29.451,12.555,57.487,28.309,85.477,43.786c28.216,15.604,56.042,32.109,81.904,51.423c8.349,6.234,21.989,6.774,31.594,4.134
				c10.249-2.818,19.134-9.678,24.502-18.843c5.547-9.469,7.045-21.011,4.134-31.593C804.625,625.749,797.805,619.11,788.86,612.431
				L788.86,612.431z"/>
		</g>
	</g>
	<g>
		<g>
			<path fill="#FFFFFF" d="M317.473,635.765c-26.978,11.73-43.887,41.952-34.912,70.904c7.292,23.521,26.054,39.925,45.653,53.416
				c15.631,10.761,33.777,19.282,51.889,24.776c9.305,2.821,19.295,4.31,29.006,3.851c18.75-0.887,34.78-6.033,51.794-13.332
				c27.199-11.67,50.156-31.177,77.401-42.761c-3.265,1.378-6.528,2.756-9.794,4.133c8.877-3.662,18.162-6.381,27.67-7.803
				c-3.633,0.488-7.266,0.977-10.898,1.465c6.277-0.814,12.512-0.857,18.792-0.038c-3.633-0.488-7.267-0.977-10.899-1.465
				c6.244,0.938,12.231,2.681,18.07,5.07c-3.266-1.378-6.529-2.755-9.794-4.134c20.042,8.538,36.501,23.341,54.607,35.119
				c10.053,6.54,20.726,11.342,31.742,15.995c15.931,6.729,31.88,13.394,48.062,19.504c29.619,11.188,59.278,19.577,90.742,23.477
				c28.218,3.496,57.69-0.074,84.927-7.862c51.969-14.861,97.15-46.085,146.526-67.107c-3.266,1.377-6.529,2.755-9.795,4.133
				c23.834-10.038,48.329-19.613,74.086-23.187c-3.634,0.488-7.267,0.978-10.898,1.465c10.434-1.319,20.862-1.552,31.306-0.189
				c-3.633-0.488-7.267-0.978-10.899-1.465c7.611,1.132,14.941,3.088,22.077,5.974c-3.265-1.377-6.528-2.755-9.794-4.133
				c3.257,1.534,6.273,3.421,9.152,5.577c-2.766-2.138-5.532-4.273-8.298-6.41c7.078,5.475,12.96,12.242,18.424,19.287
				c-2.137-2.767-4.273-5.532-6.411-8.298c12.748,16.61,23.691,34.448,37.249,50.473c16.193,19.139,38.603,32.231,64.021,32.941
				c15.979,0.445,30.836-5.84,44.942-12.501c13.826-6.529,26.375-16.391,37.583-26.65c23.266-21.3,39.777-49.366,50.251-78.876
				c5.045-14.214,8.006-29.923,8.267-44.959c0.305-17.488-4.625-33.357-11.88-48.979c-5.626-12.11-14.735-23.035-24.043-32.477
				c-9.87-10.014-21.446-18.519-32.901-26.589c-49.033-34.546-106.069-59.63-167.062-58.691
				c-38.204,0.589-73.522,13.114-106.149,32.399c-13.967,8.256-27.256,17.619-40.443,27.052
				c-6.241,4.465-12.457,8.964-18.713,13.408c-11.114,7.897-23.923,14.719-31.063,26.703c2.139-2.767,4.274-5.532,6.411-8.298
				c-0.874,1.086-1.745,1.924-2.842,2.783c2.766-2.138,5.532-4.273,8.298-6.411c-1.544,1.02-3.141,1.877-4.792,2.709
				c13.796,23.602,27.591,47.203,41.387,70.805c14.873-9.033,30.49-16.785,46.5-23.586c-3.266,1.378-6.529,2.756-9.795,4.133
				c28.203-11.883,57.782-20.891,88.143-25.104c-3.633,0.487-7.266,0.977-10.898,1.464c17.909-2.399,36.058-3.07,54.015-0.768
				c-3.634-0.486-7.268-0.976-10.9-1.464c11.581,1.574,22.912,4.403,33.697,8.941c-3.265-1.377-6.529-2.755-9.794-4.133
				c7.785,3.368,15.104,7.572,21.864,12.701c-2.767-2.137-5.531-4.272-8.298-6.41c6.611,5.14,12.48,11.04,17.627,17.646
				c-2.138-2.767-4.274-5.532-6.411-8.298c4.84,6.366,9.01,13.18,12.15,20.544c-1.378-3.265-2.755-6.529-4.133-9.794
				c2.025,5.002,3.509,10.115,4.259,15.465c-0.488-3.633-0.977-7.267-1.465-10.898c0.478,4.067,0.504,8.089-0.018,12.152
				c0.488-3.633,0.977-7.266,1.465-10.898c-0.539,3.485-1.46,6.813-2.817,10.07c1.378-3.265,2.756-6.528,4.134-9.794
				c-1.298,2.888-2.872,5.558-4.761,8.098c2.138-2.768,4.273-5.532,6.411-8.299c-2.271,2.895-4.834,5.437-7.7,7.739
				c2.767-2.137,5.531-4.272,8.298-6.411c-3.868,2.959-8.041,5.319-12.5,7.271c3.267-1.378,6.529-2.755,9.796-4.133
				c-6.582,2.726-13.423,4.435-20.459,5.494c3.633-0.488,7.267-0.978,10.898-1.466c-11.215,1.078-22.374,0.438-33.528-0.977
				c3.634,0.488,7.267,0.977,10.898,1.465c-14.351-1.931-28.523-4.941-42.843-7.078c-17.404-2.597-34.358-3.652-51.908-3.819
				c-6.464-0.063-12.919,0.169-19.339,0.936c-8.138,0.972-17.1,1.635-24.852,4.735c-7.887,3.153-15.247,6.574-22.603,10.732
				c-4.578,2.589-9.134,5.215-13.953,7.335c3.265-1.378,6.529-2.756,9.794-4.134c-2.367,0.979-4.731,1.787-7.262,2.22
				c3.633-0.487,7.267-0.976,10.898-1.464c-5.552,0.632-9.127,0.141-15.582,1.606c-5.772,1.313-11.093,4.245-16.484,6.653
				c3.265-1.378,6.53-2.756,9.795-4.134c-0.764,0.315-1.451,0.593-2.266,0.722c15.434,6.279,30.867,12.561,46.302,18.842
				c-0.171-0.388-0.342-0.774-0.513-1.161c1.377,3.265,2.756,6.529,4.133,9.794c-1.083-2.758-1.795-5.53-2.203-8.465
				c0.488,3.633,0.977,7.266,1.465,10.898c-0.35-3.422-0.264-6.771,0.169-10.181c-0.488,3.633-0.978,7.266-1.465,10.899
				c0.771-4.94,2.206-9.642,4.121-14.255c-1.377,3.266-2.755,6.529-4.134,9.794c2.89-6.581,6.606-12.659,10.945-18.384
				c-2.137,2.768-4.272,5.532-6.41,8.298c4.833-6.184,10.268-11.796,16.427-16.668c-2.767,2.138-5.532,4.273-8.298,6.411
				c2.867-2.192,5.69-4.093,9-5.555c-3.266,1.378-6.529,2.756-9.795,4.133c9.559-4.029,19.534-6.536,29.795-7.97
				c-3.635,0.488-7.268,0.976-10.899,1.464c16.351-2.087,32.821-1.483,49.139,0.61c-3.634-0.488-7.267-0.978-10.898-1.466
				c29.702,4.001,60.39,10.532,88.085,22.186c-3.266-1.378-6.529-2.755-9.794-4.133c10.34,4.424,20.3,9.717,29.235,16.585
				c-2.766-2.138-5.531-4.273-8.298-6.41c5.063,3.982,9.679,8.421,13.637,13.513c-2.137-2.766-4.272-5.53-6.409-8.298
				c2.973,3.952,5.449,8.164,7.373,12.722c-1.378-3.265-2.756-6.528-4.134-9.794c1.634,4.084,2.759,8.273,3.406,12.624
				c-0.487-3.633-0.976-7.267-1.464-10.898c0.714,5.528,0.618,11.026-0.108,16.549c0.488-3.633,0.978-7.266,1.464-10.899
				c-0.059,0.396-0.116,0.788-0.176,1.184c24.979-3.266,49.958-6.529,74.938-9.794c-9.096-19.807-23.733-37.611-39.686-52.313
				c-17.591-16.214-37.854-30.156-59.654-40.062c-24.608-11.181-49.396-18.409-76.541-19.85c-13.046-0.69-26.616,0.845-39.208,4.135
				c-14.624,3.82-28.453,10.756-42.309,16.633c3.265-1.378,6.529-2.756,9.794-4.134c-8.326,3.504-16.721,6.781-25.485,9.021
				c-9.88,2.522-20.188,3.802-30.246,5.421c-21.344,3.438-42.68,7.413-64.086,10.392c3.635-0.488,7.268-0.978,10.899-1.466
				c-33.613,4.497-67.508,4.149-101.103-0.335c3.633,0.488,7.267,0.978,10.898,1.466c-24.598-3.388-48.819-8.834-72.727-15.492
				c-21.189-5.9-42.685-12.084-62.984-20.617c3.265,1.378,6.529,2.756,9.794,4.134c-17.981-7.624-35.667-16.138-54.21-22.345
				c-19.567-6.55-42.761-10.109-62.783-3.428c-10.336,3.448-18.896,9.271-24.503,18.842c-7.93,13.536-6.37,27.773,0,41.387
				c10.88,23.252,30.289,41.192,51.072,55.549c19.715,13.618,42.842,22.839,65.531,30.145
				c42.265,13.607,87.437,19.038,131.638,21.178c45.084,2.183,90.114-0.23,134.653-7.647c43.049-7.168,86.967-21.362,123.2-46.181
				c-20.075-15.434-40.151-30.868-60.229-46.302c-0.369,1.988-0.939,3.875-1.701,5.747c1.377-3.266,2.755-6.529,4.133-9.794
				c-1.256,2.838-2.86,5.424-4.729,7.897c2.137-2.767,4.273-5.531,6.411-8.299c-3.754,4.76-8.229,8.798-13.011,12.499
				c2.766-2.138,5.53-4.273,8.298-6.411c-15.073,11.402-32.466,19.505-49.791,26.84c3.265-1.377,6.528-2.755,9.794-4.133
				c-10.758,4.525-21.624,8.903-32.557,12.989c-17.921,6.698-36.75,10.671-55.669,13.247c3.634-0.488,7.268-0.977,10.899-1.465
				c-31.045,4.067-62.836,5.986-93.958,1.841c3.633,0.488,7.266,0.977,10.899,1.465c-32.786-4.57-64.418-14.718-94.877-27.482
				c3.266,1.378,6.529,2.756,9.795,4.133c-58.452-24.714-112.168-58.709-167.043-90.243c-12.732-7.317-28.663-7.453-41.387,0
				c-11.724,6.868-21.402,21.314-20.307,35.402c0.982,12.645,3.2,19.945,8.156,31.334c3.31,7.604,8.668,13.826,13.749,20.325
				c8.563,10.953,20.446,19.47,31.492,27.628c18.582,13.726,38.874,25.196,58.229,37.771c27.315,17.747,54.624,34.735,85.428,45.887
				c29.293,10.604,61.195,14.635,91.985,17.909c21.551,2.292,43.215,3.406,64.865,4.232c20.705,0.79,41.429,1.717,62.131,0.39
				c23.517-1.507,47.359-5.08,69.789-12.484c12.487-4.123,24.746-9.388,36.402-15.47c12.417-6.479,23.477-14.856,34.432-23.531
				c-21.465-16.562-42.93-33.123-64.395-49.685c-2.697,4.865-5.702,9.502-9.07,13.931c2.138-2.767,4.273-5.532,6.411-8.298
				c-5.286,6.744-11.297,12.747-18.036,18.037c2.766-2.137,5.53-4.273,8.298-6.41c-8.136,6.209-17.005,11.184-26.408,15.193
				c3.265-1.377,6.528-2.755,9.794-4.133c-15.901,6.594-32.418,9.701-49.247,12.854c-18.691,3.5-37.208,7.902-56.07,10.443
				c3.634-0.488,7.268-0.978,10.899-1.465c-13.563,1.743-27.216,2.479-40.828,0.839c3.633,0.487,7.267,0.977,10.898,1.465
				c-8.709-1.173-17.127-3.328-25.24-6.724c3.265,1.379,6.528,2.757,9.794,4.135c-9.455-4.162-17.744-10.071-25.879-16.35
				c2.766,2.138,5.531,4.274,8.298,6.411c-22.453-17.417-43.979-37.015-61.454-59.501c2.137,2.767,4.274,5.532,6.411,8.298
				c-5.871-7.647-11.285-15.712-15.155-24.573c1.377,3.265,2.755,6.528,4.133,9.794c-1.657-3.938-2.966-7.974-3.628-12.201
				c0.488,3.633,0.977,7.266,1.464,10.898c-0.368-2.741-0.438-5.452-0.088-8.198c-0.487,3.633-0.977,7.266-1.465,10.898
				c0.299-1.888,0.785-3.686,1.498-5.459c-1.377,3.266-2.755,6.529-4.133,9.794c1.337-3.026,3.355-5.587,5.354-8.204
				c-2.137,2.768-4.273,5.532-6.411,8.299c9.195-11.737,20.562-21.25,31.908-30.811c13.772-11.604,26.061-24.113,35.875-39.38
				c13.139-20.435,18.005-44.921,19.098-68.824c1.054-23.071-2.517-47.117-8.748-69.301c-4.938-17.575-21.226-30.101-39.536-30.101
				c-18.445,0-34.421,12.549-39.536,30.101c-8.374,28.737-16.525,57.614-28.096,85.271c1.377-3.265,2.754-6.528,4.133-9.794
				c-6.398,15.095-13.779,29.857-23.571,43.063c23.602,0,47.203,0,70.805,0c-0.525-1.114-1.03-2.235-1.516-3.367
				c1.377,3.266,2.755,6.529,4.133,9.794c-3.444-8.292-5.587-17.006-6.793-25.892c0.488,3.633,0.976,7.266,1.464,10.898
				c-1.289-10.18-1.318-20.44-0.019-30.622c-0.488,3.635-0.977,7.268-1.464,10.899c1.137-8.264,3.146-16.34,6.313-24.066
				c-1.378,3.266-2.755,6.529-4.133,9.794c2.337-5.501,5.222-10.686,8.827-15.458c-2.138,2.767-4.274,5.531-6.411,8.299
				c2.991-3.829,6.363-7.247,10.209-10.222c-2.766,2.138-5.532,4.273-8.298,6.411c3.438-2.557,7.104-4.655,11.05-6.329
				c-3.266,1.378-6.529,2.755-9.794,4.133c4.26-1.708,8.64-2.844,13.18-3.507c-3.633,0.488-7.266,0.978-10.898,1.465
				c5.219-0.66,10.559-0.814,15.791-0.198c-3.634-0.488-7.267-0.978-10.899-1.464c3.382,0.474,6.629,1.326,9.8,2.598
				c-3.265-1.378-6.528-2.756-9.794-4.134c3.335,1.421,6.413,3.233,9.315,5.402c-2.767-2.137-5.532-4.272-8.298-6.409
				c4.168,3.234,7.754,7.046,10.977,11.214c-2.137-2.767-4.273-5.532-6.411-8.298c6.592,8.734,11.467,18.584,15.745,28.617
				c-1.378-3.265-2.755-6.528-4.133-9.794c7.273,17.264,12.747,35.198,19.277,52.74c7.632,20.503,16.117,41.294,31.721,57.179
				c7.554,7.69,18.242,12.01,28.991,12.01c10.049,0,22.297-4.063,28.991-12.01c7.509-8.914,14.343-18.157,19.592-28.561
				c5.485-10.87,9.92-22.385,13.783-33.93c5.793-17.308,10.176-35.065,17.247-51.931c-1.378,3.266-2.756,6.529-4.134,9.794
				c4.102-9.542,9.043-18.604,15.389-26.849c-2.138,2.766-4.274,5.532-6.411,8.298c0.938-1.18,1.893-2.341,2.868-3.49
				c-16.563,2.138-33.123,4.274-49.686,6.411c0.365,0.275,0.73,0.552,1.096,0.826c-2.766-2.137-5.531-4.273-8.298-6.411
				c0.689,0.589,1.314,1.239,1.874,1.952c-2.137-2.766-4.273-5.531-6.411-8.298c1.091,1.506,1.949,3.039,2.729,4.726
				c-1.377-3.266-2.755-6.529-4.133-9.795c1.01,2.457,1.811,4.976,2.636,7.497c6.938,21.224,28.115,34.775,50.435,28.637
				c20.771-5.714,35.583-29.188,28.636-50.436c-2.077-6.354-4.521-12.43-7.346-18.54c-4.248-9.195-12.033-15.088-19.829-20.963
				c-13.674-10.304-38.86-6.332-49.685,6.411c-7.738,9.11-14.824,18.67-20.321,29.289c-5.683,10.979-10.219,22.666-14.214,34.359
				c-6.023,17.633-10.376,35.813-17.581,53.036c1.378-3.265,2.756-6.528,4.134-9.794c-3.763,8.771-8.262,17.122-14.046,24.734
				c2.138-2.766,4.274-5.532,6.411-8.298c-0.888,1.13-1.791,2.24-2.717,3.339c19.327,0,38.655,0,57.982,0
				c-1.416-1.442-2.729-2.96-3.978-4.55c2.138,2.766,4.274,5.53,6.411,8.298c-5.382-7.064-9.271-15.111-12.737-23.25
				c1.378,3.265,2.756,6.529,4.134,9.794c-6.875-16.361-12.064-33.37-18.213-50.006c-4.169-11.281-8.732-22.477-13.958-33.311
				c-4.989-10.35-11.385-19.05-18.417-28.144c-32.518-42.048-100.936-39.573-135.283-1.234
				c-36.649,40.907-38.358,104.094-15.687,152.086c6.012,12.728,21.946,20.308,35.402,20.308c7.4-0.023,14.299-1.89,20.692-5.599
				c6.161-3.645,11.064-8.548,14.709-14.709c15.637-21.088,25.702-46.244,34.691-70.706c8.127-22.114,14.521-44.814,21.109-67.422
				c-26.357,0-52.715,0-79.071,0c2.528,8.996,4.396,18.13,5.688,27.384c-0.487-3.633-0.977-7.266-1.464-10.898
				c1.933,14.764,2.382,29.682,0.409,44.466c0.488-3.633,0.977-7.267,1.464-10.898c-1.174,7.961-3.144,15.653-6.232,23.093
				c1.378-3.266,2.756-6.529,4.133-9.794c-2.925,6.723-6.652,12.938-11.13,18.739c2.137-2.767,4.273-5.531,6.41-8.299
				c-12.865,16.226-30.338,27.741-45.041,42.126c-3.721,3.64-7.201,7.511-10.459,11.566c-4.119,5.129-9.78,11.194-12.588,17.552
				c-4.813,10.898-6.063,15.441-7.257,27.587c-0.646,6.575,0.88,13.742,2.136,20.021c4.484,22.417,20.412,42.665,34.688,59.657
				c12.455,14.821,26.656,28.205,41.378,40.742c8.387,7.143,17.1,13.902,25.887,20.539c11.01,8.314,22.361,14.017,35.265,19.143
				c14.706,5.843,31.473,7.652,47.157,7.957c16.403,0.316,32.937-2.271,49.058-4.947c13.432-2.229,26.729-5.198,40.086-7.831
				c12.286-2.423,24.619-4.278,36.688-7.706c28.082-7.977,55.42-22.465,75.211-44.264c7.646-8.423,14.591-17.84,20.117-27.806
				c8.969-16.169,6.835-36.438-6.41-49.685c-7.654-7.654-18.16-12.009-28.991-12.009c-11.871,0-20.061,4.938-28.991,12.009
				c-0.875,0.699-1.756,1.391-2.645,2.072c2.766-2.139,5.53-4.274,8.297-6.411c-11.31,8.585-23.55,15.66-36.59,21.271
				c3.266-1.378,6.529-2.756,9.795-4.134c-17.42,7.308-35.729,11.835-54.424,14.364c3.633-0.488,7.268-0.977,10.899-1.464
				c-26.104,3.364-52.239,2.401-78.461,1.44c-27.412-1.005-54.831-2.563-82.042-6.134c3.633,0.488,7.266,0.978,10.898,1.465
				c-25.439-3.425-51.201-8.325-74.975-18.288c3.265,1.377,6.529,2.756,9.794,4.134c-26.18-11.25-49.794-27.479-73.636-42.883
				c-18.434-11.906-37.696-22.79-55.108-36.205c2.767,2.138,5.532,4.273,8.298,6.41c-7.19-5.627-14.009-11.725-19.647-18.938
				c2.137,2.766,4.273,5.531,6.411,8.298c-2.604-3.46-4.85-7.084-6.58-11.061c1.378,3.267,2.755,6.53,4.133,9.795
				c-1.106-2.756-1.902-5.533-2.35-8.471c0.487,3.633,0.977,7.267,1.465,10.899c-0.098-0.722-0.167-1.444-0.209-2.17
				c-20.564,11.801-41.129,23.602-61.693,35.401c102.496,58.9,209.76,131.22,333.229,125.18
				c28.766-1.407,57.826-4.225,85.854-11.057c18.371-4.479,35.953-11.786,53.396-18.995c19.228-7.946,38.629-16.07,56.078-27.542
				c19.455-12.79,40.521-31.241,45.007-55.423c2.733-14.738,0.467-28.881-10.544-39.891c-12.329-12.329-34.619-16.729-49.686-6.411
				c-12.469,8.54-25.818,15.589-39.727,21.478c3.265-1.378,6.528-2.756,9.794-4.133c-28.482,11.865-58.713,18.803-89.229,22.906
				c3.634-0.488,7.268-0.977,10.9-1.465c-52.195,6.844-106.058,6.431-158.233-0.521c3.633,0.488,7.267,0.978,10.899,1.466
				c-31.936-4.326-63.849-11.293-93.654-23.785c3.265,1.378,6.529,2.755,9.794,4.133c-14.009-5.96-27.466-13.189-39.551-22.497
				c2.766,2.137,5.532,4.273,8.298,6.41c-7.3-5.729-13.952-12.155-19.652-19.491c2.138,2.766,4.274,5.532,6.411,8.298
				c-3.889-5.134-7.227-10.588-9.957-16.423c-8.167,20.076-16.335,40.152-24.503,60.229c2.44-0.813,4.896-1.357,7.444-1.701
				c-3.633,0.487-7.268,0.977-10.899,1.465c4.747-0.508,9.447-0.289,14.171,0.342c-3.633-0.487-7.266-0.976-10.898-1.464
				c13.684,2.06,26.707,7.128,39.405,12.452c-3.266-1.378-6.529-2.755-9.794-4.133c13.393,5.66,26.617,11.707,40.114,17.123
				c11.811,4.739,24.162,8.312,36.311,12.066c28.334,8.761,57.145,16.074,86.477,20.593c32.688,5.036,65.454,7.512,98.487,5.008
				c18.982-1.439,37.713-4.68,56.46-7.845c16.238-2.742,32.538-5.1,48.78-7.812c10.198-1.703,20.314-3.399,30.146-6.681
				c12.479-4.163,24.449-9.828,36.549-14.953c-3.265,1.378-6.528,2.756-9.794,4.133c9.961-4.184,20.059-8.104,30.784-9.773
				c-3.634,0.488-7.267,0.977-10.899,1.464c9.944-1.308,20.002-1.025,29.933,0.253c-3.633-0.487-7.267-0.977-10.899-1.465
				c14.146,1.972,27.834,6.014,40.999,11.506c-3.265-1.378-6.528-2.756-9.794-4.133c15.393,6.563,29.853,15.021,43.158,25.162
				c-2.767-2.138-5.532-4.273-8.298-6.411c11.613,8.991,22.213,19.184,31.229,30.796c-2.138-2.766-4.273-5.531-6.411-8.298
				c5.571,7.321,10.432,15.097,14.273,23.464c5.854,12.75,22.067,20.308,35.402,20.308c7.4-0.023,14.299-1.89,20.692-5.599
				c8.251-4.833,17.363-14.592,18.843-24.503c2.399-16.088,3.164-30.522-1.177-46.519c-4.016-14.799-11.671-26.27-21.092-38.004
				c-15.156-18.88-37.97-29.931-59.737-39.088c-16.745-7.045-34.328-11.817-52.064-15.609c-25.572-5.467-51.73-10.265-77.958-9.96
				c-17.143,0.199-34.918,2.485-51.239,7.851c-8.828,2.902-17.826,6.27-25.335,11.809c-7.216,5.321-14.119,10.755-20.226,17.306
				c-12.928,13.866-22.016,29.181-28.517,46.896c-3.057,8.329-4.186,17.637-4.487,26.42c-0.449,12.988,3.451,23.792,8.562,35.361
				c3.646,6.161,8.548,11.064,14.709,14.709c10.323,6.048,20.213,5.918,31.593,4.133c5.384-0.845,10.295-4.13,15.314-6.293
				c-3.266,1.377-6.529,2.756-9.794,4.134c1.143-0.444,2.239-0.81,3.435-1.08c-3.633,0.487-7.267,0.977-10.898,1.465
				c6.188-0.554,12.467-0.627,18.573-2.271c6.454-1.737,12.617-4.825,18.581-7.827c7.504-3.774,14.505-8.484,22.246-11.798
				c-3.265,1.378-6.53,2.755-9.794,4.134c4.488-1.797,9.174-2.606,13.95-3.271c-3.633,0.488-7.268,0.977-10.899,1.465
				c9.369-1.119,18.785-1.006,28.202-0.777c9.541,0.23,18.938,0.461,28.42,1.679c-3.634-0.488-7.267-0.977-10.898-1.464
				c15.59,2.119,30.975,5.5,46.567,7.597c21.45,2.885,41.302,4.259,62.732-0.374c31.684-6.85,59.119-29.307,68.388-60.791
				c8.521-28.945-1.706-61.584-19.445-84.92c-4.697-6.18-9.319-12.313-14.779-17.828c-5.604-5.66-12.123-10.402-18.439-15.196
				c-9.961-7.559-21.308-12.305-32.816-17.013c-20.199-8.263-43.226-10.872-64.883-11.005c-23.75-0.146-47.832,3.581-70.904,9.001
				c-20.081,4.718-39.705,11.37-58.729,19.318c-19.726,8.242-39.091,17.066-57.388,28.181
				c-19.067,11.581-26.146,36.57-14.709,56.096c5.369,9.165,14.255,16.023,24.503,18.842c11.133,3.063,21.518,0.945,31.593-4.133
				c9.595-4.834,17.538-12.136,23.043-21.376c-4.903,4.903-9.806,9.807-14.709,14.709c34.172-22.867,65.977-50.104,104.151-66.3
				c-3.266,1.378-6.529,2.756-9.794,4.134c12.12-5.016,24.555-8.564,37.556-10.371c-3.634,0.487-7.267,0.977-10.899,1.464
				c15.76-2.019,31.598-1.778,47.335,0.322c-3.634-0.487-7.268-0.977-10.899-1.465c19.283,2.747,37.979,8.193,55.916,15.746
				c-3.265-1.378-6.529-2.755-9.794-4.133c24.932,10.705,48.811,25.534,70.381,41.986c-2.766-2.138-5.532-4.273-8.298-6.411
				c8.928,6.898,17.318,14.45,24.347,23.312c-2.137-2.767-4.272-5.532-6.41-8.298c4.054,5.254,7.514,10.843,10.201,16.916
				c-1.377-3.266-2.755-6.529-4.133-9.794c2.282,5.422,3.85,11.002,4.691,16.825c-0.488-3.634-0.978-7.268-1.465-10.899
				c0.789,6.359,0.674,12.672-0.179,19.019c0.488-3.633,0.978-7.266,1.466-10.898c-1.723,11.24-4.933,22.166-9.282,32.66
				c1.377-3.266,2.755-6.529,4.133-9.794c-5.225,12.245-11.937,23.711-20.007,34.296c2.138-2.768,4.273-5.532,6.411-8.298
				c-7.509,9.646-16.03,18.363-25.686,25.875c2.767-2.138,5.532-4.273,8.298-6.41c-7.469,5.67-15.443,10.494-24.041,14.256
				c3.266-1.378,6.529-2.756,9.794-4.133c-4.836,2.032-9.716,3.926-14.918,4.744c3.634-0.487,7.267-0.977,10.899-1.464
				c-2.939,0.386-5.844,0.438-8.793,0.118c3.634,0.487,7.267,0.977,10.899,1.464c-3.091-0.418-6.037-1.225-8.928-2.395
				c3.266,1.378,6.529,2.756,9.794,4.133c-3.758-1.622-7.185-3.76-10.425-6.252c2.767,2.137,5.532,4.273,8.298,6.411
				c-6.656-5.285-12.212-11.736-17.395-18.437c2.138,2.766,4.273,5.53,6.411,8.298c-12.744-16.654-23.716-34.507-37.316-50.537
				c-7.201-8.488-15.91-15.799-25.228-21.855c-15.604-10.144-35.271-13.41-53.383-15.127c-17.464-1.656-35.664,1.269-52.647,5.106
				c-14.278,3.227-28.127,8.2-41.738,13.523c-27.077,10.595-53.132,22.934-78.881,36.383c-17.894,9.348-35.76,18.779-54.342,26.703
				c3.265-1.378,6.528-2.756,9.794-4.133c-18.875,7.954-38.402,14.123-58.735,16.93c3.633-0.487,7.267-0.977,10.899-1.465
				c-16.192,2.102-32.459,2.006-48.643-0.144c3.633,0.487,7.268,0.976,10.899,1.464c-39.784-5.639-77.989-21.456-114.784-36.954
				c3.266,1.378,6.529,2.756,9.794,4.133c-10.181-4.3-20.069-8.696-29.472-14.549c-9.055-5.636-17.579-12.084-26.241-18.291
				c-7.995-5.729-16.163-11.236-24.958-15.674c-15.604-7.873-29.753-11.667-46.998-13.577c-13.751-1.523-28.18,1.34-41.417,4.92
				c-13.919,3.764-27.369,10.152-39.991,17.066c-20.398,11.173-39.132,25.313-60.594,34.521c3.266-1.378,6.53-2.756,9.794-4.134
				c-8.214,3.421-16.661,5.989-25.488,7.211c3.633-0.487,7.266-0.976,10.899-1.464c-4.608,0.556-9.286,0.93-13.908,0.353
				c3.633,0.488,7.266,0.978,10.899,1.466c-7.658-1.075-15.049-3.738-22.158-6.695c3.265,1.378,6.53,2.756,9.794,4.134
				c-12.819-5.425-25.086-12.331-36.143-20.804c2.766,2.137,5.532,4.272,8.298,6.411c-5.406-4.211-10.519-8.813-14.772-14.207
				c2.137,2.767,4.274,5.531,6.411,8.298c-1.951-2.558-3.663-5.24-4.946-8.195c1.378,3.266,2.755,6.529,4.133,9.794
				c-0.731-1.808-1.265-3.636-1.537-5.567c0.488,3.633,0.976,7.266,1.464,10.898c-0.149-1.417-0.145-2.795,0.035-4.209
				c-0.488,3.633-0.977,7.268-1.465,10.899c0.204-1.208,0.524-2.35,0.973-3.488c-1.377,3.265-2.755,6.529-4.133,9.794
				c0.622-1.405,1.395-2.673,2.326-3.895c-2.137,2.766-4.274,5.531-6.411,8.298c1.292-1.573,2.749-2.924,4.356-4.172
				c-2.766,2.138-5.532,4.273-8.298,6.41c2.865-2.099,5.967-3.728,9.219-5.142c9.188-3.994,16.305-15.279,18.842-24.503
				c2.911-10.582,1.414-22.124-4.133-31.593c-5.369-9.165-14.254-16.023-24.503-18.842
				C337.453,628.438,328.063,631.16,317.473,635.765L317.473,635.765z"/>
		</g>
	</g>
</g>
<g id="Layer_1_1_">
	<path fill="none" stroke="#000000" stroke-miterlimit="10" d="M582.815,68.26c5.593,103.538-83.892,190.583-29.973,296.989
		c22.945,45.315,63.385,79.302,99.092,116.873c34.418,36.138,54.063,79.016,81.74,119.455"/>
	<path fill="none" stroke="#000000" stroke-miterlimit="10" d="M1023.195,64.002c14.352,30.203,39.16,53.667,58.354,80.635
		c9.907,13.918,18.448,28.921,23.508,45.313c5.832,18.896,7.833,39.031,5.692,58.691c-4.157,38.186-23.317,72.271-41.166,105.521
		c-20.56,38.3-38.838,77.773-56.762,117.358c-18.082,39.932-35.778,80.051-54.974,119.467c-2.563,5.266-5.154,10.518-7.777,15.754"
		/>
	<path fill="none" stroke="#000000" stroke-miterlimit="10" d="M517.424,757.601c74.282,0,117.304,0.573,175.956,46.605
		c52.485,41.157,103.537,66.683,171.225,69.265c89.34,3.441,107.694-37.571,154.875-92.353
		c35.852-41.587,137.953-55.783,172.228,1.578"/>
	<path fill="none" stroke="#000000" stroke-miterlimit="10" d="M582.815,480.832c-48.185-52.916-165.344-46.463-222.85-15.488
		c-68.547,36.855-100.095,90.488-104.111,172.516c-2.294,45.172-27.39,203.488,9.895,220.555
		c20.65,9.465,89.484-12.046,109.704-11.616c32.553,0.718,69.551,18.5,72.419-38.145c16.921-3.013,25.525,5.161,34.417,19.503"/>
	<g opacity="0.1">
		<path d="M1018.476,546.511c36.28-12.62,69.693-32.266,106.836-42.733c17.781-5.162,36.712-7.602,55.209-4.59
			c17.209,2.726,32.554,10.183,47.037,19.646c29.11,19.072,53.634,45.459,75.718,72.132c21.079,25.525,41.3,53.776,54.779,84.178
			c5.307,12.047,8.317,26.243,6.311,39.437c-2.008,12.763-7.887,24.092-14.914,34.848c-7.887,12.189-17.208,23.374-25.956,34.703
			c-9.895,12.906-18.212,26.673-27.533,39.866c-13.623,19.503-32.266,34.13-56.788,33.413c-27.104-0.86-53.775-16.348-77.149-28.537
			c-12.333-6.453-23.088,12.046-10.899,18.643c27.247,14.341,56.646,29.827,88.05,31.55c28.824,1.577,52.772-14.914,69.981-36.855
			c10.897-14.053,19.646-29.685,30.401-43.881c9.465-12.62,19.646-24.809,28.394-38.002c18.213-27.391,23.231-57.935,11.473-89.054
			c-11.901-31.692-33.557-60.518-54.207-86.902c-22.084-28.251-47.18-54.493-75.859-76.291
			c-29.254-22.084-63.24-34.56-100.238-30.688c-39.006,4.016-74.427,22.515-109.848,38.002c-8.747,3.871-17.64,7.313-26.529,10.469
			C999.688,530.306,1005.282,551.1,1018.476,546.511L1018.476,546.511z"/>
	</g>
	<g opacity="0.1">
		<path d="M1079.996,17.213c-0.32-0.268-0.643-0.536-0.964-0.804c-0.711-0.235-1.423-0.463-2.138-0.684
			C1077.924,16.232,1078.958,16.728,1079.996,17.213z"/>
		<path d="M1134.636,111.189c-0.03,1.65-0.87,3.138-2.129,4.033c0.156,0.43,0.331,0.85,0.481,1.283
			c1.377,3.973-3.812,8.21-7.345,5.646c-4.021-2.917-8.297-6.24-12.312-9.942c0.881,2.638,1.73,5.287,2.514,7.963
			c7.744,26.96,8.031,54.78,3.585,82.314c-6.453,39.866-19.646,78.729-30.688,117.448c-12.62,44.313-25.526,88.479-39.149,132.504
			c-9.465,30.402-19.216,60.805-29.255,91.063c-4.445,13.193,16.349,18.786,20.794,5.736
			c29.397-88.193,55.641-177.247,80.449-266.73c9.607-34.417,19.79-68.403,22.084-104.254c1.338-22.292-1.499-44.319-7.67-65.552
			C1135.543,112.196,1135.089,111.693,1134.636,111.189z"/>
	</g>
	<g opacity="0.1">
		<path d="M976.027,78.729c20.649,32.553,36.138,67.687,42.305,105.832c4.875,30.832,2.007,62.524-4.876,92.782
			c-14.627,63.958-45.459,122.897-63.958,185.564c-7.026,23.948-12.046,48.327-15.058,73.136
			c-0.718,5.88,5.448,10.755,10.756,10.755c6.453,0,10.038-4.875,10.755-10.755c8.174-67.687,36.854-129.637,59.942-193.021
			c10.897-29.973,20.075-60.661,24.234-92.354c4.302-32.839,2.151-66.109-6.453-98.088c-8.174-30.114-22.228-58.508-38.861-84.751
			C987.213,56.214,968.571,66.969,976.027,78.729L976.027,78.729z"/>
	</g>
	<g opacity="0.1">
		<path d="M986.209,199.474c17.782,31.405,29.685,65.679,34.13,101.53c4.303,34.703,1.865,69.838-4.588,103.968
			c-13.193,69.98-42.161,135.946-69.694,201.194c-2.295,5.449-1.722,11.473,3.872,14.771c4.588,2.725,12.477,1.577,14.771-3.871
			c28.682-67.83,58.796-136.091,72.419-208.797c6.74-36.138,9.034-73.136,4.589-109.702c-4.875-38.863-17.495-75.861-36.711-109.849
			C997.825,176.53,979.326,187.285,986.209,199.474L986.209,199.474z"/>
	</g>
	<g opacity="0.1">
		<path d="M541.909,78.697c-1.72,1.953-3.464,3.885-5.209,5.815c-0.863,3.881-1.711,7.769-2.544,11.661
			C536.546,90.249,539.141,84.428,541.909,78.697z"/>
		<path d="M665.702,508.51c-49.617-41.442-91.777-91.922-112.715-153.872c-19.646-58.222-18.785-120.603-11.042-180.832
			c4.511-34.589,11.633-68.788,19.619-102.595c-5.747,10.667-12.113,20.987-19.08,30.813c-2.46,3.469-8.355,2.492-9.36-0.981
			c-11.239,53.464-19.25,107.907-17.422,162.534c2.15,60.516,19.073,119.168,52.343,170.077
			c22.515,34.272,51.195,63.958,82.457,90.057C661.114,532.602,676.315,517.4,665.702,508.51z"/>
	</g>
	<g opacity="0.1">
		<path d="M541.945,128.633c-5.594,71.845,10.611,145.125,32.695,213.099c22.515,69.406,53.202,137.381,93.499,198.326
			c0.286,0.573,0.717,1.005,1.004,1.577c7.602,11.474,26.243,0.717,18.644-10.897c-39.437-59.369-69.265-125.048-91.635-192.591
			c-22.085-66.827-38.146-138.814-32.696-209.514C564.46,114.723,542.949,114.866,541.945,128.633L541.945,128.633z"/>
	</g>
	<g opacity="0.1">
		<path d="M481.572,385.182c0,10.038,0,20.076,0,30.259c4.589-3.441,9.035-6.884,13.624-10.324c3.011,0.573,4.302,5.019,3.44,1.577
			c-0.287-1.147-0.287-2.151-0.431-3.3c-0.286-2.581-0.286-5.306-0.286-8.029c0-5.307-4.876-11.474-10.756-10.755
			c-4.158,0.572-7.313,1.576-10.611,4.015c-2.581,2.008-5.88,5.736-9.465,6.023c3.441,4.589,6.884,9.033,10.325,13.622
			c0.859-4.157,1.721-8.461,2.725-12.618c0.431-1.722,0.86-3.442,1.435-5.021c0.573-1.577-0.145-0.144,1.146-2.149
			c0.718-1.005,0.718-1.005,0-0.145c0.432-0.431,0.86-1.004,1.436-1.435c0.859-0.86,0.43-0.287,2.294-1.577
			c3.585-2.151,7.457-4.017,11.186-5.88c-5.306-4.016-10.469-8.03-15.773-12.189c-1.004,6.023-1.722,11.902-2.151,17.926
			c-0.143,2.151-0.286,4.303-0.43,6.453c0.287-2.438-0.432,2.008-0.718,2.868c1.005-3.298-2.008,2.294,0-0.144
			c-1.863,2.15-1.004,1.291-3.299,2.725c-5.735,3.729-12.332,6.31-18.643,9.034c-11.187,4.876-3.012,24.235,8.316,19.646
			c17.64-7.17,37.858-2.581,54.352,5.736c17.208,8.604,35.134,24.092,37.715,44.313c5.449-3.154,10.755-6.166,16.204-9.321
			c-25.095-15.918-47.609-39.437-63.814-64.389c-7.601-11.76-14.627-25.955-15.057-39.437c-0.431-12.619,6.597-21.94,18.499-28.537
			c-4.876-1.29-9.752-2.581-14.771-3.872c30.547,51.195,45.459,116.73,99.522,149.714c7.744,4.732,18.93-3.154,15.774-12.188
			c-7.313-21.367-19.072-41.587-38.862-53.489c-17.353-10.469-38.146-11.473-57.648-8.317c-46.318,7.457-88.767,38.72-123.47,68.548
			c-18.069,15.631-35.134,32.694-50.478,51.051c-12.189,14.483-24.092,29.972-32.553,47.181
			c-4.875,10.038-7.887,20.793-11.472,31.405c-5.163,15.773-10.182,31.548-14.627,47.609c-8.461,30.832-16.205,63.957-11.759,96.079
			c2.725,20.221,14.771,38.434,27.39,53.921c14.914,18.212,33.7,33.412,54.063,45.172c19.073,11.042,41.014,19.072,63.385,19.072
			c22.084,0,40.87-10.324,54.206-27.533c3.585-4.59,0.717-12.047-3.872-14.771c-5.594-3.298-11.187-0.717-14.771,3.872
			c-14.914,19.503-40.009,19.216-61.52,12.62c-26.673-8.175-50.622-25.956-69.551-46.177
			c-17.352-18.499-29.254-39.724-29.111-65.535c0.143-32.839,10.325-65.68,19.933-96.797c4.445-14.197,9.178-28.396,13.91-42.592
			c0.287-0.718,0.573-1.435,0.86-2.15c1.004-2.581-1.004,2.15,0.143-0.432c0.717-1.576,1.434-3.153,2.151-4.73
			c1.864-3.729,4.015-7.313,6.166-10.899c10.755-17.639,23.519-32.553,37.715-47.753c32.696-34.989,71.415-67.112,115.438-86.614
			c10.183-4.591,22.084-8.176,33.558-10.184c8.461-1.434,19.79-1.29,28.251,0.861c9.178,2.294,16.777,6.883,23.661,13.767
			c8.316,8.461,14.196,20.22,18.212,32.122c5.307-4.016,10.469-8.03,15.773-12.188c-23.947-14.628-39.147-38.146-51.912-62.523
			c-13.767-26.243-24.521-54.063-39.723-79.589c-3.011-5.163-9.606-6.74-14.771-3.872c-77.294,42.878,15.773,141.252,60.373,169.503
			c6.31,4.015,17.208-1.147,16.204-9.321c-3.441-27.247-21.94-48.184-45.315-61.232c-21.367-12.046-50.478-19.072-73.996-9.465
			c2.725,6.597,5.593,13.05,8.317,19.646c10.611-4.589,24.379-9.465,30.114-20.507c4.876-9.321,3.441-21.08,5.02-31.262
			c1.435-9.321-6.883-16.636-15.774-12.189c-8.029,4.016-16.061,7.744-21.51,15.058c-5.593,7.457-6.884,17.782-8.604,26.529
			c-1.291,6.453,3.012,14.054,10.324,13.623c5.162-0.286,9.465-1.577,14.055-4.015c2.149-1.291,4.157-3.013,6.166-4.589
			c1.576-1.291,4.016-1.864,0-1.436c-3.585-3.585-7.17-7.17-10.756-10.755c0,10.038,0,28.107,12.906,30.545
			c6.739,1.29,13.623-2.868,13.623-10.325c0-10.038,0-20.076,0-30.258C503.083,371.415,481.572,371.415,481.572,385.182
			L481.572,385.182z"/>
	</g>
	<g opacity="0.1">
		<path d="M703.991,808.652c-45.889-19.79-91.204-43.451-140.966-51.912c-24.81-4.303-50.766-4.303-74.282,5.735
			c-25.383,10.898-41.73,32.84-52.199,57.647c-2.295,5.449,2.438,11.76,7.457,13.193c6.166,1.721,11.042-2.151,13.193-7.457
			c41.442-99.093,169.933-26.96,235.755,1.435c5.448,2.294,11.473,1.721,14.771-3.872
			C710.588,818.834,709.44,810.946,703.991,808.652L703.991,808.652z"/>
	</g>
	<g opacity="0.1">
		<path d="M556.716,326.818c-37.57-44.885-64.531-97.371-61.663-157.17c1.054-22.227,6.281-44.128,13.817-65.115
			c-0.226,0.038-0.45,0.061-0.67,0.063c-1.581,1.731-3.184,3.441-4.83,5.106c-2.58,2.61-6.127,1.454-7.691-0.999
			c-3.791,5.047-7.889,9.859-12.309,14.333c-0.746,0.754-1.686,1.15-2.667,1.277c-3.502,14.104-5.898,28.492-6.874,43.183
			c-2.008,29.685,3.012,59.799,13.767,87.476c22.516,57.935,66.971,104.111,110.421,146.989
			c27.533,27.104,55.928,53.633,82.743,81.597c9.608,10.038,24.811-5.163,15.201-15.2
			C650.071,420.604,599.163,377.583,556.716,326.818z"/>
	</g>
	<g opacity="0.1">
		<path d="M476.841,292.543c20.221,50.765,35.852,103.251,50.334,156.023c6.598-2.726,13.05-5.594,19.646-8.317
			c-33.845-67.974-53.633-144.838-43.883-220.985c1.436-11.615-14.627-13.193-20.075-5.449
			c-23.52,34.273-30.401,73.996-38.72,113.719c-3.871,18.93-9.752,36.712-16.204,54.924c-2.15,5.88-4.303,11.615-7.026,17.208
			c-1.147,2.295-2.294,4.446-3.585,6.597c-0.574,1.004-1.147,1.864-1.864,2.868c-0.144,0.287-2.582,3.585-1.434,2.008
			c-5.88,7.457-10.612,10.183-18.5,15.345c-12.046,7.888-23.805,16.204-35.134,25.096c-23.518,18.499-41.443,40.583-54.637,67.543
			c-30.688,62.524-38.862,147.993,0.861,208.509c7.6,11.473,26.243,0.717,18.642-10.897c-33.126-50.335-27.963-118.451-7.17-172.516
			c10.182-26.673,26.243-51.625,48.04-70.124c10.898-9.32,22.944-17.639,34.847-25.524c8.174-5.449,16.491-10.612,23.662-17.209
			c8.03-7.602,13.479-17.495,17.782-27.533c7.601-17.64,14.053-36.138,18.785-54.78c10.899-42.878,14.341-86.902,40.153-124.474
			c-6.74-1.864-13.337-3.585-20.076-5.449c-10.325,79.732,11.472,160.755,46.749,231.883c5.593,11.187,22.802,3.298,19.646-8.316
			c-14.341-52.772-30.114-105.115-50.335-156.023c-2.149-5.449-7.17-9.178-13.191-7.457
			C479.135,280.641,474.688,286.95,476.841,292.543L476.841,292.543z"/>
	</g>
	<g opacity="0.1">
		<path d="M366.42,424.761c-46.176-1.004-92.782,13.193-117.878,54.493c-22.658,37.572-22.084,85.039-15.487,126.771
			c5.449,34.416,16.491,67.686,30.688,99.378c12.906,28.537,28.968,56.215,49.904,79.731c9.178,10.469,24.379-4.876,15.201-15.2
			c-26.959-30.401-47.036-71.129-60.373-110.708c-13.91-41.156-22.945-88.05-15.201-130.066
			c4.445-24.378,14.054-44.886,32.696-60.804c20.938-17.639,52.199-22.656,80.593-22.084
			C380.33,446.559,380.33,425.048,366.42,424.761L366.42,424.761z"/>
	</g>
	<g opacity="0.1">
		<path d="M338.456,495.603c-39.58,9.179-60.086,53.347-72.132,88.051c-16.635,48.325-22.945,101.1-23.088,152.008
			c-0.144,26.529,1.721,53.346,7.026,79.445c3.872,19.646,10.182,40.01,23.088,55.783c3.729,4.589,11.329,3.871,15.201,0
			c4.445-4.445,3.729-10.611,0-15.2c-1.721-2.009,1.434,1.863-0.287-0.287c-0.43-0.717-1.004-1.29-1.434-2.008
			c-1.003-1.435-1.864-2.868-2.725-4.303c-0.86-1.577-1.721-3.154-2.581-4.876c-1.004-2.149-1.864-4.158-2.008-4.589
			c-3.442-8.604-5.879-17.639-7.887-26.673c-4.875-21.94-6.453-44.024-6.883-66.683c-1.004-50.479,4.875-101.96,20.077-150.145
			c6.023-19.216,13.767-37.57,25.525-54.35c8.604-12.189,20.077-22.229,33.7-25.383
			C357.672,513.241,351.936,492.447,338.456,495.603L338.456,495.603z"/>
	</g>
	<g opacity="0.1">
		<path d="M230.33,543.355c-21.51,53.347-21.367,111.138,1.291,164.054c22.228,51.769,65.679,92.782,114.292,119.886
			c12.189,6.739,22.944-11.903,10.898-18.643c-45.602-25.239-84.178-62.381-105.832-110.277c-21.511-47.61-19.216-101.387,0-149.283
			c2.151-5.449-2.294-11.759-7.457-13.192C237.356,534.178,232.481,537.906,230.33,543.355L230.33,543.355z"/>
	</g>
	<g opacity="0.1">
		<path d="M469.384,178.968c-0.287,2.438-0.574,4.875-0.86,7.17c0.573-3.872,1.004-7.601,1.577-11.472
			c-12.188,90.631-47.322,187.141-14.196,277.342c8.029,21.94,28.823,36.711,52.916,30.114
			c21.224-5.879,38.146-30.831,30.113-52.915c-4.73-12.764-7.887-25.956-9.751-39.438c0.573,3.872,1.005,7.602,1.577,11.474
			c-3.729-28.537-2.008-57.361,1.722-85.756c-0.573,3.872-1.003,7.601-1.577,11.473c6.739-49.618,18.786-98.231,24.665-147.849
			c1.291-10.612-5.307-23.231-12.619-30.401c-8.03-8.031-19.072-12.62-30.401-12.62s-22.371,4.589-30.4,12.62
			C473.112,157.313,470.817,167.065,469.384,178.968L469.384,178.968z"/>
	</g>
	<g opacity="0.1">
		<path d="M599.45,468.786c-62.954-28.251-136.377-43.738-202.772-16.922c-30.258,12.333-57.505,29.972-79.731,54.206
			c-23.662,26.1-18.929,57.505-32.122,90.058c16.141,37.968-41.73,66.97-43.882,102.247c-2.007,32.839,2.582,66.826,18.499,95.938
			c16.635,30.545,47.18,50.19,79.876,59.8c36.424,10.755,79.876,12.188,115.583-1.578c39.865-15.344,70.983-45.028,109.417-62.954
			c21.224-9.896,26.386-40.009,15.486-58.795c-5.593-9.608-14.914-16.778-25.669-19.79c-11.901-3.298-22.228-0.717-33.126,4.303
			c-17.926,8.46-34.561,19.072-50.765,30.258c-14.484,10.038-28.968,20.076-45.173,27.104c3.441-1.436,6.884-2.868,10.324-4.303
			c-9.895,4.158-20.22,6.884-30.832,8.461c3.872-0.573,7.601-1.004,11.472-1.577c-13.767,1.721-27.533,1.146-41.3-0.573
			c3.872,0.573,7.6,1.003,11.472,1.577c-13.05-1.864-25.669-4.732-37.859-9.896c3.442,1.436,6.884,2.868,10.325,4.304
			c-4.732-2.008-9.178-4.445-13.48-7.027c-3.298-2.008-11.329-8.317,1.721,1.721c-2.151-1.721-4.302-3.585-6.31-5.592
			c-1.721-1.578-3.155-3.299-4.732-5.02c-4.302-5.021,7.17,9.607,3.298,4.444c-0.86-1.146-1.577-2.294-2.294-3.44
			c-2.868-4.303-5.163-8.893-7.17-13.48c1.434,3.442,2.868,6.885,4.302,10.325c-3.585-8.891-5.879-18.067-7.17-27.533
			c0.574,3.872,1.004,7.602,1.578,11.473c-2.582-19.789-1.578-39.724,0.86-59.368c-0.574,3.871-1.004,7.6-1.578,11.472
			c4.302-25.956,11.042-51.625,21.224-75.86c-1.434,3.441-2.868,6.885-4.302,10.325c5.02-11.901,10.899-23.23,17.639-34.272
			c3.155-5.162,6.74-10.325,10.325-15.201c4.302-5.735-7.17,9.035-2.725,3.442c1.004-1.291,2.008-2.581,3.155-3.729
			c2.008-2.438,4.159-4.876,6.453-7.313c3.872-4.304,8.174-8.317,12.476-12.333c2.008-1.722,4.016-3.441,6.023-5.163
			c2.582-2.15,8.174-6.311-3.729,2.867c1.291-1.004,2.438-1.863,3.729-2.725c9.608-6.883,20.077-12.763,31.119-17.352
			c-3.44,1.435-6.884,2.867-10.325,4.302c13.768-5.735,28.107-9.464,42.734-11.472c-3.872,0.572-7.602,1.004-11.473,1.576
			c17.064-2.15,34.416-1.863,51.481,0.432c-3.872-0.574-7.601-1.004-11.473-1.578c23.662,3.299,46.605,10.325,68.689,19.503
			c-3.44-1.434-6.884-2.868-10.325-4.302c2.726,1.146,5.449,2.294,8.03,3.585c11.043,4.876,21.081,7.601,33.127,4.302
			c10.755-3.011,20.076-10.182,25.669-19.789C625.837,509.082,620.961,478.394,599.45,468.786L599.45,468.786z"/>
	</g>
	<g opacity="0.1">
		<path d="M515.846,769.503c31.836,16.063,60.229,37.142,89.771,57.074c29.685,20.077,62.094,36.854,97.371,44.169
			c20.649,4.302,41.729,5.306,62.523,6.883c18.068,1.436,36.139,2.725,54.206,3.585c39.437,1.864,79.159,1.147,118.021-6.453
			c15.486-3.011,29.828-8.461,44.168-14.914c21.367-9.606,26.242-40.296,15.486-58.795c-5.734-9.465-15.058-16.635-25.813-19.503
			c-12.046-3.298-22.084-0.573-33.126,4.302c-1.004,0.432-2.151,1.005-3.299,1.436c3.441-1.436,6.884-2.868,10.325-4.303
			c-14.913,6.167-30.831,9.607-46.75,11.76c3.873-0.574,7.602-1.004,11.474-1.578c-30.688,4.016-61.808,3.586-92.782,2.151
			c-29.828-1.435-60.229-3.013-89.914-6.74c3.872,0.574,7.602,1.004,11.473,1.578c-17.209-2.438-33.986-6.884-50.049-13.624
			c3.442,1.435,6.885,2.868,10.325,4.303c-23.805-10.182-45.172-24.809-66.396-39.58c-23.806-16.635-47.61-32.839-73.566-45.889
			c-20.937-10.611-46.462-5.736-58.795,15.486C489.173,729.924,494.909,759.034,515.846,769.503L515.846,769.503z"/>
	</g>
	<g opacity="0.1">
		<path d="M779.278,460.468c-8.892-7.457-17.353-15.487-25.239-24.092c-4.159-4.445-8.03-9.034-11.759-13.624
			c-0.278-0.342-0.516-0.633-0.735-0.901c-1.522-2.052-3.01-4.151-4.572-6.269c-13.073-18.384-23.686-38.45-32.704-59.09
			c-22.369-55.935-32.735-115.774-40.718-175.088c0.573,3.872,1.004,7.601,1.577,11.473c-7.025-52.056-12.189-104.398-20.65-156.167
			c-1.755-10.537-8.534-18.852-17.351-24.281c-9.064,5.914-18.577,11.191-28.103,16.389c-1.767,0.964-3.434,0.843-4.736,0.113
			c-2.298,1.097-4.605,2.177-6.931,3.221c-1.906,0.855-3.884,0.508-5.349-0.481c-2.354,4.788-5.064,9.328-8.048,13.676
			c-3.326,7.92-7.017,15.699-11.021,23.309c1.258,7.912,2.43,15.846,3.544,23.756c18.59,139.92,25.734,293.081,125.462,403.336
			c8.174,9.178,17.208,17.639,26.53,25.525c17.925,15.2,43.308,17.639,60.803,0C794.765,505.784,797.204,475.525,779.278,460.468z"
			/>
	</g>
	<g opacity="0.1">
		<path d="M663.121,42.877c-28.681,36.138-51.77,75.43-64.531,120.172c-11.616,40.727-12.188,82.313-6.453,123.9
			c10.755,77.868,55.067,148.996,107.122,206.07c12.333,13.623,25.67,26.387,39.293,38.433c17.495,15.487,43.451,17.352,60.803,0
			c15.774-15.774,17.64-45.315,0-60.803c-12.046-10.612-23.66-21.799-34.702-33.413c-5.163-5.449-10.325-11.187-15.201-16.922
			c-2.438-2.868-4.876-5.736-7.313-8.604c-1.435-1.721-2.867-3.441-4.302-5.306c-5.307-6.74,6.453,8.461,1.146,1.577
			c-19.071-24.952-35.42-52.198-47.752-81.166c1.434,3.44,2.867,6.884,4.302,10.324c-10.183-24.092-17.353-49.188-20.938-75
			c0.573,3.872,1.004,7.6,1.577,11.472c-2.725-21.654-2.868-43.451-0.144-65.105c-0.573,3.872-1.005,7.6-1.577,11.472
			c3.012-21.941,8.891-43.165,17.352-63.671c-1.434,3.442-2.867,6.884-4.302,10.325c4.876-11.616,10.611-22.944,16.921-33.843
			c3.299-5.736,6.884-11.329,10.612-16.778c1.864-2.868,3.872-5.592,5.88-8.317c1.004-1.434,2.008-2.725,3.154-4.159
			c5.593-7.6-6.166,7.887-0.286,0.43c7.457-9.321,12.619-17.925,12.619-30.401c0-11.329-4.589-22.371-12.619-30.401
			C708.867,27.677,677.749,24.378,663.121,42.877L663.121,42.877z"/>
	</g>
	<g opacity="0.1">
		<path d="M760.923,584.942c-10.182-23.519-32.695-41.443-53.49-55.066c-24.233-16.062-51.769-27.391-78.871-37.572
			c-45.028-17.063-92.353-29.827-139.817-37.715c-11.902-2.008-22.371-2.008-33.127,4.302c-9.607,5.594-16.777,14.914-19.789,25.671
			c-5.736,20.793,6.883,49.044,30.114,52.915c53.92,9.034,107.84,23.948,158.174,45.028c-3.441-1.435-6.883-2.868-10.324-4.302
			c18.785,7.887-6.597-7.314,10.324,4.302c-1.5,20.485,13.248,6.104,14.825,7.25c3.298,2.438,35.223,21.574,28.34,16.27
			c1.146,0.859-44.313-24.38-43.165-23.52c3.441,2.868,9.229-16.16,12.385-13.005c1.146,1.147,37.828,14.652,38.832,15.943
			c3.441,4.016,0,0,5.593,8.029c2.15,3.155,16.522,9.761,18.102,13.201c4.158,9.608,19.46,14.744,29.069,17.469
			c11.041,3.013,7.445,25.331,17.341,19.596c9.607-5.594,16.777-14.914,19.79-25.67C768.522,605.88,765.655,595.984,760.923,584.942
			L760.923,584.942z"/>
	</g>
	<g opacity="0.1">
		<path d="M922.462,21.741c5.725,3.583,11.64,6.863,17.735,9.76c-0.65-0.763-1.312-1.517-1.979-2.267
			c-1.524-0.799-3.053-1.597-4.581-2.395C929.906,25.153,926.181,23.454,922.462,21.741z"/>
		<path d="M990.226,89.487c-8.44-16.956-18.584-32.624-30.387-46.91c0.083,3.123-3.021,6.203-6.335,5.078
			c-17.261-5.859-33.691-14.664-48.295-25.56c-7.714-5.755-15.155-12.038-21.771-19.059c-8.628,3.606-15.986,9.957-20.696,18.048
			c-5.88,9.895-7.457,22.084-4.303,33.126c3.153,12.186,10.323,18.782,19.645,25.953c-14.34-11.042-2.438-1.721,0.86,1.291
			c2.868,2.581,5.593,5.306,8.316,8.174c2.645,2.783,5.152,5.707,7.655,8.759c0.863,1.191,1.704,2.383,2.528,3.575
			c10.042,14.325,18.315,29.783,25.322,45.774c11.103,28.07,18.693,57.461,23.229,87.245c4.051,32.569,4.52,65.568,0.663,98.253
			c-3.171,20.197-8.058,40.063-15.433,59.21c-5.128,11.362-11.145,22.332-18.276,32.492c-1.464,1.806-3.811,4.729-5.036,6.138
			c-2.726,3.154-5.736,6.022-8.748,8.892c-1.103,1.044-2.208,2.034-3.32,3.004c-1.994,1.485-5.747,4.304-7.578,5.457
			c-19.646,12.764-27.677,38.002-15.486,58.795c11.472,19.503,39.148,28.251,58.796,15.487
			c104.971-67.973,115.438-214.244,94.789-325.956C1019.481,159.468,1007.147,123.331,990.226,89.487z"/>
	</g>
	<g opacity="0.1">
		<path d="M1029.374,150.144c10.038,24.378,17.495,49.617,21.224,75.717c-0.573-3.872-1.004-7.601-1.577-11.472
			c3.299,24.378,3.154,48.9,0,73.136c0.573-3.872,1.005-7.601,1.577-11.472c-5.735,42.305-20.362,82.457-36.138,121.749
			c-17.639,43.738-36.425,86.76-50.479,131.788c-7.026,22.371,8.03,46.894,30.114,52.916c23.231,6.311,45.89-7.744,52.916-30.115
			c21.08-67.543,54.206-130.782,74.569-198.47c10.325-34.417,16.491-70.698,16.205-106.692
			c-0.287-41.157-9.608-82.17-25.239-120.172c-4.445-10.899-9.178-19.503-19.79-25.669c-9.895-5.879-22.084-7.457-33.126-4.302
			c-10.755,3.012-20.076,10.182-25.669,19.79C1028.514,125.908,1025.215,140.105,1029.374,150.144L1029.374,150.144z"/>
	</g>
	<g opacity="0.2">
		<path d="M1021.709,59.849c-2.761-0.602-5.501-1.324-8.205-2.194c-0.212-0.068-0.411-0.147-0.603-0.232
			c-0.931,2.669-3.981,4.763-7.258,3.061c-8.378-4.353-16.862-8.483-25.401-12.497c-0.019,0.019-0.039,0.034-0.058,0.052
			c-7.886,7.888-8.603,22.516,0.002,30.403c3.013,2.725,5.88,5.736,8.604,8.891c0.113,0.13,0.246,0.289,0.385,0.458
			c0.261,0.374,0.514,0.747,0.763,1.121c1.435,2.008,2.867,4.159,4.158,6.453c2.438,3.872,4.445,7.887,6.453,12.046
			c0.512,0.896,0.906,1.896,1.293,2.817c0.955,2.47,1.91,5.057,2.866,7.65c3.586,10.325,6.167,20.937,8.174,31.692
			c0.574,2.725,1.004,5.449,1.436,8.317c0.266,1.331,0.406,2.651,0.54,3.868c-0.167-1.177-0.304-2.129,0.033,0.291
			c0.86,6.31,1.435,12.763,1.863,19.216c2.151,26.817,1.578,53.633-0.144,80.45c-1.003,14.197-2.294,28.394-4.016,42.59
			c-0.431,3.442-0.859,6.884-1.291,10.325c-0.717,5.88,0.574-4.732-0.144,1.147c-0.286,1.721-0.43,3.44-0.717,5.161
			c-1.004,7.457-2.294,14.914-3.441,22.371c-7.744,46.606-18.643,92.782-32.84,137.954c-5.791,18.224-12.145,36.307-19.462,53.978
			c-0.362,0.868-0.731,1.771-0.901,2.237c-0.717,1.722-1.576,3.441-2.294,5.162c-1.577,3.585-3.298,7.026-5.02,10.612
			c-3.011,6.021-6.311,11.902-9.896,17.495c-6.31,9.895-2.008,23.661,7.743,29.396c10.469,6.166,23.089,2.151,29.398-7.743
			c10.182-15.774,17.495-33.271,24.521-50.621c8.748-21.799,16.205-44.024,22.802-66.539
			c16.204-55.354,27.533-111.998,34.417-169.217c5.879-48.471,8.604-98.231,2.15-146.702
			C1053.012,124.805,1044.172,87.482,1021.709,59.849z M989.474,88.158C990.309,89.2,991.079,90.246,989.474,88.158L989.474,88.158z
			"/>
	</g>
	<g opacity="0.2">
		<path d="M975.884,577.056c1.436-6.452,3.155-12.62,5.307-18.786c0.431-1.146,0.86-2.294,1.291-3.44
			c0.287-0.717,2.582-6.31,0.573-1.578c1.29-3.154,2.868-6.31,4.445-9.32c2.725-5.307,6.022-10.324,9.465-15.058
			c1.435-1.864,1.29-1.721-0.573,0.573c1.004-1.147,2.008-2.438,3.012-3.585c2.008-2.294,4.016-4.589,6.166-6.74
			c3.441-3.585,7.171-6.883,11.042-10.038c0.718-0.573,1.578-1.29,2.295-1.864c4.016-3.153-3.729,2.868,0.287-0.286
			c2.294-1.722,4.731-3.441,7.17-5.163c8.891-6.021,18.212-11.473,27.532-16.777c19.359-10.898,38.434-21.653,55.784-35.563
			c19.359-15.487,32.982-35.852,42.161-58.796c-13.768-3.872-27.678-7.601-41.443-11.473c-2.151,6.311-2.726,7.744-6.598,14.628
			c-1.721,3.011-3.585,5.735-5.593,8.461c1.291-1.722,1.291-1.722-0.286,0.286c-1.291,1.435-2.582,2.868-3.872,4.303
			c-1.721,1.864-3.729,3.441-5.593,5.02c3.441-2.868-3.585,2.15-4.732,2.867c-1.004,0.573-2.15,1.147-3.154,1.722
			c-5.307,2.725,4.016-1.435-1.577,0.717c-2.868,1.004-5.736,1.864-8.748,2.438c8.03,3.298,16.205,6.597,24.235,9.895
			c-4.59-6.74-8.892-13.623-13.051-20.65c-1.863-3.298-3.584-6.596-5.306-9.895c-0.86-1.577-1.577-3.298-2.294-4.876
			c2.149,4.731-0.574-2.007-1.004-3.011c-0.574-1.722-2.438-11.616-1.722-5.163c-0.144-1.435-0.144-3.013-0.144-4.445
			c0-1.004,0.144-1.864,0.144-2.868c-0.431,3.299-0.431,3.872,0,1.577c1.146-4.731-2.295,4.303-0.144,0
			c0.431-0.86,1.004-1.721,1.577-2.438c-1.864,2.438-2.009,2.725-0.431,0.859c3.585-3.729-3.871,2.438,0.86-0.717
			c0.717-0.431,7.17-3.585,3.585-2.151c-8.031-3.298-16.205-6.597-24.235-9.895c8.747,13.336,12.619,25.524,15.2,42.16
			c-0.143-1.722-0.143-1.29,0.145,1.435c0.287,2.438,0.431,4.732,0.718,7.17c0.286,4.017,0.573,8.03,0.717,12.046
			c0.431,9.034,0.287,17.927,0.287,26.96c0,9.608,6.596,18.212,15.772,20.794c10.325,2.867,24.666-3.441,26.53-15.058
			c5.162-32.84,3.011-69.264-17.209-97.084c-6.166,10.755-12.332,21.51-18.642,32.409c8.03,0,15.917,0.43,23.948,1.29
			c6.021,0.574-4.589-0.717,1.146,0.144c1.578,0.287,3.299,0.573,4.876,0.86c3.012,0.573,5.88,1.291,8.892,2.008
			c2.582,0.717,5.162,1.577,7.743,2.581c4.445,1.577-4.589-2.151-0.572-0.287c1.146,0.431,2.15,1.004,3.154,1.578
			c2.007,1.004,3.871,2.15,5.593,3.441c3.299,2.295-4.158-3.441-1.146-0.86c0.717,0.573,1.434,1.291,2.15,2.008
			c1.435,1.435,5.449,6.883,0.718,0.43c1.003,1.436,1.864,2.868,2.581,4.445c1.577,3.155-2.151-5.449-0.86-2.149
			c0.286,0.717,0.573,1.576,0.718,2.294c0.287,0.718,0.431,1.577,0.572,2.438c0.719,3.585-0.717-6.167-0.285-2.438
			c0.144,1.577,0.144,3.299,0.144,4.876c-0.144,6.31,1.004-4.876,0.143,0.144c-0.286,1.721-0.717,3.298-1.29,5.021
			c-0.573,1.862-3.299,8.174,0,0.717c-1.435,3.44-3.299,6.597-5.307,9.606c-1.003,1.578-5.449,7.171-0.573,1.004
			c-1.146,1.578-2.438,3.013-3.729,4.445c-2.581,2.868-5.593,5.593-8.604,8.031c-3.011,2.438,4.446-3.299,1.291-1.004
			c-0.717,0.573-1.577,1.146-2.438,1.721c-1.577,1.147-3.298,2.151-4.875,3.155c-1.721,1.004-3.299,1.864-5.021,2.725
			c-5.879,2.868,3.872-1.435-1.004,0.431c-3.44,1.291-7.026,2.15-10.61,2.867c8.174-1.434,1.721-0.286-0.432-0.144
			c-1.721,0-3.441,0-5.306-0.145c-3.729-0.285,6.022,1.005,2.294,0.287c-0.86-0.144-1.721-0.43-2.581-0.572
			c-2.009-0.432-8.03-3.155-0.573,0.144c1.434,11.328,2.868,22.514,4.302,33.843c3.299-2.868,6.453-5.162,12.619-8.747
			c2.868-1.722,6.023-3.154,9.035-4.59c-2.008,0.861-1.864,0.861,0.43-0.143c1.864-0.718,3.872-1.291,5.736-1.864
			c3.155-1.004,6.453-1.722,9.752-2.438c1.29-0.286,2.581-0.573,4.015-0.718c6.453-1.146-4.302,0.432,2.295-0.287
			c6.739-0.717,13.623-0.572,20.363-0.144c1.435,0.144,2.726,0.287,4.016,0.431c-4.732-0.431,2.008,0.287,2.438,0.431
			c3.441,0.573,6.739,1.291,10.182,2.15c3.441,0.86,6.739,1.864,10.038,3.012c1.291,0.431,2.581,0.86,4.017,1.435
			c0.143,0,6.453,2.725,2.725,1.004c6.453,2.868,12.619,6.167,18.643,9.896c3.012,1.864,5.88,3.871,8.747,6.022
			c-1.577-1.29-1.291-1.004,0.718,0.573c1.721,1.291,3.298,2.726,4.876,4.159c8.748,7.743,21.653,8.748,30.4,0
			c7.888-7.888,8.893-22.657,0-30.401c-53.489-46.75-135.229-59.082-191.442-10.038c-9.751,8.461-8.03,28.395,4.302,33.843
			c39.149,17.209,82.457-6.739,103.106-41.3c10.898-18.213,13.623-39.58,4.877-59.082c-9.608-21.367-34.131-32.267-55.784-36.567
			c-13.623-2.726-27.533-3.729-41.443-3.729c-15.058,0-28.396,18.786-18.643,32.409c13.479,18.643,16.49,41.587,12.905,63.958
			c14.055,1.864,28.107,3.872,42.305,5.735c0-38.433-1.435-78.154-23.088-111.425c-4.877-7.457-15.2-13.479-24.235-9.895
			c-12.619,5.019-22.801,11.329-30.545,22.943c-7.026,10.612-7.457,23.948-5.593,35.994c3.441,21.225,16.49,40.583,28.25,58.223
			c5.594,8.461,14.341,12.046,24.235,9.896c35.563-7.601,59.082-37.429,70.411-70.411c3.871-11.042-4.303-23.519-15.058-26.529
			c-12.189-3.299-22.084,4.158-26.53,15.058c-0.86,2.295-0.86,2.151,0.287-0.43c-0.573,1.434-1.291,3.011-2.008,4.444
			c-1.146,2.438-2.438,4.732-3.729,7.026c-1.29,2.295-2.725,4.445-4.015,6.453c-0.86,1.291-1.723,2.438-2.581,3.729
			c-3.013,4.159,3.011-3.729-0.287,0.287c-3.299,4.158-7.027,8.03-10.898,11.615c-1.721,1.578-3.586,3.155-5.448,4.732
			c-1.147,0.859-2.151,1.863-3.3,2.725c-3.872,3.155,3.872-2.868-0.144,0.144c-16.635,12.478-35.421,21.799-53.346,32.267
			c-19.504,11.186-38.434,24.092-53.776,40.727c-18.644,20.363-30.688,45.604-36.711,72.419
			c-2.582,11.474,3.298,23.231,15.057,26.529C960.396,595.124,973.303,588.527,975.884,577.056L975.884,577.056z"/>
	</g>
	<g opacity="0.2">
		<path d="M1021.343,811.377c4.159-2.868,8.604-5.307,13.337-7.457c-5.306,2.438,2.868-1.004,4.159-1.435
			c3.298-1.146,6.739-2.009,10.038-2.868c2.868-0.717,5.879-1.29,8.892-1.864c1.146-0.143,2.438-0.43,3.584-0.573
			c6.166-1.004-4.589,0.573,1.722-0.144c7.026-0.717,14.054-1.004,20.938-1.004c6.453,0,12.763,0.574,19.216,1.291
			c-2.581-0.432-2.581-0.432,0,0c1.864,0.287,3.729,0.573,5.594,1.004c3.585,0.717,7.313,1.577,10.897,2.438
			c2.868,0.718,5.736,1.722,8.604,2.726c1.721,0.574,3.298,1.146,4.876,1.864c-4.876-1.864,0.43,0.286,1.146,0.573
			c2.438,1.146,4.876,2.581,7.314,4.016c1.434,0.859,2.725,1.722,4.015,2.582c4.445,3.011-3.441-2.868,0.574,0.43
			c9.034,7.457,21.51,8.892,30.4,0c7.744-7.744,9.034-22.944,0-30.401c-24.809-20.794-56.932-28.251-88.767-29.541
			c-29.398-1.146-63.528,3.872-88.193,21.08c-9.607,6.74-14.054,18.644-7.744,29.397
			C997.538,813.098,1011.735,818.116,1021.343,811.377L1021.343,811.377z"/>
	</g>
	<g opacity="0.2">
		<path d="M503.657,833.03c0-1.004,0-2.007,0.143-3.011c0.287-5.021-1.004,4.875,0.145,0.143c0.144-0.86,0.431-1.721,0.717-2.581
			c1.291-4.445-2.294,4.589-0.143,0.574c2.725-5.163-3.013,2.725,0.859-1.291c3.871-4.159-3.586,2.008,1.29-1.147
			c1.435-0.859,8.031-3.585,1.721-1.146c2.009-0.86,4.304-1.436,6.453-1.864c1.578-0.431,9.465-1.435,2.727-0.574
			c2.438-0.286,5.019-0.43,7.456-0.43c5.307-0.145,10.469,0.144,15.632,0.717c1.003,0.145,2.149,0.287,3.153,0.43
			c-5.88-0.717-0.43,0,0.718,0.145c2.725,0.431,5.307,1.004,7.888,1.435c5.162,1.004,10.182,2.438,15.2,3.872
			c2.295,0.717,4.731,1.577,7.026,2.294c1.435,0.432,8.892,3.585,2.581,0.86c10.755,4.589,22.944,3.298,29.397-7.744
			c5.307-9.178,3.155-24.809-7.743-29.396c-24.952-10.47-52.63-17.495-79.876-15.345c-15.201,1.29-29.396,5.307-41.301,15.2
			c-11.615,9.465-16.635,24.235-16.921,38.862c-0.145,11.76,9.895,21.511,21.511,21.511
			C494.049,854.541,503.514,844.79,503.657,833.03L503.657,833.03z"/>
	</g>
	<g opacity="0.2">
		<path d="M542.519,799.188c8.318-0.286,16.637-0.144,24.811,0.573c2.008,0.145,3.872,0.432,5.879,0.574
			c-5.019-0.574,1.435,0.286,2.008,0.286c4.445,0.718,8.748,1.578,13.05,2.582c7.17,1.721,14.197,3.871,21.225,6.31
			c3.441,1.147,6.739,2.581,10.182,3.872c5.593,2.294-4.015-1.721,1.436,0.573c2.149,1.004,4.302,2.008,6.452,3.012
			c26.674,12.619,51.195,29.254,76.577,44.168c26.816,15.631,55.497,29.111,86.187,34.99c36.566,6.884,76.004,4.589,111.854-5.019
			c63.671-16.923,109.13-67.113,164.342-99.81c23.805-14.054,2.149-51.339-21.654-37.142
			c-27.391,16.204-52.342,35.851-77.868,54.923c-11.187,8.317-22.657,16.349-34.703,23.23c-5.88,3.442-11.901,6.453-18.069,9.179
			c-0.717,0.287-6.166,2.582-1.289,0.573c-1.578,0.718-3.3,1.29-4.877,1.864c-4.016,1.435-7.888,2.868-12.046,4.016
			c-7.457,2.295-14.914,4.016-22.657,5.449c-2.009,0.431-4.016,0.718-6.166,1.003c-6.884,1.147,4.302-0.43-2.726,0.432
			c-5.306,0.573-10.469,1.004-15.774,1.434c-9.178,0.574-18.498,0.718-27.819,0.432c-4.015-0.145-7.888-0.432-11.902-0.86
			c-6.453-0.717,4.445,0.717-1.864-0.287c-2.438-0.43-5.02-0.859-7.457-1.29c-7.313-1.435-14.34-3.299-21.366-5.45
			c-3.441-1.146-6.884-2.294-10.183-3.585c-1.721-0.572-3.298-1.29-5.02-2.008c-2.294-1.003-2.15-0.86,0.144,0.145
			c-1.146-0.431-2.149-1.005-3.298-1.435c-13.479-5.88-26.387-13.193-39.006-20.65c-25.383-15.058-49.904-31.404-76.864-43.737
			c-32.266-14.627-66.396-22.657-101.96-21.367c-11.759,0.431-21.511,9.465-21.511,21.511
			C521.009,789.149,530.903,799.617,542.519,799.188L542.519,799.188z"/>
	</g>
	<g opacity="0.2">
		<path d="M669.002,372.703c-9.321-11.902-19.359-23.23-29.255-34.561c-5.02-5.735-10.038-11.473-14.914-17.209
			c-2.438-2.867-4.875-5.879-7.313-8.891c-0.008-0.01-0.015-0.018-0.022-0.027c-0.012-0.043-0.333-0.482-1.268-1.693
			c-1.578-2.008-3.012-4.159-4.589-6.167c-4.445-6.311-8.604-12.762-12.333-19.502c-4.589-8.174-6.74-13.193-9.034-20.507
			c-6.31-19.79-7.456-36.281-6.884-57.504c1.291-41.3,10.898-81.74,11.042-123.041c0-17.336-16.368-23.918-28.946-19.925
			c-4.365,8.686-9.135,17.165-14.314,25.361c-0.887,38.6-9.026,76.482-10.803,114.883c-1.864,40.439,6.597,79.732,28.681,113.862
			c17.495,27.246,40.728,50.19,61.377,75c2.228,2.62,4.331,5.35,6.428,7.99c0.61,0.808,1.603,2.12,1.745,2.335
			c1.146,1.434,2.15,3.011,3.299,4.589c4.303,6.166,8.316,12.476,11.901,19.071c1.864,3.3,3.441,6.74,5.021,10.183
			c0.027,0.06,0.049,0.108,0.074,0.165c0.03,0.087,0.072,0.203,0.124,0.342c-9.382-2.859-18.557-6.342-27.73-9.83
			c-19.935-7.887-39.438-16.922-59.656-23.948c-20.076-7.025-41.301-11.614-62.667-11.614c-25.67,0-50.479,7.887-72.85,20.075
			c-10.325,5.594-13.479,19.503-7.743,29.397c6.021,10.325,19.072,13.337,29.396,7.744c18.355-10.038,34.99-14.484,55.066-14.197
			c4.589,0,9.035,0.431,13.479,1.004c-5.02-0.573,2.868,0.573,3.872,0.717c2.581,0.432,5.02,1.004,7.601,1.578
			c10.182,2.294,20.077,5.735,29.828,9.32c18.93,7.027,37.142,15.488,55.928,22.802c21.08,8.317,42.447,14.054,64.962,16.922
			c10.611,1.29,22.944-10.898,21.511-21.511C705.284,430.495,690.655,400.811,669.002,372.703z"/>
	</g>
	<path fill="none" stroke="#000000" stroke-miterlimit="10" d="M499.642,375.144c9.607-17.209,22.802-39.865,20.076-60.372
		 M542.376,372.705c1.577,8.892-0.86,16.636-7.601,22.658 M592.71,495.889c3.872-16.921,11.76-31.69,10.039-50.334 M570.053,417.878
		c-3.872,15.344-4.159,33.843-5.02,50.334 M527.318,438.098c8.747-12.905,10.897-33.27,22.656-45.314 M577.653,478.25
		c3.585-13.91,0.43-28.967,5.019-42.733 M605.33,538.623c0.573-15.631,14.627-47.896,12.619-70.411"/>
	<path fill="none" d="M998.167,522.833c34.746-28.467,54.467-68.817,100.382-85c41.628-14.671,90.294-11.683,129.161,7.79
		c75.313,37.734,55.729,121.326,97.494,183.494c16.827,25.049,33.368,59.619,36.376,91.166c1.94,20.355,2.933,40.729,4.968,60.884
		c1.814,17.979-3.254,24.92-14.677,38.71c-28.373,34.251-68.167,20.174-107.581,11.622c-37.384-8.111-74.818-26.383-111.123-38.666"
		/>
	<path fill="none" stroke="#020000" stroke-miterlimit="10" d="M1036.057,520.934c35.557-16.813,60.902-52.421,97.964-66.344
		c27.591-10.365,71.461-14.082,100.92-7.354c16.287,3.72,37.208,16.414,43.273,33.736c4.865,13.896-2.004,30.711,1.51,44.961
		c4.526,18.366,17.202,36.685,23.371,54.914c6.821,20.161,14.062,37.89,18.011,58.781c7.187,38.02,21.961,65.253,42.952,98.052
		c15.18,23.716,19.377,52.729-6.711,70.332c-26.482,17.872-72.627,21.384-104.119,22.921c-19.071,0.933-39.084,1.229-57.25-4.955
		c-13.979-4.758-19.341-12.536-29.921-21.711"/>
</g>
</svg>
