<?xml version="1.0" encoding="utf-8"?>
<!-- Generator: Adobe Illustrator 16.0.0, SVG Export Plug-In . SVG Version: 6.00 Build 0)  -->
<!DOCTYPE svg PUBLIC "-//W3C//DTD SVG 1.1//EN" "http://www.w3.org/Graphics/SVG/1.1/DTD/svg11.dtd">
<svg version="1.1" xmlns="http://www.w3.org/2000/svg" xmlns:xlink="http://www.w3.org/1999/xlink" x="0px" y="0px" width="1600px"
	 height="900px" viewBox="0 0 1600 900" enable-background="new 0 0 1600 900" xml:space="preserve">
<g id="white">
	<g>
		<g>
			<path fill="#FFFFFF" d="M682.267,19.964c-22.966,5.516-44.419,19.058-60.044,36.666C605.149,75.868,594.049,97.743,585,121.653
				c-7.1,18.758-11.628,38.459-14.779,58.235c-3.4,21.341-5.753,42.874-6.287,64.485c-1.389,56.311,17.078,110.328,42.131,160.043
				c24.939,49.489,58.322,95.448,95.7,136.254c1.895,2.069,3.814,4.115,5.743,6.153c15.358,16.233,42.514,15.469,57.982,0
				c16.123-16.123,15.349-41.76,0-57.982c-13.258-14.013-25.747-28.723-37.564-43.967c2.137,2.766,4.274,5.532,6.411,8.297
				c-28.033-36.353-52.536-75.769-70.441-118.114c1.378,3.265,2.756,6.529,4.133,9.794c-10.139-24.249-18.052-49.483-21.72-75.562
				c0.488,3.633,0.977,7.267,1.465,10.899c-3.552-26.501-1.851-53.648,1.627-80.078c-0.488,3.633-0.976,7.267-1.464,10.9
				c3.457-25.687,9.181-51.266,19.188-75.244c-1.378,3.265-2.755,6.53-4.133,9.794c5.156-12.152,11.44-23.802,19.516-34.276
				c-2.137,2.766-4.274,5.532-6.411,8.298c5.024-6.39,10.654-12.208,17.065-17.215c-2.766,2.137-5.532,4.274-8.298,6.411
				c5.242-3.99,10.863-7.331,16.912-9.947c-3.265,1.377-6.529,2.755-9.794,4.133c3.929-1.633,7.947-2.937,12.084-3.931
				c21.727-5.218,34.412-29.436,28.636-50.435C726.633,26.538,703.98,14.75,682.267,19.964L682.267,19.964z"/>
		</g>
	</g>
	<g>
		<g>
			<path fill="#FFFFFF" d="M717.267,34.964c-14.249,5.071-24.446,11.172-36.177,20.359c-8.53,6.68-14.994,15.238-21.373,23.938
				c-11.65,15.89-18.91,35.612-23.929,54.522c-10.438,39.32-11.888,81.513-9.526,121.955c2.351,40.242,7.442,82.08,23.07,119.509
				c10.967,26.264,24.575,50.167,41.855,72.801c17.323,22.689,36.089,44.04,54.862,65.521c3.843,4.397,7.665,8.814,11.458,13.256
				c13.768,16.118,44.193,16.001,57.982,0c6.718-7.794,9.927-12.951,13.157-22.785c2.01-6.115,2.171-13.077,2.186-19.539
				c0.049-22.351-18.688-41-41-41c-22.388,0-40.95,18.65-41,41c-0.004,1.974-0.044,3.927-0.213,5.894
				c0.488-3.634,0.977-7.267,1.465-10.899c-0.205,1.407-0.486,2.684-0.93,4.035c1.377-3.266,2.755-6.53,4.133-9.795
				c-0.324,0.843-0.753,1.629-1.287,2.356c2.137-2.766,4.274-5.531,6.411-8.298c-0.301,0.35-0.603,0.699-0.903,1.049
				c19.327,0,38.655,0,57.982,0c-19.701-23.064-40.419-45.291-58.998-69.294c2.137,2.766,4.274,5.532,6.411,8.298
				c-15.294-19.894-28.79-41.052-38.634-64.192c1.378,3.265,2.755,6.53,4.133,9.794c-9.359-22.414-14.625-45.944-17.883-69.934
				c0.488,3.633,0.977,7.266,1.465,10.899c-5.267-39.342-6.699-79.775-1.54-119.2c-0.488,3.633-0.977,7.266-1.465,10.899
				c2.45-18.197,6.408-36.303,13.517-53.288c-1.378,3.265-2.755,6.529-4.133,9.794c3.666-8.583,8.138-16.773,13.823-24.192
				c-2.137,2.766-4.274,5.532-6.411,8.298c3.909-4.99,8.303-9.508,13.296-13.419c-2.766,2.137-5.532,4.274-8.298,6.411
				c4.288-3.267,8.887-5.992,13.824-8.159c-3.265,1.377-6.53,2.755-9.794,4.133c1.406-0.593,2.824-1.144,4.262-1.655
				c10.356-3.686,18.81-9.125,24.503-18.842c5.547-9.469,7.044-21.01,4.133-31.593C762.104,43.248,738.336,27.467,717.267,34.964
				L717.267,34.964z"/>
		</g>
	</g>
	<g>
		<g>
			<path fill="#FFFFFF" d="M716.964,55.267c-4.773,33.423-5.394,66.283-2.711,99.919c2.495,31.275,7.04,62.342,10.395,93.527
				c3.622,33.666,6.496,67.234,12.512,100.612c5.44,30.186,12.945,59.957,21.471,89.408c5.083,17.556,21.115,30.101,39.536,30.101
				c22.099,0,41.332-18.649,41-41c-0.107-7.265-1.533-14.411-1.666-21.667c-0.407-22.342-18.342-41-41-41
				c-22.042,0-41.408,18.649-41,41c0.132,7.256,1.559,14.402,1.667,21.667c26.845-3.633,53.69-7.266,80.536-10.899
				c-11.58-40-20.979-80.549-26.599-121.836c0.488,3.633,0.977,7.267,1.465,10.899c-2.544-19.047-3.896-38.184-5.92-57.284
				c-2.112-19.922-4.736-39.785-7.018-59.688c-4.53-39.526-7.748-79.592-2.637-119.227c-0.488,3.633-0.977,7.267-1.465,10.899
				c0.16-1.212,0.329-2.423,0.506-3.633c1.637-11.464,1.973-21.168-4.133-31.593c-5.369-9.166-14.254-16.023-24.503-18.842
				c-10.583-2.911-22.124-1.414-31.593,4.133C727.603,35.57,718.377,45.377,716.964,55.267L716.964,55.267z"/>
		</g>
	</g>
	<g>
		<g>
			<path fill="#FFFFFF" d="M760.5,72.833c0.12,12.905,2.086,25.869,4.786,38.471c2.129,9.939,5.379,19.603,7.485,29.539
				c4.272,20.161,7.596,40.517,10.341,60.938c-0.488-3.633-0.977-7.267-1.465-10.899c5.973,45.111,8.947,90.58,11.279,136.006
				c2.381,46.363,0.744,92.832,10.706,138.51c4.763,21.839,29.78,34.317,50.435,28.636c22.399-6.161,33.394-28.619,28.636-50.435
				c-1.542-7.074-2.777-14.195-3.779-21.365c0.488,3.633,0.977,7.266,1.465,10.899c-3.748-28.031-3.925-56.337-4.671-84.56
				c-0.762-28.813-2.677-57.646-4.824-86.387c-2.438-32.634-6.053-65.149-10.88-97.518c-2.185-14.647-4.784-29.231-7.776-43.735
				c-3.057-14.82-8.033-29.102-10.164-44.139c0.488,3.633,0.977,7.266,1.464,10.899c-0.629-4.944-0.989-9.877-1.036-14.862
				c-0.208-22.347-18.492-41-41-41C779.308,31.833,760.292,50.482,760.5,72.833L760.5,72.833z"/>
		</g>
	</g>
	<g>
		<g>
			<path fill="#FFFFFF" d="M817.509,58.491c2.35,2.628,4.596,5.333,6.757,8.119c-2.137-2.766-4.274-5.532-6.411-8.298
				c9.16,12.045,16.359,25.347,22.24,39.265c-1.378-3.265-2.755-6.529-4.133-9.794c11.469,27.625,17.81,57.079,21.848,86.629
				c-0.488-3.633-0.977-7.266-1.465-10.899c4.288,32.047,5.218,64.223,6.33,96.482c0.975,28.291,1.618,56.596,1.206,84.904
				c-0.352,24.198-1.339,48.494-4.524,72.503c0.488-3.633,0.977-7.267,1.464-10.899c-1.748,12.914-3.957,26.131-8.952,38.242
				c1.378-3.265,2.756-6.529,4.133-9.794c-1.424,3.367-3.088,6.63-5.307,9.549c2.137-2.766,4.274-5.532,6.411-8.298
				c-1.057,1.342-2.212,2.571-3.546,3.642c2.766-2.137,5.532-4.274,8.298-6.411c-1.015,0.774-2.083,1.419-3.258,1.92
				c3.265-1.378,6.529-2.756,9.794-4.133c-0.916,0.357-1.842,0.608-2.813,0.756c3.633-0.488,7.267-0.977,10.899-1.465
				c-1.139,0.137-2.255,0.122-3.393-0.023c3.634,0.488,7.267,0.976,10.899,1.464c-0.535-0.084-1.061-0.191-1.587-0.32
				c-21.69-5.313-44.386,6.646-50.435,28.636c-5.797,21.073,6.934,45.119,28.636,50.435c4.891,1.198,10.089,2.17,15.146,1.885
				c11.66-0.656,14.114-2.119,24.577-6.574c9.309-3.963,15.998-13.063,21.729-20.867c7.877-10.729,11.878-25.233,14.668-38.159
				c7.262-33.639,8.677-68.776,9.175-103.088c0.409-28.167-0.271-56.334-1.241-84.483c-1.233-35.796-2.916-71.256-7.773-106.802
				c-7.474-54.685-23.921-110.188-61.39-152.105c-14.899-16.669-42.849-15.134-57.982,0
				C801.052,16.966,802.628,41.844,817.509,58.491L817.509,58.491z"/>
		</g>
	</g>
	<g>
		<g>
			<path fill="#FFFFFF" d="M862.765,36.86c7.863,16.934,16.805,33.356,24.077,50.564c-1.378-3.265-2.756-6.53-4.133-9.794
				c7.595,18.34,12.946,37.403,15.602,57.081c-0.488-3.633-0.977-7.267-1.465-10.899c4.993,39.066,1.265,78.495-1.663,117.567
				c-2.973,39.679-6.265,79.373-11.546,118.825c0.488-3.633,0.977-7.266,1.465-10.899c-6.785,50.009-17.801,99.32-37.378,145.981
				c1.377-3.265,2.755-6.529,4.133-9.794c-2.374,5.596-4.849,11.144-7.426,16.648c-3.709,6.395-5.574,13.293-5.598,20.693
				c0,10.83,4.354,21.337,12.009,28.991c13.069,13.069,33.72,15.647,49.685,6.411c24.688-14.283,45.896-34.926,58.989-60.429
				c13.771-26.824,18.814-55.92,25.536-84.983c7.273-31.446,15.001-62.785,22.408-94.2c7.77-32.955,14.444-66.31,14.667-100.317
				c0.164-24.956-3.548-50.48-10.97-74.307c-7.32-23.5-21.579-43.328-31.309-65.681c1.378,3.265,2.755,6.529,4.133,9.794
				c-1.768-4.208-3.319-8.469-4.613-12.847c-13.179,17.3-26.356,34.6-39.535,51.899c0.517,0.043,1.032,0.097,1.546,0.161
				c-3.633-0.488-7.266-0.977-10.899-1.465c3.513,0.474,6.878,1.39,10.144,2.767c-3.265-1.378-6.529-2.755-9.794-4.133
				c2.991,1.332,5.767,2.992,8.39,4.949c-2.766-2.137-5.532-4.274-8.298-6.411c3.802,2.939,7.103,6.377,10.064,10.155
				c-2.137-2.766-4.273-5.532-6.411-8.298c4.935,6.454,8.756,13.619,11.956,21.068c-1.378-3.265-2.756-6.529-4.133-9.794
				c7.631,18.125,11.722,37.59,14.368,57.011c-0.488-3.633-0.977-7.267-1.465-10.899c3.711,27.904,5.042,56.959,1.384,84.953
				c0.488-3.633,0.977-7.266,1.465-10.899c-3.251,24.041-9.372,47.81-18.802,70.175c1.377-3.265,2.755-6.529,4.133-9.794
				c-6.035,14.042-13.402,27.445-22.671,39.625c2.138-2.766,4.274-5.532,6.411-8.298c-5.407,6.956-11.366,13.384-18.045,19.137
				c2.766-2.137,5.531-4.274,8.298-6.411c-8.323,6.344-17.751,11.033-26.667,16.458c-14.047,8.547-26.306,18.837-35.196,32.79
				c-8.636,13.551-10.768,31.099-10.611,46.788c0.141,14.014,2.317,28.264,5.299,41.933c4.646,21.307,29.954,35.025,50.435,28.636
				c36.655-11.435,58.093-46.09,73.503-79c6.29-13.432,11.493-27.328,18.885-40.217c12.102-21.103,23.892-41.919,24.38-66.984
				c0.436-22.351-18.979-41-41-41c-22.68,0-40.564,18.659-41,41c-0.039,2.021-0.191,4-0.453,6.005
				c0.488-3.633,0.977-7.267,1.465-10.9c-0.844,5.102-2.402,9.925-4.399,14.686c1.378-3.265,2.756-6.529,4.133-9.794
				c-4.58,10.388-10.794,19.907-16.307,29.803c-4.575,8.211-8.002,17-11.787,25.589c-7.625,17.302-15.885,34.655-27.383,49.766
				c2.138-2.766,4.274-5.532,6.411-8.298c-3.955,5.077-8.27,9.806-13.307,13.83c2.766-2.137,5.531-4.274,8.298-6.411
				c-2.872,2.197-5.88,4.085-9.176,5.582c3.265-1.378,6.529-2.755,9.794-4.133c-1.269,0.531-2.543,0.998-3.855,1.407
				c16.812,9.545,33.623,19.091,50.435,28.636c-0.992-4.549-1.791-9.127-2.438-13.737c0.488,3.633,0.976,7.267,1.464,10.899
				c-1.307-9.87-1.989-19.895-0.757-29.809c-0.488,3.633-0.976,7.267-1.464,10.899c0.53-3.612,1.323-7.103,2.736-10.479
				c-1.378,3.265-2.756,6.53-4.133,9.794c1.032-2.192,2.282-4.19,3.733-6.129c-2.138,2.766-4.274,5.532-6.411,8.297
				c2.716-3.376,5.854-6.243,9.271-8.896c-2.766,2.137-5.532,4.273-8.298,6.411c9.269-6.937,19.714-12.014,29.469-18.196
				c12.639-8.009,23.513-18.196,32.663-29.969c9.734-12.523,18.363-25.143,25.262-39.452c6.907-14.328,12.789-29.294,17.365-44.533
				c10.734-35.745,14.2-73.417,12.204-110.585c-1.697-31.588-5.713-64.781-17.456-94.394c-6.976-17.59-15.049-33.638-28.423-47.373
				c-5.745-5.9-12.592-11.255-19.917-15.044c-11.722-6.064-21.36-8.253-34.405-9.474c-10.312-0.964-21.924,4.941-28.991,12.009
				c-10.189,10.189-14.67,25.932-10.544,39.891c7.442,25.177,22.729,46.178,32.898,70.054c-1.378-3.265-2.755-6.529-4.133-9.794
				c5.47,13.342,8.592,27.86,10.602,42.1c-0.488-3.633-0.977-7.266-1.465-10.899c2.958,22.375,2.132,44.855-0.802,67.185
				c0.488-3.633,0.976-7.266,1.464-10.899c-5.157,37.816-15.968,75.002-24.833,112.083c-4.542,19.001-9.011,38.02-13.271,57.085
				c-3.326,14.88-6.468,29.654-12.299,43.804c1.377-3.265,2.755-6.529,4.133-9.794c-3.918,9.247-8.791,17.96-14.908,25.937
				c2.138-2.767,4.274-5.532,6.411-8.298c-5.501,6.988-11.798,13.17-18.808,18.639c2.766-2.137,5.531-4.273,8.298-6.41
				c-4.611,3.508-9.432,6.673-14.445,9.573c18.698,18.698,37.397,37.397,56.096,56.096c13.785-29.449,25.187-59.88,33.458-91.331
				c8.098-30.792,12.953-62.191,17.173-93.71c3.923-29.3,6.529-58.762,9.154-88.2c2.541-28.5,4.767-57.187,5.886-85.78
				c1.263-32.247-0.376-65.156-8.274-96.558c-8.224-32.696-24.974-62.131-39.063-92.474c-4.271-9.197-15.07-16.248-24.503-18.842
				c-10.582-2.911-22.124-1.414-31.593,4.133c-9.165,5.369-16.023,14.254-18.842,24.503
				C855.494,16.674,857.949,26.488,862.765,36.86L862.765,36.86z"/>
		</g>
	</g>
	<g>
		<g>
			<path fill="#FFFFFF" d="M713.631,532.066c2.317,15.781,13.219,27.796,25.687,36.611c9.645,6.818,23.89,8.968,35.306,9.189
				c16.29,0.317,32.041-4.791,48.022-6.999c-3.634,0.488-7.267,0.977-10.899,1.465c0.473-0.063,0.946-0.118,1.421-0.166
				c11.296-1.228,20.667-3.685,28.991-12.009c7.654-7.654,12.009-18.161,12.009-28.991s-4.354-21.337-12.009-28.991
				c-6.975-6.975-18.77-13.119-28.991-12.009c-13.209,1.436-25.974,4.69-39.105,6.457c3.633-0.488,7.267-0.977,10.899-1.465
				c-5.041,0.63-10.098,0.965-15.161,0.406c3.633,0.488,7.266,0.976,10.899,1.464c-2.372-0.325-4.642-0.85-6.871-1.731
				c3.265,1.377,6.529,2.755,9.794,4.133c-1.273-0.569-2.445-1.223-3.584-2.028c2.766,2.137,5.532,4.273,8.298,6.411
				c-1.092-0.864-2.029-1.795-2.899-2.884c2.137,2.767,4.274,5.532,6.411,8.298c-0.679-0.959-1.242-1.932-1.748-2.993
				c1.378,3.265,2.755,6.53,4.133,9.795c-0.771-1.876-1.238-3.758-1.532-5.762c-1.454-9.903-10.608-19.68-18.842-24.503
				c-9.469-5.547-21.01-7.044-31.593-4.133c-10.249,2.818-19.134,9.677-24.503,18.842
				C711.675,510.869,711.951,520.626,713.631,532.066L713.631,532.066z"/>
		</g>
	</g>
	<g>
		<g>
			<path fill="#FFFFFF" d="M788.86,612.431c-23.939-17.876-49.566-33.304-75.597-47.91c-25.751-14.449-51.704-29.025-78.512-41.429
				c-30.15-13.95-61.462-25.927-94.122-32.415c-30.541-6.068-61.646-8.631-91.992-0.089c-46.11,12.979-84.048,49.509-102.613,93.177
				c-5.096,11.987-9.756,23.813-12.774,36.499c-3.138,13.188-4.896,26.849-5.745,40.365c-0.655,10.428-0.259,20.909,0.986,31.278
				c1.025,8.539,1.852,17.592,4.707,25.813c3.94,11.347,9.269,20.388,17.645,29.104c19.328-19.327,38.655-38.655,57.982-57.982
				c-3.778-3.709-7.309-7.6-10.569-11.771c2.137,2.766,4.274,5.532,6.411,8.298c-4.081-5.416-7.559-11.14-10.308-17.344
				c1.377,3.265,2.755,6.529,4.133,9.795c-2.38-5.677-4.051-11.506-4.981-17.592c0.488,3.633,0.977,7.267,1.464,10.899
				c-0.839-6.35-0.838-12.665-0.089-19.024c-0.488,3.634-0.976,7.267-1.464,10.899c1.138-8.389,3.509-16.435,6.755-24.242
				c-1.378,3.265-2.756,6.529-4.133,9.794c5.022-11.659,11.771-22.378,19.441-32.468c-2.137,2.767-4.274,5.532-6.411,8.298
				c6.603-8.546,13.805-16.57,21.418-24.226c12.986-13.058,15.747-33.748,6.411-49.685c-9.051-15.45-28.822-24.296-46.302-18.842
				c-27.36,8.536-40.646,33.312-48.874,58.86c-6.843,21.251-9.674,43.838-12.356,65.906c-2.445,20.126-3.938,40.516,3.875,59.847
				c6.379,15.784,14.659,30.817,28.029,41.876c6.359,5.26,12.792,10.386,20.42,13.609c12.189,5.153,21.311,7.812,34.806,8.77
				c22.319,1.584,41-19.849,41-41c0-10.83-4.354-21.337-12.009-28.991c-8.096-8.097-17.835-11.217-28.991-12.009
				c-1.352-0.096-2.685-0.231-4.028-0.41c3.633,0.488,7.266,0.977,10.899,1.465c-3.478-0.571-6.801-1.483-10.085-2.762
				c3.265,1.378,6.529,2.756,9.794,4.134c-3.986-1.685-7.646-3.815-11.111-6.404c2.766,2.137,5.532,4.274,8.298,6.411
				c-3.752-2.951-7.057-6.285-10.031-10.017c2.137,2.766,4.274,5.531,6.411,8.298c-3.438-4.51-6.236-9.351-8.465-14.563
				c1.378,3.265,2.755,6.529,4.133,9.794c-2.088-5.166-3.535-10.468-4.286-15.99c0.488,3.633,0.976,7.266,1.464,10.899
				c-1.461-12.866,0.996-26.619,2.692-39.371c-0.488,3.634-0.977,7.267-1.465,10.899c2.709-20.006,6.131-40.608,14.012-59.316
				c-1.378,3.265-2.756,6.529-4.133,9.794c1.875-4.32,4.021-8.504,6.856-12.279c-2.137,2.766-4.274,5.532-6.411,8.298
				c1.341-1.705,2.791-3.262,4.484-4.622c-2.766,2.137-5.532,4.273-8.298,6.411c1.03-0.771,2.09-1.427,3.253-1.977
				c-3.265,1.378-6.529,2.756-9.794,4.133c0.564-0.235,1.124-0.44,1.708-0.623c-13.297-22.842-26.594-45.685-39.891-68.526
				c-25.033,25.171-48.283,55.756-56.701,90.9c-4.598,19.197-4.679,39.388,0.688,58.443c5.952,21.131,18.811,40.056,34.346,55.305
				c15.94,15.646,42.077,15.906,57.982,0c16.032-16.031,15.475-41.878,0-57.982c-0.985-1.025-1.91-2.065-2.804-3.171
				c2.137,2.766,4.274,5.532,6.411,8.298c-1.546-2.099-2.795-4.268-3.836-6.657c1.377,3.265,2.755,6.53,4.133,9.795
				c-1.844-4.741-2.853-9.772-3.537-14.802c0.488,3.633,0.976,7.267,1.464,10.899c-1.937-15.132-1.875-30.389,0.096-45.514
				c-0.488,3.633-0.977,7.267-1.465,10.899c2.049-14.865,5.91-29.373,11.673-43.232c-1.378,3.265-2.756,6.529-4.133,9.795
				c5.048-11.875,11.429-23.078,19.288-33.32c-2.137,2.766-4.274,5.532-6.411,8.298c6.499-8.313,13.87-15.818,22.185-22.321
				c-2.766,2.137-5.532,4.273-8.298,6.411c7.717-5.908,16.056-10.813,25.006-14.609c-3.265,1.378-6.53,2.756-9.794,4.134
				c8.928-3.667,18.205-6.128,27.768-7.428c-3.633,0.488-7.267,0.977-10.899,1.465c12.778-1.587,25.466-0.816,38.202,0.824
				c-3.633-0.488-7.266-0.977-10.899-1.465c30.025,4.088,59.05,13.273,86.911,25.019c-3.265-1.378-6.53-2.756-9.794-4.133
				c29.451,12.554,57.487,28.308,85.476,43.786c28.216,15.604,56.042,32.109,81.905,51.423c8.348,6.234,21.989,6.774,31.593,4.133
				c10.249-2.818,19.134-9.677,24.502-18.842c5.547-9.469,7.045-21.011,4.134-31.593C804.625,625.749,797.805,619.11,788.86,612.431
				L788.86,612.431z"/>
		</g>
	</g>
	<g>
		<g>
			<path fill="#FFFFFF" d="M317.473,635.765c-26.978,11.73-43.887,41.952-34.912,70.904c7.292,23.521,26.054,39.925,45.653,53.416
				c15.631,10.761,33.777,19.282,51.889,24.776c9.305,2.822,19.295,4.31,29.006,3.851c18.75-0.887,34.78-6.033,51.794-13.332
				c27.199-11.67,50.157-31.177,77.402-42.761c-3.265,1.378-6.529,2.756-9.794,4.133c8.877-3.662,18.162-6.381,27.67-7.803
				c-3.633,0.488-7.266,0.977-10.899,1.465c6.278-0.814,12.512-0.858,18.792-0.038c-3.633-0.488-7.266-0.977-10.899-1.465
				c6.244,0.938,12.231,2.681,18.07,5.07c-3.265-1.378-6.529-2.755-9.794-4.133c20.042,8.538,36.501,23.34,54.608,35.119
				c10.052,6.54,20.725,11.342,31.742,15.995c15.931,6.729,31.88,13.393,48.061,19.504c29.619,11.187,59.279,19.577,90.743,23.476
				c28.217,3.496,57.69-0.074,84.926-7.862c51.969-14.861,97.151-46.085,146.527-67.108c-3.266,1.377-6.53,2.755-9.795,4.133
				c23.834-10.038,48.329-19.613,74.086-23.186c-3.634,0.488-7.267,0.977-10.899,1.465c10.434-1.32,20.863-1.552,31.306-0.19
				c-3.633-0.488-7.267-0.977-10.899-1.465c7.611,1.132,14.941,3.088,22.077,5.974c-3.265-1.377-6.529-2.755-9.794-4.133
				c3.257,1.534,6.273,3.421,9.152,5.577c-2.766-2.137-5.532-4.273-8.298-6.41c7.078,5.475,12.96,12.242,18.424,19.287
				c-2.137-2.766-4.273-5.532-6.411-8.298c12.748,16.611,23.691,34.449,37.249,50.473c16.193,19.139,38.602,32.231,64.021,32.941
				c15.979,0.446,30.835-5.839,44.942-12.501c13.826-6.529,26.375-16.39,37.583-26.65c23.266-21.3,39.777-49.366,50.251-78.876
				c5.045-14.214,8.006-29.923,8.267-44.959c0.304-17.488-4.625-33.357-11.88-48.978c-5.626-12.111-14.736-23.036-24.043-32.477
				c-9.871-10.014-21.447-18.519-32.902-26.589c-49.033-34.546-106.069-59.63-167.061-58.691
				c-38.204,0.589-73.523,13.114-106.15,32.399c-13.967,8.256-27.256,17.619-40.443,27.052c-6.241,4.465-12.457,8.964-18.713,13.408
				c-11.114,7.897-23.923,14.719-31.063,26.703c2.138-2.766,4.274-5.532,6.411-8.298c-0.874,1.086-1.745,1.924-2.842,2.783
				c2.766-2.137,5.532-4.273,8.298-6.411c-1.544,1.02-3.141,1.877-4.792,2.709c13.796,23.602,27.591,47.203,41.387,70.805
				c14.872-9.033,30.49-16.785,46.499-23.586c-3.265,1.378-6.529,2.756-9.794,4.133c28.203-11.883,57.782-20.891,88.142-25.104
				c-3.633,0.488-7.266,0.977-10.898,1.464c17.909-2.399,36.057-3.07,54.014-0.767c-3.634-0.487-7.267-0.976-10.9-1.464
				c11.581,1.574,22.912,4.403,33.697,8.941c-3.265-1.377-6.529-2.755-9.794-4.133c7.785,3.369,15.104,7.573,21.864,12.702
				c-2.766-2.137-5.531-4.273-8.298-6.411c6.612,5.14,12.481,11.04,17.627,17.646c-2.137-2.767-4.274-5.532-6.411-8.298
				c4.84,6.366,9.01,13.18,12.151,20.544c-1.378-3.265-2.755-6.529-4.133-9.794c2.025,5.002,3.509,10.115,4.259,15.465
				c-0.488-3.633-0.977-7.267-1.465-10.899c0.477,4.068,0.504,8.089-0.018,12.153c0.488-3.633,0.977-7.266,1.465-10.899
				c-0.539,3.486-1.46,6.814-2.817,10.071c1.378-3.265,2.756-6.529,4.133-9.794c-1.297,2.887-2.872,5.557-4.76,8.097
				c2.137-2.767,4.273-5.532,6.411-8.298c-2.272,2.894-4.834,5.436-7.7,7.739c2.766-2.137,5.531-4.273,8.298-6.411
				c-3.869,2.959-8.041,5.319-12.5,7.27c3.266-1.378,6.529-2.755,9.795-4.133c-6.582,2.726-13.423,4.435-20.459,5.494
				c3.633-0.488,7.267-0.977,10.899-1.465c-11.215,1.078-22.374,0.438-33.529-0.977c3.634,0.488,7.267,0.977,10.899,1.465
				c-14.351-1.931-28.524-4.942-42.843-7.078c-17.404-2.597-34.358-3.653-51.908-3.82c-6.464-0.062-12.919,0.169-19.339,0.936
				c-8.138,0.972-17.1,1.635-24.851,4.735c-7.887,3.154-15.248,6.575-22.603,10.733c-4.578,2.589-9.134,5.215-13.953,7.335
				c3.265-1.378,6.529-2.756,9.794-4.134c-2.367,0.978-4.732,1.787-7.262,2.22c3.633-0.488,7.267-0.976,10.899-1.464
				c-5.552,0.632-9.127,0.14-15.583,1.606c-5.772,1.313-11.092,4.245-16.484,6.654c3.265-1.378,6.53-2.756,9.795-4.134
				c-0.764,0.315-1.451,0.593-2.266,0.721c15.434,6.28,30.868,12.561,46.302,18.842c-0.171-0.387-0.342-0.774-0.513-1.161
				c1.378,3.265,2.756,6.529,4.133,9.794c-1.083-2.758-1.795-5.53-2.203-8.465c0.488,3.633,0.977,7.266,1.465,10.899
				c-0.35-3.422-0.264-6.771,0.169-10.181c-0.488,3.633-0.977,7.266-1.465,10.899c0.771-4.94,2.206-9.641,4.121-14.254
				c-1.377,3.265-2.755,6.529-4.133,9.794c2.889-6.582,6.606-12.66,10.945-18.384c-2.137,2.767-4.273,5.532-6.41,8.298
				c4.833-6.184,10.267-11.796,16.426-16.668c-2.766,2.137-5.532,4.273-8.298,6.411c2.868-2.193,5.691-4.093,9-5.555
				c-3.265,1.378-6.529,2.756-9.794,4.133c9.558-4.029,19.534-6.536,29.794-7.97c-3.634,0.488-7.267,0.976-10.899,1.464
				c16.351-2.087,32.821-1.483,49.139,0.61c-3.634-0.488-7.267-0.977-10.899-1.465c29.703,4.001,60.39,10.532,88.085,22.185
				c-3.265-1.378-6.529-2.755-9.794-4.133c10.34,4.424,20.3,9.717,29.236,16.585c-2.766-2.137-5.531-4.273-8.298-6.41
				c5.063,3.982,9.679,8.421,13.637,13.513c-2.137-2.766-4.273-5.531-6.41-8.298c2.973,3.952,5.45,8.164,7.374,12.722
				c-1.378-3.265-2.756-6.529-4.134-9.794c1.634,4.084,2.759,8.273,3.406,12.624c-0.487-3.633-0.976-7.267-1.464-10.899
				c0.714,5.528,0.618,11.027-0.108,16.549c0.488-3.633,0.977-7.266,1.464-10.899c-0.059,0.395-0.117,0.788-0.176,1.183
				c24.979-3.265,49.958-6.529,74.938-9.794c-9.095-19.806-23.733-37.611-39.685-52.313c-17.591-16.214-37.854-30.157-59.654-40.062
				c-24.609-11.18-49.396-18.409-76.541-19.849c-13.046-0.691-26.617,0.844-39.208,4.134c-14.624,3.821-28.454,10.756-42.309,16.633
				c3.265-1.378,6.529-2.756,9.794-4.134c-8.326,3.504-16.721,6.782-25.485,9.021c-9.88,2.522-20.188,3.802-30.246,5.421
				c-21.344,3.437-42.68,7.413-64.086,10.391c3.634-0.488,7.267-0.977,10.899-1.465c-33.613,4.497-67.508,4.149-101.103-0.335
				c3.633,0.488,7.267,0.977,10.899,1.465c-24.598-3.387-48.819-8.834-72.727-15.492c-21.189-5.9-42.684-12.084-62.984-20.617
				c3.265,1.378,6.529,2.756,9.794,4.134c-17.982-7.624-35.667-16.138-54.21-22.345c-19.567-6.55-42.761-10.109-62.783-3.428
				c-10.336,3.449-18.897,9.271-24.503,18.842c-7.93,13.536-6.37,27.774,0,41.387c10.88,23.252,30.289,41.192,51.072,55.549
				c19.715,13.618,42.842,22.839,65.531,30.144c42.265,13.608,87.437,19.038,131.638,21.178c45.084,2.183,90.114-0.23,134.653-7.647
				c43.049-7.168,86.967-21.363,123.201-46.181c-20.076-15.434-40.152-30.868-60.229-46.302c-0.369,1.988-0.94,3.875-1.701,5.747
				c1.377-3.265,2.755-6.529,4.133-9.794c-1.256,2.838-2.861,5.424-4.729,7.898c2.137-2.767,4.273-5.532,6.411-8.299
				c-3.754,4.76-8.229,8.798-13.011,12.499c2.766-2.138,5.531-4.274,8.298-6.411c-15.073,11.402-32.465,19.505-49.791,26.84
				c3.265-1.377,6.529-2.755,9.794-4.133c-10.757,4.525-21.624,8.903-32.556,12.989c-17.921,6.698-36.75,10.671-55.669,13.247
				c3.633-0.488,7.267-0.977,10.899-1.465c-31.045,4.068-62.836,5.987-93.958,1.841c3.633,0.488,7.266,0.977,10.9,1.465
				c-32.787-4.57-64.418-14.718-94.877-27.483c3.265,1.378,6.529,2.756,9.794,4.133c-58.452-24.714-112.168-58.709-167.042-90.243
				c-12.733-7.317-28.664-7.453-41.387,0c-11.724,6.868-21.402,21.314-20.307,35.402c0.983,12.645,3.2,19.946,8.156,31.334
				c3.31,7.605,8.668,13.827,13.749,20.326c8.563,10.953,20.447,19.469,31.493,27.628c18.582,13.725,38.874,25.196,58.228,37.771
				c27.316,17.747,54.624,34.735,85.428,45.887c29.293,10.604,61.195,14.635,91.985,17.909c21.551,2.292,43.215,3.406,64.866,4.232
				c20.705,0.79,41.428,1.717,62.13,0.39c23.517-1.507,47.36-5.08,69.789-12.484c12.488-4.123,24.747-9.388,36.403-15.47
				c12.417-6.48,23.476-14.857,34.431-23.531c-21.465-16.562-42.929-33.123-64.394-49.685c-2.698,4.865-5.702,9.502-9.07,13.931
				c2.137-2.767,4.273-5.532,6.411-8.298c-5.286,6.744-11.297,12.747-18.037,18.037c2.766-2.137,5.531-4.273,8.298-6.41
				c-8.135,6.209-17.004,11.183-26.408,15.193c3.265-1.377,6.529-2.755,9.794-4.133c-15.901,6.594-32.418,9.702-49.247,12.854
				c-18.691,3.5-37.208,7.902-56.07,10.443c3.633-0.488,7.267-0.977,10.899-1.465c-13.563,1.744-27.216,2.479-40.828,0.839
				c3.633,0.488,7.267,0.977,10.899,1.465c-8.709-1.173-17.128-3.328-25.241-6.723c3.265,1.378,6.529,2.756,9.794,4.134
				c-9.455-4.162-17.744-10.071-25.879-16.349c2.766,2.137,5.532,4.274,8.298,6.411c-22.453-17.417-43.979-37.015-61.454-59.501
				c2.137,2.766,4.274,5.532,6.411,8.298c-5.871-7.648-11.285-15.712-15.155-24.574c1.377,3.265,2.755,6.529,4.133,9.794
				c-1.657-3.938-2.966-7.973-3.628-12.201c0.488,3.633,0.977,7.266,1.464,10.899c-0.368-2.742-0.439-5.452-0.088-8.199
				c-0.488,3.633-0.977,7.266-1.465,10.899c0.299-1.888,0.785-3.686,1.498-5.459c-1.377,3.265-2.755,6.529-4.133,9.794
				c1.337-3.027,3.356-5.587,5.354-8.204c-2.137,2.767-4.274,5.532-6.411,8.298c9.195-11.737,20.561-21.25,31.908-30.81
				c13.772-11.604,26.06-24.113,35.875-39.38c13.139-20.435,18.005-44.921,19.097-68.824c1.054-23.071-2.516-47.117-8.748-69.301
				c-4.938-17.575-21.225-30.101-39.536-30.101c-18.445,0-34.421,12.549-39.536,30.101c-8.374,28.737-16.525,57.614-28.096,85.271
				c1.378-3.265,2.755-6.529,4.133-9.794c-6.398,15.094-13.779,29.857-23.571,43.063c23.602,0,47.203,0,70.805,0
				c-0.526-1.114-1.031-2.235-1.516-3.367c1.377,3.265,2.755,6.529,4.133,9.794c-3.444-8.292-5.587-17.006-6.793-25.892
				c0.488,3.633,0.976,7.266,1.464,10.899c-1.289-10.18-1.319-20.441-0.019-30.622c-0.488,3.634-0.976,7.267-1.464,10.899
				c1.137-8.264,3.146-16.34,6.313-24.066c-1.378,3.265-2.755,6.529-4.133,9.794c2.337-5.501,5.222-10.686,8.827-15.458
				c-2.137,2.766-4.274,5.531-6.411,8.298c2.991-3.829,6.363-7.247,10.209-10.221c-2.766,2.137-5.532,4.273-8.298,6.411
				c3.439-2.557,7.105-4.655,11.05-6.329c-3.265,1.378-6.529,2.755-9.794,4.133c4.26-1.708,8.64-2.844,13.18-3.507
				c-3.633,0.488-7.266,0.977-10.899,1.465c5.219-0.661,10.559-0.815,15.791-0.199c-3.633-0.488-7.266-0.977-10.899-1.464
				c3.382,0.474,6.629,1.327,9.8,2.598c-3.265-1.378-6.529-2.756-9.794-4.134c3.335,1.421,6.413,3.234,9.315,5.403
				c-2.766-2.137-5.532-4.273-8.298-6.41c4.168,3.235,7.754,7.046,10.977,11.214c-2.137-2.766-4.274-5.532-6.411-8.298
				c6.592,8.735,11.467,18.584,15.745,28.618c-1.378-3.265-2.755-6.529-4.133-9.794c7.273,17.263,12.747,35.198,19.277,52.74
				c7.632,20.503,16.118,41.294,31.721,57.179c7.554,7.69,18.242,12.009,28.991,12.009c10.049,0,22.297-4.062,28.991-12.009
				c7.509-8.914,14.343-18.158,19.592-28.561c5.486-10.87,9.92-22.385,13.784-33.93c5.792-17.307,10.175-35.065,17.247-51.93
				c-1.378,3.265-2.756,6.529-4.134,9.794c4.101-9.542,9.043-18.604,15.388-26.849c-2.137,2.766-4.274,5.532-6.411,8.298
				c0.938-1.18,1.893-2.341,2.868-3.49c-16.562,2.137-33.123,4.274-49.685,6.411c0.365,0.275,0.73,0.551,1.096,0.826
				c-2.766-2.137-5.531-4.274-8.298-6.411c0.689,0.589,1.314,1.239,1.874,1.952c-2.137-2.766-4.274-5.531-6.411-8.298
				c1.09,1.506,1.949,3.039,2.728,4.726c-1.377-3.266-2.755-6.53-4.133-9.795c1.01,2.457,1.811,4.975,2.636,7.497
				c6.938,21.223,28.115,34.775,50.435,28.636c20.77-5.713,35.583-29.188,28.636-50.435c-2.078-6.355-4.522-12.43-7.346-18.54
				c-4.248-9.195-12.033-15.088-19.829-20.963c-13.674-10.304-38.861-6.332-49.685,6.411c-7.738,9.11-14.824,18.67-20.321,29.289
				c-5.683,10.979-10.219,22.666-14.214,34.36c-6.023,17.632-10.376,35.813-17.581,53.036c1.378-3.265,2.756-6.529,4.134-9.794
				c-3.763,8.771-8.262,17.122-14.046,24.734c2.137-2.766,4.274-5.532,6.411-8.298c-0.888,1.13-1.791,2.24-2.717,3.339
				c19.327,0,38.655,0,57.982,0c-1.416-1.442-2.729-2.96-3.977-4.55c2.138,2.766,4.274,5.531,6.411,8.298
				c-5.382-7.064-9.272-15.111-12.737-23.25c1.378,3.265,2.756,6.529,4.134,9.794c-6.876-16.361-12.065-33.37-18.213-50.006
				c-4.169-11.281-8.733-22.476-13.958-33.31c-4.99-10.35-11.385-19.05-18.417-28.144c-32.518-42.048-100.936-39.573-135.284-1.234
				c-36.649,40.907-38.358,104.093-15.686,152.086c6.012,12.727,21.946,20.307,35.402,20.307c7.401-0.023,14.299-1.889,20.693-5.598
				c6.161-3.645,11.064-8.548,14.709-14.709c15.636-21.088,25.702-46.245,34.691-70.706c8.127-22.115,14.521-44.815,21.109-67.422
				c-26.357,0-52.714,0-79.071,0c2.528,8.996,4.397,18.13,5.689,27.384c-0.488-3.633-0.977-7.266-1.464-10.899
				c1.932,14.764,2.382,29.682,0.409,44.466c0.488-3.633,0.976-7.267,1.464-10.899c-1.174,7.961-3.144,15.654-6.233,23.093
				c1.378-3.265,2.756-6.529,4.133-9.794c-2.925,6.723-6.652,12.938-11.13,18.739c2.137-2.766,4.274-5.531,6.411-8.298
				c-12.866,16.225-30.339,27.741-45.042,42.126c-3.72,3.639-7.201,7.51-10.459,11.566c-4.119,5.129-9.78,11.194-12.587,17.552
				c-4.813,10.898-6.064,15.441-7.257,27.587c-0.646,6.575,0.88,13.742,2.136,20.021c4.484,22.417,20.411,42.665,34.688,59.657
				c12.455,14.822,26.656,28.206,41.378,40.743c8.387,7.142,17.099,13.902,25.887,20.539c11.009,8.314,22.361,14.016,35.264,19.142
				c14.706,5.843,31.473,7.653,47.157,7.957c16.404,0.317,32.937-2.271,49.058-4.947c13.432-2.229,26.73-5.198,40.086-7.831
				c12.286-2.423,24.619-4.278,36.688-7.706c28.083-7.977,55.42-22.465,75.211-44.264c7.647-8.423,14.591-17.84,20.118-27.805
				c8.968-16.169,6.835-36.438-6.411-49.685c-7.654-7.654-18.16-12.009-28.991-12.009c-11.871,0-20.06,4.938-28.991,12.009
				c-0.875,0.699-1.756,1.391-2.645,2.072c2.766-2.138,5.531-4.274,8.298-6.411c-11.31,8.585-23.55,15.66-36.59,21.271
				c3.265-1.378,6.529-2.756,9.794-4.134c-17.419,7.308-35.729,11.835-54.423,14.364c3.633-0.488,7.267-0.976,10.899-1.464
				c-26.104,3.364-52.239,2.402-78.461,1.441c-27.412-1.005-54.831-2.563-82.042-6.134c3.633,0.488,7.266,0.977,10.899,1.465
				c-25.44-3.425-51.201-8.325-74.975-18.288c3.265,1.377,6.529,2.755,9.794,4.133c-26.18-11.25-49.794-27.479-73.636-42.882
				c-18.433-11.907-37.696-22.79-55.108-36.205c2.766,2.137,5.532,4.273,8.298,6.41c-7.191-5.627-14.009-11.725-19.648-18.939
				c2.137,2.766,4.274,5.532,6.411,8.298c-2.603-3.46-4.849-7.084-6.58-11.06c1.378,3.266,2.755,6.53,4.133,9.795
				c-1.106-2.756-1.902-5.534-2.35-8.471c0.488,3.633,0.977,7.266,1.465,10.899c-0.097-0.721-0.167-1.444-0.209-2.17
				c-20.564,11.801-41.129,23.602-61.693,35.402c102.496,58.9,209.76,131.22,333.228,125.179
				c28.766-1.407,57.826-4.224,85.854-11.056c18.371-4.479,35.953-11.786,53.396-18.995c19.228-7.947,38.629-16.071,56.079-27.542
				c19.455-12.79,40.521-31.242,45.006-55.423c2.734-14.739,0.467-28.881-10.544-39.891c-12.329-12.329-34.619-16.729-49.685-6.411
				c-12.469,8.54-25.818,15.589-39.727,21.478c3.265-1.378,6.529-2.756,9.794-4.133c-28.482,11.865-58.713,18.802-89.228,22.906
				c3.634-0.488,7.267-0.977,10.9-1.465c-52.195,6.844-106.057,6.431-158.233-0.52c3.633,0.488,7.266,0.977,10.899,1.465
				c-31.935-4.326-63.849-11.293-93.654-23.785c3.265,1.378,6.529,2.755,9.794,4.133c-14.009-5.96-27.466-13.189-39.551-22.497
				c2.766,2.137,5.532,4.273,8.298,6.41c-7.3-5.729-13.952-12.155-19.652-19.491c2.137,2.766,4.274,5.532,6.411,8.298
				c-3.889-5.134-7.227-10.588-9.957-16.423c-8.167,20.076-16.335,40.152-24.503,60.229c2.44-0.813,4.896-1.358,7.444-1.702
				c-3.633,0.488-7.267,0.977-10.899,1.465c4.747-0.508,9.447-0.289,14.171,0.342c-3.633-0.487-7.266-0.976-10.899-1.464
				c13.684,2.06,26.707,7.128,39.405,12.452c-3.265-1.378-6.529-2.755-9.794-4.133c13.393,5.661,26.618,11.707,40.115,17.123
				c11.81,4.74,24.162,8.312,36.31,12.067c28.334,8.761,57.145,16.074,86.477,20.593c32.688,5.036,65.454,7.511,98.487,5.007
				c18.982-1.439,37.713-4.679,56.46-7.844c16.238-2.742,32.538-5.1,48.78-7.812c10.199-1.703,20.315-3.399,30.146-6.68
				c12.479-4.164,24.449-9.829,36.549-14.954c-3.265,1.378-6.529,2.756-9.794,4.133c9.961-4.183,20.058-8.104,30.784-9.773
				c-3.634,0.488-7.267,0.976-10.899,1.464c9.944-1.308,20.001-1.026,29.932,0.253c-3.633-0.488-7.267-0.977-10.899-1.465
				c14.145,1.971,27.834,6.013,40.999,11.506c-3.265-1.378-6.529-2.756-9.794-4.133c15.392,6.563,29.852,15.021,43.158,25.162
				c-2.767-2.138-5.532-4.274-8.298-6.411c11.613,8.991,22.213,19.183,31.229,30.796c-2.138-2.766-4.274-5.532-6.411-8.298
				c5.571,7.321,10.431,15.096,14.273,23.464c5.854,12.75,22.067,20.307,35.402,20.307c7.401-0.023,14.299-1.889,20.693-5.598
				c8.251-4.833,17.363-14.592,18.842-24.503c2.4-16.088,3.165-30.523-1.176-46.519c-4.016-14.799-11.671-26.269-21.092-38.004
				c-15.156-18.88-37.97-29.93-59.737-39.088c-16.745-7.045-34.328-11.817-52.065-15.609c-25.572-5.467-51.73-10.265-77.958-9.96
				c-17.142,0.199-34.918,2.485-51.239,7.851c-8.828,2.902-17.826,6.269-25.335,11.808c-7.216,5.322-14.119,10.755-20.226,17.306
				c-12.927,13.866-22.015,29.181-28.516,46.896c-3.057,8.329-4.186,17.636-4.488,26.419c-0.449,12.989,3.452,23.792,8.562,35.362
				c3.645,6.161,8.548,11.064,14.709,14.709c10.323,6.048,20.213,5.918,31.593,4.133c5.384-0.845,10.295-4.13,15.314-6.293
				c-3.265,1.377-6.529,2.755-9.794,4.133c1.143-0.444,2.239-0.809,3.435-1.08c-3.633,0.488-7.267,0.977-10.899,1.465
				c6.188-0.554,12.467-0.627,18.574-2.271c6.454-1.738,12.617-4.826,18.581-7.827c7.504-3.775,14.505-8.485,22.246-11.798
				c-3.265,1.378-6.53,2.755-9.794,4.133c4.488-1.796,9.174-2.606,13.95-3.271c-3.633,0.488-7.267,0.977-10.899,1.465
				c9.369-1.119,18.785-1.006,28.202-0.778c9.541,0.231,18.938,0.461,28.42,1.679c-3.634-0.488-7.267-0.976-10.899-1.464
				c15.59,2.119,30.975,5.5,46.568,7.597c21.45,2.885,41.301,4.259,62.732-0.374c31.684-6.85,59.119-29.307,68.388-60.791
				c8.521-28.945-1.706-61.584-19.446-84.92c-4.697-6.18-9.319-12.313-14.779-17.828c-5.604-5.66-12.123-10.402-18.439-15.196
				c-9.961-7.559-21.308-12.305-32.817-17.013c-20.199-8.263-43.225-10.872-64.882-11.005c-23.75-0.146-47.832,3.581-70.905,9.001
				c-20.081,4.718-39.705,11.37-58.728,19.318c-19.726,8.243-39.091,17.067-57.388,28.181
				c-19.067,11.581-26.146,36.57-14.709,56.096c5.369,9.165,14.255,16.023,24.503,18.842c11.133,3.063,21.517,0.945,31.593-4.133
				c9.594-4.834,17.538-12.136,23.043-21.376c-4.903,4.903-9.806,9.806-14.709,14.709c34.172-22.867,65.976-50.104,104.151-66.3
				c-3.265,1.378-6.529,2.756-9.794,4.134c12.12-5.016,24.555-8.565,37.556-10.371c-3.634,0.487-7.267,0.976-10.9,1.464
				c15.76-2.019,31.598-1.779,47.335,0.322c-3.633-0.488-7.267-0.977-10.899-1.465c19.283,2.747,37.979,8.193,55.916,15.746
				c-3.265-1.378-6.529-2.755-9.794-4.133c24.932,10.705,48.811,25.535,70.381,41.987c-2.766-2.138-5.532-4.274-8.298-6.411
				c8.928,6.898,17.318,14.45,24.347,23.311c-2.137-2.767-4.273-5.532-6.411-8.298c4.054,5.254,7.514,10.843,10.202,16.916
				c-1.377-3.265-2.755-6.529-4.133-9.794c2.282,5.422,3.849,11.002,4.691,16.825c-0.488-3.633-0.977-7.267-1.465-10.899
				c0.789,6.359,0.674,12.672-0.178,19.019c0.488-3.633,0.977-7.266,1.465-10.899c-1.722,11.24-4.932,22.166-9.282,32.66
				c1.377-3.265,2.755-6.529,4.133-9.794c-5.225,12.245-11.937,23.711-20.007,34.296c2.138-2.767,4.274-5.532,6.411-8.298
				c-7.509,9.646-16.03,18.364-25.685,25.875c2.766-2.137,5.532-4.273,8.298-6.41c-7.469,5.67-15.444,10.494-24.041,14.256
				c3.265-1.378,6.529-2.756,9.794-4.133c-4.836,2.032-9.716,3.926-14.918,4.744c3.633-0.487,7.266-0.976,10.899-1.464
				c-2.94,0.386-5.844,0.438-8.793,0.119c3.634,0.487,7.267,0.976,10.899,1.464c-3.091-0.418-6.037-1.225-8.927-2.395
				c3.265,1.378,6.529,2.756,9.794,4.133c-3.758-1.622-7.185-3.76-10.425-6.252c2.767,2.137,5.532,4.273,8.298,6.411
				c-6.656-5.285-12.212-11.736-17.395-18.437c2.138,2.766,4.274,5.531,6.411,8.298c-12.744-16.654-23.715-34.506-37.316-50.537
				c-7.201-8.488-15.91-15.799-25.227-21.855c-15.605-10.144-35.272-13.41-53.383-15.127c-17.464-1.656-35.664,1.268-52.648,5.106
				c-14.278,3.227-28.127,8.2-41.738,13.524c-27.077,10.594-53.132,22.933-78.881,36.383c-17.893,9.347-35.76,18.779-54.342,26.703
				c3.265-1.378,6.529-2.756,9.794-4.133c-18.875,7.954-38.402,14.123-58.735,16.93c3.633-0.488,7.266-0.977,10.899-1.465
				c-16.192,2.101-32.459,2.006-48.642-0.144c3.633,0.487,7.267,0.976,10.899,1.464c-39.784-5.639-77.989-21.456-114.784-36.954
				c3.265,1.378,6.529,2.756,9.794,4.133c-10.181-4.3-20.069-8.697-29.472-14.549c-9.055-5.636-17.579-12.084-26.241-18.291
				c-7.995-5.729-16.163-11.236-24.958-15.674c-15.605-7.873-29.753-11.667-46.998-13.577c-13.751-1.523-28.18,1.34-41.417,4.92
				c-13.919,3.764-27.369,10.152-39.991,17.066c-20.399,11.173-39.132,25.313-60.594,34.521c3.265-1.378,6.53-2.756,9.794-4.134
				c-8.214,3.421-16.661,5.989-25.488,7.211c3.633-0.487,7.266-0.976,10.899-1.464c-4.608,0.556-9.286,0.93-13.908,0.353
				c3.633,0.488,7.266,0.977,10.899,1.465c-7.658-1.075-15.049-3.738-22.158-6.695c3.265,1.378,6.53,2.756,9.794,4.134
				c-12.819-5.425-25.086-12.331-36.143-20.804c2.766,2.137,5.532,4.273,8.298,6.411c-5.406-4.211-10.519-8.812-14.772-14.207
				c2.137,2.767,4.274,5.532,6.411,8.298c-1.951-2.557-3.663-5.24-4.946-8.195c1.378,3.265,2.755,6.529,4.133,9.794
				c-0.731-1.808-1.265-3.636-1.537-5.568c0.488,3.633,0.976,7.266,1.464,10.899c-0.149-1.417-0.145-2.795,0.035-4.209
				c-0.488,3.633-0.977,7.267-1.465,10.899c0.204-1.208,0.524-2.349,0.973-3.488c-1.377,3.265-2.755,6.529-4.133,9.794
				c0.622-1.405,1.395-2.673,2.326-3.895c-2.137,2.766-4.274,5.532-6.411,8.298c1.292-1.573,2.749-2.924,4.356-4.172
				c-2.766,2.138-5.532,4.274-8.298,6.411c2.865-2.099,5.967-3.728,9.219-5.142c9.187-3.994,16.305-15.279,18.842-24.503
				c2.911-10.582,1.414-22.124-4.133-31.593c-5.369-9.165-14.254-16.023-24.503-18.842
				C337.453,628.438,328.063,631.16,317.473,635.765L317.473,635.765z"/>
		</g>
	</g>
</g>
<g id="Layer_1">
	<path fill="none" stroke="#000000" stroke-miterlimit="10" d="M582.815,68.26c5.593,103.538-83.891,190.583-29.972,296.989
		c22.945,45.315,63.385,79.302,99.092,116.873c34.417,36.138,54.063,79.016,81.74,119.455 M1020.626,58.222
		c19.934,48.184,70.698,80.736,85.612,135.803c16.491,60.946-7.888,106.835-35.134,157.314
		c-43.882,81.166-79.159,171.797-121.033,255.401 M517.424,757.601c74.282,0,117.304,0.573,175.956,46.605
		c52.485,41.157,103.537,66.683,171.224,69.265c89.34,3.441,107.695-37.572,154.876-92.353
		c35.851-41.587,137.953-55.783,172.227,1.578 M582.815,480.832c-48.184-52.916-165.344-46.463-222.849-15.488
		c-68.547,36.855-100.095,90.488-104.111,172.515c-2.294,45.172-27.39,203.489,9.895,220.555
		c20.65,9.465,89.484-12.046,109.704-11.616c32.553,0.718,69.551,18.5,72.419-38.145c16.921-3.012,25.525,5.162,34.417,19.503"/>
	<g opacity="0.1">
		<path d="M1018.476,546.511c36.28-12.62,69.693-32.266,106.835-42.734c17.782-5.162,36.712-7.601,55.21-4.589
			c17.209,2.725,32.553,10.182,47.037,19.646c29.11,19.072,53.633,45.459,75.717,72.132c21.08,25.525,41.3,53.776,54.78,84.178
			c5.306,12.046,8.317,26.243,6.31,39.436c-2.008,12.763-7.887,24.092-14.914,34.848c-7.887,12.189-17.208,23.374-25.956,34.703
			c-9.895,12.906-18.212,26.673-27.533,39.866c-13.623,19.503-32.266,34.13-56.788,33.413c-27.104-0.86-53.776-16.348-77.15-28.537
			c-12.333-6.453-23.088,12.046-10.899,18.643c27.247,14.34,56.645,29.827,88.05,31.549c28.824,1.577,52.772-14.914,69.981-36.855
			c10.898-14.053,19.646-29.685,30.401-43.881c9.465-12.62,19.646-24.809,28.394-38.002c18.213-27.391,23.231-57.935,11.473-89.054
			c-11.902-31.692-33.557-60.517-54.207-86.902c-22.084-28.251-47.18-54.493-75.86-76.291
			c-29.254-22.084-63.24-34.56-100.238-30.688c-39.006,4.016-74.427,22.515-109.848,38.002c-8.747,3.872-17.639,7.313-26.529,10.469
			C999.689,530.306,1005.282,551.1,1018.476,546.511L1018.476,546.511z"/>
	</g>
	<g opacity="0.1">
		<path d="M1071.678,28.394c17.352,29.111,34.561,58.938,44.168,91.778c7.744,26.96,8.031,54.78,3.585,82.314
			c-6.453,39.866-19.646,78.729-30.688,117.448c-12.62,44.312-25.526,88.479-39.149,132.504
			c-9.465,30.402-19.216,60.804-29.255,91.062c-4.445,13.193,16.349,18.786,20.794,5.736
			c29.397-88.193,55.641-177.247,80.449-266.73c9.608-34.417,19.79-68.403,22.084-104.254c1.721-28.681-3.441-56.931-13.767-83.604
			c-10.325-26.96-24.809-52.199-39.579-77.008C1083.15,5.593,1064.508,16.491,1071.678,28.394L1071.678,28.394z"/>
	</g>
	<g opacity="0.1">
		<path d="M976.027,78.729c20.65,32.553,36.138,67.687,42.305,105.832c4.875,30.832,2.007,62.524-4.876,92.782
			c-14.627,63.958-45.459,122.897-63.958,185.564c-7.026,23.948-12.046,48.327-15.058,73.136
			c-0.717,5.88,5.449,10.755,10.756,10.755c6.453,0,10.038-4.875,10.755-10.755c8.174-67.687,36.854-129.637,59.942-193.021
			c10.898-29.972,20.076-60.66,24.235-92.353c4.302-32.839,2.151-66.109-6.453-98.088c-8.174-30.114-22.228-58.508-38.862-84.751
			C987.213,56.214,968.571,66.969,976.027,78.729L976.027,78.729z"/>
	</g>
	<g opacity="0.1">
		<path d="M986.209,199.474c17.782,31.405,29.685,65.679,34.13,101.53c4.303,34.703,1.865,69.838-4.588,103.968
			c-13.193,69.98-42.161,135.946-69.694,201.194c-2.295,5.449-1.722,11.473,3.872,14.771c4.588,2.725,12.476,1.578,14.77-3.871
			c28.682-67.83,58.796-136.09,72.419-208.796c6.74-36.138,9.034-73.136,4.589-109.703c-4.875-38.863-17.495-75.861-36.711-109.848
			C997.825,176.53,979.326,187.285,986.209,199.474L986.209,199.474z"/>
	</g>
	<g opacity="0.1">
		<path d="M542.232,60.373c-15.631,66.396-28.824,134.656-26.53,203.203c2.151,60.516,19.073,119.168,52.343,170.077
			c22.515,34.273,51.195,63.958,82.457,90.057c10.612,8.892,25.813-6.31,15.2-15.2c-49.617-41.443-91.777-91.922-112.715-153.872
			c-19.646-58.222-18.785-120.603-11.042-180.832c4.732-36.281,12.333-72.132,20.794-107.552
			C566.181,52.486,545.53,46.893,542.232,60.373L542.232,60.373z"/>
	</g>
	<g opacity="0.1">
		<path d="M541.945,128.633c-5.593,71.845,10.612,145.125,32.696,213.098c22.514,69.407,53.202,137.381,93.499,198.327
			c0.286,0.573,0.717,1.004,1.004,1.577c7.601,11.473,26.243,0.717,18.643-10.898c-39.437-59.369-69.265-125.048-91.635-192.591
			c-22.085-66.826-38.146-138.814-32.696-209.513C564.46,114.723,542.949,114.866,541.945,128.633L541.945,128.633z"/>
	</g>
	<g opacity="0.1">
		<path d="M481.572,385.182c0,10.038,0,20.076,0,30.258c4.589-3.441,9.035-6.883,13.624-10.324c3.011,0.573,4.302,5.019,3.441,1.577
			c-0.287-1.147-0.287-2.151-0.431-3.299c-0.286-2.581-0.286-5.306-0.286-8.03c0-5.306-4.876-11.473-10.756-10.755
			c-4.158,0.573-7.313,1.577-10.611,4.015c-2.581,2.008-5.88,5.736-9.465,6.023c3.441,4.589,6.884,9.034,10.325,13.623
			c0.86-4.158,1.721-8.461,2.725-12.619c0.43-1.721,0.86-3.442,1.434-5.02c0.574-1.577-0.144-0.144,1.147-2.15
			c0.717-1.004,0.717-1.004,0-0.144c0.431-0.431,0.86-1.004,1.435-1.435c0.86-0.86,0.43-0.287,2.294-1.577
			c3.585-2.151,7.457-4.016,11.186-5.88c-5.306-4.015-10.469-8.03-15.774-12.189c-1.004,6.023-1.721,11.902-2.151,17.926
			c-0.143,2.151-0.286,4.302-0.43,6.453c0.287-2.438-0.431,2.008-0.717,2.868c1.004-3.298-2.008,2.294,0-0.144
			c-1.864,2.151-1.004,1.291-3.299,2.725c-5.736,3.729-12.332,6.31-18.643,9.034c-11.186,4.876-3.012,24.235,8.317,19.646
			c17.639-7.17,37.858-2.581,54.351,5.736c17.208,8.604,35.134,24.092,37.715,44.312c5.449-3.154,10.755-6.166,16.204-9.321
			c-25.095-15.918-47.609-39.436-63.814-64.388c-7.601-11.76-14.627-25.956-15.057-39.437c-0.431-12.619,6.597-21.94,18.499-28.537
			c-4.876-1.29-9.752-2.581-14.771-3.872c30.546,51.195,45.459,116.73,99.522,149.714c7.744,4.732,18.93-3.155,15.774-12.189
			c-7.313-21.367-19.072-41.587-38.862-53.489c-17.352-10.469-38.146-11.473-57.648-8.317
			c-46.319,7.457-88.767,38.719-123.47,68.547c-18.069,15.631-35.134,32.695-50.478,51.051
			c-12.189,14.484-24.092,29.972-32.553,47.181c-4.875,10.038-7.887,20.793-11.472,31.405
			c-5.163,15.774-10.182,31.548-14.627,47.609c-8.461,30.832-16.205,63.958-11.759,96.08c2.725,20.22,14.771,38.433,27.39,53.92
			c14.914,18.212,33.7,33.413,54.063,45.172c19.073,11.042,41.014,19.073,63.385,19.073c22.084,0,40.87-10.325,54.206-27.534
			c3.585-4.589,0.717-12.046-3.872-14.771c-5.593-3.298-11.186-0.717-14.771,3.872c-14.914,19.503-40.009,19.216-61.52,12.62
			c-26.673-8.175-50.622-25.956-69.551-46.177c-17.352-18.499-29.254-39.723-29.111-65.535
			c0.143-32.839,10.325-65.679,19.933-96.797c4.445-14.197,9.178-28.395,13.91-42.591c0.287-0.718,0.573-1.435,0.86-2.151
			c1.004-2.581-1.004,2.151,0.143-0.431c0.717-1.577,1.434-3.154,2.151-4.731c1.864-3.729,4.015-7.313,6.166-10.899
			c10.755-17.639,23.519-32.553,37.715-47.753c32.696-34.99,71.415-67.113,115.439-86.615c10.182-4.59,22.084-8.175,33.557-10.183
			c8.461-1.434,19.79-1.29,28.251,0.861c9.178,2.294,16.777,6.883,23.661,13.767c8.317,8.461,14.197,20.22,18.212,32.122
			c5.307-4.016,10.469-8.03,15.774-12.189c-23.948-14.627-39.148-38.146-51.912-62.523c-13.767-26.243-24.521-54.063-39.723-79.589
			c-3.011-5.163-9.607-6.74-14.771-3.872c-77.294,42.878,15.774,141.252,60.373,169.503c6.31,4.015,17.208-1.147,16.205-9.321
			c-3.442-27.247-21.941-48.184-45.316-61.233c-21.367-12.046-50.478-19.072-73.996-9.465c2.725,6.597,5.593,13.05,8.317,19.646
			c10.612-4.589,24.379-9.465,30.115-20.507c4.876-9.321,3.441-21.08,5.019-31.262c1.435-9.321-6.883-16.635-15.774-12.189
			c-8.03,4.016-16.061,7.744-21.51,15.058c-5.593,7.457-6.884,17.782-8.604,26.529c-1.291,6.453,3.012,14.054,10.325,13.623
			c5.162-0.286,9.465-1.577,14.054-4.015c2.15-1.291,4.158-3.012,6.166-4.589c1.577-1.291,4.016-1.864,0-1.435
			c-3.585-3.585-7.17-7.17-10.755-10.755c0,10.038,0,28.107,12.906,30.545c6.739,1.29,13.623-2.868,13.623-10.325
			c0-10.038,0-20.076,0-30.258C503.083,371.415,481.572,371.415,481.572,385.182L481.572,385.182z"/>
	</g>
	<g opacity="0.1">
		<path d="M703.991,808.652c-45.889-19.79-91.204-43.451-140.966-51.912c-24.809-4.303-50.765-4.303-74.282,5.736
			c-25.383,10.898-41.73,32.839-52.199,57.647c-2.295,5.449,2.438,11.76,7.457,13.193c6.166,1.721,11.042-2.151,13.193-7.457
			c41.443-99.092,169.933-26.96,235.755,1.435c5.449,2.294,11.473,1.721,14.771-3.872
			C710.588,818.834,709.44,810.946,703.991,808.652L703.991,808.652z"/>
	</g>
	<g opacity="0.1">
		<path d="M503.083,62.811c-15.631,33.126-26.816,67.974-29.254,104.685c-2.008,29.685,3.012,59.799,13.767,87.476
			c22.515,57.935,66.97,104.111,110.421,146.989c27.533,27.104,55.927,53.633,82.743,81.597c9.608,10.038,24.81-5.163,15.201-15.201
			c-45.89-47.753-96.798-90.774-139.245-141.539c-37.571-44.885-64.531-97.371-61.663-157.17
			c1.577-33.27,12.476-65.822,26.529-95.65C527.605,61.233,508.963,50.191,503.083,62.811L503.083,62.811z"/>
	</g>
	<g opacity="0.1">
		<path d="M476.841,292.543c20.22,50.765,35.851,103.251,50.334,156.023c6.597-2.725,13.05-5.593,19.646-8.317
			c-33.844-67.974-53.633-144.838-43.882-220.985c1.435-11.615-14.627-13.193-20.076-5.449
			c-23.519,34.273-30.401,73.996-38.719,113.719c-3.872,18.93-9.752,36.712-16.205,54.924c-2.15,5.88-4.302,11.615-7.026,17.208
			c-1.147,2.295-2.294,4.446-3.585,6.597c-0.574,1.004-1.147,1.864-1.864,2.868c-0.144,0.287-2.582,3.585-1.434,2.008
			c-5.88,7.457-10.612,10.182-18.5,15.344c-12.046,7.888-23.805,16.205-35.134,25.096c-23.518,18.499-41.443,40.583-54.637,67.543
			c-30.688,62.524-38.862,147.993,0.861,208.509c7.6,11.473,26.243,0.717,18.642-10.898c-33.126-50.335-27.963-118.451-7.17-172.515
			c10.182-26.673,26.243-51.625,48.04-70.124c10.898-9.321,22.944-17.639,34.847-25.525c8.174-5.449,16.491-10.612,23.662-17.209
			c8.03-7.601,13.479-17.495,17.782-27.533c7.6-17.639,14.053-36.138,18.785-54.78c10.899-42.878,14.341-86.902,40.153-124.474
			c-6.74-1.864-13.337-3.585-20.076-5.449c-10.325,79.732,11.472,160.755,46.749,231.883c5.593,11.186,22.802,3.298,19.646-8.317
			c-14.341-52.772-30.115-105.115-50.335-156.023c-2.15-5.449-7.17-9.178-13.192-7.457
			C479.135,280.641,474.689,286.95,476.841,292.543L476.841,292.543z"/>
	</g>
	<g opacity="0.1">
		<path d="M366.42,424.761c-46.176-1.004-92.782,13.193-117.878,54.493c-22.658,37.572-22.084,85.039-15.487,126.77
			c5.449,34.416,16.491,67.686,30.688,99.378c12.906,28.537,28.968,56.215,49.904,79.732c9.178,10.469,24.379-4.876,15.201-15.2
			c-26.959-30.402-47.036-71.129-60.373-110.708c-13.91-41.157-22.945-88.05-15.201-130.067
			c4.445-24.378,14.054-44.885,32.696-60.803c20.937-17.639,52.199-22.657,80.593-22.084
			C380.33,446.559,380.33,425.048,366.42,424.761L366.42,424.761z"/>
	</g>
	<g opacity="0.1">
		<path d="M338.456,495.603c-39.58,9.178-60.086,53.346-72.132,88.05c-16.635,48.326-22.945,101.1-23.088,152.008
			c-0.144,26.529,1.721,53.346,7.026,79.445c3.872,19.646,10.182,40.01,23.088,55.784c3.729,4.589,11.329,3.871,15.201,0
			c4.445-4.446,3.729-10.612,0-15.201c-1.721-2.008,1.434,1.864-0.287-0.287c-0.43-0.717-1.004-1.29-1.434-2.008
			c-1.003-1.434-1.864-2.868-2.725-4.302c-0.86-1.577-1.721-3.155-2.581-4.876c-1.004-2.15-1.864-4.158-2.008-4.589
			c-3.442-8.604-5.879-17.639-7.887-26.673c-4.875-21.94-6.453-44.024-6.883-66.683c-1.004-50.478,4.875-101.96,20.077-150.144
			c6.023-19.216,13.767-37.571,25.525-54.35c8.604-12.189,20.077-22.228,33.7-25.383
			C357.672,513.241,351.936,492.447,338.456,495.603L338.456,495.603z"/>
	</g>
	<g opacity="0.1">
		<path d="M230.33,543.355c-21.51,53.347-21.367,111.138,1.291,164.054c22.228,51.769,65.679,92.782,114.292,119.886
			c12.189,6.739,22.944-11.903,10.898-18.643c-45.602-25.239-84.178-62.381-105.832-110.277c-21.511-47.61-19.216-101.387,0-149.283
			c2.151-5.449-2.294-11.759-7.457-13.193C237.356,534.178,232.481,537.906,230.33,543.355L230.33,543.355z"/>
	</g>
	<g opacity="0.1">
		<path d="M469.384,178.968c-0.287,2.438-0.574,4.875-0.861,7.17c0.574-3.872,1.004-7.601,1.578-11.472
			c-12.189,90.631-47.323,187.141-14.197,277.342c8.03,21.94,28.824,36.711,52.916,30.114c21.224-5.879,38.146-30.831,30.114-52.915
			c-4.731-12.764-7.887-25.956-9.751-39.437c0.573,3.872,1.004,7.601,1.577,11.473c-3.729-28.537-2.008-57.361,1.721-85.756
			c-0.573,3.872-1.003,7.601-1.577,11.473c6.74-49.618,18.786-98.231,24.665-147.849c1.291-10.612-5.306-23.231-12.619-30.401
			c-8.03-8.031-19.072-12.62-30.401-12.62s-22.371,4.589-30.401,12.62C473.112,157.313,470.817,167.065,469.384,178.968
			L469.384,178.968z"/>
	</g>
	<g opacity="0.1">
		<path d="M599.45,468.786c-62.954-28.251-136.377-43.738-202.772-16.922c-30.258,12.333-57.505,29.972-79.732,54.206
			c-23.662,26.1-18.929,57.505-32.122,90.058c16.141,37.968-41.73,66.97-43.882,102.247c-2.007,32.839,2.582,66.826,18.499,95.937
			c16.635,30.545,47.18,50.191,79.876,59.8c36.424,10.755,79.876,12.189,115.583-1.578c39.866-15.344,70.984-45.028,109.417-62.954
			c21.224-9.895,26.386-40.009,15.487-58.795c-5.593-9.608-14.914-16.778-25.669-19.79c-11.902-3.298-22.228-0.717-33.126,4.303
			c-17.926,8.46-34.561,19.072-50.765,30.258c-14.484,10.038-28.968,20.076-45.173,27.104c3.442-1.435,6.884-2.868,10.325-4.303
			c-9.895,4.159-20.22,6.884-30.832,8.461c3.872-0.573,7.601-1.004,11.472-1.577c-13.767,1.721-27.533,1.147-41.3-0.573
			c3.872,0.573,7.6,1.003,11.472,1.577c-13.05-1.864-25.669-4.732-37.859-9.896c3.442,1.435,6.884,2.868,10.325,4.303
			c-4.732-2.008-9.178-4.445-13.48-7.027c-3.298-2.008-11.329-8.317,1.721,1.721c-2.151-1.721-4.302-3.585-6.31-5.592
			c-1.721-1.578-3.155-3.299-4.732-5.02c-4.302-5.02,7.17,9.608,3.298,4.445c-0.86-1.147-1.577-2.294-2.294-3.441
			c-2.868-4.303-5.163-8.892-7.17-13.48c1.434,3.442,2.868,6.884,4.302,10.325c-3.585-8.891-5.879-18.068-7.17-27.533
			c0.574,3.872,1.004,7.601,1.578,11.472c-2.582-19.789-1.578-39.723,0.86-59.368c-0.574,3.871-1.004,7.6-1.578,11.472
			c4.302-25.956,11.042-51.625,21.224-75.86c-1.434,3.441-2.868,6.884-4.302,10.325c5.02-11.902,10.899-23.231,17.639-34.273
			c3.155-5.162,6.74-10.325,10.325-15.201c4.302-5.735-7.17,9.035-2.725,3.442c1.004-1.291,2.008-2.581,3.155-3.729
			c2.008-2.438,4.159-4.876,6.453-7.313c3.872-4.303,8.174-8.317,12.476-12.333c2.008-1.721,4.016-3.441,6.023-5.163
			c2.582-2.15,8.174-6.31-3.729,2.868c1.291-1.004,2.438-1.864,3.729-2.725c9.608-6.883,20.077-12.763,31.119-17.352
			c-3.441,1.435-6.884,2.868-10.325,4.302c13.767-5.735,28.107-9.464,42.734-11.472c-3.872,0.573-7.601,1.004-11.473,1.577
			c17.065-2.151,34.417-1.864,51.482,0.431c-3.872-0.574-7.601-1.004-11.473-1.578c23.662,3.299,46.606,10.325,68.69,19.503
			c-3.441-1.434-6.884-2.868-10.325-4.302c2.725,1.147,5.449,2.294,8.03,3.585c11.043,4.876,21.081,7.601,33.127,4.302
			c10.755-3.011,20.076-10.182,25.669-19.789C625.837,509.082,620.961,478.394,599.45,468.786L599.45,468.786z"/>
	</g>
	<g opacity="0.1">
		<path d="M515.846,769.503c31.836,16.062,60.229,37.142,89.771,57.074c29.685,20.077,62.094,36.854,97.371,44.169
			c20.65,4.302,41.73,5.306,62.524,6.883c18.068,1.435,36.138,2.725,54.206,3.585c39.436,1.864,79.159,1.147,118.021-6.453
			c15.487-3.011,29.828-8.461,44.168-14.914c21.367-9.607,26.242-40.296,15.487-58.795c-5.735-9.465-15.058-16.635-25.813-19.503
			c-12.046-3.298-22.084-0.573-33.126,4.302c-1.004,0.431-2.151,1.004-3.299,1.435c3.442-1.435,6.884-2.868,10.325-4.303
			c-14.913,6.167-30.831,9.608-46.749,11.76c3.872-0.574,7.601-1.004,11.473-1.578c-30.688,4.016-61.808,3.586-92.782,2.151
			c-29.828-1.434-60.229-3.012-89.914-6.74c3.872,0.574,7.601,1.004,11.472,1.578c-17.208-2.438-33.986-6.884-50.048-13.624
			c3.442,1.435,6.884,2.868,10.325,4.303c-23.805-10.182-45.172-24.809-66.396-39.58c-23.805-16.635-47.61-32.839-73.566-45.889
			c-20.937-10.611-46.462-5.736-58.795,15.487C489.173,729.924,494.909,759.034,515.846,769.503L515.846,769.503z"/>
	</g>
	<g opacity="0.1">
		<path d="M561.448,59.513c2.295,13.623,4.302,27.39,6.166,41.013c-0.573-3.872-1.004-7.601-1.577-11.472
			c18.93,140.822,25.383,295.555,125.908,406.692c8.174,9.178,17.208,17.639,26.53,25.525c17.925,15.201,43.308,17.639,60.803,0
			c15.487-15.487,17.926-45.746,0-60.803c-8.891-7.457-17.352-15.488-25.239-24.092c-4.159-4.445-8.03-9.034-11.759-13.624
			c-6.884-8.46,5.019,6.597,0.573,0.861c-2.008-2.582-3.872-5.307-5.88-8.031c-13.767-19.359-24.809-40.583-34.13-62.38
			c1.435,3.441,2.868,6.883,4.303,10.324c-24.379-57.935-35.277-120.315-43.595-182.122c0.573,3.872,1.004,7.601,1.577,11.473
			c-7.026-52.056-12.189-104.398-20.65-156.167c-3.871-23.231-32.122-35.708-52.915-30.115c-10.756,3.011-20.077,10.182-25.67,19.79
			C559.44,37.142,559.44,47.61,561.448,59.513L561.448,59.513z"/>
	</g>
	<g opacity="0.1">
		<path d="M663.121,42.877c-28.681,36.138-51.769,75.43-64.531,120.172c-11.616,40.727-12.189,82.313-6.453,123.9
			c10.755,77.868,55.067,148.996,107.122,206.071c12.333,13.623,25.67,26.386,39.293,38.432c17.495,15.487,43.451,17.352,60.803,0
			c15.774-15.774,17.639-45.315,0-60.803c-12.046-10.612-23.661-21.798-34.703-33.413c-5.163-5.449-10.325-11.186-15.201-16.922
			c-2.438-2.868-4.876-5.736-7.313-8.604c-1.435-1.721-2.868-3.441-4.302-5.306c-5.307-6.74,6.453,8.461,1.146,1.577
			c-19.072-24.952-35.42-52.198-47.753-81.166c1.434,3.441,2.868,6.884,4.302,10.325c-10.182-24.092-17.352-49.188-20.937-75
			c0.573,3.872,1.004,7.6,1.577,11.472c-2.725-21.654-2.868-43.451-0.144-65.105c-0.573,3.872-1.004,7.6-1.577,11.472
			c3.012-21.941,8.891-43.165,17.352-63.671c-1.434,3.442-2.868,6.884-4.302,10.325c4.876-11.616,10.611-22.944,16.921-33.843
			c3.299-5.736,6.884-11.329,10.612-16.778c1.864-2.868,3.872-5.592,5.88-8.317c1.004-1.434,2.008-2.725,3.154-4.159
			c5.593-7.6-6.166,7.887-0.286,0.43c7.457-9.321,12.619-17.925,12.619-30.401c0-11.329-4.589-22.371-12.619-30.401
			C708.867,27.677,677.749,24.378,663.121,42.877L663.121,42.877z"/>
	</g>
	<g opacity="0.1">
		<path d="M760.923,584.942c-10.182-23.518-32.696-41.443-53.49-55.066c-24.234-16.062-51.769-27.391-78.871-37.572
			c-45.029-17.064-92.353-29.827-139.818-37.715c-11.902-2.008-22.371-2.008-33.127,4.302c-9.607,5.593-16.777,14.914-19.789,25.67
			c-5.736,20.793,6.883,49.044,30.114,52.916c53.92,9.034,107.84,23.948,158.174,45.028c-3.441-1.435-6.883-2.868-10.324-4.302
			c18.785,7.887-6.597-7.314,10.324,4.302c-1.5,20.485,13.248,6.103,14.825,7.25c3.298,2.438,35.223,21.574,28.34,16.269
			c1.146,0.86-44.313-24.379-43.165-23.519c3.442,2.868,9.229-16.16,12.385-13.005c1.146,1.147,37.828,14.652,38.832,15.943
			c3.441,4.016,0,0,5.593,8.03c2.15,3.155,16.522,9.76,18.101,13.201c4.158,9.608,19.46,14.744,29.069,17.469
			c11.042,3.012,7.446,25.331,17.341,19.595c9.608-5.593,16.778-14.914,19.79-25.67C768.522,605.88,765.655,595.984,760.923,584.942
			L760.923,584.942z"/>
	</g>
	<g opacity="0.1">
		<path d="M878.083,80.163c-14.34-11.042-2.438-1.721,0.86,1.291c2.868,2.581,5.593,5.306,8.317,8.174
			c2.725,2.868,5.307,5.88,7.888,9.035c0.573,0.717,1.147,1.434,1.721,2.151c4.015,5.019-7.313-9.608-3.442-4.445
			c1.435,1.864,2.726,3.729,4.016,5.593c10.756,15.344,19.503,31.979,26.816,49.188c-1.434-3.442-2.868-6.884-4.302-10.325
			c13.479,32.122,22.228,66.109,26.96,100.526c-0.574-3.872-1.004-7.601-1.578-11.472c4.876,35.851,5.45,72.275,0.718,108.27
			c0.573-3.872,1.004-7.601,1.577-11.473c-3.441,24.809-9.321,49.188-19.072,72.419c1.434-3.441,2.867-6.884,4.302-10.325
			c-6.31,14.627-14.054,28.681-23.661,41.301c10.611-13.91,1.577-2.295-1.291,1.003c-2.725,3.155-5.736,6.023-8.748,8.892
			c-2.725,2.581-5.449,4.876-8.317,7.17c13.767-11.042,1.291-1.147-2.581,1.291c-19.646,12.763-27.677,38.002-15.487,58.795
			c11.472,19.503,39.149,28.251,58.796,15.487c104.971-67.973,115.439-214.244,94.789-325.956
			c-6.883-37.285-19.216-73.422-36.138-107.266c-16.491-33.126-39.436-61.377-68.69-83.891c-8.604-6.597-23.231-7.027-33.126-4.302
			c-10.755,3.012-20.076,10.182-25.669,19.79c-5.88,9.895-7.457,22.084-4.303,33.126C861.592,66.396,868.762,72.992,878.083,80.163
			L878.083,80.163z"/>
	</g>
	<g opacity="0.1">
		<path d="M1029.374,150.144c10.038,24.378,17.495,49.617,21.224,75.717c-0.574-3.872-1.004-7.601-1.577-11.472
			c3.298,24.378,3.154,48.9,0,73.136c0.573-3.872,1.004-7.601,1.577-11.472c-5.736,42.304-20.363,82.457-36.138,121.749
			c-17.639,43.738-36.425,86.76-50.479,131.788c-7.026,22.371,8.031,46.893,30.115,52.916c23.231,6.31,45.889-7.744,52.916-30.115
			c21.08-67.543,54.206-130.783,74.569-198.47c10.325-34.417,16.491-70.698,16.205-106.692
			c-0.287-41.157-9.608-82.17-25.239-120.172c-4.445-10.899-9.178-19.503-19.79-25.669c-9.895-5.879-22.084-7.457-33.126-4.302
			c-10.755,3.012-20.076,10.182-25.669,19.79C1028.514,125.908,1025.215,140.105,1029.374,150.144L1029.374,150.144z"/>
	</g>
	<g opacity="0.2">
		<path d="M980.187,78.442c3.012,2.725,5.879,5.736,8.604,8.891c1.004,1.147,3.442,4.446-0.717-1.003
			c0.717,0.86,1.291,1.721,1.864,2.581c1.435,2.008,2.868,4.159,4.159,6.453c2.438,3.872,4.445,7.887,6.453,12.046
			c0.573,1.004,1.004,2.151,1.434,3.155c1.864,4.015-2.008-4.875-0.286-0.717c1.003,2.581,2.007,5.306,3.011,8.03
			c3.586,10.325,6.167,20.937,8.174,31.692c0.574,2.725,1.004,5.449,1.435,8.317c0.287,1.434,0.431,2.868,0.573,4.159
			c0.718,5.019-0.717-5.163,0,0c0.861,6.31,1.435,12.763,1.864,19.216c2.151,26.817,1.578,53.633-0.144,80.45
			c-1.003,14.197-2.294,28.394-4.015,42.59c-0.431,3.442-0.86,6.884-1.291,10.325c-0.717,5.88,0.574-4.732-0.144,1.147
			c-0.286,1.721-0.43,3.441-0.717,5.162c-1.004,7.457-2.294,14.914-3.441,22.371c-7.744,46.606-18.643,92.782-32.84,137.954
			c-5.879,18.499-12.332,36.855-19.789,54.78c2.868-6.74,0-0.144-0.574,1.435c-0.717,1.721-1.577,3.441-2.294,5.162
			c-1.577,3.585-3.298,7.026-5.02,10.612c-3.011,6.022-6.31,11.902-9.895,17.495c-6.31,9.895-2.008,23.661,7.743,29.397
			c10.469,6.166,23.089,2.151,29.398-7.744c10.182-15.774,17.495-33.27,24.521-50.621c8.748-21.798,16.205-44.024,22.802-66.539
			c16.204-55.354,27.533-111.998,34.417-169.216c5.879-48.471,8.604-98.232,2.15-146.702
			c-5.306-39.723-16.204-83.174-47.036-111.281c-8.747-7.887-21.798-8.604-30.401,0C972.299,55.927,971.582,70.555,980.187,78.442
			L980.187,78.442z"/>
	</g>
	<g opacity="0.2">
		<path d="M975.884,577.056c1.435-6.453,3.155-12.62,5.307-18.786c0.43-1.147,0.86-2.294,1.291-3.441
			c0.286-0.717,2.581-6.31,0.573-1.578c1.29-3.154,2.868-6.31,4.445-9.32c2.725-5.307,6.022-10.325,9.465-15.058
			c1.434-1.864,1.29-1.721-0.574,0.573c1.004-1.147,2.008-2.438,3.012-3.585c2.008-2.294,4.016-4.589,6.166-6.74
			c3.442-3.585,7.171-6.883,11.042-10.038c0.718-0.573,1.578-1.29,2.295-1.864c4.016-3.154-3.729,2.868,0.287-0.286
			c2.294-1.722,4.732-3.442,7.17-5.163c8.891-6.022,18.212-11.473,27.533-16.778c19.359-10.898,38.433-21.653,55.784-35.563
			c19.359-15.488,32.982-35.852,42.161-58.796c-13.768-3.872-27.678-7.601-41.444-11.473c-2.151,6.311-2.725,7.744-6.597,14.628
			c-1.721,3.011-3.585,5.735-5.593,8.461c1.291-1.722,1.291-1.722-0.286,0.286c-1.291,1.435-2.582,2.868-3.872,4.303
			c-1.721,1.864-3.729,3.441-5.593,5.019c3.441-2.868-3.585,2.151-4.732,2.868c-1.004,0.573-2.151,1.147-3.155,1.721
			c-5.306,2.725,4.016-1.434-1.577,0.717c-2.868,1.004-5.736,1.864-8.748,2.438c8.031,3.298,16.205,6.597,24.236,9.895
			c-4.59-6.74-8.892-13.623-13.051-20.65c-1.863-3.298-3.584-6.596-5.306-9.895c-0.86-1.577-1.577-3.298-2.294-4.876
			c2.15,4.732-0.574-2.007-1.004-3.011c-0.574-1.721-2.438-11.616-1.721-5.163c-0.144-1.434-0.144-3.012-0.144-4.445
			c0-1.004,0.144-1.864,0.144-2.868c-0.431,3.299-0.431,3.872,0,1.577c1.146-4.731-2.295,4.303-0.144,0
			c0.431-0.86,1.004-1.721,1.577-2.438c-1.864,2.438-2.008,2.725-0.43,0.86c3.585-3.729-3.872,2.438,0.86-0.717
			c0.717-0.431,7.17-3.585,3.585-2.151c-8.031-3.298-16.205-6.597-24.235-9.895c8.747,13.336,12.619,25.525,15.2,42.16
			c-0.143-1.721-0.143-1.29,0.144,1.435c0.287,2.438,0.431,4.732,0.718,7.17c0.286,4.016,0.573,8.03,0.717,12.046
			c0.43,9.034,0.287,17.926,0.287,26.96c0,9.608,6.596,18.212,15.773,20.794c10.325,2.867,24.666-3.442,26.53-15.058
			c5.162-32.84,3.011-69.264-17.209-97.084c-6.166,10.755-12.332,21.51-18.642,32.409c8.03,0,15.917,0.43,23.948,1.29
			c6.022,0.574-4.589-0.717,1.146,0.144c1.578,0.287,3.299,0.573,4.876,0.86c3.012,0.573,5.88,1.291,8.891,2.008
			c2.582,0.717,5.163,1.577,7.744,2.581c4.445,1.577-4.589-2.151-0.573-0.287c1.147,0.431,2.151,1.004,3.155,1.578
			c2.007,1.004,3.871,2.15,5.592,3.441c3.299,2.295-4.158-3.441-1.146-0.86c0.717,0.573,1.434,1.291,2.15,2.008
			c1.435,1.434,5.449,6.883,0.718,0.43c1.003,1.435,1.864,2.868,2.581,4.445c1.577,3.155-2.151-5.449-0.86-2.15
			c0.286,0.717,0.573,1.577,0.717,2.294c0.287,0.718,0.431,1.578,0.573,2.438c0.718,3.585-0.717-6.167-0.286-2.438
			c0.144,1.578,0.144,3.299,0.144,4.876c-0.144,6.31,1.004-4.876,0.143,0.144c-0.286,1.721-0.717,3.298-1.29,5.02
			c-0.574,1.863-3.299,8.174,0,0.717c-1.435,3.441-3.299,6.597-5.307,9.607c-1.003,1.578-5.449,7.171-0.573,1.004
			c-1.147,1.578-2.438,3.012-3.729,4.445c-2.581,2.868-5.593,5.593-8.604,8.031c-3.011,2.438,4.446-3.299,1.291-1.004
			c-0.717,0.573-1.577,1.147-2.438,1.721c-1.577,1.147-3.298,2.151-4.875,3.155c-1.721,1.004-3.299,1.864-5.02,2.725
			c-5.879,2.868,3.872-1.435-1.004,0.43c-3.441,1.291-7.026,2.151-10.611,2.868c8.174-1.434,1.721-0.287-0.431-0.144
			c-1.721,0-3.441,0-5.306-0.144c-3.729-0.286,6.023,1.004,2.294,0.287c-0.86-0.144-1.721-0.43-2.581-0.573
			c-2.008-0.431-8.03-3.155-0.573,0.144c1.434,11.328,2.868,22.514,4.302,33.843c3.299-2.868,6.453-5.162,12.619-8.747
			c2.868-1.722,6.023-3.155,9.035-4.59c-2.008,0.861-1.864,0.861,0.43-0.143c1.864-0.718,3.872-1.291,5.736-1.864
			c3.155-1.004,6.453-1.722,9.752-2.438c1.29-0.286,2.581-0.573,4.015-0.717c6.453-1.147-4.302,0.431,2.295-0.287
			c6.739-0.717,13.623-0.573,20.363-0.144c1.434,0.144,2.725,0.287,4.015,0.431c-4.732-0.431,2.008,0.287,2.438,0.43
			c3.441,0.574,6.739,1.291,10.182,2.151c3.441,0.86,6.739,1.864,10.038,3.012c1.291,0.43,2.581,0.86,4.016,1.434
			c0.143,0,6.453,2.725,2.725,1.004c6.453,2.868,12.619,6.167,18.643,9.896c3.011,1.864,5.879,3.871,8.747,6.022
			c-1.577-1.29-1.291-1.004,0.717,0.573c1.721,1.291,3.298,2.726,4.876,4.159c8.748,7.744,21.654,8.748,30.401,0
			c7.888-7.887,8.892-22.657,0-30.401c-53.489-46.75-135.229-59.082-191.443-10.038c-9.751,8.461-8.03,28.394,4.302,33.843
			c39.149,17.209,82.457-6.74,103.107-41.3c10.898-18.213,13.623-39.58,4.876-59.082c-9.608-21.367-34.13-32.267-55.784-36.568
			c-13.623-2.725-27.533-3.729-41.443-3.729c-15.058,0-28.395,18.786-18.643,32.409c13.479,18.643,16.491,41.587,12.906,63.958
			c14.054,1.864,28.107,3.872,42.304,5.736c0-38.433-1.434-78.155-23.088-111.425c-4.876-7.457-15.2-13.479-24.235-9.895
			c-12.619,5.019-22.801,11.329-30.545,22.944c-7.026,10.612-7.457,23.948-5.593,35.994c3.442,21.224,16.491,40.583,28.251,58.222
			c5.593,8.461,14.34,12.046,24.235,9.896c35.563-7.601,59.082-37.429,70.411-70.411c3.871-11.042-4.303-23.519-15.058-26.53
			c-12.189-3.298-22.084,4.159-26.53,15.058c-0.86,2.295-0.86,2.151,0.287-0.43c-0.573,1.434-1.291,3.011-2.008,4.445
			c-1.146,2.438-2.438,4.732-3.729,7.026c-1.29,2.295-2.725,4.445-4.015,6.453c-0.86,1.291-1.722,2.438-2.581,3.729
			c-3.012,4.159,3.011-3.729-0.287,0.287c-3.299,4.158-7.027,8.03-10.898,11.615c-1.721,1.578-3.586,3.155-5.449,4.732
			c-1.147,0.86-2.151,1.864-3.299,2.725c-3.872,3.155,3.872-2.868-0.144,0.144c-16.635,12.477-35.421,21.798-53.346,32.266
			c-19.503,11.186-38.433,24.092-53.776,40.727c-18.643,20.363-30.688,45.603-36.711,72.419
			c-2.582,11.473,3.298,23.231,15.057,26.529C960.396,595.124,973.303,588.527,975.884,577.056L975.884,577.056z"/>
	</g>
	<g opacity="0.2">
		<path d="M1021.343,811.377c4.159-2.868,8.604-5.307,13.337-7.457c-5.306,2.438,2.868-1.004,4.159-1.435
			c3.298-1.146,6.739-2.008,10.038-2.868c2.868-0.717,5.879-1.29,8.891-1.864c1.147-0.143,2.438-0.43,3.585-0.573
			c6.166-1.004-4.589,0.573,1.721-0.144c7.027-0.717,14.054-1.004,20.938-1.004c6.453,0,12.763,0.574,19.216,1.291
			c-2.581-0.431-2.581-0.431,0,0c1.864,0.287,3.729,0.573,5.593,1.004c3.585,0.717,7.313,1.577,10.898,2.438
			c2.868,0.717,5.736,1.721,8.604,2.725c1.721,0.574,3.298,1.147,4.876,1.864c-4.876-1.864,0.43,0.287,1.146,0.574
			c2.438,1.146,4.876,2.581,7.314,4.015c1.434,0.86,2.725,1.722,4.015,2.582c4.445,3.011-3.441-2.868,0.574,0.43
			c9.034,7.457,21.51,8.892,30.401,0c7.744-7.744,9.034-22.944,0-30.401c-24.809-20.794-56.932-28.251-88.767-29.541
			c-29.398-1.147-63.528,3.872-88.193,21.08c-9.608,6.74-14.054,18.643-7.744,29.397
			C997.538,813.098,1011.735,818.116,1021.343,811.377L1021.343,811.377z"/>
	</g>
	<g opacity="0.2">
		<path d="M503.657,833.03c0-1.004,0-2.007,0.143-3.011c0.287-5.02-1.004,4.875,0.144,0.143c0.144-0.86,0.431-1.721,0.717-2.581
			c1.291-4.445-2.294,4.589-0.143,0.574c2.725-5.163-3.012,2.725,0.86-1.291c3.871-4.159-3.586,2.008,1.29-1.147
			c1.435-0.86,8.031-3.585,1.721-1.146c2.008-0.86,4.303-1.435,6.453-1.864c1.578-0.431,9.465-1.435,2.726-0.574
			c2.438-0.286,5.019-0.43,7.456-0.43c5.307-0.144,10.469,0.144,15.632,0.717c1.003,0.144,2.15,0.287,3.154,0.43
			c-5.88-0.717-0.43,0,0.717,0.144c2.725,0.431,5.307,1.004,7.888,1.435c5.162,1.004,10.182,2.438,15.2,3.872
			c2.295,0.717,4.732,1.577,7.027,2.294c1.434,0.431,8.891,3.585,2.581,0.86c10.755,4.589,22.944,3.298,29.397-7.744
			c5.307-9.178,3.155-24.809-7.743-29.397c-24.952-10.469-52.63-17.495-79.876-15.344c-15.201,1.29-29.397,5.306-41.301,15.2
			c-11.615,9.465-16.635,24.235-16.921,38.862c-0.144,11.76,9.895,21.511,21.511,21.511
			C494.049,854.541,503.514,844.79,503.657,833.03L503.657,833.03z"/>
	</g>
	<g opacity="0.2">
		<path d="M542.519,799.188c8.318-0.287,16.636-0.144,24.81,0.573c2.008,0.144,3.872,0.431,5.879,0.574
			c-5.019-0.574,1.435,0.286,2.008,0.286c4.445,0.718,8.748,1.578,13.05,2.582c7.17,1.721,14.197,3.871,21.224,6.31
			c3.442,1.147,6.74,2.581,10.182,3.872c5.593,2.294-4.015-1.721,1.435,0.573c2.15,1.004,4.302,2.008,6.453,3.012
			c26.673,12.619,51.195,29.254,76.577,44.168c26.816,15.631,55.497,29.111,86.186,34.99c36.567,6.884,76.004,4.589,111.854-5.019
			c63.671-16.922,109.13-67.113,164.341-99.809c23.805-14.054,2.15-51.339-21.654-37.142c-27.39,16.204-52.342,35.851-77.868,54.923
			c-11.186,8.317-22.657,16.349-34.703,23.231c-5.88,3.442-11.902,6.453-18.069,9.178c-0.717,0.287-6.166,2.582-1.29,0.574
			c-1.578,0.717-3.299,1.29-4.876,1.864c-4.016,1.434-7.888,2.868-12.046,4.015c-7.457,2.295-14.914,4.016-22.658,5.45
			c-2.008,0.43-4.015,0.717-6.166,1.003c-6.883,1.147,4.302-0.43-2.725,0.431c-5.306,0.573-10.469,1.004-15.774,1.434
			c-9.178,0.574-18.499,0.718-27.82,0.431c-4.015-0.144-7.888-0.431-11.902-0.86c-6.453-0.717,4.445,0.717-1.864-0.287
			c-2.438-0.43-5.02-0.86-7.457-1.29c-7.313-1.435-14.34-3.299-21.367-5.45c-3.441-1.146-6.883-2.294-10.182-3.585
			c-1.721-0.573-3.298-1.29-5.02-2.008c-2.294-1.003-2.15-0.86,0.144,0.144c-1.146-0.43-2.15-1.004-3.298-1.434
			c-13.48-5.88-26.387-13.193-39.006-20.65c-25.383-15.058-49.904-31.405-76.864-43.738c-32.266-14.627-66.396-22.657-101.96-21.367
			c-11.759,0.431-21.511,9.465-21.511,21.511C521.009,789.149,530.903,799.617,542.519,799.188L542.519,799.188z"/>
	</g>
	<g opacity="0.2">
		<path d="M551.267,83.317c-0.144,40.583-9.034,80.306-10.898,120.603c-1.864,40.439,6.597,79.732,28.681,113.862
			c17.495,27.246,40.727,50.191,61.377,75c2.438,2.868,4.731,5.879,7.026,8.747c-2.868-3.729,0.86,1.147,1.147,1.578
			c1.146,1.434,2.15,3.011,3.298,4.589c4.303,6.166,8.317,12.476,11.902,19.072c1.864,3.299,3.441,6.74,5.02,10.182
			c2.581,5.736-1.578-4.016,0.717,1.864c0.717,1.721,1.291,3.585,2.008,5.449c1.291,3.729,2.294,7.457,3.298,11.329
			c0.431,2.008,0.86,3.872,1.291,5.88c0.144,0.717,1.434,8.891,0.86,4.445c7.17-7.17,14.34-14.341,21.511-21.511
			c4.589,0.573-2.151-0.287-2.438-0.43c-2.725-0.431-5.449-1.004-8.03-1.578c-5.306-1.147-10.612-2.581-15.918-4.015
			c-10.468-3.012-20.649-6.884-30.831-10.756c-19.934-7.887-39.437-16.922-59.656-23.948c-20.076-7.026-41.301-11.615-62.667-11.615
			c-25.67,0-50.479,7.887-72.85,20.076c-10.325,5.593-13.479,19.503-7.743,29.397c6.022,10.325,19.072,13.337,29.397,7.744
			c18.355-10.038,34.99-14.484,55.066-14.197c4.589,0,9.035,0.431,13.48,1.004c-5.02-0.573,2.868,0.573,3.872,0.717
			c2.581,0.431,5.019,1.004,7.6,1.578c10.182,2.294,20.077,5.735,29.828,9.32c18.93,7.027,37.142,15.488,55.928,22.802
			c21.08,8.317,42.447,14.054,64.962,16.922c10.611,1.29,22.944-10.899,21.511-21.511c-4.732-35.421-19.36-65.105-41.014-93.213
			c-9.321-11.902-19.359-23.23-29.255-34.56c-5.019-5.736-10.038-11.473-14.914-17.209c-2.438-2.868-4.875-5.879-7.313-8.891
			c-4.015-4.876,2.582,3.298-1.29-1.721c-1.578-2.008-3.012-4.159-4.589-6.167c-4.446-6.31-8.604-12.762-12.333-19.502
			c-4.589-8.174-6.74-13.193-9.034-20.507c-6.31-19.79-7.457-36.281-6.884-57.504c1.291-41.3,10.898-81.74,11.042-123.041
			C594.431,55.497,551.41,55.641,551.267,83.317L551.267,83.317z"/>
	</g>
	<path fill="none" stroke="#000000" stroke-miterlimit="10" d="M499.642,375.144c9.607-17.209,22.801-39.866,20.076-60.373
		 M542.376,372.705c1.577,8.892-0.86,16.636-7.601,22.658 M592.71,495.889c3.872-16.921,11.76-31.691,10.039-50.334
		 M570.053,417.878c-3.872,15.344-4.159,33.843-5.02,50.334 M527.318,438.098c8.747-12.906,10.898-33.27,22.657-45.315
		 M577.653,478.25c3.585-13.91,0.43-28.967,5.019-42.733 M605.33,538.623c0.573-15.631,14.627-47.896,12.619-70.411"/>
	<path fill="none" d="M998.167,522.833c34.746-28.467,54.467-68.817,100.382-85c41.628-14.671,90.294-11.683,129.161,7.79
		c75.313,37.734,55.729,121.326,97.494,183.494c16.827,25.049,33.368,59.619,36.376,91.166c1.941,20.356,2.933,40.729,4.968,60.884
		c1.814,17.979-3.254,24.92-14.677,38.71c-28.373,34.251-68.167,20.174-107.581,11.622c-37.384-8.111-74.818-26.383-111.123-38.666"
		/>
	<path fill="none" stroke="#020000" stroke-miterlimit="10" d="M1036.057,520.934c35.556-16.814,60.902-52.421,97.963-66.344
		c27.591-10.365,71.461-14.082,100.92-7.354c16.288,3.72,37.208,16.414,43.274,33.737c4.865,13.896-2.004,30.711,1.509,44.961
		c4.527,18.366,17.203,36.684,23.372,54.914c6.821,20.161,14.061,37.889,18.01,58.781c7.187,38.019,21.961,65.253,42.953,98.052
		c15.179,23.715,19.377,52.729-6.711,70.332c-26.483,17.872-72.627,21.383-104.119,22.921c-19.072,0.932-39.085,1.228-57.251-4.956
		c-13.979-4.757-19.34-12.536-29.92-21.711"/>
</g>
</svg>
