<?xml version="1.0" encoding="utf-8"?>
<!-- Generator: Adobe Illustrator 16.0.0, SVG Export Plug-In . SVG Version: 6.00 Build 0)  -->
<!DOCTYPE svg PUBLIC "-//W3C//DTD SVG 1.1//EN" "http://www.w3.org/Graphics/SVG/1.1/DTD/svg11.dtd">
<svg version="1.1" xmlns="http://www.w3.org/2000/svg" xmlns:xlink="http://www.w3.org/1999/xlink" x="0px" y="0px" width="1600px"
	 height="900px" viewBox="0 0 1600 900" enable-background="new 0 0 1600 900" xml:space="preserve">
<g id="white">
</g>
<g id="Layer_1">
	<g id="white_1_">
		<g>
			<g>
				<path fill="#FFFFFF" d="M692.959,89.005c-50.579,12.192-79.555,59.176-94.258,105.601
					c-7.022,22.174-10.499,45.321-13.093,68.374c-2.109,18.745-3.164,37.917-1.384,56.726
					c4.704,49.681,23.173,96.423,47.528,139.661c22.485,39.921,50.646,77.396,82.115,110.665c15.355,16.234,42.516,15.467,57.981,0
					c16.125-16.125,15.347-41.758,0-57.982c-11.866-12.546-23.048-25.708-33.636-39.349c2.137,2.767,4.274,5.532,6.411,8.299
					c-25.349-32.848-47.492-68.46-63.659-106.74c1.378,3.266,2.755,6.529,4.133,9.794c-9.104-21.829-16.201-44.525-19.485-67.995
					c0.487,3.634,0.977,7.267,1.464,10.899c-3.163-23.847-1.621-48.261,1.515-72.038c-0.487,3.633-0.977,7.266-1.464,10.899
					c3.11-23.002,8.24-45.889,17.173-67.373c-1.378,3.265-2.755,6.529-4.133,9.794c4.58-10.815,10.141-21.18,17.266-30.543
					c-2.137,2.766-4.273,5.532-6.411,8.298c4.576-5.885,9.709-11.239,15.573-15.852c-2.766,2.137-5.532,4.274-8.298,6.411
					c4.701-3.592,9.73-6.603,15.151-8.977c-3.266,1.377-6.529,2.755-9.794,4.133c3.608-1.513,7.297-2.717,11.102-3.634
					c21.723-5.236,34.416-29.422,28.636-50.435C737.329,95.592,714.668,83.772,692.959,89.005L692.959,89.005z"/>
			</g>
		</g>
		<g>
			<g>
				<path fill="#FFFFFF" d="M724.459,102.505c-14.259,5.087-24.3,11.152-35.94,20.634c-8.274,6.741-14.955,15.864-20.752,24.685
					c-11.004,16.745-17.744,36.996-21.853,56.516c-8.315,39.51-8.783,80.61-4.778,120.661c1.526,15.255,3.517,30.537,6.422,45.597
					c4.784,24.788,13.775,48.637,25.592,70.928c21.901,41.318,55.588,75.239,85.718,110.507c13.686,16.021,44.314,16.121,57.981,0
					c6.163-7.271,10.383-13.57,13.03-22.85c1.624-5.692,1.963-12.146,1.979-18.143c0.061-22.351-18.697-41-41-41
					c-22.396,0-40.938,18.65-41,41c-0.006,1.97-0.055,3.908-0.264,5.868c0.488-3.633,0.977-7.268,1.464-10.899
					c-0.256,1.404-0.593,2.61-1.147,3.926c1.378-3.265,2.755-6.528,4.133-9.794c-0.232,0.385-0.464,0.77-0.696,1.152
					c2.138-2.766,4.274-5.532,6.411-8.298c-0.298,0.352-0.596,0.702-0.893,1.054c19.327,0,38.654,0,57.981,0
					c-17.714-20.734-36.333-40.723-53.045-62.296c2.138,2.766,4.274,5.532,6.411,8.298c-13.779-17.921-25.931-36.969-34.81-57.811
					c1.378,3.265,2.755,6.528,4.133,9.794c-8.419-20.175-13.166-41.34-16.104-62.931c0.488,3.633,0.978,7.266,1.466,10.898
					c-4.78-35.713-6.065-72.43-1.272-108.207c-0.488,3.633-0.976,7.266-1.464,10.899c2.214-16.018,5.741-31.93,11.972-46.897
					c-1.378,3.265-2.755,6.529-4.133,9.794c3.276-7.695,7.264-15.034,12.327-21.706c-2.137,2.766-4.274,5.532-6.411,8.298
					c3.519-4.523,7.469-8.619,11.968-12.175c-2.766,2.137-5.531,4.274-8.298,6.411c4.038-3.097,8.376-5.657,13.05-7.668
					c-3.265,1.377-6.528,2.755-9.794,4.133c1.128-0.464,2.264-0.899,3.412-1.309c10.357-3.695,18.808-9.119,24.503-18.842
					c5.547-9.469,7.044-21.01,4.133-31.593C769.299,110.802,745.522,94.991,724.459,102.505L724.459,102.505z"/>
			</g>
		</g>
		<g>
			<g>
				<path fill="#FFFFFF" d="M721.323,123.642c-4.313,30.271-5.033,59.934-2.637,90.404c2.209,28.071,6.28,55.956,9.314,83.941
					c3.332,30.725,5.926,61.375,11.382,91.846c4.904,27.387,11.709,54.394,19.44,81.108c5.081,17.556,21.116,30.101,39.536,30.101
					c22.079,0,41.356-18.648,41-41c-0.104-6.538-1.372-12.97-1.5-19.5c-0.439-22.341-18.317-41-41-41c-22.019,0-41.439,18.649-41,41
					c0.128,6.53,1.396,12.962,1.5,19.5c26.845-3.633,53.689-7.266,80.534-10.899c-10.469-36.174-18.951-72.839-24.01-110.179
					c0.488,3.633,0.978,7.267,1.465,10.899c-2.285-17.249-3.5-34.582-5.348-51.876c-1.922-18.005-4.296-35.959-6.347-53.95
					c-4.002-35.107-6.772-70.671-2.298-105.873c-0.488,3.633-0.978,7.267-1.465,10.9c0.157-1.209,0.325-2.417,0.502-3.623
					c1.633-11.466,1.975-21.166-4.134-31.593c-5.368-9.165-14.254-16.023-24.503-18.842c-10.583-2.911-22.124-1.414-31.593,4.133
					C731.963,103.943,722.731,113.753,721.323,123.642L721.323,123.642z"/>
			</g>
		</g>
		<g>
			<g>
				<path fill="#FFFFFF" d="M760.358,140.541c0.121,11.706,1.89,23.455,4.276,34.899c1.821,8.728,4.727,17.188,6.595,25.893
					c3.928,18.302,6.973,36.787,9.489,55.333c-0.487-3.633-0.977-7.267-1.465-10.899c5.442,40.779,8.111,81.871,10.264,122.936
					c2.216,42.272,0.741,84.579,9.807,126.238c4.753,21.842,29.788,34.314,50.435,28.636c22.407-6.163,33.384-28.616,28.636-50.436
					c-1.418-6.515-2.548-13.071-3.462-19.677c0.488,3.634,0.978,7.268,1.464,10.9c-3.307-25.102-3.477-50.438-4.144-75.705
					c-0.697-26.404-2.461-52.83-4.452-79.165c-2.228-29.469-5.547-58.829-9.928-88.057c-2.009-13.402-4.409-26.745-7.173-40.012
					c-2.709-13.004-7.068-25.516-8.916-38.727c0.487,3.633,0.977,7.267,1.465,10.899c-0.537-4.347-0.845-8.679-0.891-13.059
					c-0.232-22.346-18.476-41-41-41C779.185,99.541,760.126,118.189,760.358,140.541L760.358,140.541z"/>
			</g>
		</g>
		<g>
			<g>
				<path fill="#FFFFFF" d="M812.867,130.532c2.056,2.303,4.024,4.667,5.923,7.102c-2.137-2.766-4.273-5.532-6.411-8.298
					c8.064,10.57,14.446,22.208,19.693,34.403c-1.378-3.265-2.757-6.529-4.134-9.794c10.679,25.309,16.508,52.359,20.197,79.495
					c-0.488-3.633-0.977-7.267-1.465-10.899c4.098,30.854,4.841,61.881,5.863,92.938c0.992,30.171,1.478,60.386,0.32,90.559
					c-0.571,14.943-1.569,29.896-3.541,44.724c0.487-3.633,0.977-7.266,1.465-10.898c-1.588,11.681-3.59,23.646-8.158,34.583
					c1.378-3.267,2.756-6.529,4.134-9.795c-1.239,2.885-2.676,5.67-4.56,8.188c2.137-2.767,4.272-5.532,6.409-8.298
					c-0.967,1.243-2.021,2.381-3.247,3.374c2.767-2.137,5.532-4.274,8.299-6.411c-0.915,0.702-1.875,1.287-2.935,1.746
					c3.265-1.379,6.529-2.756,9.795-4.134c-0.803,0.314-1.61,0.541-2.461,0.683c3.633-0.488,7.267-0.977,10.899-1.465
					c-1.012,0.131-1.999,0.131-3.012,0.018c3.634,0.487,7.268,0.977,10.899,1.465c-0.536-0.078-1.062-0.183-1.587-0.311
					c-21.698-5.281-44.38,6.621-50.436,28.636c-5.789,21.05,6.927,45.151,28.637,50.436c25.113,6.111,47.85-5.383,61.161-26.729
					c7.542-12.094,11.395-26.996,13.82-40.938c6.071-34.879,7.171-70.428,7.073-105.755c-0.064-23.249-1.133-46.454-1.631-69.69
					c-1.018-47.411-4.941-96.224-18.987-141.726c-9.224-29.882-23.143-57.775-44.047-81.188c-14.891-16.678-42.854-15.127-57.981,0
					C796.403,89.014,797.996,113.876,812.867,130.532L812.867,130.532z"/>
			</g>
		</g>
		<g>
			<g>
				<path fill="#FFFFFF" d="M852.957,110.234c7.087,15.252,15.132,30.048,21.686,45.547c-1.378-3.265-2.755-6.529-4.133-9.794
					c6.736,16.294,11.521,33.212,13.938,50.684c-0.488-3.633-0.978-7.267-1.465-10.899c4.595,35.226,1.27,70.787-1.379,106.026
					c-2.672,35.563-5.609,71.136-10.307,106.502c0.488-3.633,0.977-7.266,1.465-10.898c-6.106,45.321-16.036,90.002-33.771,132.29
					c1.378-3.266,2.756-6.529,4.134-9.795c-2.134,5.024-4.356,10.008-6.67,14.951c-3.709,6.396-5.574,13.293-5.598,20.693
					c0,10.83,4.354,21.337,12.009,28.991c13.063,13.063,33.727,15.655,49.685,6.411c24.591-14.246,45.646-35.446,57.266-61.599
					c12.756-28.711,17.771-59.545,24.967-89.961c7.367-31.148,15.048-62.224,22.109-93.443c3.994-17.654,5.928-36.236,6.866-54.298
					c0.923-17.783-0.878-35.326-3.69-52.882c-2.742-17.125-8.304-33.313-15.757-48.955c-5.943-12.475-13.564-24.057-19.057-36.764
					c1.377,3.265,2.755,6.529,4.133,9.794c-1.523-3.671-2.864-7.382-3.995-11.194c-13.179,17.3-26.355,34.6-39.535,51.899
					c0.517,0.043,1.03,0.098,1.545,0.164c-3.634-0.488-7.268-0.976-10.899-1.464c3.008,0.423,5.889,1.2,8.698,2.352
					c-3.266-1.378-6.529-2.755-9.794-4.133c3.008,1.312,5.77,2.987,8.366,4.989c-2.767-2.137-5.532-4.274-8.299-6.411
					c3.129,2.506,5.87,5.375,8.356,8.513c-2.137-2.766-4.273-5.532-6.41-8.298c4.591,5.96,8.117,12.594,11.063,19.499
					c-1.379-3.265-2.756-6.529-4.135-9.794c6.764,16.21,10.414,33.575,12.785,50.922c-0.488-3.633-0.977-7.267-1.465-10.899
					c3.339,25.098,4.531,51.208,1.271,76.388c0.487-3.633,0.976-7.267,1.464-10.899c-2.864,21.303-8.255,42.358-16.488,62.222
					c1.378-3.266,2.756-6.529,4.134-9.794c-5.56,13.127-12.387,25.644-21.054,36.987c2.137-2.766,4.272-5.532,6.411-8.298
					c-4.82,6.161-10.115,11.854-16.041,16.965c2.766-2.137,5.531-4.273,8.298-6.411c-7.687,5.846-16.396,10.147-24.604,15.185
					c-13.133,8.06-25.098,18.04-33.031,31.439c-14.225,24.023-10.354,56.247-4.708,82.178c4.632,21.279,29.971,35.063,50.435,28.636
					c34.379-10.795,54.517-42.753,68.947-73.726c5.528-11.866,10.146-24.108,16.671-35.487
					c11.265-19.65,21.982-39.005,22.482-62.322c0.479-22.351-19.014-41-41-41c-22.714,0-40.521,18.66-41,41
					c-0.032,1.504-0.127,2.977-0.281,4.474c0.488-3.633,0.977-7.266,1.465-10.898c-0.653,4.563-1.95,8.871-3.662,13.144
					c1.378-3.265,2.755-6.528,4.133-9.794c-3.99,9.377-9.524,17.943-14.523,26.792c-4.251,7.522-7.439,15.548-10.91,23.445
					c-6.922,15.747-14.403,31.536-24.837,45.303c2.138-2.767,4.273-5.532,6.411-8.299c-3.713,4.773-7.771,9.204-12.549,12.932
					c2.767-2.137,5.531-4.273,8.299-6.411c-2.614,1.939-5.34,3.59-8.328,4.884c3.265-1.378,6.529-2.755,9.794-4.135
					c-0.962,0.38-1.923,0.72-2.909,1.029c16.813,9.545,33.623,19.091,50.436,28.636c-0.896-4.115-1.618-8.258-2.204-12.43
					c0.487,3.634,0.977,7.267,1.465,10.899c-1.169-8.889-1.773-17.898-0.664-26.824c-0.488,3.634-0.976,7.267-1.464,10.899
					c0.478-3.198,1.182-6.276,2.412-9.274c-1.379,3.265-2.756,6.529-4.133,9.794c0.857-1.834,1.877-3.512,3.057-5.157
					c-2.137,2.767-4.274,5.532-6.411,8.298c2.415-3.1,5.217-5.722,8.293-8.154c-2.767,2.137-5.532,4.273-8.299,6.41
					c9.27-7.025,19.901-11.892,29.509-18.397c15.371-10.411,26.692-23.72,37.393-38.738c9.215-12.933,15.591-27.376,21.644-41.978
					c4.926-11.882,8.784-24.136,11.747-36.648c8.343-35.234,9.758-71.515,5.62-107.415c-3.35-29.054-8.89-56.643-21.821-83.092
					c-5.276-10.789-12.789-21.464-21.884-29.306c-5.302-4.571-11.289-9.51-17.856-12.373c-11.515-5.02-18.201-6.908-30.937-8.113
					c-10.307-0.976-21.932,4.948-28.991,12.009c-10.184,10.182-14.684,25.94-10.544,39.891
					c6.797,22.915,20.569,42.042,29.899,63.739c-1.377-3.265-2.755-6.529-4.133-9.794c5.022,12.174,7.872,25.417,9.695,38.421
					c-0.487-3.633-0.977-7.266-1.464-10.899c2.602,19.963,1.879,39.999-0.715,59.922c0.487-3.633,0.977-7.266,1.465-10.899
					c-4.604,33.904-14.272,67.234-22.224,100.474c-4.071,17.027-8.08,34.071-11.905,51.156c-3.118,13.92-6.015,27.75-11.535,40.965
					c1.377-3.266,2.755-6.529,4.133-9.796c-3.454,8.019-7.707,15.569-12.999,22.521c2.139-2.766,4.274-5.531,6.411-8.298
					c-4.937,6.298-10.576,11.869-16.866,16.811c2.766-2.137,5.532-4.272,8.298-6.411c-4.218,3.224-8.627,6.126-13.22,8.786
					c18.698,18.698,37.396,37.397,56.096,56.097c13.733-29.356,24.831-59.705,32.545-91.187
					c7.563-30.865,11.946-62.45,15.643-93.977c3.414-29.123,5.879-58.353,8.033-87.589c2.133-28.964,4.773-57.962,3.375-87.03
					c-1.146-23.792-5.322-46.756-12.46-69.395c-7.505-23.799-20.163-45.673-30.634-68.209c-4.273-9.197-15.068-16.247-24.504-18.842
					c-10.582-2.911-22.124-1.414-31.593,4.133c-9.165,5.369-16.022,14.254-18.842,24.503
					C845.687,90.046,848.139,99.865,852.957,110.234L852.957,110.234z"/>
			</g>
		</g>
		<g>
			<g>
				<path fill="#FFFFFF" d="M718.323,554.94c2.299,15.372,12.919,26.534,24.833,35.285c8.995,6.605,22.898,8.625,33.628,8.94
					c15.068,0.442,29.748-4.319,44.531-6.419c-3.634,0.487-7.267,0.976-10.898,1.464c0.479-0.064,0.96-0.122,1.442-0.171
					c11.3-1.239,20.661-3.679,28.991-12.009c7.653-7.654,12.009-18.161,12.009-28.991s-4.354-21.337-12.009-28.991
					c-6.969-6.968-18.776-13.13-28.991-12.009c-12.015,1.318-23.6,4.16-35.524,5.856c3.633-0.488,7.268-0.978,10.899-1.466
					c-4.768,0.63-9.546,0.986-14.343,0.476c3.634,0.487,7.267,0.977,10.899,1.465c-2.104-0.288-4.112-0.744-6.097-1.504
					c3.265,1.378,6.528,2.755,9.794,4.133c-1.295-0.568-2.47-1.229-3.609-2.066c2.767,2.138,5.532,4.274,8.298,6.411
					c-0.865-0.721-1.615-1.479-2.327-2.353c2.138,2.767,4.274,5.531,6.411,8.298c-0.693-0.976-1.252-1.96-1.748-3.048
					c1.378,3.265,2.756,6.528,4.133,9.794c-0.615-1.604-1-3.197-1.252-4.896c-1.482-9.913-10.589-19.668-18.843-24.503
					c-9.469-5.547-21.01-7.044-31.593-4.133c-10.249,2.818-19.134,9.677-24.503,18.842
					C716.378,533.724,716.615,543.517,718.323,554.94L718.323,554.94z"/>
			</g>
		</g>
		<g>
			<g>
				<path fill="#FFFFFF" d="M792.052,622.639c-24.087-17.979-50.048-33.22-76.331-47.727
					c-28.723-15.854-57.476-31.057-87.804-43.643c-30.843-12.8-63.007-20.779-96.307-23.597
					c-27.646-2.339-56.01,4.477-80.088,18.082c-35.374,19.99-59.055,55.247-71.78,93.049c-6.197,18.407-8.986,38.47-9.336,57.826
					c-0.477,26.281,3.634,53.713,22.462,73.401c19.328-19.327,38.654-38.655,57.981-57.982c-3.352-3.296-6.486-6.746-9.395-10.44
					c2.137,2.766,4.274,5.531,6.411,8.298c-3.769-4.988-6.967-10.253-9.487-15.979c1.377,3.266,2.755,6.529,4.133,9.794
					c-2.167-5.235-3.665-10.6-4.472-16.21c0.488,3.634,0.976,7.268,1.464,10.899c-0.714-5.897-0.633-11.742,0.149-17.629
					c-0.488,3.634-0.978,7.267-1.465,10.898c1.063-6.963,3.039-13.644,5.696-20.16c-1.377,3.266-2.755,6.529-4.133,9.794
					c4.554-10.726,10.728-20.563,17.765-29.822c-2.137,2.766-4.273,5.531-6.41,8.298c5.938-7.674,12.404-14.879,19.241-21.759
					c12.982-13.063,15.749-33.744,6.411-49.686c-9.032-15.419-28.843-24.341-46.302-18.842
					c-25.926,8.165-38.72,30.984-46.672,55.282c-6.35,19.4-8.873,40.089-11.359,60.254c-2.318,18.8-3.716,37.882,3.662,55.933
					c5.992,14.662,13.49,28.523,25.831,38.952c5.923,5.005,12.166,9.987,19.342,13.08c11.903,5.13,20.409,7.574,33.596,8.534
					c22.317,1.625,41-19.88,41-41c0-10.83-4.354-21.337-12.009-28.991c-8.106-8.106-17.828-11.196-28.991-12.009
					c-0.907-0.051-1.813-0.132-2.714-0.244c3.634,0.488,7.267,0.977,10.899,1.464c-3.526-0.501-6.874-1.388-10.188-2.69
					c3.265,1.378,6.528,2.756,9.793,4.133c-3.604-1.553-6.9-3.498-10.031-5.86c2.766,2.138,5.531,4.273,8.298,6.41
					c-3.417-2.729-6.412-5.801-9.109-9.243c2.138,2.768,4.274,5.532,6.411,8.298c-2.888-3.874-5.261-7.994-7.188-12.425
					c1.377,3.266,2.755,6.529,4.133,9.794c-1.799-4.401-3.084-8.903-3.828-13.602c0.488,3.633,0.977,7.266,1.465,10.898
					c-1.602-11.997,0.729-24.889,2.319-36.795c-0.488,3.633-0.978,7.268-1.465,10.899c2.426-17.801,5.498-36.074,12.428-52.75
					c-1.378,3.265-2.756,6.529-4.133,9.794c1.742-4.061,3.74-7.987,6.415-11.521c-2.138,2.768-4.274,5.532-6.411,8.299
					c1.199-1.504,2.486-2.869,3.99-4.072c-2.767,2.137-5.532,4.273-8.299,6.411c1.031-0.762,2.09-1.394,3.268-1.902
					c-3.266,1.377-6.53,2.755-9.794,4.133c0.374-0.15,0.755-0.282,1.143-0.394c-13.297-22.842-26.594-45.686-39.891-68.526
					c-22.929,23.069-43.999,50.976-51.958,83.078c-4.51,18.191-4.584,37.598,0.592,55.658c5.609,19.569,17.463,37.086,31.866,51.246
					c15.928,15.659,42.086,15.896,57.981,0c16.062-16.061,15.437-41.841,0-57.982c-0.984-1.03-1.898-2.073-2.78-3.192
					c2.137,2.767,4.273,5.531,6.411,8.298c-1.26-1.778-2.289-3.597-3.17-5.591c1.377,3.266,2.756,6.529,4.134,9.795
					c-1.686-4.332-2.603-8.914-3.226-13.512c0.488,3.633,0.978,7.268,1.465,10.899c-1.695-13.386-1.662-26.864,0.025-40.249
					c-0.488,3.633-0.977,7.266-1.464,10.898c1.826-13.58,5.321-26.823,10.578-39.481c-1.378,3.265-2.755,6.528-4.134,9.794
					c4.558-10.708,10.309-20.802,17.396-30.04c-2.137,2.766-4.274,5.532-6.411,8.298c5.748-7.338,12.241-13.972,19.558-19.755
					c-2.767,2.138-5.532,4.274-8.299,6.411c7.043-5.438,14.654-9.941,22.845-13.425c-3.266,1.377-6.529,2.755-9.794,4.133
					c7.741-3.179,15.764-5.354,24.043-6.568c-3.634,0.488-7.267,0.978-10.899,1.465c11.713-1.564,23.328-0.921,35.018,0.563
					c-3.633-0.488-7.267-0.978-10.898-1.465c27.029,3.646,53.146,11.878,78.236,22.422c-3.266-1.378-6.529-2.756-9.794-4.133
					c26.27,11.177,51.262,25.196,76.231,38.979c25.751,14.213,51.149,29.239,74.746,46.853c8.351,6.231,21.987,6.774,31.593,4.133
					c10.249-2.818,19.135-9.678,24.503-18.842c5.548-9.47,7.044-21.012,4.134-31.594
					C807.818,635.959,800.998,629.315,792.052,622.639L792.052,622.639z"/>
			</g>
		</g>
		<g>
			<g>
				<path fill="#FFFFFF" d="M363.665,643.639c-11.486,5.008-23.509,14.822-28.914,26.352c-4.199,8.955-6.86,16.388-6.714,26.563
					c0.162,11.306,2.966,17.367,7.285,27.473c3.813,8.921,11.222,16.849,18.361,23.344c8.345,7.593,17.704,14.372,27.394,20.171
					c18.542,11.096,38.439,18.728,59.854,21.264c3.958,0.47,7.952,0.16,11.9-0.288c9.324-1.059,18.279-2.331,27.158-5.288
					c14.193-4.726,27.688-11.59,40.5-19.25c14.998-8.968,29.448-18.931,45.556-25.874c-3.265,1.377-6.53,2.756-9.794,4.134
					c8.399-3.506,17.206-6.104,26.235-7.348c-3.633,0.488-7.267,0.978-10.899,1.465c5.359-0.619,10.662-0.62,16.014,0.065
					c-3.633-0.488-7.266-0.977-10.898-1.465c5.813,0.873,11.37,2.511,16.793,4.766c-3.265-1.377-6.529-2.755-9.794-4.133
					c20,8.684,36.066,24.077,54.692,35.121c13.339,7.909,28.321,13.203,42.601,19.092c13.416,5.532,26.955,10.771,40.675,15.502
					c28.788,9.926,59.167,17.082,89.792,16.458c27.813-0.567,55.157-7.212,80.704-17.936
					c36.594-15.361,70.509-36.138,107.033-51.586c-3.266,1.378-6.529,2.756-9.794,4.134c21.199-8.856,42.902-17.307,65.783-20.498
					c-3.634,0.488-7.267,0.977-10.899,1.465c9.252-1.166,18.481-1.386,27.746-0.236c-3.634-0.487-7.267-0.977-10.899-1.465
					c7.012,1.014,13.751,2.789,20.323,5.438c-3.265-1.377-6.529-2.755-9.794-4.134c2.984,1.411,5.742,3.144,8.378,5.128
					c-2.766-2.138-5.532-4.273-8.298-6.41c6.271,4.891,11.497,10.889,16.359,17.146c-2.138-2.767-4.273-5.531-6.41-8.298
					c12.651,16.472,23.225,34.552,37.371,49.871c7.118,7.707,15.849,15.139,25.512,19.348c10.976,4.782,16.822,6.505,28.801,7.78
					c7.143,0.762,14.688-0.601,21.587-2.096c7.665-1.661,15.276-5.572,22.28-8.696c5.816-2.595,11.287-5.923,16.494-9.574
					c12.887-9.04,24.599-19.273,34.334-31.65c9.841-12.513,18.624-25.15,24.877-39.849c3.545-8.333,7.029-16.514,9.47-25.23
					c2.562-9.147,3.838-18.697,4.807-28.111c3.188-31.003-12.756-61.214-34.146-82.458c-10.031-9.962-21.741-18.401-33.4-26.34
					c-9.866-6.717-20.023-13.182-30.437-19.019c-30.647-17.184-63.528-27.156-98.328-30.888
					c-17.307-1.854-34.304-0.181-51.443,2.501c-16.295,2.55-31.762,9.086-46.609,16.01c-16.594,7.737-31.947,17.963-46.907,28.439
					c-7.226,5.06-14.359,10.248-21.53,15.384c-11.847,8.482-26.003,15.998-33.695,28.615c2.137-2.766,4.272-5.532,6.41-8.298
					c-0.548,0.736-1.184,1.387-1.906,1.95c2.766-2.138,5.531-4.273,8.298-6.411c-1.55,1.109-3.164,1.993-4.863,2.852
					c13.796,23.603,27.591,47.203,41.387,70.805c13.32-8.087,27.3-15.031,41.632-21.135c-3.266,1.378-6.53,2.756-9.796,4.134
					c25.53-10.771,52.304-18.927,79.794-22.72c-3.634,0.488-7.267,0.978-10.899,1.464c16.311-2.164,32.829-2.733,49.169-0.548
					c-3.633-0.488-7.268-0.977-10.899-1.464c10.075,1.435,19.92,3.927,29.321,7.854c-3.266-1.378-6.529-2.756-9.794-4.134
					c7.116,3.065,13.797,6.896,19.969,11.586c-2.766-2.137-5.531-4.272-8.298-6.41c6.009,4.688,11.328,10.065,15.991,16.094
					c-2.138-2.768-4.273-5.532-6.411-8.298c4.285,5.688,7.974,11.755,10.767,18.315c-1.378-3.265-2.756-6.528-4.134-9.794
					c1.706,4.245,2.979,8.567,3.689,13.091c-0.487-3.633-0.977-7.267-1.465-10.898c0.489,3.708,0.572,7.369,0.159,11.088
					c0.488-3.633,0.978-7.268,1.464-10.899c-0.44,3.148-1.219,6.152-2.389,9.108c1.377-3.265,2.755-6.529,4.133-9.794
					c-1.254,2.908-2.815,5.573-4.728,8.099c2.137-2.767,4.273-5.531,6.411-8.298c-2.079,2.586-4.404,4.853-7.006,6.909
					c2.767-2.137,5.531-4.273,8.299-6.411c-3.59,2.689-7.446,4.817-11.569,6.571c3.265-1.378,6.529-2.756,9.794-4.134
					c-5.747,2.299-11.684,3.761-17.797,4.688c3.633-0.488,7.267-0.977,10.898-1.465c-10.577,1.006-21.087,0.328-31.598-1.069
					c3.634,0.488,7.268,0.977,10.899,1.464c-13.063-1.84-25.975-4.59-39.033-6.448c-15.376-2.188-30.297-3.156-45.788-3.314
					c-13.291-0.135-28.173,0.274-40.633,5.106c-12.031,4.664-22.455,11.602-34.15,16.782c3.266-1.377,6.529-2.755,9.794-4.133
					c-2.344,0.971-4.675,1.762-7.194,2.104c3.633-0.488,7.266-0.978,10.898-1.465c-5.301,0.36-10.433,0.506-15.767,1.814
					c-5.308,1.304-10.189,4.233-15.228,6.376c3.266-1.377,6.529-2.755,9.795-4.133c-0.445,0.204-0.91,0.331-1.396,0.379
					c15.434,6.28,30.868,12.561,46.302,18.842c-0.169-0.384-0.337-0.768-0.506-1.15c1.378,3.265,2.756,6.528,4.134,9.794
					c-0.906-2.352-1.521-4.699-1.897-7.189c0.487,3.633,0.977,7.268,1.464,10.899c-0.327-2.962-0.297-5.854,0.022-8.815
					c-0.487,3.633-0.977,7.267-1.465,10.899c0.626-4.452,1.855-8.683,3.526-12.852c-1.378,3.266-2.756,6.529-4.134,9.794
					c2.61-6.116,6.017-11.747,10.017-17.054c-2.137,2.767-4.273,5.532-6.411,8.298c4.498-5.769,9.564-10.986,15.339-15.485
					c-2.767,2.138-5.531,4.273-8.298,6.41c2.556-1.916,5.044-3.507,7.976-4.791c-3.266,1.377-6.529,2.755-9.795,4.133
					c8.65-3.596,17.652-5.821,26.923-7.092c-3.634,0.488-7.268,0.978-10.899,1.465c14.849-1.832,29.779-1.234,44.584,0.711
					c-3.633-0.487-7.267-0.977-10.899-1.465c26.348,3.65,53.466,9.42,78.074,19.687c-3.265-1.377-6.529-2.755-9.794-4.133
					c9.359,3.979,18.371,8.733,26.479,14.909c-2.767-2.137-5.532-4.273-8.298-6.41c4.549,3.555,8.695,7.506,12.278,12.04
					c-2.137-2.767-4.273-5.532-6.411-8.299c2.6,3.41,4.788,7.028,6.533,10.946c-1.378-3.265-2.755-6.529-4.133-9.794
					c1.708,4.058,2.851,8.232,3.466,12.592c-0.488-3.634-0.976-7.267-1.464-10.898c0.573,4.804,0.479,9.566-0.138,14.362
					c0.487-3.634,0.977-7.267,1.465-10.898c-0.06,0.394-0.117,0.788-0.175,1.182c24.979-3.265,49.957-6.529,74.938-9.794
					c-8.327-18.103-21.729-34.405-36.303-47.862c-16.079-14.847-34.619-27.669-54.563-36.74
					c-22.856-10.397-45.67-17.055-70.887-18.425c-12.1-0.657-24.643,0.809-36.33,3.829c-13.578,3.511-26.434,10.008-39.278,15.457
					c3.265-1.378,6.528-2.756,9.793-4.134c-7.307,3.071-14.668,5.939-22.344,7.954c-9.205,2.415-18.854,3.577-28.24,5.086
					c-19.35,3.11-38.691,6.747-58.104,9.396c3.633-0.488,7.268-0.978,10.898-1.466c-30.037,3.92-60.295,3.556-90.303-0.464
					c3.635,0.488,7.268,0.977,10.9,1.464c-21.684-3.004-43.038-7.776-64.126-13.607c-19.308-5.339-38.91-10.958-57.408-18.707
					c3.265,1.378,6.529,2.756,9.794,4.134c-16.785-7.102-33.277-15.083-50.596-20.828c-18.146-6.02-39.67-9.071-58.207-2.928
					c-10.333,3.425-18.906,9.287-24.503,18.842c-7.925,13.529-6.379,27.782,0,41.387c10.844,23.128,31.062,41.266,52.333,54.665
					c20.415,12.859,43.984,21.532,67.168,27.927c44.229,12.196,91.169,16.24,136.919,16.348
					c36.313,0.084,72.942-3.235,108.492-10.738c33.644-7.102,67.688-19.493,96.183-38.991
					c-20.076-15.434-40.152-30.867-60.229-46.302c-0.32,1.706-0.799,3.324-1.435,4.94c1.378-3.266,2.755-6.529,4.133-9.795
					c-1.108,2.563-2.53,4.895-4.194,7.134c2.137-2.768,4.273-5.532,6.41-8.298c-3.284,4.208-7.189,7.788-11.379,11.079
					c2.766-2.139,5.531-4.274,8.297-6.411c-13.716,10.502-29.627,17.9-45.461,24.601c3.266-1.378,6.529-2.756,9.795-4.134
					c-9.314,3.913-18.722,7.665-28.163,11.26c-16.349,6.224-33.565,9.884-50.857,12.256c3.633-0.487,7.267-0.977,10.899-1.465
					c-27.713,3.644-56.1,5.397-83.895,1.806c3.634,0.488,7.268,0.978,10.9,1.466c-29.925-4.071-58.774-13.313-86.555-24.971
					c3.266,1.378,6.529,2.756,9.795,4.134c-52.5-22.244-100.764-52.77-150.063-81.104c-12.731-7.317-28.664-7.453-41.387,0
					c-11.704,6.855-21.432,21.325-20.308,35.402c1.028,12.867,3.266,19.688,8.366,31.333c3.278,7.483,9.167,14.144,14.354,20.229
					c9.083,10.655,21.128,19.083,32.524,27.006c20.145,14.002,41.353,26.676,62.027,39.871
					c26.885,17.16,55.129,31.373,86.296,38.857c30.803,7.396,62.821,10.399,94.392,12.236c32.257,1.877,65.209,4.039,97.351-0.177
					c18.812-2.468,37.098-5.676,54.871-12.516c10.356-3.986,20.604-8.438,30.286-13.886c9.826-5.533,18.698-12.484,27.524-19.465
					c-21.465-16.562-42.929-33.122-64.394-49.685c-2.457,4.421-5.188,8.63-8.253,12.653c2.137-2.767,4.272-5.531,6.411-8.298
					c-4.715,5.985-10.052,11.314-16.034,16.032c2.766-2.137,5.532-4.273,8.298-6.41c-7.395,5.652-15.45,10.171-24.006,13.813
					c3.265-1.378,6.529-2.756,9.794-4.133c-14.084,5.813-28.695,8.633-43.599,11.402c-16.639,3.092-33.113,7.008-49.887,9.354
					c3.635-0.488,7.268-0.977,10.899-1.465c-12.584,1.677-25.245,2.425-37.886,0.917c3.633,0.488,7.266,0.976,10.898,1.464
					c-7.722-1.044-15.177-2.935-22.388-5.9c3.265,1.378,6.528,2.757,9.794,4.135c-8.518-3.708-15.979-8.965-23.301-14.597
					c2.766,2.138,5.531,4.273,8.298,6.411c-20.37-15.759-39.888-33.518-55.72-53.899c2.137,2.767,4.273,5.531,6.41,8.298
					c-5.416-7.068-10.404-14.526-13.882-22.758c1.377,3.266,2.755,6.53,4.133,9.796c-1.378-3.407-2.454-6.883-3-10.523
					c0.488,3.634,0.978,7.267,1.466,10.898c-0.279-2.243-0.34-4.455-0.099-6.706c-0.487,3.633-0.976,7.266-1.464,10.897
					c0.266-1.895,0.736-3.688,1.461-5.462c-1.378,3.265-2.755,6.529-4.133,9.794c1.265-2.79,3.162-5.165,5.021-7.582
					c-2.138,2.768-4.274,5.532-6.412,8.298c8.5-10.736,18.993-19.398,29.402-28.191c12.518-10.573,23.674-22.241,32.448-36.216
					c23.062-36.732,20.529-86.554,9.263-126.729c-4.929-17.576-21.23-30.101-39.535-30.101c-18.444,0-34.421,12.549-39.535,30.101
					c-7.498,25.731-14.805,51.579-25.125,76.359c1.377-3.266,2.755-6.529,4.133-9.795c-5.798,13.723-12.485,27.136-21.375,39.142
					c23.602,0,47.203,0,70.805,0c-0.525-1.114-1.025-2.236-1.507-3.37c1.378,3.265,2.755,6.529,4.133,9.794
					c-3.019-7.388-4.908-15.125-5.979-23.022c0.488,3.633,0.978,7.266,1.466,10.898c-1.146-9.118-1.172-18.297-0.021-27.416
					c-0.488,3.634-0.976,7.268-1.464,10.899c1.038-7.565,2.883-14.949,5.806-22.014c-1.377,3.266-2.755,6.529-4.133,9.795
					c2.099-4.873,4.669-9.459,7.87-13.693c-2.137,2.767-4.273,5.532-6.411,8.298c2.598-3.309,5.5-6.272,8.803-8.882
					c-2.767,2.138-5.532,4.273-8.299,6.411c3.149-2.384,6.506-4.336,10.135-5.896c-3.266,1.378-6.529,2.756-9.795,4.134
					c3.926-1.586,7.955-2.634,12.144-3.238c-3.633,0.487-7.266,0.977-10.899,1.465c4.828-0.596,9.766-0.728,14.598-0.094
					c-3.633-0.488-7.268-0.978-10.899-1.465c3.078,0.479,6.021,1.308,8.893,2.515c-3.266-1.377-6.529-2.755-9.794-4.133
					c2.791,1.253,5.375,2.803,7.825,4.634c-2.766-2.138-5.531-4.273-8.298-6.41c3.691,2.874,6.872,6.24,9.743,9.927
					c-2.137-2.767-4.274-5.532-6.411-8.299c5.994,7.909,10.414,16.831,14.294,25.928c-1.377-3.265-2.755-6.528-4.133-9.794
					c6.552,15.566,11.49,31.735,17.38,47.551c7.126,19.134,15.024,38.333,29.564,53.164c7.543,7.694,18.252,12.01,28.99,12.01
					c10.039,0,22.31-4.06,28.991-12.01c6.9-8.209,13.263-16.686,18.128-26.239c5.104-10.023,9.209-20.658,12.802-31.316
					c5.223-15.497,9.142-31.406,15.397-46.548c-1.378,3.265-2.756,6.529-4.133,9.794c3.688-8.69,8.127-16.943,13.848-24.475
					c-2.137,2.766-4.273,5.53-6.41,8.298c0.937-1.189,1.892-2.357,2.869-3.514c-16.562,2.138-33.123,4.274-49.685,6.411
					c0.354,0.271,0.709,0.54,1.063,0.811c-2.767-2.138-5.531-4.273-8.297-6.411c0.666,0.581,1.265,1.225,1.795,1.933
					c-2.139-2.766-4.274-5.532-6.411-8.298c1.028,1.494,1.827,3.013,2.548,4.677c-1.378-3.265-2.755-6.528-4.133-9.794
					c0.771,2.004,1.425,4.041,2.092,6.081c6.931,21.227,28.122,34.773,50.435,28.636c20.775-5.715,35.574-29.187,28.636-50.435
					c-1.914-5.863-4.293-11.409-6.758-17.106c-3.986-9.217-11.926-15.068-19.583-20.896c-6.395-3.709-13.293-5.574-20.692-5.598
					c-10.077,0-22.263,4.069-28.991,12.009c-7.106,8.383-13.687,17.142-18.775,26.888c-5.286,10.121-9.477,20.915-13.189,31.706
					c-5.454,15.845-9.36,32.191-15.771,47.705c1.378-3.265,2.756-6.529,4.134-9.794c-3.376,7.947-7.402,15.511-12.59,22.432
					c2.137-2.766,4.274-5.53,6.411-8.298c-0.887,1.141-1.79,2.257-2.719,3.361c19.327,0,38.655,0,57.981,0
					c-1.232-1.259-2.382-2.579-3.475-3.961c2.137,2.766,4.273,5.531,6.411,8.298c-4.84-6.319-8.342-13.516-11.459-20.805
					c1.377,3.265,2.755,6.528,4.133,9.794c-15.422-36.578-22.659-79.729-52.183-108.486c-9.683-9.431-21.478-16.447-34.492-20.146
					c-14.484-4.119-30.333-3.071-44.854-0.013c-25.081,5.285-47.678,24.977-58.366,47.948
					c-17.654,37.948-16.907,81.315,0.891,119.056c6.002,12.729,21.953,20.308,35.402,20.308c7.4-0.023,14.299-1.89,20.692-5.599
					c6.161-3.645,11.064-8.548,14.709-14.709c14.097-19.034,23.172-41.737,31.332-63.786c7.462-20.162,13.292-40.881,19.301-61.508
					c-26.355,0-52.714,0-79.07,0c2.241,7.993,3.909,16.101,5.075,24.317c-0.487-3.633-0.977-7.266-1.465-10.899
					c1.741,13.165,2.176,26.444,0.51,39.642c0.488-3.633,0.978-7.268,1.466-10.899c-1.067,7.534-2.899,14.797-5.85,21.82
					c1.378-3.266,2.755-6.529,4.134-9.794c-2.629,5.947-5.944,11.439-9.916,16.587c2.137-2.768,4.273-5.532,6.41-8.298
					c-13.019,16.366-31.166,27.492-45.269,42.816c-9.257,10.063-19.604,22.509-22.048,36.489
					c-2.345,13.417-2.184,26.935,2.998,39.74c4.516,11.162,9.477,21.119,16.656,30.765c7.694,10.337,15.794,20.212,24.744,29.478
					c14.697,15.213,30.976,28.56,47.715,41.434c6.671,5.131,13.511,9.921,21.188,13.452c16.656,7.661,32.354,11.357,50.697,12.722
					c14.801,1.103,29.611-1.158,44.222-3.202c11.923-1.667,23.714-4.202,35.503-6.606c11.126-2.271,22.389-3.942,33.44-6.55
					c13.105-3.093,25.641-8.086,37.819-13.782c24.252-11.342,44.961-31.637,57.906-54.936c8.979-16.16,6.827-36.445-6.411-49.685
					c-7.653-7.654-18.161-12.009-28.991-12.009c-11.875,0-20.053,4.939-28.99,12.009c-0.442,0.35-0.886,0.699-1.327,1.05
					c2.766-2.138,5.53-4.273,8.298-6.411c-10.448,8.071-21.786,14.695-33.905,19.926c3.265-1.378,6.529-2.756,9.794-4.134
					c-15.521,6.513-31.809,10.577-48.459,12.883c3.633-0.488,7.266-0.978,10.899-1.466c-23.47,3.078-46.953,2.259-70.534,1.402
					c-25.093-0.911-50.191-2.327-75.097-5.622c3.633,0.488,7.266,0.977,10.898,1.464c-22.651-3.083-45.559-7.477-66.743-16.314
					c3.266,1.378,6.529,2.755,9.795,4.133c-23.459-10.066-44.632-24.566-65.986-38.374c-16.619-10.744-33.977-20.564-49.711-32.616
					c2.766,2.138,5.531,4.274,8.298,6.411c-6.546-5.1-12.746-10.616-17.897-17.15c2.138,2.767,4.274,5.532,6.411,8.298
					c-2.384-3.154-4.437-6.449-6.025-10.077c1.378,3.266,2.755,6.529,4.133,9.795c-0.97-2.422-1.675-4.854-2.095-7.429
					c0.487,3.634,0.977,7.267,1.465,10.899c-0.104-0.722-0.177-1.447-0.22-2.175c-20.563,11.801-41.129,23.602-61.692,35.401
					c52.519,30.186,103.853,61.737,159.856,85.236c26.245,11.013,53.425,19.861,81.603,24.263
					c16.771,2.621,33.59,4.471,50.579,4.145c15.196-0.292,30.487-1.496,45.573-3.315c23.517-2.834,46.638-6.83,68.772-15.505
					c14.196-5.563,28.354-11.242,42.293-17.432c12.823-5.695,25.515-12.118,36.786-20.538
					c16.211-12.109,32.829-27.377,36.765-48.355c2.763-14.726,0.45-28.896-10.544-39.891c-12.333-12.333-34.613-16.725-49.685-6.411
					c-11.211,7.672-23.201,14.007-35.7,19.307c3.265-1.378,6.529-2.755,9.794-4.133c-25.507,10.625-52.555,16.862-79.878,20.574
					c3.633-0.488,7.268-0.978,10.898-1.465c-47.285,6.246-96.091,5.873-143.359-0.467c3.633,0.487,7.266,0.977,10.898,1.465
					c-28.65-3.914-57.265-10.195-84-21.421c3.265,1.378,6.528,2.755,9.793,4.133c-12.498-5.336-24.495-11.791-35.297-20.081
					c2.767,2.138,5.532,4.273,8.299,6.411c-6.402-5.018-12.248-10.617-17.31-16.995c2.138,2.767,4.274,5.532,6.411,8.298
					c-3.708-4.805-6.878-9.92-9.455-15.417c-8.167,20.076-16.335,40.152-24.503,60.229c2.109-0.698,4.222-1.18,6.42-1.497
					c-3.633,0.487-7.266,0.977-10.899,1.465c4.385-0.496,8.715-0.302,13.079,0.278c-3.633-0.487-7.266-0.977-10.898-1.464
					c12.422,1.891,24.229,6.5,35.755,11.343c-3.266-1.379-6.529-2.757-9.794-4.134c13.328,5.648,26.464,11.789,39.996,16.943
					c12.647,4.818,25.823,8.585,38.795,12.424c31.433,9.305,63.327,15.738,95.92,19.329c33.558,3.697,66.856,1.645,100.129-3.688
					c16.224-2.601,32.42-5.403,48.647-7.992c15.148-2.417,29.934-4.813,44.271-10.442c8.582-3.37,17.011-7.13,25.496-10.735
					c-3.265,1.379-6.529,2.756-9.794,4.134c9.474-3.99,19.07-7.75,29.311-9.168c-3.633,0.487-7.267,0.977-10.898,1.465
					c8.555-0.946,17.111-0.738,25.644,0.34c-3.633-0.488-7.267-0.978-10.898-1.465c12.678,1.748,24.938,5.339,36.752,10.227
					c-3.266-1.377-6.529-2.755-9.794-4.133c13.99,5.933,27.122,13.594,39.211,22.798c-2.767-2.137-5.531-4.272-8.298-6.41
					c10.447,8.095,19.977,17.255,28.097,27.698c-2.137-2.766-4.273-5.531-6.41-8.298c5.021,6.602,9.396,13.602,12.864,21.142
					c5.864,12.749,22.061,20.308,35.401,20.308c7.401-0.023,14.3-1.89,20.693-5.599c8.244-4.829,17.374-14.595,18.842-24.503
					c2.333-15.734,3.281-30.765-1.734-46.242c-4.633-14.289-12.162-26.313-22.397-37.264c-16.652-17.816-39.87-28.486-62.381-36.626
					c-16.237-5.87-33.175-9.653-50.122-12.803c-33.246-6.18-66.227-9.701-99.465-1.081c-7.64,1.981-14.956,5.222-22.152,8.376
					c-6.813,2.985-12.562,8.171-18.28,12.796c-9.116,7.372-16.56,17.237-23.068,26.84c-6.513,9.606-11.641,21.125-13.947,32.482
					c-1.384,6.809-2.522,14.043-2.025,21.044c0.876,12.332,3.226,19.08,8.139,30.271c3.646,6.161,8.548,11.064,14.709,14.709
					c10.229,5.992,20.295,6.055,31.593,4.134c5.018-0.854,9.627-3.812,14.301-5.883c-3.265,1.378-6.528,2.757-9.793,4.134
					c1.145-0.467,2.243-0.854,3.443-1.147c-3.634,0.488-7.267,0.977-10.898,1.464c5.841-0.572,11.818-0.668,17.591-2.116
					c6.061-1.521,11.821-4.489,17.411-7.237c6.746-3.315,13.008-7.526,19.877-10.607c-3.266,1.378-6.529,2.756-9.795,4.134
					c3.938-1.653,7.937-2.448,12.146-3.105c-3.633,0.487-7.266,0.976-10.898,1.464c16.761-2.24,34.986-1.512,51.728,0.599
					c-3.633-0.487-7.266-0.977-10.899-1.464c35.565,4.786,71.471,15.822,107.077,4.901c15.039-4.612,30.661-12.885,41.007-25.015
					c12.537-14.697,19.006-30.924,20.061-50.258c1.603-29.405-16.118-59.771-36.916-79.307
					c-18.078-16.982-41.159-28.701-65.426-33.69c-38.422-7.897-78.183-3.417-115.721,6.889
					c-32.794,9.002-65.297,22.648-94.387,40.311c-19.069,11.577-26.146,36.573-14.709,56.096
					c5.369,9.165,14.255,16.023,24.503,18.843c11.125,3.061,21.524,0.95,31.593-4.134c9.306-4.698,16.787-11.814,22.211-20.709
					c-4.903,4.903-9.807,9.807-14.709,14.709c30.431-20.37,58.758-44.525,92.629-59.2c-3.266,1.378-6.529,2.756-9.795,4.134
					c11.041-4.657,22.367-7.999,34.235-9.712c-3.634,0.487-7.267,0.977-10.899,1.465c14.066-1.861,28.193-1.727,42.261,0.062
					c-3.634-0.487-7.268-0.977-10.899-1.465c17.598,2.412,34.649,7.318,51.021,14.174c-3.267-1.377-6.529-2.755-9.795-4.133
					c22.709,9.72,44.474,23.22,64.076,38.244c-2.766-2.137-5.531-4.272-8.298-6.41c7.901,6.146,15.313,12.86,21.545,20.723
					c-2.137-2.767-4.272-5.531-6.411-8.298c3.807,4.95,7.021,10.219,9.475,15.969c-1.378-3.266-2.756-6.529-4.133-9.794
					c1.892,4.698,3.189,9.51,3.903,14.525c-0.487-3.634-0.976-7.267-1.464-10.898c0.652,5.463,0.575,10.873-0.103,16.331
					c0.487-3.635,0.976-7.268,1.464-10.899c-1.492,10.253-4.411,20.224-8.354,29.792c1.378-3.266,2.757-6.53,4.135-9.795
					c-4.802,11.285-10.993,21.829-18.466,31.551c2.137-2.767,4.272-5.531,6.409-8.298c-6.599,8.391-14.038,15.98-22.44,22.571
					c2.766-2.137,5.531-4.274,8.298-6.411c-7.047,5.379-14.585,9.919-22.744,13.402c3.265-1.378,6.529-2.755,9.794-4.134
					c-4.109,1.677-8.211,3.228-12.609,3.927c3.634-0.488,7.268-0.978,10.899-1.464c-2.647,0.344-5.253,0.392-7.908,0.107
					c3.634,0.488,7.268,0.978,10.899,1.465c-2.811-0.383-5.48-1.115-8.107-2.183c3.266,1.378,6.529,2.756,9.794,4.133
					c-3.21-1.397-6.147-3.203-8.941-5.308c2.767,2.137,5.531,4.272,8.298,6.41c-6.173-4.819-11.293-10.757-16.066-16.93
					c2.137,2.767,4.274,5.531,6.411,8.298c-12.642-16.539-23.267-34.643-37.49-49.959c-22.119-23.814-55.093-33-86.929-30.825
					c-35.05,2.395-67.345,15.356-99.169,29.294c-23.112,10.122-45.076,22.611-67.624,33.888c-7.852,3.926-15.8,7.659-23.879,11.095
					c3.265-1.377,6.529-2.755,9.794-4.133c-17.086,7.172-34.751,12.701-53.154,15.179c3.633-0.487,7.267-0.977,10.899-1.465
					c-14.098,1.768-28.234,1.694-42.324-0.101c3.633,0.487,7.268,0.977,10.898,1.465c-36.278-4.982-71.107-19.448-104.627-33.579
					c3.265,1.377,6.528,2.755,9.793,4.133c-9.231-3.904-18.152-7.94-26.658-13.282c-7.876-4.944-15.313-10.561-22.865-15.977
					c-7.275-5.218-14.708-10.228-22.717-14.26c-14.867-7.483-28.118-10.998-44.563-12.746c-12.796-1.36-26.27,1.354-38.58,4.757
					c-12.979,3.589-25.523,9.59-37.287,16.096c-18.207,10.07-34.991,22.674-54.232,30.828c3.265-1.378,6.529-2.756,9.794-4.133
					c-6.925,2.837-14.019,4.992-21.425,6.126c3.633-0.488,7.266-0.977,10.898-1.464c-4.391,0.585-8.871,0.996-13.288,0.473
					c3.634,0.488,7.267,0.978,10.899,1.465c-7.132-0.97-14.009-3.479-20.613-6.253c3.266,1.378,6.529,2.757,9.794,4.135
					c-11.274-4.826-22.057-10.909-31.82-18.347c2.766,2.138,5.532,4.274,8.298,6.411c-4.946-3.836-9.62-8.021-13.51-12.946
					c2.137,2.768,4.274,5.532,6.411,8.299c-1.796-2.355-3.365-4.824-4.531-7.554c1.378,3.266,2.756,6.529,4.133,9.794
					c-0.633-1.607-1.092-3.227-1.327-4.939c0.488,3.633,0.977,7.266,1.464,10.898c-0.118-1.214-0.114-2.392,0.029-3.603
					c-0.488,3.633-0.977,7.266-1.465,10.899c0.199-1.214,0.524-2.347,0.995-3.48c-1.377,3.265-2.755,6.529-4.133,9.794
					c0.561-1.196,1.236-2.277,2.041-3.326c-2.137,2.767-4.274,5.532-6.411,8.298c1.14-1.367,2.409-2.548,3.81-3.645
					c-2.766,2.137-5.532,4.273-8.298,6.411c2.597-1.907,5.405-3.386,8.354-4.671c9.188-4.006,16.303-15.271,18.842-24.503
					c2.911-10.582,1.414-22.124-4.133-31.594c-5.369-9.165-14.254-16.022-24.503-18.842
					C383.653,636.313,374.246,639.025,363.665,643.639L363.665,643.639z"/>
			</g>
		</g>
		<g>
			<g>
				<path fill="#FFFFFF" d="M811.193,313.098c-2.327-1.494-4.575-3.084-6.771-4.766c2.767,2.137,5.532,4.274,8.299,6.411
					c-9-7.072-16.759-15.486-23.755-24.518c2.137,2.766,4.274,5.532,6.411,8.298c-11.194-14.688-20.3-30.845-27.53-47.823
					c1.378,3.265,2.756,6.53,4.133,9.794c-5.995-14.338-10.695-29.258-12.902-44.672c0.488,3.633,0.976,7.266,1.464,10.899
					c-1.136-8.54-1.336-17.029-0.314-25.596c-0.487,3.633-0.977,7.266-1.465,10.899c1.33-9.691,4.124-18.95,7.9-27.958
					c-1.378,3.265-2.756,6.529-4.133,9.794c8.447-19.577,20.736-37.182,29.375-56.669c4.666-10.527,7.312-20.038,4.133-31.593
					c-2.601-9.452-9.646-20.208-18.842-24.503c-16.298-7.611-31.503-12.475-49.618-13.299c-15.061-0.685-30.92,3.525-43.932,11.034
					c-27.909,16.108-41.197,49.563-38.474,80.767c1.647,18.864,7.631,37.078,13.801,54.88c7.062,20.372,14.829,41.561,26.632,59.73
					c9.525,14.665,21.054,26.259,37.998,31.827c21.235,6.978,44.729-7.892,50.435-28.636c6.146-22.343-7.424-43.464-28.636-50.435
					c-0.332-0.1-0.658-0.216-0.979-0.349c3.265,1.378,6.529,2.755,9.794,4.133c-1.251-0.551-2.375-1.254-3.466-2.073
					c2.766,2.137,5.532,4.274,8.298,6.411c-2.292-1.83-4.226-3.997-6.029-6.3c2.138,2.766,4.274,5.532,6.411,8.298
					c-7.079-9.316-12.053-20.179-16.608-30.892c1.378,3.265,2.755,6.53,4.133,9.794c-8.671-20.613-16.45-42.418-20.917-64.386
					c0.487,3.633,0.976,7.266,1.464,10.899c-0.764-6.265-0.917-12.507-0.125-18.777c-0.488,3.633-0.977,7.267-1.464,10.899
					c0.62-4.185,1.643-8.217,3.224-12.145c-1.378,3.265-2.755,6.529-4.133,9.794c1.382-3.195,3.074-6.154,5.184-8.925
					c-2.137,2.766-4.272,5.532-6.41,8.298c1.875-2.325,3.951-4.38,6.302-6.223c-2.767,2.137-5.532,4.274-8.298,6.411
					c2.404-1.776,4.941-3.232,7.679-4.433c-3.265,1.377-6.529,2.755-9.794,4.133c3.219-1.31,6.51-2.192,9.941-2.735
					c-3.634,0.488-7.268,0.976-10.9,1.464c4.936-0.662,9.837-0.579,14.771,0.051c-3.633-0.488-7.266-0.977-10.898-1.464
					c6.581,0.97,12.884,2.863,19.027,5.394c-3.266-1.377-6.53-2.755-9.795-4.133c1.343,0.578,2.672,1.175,3.996,1.793
					c-4.902-18.699-9.806-37.397-14.709-56.096c-4.753,10.725-10.572,20.897-16.322,31.108
					c-7.455,13.24-14.021,26.726-19.426,40.962c-10.357,27.284-9.183,57.112-2.352,85.042c6.141,25.111,17.3,49.796,30.958,71.695
					c14.474,23.208,32.694,44.42,55.852,59.288c18.825,12.086,45.161,3.958,56.097-14.709
					C837.554,349.304,829.962,325.147,811.193,313.098L811.193,313.098z"/>
			</g>
		</g>
		<g>
			<g>
				<path fill="#FFFFFF" d="M721.5,280.5c-2.678-26.838-8.985-52.922-12.668-79.575c0.488,3.633,0.977,7.266,1.464,10.899
					c-1.499-11.324-2.136-22.708-0.65-34.069c-0.487,3.633-0.977,7.266-1.465,10.899c1.051-7.244,2.949-14.23,5.734-21
					c-1.378,3.265-2.755,6.53-4.133,9.794c3.281-7.632,7.557-14.662,12.559-21.285c-2.137,2.766-4.273,5.532-6.411,8.298
					c12.448-16.021,27.276-30.889,43.321-43.299c-2.766,2.137-5.532,4.274-8.298,6.411c9.715-7.384,20.073-13.756,31.274-18.628
					c-3.265,1.377-6.528,2.755-9.794,4.133c9.475-3.982,19.285-6.759,29.466-8.195c-3.634,0.488-7.267,0.977-10.899,1.465
					c12.626-1.594,25.351-1.247,37.955,0.383c-3.634-0.488-7.267-0.976-10.899-1.464c14.083,1.931,27.898,5.429,41.059,10.834
					c-3.266-1.378-6.529-2.756-9.794-4.133c8.64,3.651,16.861,8.104,24.36,13.758c-2.766-2.137-5.531-4.274-8.298-6.411
					c4.987,3.88,9.496,8.21,13.39,13.194c-2.137-2.766-4.272-5.532-6.41-8.298c3.458,4.615,6.209,9.74,8.529,15.006
					c-1.377-3.265-2.755-6.53-4.133-9.794c2.719,6.521,4.546,13.24,5.546,20.232c-0.486-3.633-0.976-7.266-1.464-10.899
					c1.046,8.394,0.872,16.765-0.184,25.149c0.488-3.633,0.977-7.266,1.464-10.899c-2.286,16.443-7.714,32.156-14.083,47.423
					c1.378-3.265,2.755-6.529,4.133-9.794c-9.238,21.881-20.013,43.056-29.206,64.966c-1.953,7.266-1.953,14.533,0,21.799
					c2.818,10.249,9.677,19.134,18.842,24.503c19.396,11.361,44.685,4.461,56.097-14.709c4.365-7.334,9.333-14.243,14.54-20.998
					c-2.138,2.766-4.273,5.532-6.411,8.298c10.701-13.793,22.523-27.108,30.836-42.554c10.309-19.157,15.912-41.174,14.535-62.989
					c-1.351-21.375-8.232-41.369-19.893-59.298c-7.103-10.922-15.711-20.933-20.84-33.028c1.378,3.265,2.756,6.529,4.134,9.794
					c-1.153-2.878-2.082-5.793-2.77-8.818c-16.813,16.812-33.623,33.623-50.436,50.435c0.994,0.285,1.952,0.62,2.908,1.016
					c-3.265-1.377-6.53-2.755-9.795-4.133c1.663,0.761,3.188,1.677,4.66,2.762c-2.768-2.137-5.532-4.274-8.298-6.411
					c2.185,1.721,4.061,3.696,5.771,5.886c-2.137-2.766-4.272-5.532-6.411-8.298c2.842,3.808,5.035,7.979,6.912,12.333
					c-1.378-3.265-2.756-6.529-4.133-9.794c6.143,14.742,8.852,30.76,10.998,46.501c-0.488-3.633-0.977-7.267-1.464-10.899
					c2.331,17.441,3.769,34.973,6.216,52.402c1.947,6.946,5.463,12.976,10.544,18.092c7.654,7.654,18.161,12.009,28.991,12.009
					c18.564,0,34.264-12.572,39.535-30.101c10.555-35.091,4.793-71.979-6.722-106.008c-9.608-28.397-22.836-55.901-27.278-85.791
					c-24.979,10.531-49.958,21.062-74.938,31.593c2.117,4.279,4.106,8.609,5.982,12.999c-1.377-3.265-2.755-6.529-4.134-9.794
					c10.98,26.241,17.368,54.048,21.164,82.176c-0.488-3.633-0.978-7.267-1.466-10.899c0.298,2.273,0.582,4.548,0.854,6.825
					c0.022,7.401,1.889,14.299,5.598,20.693c5.369,9.165,14.255,16.022,24.503,18.842c22.539,6.2,43.212-7.509,50.436-28.636
					c11.976-35.028,2.48-71.79-8-105.799C948.639,18.09,933.161,5.5,914.5,5.5c-10.83,0-21.337,4.354-28.991,12.009
					C878.606,24.41,872.276,36.351,873.5,46.5c4.708,39.036,14.451,76.716,23.465,114.899c4.169,17.66,21.813,30.101,39.535,30.101
					c10.83,0,21.337-4.354,28.991-12.009c8.261-8.26,10.904-17.732,12.009-28.991c1.056-10.767,0.318-21.574-1.112-32.271
					c-2.064-15.444-4.676-30.541-8.646-45.613c-6.952-26.377-16.813-51.894-27.838-76.81c-3.646-6.161-8.549-11.064-14.709-14.709
					c-9.469-5.547-21.012-7.044-31.594-4.133c-6.944,1.948-12.977,5.463-18.092,10.544C867.363-4.346,864.384,5.312,863.5,16.5
					c-2.156,27.297,5.229,55.279,13.037,81.22c7.354,24.433,16.366,48.706,19.817,74.104c-0.488-3.633-0.978-7.266-1.466-10.899
					c0.233,1.856,0.438,3.713,0.61,5.576c23.33-9.664,46.661-19.328,69.991-28.991c-0.711-0.889-1.415-1.783-2.112-2.682
					c2.137,2.766,4.273,5.532,6.41,8.298c-19.151-24.861-33.192-53.006-45.396-81.795c1.379,3.265,2.756,6.529,4.133,9.794
					c-7.176-17.036-13.76-34.309-20.489-51.523c-1.947-6.946-5.463-12.976-10.544-18.092c-5.115-5.082-11.146-8.596-18.092-10.544
					c-7.268-1.953-14.532-1.953-21.8,0c-9.314,2.563-20.388,9.65-24.503,18.842c-8.123,18.143-13.492,37.22-21.166,55.52
					c1.378-3.265,2.756-6.529,4.135-9.794c-3.348,7.822-7.168,15.437-12.326,22.235c2.137-2.766,4.273-5.532,6.41-8.298
					c-2.379,3.007-4.971,5.743-7.963,8.147c2.767-2.137,5.531-4.274,8.297-6.411c-0.875,0.662-1.762,1.288-2.678,1.893
					c16.563,2.137,33.123,4.274,49.686,6.411c-0.744-0.884-1.469-1.778-2.183-2.688c2.139,2.766,4.274,5.532,6.411,8.298
					c-5.367-7.096-9.459-14.971-12.967-23.124c1.378,3.265,2.755,6.529,4.133,9.794c-13.224-31.454-17.845-65.479-26.852-98.188
					c-8.339-30.288-46.35-39.229-68.526-18.092c-17.678,16.849-29.424,38.547-39.436,60.505
					c-9.136,20.036-17.396,40.836-30.808,58.509c2.138-2.766,4.274-5.532,6.411-8.298c-1.959,2.515-4.005,4.941-6.168,7.284
					c22.842,6.03,45.686,12.061,68.527,18.092c-1.424-6.536-2.576-13.113-3.503-19.738c0.488,3.633,0.977,7.267,1.465,10.899
					c-1.6-12.031-2.454-24.124-2.498-36.262c-0.064-18.243-12.465-34.685-30.102-39.536c-20.703-5.695-45.604,6.813-50.435,28.636
					c-1.964,8.874-4.922,17.444-8.423,25.823c1.378-3.265,2.756-6.529,4.133-9.794c-6.832,15.966-15.529,31.126-26.064,44.94
					c2.137-2.766,4.273-5.532,6.41-8.298c-3.597,4.627-7.393,9.065-11.511,13.237c22.843,6.03,45.686,12.061,68.527,18.092
					c-1.657-4.178-2.722-8.464-3.365-12.908c0.488,3.633,0.978,7.266,1.464,10.899c-0.932-7.501-0.642-14.994,0.342-22.474
					c-0.487,3.633-0.977,7.266-1.464,10.899c2.105-14.602,6.679-28.675,12.345-42.258c-1.377,3.265-2.754,6.529-4.133,9.794
					c6.269-14.763,13.817-28.987,22.679-42.36C706.923,20.662,681.944,10.131,656.964-0.4c-2.323,7.959-5.152,15.726-8.338,23.378
					c1.377-3.265,2.755-6.529,4.133-9.794c-2.389,5.619-4.947,11.153-7.662,16.622c25.467,6.897,50.936,13.795,76.402,20.693
					c0.033-4.73,0.404-9.426,0.988-14.119c-0.488,3.633-0.978,7.267-1.465,10.899c2.551-18.979,8.25-37.485,15.597-55.13
					c-1.377,3.265-2.755,6.529-4.133,9.794c4.833-11.403,10.411-22.515,17.416-32.751c-24.979-3.265-49.958-6.529-74.938-9.794
					c2.22,5.841,3.663,11.85,4.544,18.031c-0.487-3.633-0.977-7.267-1.464-10.899c1.649,12.895,0.885,25.871-0.781,38.723
					c0.488-3.633,0.978-7.266,1.465-10.899C673.466,33.13,659.729,71.083,659.5,110.5c-0.106,18.219,12.59,34.719,30.101,39.536
					c10.584,2.911,22.125,1.414,31.594-4.133c10.011-5.864,14.675-14.128,18.842-24.503c1.548-3.855,3.129-7.697,4.742-11.525
					c-1.378,3.265-2.756,6.529-4.133,9.794c7.005-16.503,14.588-32.775,23.258-48.475c-24.979-3.265-49.958-6.529-74.938-9.794
					c2.043,8.074,3.581,16.232,4.701,24.484c-0.488-3.633-0.978-7.266-1.464-10.899c7.324,57.313-5.29,114.619-10.701,171.516
					c27.333,0,54.667,0,82,0c0.009-35.792,0.887-71.666,5.637-107.185c-0.487,3.633-0.977,7.266-1.465,10.899
					c3.361-24.5,8.479-48.972,18.016-71.875c-1.377,3.265-2.754,6.529-4.133,9.794c2.472-5.804,5.223-11.46,8.349-16.941
					c-23.603,0-47.203,0-70.806,0c2.479,3.891,4.601,7.937,6.442,12.165c-1.378-3.265-2.756-6.529-4.133-9.794
					c4.048,9.708,6.427,19.898,7.886,30.293c-0.488-3.633-0.976-7.267-1.464-10.899c4.613,35.098-1.373,70.407,1.671,105.542
					c0.023,7.401,1.889,14.299,5.598,20.693c5.369,9.165,14.255,16.023,24.504,18.842c18.135,4.988,36.517-3.2,46.302-18.842
					C825.416,188,834.022,151.88,840,116.029c5.594-33.548,9.614-67.853,22.826-99.49c-1.378,3.265-2.756,6.529-4.133,9.794
					c1.614-3.773,3.345-7.484,5.209-11.141c-24.979-3.265-49.959-6.529-74.938-9.794c3.3,12.901,5.711,25.98,7.514,39.171
					c-0.487-3.633-0.976-7.266-1.464-10.899c5.647,42.719,4.931,85.856,6.486,128.829c0.663,18.319,12.03,34.565,30.101,39.536
					c10.582,2.911,22.125,1.414,31.594-4.133c8.271-4.845,17.336-14.583,18.842-24.503c5.59-36.804,15.206-73.1,29.531-107.488
					c-1.377,3.265-2.756,6.529-4.133,9.794c2.061-4.881,4.213-9.718,6.469-14.512c-24.979-3.265-49.959-6.529-74.938-9.794
					c4.576,15.653,7.619,31.66,9.799,47.811c-0.487-3.633-0.977-7.266-1.465-10.899c5.479,41.859,5.246,84.136,8.201,126.189
					c0.783,11.153,3.917,20.899,12.009,28.991c7.654,7.654,18.161,12.009,28.991,12.009c22.375,0,40.967-18.65,41-41
					c0.021-13.273,0.475-26.538,2.149-39.716c-0.488,3.633-0.978,7.266-1.466,10.899c1.555-11.417,4.041-22.646,8.481-33.31
					c-1.378,3.265-2.756,6.529-4.133,9.794c1.037-2.372,2.151-4.689,3.369-6.974c-23.603,0-47.203,0-70.806,0
					c0.177,0.402,0.354,0.805,0.53,1.207c-1.378-3.265-2.755-6.529-4.133-9.794c3.591,8.575,5.695,17.573,6.982,26.761
					c-0.487-3.633-0.977-7.267-1.465-10.899c5.203,40.039-3.6,80.093-5.514,120.032c27.333,0,54.667,0,82,0
					c-1.193-18.971-0.148-37.998,2.306-56.831c-0.487,3.633-0.977,7.266-1.465,10.899c1.792-13.204,4.301-26.282,7.694-39.169
					c-24.979,3.265-49.958,6.529-74.938,9.794c1.302,2.364,2.48,4.771,3.567,7.24c-1.377-3.265-2.755-6.529-4.133-9.794
					c4.319,10.258,6.75,21.093,8.267,32.092c-0.487-3.633-0.977-7.267-1.465-10.899c3.466,26.778,1.667,53.818,0.166,80.668
					c-1.248,22.334,19.595,41,41,41c10.83,0,21.337-4.354,28.991-12.009c8.191-8.192,11.037-17.773,12.009-28.991
					c0.372-4.29,0.845-8.564,1.417-12.832c-0.488,3.633-0.977,7.266-1.465,10.899c2.377-16.845,6.356-33.447,12.855-49.198
					c-1.378,3.265-2.756,6.529-4.133,9.794c1.737-4.078,3.631-8.064,5.727-11.97c-24.979-3.265-49.959-6.529-74.938-9.794
					c1.716,4.2,2.811,8.549,3.481,13.032c-0.488-3.633-0.978-7.266-1.466-10.899c1.006,7.524,0.803,15.08-0.162,22.597
					c0.488-3.633,0.978-7.266,1.465-10.899c-1.48,10.625-4.444,20.93-8.569,30.825c1.378-3.265,2.756-6.529,4.133-9.794
					c-3.962,9.259-8.901,18.02-14.979,26.058c2.138-2.767,4.273-5.532,6.41-8.298c-4.672,6.034-9.913,11.53-15.945,16.219
					c2.767-2.137,5.532-4.274,8.298-6.411c-4.015,3.021-8.264,5.604-12.86,7.645c3.266-1.378,6.529-2.755,9.795-4.133
					c-4.609,1.938-9.271,3.072-14.203,3.811c3.634-0.488,7.267-0.977,10.899-1.464c-4.508,0.577-8.974,0.68-13.483,0.09
					c3.633,0.487,7.267,0.976,10.898,1.464c-3.273-0.514-6.407-1.366-9.477-2.615c3.265,1.377,6.528,2.755,9.794,4.133
					c-3.188-1.391-6.121-3.135-8.903-5.216c2.766,2.137,5.532,4.274,8.298,6.411c-4.338-3.385-8.033-7.392-11.399-11.73
					c2.138,2.767,4.273,5.532,6.41,8.299c-7.357-9.698-13.007-20.528-19.354-30.882c-9.89-16.127-21.356-29.65-36.849-40.54
					c-8.641-6.073-21.738-6.844-31.594-4.133c-10.898,2.998-18.229,9.804-24.503,18.842c-5.502,7.927-8.77,17.95-12.352,26.7
					c-3.545,8.66-6.824,17.426-10.456,26.051c1.377-3.265,2.755-6.528,4.133-9.794c-3.564,8.382-7.305,16.948-12.808,24.27
					c2.137-2.767,4.273-5.532,6.411-8.298c-1.416,1.802-2.927,3.469-4.737,4.879c2.766-2.138,5.532-4.274,8.298-6.411
					c-0.858,0.61-1.725,1.124-2.691,1.542c3.266-1.378,6.529-2.755,9.795-4.133c-0.949,0.342-1.898,0.524-2.895,0.684
					c3.633-0.488,7.268-0.977,10.898-1.465c-1.434,0.16-2.818,0.188-4.257,0.062c3.634,0.488,7.267,0.978,10.899,1.466
					c-1.62-0.226-3.125-0.632-4.639-1.248c3.265,1.377,6.528,2.755,9.794,4.133c-1.489-0.69-2.839-1.521-4.146-2.511
					c2.767,2.137,5.532,4.273,8.298,6.41c-1.807-1.479-3.362-3.144-4.8-4.982c2.138,2.766,4.274,5.532,6.411,8.298
					c-2.521-3.407-4.472-7.119-6.141-11.005c1.377,3.265,2.755,6.529,4.133,9.794c-3.77-9.129-5.977-18.829-7.293-28.596
					c0.488,3.633,0.976,7.266,1.464,10.899c-0.511-3.998-0.894-8.016-0.917-12.049c-26.845,3.633-53.69,7.266-80.536,10.899
					c5.214,17.045,9.61,34.307,12.067,51.98c-0.488-3.633-0.978-7.266-1.465-10.898c1.218,9.305,1.888,18.634,1.934,28.019
					c25.467-6.897,50.935-13.796,76.402-20.693c-4.675-6.173-8.213-12.917-11.233-20.026c1.378,3.265,2.755,6.529,4.133,9.794
					c-6.608-16.015-11.397-33.137-20.899-47.767c-5.911-9.101-13.862-15.915-24.504-18.842
					c-13.352-3.672-30.475-0.267-39.891,10.544c-10.629,12.204-19.035,25.236-25.411,40.047
					c-6.507,15.114-11.94,30.444-17.133,46.044c26.356,0,52.714,0,79.071,0c-0.337-1.938-0.646-3.875-0.924-5.821
					c0.487,3.633,0.977,7.267,1.464,10.898c-2.509-19.342-1.13-38.751-1.076-58.178c-26.845,3.633-53.69,7.266-80.536,10.899
					c2,8,4,16,6,24c4.409,17.637,21.629,30.101,39.536,30.101c22.158,0,41.253-18.647,41-41
					c-0.245-21.603-6.218-42.166-11.464-62.899c-4.461-17.631-21.59-30.101-39.536-30.101c-17.224,0-36.022,12.391-39.536,30.101
					c-4.808,24.236-4.198,48.006,1.883,72.006c5.284,20.854,15.001,41.208,26.904,59.087c12.236,18.38,26.839,35.479,43.615,49.863
					c16.45,14.104,34.426,26.842,54.439,35.346c3.266,1.378,6.529,2.756,9.794,4.133c7.267,1.953,14.533,1.953,21.799,0
					c10.248-2.818,19.134-9.677,24.503-18.842c11.295-19.281,4.553-44.833-14.709-56.097c-3.159-1.848-6.181-3.857-9.103-6.063
					c2.766,2.137,5.532,4.273,8.298,6.411c-6.219-4.883-11.634-10.515-16.514-16.725c2.137,2.767,4.273,5.532,6.411,8.298
					c-10.858-14.171-18.566-30.354-28.384-45.211c-10.207-15.448-27.826-23.924-46.302-18.842
					c-18.475,5.082-28.876,21.163-30.101,39.536c-1.503,22.561,10.848,43.907,25.777,59.742
					c12.892,13.672,31.793,25.787,50.322,29.793c21.824,4.72,44.266-6.208,50.436-28.636c5.674-20.625-6.787-45.71-28.637-50.436
					c-3.089-0.667-6.035-1.657-8.949-2.875c3.265,1.378,6.528,2.755,9.794,4.133c-5.337-2.368-10.267-5.385-14.921-8.902
					c2.766,2.137,5.531,4.273,8.298,6.411c-4.786-3.755-9.108-7.941-12.899-12.702c2.137,2.766,4.274,5.532,6.411,8.298
					c-2.688-3.535-4.979-7.243-6.756-11.319c1.377,3.266,2.755,6.529,4.133,9.794c-1.075-2.697-1.862-5.405-2.318-8.276
					c0.488,3.633,0.978,7.267,1.466,10.898c-0.231-1.99-0.288-3.925-0.155-5.925c-25.467,6.898-50.936,13.796-76.402,20.693
					c8.229,12.452,14.972,25.811,23.306,38.196c12.089,17.967,26.563,33.496,45.403,44.513
					c13.795-23.603,27.591-47.203,41.388-70.806c-14.071-5.979-27.116-13.963-39.209-23.291c2.767,2.138,5.532,4.274,8.299,6.411
					c-13.484-10.563-25.599-22.693-36.159-36.18c2.137,2.766,4.273,5.532,6.411,8.298c-9.467-12.276-17.532-25.517-23.69-39.756
					c1.377,3.265,2.755,6.529,4.133,9.794c-4.857-11.527-8.366-23.501-10.049-35.909c0.488,3.633,0.978,7.267,1.464,10.899
					c-1.148-9.313-1.229-18.633-0.061-27.948c-0.488,3.633-0.977,7.267-1.464,10.899c0.323-2.319,0.712-4.62,1.168-6.917
					c-26.357,0-52.714,0-79.071,0c3.277,12.949,7.159,25.739,9.064,38.993c-0.488-3.633-0.978-7.266-1.465-10.898
					c0.554,4.329,0.888,8.642,0.937,13.006c26.845-3.633,53.69-7.266,80.536-10.899c-2-8-4-16-6-24
					c-4.409-17.637-21.629-30.101-39.536-30.101c-22.397,0-40.938,18.651-41,41c-0.029,10.419-0.473,20.831-0.5,31.25
					c-0.039,14.667,1.451,29.196,3.964,43.649c3.083,17.73,22.641,30.101,39.536,30.101c18.973,0,33.729-12.657,39.536-30.101
					c4.055-12.186,8.016-24.405,13-36.25c-1.378,3.265-2.755,6.528-4.133,9.794c4.078-9.476,8.823-18.591,15.002-26.879
					c-2.138,2.766-4.274,5.531-6.411,8.298c1.288-1.664,2.616-3.283,3.998-4.871c-21.464-2.767-42.929-5.532-64.395-8.298
					c3.211,4.942,5.795,10.168,8.089,15.591c-1.378-3.266-2.755-6.529-4.133-9.794c7.252,17.648,12.383,36.803,24.044,52.203
					c3.646,6.161,8.548,11.063,14.709,14.709c9.47,5.547,21.011,7.044,31.593,4.133c17.523-4.82,30.189-21.314,30.102-39.536
					c-0.15-30.865-6.467-61.488-15.464-90.899c-5.359-17.516-20.904-30.101-39.536-30.101c-22.252,0-41.129,18.649-41,41
					c0.089,15.507,2.807,31.979,7.822,46.697c4.681,13.738,10.308,23.404,19.094,34.657c6.85,8.771,20.036,17.035,31.122,18.574
					c10.438,1.45,17.888,2.47,28.407-0.55c9.396-2.697,15.021-6.922,22.391-13.146c7.05-5.953,12.395-14.882,16.662-23.071
					c8.892-17.067,14.954-35.5,22.417-53.204c-1.378,3.265-2.756,6.529-4.133,9.794c1.905-4.47,3.838-9.048,6.621-13.058
					c-18.698,4.903-37.397,9.806-56.097,14.709c0.797,0.56,1.576,1.132,2.35,1.723c-2.767-2.137-5.532-4.274-8.299-6.411
					c4.419,3.52,8.209,7.642,11.662,12.101c-2.138-2.766-4.274-5.531-6.412-8.298c5.271,6.954,9.677,14.483,14.082,22
					c6.028,10.29,12.489,19.744,19.815,29.188c16.064,20.706,42.277,33.509,68.646,31.867c28.425-1.771,54.156-14.683,72.677-36.411
					c17.021-19.971,29.606-43.818,35.407-69.508c4.733-20.968,6.636-46.156-1.698-66.551c-1.947-6.946-5.463-12.976-10.544-18.092
					c-5.115-5.082-11.146-8.596-18.092-10.544c-17.228-4.738-37.661,2.733-46.303,18.842
					c-15.789,29.435-22.734,61.665-25.598,94.693c27.333,0,54.667,0,82,0c2.624-46.949,5.877-98.022-17.598-140.693
					c-6.91-12.56-21.25-20.307-35.402-20.307c-18.082,0-34.896,12.489-39.535,30.101c-9.062,34.409-13.702,71.314-11.465,106.899
					c1.402,22.296,17.589,41,41,41c23.159,0,39.931-18.685,41-41c1.234-25.769,5.178-51.327,6.587-77.089
					c0.703-12.85,0.746-25.758-0.548-38.572c-0.942-9.327-2.174-18.736-4.33-27.877c-2.063-8.747-5.702-16.953-9.307-25.155
					C940.285,101.024,923.65,93.5,910.5,93.5c-13.997,0-28.694,7.705-35.402,20.307c-16.452,30.907-19.546,66.238-19.598,100.693
					c27.333,0,54.667,0,82,0c-4.329-61.619-1.957-125.023-19.465-184.899c-4.029-13.783-14.686-24.798-28.636-28.636
					c-16.515-4.542-38.574,2.417-46.303,18.842c-19.681,41.832-33.191,86.094-40.133,131.794
					c26.845,3.633,53.69,7.266,80.535,10.899c-2.165-59.795-0.513-120.445-15.465-178.899c-3.521-13.77-15.05-24.899-28.637-28.636
					c-16.941-4.66-38.022,2.602-46.302,18.842C777.254,4.885,770,38.006,764.484,72.155c-5.104,31.592-9.523,63.716-22.032,93.424
					c1.378-3.265,2.755-6.529,4.133-9.794c-3.292,7.626-7.083,14.978-11.489,22.021c25.468,6.897,50.936,13.795,76.402,20.693
					c-2.218-25.598,0.526-51.386,0.231-77.028c-0.358-31.316-4.661-64.704-21.83-91.665C782.055,17.483,769.38,9.5,754.5,9.5
					c-14.327,0-28.269,7.797-35.402,20.307c-20.01,35.087-27.538,74.583-32.563,114.129c-4.318,33.988-5.026,68.342-5.035,102.564
					c-0.006,22.35,18.654,41,41,41c10.831,0,21.337-4.354,28.991-12.009c8.243-8.243,10.939-17.742,12.009-28.991
					c6.562-69.004,21.94-138.108,4.536-206.899c-3.484-13.769-15.079-24.907-28.636-28.636c-17.395-4.784-37.45,2.813-46.302,18.842
					c-12.389,22.431-22.593,46.037-32.134,69.794c26.845,3.633,53.69,7.266,80.536,10.899c0.039-6.726,0.627-13.408,1.5-20.074
					c-0.488,3.633-0.977,7.267-1.465,10.899c3.451-25.132,10.367-49.632,14.658-74.617c4.97-28.942,8.563-60.906-2.157-89.108
					c-5.222-13.738-13.843-24.567-28.636-28.636c-18.696-5.143-35.82,3.525-46.303,18.842c-12.152,17.76-20.65,38.31-27.632,58.554
					C644.445,6.722,639.652,28.928,639.5,50.5c-0.128,18.215,12.606,34.723,30.101,39.536c16.797,4.62,38.209-2.538,46.303-18.842
					c7.941-16.001,15.122-32.625,20.133-49.794c5.143-17.622-3.172-37.123-18.842-46.302c-20.102-11.775-43.777-3.882-56.097,14.709
					c-14.063,21.223-25.156,44.853-33.114,69.004c-4.597,13.944-7.086,28.532-8.227,43.153c-1.013,12.989,0.396,27.296,5.208,39.436
					c1.948,6.946,5.463,12.976,10.544,18.092c5.116,5.082,11.146,8.596,18.092,10.544c14.04,3.862,29.637-0.158,39.892-10.544
					c13.677-13.853,25.226-30.296,34.661-47.298c9.451-17.032,17.66-35.714,21.883-54.794c-26.845-3.633-53.69-7.266-80.536-10.899
					c0.08,22.393,2.7,45.032,7.464,66.899c6.483,29.757,48.195,40.111,68.527,18.092c16.144-17.483,27.036-37.819,36.74-59.305
					c8.672-19.198,16.807-38.969,29.644-55.856c-2.138,2.766-4.274,5.532-6.411,8.298c3.085-3.955,6.396-7.675,10.027-11.137
					C792.649,7.462,769.806,1.431,746.964-4.6c13.462,48.893,18.677,101.841,52.544,142.092
					c11.278,13.404,35.369,15.855,49.686,6.411c11.751-7.752,19.432-16.192,27.478-27.664c6.219-8.867,10.18-19.206,14.332-29.114
					c5.896-14.061,9.975-28.791,15.792-42.875c-1.378,3.265-2.756,6.529-4.134,9.794c0.404-0.955,0.816-1.904,1.241-2.851
					c-24.979-3.265-49.959-6.529-74.938-9.794c10.503,26.866,20.813,53.827,32.883,80.044c12.287,26.69,27.396,51.041,45.661,74.048
					c8.8,11.083,27.037,14.08,39.892,10.544c16.359-4.5,31.763-21.611,30.101-39.536c-2.249-24.247-8.389-47.172-15.608-70.323
					c-6.633-21.27-13.711-42.584-16.891-64.71c0.488,3.633,0.977,7.267,1.465,10.899c-1.152-8.593-1.648-17.211-0.966-25.866
					c-25.468,6.898-50.935,13.796-76.401,20.693c1.043,2.357,2.065,4.723,3.071,7.097c-1.378-3.265-2.755-6.529-4.133-9.794
					c12.702,30.231,23.232,62.077,27.815,94.633c-0.488-3.633-0.978-7.267-1.465-10.899c1.431,10.697,2.168,21.504,1.111,32.271
					c26.845-3.633,53.69-7.266,80.535-10.899c-7.725-32.725-16.73-65.248-21.319-98.616c0.488,3.633,0.978,7.267,1.466,10.899
					c-0.237-1.793-0.465-3.588-0.682-5.384c-26.845,3.633-53.689,7.266-80.535,10.899c4.545,14.744,9.162,29.486,11.265,44.817
					c-0.488-3.633-0.978-7.267-1.466-10.899c1.024,8.36,1.229,16.676,0.173,25.044c0.487-3.633,0.976-7.267,1.464-10.899
					c-0.729,4.836-1.854,9.51-3.436,14.139c26.846,3.633,53.69,7.266,80.535,10.899c-2.521-21.092-5.656-42.063-10.965-62.649
					c-5.34-20.709-13.154-40.89-22.633-60.044c-8.071-16.312-29.521-23.458-46.303-18.842c-10.248,2.819-19.134,9.677-24.502,18.842
					c-6.082,10.382-5.832,20.164-4.134,31.593c6.417,43.169,30.888,81.272,37.104,124.508c-0.488-3.633-0.978-7.267-1.465-10.899
					c1.309,9.899,1.556,19.8,0.341,29.722c0.487-3.633,0.977-7.266,1.465-10.899c-0.745,5.356-1.888,10.591-3.445,15.77
					c26.356,0,52.714,0,79.07,0c-0.068-0.479-0.134-0.958-0.198-1.438c0.488,3.633,0.978,7.267,1.465,10.899
					c-3.259-24.769-4.738-49.769-10.002-74.252c-6.733-31.331-22.676-64.305-55.899-73.845
					c-14.021-4.026-29.641,0.293-39.892,10.544c-10.694,10.694-13.828,25.437-10.544,39.891
					c3.097,13.63,10.074,26.278,18.009,37.658c6.906,9.905,14.096,19.543,18.828,30.738c-1.378-3.265-2.756-6.529-4.133-9.794
					c2.26,5.611,3.835,11.358,4.725,17.344c-0.488-3.633-0.978-7.266-1.466-10.899c0.905,7.136,0.834,14.288-0.096,21.417
					c0.488-3.633,0.978-7.266,1.465-10.899c-0.948,6.333-2.623,12.421-5.038,18.351c1.378-3.265,2.755-6.529,4.133-9.794
					c-4.444,10.419-10.901,19.64-17.789,28.571c2.137-2.766,4.273-5.532,6.41-8.298c-10.651,13.725-22.006,27.047-30.914,42.013
					c24.979,10.531,49.959,21.062,74.938,31.593c0.179-0.426,0.357-0.852,0.536-1.277c-1.378,3.265-2.755,6.529-4.133,9.794
					c22.963-54.005,58.589-110.055,40.044-171.135c-9.579-31.551-32.081-56.49-61.54-70.828
					c-26.164-12.735-54.354-19.325-83.408-20.558c-30.705-1.302-61.047,6.92-87.548,22.269
					c-24.868,14.403-46.547,35.107-64.983,56.989c-12.308,14.609-20.926,29.048-27.617,46.914
					c-4.78,12.765-6.415,27.076-6.625,40.621c-0.397,25.742,6.462,51.401,10.82,76.624c0.78,4.512,1.474,9.039,2.099,13.575
					c-0.487-3.633-0.977-7.267-1.465-10.899c0.487,3.665,0.917,7.333,1.285,11.012c1.124,11.266,3.738,20.72,12.009,28.991
					c7.654,7.654,18.161,12.009,28.991,12.009s21.337-4.354,28.991-12.009C716.521,302.462,722.525,290.775,721.5,280.5L721.5,280.5
					z"/>
			</g>
		</g>
	</g>
	<g id="Layer_1_1_">
		<path fill="none" stroke="#000000" stroke-miterlimit="10" d="M604.542,136.425c5.033,93.184-75.501,171.525-26.975,267.29
			c20.65,40.784,57.046,71.371,89.183,105.187c30.975,32.523,48.657,71.113,73.565,107.51 M998.572,127.391
			c17.938,43.365,63.628,72.663,77.051,122.223c14.842,54.852-7.1,96.151-31.621,141.583
			c-39.493,73.049-71.242,154.617-108.93,229.86 M545.69,756.832c66.854,0,105.572,0.516,158.359,41.944
			c47.237,37.042,93.185,60.015,154.103,62.339c80.404,3.097,96.926-33.816,139.388-83.118
			c32.266-37.429,124.157-50.204,155.004,1.421 M604.542,507.74c-43.365-47.625-148.81-41.816-200.564-13.939
			c-61.692,33.17-90.085,81.439-93.7,155.264c-2.065,40.654-24.651,183.14,8.906,198.498c18.585,8.52,80.535-10.842,98.733-10.454
			c29.298,0.646,62.596,16.649,65.177-34.33c15.229-2.71,22.974,4.646,30.976,17.553"/>
		<g opacity="0.1">
			<path d="M996.637,566.851c32.652-11.357,62.725-29.038,96.151-38.461c16.004-4.646,33.04-6.841,49.688-4.13
				c15.488,2.452,29.299,9.164,42.334,17.683c26.199,17.165,48.271,40.913,68.146,64.919c18.973,22.973,37.17,48.397,49.303,75.76
				c4.775,10.841,7.485,23.618,5.679,35.492c-1.808,11.485-7.099,21.683-13.423,31.361c-7.098,10.972-15.486,21.037-23.359,31.233
				c-8.905,11.615-16.392,24.005-24.78,35.88c-12.26,17.553-29.039,30.717-51.109,30.071c-24.393-0.774-48.397-14.713-69.436-25.685
				c-11.1-5.808-20.778,10.842-9.809,16.778c24.521,12.906,50.979,26.845,79.243,28.396c25.942,1.419,47.496-13.424,62.984-33.17
				c9.809-12.648,17.68-26.718,27.36-39.493c8.519-11.358,17.683-22.327,25.554-34.202c16.393-24.651,20.909-52.142,10.326-80.148
				c-10.713-28.521-30.201-54.465-48.787-78.211c-19.875-25.427-42.461-49.045-68.273-68.662
				c-26.327-19.876-56.916-31.104-90.215-27.62c-35.104,3.614-66.983,20.264-98.862,34.202c-7.871,3.484-15.875,6.582-23.877,9.422
				C979.729,552.266,984.763,570.98,996.637,566.851L996.637,566.851z"/>
		</g>
		<g opacity="0.1">
			<path d="M1044.519,100.545c15.616,26.2,31.104,53.045,39.752,82.6c6.97,24.264,7.229,49.302,3.227,74.083
				c-5.808,35.88-17.682,70.856-27.619,105.703c-11.357,39.88-22.973,79.632-35.234,119.253
				c-8.518,27.362-17.293,54.725-26.328,81.956c-4.001,11.873,14.714,16.906,18.714,5.162
				c26.459-79.374,50.077-159.521,72.403-240.058c8.648-30.976,17.813-61.563,19.877-93.829
				c1.549-25.813-3.098-51.238-12.391-75.244c-9.293-24.264-22.328-46.979-35.621-69.307
				C1054.844,80.024,1038.065,89.833,1044.519,100.545L1044.519,100.545z"/>
		</g>
		<g opacity="0.1">
			<path d="M958.435,145.847c18.584,29.297,32.522,60.918,38.073,95.249c4.388,27.749,1.806,56.271-4.389,83.503
				c-13.164,57.563-40.913,110.607-57.563,167.008c-6.323,21.554-10.842,43.494-13.552,65.821c-0.646,5.292,4.904,9.68,9.681,9.68
				c5.809,0,9.033-4.388,9.681-9.68c7.354-60.918,33.168-116.673,53.946-173.718c9.81-26.975,18.068-54.594,21.813-83.118
				c3.871-29.555,1.937-59.498-5.809-88.279c-7.355-27.103-20.005-52.658-34.977-76.276
				C968.5,125.584,951.723,135.263,958.435,145.847L958.435,145.847z"/>
		</g>
		<g opacity="0.1">
			<path d="M967.597,254.518c16.004,28.265,26.717,59.111,30.717,91.376c3.873,31.233,1.68,62.854-4.129,93.571
				c-11.874,62.982-37.944,122.352-62.726,181.076c-2.064,4.904-1.549,10.324,3.485,13.293c4.129,2.452,11.228,1.42,13.291-3.484
				c25.814-61.047,52.918-122.479,65.179-187.916c6.065-32.523,8.131-65.821,4.13-98.732c-4.388-34.978-15.745-68.275-33.04-98.863
				C978.051,233.868,961.402,243.547,967.597,254.518L967.597,254.518z"/>
		</g>
		<g opacity="0.1">
			<path d="M568.018,129.327c-14.067,59.756-25.941,121.19-23.877,182.882c1.937,54.464,17.166,107.251,47.108,153.068
				c20.263,30.847,46.076,57.563,74.211,81.052c9.551,8.003,23.231-5.679,13.68-13.681c-44.655-37.3-82.6-82.729-101.442-138.484
				c-17.683-52.399-16.907-108.542-9.938-162.749c4.259-32.652,11.101-64.918,18.714-96.797
				C589.571,122.228,570.986,117.195,568.018,129.327L568.018,129.327z"/>
		</g>
		<g opacity="0.1">
			<path d="M567.759,190.76c-5.034,64.661,9.551,130.612,29.427,191.788c20.263,62.466,47.883,123.644,84.149,178.495
				c0.258,0.516,0.645,0.903,0.904,1.42c6.84,10.324,23.619,0.646,16.777-9.809c-35.492-53.435-62.338-112.544-82.472-173.333
				c-19.876-60.145-34.331-124.934-29.426-188.563C588.022,178.241,568.663,178.371,567.759,190.76L567.759,190.76z"/>
		</g>
		<g opacity="0.1">
			<path d="M513.423,421.654c0,9.033,0,18.068,0,27.231c4.13-3.097,8.132-6.193,12.262-9.292c2.711,0.517,3.872,4.518,3.098,1.419
				c-0.258-1.032-0.258-1.937-0.388-2.969c-0.258-2.323-0.258-4.775-0.258-7.227c0-4.775-4.388-10.325-9.68-9.68
				c-3.742,0.517-6.582,1.419-9.55,3.613c-2.323,1.807-5.292,5.163-8.519,5.421c3.098,4.13,6.195,8.131,9.292,12.261
				c0.774-3.742,1.549-7.614,2.452-11.356c0.388-1.548,0.774-3.098,1.29-4.519c0.518-1.419-0.129-0.129,1.033-1.935
				c0.646-0.904,0.646-0.904,0-0.129c0.388-0.388,0.773-0.903,1.292-1.291c0.774-0.774,0.387-0.258,2.063-1.419
				c3.228-1.938,6.712-3.614,10.067-5.292c-4.774-3.613-9.422-7.228-14.197-10.971c-0.903,5.421-1.549,10.712-1.937,16.133
				c-0.128,1.937-0.257,3.872-0.387,5.808c0.258-2.194-0.389,1.808-0.646,2.581c0.903-2.968-1.807,2.064,0-0.129
				c-1.678,1.936-0.903,1.162-2.969,2.452c-5.163,3.354-11.099,5.678-16.778,8.13c-10.066,4.389-2.711,21.812,7.485,17.683
				c15.875-6.453,34.073-2.323,48.916,5.162c15.487,7.744,31.621,21.684,33.942,39.881c4.904-2.84,9.681-5.55,14.584-8.39
				c-22.585-14.326-42.849-35.492-57.433-57.949c-6.841-10.584-13.165-23.36-13.551-35.493
				c-0.388-11.356,5.937-19.746,16.648-25.683c-4.389-1.161-8.776-2.323-13.294-3.485c27.491,46.076,40.913,105.058,89.57,134.742
				c6.97,4.26,17.037-2.84,14.197-10.97c-6.582-19.23-17.165-37.429-34.977-48.141c-15.615-9.423-34.331-10.325-51.883-7.485
				c-41.688,6.711-79.89,34.847-111.124,61.69c-16.262,14.068-31.62,29.427-45.43,45.946c-10.97,13.036-21.683,26.976-29.297,42.462
				c-4.388,9.035-7.098,18.715-10.325,28.267c-4.646,14.196-9.164,28.393-13.165,42.848c-7.615,27.75-14.584,57.563-10.583,86.473
				c2.452,18.197,13.293,34.591,24.651,48.527c13.423,16.391,30.33,30.072,48.657,40.655c17.166,9.938,36.912,17.166,57.045,17.166
				c19.875,0,36.783-9.293,48.785-24.78c3.228-4.131,0.646-10.842-3.484-13.294c-5.033-2.968-10.067-0.646-13.293,3.485
				c-13.422,17.553-36.009,17.293-55.368,11.356c-24.006-7.356-45.559-23.359-62.596-41.559
				c-15.617-16.649-26.329-35.751-26.2-58.982c0.129-29.555,9.292-59.109,17.94-87.117c4.001-12.776,8.26-25.555,12.519-38.332
				c0.258-0.646,0.516-1.291,0.774-1.936c0.903-2.322-0.903,1.936,0.129-0.388c0.646-1.419,1.291-2.839,1.936-4.26
				c1.678-3.354,3.614-6.581,5.549-9.809c9.68-15.875,21.167-29.298,33.944-42.979c29.426-31.489,64.273-60.4,103.896-77.952
				c9.164-4.132,19.875-7.357,30.201-9.164c7.615-1.291,17.811-1.161,25.426,0.774c8.261,2.064,15.101,6.193,21.295,12.391
				c7.486,7.613,12.778,18.197,16.392,28.908c4.775-3.612,9.422-7.227,14.196-10.971c-21.554-13.164-35.233-34.33-46.721-56.271
				c-12.39-23.619-22.069-48.657-35.75-71.63c-2.71-4.647-8.646-6.066-13.293-3.485c-69.565,38.59,14.197,127.127,54.335,152.553
				c5.679,3.613,15.487-1.033,14.584-8.39c-3.098-24.522-19.747-43.365-40.785-55.11c-19.229-10.841-45.43-17.165-66.596-8.518
				c2.452,5.937,5.033,11.745,7.485,17.682c9.551-4.131,21.94-8.519,27.104-18.457c4.388-8.389,3.097-18.972,4.518-28.136
				c1.291-8.389-6.195-14.971-14.197-10.97c-7.228,3.613-14.454,6.97-19.358,13.552c-5.034,6.711-6.195,16.004-7.744,23.876
				c-1.162,5.808,2.71,12.647,9.292,12.261c4.646-0.258,8.52-1.419,12.648-3.613c1.936-1.161,3.742-2.71,5.549-4.13
				c1.419-1.162,3.614-1.678,0-1.291c-3.227-3.227-6.453-6.453-9.679-9.68c0,9.034,0,25.296,11.616,27.491
				c6.064,1.161,12.261-2.581,12.261-9.293c0-9.034,0-18.068,0-27.232C532.783,409.265,513.423,409.265,513.423,421.654
				L513.423,421.654z"/>
		</g>
		<g opacity="0.1">
			<path d="M713.601,802.777c-41.3-17.812-82.083-39.105-126.868-46.722c-22.328-3.872-45.688-3.872-66.854,5.163
				c-22.845,9.81-37.558,29.557-46.979,51.883c-2.065,4.904,2.193,10.584,6.711,11.874c5.549,1.55,9.938-1.936,11.874-6.711
				c37.299-89.184,152.938-24.264,212.179,1.291c4.904,2.064,10.326,1.55,13.293-3.484
				C719.538,811.941,718.505,804.843,713.601,802.777L713.601,802.777z"/>
		</g>
		<g opacity="0.1">
			<path d="M532.783,131.521c-14.068,29.814-24.135,61.176-26.329,94.216c-1.807,26.716,2.71,53.82,12.39,78.729
				c20.264,52.143,60.272,93.7,99.379,132.29c24.78,24.395,50.334,48.271,74.47,73.438c8.646,9.034,22.328-4.646,13.681-13.682
				c-41.301-42.978-87.118-81.696-125.321-127.385c-33.813-40.396-58.078-87.634-55.497-141.453
				c1.419-29.943,11.229-59.24,23.876-86.085C554.854,130.101,538.075,120.163,532.783,131.521L532.783,131.521z"/>
		</g>
		<g opacity="0.1">
			<path d="M509.165,338.28c18.198,45.688,32.266,92.926,45.301,140.421c5.938-2.453,11.745-5.034,17.683-7.486
				c-30.459-61.176-48.271-130.354-39.494-198.887c1.292-10.454-13.164-11.874-18.068-4.904
				c-21.167,30.846-27.361,66.598-34.847,102.348c-3.485,17.036-8.777,33.041-14.585,49.431c-1.936,5.292-3.872,10.454-6.324,15.487
				c-1.033,2.064-2.065,4.001-3.226,5.937c-0.518,0.903-1.033,1.678-1.679,2.582c-0.129,0.258-2.323,3.226-1.291,1.807
				c-5.292,6.712-9.551,9.163-16.648,13.811c-10.841,7.1-21.424,14.584-31.621,22.586c-21.166,16.648-37.299,36.524-49.173,60.789
				c-27.619,56.271-34.976,133.192,0.775,187.658c6.84,10.323,23.618,0.645,16.778-9.81
				c-29.813-45.302-25.167-106.605-6.453-155.264c9.164-24.006,23.619-46.463,43.236-63.111c9.809-8.39,20.65-15.875,31.363-22.973
				c7.356-4.904,14.843-9.552,21.296-15.488c7.227-6.841,12.131-15.746,16.004-24.78c6.84-15.875,12.646-32.523,16.906-49.302
				c9.811-38.59,12.907-78.212,36.139-112.026c-6.066-1.678-12.003-3.227-18.068-4.904c-9.292,71.758,10.325,144.68,42.074,208.695
				c5.033,10.065,20.521,2.968,17.682-7.486c-12.907-47.495-27.104-94.604-45.301-140.42c-1.937-4.904-6.453-8.26-11.873-6.711
				C511.229,327.567,507.229,333.246,509.165,338.28L509.165,338.28z"/>
		</g>
		<g opacity="0.1">
			<path d="M409.787,457.275c-41.559-0.903-83.504,11.874-106.09,49.044c-20.392,33.814-19.875,76.534-13.938,114.093
				c4.904,30.975,14.842,60.917,27.619,89.438c11.616,25.685,26.071,50.595,44.914,71.761c8.26,9.422,21.941-4.39,13.68-13.681
				c-24.263-27.362-42.333-64.017-54.335-99.638c-12.519-37.042-20.65-79.245-13.681-117.061c4-21.94,12.648-40.396,29.426-54.724
				c18.843-15.874,46.979-20.392,72.533-19.876C422.305,476.894,422.305,457.534,409.787,457.275L409.787,457.275z"/>
		</g>
		<g opacity="0.1">
			<path d="M384.619,521.033c-35.622,8.26-54.078,48.012-64.919,79.244c-14.971,43.494-20.65,90.989-20.779,136.808
				c-0.129,23.876,1.548,48.011,6.324,71.501c3.485,17.682,9.163,36.009,20.779,50.205c3.356,4.131,10.196,3.484,13.681,0
				c4.001-4.001,3.355-9.551,0-13.681c-1.549-1.808,1.29,1.679-0.258-0.26c-0.387-0.645-0.904-1.159-1.291-1.807
				c-0.903-1.29-1.678-2.581-2.452-3.871c-0.774-1.42-1.549-2.84-2.323-4.389c-0.903-1.937-1.678-3.742-1.807-4.13
				c-3.098-7.743-5.292-15.875-7.098-24.006c-4.388-19.746-5.808-39.622-6.195-60.016c-0.903-45.43,4.388-91.764,18.069-135.129
				c5.42-17.294,12.39-33.813,22.973-48.914c7.744-10.971,18.069-20.006,30.33-22.845
				C401.913,536.908,396.751,518.193,384.619,521.033L384.619,521.033z"/>
		</g>
		<g opacity="0.1">
			<path d="M287.305,564.011c-19.359,48.014-19.23,100.024,1.162,147.648c20.004,46.592,59.111,83.504,102.863,107.896
				c10.97,6.064,20.65-10.713,9.809-16.778c-41.042-22.715-75.76-56.144-95.248-99.249c-19.36-42.85-17.295-91.248,0-134.354
				c1.936-4.904-2.065-10.583-6.711-11.875C293.629,555.751,289.241,559.106,287.305,564.011L287.305,564.011z"/>
		</g>
		<g opacity="0.1">
			<path d="M502.454,236.062c-0.259,2.194-0.518,4.388-0.775,6.453c0.518-3.485,0.903-6.84,1.42-10.325
				c-10.971,81.568-42.591,168.427-12.777,249.608c7.228,19.747,25.941,33.04,47.625,27.104
				c19.102-5.291,34.331-27.748,27.103-47.623c-4.258-11.487-7.098-23.36-8.775-35.493c0.516,3.484,0.902,6.841,1.419,10.326
				c-3.356-25.685-1.808-51.625,1.548-77.181c-0.517,3.485-0.902,6.841-1.419,10.325c6.065-44.656,16.908-88.408,22.199-133.064
				c1.161-9.551-4.775-20.909-11.357-27.361c-7.227-7.228-17.165-11.358-27.361-11.358c-10.195,0-20.134,4.13-27.36,11.358
				C505.81,216.573,503.744,225.35,502.454,236.062L502.454,236.062z"/>
		</g>
		<g opacity="0.1">
			<path d="M619.514,496.898c-56.659-25.427-122.738-39.364-182.495-15.229c-27.231,11.1-51.753,26.974-71.759,48.785
				c-21.295,23.489-17.036,51.755-28.91,81.052c14.526,34.172-37.558,60.273-39.494,92.022
				c-1.807,29.556,2.323,60.144,16.649,86.343c14.971,27.49,42.462,45.172,71.888,53.82c32.782,9.68,71.889,10.971,104.025-1.42
				c35.879-13.812,63.886-40.526,98.475-56.659c19.103-8.905,23.748-36.009,13.939-52.915c-5.034-8.648-13.423-15.103-23.103-17.813
				c-10.712-2.968-20.005-0.646-29.813,3.872c-16.133,7.614-31.104,17.166-45.688,27.232c-13.036,9.034-26.071,18.067-40.655,24.393
				c3.098-1.291,6.194-2.581,9.292-3.872c-8.905,3.743-18.198,6.195-27.748,7.614c3.484-0.516,6.84-0.902,10.325-1.419
				c-12.391,1.549-24.78,1.032-37.17-0.516c3.484,0.516,6.84,0.901,10.325,1.419c-11.745-1.679-23.103-4.26-34.073-8.906
				c3.098,1.292,6.195,2.582,9.293,3.873c-4.259-1.808-8.26-4-12.132-6.324c-2.968-1.807-10.196-7.486,1.549,1.549
				c-1.937-1.549-3.872-3.227-5.679-5.033c-1.548-1.42-2.839-2.969-4.259-4.518c-3.872-4.518,6.454,8.647,2.969,4.001
				c-0.774-1.032-1.419-2.064-2.065-3.097c-2.582-3.873-4.646-8.003-6.453-12.134c1.291,3.099,2.581,6.195,3.872,9.294
				c-3.227-8.003-5.292-16.263-6.453-24.78c0.516,3.484,0.903,6.841,1.419,10.324c-2.323-17.811-1.419-35.751,0.774-53.432
				c-0.516,3.483-0.903,6.839-1.42,10.324c3.872-23.361,9.938-46.463,19.102-68.274c-1.291,3.098-2.582,6.195-3.872,9.292
				c4.518-10.711,9.809-20.907,15.875-30.846c2.84-4.646,6.066-9.293,9.293-13.682c3.872-5.161-6.453,8.133-2.452,3.099
				c0.903-1.161,1.807-2.323,2.839-3.354c1.807-2.194,3.743-4.389,5.808-6.582c3.484-3.872,7.356-7.485,11.229-11.101
				c1.808-1.549,3.614-3.098,5.421-4.646c2.323-1.937,7.356-5.678-3.355,2.582c1.162-0.904,2.193-1.679,3.355-2.452
				c8.647-6.194,18.069-11.487,28.007-15.616c-3.098,1.291-6.195,2.581-9.292,3.871c12.39-5.162,25.297-8.519,38.461-10.324
				c-3.485,0.517-6.84,0.903-10.325,1.42c15.358-1.938,30.975-1.679,46.334,0.388c-3.485-0.518-6.84-0.903-10.325-1.42
				c21.296,2.969,41.946,9.293,61.821,17.553c-3.098-1.291-6.195-2.582-9.293-3.872c2.452,1.032,4.903,2.064,7.228,3.227
				c9.938,4.39,18.973,6.841,29.814,3.872c9.68-2.71,18.068-9.164,23.102-17.811C643.262,533.164,638.874,505.545,619.514,496.898
				L619.514,496.898z"/>
		</g>
		<g opacity="0.1">
			<path d="M544.271,767.543c28.651,14.456,54.207,33.428,80.793,51.367c26.716,18.07,55.884,33.17,87.634,39.752
				c18.585,3.872,37.557,4.775,56.271,6.195c16.261,1.291,32.524,2.45,48.785,3.227c35.492,1.678,71.244,1.032,106.22-5.809
				c13.938-2.709,26.847-7.615,39.751-13.422c19.23-8.647,23.618-36.269,13.939-52.916c-5.162-8.52-13.553-14.972-23.232-17.554
				c-10.841-2.968-19.875-0.516-29.813,3.871c-0.904,0.389-1.938,0.904-2.969,1.291c3.098-1.291,6.194-2.58,9.293-3.871
				c-13.423,5.55-27.748,8.646-42.074,10.583c3.483-0.517,6.84-0.902,10.324-1.421c-27.619,3.615-55.627,3.229-83.504,1.938
				c-26.846-1.291-54.206-2.711-80.923-6.066c3.485,0.518,6.842,0.903,10.325,1.42c-15.486-2.195-30.588-6.195-45.043-12.262
				c3.099,1.291,6.195,2.582,9.292,3.873c-21.424-9.164-40.654-22.328-59.756-35.623c-21.424-14.971-42.849-29.555-66.21-41.299
				c-18.843-9.552-41.815-5.163-52.915,13.938C520.264,731.922,525.427,758.121,544.271,767.543L544.271,767.543z"/>
		</g>
		<g opacity="0.1">
			<path d="M585.312,128.552c2.065,12.261,3.872,24.651,5.55,36.912c-0.517-3.485-0.903-6.841-1.419-10.325
				c17.037,126.74,22.845,266,113.316,366.023c7.356,8.26,15.487,15.875,23.877,22.973c16.133,13.683,38.978,15.875,54.723,0
				c13.938-13.938,16.133-41.171,0-54.723c-8.001-6.711-15.616-13.939-22.715-21.682c-3.743-4.002-7.228-8.132-10.584-12.263
				c-6.194-7.614,4.518,5.938,0.517,0.775c-1.808-2.324-3.485-4.776-5.292-7.229c-12.391-17.423-22.328-36.524-30.717-56.142
				c1.291,3.098,2.582,6.195,3.873,9.292c-21.941-52.141-31.75-108.283-39.235-163.91c0.516,3.485,0.903,6.84,1.419,10.325
				c-6.324-46.85-10.971-93.958-18.585-140.55c-3.484-20.908-28.91-32.137-47.624-27.104c-9.68,2.71-18.069,9.164-23.104,17.811
				C583.505,108.418,583.505,117.84,585.312,128.552L585.312,128.552z"/>
		</g>
		<g opacity="0.1">
			<path d="M676.817,113.581c-25.813,32.524-46.593,67.887-58.078,108.155c-10.455,36.654-10.971,74.082-5.809,111.51
				c9.68,70.082,49.562,134.097,96.41,185.465c11.101,12.26,23.104,23.746,35.364,34.588c15.746,13.938,39.106,15.616,54.723,0
				c14.197-14.197,15.875-40.784,0-54.723c-10.841-9.551-21.295-19.618-31.232-30.072c-4.647-4.904-9.293-10.065-13.681-15.229
				c-2.194-2.582-4.389-5.163-6.582-7.745c-1.291-1.549-2.582-3.098-3.872-4.775c-4.776-6.065,5.808,7.615,1.031,1.419
				c-17.165-22.457-31.878-46.979-42.978-73.05c1.29,3.098,2.581,6.196,3.872,9.293c-9.164-21.683-15.617-44.269-18.843-67.5
				c0.516,3.484,0.902,6.84,1.419,10.325c-2.452-19.488-2.582-39.106-0.13-58.594c-0.516,3.484-0.902,6.84-1.418,10.325
				c2.709-19.747,8-38.848,15.615-57.304c-1.29,3.098-2.581,6.195-3.872,9.293c4.39-10.454,9.55-20.65,15.229-30.459
				c2.969-5.163,6.195-10.196,9.551-15.101c1.678-2.581,3.485-5.033,5.292-7.486c0.904-1.291,1.808-2.452,2.839-3.743
				c5.034-6.84-5.549,7.099-0.257,0.387c6.711-8.389,11.356-16.133,11.356-27.361c0-10.196-4.129-20.134-11.356-27.361
				C717.989,99.9,689.981,96.932,676.817,113.581L676.817,113.581z"/>
		</g>
		<g opacity="0.1">
			<path d="M764.839,601.439c-9.163-21.166-29.426-37.3-48.141-49.562c-21.812-14.455-46.592-24.651-70.984-33.813
				c-40.525-15.358-83.117-26.846-125.836-33.943c-10.712-1.807-20.134-1.807-29.814,3.871c-8.646,5.033-15.1,13.423-17.81,23.104
				c-5.163,18.713,6.194,44.14,27.104,47.624c48.527,8.131,97.056,21.555,142.355,40.525c-3.098-1.291-6.195-2.581-9.292-3.872
				c16.907,7.099-5.937-6.582,9.292,3.872c-1.35,18.437,11.923,5.493,13.342,6.525c2.968,2.192,31.701,19.417,25.507,14.642
				c1.031,0.774-39.882-21.941-38.849-21.167c3.098,2.581,8.306-14.544,11.146-11.704c1.032,1.033,34.046,13.188,34.949,14.35
				c3.098,3.613,0,0,5.033,7.228c1.936,2.84,14.87,8.783,16.291,11.881c3.743,8.648,17.516,13.271,26.162,15.723
				c9.938,2.71,6.702,22.798,15.605,17.636c8.648-5.033,15.102-13.423,17.812-23.104
				C771.679,620.283,769.098,611.377,764.839,601.439L764.839,601.439z"/>
		</g>
		<g opacity="0.1">
			<path d="M870.283,147.137c-12.906-9.938-2.193-1.548,0.773,1.162c2.581,2.323,5.033,4.775,7.485,7.356
				c2.452,2.581,4.776,5.292,7.1,8.131c0.517,0.645,1.032,1.291,1.549,1.936c3.612,4.517-6.582-8.647-3.099-4.001
				c1.291,1.678,2.452,3.356,3.614,5.034c9.68,13.81,17.553,28.781,24.135,44.269c-1.291-3.098-2.582-6.195-3.872-9.292
				c12.132,28.91,20.005,59.498,24.266,90.473c-0.519-3.485-0.904-6.84-1.421-10.325c4.388,32.266,4.904,65.048,0.646,97.442
				c0.517-3.485,0.904-6.84,1.42-10.325c-3.098,22.328-8.389,44.269-17.165,65.177c1.29-3.097,2.581-6.195,3.872-9.292
				c-5.68,13.164-12.647,25.813-21.295,37.171c9.55-12.52,1.419-2.064-1.162,0.902c-2.453,2.84-5.163,5.421-7.873,8.003
				c-2.453,2.322-4.903,4.389-7.485,6.453c12.391-9.938,1.161-1.033-2.322,1.161c-17.684,11.486-24.91,34.202-13.939,52.915
				c10.324,17.553,35.234,25.426,52.916,13.938c94.475-61.176,103.896-192.82,85.312-293.36
				c-6.194-33.556-17.294-66.08-32.523-96.539c-14.842-29.814-35.492-55.239-61.822-75.502c-7.741-5.937-20.907-6.324-29.813-3.872
				c-9.681,2.71-18.068,9.164-23.104,17.811c-5.292,8.906-6.711,19.876-3.872,29.814
				C855.44,134.748,861.896,140.684,870.283,147.137L870.283,147.137z"/>
		</g>
		<g opacity="0.1">
			<path d="M1006.445,210.12c9.034,21.94,15.745,44.655,19.102,68.145c-0.518-3.485-0.904-6.84-1.42-10.325
				c2.969,21.94,2.839,44.01,0,65.822c0.516-3.484,0.903-6.841,1.42-10.325c-5.163,38.073-18.328,74.212-32.524,109.574
				c-15.875,39.364-32.781,78.084-45.431,118.609c-6.323,20.134,7.229,42.203,27.104,47.624c20.908,5.679,41.3-6.97,47.625-27.104
				c18.972-60.788,48.785-117.705,67.11-178.623c9.293-30.976,14.844-63.628,14.587-96.022
				c-0.261-37.041-8.648-73.953-22.717-108.155c-4.001-9.809-8.261-17.552-17.812-23.102c-8.904-5.292-19.875-6.711-29.813-3.872
				c-9.68,2.71-18.068,9.163-23.103,17.811C1005.671,188.308,1002.701,201.085,1006.445,210.12L1006.445,210.12z"/>
		</g>
		<g opacity="0.2">
			<path d="M962.176,145.589c2.711,2.452,5.291,5.162,7.744,8.001c0.903,1.033,3.099,4.001-0.646-0.903
				c0.646,0.774,1.162,1.549,1.678,2.323c1.291,1.807,2.581,3.743,3.743,5.808c2.192,3.485,4.001,7.099,5.809,10.841
				c0.517,0.903,0.902,1.936,1.289,2.839c1.678,3.614-1.807-4.388-0.257-0.645c0.902,2.323,1.806,4.775,2.71,7.227
				c3.227,9.293,5.55,18.843,7.354,28.523c0.519,2.452,0.904,4.904,1.291,7.485c0.261,1.291,0.39,2.582,0.518,3.743
				c0.646,4.518-0.646-4.646,0,0c0.775,5.679,1.291,11.487,1.678,17.294c1.938,24.135,1.421,48.27-0.129,72.405
				c-0.903,12.776-2.064,25.554-3.613,38.331c-0.388,3.098-0.773,6.195-1.162,9.293c-0.646,5.292,0.518-4.26-0.129,1.033
				c-0.258,1.548-0.387,3.097-0.646,4.646c-0.903,6.711-2.064,13.422-3.099,20.134c-6.969,41.946-16.776,83.504-29.555,124.159
				c-5.291,16.648-11.1,33.17-17.811,49.302c2.581-6.065,0-0.13-0.519,1.291c-0.645,1.549-1.419,3.098-2.063,4.646
				c-1.419,3.227-2.969,6.324-4.519,9.552c-2.709,5.42-5.678,10.712-8.903,15.745c-5.68,8.905-1.808,21.295,6.969,26.458
				c9.422,5.55,20.779,1.937,26.459-6.97c9.163-14.197,15.745-29.942,22.068-45.56c7.872-19.619,14.584-39.623,20.521-59.886
				c14.584-49.817,24.78-100.798,30.976-152.294c5.291-43.624,7.743-88.409,1.937-132.032
				c-4.774-35.75-14.583-74.856-42.333-100.153c-7.872-7.099-19.617-7.744-27.361,0C955.078,125.326,954.432,138.49,962.176,145.589
				L962.176,145.589z"/>
		</g>
		<g opacity="0.2">
			<path d="M958.304,594.341c1.292-5.808,2.84-11.357,4.776-16.907c0.387-1.032,0.772-2.063,1.162-3.098
				c0.258-0.645,2.321-5.678,0.516-1.42c1.161-2.839,2.581-5.679,4-8.389c2.453-4.775,5.421-9.293,8.521-13.553
				c1.289-1.678,1.16-1.548-0.519,0.518c0.904-1.033,1.808-2.194,2.711-3.228c1.808-2.063,3.613-4.131,5.55-6.065
				c3.099-3.228,6.453-6.195,9.938-9.035c0.646-0.516,1.42-1.16,2.064-1.678c3.613-2.838-3.354,2.582,0.259-0.257
				c2.063-1.551,4.26-3.1,6.453-4.647c8.002-5.42,16.391-10.324,24.779-15.1c17.423-9.81,34.589-19.488,50.206-32.008
				c17.424-13.939,29.685-32.267,37.944-52.916c-12.391-3.485-24.909-6.841-37.3-10.325c-1.937,5.679-2.452,6.97-5.938,13.165
				c-1.548,2.709-3.227,5.162-5.032,7.614c1.161-1.549,1.161-1.549-0.259,0.259c-1.161,1.291-2.323,2.581-3.483,3.872
				c-1.549,1.678-3.355,3.098-5.033,4.517c3.098-2.582-3.228,1.936-4.26,2.581c-0.903,0.516-1.937,1.033-2.84,1.549
				c-4.774,2.452,3.614-1.291-1.42,0.646c-2.58,0.902-5.162,1.678-7.873,2.194c7.229,2.968,14.586,5.938,21.813,8.905
				c-4.131-6.066-8.003-12.261-11.745-18.586c-1.678-2.968-3.227-5.937-4.775-8.905c-0.773-1.419-1.42-2.968-2.063-4.389
				c1.937,4.259-0.518-1.806-0.904-2.709c-0.517-1.549-2.192-10.455-1.549-4.647c-0.129-1.29-0.129-2.71-0.129-4
				c0-0.903,0.129-1.678,0.129-2.582c-0.387,2.97-0.387,3.485,0,1.419c1.032-4.258-2.063,3.873-0.129,0
				c0.388-0.773,0.904-1.548,1.42-2.193c-1.678,2.193-1.807,2.452-0.387,0.773c3.227-3.354-3.484,2.195,0.772-0.645
				c0.646-0.388,6.453-3.228,3.228-1.937c-7.229-2.968-14.584-5.937-21.812-8.904c7.871,12.002,11.356,22.973,13.681,37.943
				c-0.129-1.549-0.129-1.161,0.129,1.291c0.258,2.194,0.388,4.26,0.646,6.453c0.259,3.614,0.517,7.229,0.646,10.841
				c0.387,8.132,0.259,16.135,0.259,24.266c0,8.646,5.938,16.391,14.196,18.714c9.293,2.581,22.199-3.099,23.877-13.551
				c4.646-29.558,2.709-62.339-15.488-87.376c-5.549,9.679-11.099,19.358-16.776,29.168c7.227,0,14.324,0.387,21.553,1.16
				c5.421,0.518-4.129-0.645,1.033,0.13c1.42,0.258,2.969,0.516,4.388,0.773c2.71,0.516,5.292,1.162,8.001,1.807
				c2.324,0.646,4.646,1.42,6.971,2.323c4,1.419-4.131-1.936-0.516-0.258c1.031,0.388,1.936,0.903,2.839,1.42
				c1.806,0.903,3.483,1.936,5.032,3.097c2.97,2.065-3.742-3.097-1.031-0.773c0.645,0.516,1.29,1.162,1.936,1.807
				c1.291,1.29,4.904,6.194,0.646,0.388c0.901,1.291,1.678,2.581,2.322,4c1.42,2.84-1.937-4.904-0.774-1.936
				c0.258,0.646,0.517,1.419,0.646,2.064c0.259,0.646,0.388,1.42,0.517,2.194c0.646,3.228-0.646-5.55-0.259-2.194
				c0.13,1.42,0.13,2.968,0.13,4.388c-0.13,5.679,0.903-4.388,0.129,0.129c-0.259,1.549-0.646,2.969-1.161,4.518
				c-0.518,1.679-2.969,7.357,0,0.646c-1.291,3.097-2.969,5.938-4.776,8.647c-0.901,1.42-4.903,6.452-0.516,0.901
				c-1.033,1.421-2.193,2.711-3.355,4.002c-2.321,2.58-5.032,5.033-7.743,7.229c-2.709,2.193,4.002-2.971,1.161-0.903
				c-0.645,0.516-1.42,1.032-2.194,1.549c-1.419,1.032-2.967,1.937-4.387,2.84c-1.55,0.902-2.97,1.679-4.519,2.451
				c-5.291,2.582,3.484-1.291-0.904,0.387c-3.097,1.162-6.322,1.938-9.55,2.582c7.356-1.291,1.549-0.259-0.388-0.129
				c-1.549,0-3.099,0-4.775-0.13c-3.354-0.257,5.422,0.903,2.064,0.259c-0.773-0.129-1.548-0.387-2.322-0.516
				c-1.807-0.389-7.228-2.84-0.516,0.129c1.29,10.195,2.581,20.262,3.87,30.458c2.97-2.581,5.81-4.646,11.357-7.872
				c2.582-1.55,5.421-2.84,8.132-4.131c-1.808,0.775-1.679,0.775,0.388-0.129c1.678-0.646,3.484-1.162,5.162-1.678
				c2.84-0.903,5.808-1.55,8.776-2.194c1.161-0.257,2.323-0.516,3.612-0.646c5.809-1.031-3.871,0.39,2.065-0.258
				c6.064-0.645,12.261-0.516,18.326-0.129c1.291,0.129,2.453,0.258,3.613,0.387c-4.259-0.387,1.808,0.26,2.195,0.388
				c3.098,0.518,6.063,1.162,9.163,1.937c3.097,0.774,6.064,1.68,9.033,2.711c1.162,0.388,2.323,0.774,3.614,1.29
				c0.128,0,5.808,2.452,2.452,0.903c5.808,2.581,11.357,5.55,16.778,8.906c2.71,1.678,5.291,3.482,7.872,5.42
				c-1.42-1.161-1.162-0.903,0.646,0.517c1.548,1.162,2.968,2.453,4.388,3.742c7.874,6.971,19.489,7.874,27.361,0
				c7.1-7.098,8.003-20.391,0-27.361c-48.141-42.073-121.706-53.173-172.299-9.032c-8.775,7.613-7.228,25.554,3.872,30.458
				c35.233,15.487,74.211-6.065,92.796-37.17c9.809-16.393,12.262-35.622,4.389-53.175c-8.646-19.229-30.717-29.04-50.205-32.91
				c-12.262-2.452-24.779-3.356-37.299-3.356c-13.553,0-25.556,16.908-16.779,29.168c12.133,16.778,14.843,37.428,11.616,57.563
				c12.647,1.678,25.296,3.483,38.073,5.161c0-34.59-1.291-70.339-20.779-100.281c-4.389-6.711-13.68-12.132-21.812-8.905
				c-11.357,4.517-20.521,10.196-27.491,20.65c-6.323,9.551-6.711,21.553-5.033,32.395c3.099,19.101,14.842,36.525,25.426,52.399
				c5.033,7.613,12.906,10.841,21.813,8.905c32.007-6.841,53.174-33.687,63.369-63.37c3.483-9.938-3.872-21.167-13.552-23.877
				c-10.971-2.968-19.876,3.743-23.878,13.553c-0.773,2.064-0.773,1.937,0.259-0.388c-0.516,1.291-1.161,2.71-1.807,4.001
				c-1.032,2.194-2.193,4.26-3.355,6.324c-1.161,2.065-2.452,4.001-3.612,5.809c-0.775,1.161-1.551,2.194-2.324,3.355
				c-2.71,3.743,2.711-3.355-0.258,0.258c-2.969,3.742-6.324,7.228-9.81,10.454c-1.549,1.42-3.228,2.84-4.903,4.259
				c-1.033,0.774-1.937,1.679-2.97,2.452c-3.483,2.84,3.484-2.582-0.129,0.129c-14.972,11.229-31.879,19.618-48.012,29.039
				c-17.553,10.067-34.59,21.685-48.398,36.654c-16.777,18.326-27.618,41.042-33.039,65.177
				c-2.323,10.325,2.968,20.909,13.551,23.876C944.365,610.604,955.979,604.666,958.304,594.341L958.304,594.341z"/>
		</g>
		<g opacity="0.2">
			<path d="M999.217,805.23c3.744-2.582,7.744-4.776,12.004-6.712c-4.774,2.193,2.581-0.903,3.742-1.292
				c2.969-1.031,6.066-1.807,9.035-2.58c2.581-0.646,5.291-1.161,8.002-1.679c1.032-0.129,2.193-0.387,3.226-0.516
				c5.551-0.904-4.13,0.516,1.549-0.13c6.325-0.646,12.648-0.903,18.845-0.903c5.808,0,11.485,0.517,17.294,1.162
				c-2.322-0.388-2.322-0.388,0,0c1.678,0.258,3.354,0.516,5.033,0.903c3.227,0.646,6.582,1.419,9.809,2.193
				c2.582,0.646,5.163,1.548,7.744,2.451c1.549,0.518,2.969,1.033,4.389,1.678c-4.389-1.678,0.387,0.26,1.032,0.519
				c2.194,1.03,4.388,2.321,6.583,3.612c1.29,0.773,2.452,1.55,3.613,2.323c4,2.71-3.099-2.581,0.517,0.388
				c8.131,6.712,19.358,8.003,27.361,0c6.97-6.971,8.13-20.649,0-27.36c-22.328-18.715-51.239-25.427-79.891-26.588
				c-26.459-1.032-57.176,3.484-79.375,18.973c-8.646,6.066-12.647,16.777-6.969,26.457
				C977.793,806.779,990.57,811.295,999.217,805.23L999.217,805.23z"/>
		</g>
		<g opacity="0.2">
			<path d="M533.3,824.719c0-0.903,0-1.807,0.128-2.711c0.258-4.518-0.902,4.389,0.129,0.129c0.13-0.773,0.389-1.549,0.646-2.321
				c1.162-4.003-2.064,4.129-0.128,0.516c2.452-4.646-2.71,2.453,0.773-1.161c3.484-3.743-3.228,1.807,1.161-1.032
				c1.291-0.774,7.229-3.227,1.548-1.032c1.808-0.773,3.873-1.291,5.809-1.679c1.42-0.387,8.518-1.291,2.453-0.516
				c2.192-0.258,4.517-0.387,6.71-0.387c4.775-0.131,9.422,0.129,14.067,0.645c0.903,0.129,1.937,0.258,2.839,0.387
				c-5.292-0.645-0.387,0,0.646,0.13c2.452,0.388,4.776,0.903,7.099,1.291c4.646,0.903,9.164,2.193,13.681,3.484
				c2.064,0.646,4.259,1.419,6.324,2.064c1.29,0.388,8.001,3.227,2.323,0.773c9.68,4.13,20.65,2.969,26.458-6.97
				c4.776-8.261,2.839-22.327-6.969-26.458c-22.457-9.422-47.367-15.746-71.888-13.809c-13.682,1.159-26.458,4.773-37.172,13.68
				c-10.453,8.518-14.971,21.812-15.229,34.977c-0.129,10.583,8.905,19.359,19.359,19.359
				C524.652,844.078,533.171,835.302,533.3,824.719L533.3,824.719z"/>
		</g>
		<g opacity="0.2">
			<path d="M568.275,794.26c7.485-0.258,14.972-0.129,22.329,0.517c1.807,0.129,3.484,0.388,5.291,0.518
				c-4.518-0.518,1.291,0.257,1.807,0.257c4.001,0.646,7.874,1.421,11.745,2.323c6.453,1.549,12.776,3.484,19.101,5.68
				c3.099,1.032,6.066,2.322,9.164,3.484c5.034,2.063-3.613-1.549,1.291,0.516c1.937,0.904,3.872,1.809,5.809,2.711
				c24.005,11.357,46.075,26.328,68.918,39.751c24.136,14.067,49.947,26.2,77.567,31.491c32.91,6.195,68.403,4.131,100.669-4.517
				c57.305-15.229,98.217-60.401,147.907-89.827c21.424-12.648,1.937-46.205-19.489-33.428
				c-24.65,14.584-47.107,32.266-70.081,49.43c-10.066,7.486-20.393,14.715-31.232,20.909c-5.292,3.099-10.712,5.808-16.263,8.26
				c-0.646,0.259-5.55,2.323-1.16,0.517c-1.422,0.646-2.97,1.161-4.39,1.679c-3.614,1.291-7.1,2.582-10.842,3.612
				c-6.711,2.065-13.422,3.614-20.393,4.905c-1.808,0.387-3.613,0.646-5.55,0.903c-6.193,1.032,3.871-0.388-2.451,0.387
				c-4.774,0.517-9.422,0.904-14.196,1.291c-8.261,0.517-16.65,0.646-25.039,0.387c-3.613-0.129-7.099-0.387-10.712-0.772
				c-5.809-0.646,4.001,0.645-1.678-0.259c-2.194-0.388-4.519-0.774-6.711-1.161c-6.582-1.291-12.906-2.969-19.23-4.905
				c-3.097-1.032-6.195-2.063-9.164-3.227c-1.549-0.517-2.968-1.161-4.518-1.808c-2.064-0.902-1.937-0.773,0.129,0.129
				c-1.032-0.387-1.936-0.902-2.968-1.29c-12.132-5.292-23.748-11.874-35.105-18.586c-22.844-13.551-44.914-28.264-69.178-39.362
				c-29.039-13.165-59.756-20.394-91.764-19.23c-10.583,0.387-19.36,8.519-19.36,19.359
				C548.917,785.226,557.821,794.646,568.275,794.26L568.275,794.26z"/>
		</g>
		<g opacity="0.2">
			<path d="M576.148,149.977c-0.13,36.525-8.132,72.275-9.81,108.542c-1.678,36.396,5.938,71.759,25.813,102.476
				c15.745,24.521,36.653,45.172,55.238,67.5c2.194,2.581,4.259,5.291,6.324,7.872c-2.581-3.355,0.774,1.033,1.033,1.42
				c1.032,1.29,1.936,2.709,2.968,4.13c3.873,5.549,7.485,11.228,10.712,17.165c1.679,2.97,3.097,6.066,4.519,9.164
				c2.322,5.162-1.42-3.614,0.645,1.678c0.646,1.549,1.162,3.228,1.807,4.904c1.162,3.354,2.064,6.711,2.969,10.196
				c0.388,1.808,0.773,3.484,1.162,5.292c0.129,0.645,1.291,8.002,0.773,4c6.453-6.452,12.906-12.906,19.36-19.359
				c4.13,0.516-1.938-0.258-2.195-0.387c-2.452-0.388-4.903-0.903-7.227-1.42c-4.775-1.033-9.552-2.322-14.326-3.613
				c-9.421-2.711-18.584-6.195-27.748-9.68c-17.94-7.1-35.493-15.23-53.69-21.555c-18.068-6.323-37.171-10.454-56.399-10.454
				c-23.104,0-45.431,7.099-65.565,18.069c-9.292,5.033-12.131,17.552-6.969,26.458c5.42,9.293,17.165,12.003,26.458,6.97
				c16.521-9.033,31.491-13.035,49.56-12.776c4.131,0,8.133,0.388,12.133,0.902c-4.519-0.516,2.582,0.518,3.484,0.646
				c2.323,0.387,4.518,0.903,6.84,1.42c9.164,2.063,18.069,5.162,26.846,8.389c17.037,6.324,33.427,13.939,50.335,20.521
				c18.972,7.484,38.203,12.647,58.466,15.229c9.55,1.161,20.65-9.81,19.359-19.359c-4.26-31.878-17.425-58.595-36.912-83.892
				c-8.39-10.712-17.424-20.906-26.33-31.104c-4.518-5.163-9.034-10.325-13.422-15.488c-2.194-2.582-4.389-5.291-6.582-8.002
				c-3.613-4.388,2.323,2.968-1.161-1.548c-1.42-1.808-2.71-3.743-4.13-5.55c-4.002-5.68-7.744-11.486-11.101-17.553
				c-4.13-7.355-6.065-11.874-8.13-18.455c-5.679-17.812-6.711-32.653-6.195-51.754c1.161-37.17,9.809-73.566,9.938-110.737
				C614.996,124.938,576.278,125.067,576.148,149.977L576.148,149.977z"/>
		</g>
		<path fill="none" stroke="#000000" stroke-miterlimit="10" d="M529.686,412.62c8.646-15.488,20.521-35.879,18.068-54.336
			 M568.147,410.425c1.419,8.002-0.774,14.972-6.842,20.394 M613.447,521.291c3.484-15.229,10.584-28.522,9.035-45.301
			 M593.056,451.081c-3.484,13.81-3.744,30.458-4.518,45.301 M554.595,469.279c7.872-11.616,9.81-29.943,20.392-40.784
			 M599.896,505.416c3.228-12.52,0.388-26.07,4.518-38.46 M624.806,559.752c0.517-14.068,13.164-43.107,11.357-63.37"/>
		<path fill="none" d="M978.359,545.541c31.271-25.621,49.02-61.936,90.344-76.5c37.465-13.204,81.264-10.515,116.244,7.012
			c67.782,33.96,50.155,109.192,87.745,165.145c15.144,22.544,30.03,53.656,32.737,82.05c1.747,18.32,2.641,36.655,4.472,54.795
			c1.634,16.181-2.93,22.428-13.209,34.84c-25.536,30.825-61.352,18.156-96.823,10.459c-33.646-7.3-67.336-23.744-100.01-34.799"/>
		<path fill="none" stroke="#020000" stroke-miterlimit="10" d="M1012.459,543.831c32-15.133,54.813-47.179,88.167-59.71
			c24.832-9.328,64.314-12.674,90.828-6.618c14.659,3.348,33.486,14.772,38.946,30.363c4.379,12.506-1.804,27.64,1.357,40.465
			c4.075,16.53,15.483,33.015,21.035,49.423c6.14,18.146,12.654,34.1,16.208,52.902c6.469,34.217,19.766,58.729,38.658,88.247
			c13.661,21.344,17.438,47.456-6.039,63.299c-23.836,16.085-65.365,19.245-93.708,20.629c-17.165,0.839-35.177,1.104-51.526-4.46
			c-12.58-4.281-17.404-11.283-26.928-19.54"/>
	</g>
</g>
<g id="more_wrinkles">
</g>
</svg>
