<?xml version="1.0" encoding="utf-8"?>
<!-- Generator: Adobe Illustrator 16.0.0, SVG Export Plug-In . SVG Version: 6.00 Build 0)  -->
<!DOCTYPE svg PUBLIC "-//W3C//DTD SVG 1.1//EN" "http://www.w3.org/Graphics/SVG/1.1/DTD/svg11.dtd">
<svg version="1.1" id="Layer_1" xmlns="http://www.w3.org/2000/svg" xmlns:xlink="http://www.w3.org/1999/xlink" x="0px" y="0px"
	 width="1600px" height="900px" viewBox="0 0 1600 900" enable-background="new 0 0 1600 900" xml:space="preserve">
<g id="white">
</g>
<g id="Layer_1_2_">
	<g id="white_1_">
		<g>
			<g>
				<path fill="#FFFFFF" d="M692.959,89.005c-50.579,12.192-79.555,59.176-94.258,105.601
					c-7.022,22.174-10.499,45.321-13.093,68.374c-2.109,18.745-3.164,37.917-1.385,56.726
					c4.704,49.681,23.174,96.423,47.528,139.661c22.485,39.921,50.646,77.396,82.115,110.665c15.354,16.233,42.516,15.467,57.98,0
					c16.125-16.125,15.348-41.758,0-57.982c-11.866-12.546-23.048-25.708-33.636-39.349c2.137,2.767,4.274,5.532,6.411,8.299
					c-25.349-32.848-47.492-68.46-63.659-106.74c1.378,3.267,2.755,6.529,4.133,9.794c-9.104-21.829-16.201-44.524-19.484-67.995
					c0.486,3.635,0.977,7.268,1.464,10.899c-3.163-23.847-1.621-48.261,1.515-72.038c-0.486,3.633-0.977,7.266-1.464,10.899
					c3.11-23.002,8.24-45.889,17.173-67.373c-1.378,3.265-2.755,6.529-4.133,9.794c4.58-10.815,10.141-21.18,17.266-30.543
					c-2.137,2.766-4.272,5.532-6.41,8.298c4.575-5.885,9.709-11.239,15.572-15.852c-2.766,2.137-5.531,4.274-8.298,6.411
					c4.701-3.592,9.73-6.603,15.151-8.977c-3.266,1.377-6.529,2.755-9.794,4.133c3.607-1.513,7.297-2.717,11.102-3.634
					c21.724-5.236,34.416-29.422,28.636-50.435C737.329,95.592,714.668,83.772,692.959,89.005L692.959,89.005z"/>
			</g>
		</g>
		<g>
			<g>
				<path fill="#FFFFFF" d="M724.459,102.505c-14.259,5.087-24.3,11.152-35.94,20.634c-8.273,6.741-14.955,15.864-20.752,24.685
					c-11.004,16.745-17.744,36.996-21.853,56.516c-8.315,39.51-8.783,80.61-4.778,120.661c1.526,15.255,3.518,30.537,6.422,45.597
					c4.784,24.788,13.775,48.638,25.592,70.929c21.901,41.317,55.589,75.238,85.719,110.507c13.686,16.021,44.313,16.121,57.98,0
					c6.163-7.271,10.383-13.57,13.03-22.851c1.624-5.691,1.963-12.146,1.979-18.143c0.061-22.351-18.697-41-41-41
					c-22.396,0-40.938,18.65-41,41c-0.006,1.97-0.056,3.908-0.265,5.868c0.488-3.633,0.978-7.269,1.464-10.899
					c-0.256,1.404-0.593,2.61-1.146,3.926c1.378-3.265,2.755-6.527,4.133-9.794c-0.232,0.386-0.464,0.771-0.696,1.152
					c2.139-2.766,4.274-5.532,6.411-8.298c-0.298,0.352-0.596,0.702-0.893,1.054c19.327,0,38.654,0,57.98,0
					c-17.714-20.733-36.333-40.723-53.045-62.296c2.139,2.766,4.274,5.532,6.411,8.298c-13.778-17.921-25.931-36.969-34.81-57.811
					c1.378,3.265,2.755,6.527,4.133,9.794c-8.419-20.175-13.166-41.34-16.104-62.931c0.487,3.633,0.978,7.266,1.466,10.897
					c-4.78-35.713-6.065-72.43-1.272-108.207c-0.488,3.633-0.976,7.266-1.464,10.899c2.214-16.018,5.741-31.93,11.972-46.897
					c-1.378,3.265-2.755,6.529-4.133,9.794c3.276-7.695,7.264-15.034,12.327-21.706c-2.137,2.766-4.274,5.532-6.411,8.298
					c3.52-4.523,7.469-8.619,11.968-12.175c-2.766,2.137-5.53,4.274-8.298,6.411c4.038-3.097,8.376-5.657,13.051-7.668
					c-3.266,1.377-6.528,2.755-9.795,4.133c1.129-0.464,2.265-0.899,3.412-1.309c10.357-3.695,18.809-9.119,24.503-18.842
					c5.548-9.469,7.044-21.01,4.134-31.593C769.299,110.802,745.522,94.991,724.459,102.505L724.459,102.505z"/>
			</g>
		</g>
		<g>
			<g>
				<path fill="#FFFFFF" d="M721.323,123.642c-4.313,30.271-5.033,59.934-2.637,90.404c2.209,28.071,6.279,55.956,9.313,83.941
					c3.332,30.725,5.926,61.375,11.382,91.846c4.904,27.387,11.709,54.394,19.44,81.108c5.081,17.556,21.116,30.101,39.536,30.101
					c22.078,0,41.355-18.648,41-41c-0.104-6.538-1.372-12.97-1.5-19.5c-0.439-22.341-18.317-41-41-41c-22.02,0-41.439,18.649-41,41
					c0.128,6.53,1.396,12.962,1.5,19.5c26.845-3.633,53.688-7.266,80.533-10.899c-10.469-36.174-18.95-72.839-24.01-110.179
					c0.488,3.633,0.979,7.268,1.465,10.899c-2.285-17.249-3.5-34.582-5.348-51.876c-1.922-18.005-4.296-35.959-6.347-53.95
					c-4.002-35.107-6.772-70.671-2.298-105.873c-0.488,3.633-0.979,7.267-1.466,10.9c0.157-1.209,0.325-2.417,0.503-3.623
					c1.633-11.466,1.975-21.166-4.135-31.593c-5.367-9.165-14.254-16.023-24.503-18.842c-10.583-2.911-22.124-1.414-31.593,4.133
					C731.963,103.943,722.731,113.753,721.323,123.642L721.323,123.642z"/>
			</g>
		</g>
		<g>
			<g>
				<path fill="#FFFFFF" d="M760.358,140.541c0.121,11.706,1.89,23.455,4.275,34.899c1.821,8.728,4.728,17.188,6.596,25.893
					c3.928,18.302,6.973,36.787,9.488,55.333c-0.486-3.633-0.977-7.267-1.465-10.899c5.442,40.779,8.111,81.871,10.264,122.936
					c2.217,42.271,0.741,84.579,9.808,126.238c4.753,21.842,29.788,34.313,50.435,28.636c22.407-6.163,33.384-28.616,28.636-50.437
					c-1.418-6.515-2.548-13.07-3.462-19.677c0.488,3.634,0.979,7.269,1.465,10.9c-3.308-25.103-3.478-50.438-4.145-75.705
					c-0.697-26.404-2.461-52.83-4.452-79.165c-2.228-29.469-5.547-58.829-9.928-88.057c-2.009-13.402-4.409-26.745-7.173-40.012
					c-2.709-13.004-7.068-25.516-8.916-38.727c0.486,3.633,0.977,7.267,1.465,10.899c-0.537-4.347-0.845-8.679-0.891-13.059
					c-0.232-22.346-18.477-41-41-41C779.185,99.541,760.126,118.189,760.358,140.541L760.358,140.541z"/>
			</g>
		</g>
		<g>
			<g>
				<path fill="#FFFFFF" d="M812.867,130.532c2.056,2.303,4.023,4.667,5.923,7.102c-2.137-2.766-4.273-5.532-6.411-8.298
					c8.064,10.57,14.446,22.208,19.693,34.403c-1.378-3.265-2.757-6.529-4.134-9.794c10.679,25.309,16.508,52.359,20.196,79.495
					c-0.487-3.633-0.977-7.267-1.465-10.899c4.099,30.854,4.841,61.881,5.863,92.938c0.991,30.172,1.478,60.387,0.319,90.56
					c-0.57,14.943-1.568,29.896-3.541,44.724c0.487-3.633,0.978-7.266,1.466-10.897c-1.589,11.681-3.591,23.646-8.158,34.583
					c1.378-3.268,2.756-6.529,4.134-9.795c-1.239,2.885-2.676,5.67-4.561,8.188c2.138-2.767,4.272-5.532,6.409-8.298
					c-0.967,1.243-2.021,2.381-3.247,3.374c2.768-2.137,5.532-4.274,8.3-6.411c-0.915,0.702-1.875,1.287-2.936,1.746
					c3.265-1.379,6.529-2.756,9.795-4.134c-0.803,0.313-1.609,0.541-2.461,0.683c3.633-0.488,7.268-0.977,10.899-1.465
					c-1.012,0.131-1.999,0.131-3.012,0.018c3.634,0.487,7.268,0.978,10.898,1.466c-0.536-0.078-1.063-0.184-1.587-0.312
					c-21.698-5.281-44.38,6.621-50.437,28.636c-5.789,21.051,6.928,45.151,28.638,50.437c25.112,6.11,47.85-5.383,61.161-26.729
					c7.542-12.094,11.395-26.996,13.819-40.938c6.071-34.879,7.171-70.428,7.073-105.755c-0.064-23.249-1.133-46.454-1.631-69.69
					c-1.018-47.411-4.941-96.224-18.987-141.726c-9.224-29.882-23.143-57.775-44.047-81.188c-14.891-16.678-42.854-15.127-57.98,0
					C796.403,89.014,797.996,113.876,812.867,130.532L812.867,130.532z"/>
			</g>
		</g>
		<g>
			<g>
				<path fill="#FFFFFF" d="M1018.36,244.43c-3.351-29.054-8.891-56.643-21.821-83.092c-5.276-10.789-12.789-21.464-21.884-29.306
					c-5.303-4.571-11.289-9.51-17.856-12.373c-3.962-1.727-7.349-3.077-10.61-4.162c-5.945-13.607-12.907-26.816-19.351-40.17
					c-22.23-4.669-44.347-9.91-66.734-13.779c-0.479-0.083-0.959-0.16-1.438-0.241c-4.615,4.861-8.047,10.824-9.84,17.342
					c-3.14,11.398-0.688,21.217,4.131,31.586c6.154,13.245,13.028,26.146,19.023,39.462c5.343,13.598,9.322,27.618,11.697,42.027
					c3.521,33.277,0.426,66.819-2.074,100.075c-2.554,33.989-5.367,67.984-9.711,101.802c-1.214,8.503-2.571,16.98-4.095,25.42
					c-8.588,6.569-16.182,14.306-21.77,23.743c-12.896,21.781-10.918,50.303-6.229,74.765c-1.094,2.45-2.208,4.89-3.345,7.319
					c-3.709,6.396-5.574,13.293-5.599,20.693c0,10.83,4.354,21.337,12.01,28.991c13.063,13.063,33.727,15.655,49.685,6.411
					c24.591-14.246,45.646-35.446,57.267-61.6c7.417-16.693,12.212-34.105,16.345-51.735c3.446-7.886,6.916-15.752,11.212-23.243
					c9.286-16.199,18.194-32.2,21.319-50.383c0.774-1.826,1.54-3.656,2.3-5.489c4.926-11.882,8.783-24.137,11.747-36.648
					C1021.083,316.611,1022.498,280.33,1018.36,244.43z"/>
			</g>
		</g>
		<g>
			<g>
				<path fill="#FFFFFF" d="M718.323,554.94c2.299,15.372,12.919,26.533,24.833,35.284c8.995,6.605,22.897,8.625,33.628,8.94
					c15.068,0.442,29.748-4.319,44.531-6.419c-3.635,0.487-7.268,0.976-10.898,1.464c0.479-0.064,0.96-0.122,1.442-0.171
					c11.3-1.239,20.661-3.679,28.991-12.009c7.652-7.654,12.009-18.161,12.009-28.991s-4.354-21.337-12.009-28.991
					c-6.97-6.968-18.776-13.13-28.991-12.009c-12.016,1.318-23.601,4.16-35.524,5.855c3.633-0.487,7.268-0.978,10.899-1.466
					c-4.769,0.63-9.546,0.986-14.344,0.477c3.634,0.486,7.268,0.977,10.899,1.465c-2.104-0.288-4.112-0.744-6.097-1.504
					c3.265,1.378,6.527,2.755,9.794,4.133c-1.295-0.568-2.471-1.229-3.609-2.066c2.768,2.139,5.532,4.274,8.298,6.411
					c-0.864-0.721-1.614-1.479-2.327-2.353c2.139,2.767,4.274,5.53,6.411,8.298c-0.692-0.977-1.252-1.96-1.748-3.048
					c1.378,3.265,2.756,6.527,4.134,9.794c-0.615-1.604-1-3.197-1.253-4.896c-1.481-9.913-10.589-19.668-18.843-24.503
					c-9.469-5.547-21.01-7.044-31.593-4.133c-10.249,2.818-19.134,9.677-24.503,18.842
					C716.378,533.724,716.615,543.517,718.323,554.94L718.323,554.94z"/>
			</g>
		</g>
		<g>
			<g>
				<path fill="#FFFFFF" d="M792.052,622.639c-24.087-17.979-50.048-33.22-76.331-47.727
					c-28.723-15.854-57.476-31.057-87.804-43.644c-30.843-12.8-63.007-20.778-96.307-23.597
					c-27.646-2.339-56.011,4.478-80.088,18.082c-35.375,19.99-59.056,55.247-71.78,93.049c-6.197,18.407-8.986,38.471-9.336,57.826
					c-0.478,26.281,3.634,53.713,22.462,73.401c19.328-19.327,38.654-38.655,57.98-57.982c-3.352-3.296-6.485-6.746-9.395-10.439
					c2.137,2.766,4.273,5.53,6.411,8.298c-3.77-4.988-6.968-10.253-9.487-15.979c1.377,3.267,2.755,6.529,4.133,9.794
					c-2.167-5.234-3.665-10.6-4.472-16.21c0.488,3.634,0.976,7.269,1.464,10.899c-0.714-5.897-0.633-11.742,0.149-17.629
					c-0.488,3.634-0.979,7.267-1.466,10.897c1.063-6.963,3.039-13.644,5.696-20.16c-1.377,3.267-2.755,6.529-4.133,9.794
					c4.554-10.726,10.728-20.563,17.765-29.821c-2.137,2.766-4.272,5.53-6.41,8.298c5.938-7.674,12.404-14.879,19.241-21.759
					c12.982-13.063,15.749-33.744,6.411-49.687c-9.032-15.419-28.843-24.341-46.302-18.842
					c-25.926,8.165-38.72,30.984-46.672,55.282c-6.35,19.399-8.873,40.089-11.359,60.254c-2.318,18.8-3.716,37.882,3.662,55.933
					c5.992,14.662,13.49,28.523,25.831,38.952c5.923,5.005,12.166,9.987,19.342,13.08c11.903,5.13,20.409,7.574,33.596,8.534
					c22.317,1.625,41-19.88,41-41c0-10.83-4.354-21.337-12.009-28.991c-8.105-8.105-17.828-11.196-28.991-12.009
					c-0.906-0.051-1.813-0.132-2.714-0.244c3.635,0.488,7.268,0.977,10.899,1.464c-3.526-0.501-6.874-1.388-10.188-2.689
					c3.265,1.378,6.527,2.756,9.793,4.133c-3.604-1.553-6.9-3.498-10.031-5.86c2.766,2.139,5.531,4.273,8.298,6.41
					c-3.417-2.729-6.412-5.801-9.109-9.243c2.139,2.769,4.274,5.532,6.411,8.298c-2.888-3.874-5.261-7.994-7.188-12.425
					c1.377,3.267,2.755,6.529,4.133,9.794c-1.799-4.4-3.084-8.902-3.828-13.602c0.488,3.633,0.977,7.266,1.465,10.897
					c-1.602-11.997,0.729-24.889,2.319-36.795c-0.488,3.633-0.979,7.269-1.465,10.899c2.426-17.801,5.498-36.074,12.428-52.75
					c-1.378,3.265-2.756,6.529-4.133,9.794c1.741-4.062,3.739-7.987,6.415-11.521c-2.139,2.769-4.274,5.532-6.411,8.3
					c1.199-1.505,2.485-2.869,3.99-4.072c-2.768,2.137-5.532,4.272-8.3,6.411c1.031-0.763,2.09-1.395,3.269-1.902
					c-3.267,1.377-6.53,2.755-9.794,4.133c0.374-0.149,0.755-0.282,1.143-0.394c-13.297-22.842-26.594-45.687-39.891-68.526
					c-22.929,23.069-43.999,50.977-51.958,83.078c-4.51,18.191-4.584,37.598,0.592,55.658c5.609,19.569,17.463,37.086,31.866,51.246
					c15.928,15.659,42.086,15.896,57.98,0c16.063-16.062,15.438-41.841,0-57.982c-0.983-1.03-1.897-2.073-2.779-3.191
					c2.137,2.767,4.272,5.53,6.41,8.298c-1.26-1.778-2.288-3.598-3.17-5.592c1.377,3.267,2.757,6.529,4.135,9.796
					c-1.687-4.332-2.604-8.914-3.227-13.513c0.488,3.633,0.979,7.269,1.465,10.899c-1.694-13.386-1.662-26.864,0.025-40.249
					c-0.488,3.633-0.977,7.266-1.464,10.897c1.826-13.58,5.321-26.822,10.578-39.48c-1.378,3.265-2.755,6.528-4.134,9.794
					c4.558-10.708,10.309-20.802,17.396-30.04c-2.137,2.766-4.274,5.532-6.411,8.298c5.748-7.338,12.241-13.972,19.559-19.755
					c-2.768,2.138-5.532,4.274-8.3,6.411c7.043-5.438,14.654-9.941,22.846-13.425c-3.267,1.377-6.529,2.755-9.794,4.133
					c7.74-3.179,15.764-5.354,24.043-6.568c-3.635,0.488-7.268,0.979-10.899,1.465c11.713-1.563,23.328-0.921,35.018,0.563
					c-3.633-0.488-7.267-0.979-10.897-1.465c27.029,3.646,53.146,11.878,78.236,22.422c-3.267-1.378-6.529-2.756-9.795-4.133
					c26.271,11.177,51.263,25.195,76.231,38.979c25.751,14.213,51.149,29.239,74.746,46.854c8.351,6.23,21.987,6.773,31.593,4.133
					c10.249-2.818,19.135-9.678,24.503-18.842c5.548-9.471,7.044-21.013,4.134-31.595
					C807.818,635.959,800.998,629.315,792.052,622.639L792.052,622.639z"/>
			</g>
		</g>
		<g>
			<g>
				<path fill="#FFFFFF" d="M363.665,643.639c-11.486,5.008-23.509,14.822-28.914,26.353c-4.199,8.955-6.86,16.388-6.714,26.563
					c0.162,11.307,2.966,17.367,7.285,27.474c3.813,8.921,11.222,16.849,18.361,23.344c8.345,7.593,17.704,14.372,27.394,20.171
					c18.542,11.096,38.439,18.728,59.854,21.264c3.958,0.471,7.952,0.16,11.9-0.288c9.324-1.059,18.279-2.331,27.158-5.288
					c14.192-4.726,27.688-11.59,40.5-19.25c14.998-8.968,29.447-18.931,45.556-25.874c-3.265,1.377-6.53,2.757-9.794,4.135
					c8.399-3.506,17.206-6.104,26.235-7.349c-3.634,0.488-7.268,0.979-10.899,1.465c5.359-0.618,10.662-0.619,16.014,0.065
					c-3.633-0.488-7.266-0.977-10.897-1.465c5.813,0.873,11.37,2.511,16.793,4.766c-3.265-1.377-6.529-2.755-9.794-4.133
					c20,8.684,36.065,24.077,54.691,35.121c13.34,7.909,28.321,13.203,42.602,19.092c13.416,5.532,26.955,10.771,40.675,15.502
					c28.788,9.926,59.167,17.082,89.792,16.458c27.813-0.567,55.157-7.212,80.704-17.936
					c36.594-15.361,70.509-36.139,107.033-51.586c-3.267,1.378-6.529,2.756-9.794,4.134c21.199-8.856,42.901-17.308,65.783-20.498
					c-3.635,0.488-7.268,0.977-10.899,1.465c9.252-1.166,18.48-1.386,27.746-0.236c-3.634-0.486-7.268-0.977-10.899-1.465
					c7.012,1.014,13.751,2.789,20.323,5.438c-3.265-1.377-6.529-2.755-9.794-4.134c2.984,1.41,5.742,3.144,8.378,5.128
					c-2.766-2.139-5.532-4.273-8.298-6.41c6.271,4.891,11.497,10.889,16.359,17.146c-2.139-2.767-4.273-5.531-6.41-8.298
					c12.65,16.472,23.225,34.552,37.371,49.871c7.117,7.707,15.849,15.139,25.512,19.348c10.976,4.782,16.822,6.505,28.801,7.78
					c7.143,0.762,14.688-0.601,21.587-2.096c7.665-1.661,15.276-5.572,22.28-8.696c5.816-2.595,11.287-5.923,16.494-9.574
					c12.887-9.04,24.599-19.272,34.334-31.649c9.841-12.514,18.624-25.15,24.877-39.85c3.545-8.333,7.029-16.514,9.47-25.229
					c2.562-9.147,3.838-18.697,4.807-28.111c3.188-31.003-12.756-61.214-34.146-82.458c-10.031-9.962-21.741-18.4-33.4-26.34
					c-9.865-6.717-20.022-13.182-30.437-19.019c-30.647-17.185-63.528-27.156-98.328-30.889
					c-17.308-1.854-34.304-0.181-51.443,2.501c-16.295,2.55-31.762,9.086-46.608,16.01c-16.595,7.737-31.947,17.964-46.907,28.439
					c-7.226,5.061-14.359,10.248-21.53,15.384c-11.847,8.482-26.003,15.998-33.695,28.615c2.138-2.766,4.272-5.532,6.41-8.298
					c-0.548,0.736-1.184,1.387-1.906,1.95c2.767-2.139,5.531-4.273,8.299-6.411c-1.551,1.108-3.164,1.993-4.863,2.852
					c13.796,23.604,27.591,47.203,41.387,70.806c13.32-8.087,27.301-15.031,41.633-21.136c-3.267,1.378-6.53,2.756-9.797,4.135
					c25.53-10.771,52.305-18.928,79.794-22.721c-3.634,0.488-7.267,0.979-10.898,1.464c16.311-2.164,32.829-2.732,49.169-0.548
					c-3.633-0.487-7.269-0.977-10.899-1.464c10.075,1.436,19.92,3.927,29.321,7.854c-3.266-1.378-6.529-2.756-9.794-4.135
					c7.116,3.065,13.797,6.896,19.969,11.586c-2.766-2.137-5.531-4.271-8.298-6.409c6.009,4.688,11.328,10.064,15.991,16.094
					c-2.138-2.769-4.273-5.532-6.411-8.298c4.285,5.688,7.974,11.755,10.767,18.314c-1.378-3.265-2.756-6.527-4.134-9.794
					c1.706,4.245,2.979,8.567,3.689,13.091c-0.487-3.633-0.978-7.267-1.466-10.897c0.489,3.708,0.572,7.369,0.159,11.088
					c0.488-3.633,0.979-7.268,1.464-10.899c-0.439,3.148-1.219,6.152-2.389,9.108c1.377-3.265,2.755-6.529,4.133-9.794
					c-1.254,2.908-2.814,5.573-4.728,8.099c2.137-2.767,4.272-5.53,6.411-8.298c-2.079,2.586-4.404,4.854-7.007,6.909
					c2.768-2.137,5.531-4.272,8.3-6.411c-3.591,2.689-7.446,4.817-11.569,6.571c3.265-1.378,6.529-2.756,9.794-4.134
					c-5.747,2.299-11.684,3.761-17.797,4.688c3.633-0.488,7.267-0.977,10.897-1.465c-10.576,1.006-21.087,0.328-31.598-1.069
					c3.634,0.488,7.268,0.978,10.899,1.464c-13.063-1.84-25.976-4.59-39.033-6.447c-15.376-2.188-30.297-3.156-45.788-3.314
					c-13.291-0.135-28.173,0.274-40.633,5.106c-12.031,4.664-22.455,11.602-34.15,16.782c3.266-1.378,6.529-2.756,9.794-4.134
					c-2.344,0.972-4.675,1.763-7.193,2.104c3.633-0.488,7.266-0.979,10.897-1.465c-5.301,0.359-10.433,0.506-15.767,1.813
					c-5.309,1.304-10.189,4.233-15.229,6.376c3.267-1.377,6.529-2.755,9.795-4.133c-0.444,0.204-0.909,0.331-1.396,0.379
					c15.434,6.28,30.868,12.562,46.302,18.842c-0.169-0.384-0.337-0.768-0.506-1.149c1.378,3.265,2.756,6.527,4.134,9.794
					c-0.906-2.353-1.521-4.699-1.896-7.189c0.486,3.633,0.977,7.269,1.464,10.899c-0.327-2.962-0.297-5.854,0.021-8.815
					c-0.487,3.633-0.977,7.268-1.465,10.899c0.626-4.452,1.854-8.684,3.526-12.853c-1.378,3.267-2.756,6.529-4.135,9.794
					c2.61-6.115,6.018-11.747,10.018-17.054c-2.137,2.768-4.273,5.532-6.411,8.298c4.498-5.769,9.564-10.985,15.339-15.484
					c-2.767,2.138-5.531,4.272-8.298,6.409c2.556-1.916,5.044-3.507,7.976-4.791c-3.266,1.377-6.528,2.756-9.795,4.134
					c8.65-3.597,17.652-5.821,26.924-7.093c-3.635,0.488-7.269,0.979-10.899,1.466c14.849-1.832,29.779-1.234,44.584,0.711
					c-3.633-0.487-7.267-0.978-10.899-1.466c26.349,3.65,53.467,9.42,78.074,19.688c-3.265-1.377-6.529-2.755-9.794-4.133
					c9.359,3.979,18.371,8.732,26.479,14.909c-2.768-2.138-5.532-4.273-8.299-6.41c4.55,3.555,8.695,7.506,12.278,12.04
					c-2.137-2.768-4.272-5.532-6.411-8.299c2.601,3.409,4.788,7.027,6.533,10.945c-1.378-3.265-2.755-6.529-4.133-9.794
					c1.708,4.058,2.851,8.232,3.466,12.592c-0.488-3.634-0.976-7.267-1.464-10.897c0.572,4.804,0.479,9.565-0.139,14.361
					c0.487-3.634,0.978-7.267,1.466-10.897c-0.061,0.394-0.117,0.788-0.176,1.182c24.979-3.265,49.957-6.528,74.938-9.794
					c-8.327-18.103-21.729-34.404-36.303-47.861c-16.079-14.848-34.619-27.67-54.563-36.74
					c-22.855-10.397-45.67-17.056-70.887-18.425c-12.101-0.657-24.644,0.809-36.33,3.828c-13.578,3.512-26.435,10.009-39.278,15.457
					c3.266-1.378,6.528-2.756,9.793-4.134c-7.307,3.071-14.668,5.939-22.344,7.954c-9.205,2.415-18.854,3.577-28.24,5.086
					c-19.35,3.11-38.69,6.747-58.104,9.396c3.633-0.488,7.268-0.979,10.898-1.467c-30.037,3.921-60.296,3.557-90.304-0.464
					c3.636,0.488,7.269,0.978,10.9,1.464c-21.685-3.004-43.038-7.775-64.126-13.606c-19.309-5.339-38.91-10.958-57.408-18.707
					c3.265,1.378,6.529,2.756,9.794,4.134c-16.785-7.102-33.276-15.083-50.596-20.828c-18.146-6.02-39.67-9.071-58.207-2.928
					c-10.333,3.425-18.906,9.287-24.503,18.842c-7.926,13.529-6.379,27.782,0,41.387c10.844,23.128,31.062,41.267,52.333,54.665
					c20.415,12.859,43.983,21.532,67.168,27.928c44.229,12.195,91.169,16.239,136.919,16.348
					c36.313,0.084,72.941-3.235,108.492-10.738c33.644-7.102,67.688-19.492,96.183-38.99
					c-20.076-15.435-40.152-30.867-60.229-46.303c-0.319,1.706-0.799,3.324-1.435,4.94c1.378-3.267,2.755-6.529,4.133-9.795
					c-1.107,2.563-2.53,4.895-4.193,7.134c2.137-2.768,4.272-5.532,6.409-8.298c-3.283,4.208-7.188,7.788-11.379,11.079
					c2.767-2.14,5.531-4.274,8.297-6.411c-13.716,10.502-29.627,17.899-45.461,24.601c3.267-1.378,6.529-2.756,9.795-4.134
					c-9.313,3.913-18.722,7.665-28.162,11.26c-16.35,6.225-33.565,9.884-50.857,12.256c3.633-0.486,7.267-0.977,10.898-1.465
					c-27.713,3.645-56.1,5.397-83.895,1.807c3.634,0.487,7.268,0.978,10.9,1.466c-29.926-4.071-58.774-13.313-86.556-24.971
					c3.267,1.378,6.529,2.756,9.795,4.134c-52.5-22.244-100.764-52.771-150.063-81.104c-12.731-7.316-28.664-7.453-41.387,0
					c-11.704,6.855-21.433,21.325-20.309,35.402c1.028,12.867,3.267,19.688,8.366,31.333c3.278,7.482,9.167,14.144,14.354,20.229
					c9.084,10.655,21.129,19.083,32.524,27.006c20.146,14.003,41.354,26.677,62.027,39.871
					c26.885,17.16,55.129,31.373,86.296,38.857c30.803,7.396,62.82,10.398,94.392,12.236c32.257,1.877,65.209,4.038,97.352-0.178
					c18.812-2.468,37.098-5.676,54.87-12.516c10.356-3.986,20.604-8.438,30.287-13.886c9.825-5.533,18.697-12.484,27.523-19.465
					c-21.465-16.563-42.929-33.122-64.395-49.686c-2.456,4.421-5.188,8.63-8.252,12.653c2.137-2.768,4.271-5.531,6.41-8.298
					c-4.715,5.984-10.052,11.313-16.033,16.031c2.766-2.137,5.531-4.272,8.298-6.409c-7.396,5.651-15.45,10.171-24.007,13.813
					c3.266-1.378,6.529-2.756,9.795-4.133c-14.084,5.813-28.695,8.633-43.6,11.401c-16.639,3.093-33.113,7.009-49.887,9.354
					c3.635-0.488,7.268-0.977,10.898-1.465c-12.584,1.677-25.244,2.425-37.886,0.917c3.634,0.488,7.267,0.976,10.898,1.464
					c-7.722-1.044-15.177-2.935-22.388-5.9c3.265,1.378,6.527,2.757,9.793,4.136c-8.518-3.708-15.979-8.966-23.301-14.598
					c2.767,2.139,5.531,4.273,8.299,6.411c-20.371-15.759-39.889-33.518-55.721-53.898c2.137,2.767,4.273,5.53,6.41,8.298
					c-5.416-7.068-10.404-14.526-13.882-22.758c1.377,3.266,2.755,6.529,4.133,9.796c-1.378-3.407-2.454-6.884-3-10.523
					c0.488,3.634,0.978,7.267,1.466,10.898c-0.279-2.243-0.34-4.455-0.099-6.706c-0.487,3.633-0.977,7.266-1.464,10.896
					c0.266-1.895,0.735-3.688,1.461-5.462c-1.378,3.265-2.756,6.529-4.133,9.794c1.265-2.79,3.161-5.165,5.021-7.582
					c-2.138,2.769-4.274,5.532-6.412,8.298c8.5-10.735,18.993-19.397,29.402-28.19c12.518-10.573,23.674-22.241,32.448-36.216
					c23.062-36.732,20.528-86.555,9.263-126.729c-4.929-17.576-21.23-30.101-39.535-30.101c-18.444,0-34.421,12.549-39.535,30.101
					c-7.498,25.731-14.805,51.579-25.125,76.359c1.377-3.267,2.755-6.529,4.133-9.795c-5.798,13.723-12.484,27.136-21.375,39.142
					c23.603,0,47.203,0,70.806,0c-0.525-1.114-1.025-2.236-1.508-3.37c1.379,3.266,2.756,6.529,4.134,9.794
					c-3.02-7.388-4.908-15.125-5.979-23.021c0.488,3.633,0.979,7.266,1.466,10.897c-1.146-9.117-1.172-18.297-0.021-27.416
					c-0.488,3.635-0.977,7.269-1.464,10.899c1.038-7.565,2.883-14.949,5.806-22.014c-1.377,3.266-2.755,6.528-4.133,9.795
					c2.099-4.873,4.669-9.459,7.87-13.693c-2.138,2.767-4.273,5.532-6.411,8.298c2.598-3.309,5.5-6.271,8.803-8.882
					c-2.767,2.138-5.531,4.273-8.299,6.411c3.148-2.384,6.506-4.336,10.135-5.896c-3.266,1.378-6.529,2.756-9.795,4.135
					c3.926-1.586,7.955-2.635,12.145-3.238c-3.633,0.487-7.267,0.977-10.899,1.465c4.828-0.596,9.767-0.728,14.599-0.094
					c-3.634-0.488-7.269-0.979-10.899-1.465c3.078,0.479,6.021,1.308,8.893,2.515c-3.266-1.377-6.528-2.755-9.794-4.133
					c2.791,1.253,5.375,2.803,7.825,4.634c-2.766-2.138-5.531-4.273-8.298-6.41c3.691,2.874,6.872,6.24,9.743,9.927
					c-2.138-2.767-4.274-5.531-6.411-8.299c5.994,7.909,10.414,16.831,14.294,25.929c-1.377-3.266-2.755-6.528-4.133-9.795
					c6.552,15.566,11.489,31.735,17.38,47.552c7.126,19.134,15.023,38.333,29.564,53.164c7.543,7.693,18.252,12.01,28.989,12.01
					c10.039,0,22.311-4.061,28.991-12.01c6.9-8.209,13.263-16.687,18.128-26.239c5.104-10.023,9.209-20.658,12.802-31.316
					c5.224-15.497,9.143-31.405,15.397-46.548c-1.378,3.266-2.756,6.529-4.133,9.794c3.688-8.689,8.127-16.942,13.848-24.475
					c-2.137,2.766-4.272,5.53-6.41,8.298c0.938-1.189,1.893-2.357,2.869-3.514c-16.562,2.138-33.123,4.273-49.685,6.411
					c0.354,0.271,0.709,0.539,1.063,0.811c-2.767-2.138-5.531-4.273-8.297-6.411c0.666,0.581,1.265,1.226,1.795,1.933
					c-2.139-2.766-4.273-5.531-6.411-8.298c1.028,1.494,1.827,3.014,2.548,4.678c-1.378-3.266-2.755-6.528-4.133-9.794
					c0.771,2.004,1.425,4.041,2.092,6.08c6.932,21.228,28.122,34.773,50.436,28.637c20.774-5.715,35.574-29.188,28.636-50.436
					c-1.914-5.862-4.293-11.408-6.758-17.105c-3.986-9.217-11.927-15.068-19.583-20.896c-6.396-3.709-13.293-5.574-20.692-5.598
					c-10.077,0-22.263,4.069-28.991,12.009c-7.105,8.383-13.687,17.143-18.774,26.888c-5.286,10.121-9.478,20.915-13.189,31.706
					c-5.454,15.846-9.36,32.191-15.771,47.705c1.378-3.265,2.756-6.528,4.134-9.794c-3.376,7.947-7.402,15.512-12.59,22.433
					c2.137-2.767,4.273-5.53,6.411-8.298c-0.888,1.141-1.79,2.257-2.72,3.36c19.327,0,38.655,0,57.981,0
					c-1.232-1.259-2.382-2.579-3.475-3.961c2.137,2.767,4.272,5.531,6.41,8.298c-4.84-6.318-8.342-13.516-11.459-20.805
					c1.377,3.265,2.756,6.528,4.133,9.794c-15.422-36.578-22.658-79.729-52.183-108.486c-9.683-9.431-21.478-16.446-34.492-20.146
					c-14.483-4.119-30.333-3.071-44.854-0.013c-25.081,5.284-47.678,24.977-58.366,47.947
					c-17.654,37.948-16.907,81.315,0.891,119.057c6.002,12.729,21.953,20.308,35.402,20.308c7.4-0.023,14.299-1.89,20.692-5.599
					c6.161-3.646,11.063-8.548,14.709-14.709c14.097-19.034,23.172-41.737,31.332-63.786c7.462-20.162,13.292-40.881,19.301-61.508
					c-26.355,0-52.714,0-79.07,0c2.241,7.992,3.909,16.101,5.075,24.316c-0.487-3.633-0.977-7.266-1.465-10.898
					c1.741,13.165,2.176,26.443,0.51,39.642c0.488-3.633,0.979-7.268,1.466-10.899c-1.066,7.534-2.898,14.798-5.85,21.82
					c1.378-3.266,2.755-6.529,4.134-9.794c-2.629,5.947-5.943,11.439-9.916,16.587c2.137-2.768,4.273-5.532,6.41-8.298
					c-13.02,16.366-31.166,27.492-45.27,42.816c-9.257,10.063-19.604,22.509-22.048,36.488c-2.345,13.417-2.184,26.936,2.998,39.74
					c4.517,11.162,9.478,21.119,16.656,30.765c7.694,10.338,15.794,20.213,24.744,29.479c14.697,15.213,30.976,28.56,47.715,41.434
					c6.671,5.131,13.511,9.922,21.188,13.452c16.655,7.661,32.354,11.357,50.696,12.723c14.802,1.103,29.611-1.158,44.223-3.202
					c11.923-1.667,23.714-4.202,35.503-6.606c11.126-2.271,22.389-3.942,33.439-6.55c13.105-3.093,25.642-8.086,37.819-13.782
					c24.252-11.342,44.961-31.637,57.906-54.936c8.979-16.16,6.827-36.445-6.411-49.686c-7.653-7.653-18.161-12.009-28.991-12.009
					c-11.875,0-20.053,4.939-28.99,12.009c-0.442,0.351-0.886,0.699-1.327,1.05c2.767-2.138,5.53-4.272,8.299-6.41
					c-10.448,8.07-21.787,14.694-33.905,19.926c3.265-1.378,6.528-2.756,9.794-4.134c-15.521,6.513-31.81,10.577-48.459,12.883
					c3.633-0.488,7.266-0.979,10.898-1.466c-23.47,3.078-46.953,2.259-70.533,1.401c-25.094-0.911-50.191-2.327-75.098-5.622
					c3.633,0.488,7.267,0.978,10.898,1.465c-22.651-3.084-45.56-7.478-66.743-16.314c3.266,1.378,6.529,2.755,9.795,4.133
					c-23.459-10.065-44.632-24.565-65.986-38.374c-16.618-10.744-33.977-20.563-49.711-32.616c2.767,2.139,5.531,4.274,8.298,6.411
					c-6.546-5.1-12.745-10.616-17.896-17.149c2.138,2.767,4.273,5.531,6.411,8.298c-2.384-3.154-4.438-6.449-6.025-10.077
					c1.378,3.266,2.755,6.529,4.133,9.795c-0.97-2.422-1.675-4.854-2.095-7.429c0.487,3.634,0.978,7.267,1.465,10.898
					c-0.104-0.722-0.177-1.447-0.22-2.175c-20.563,11.801-41.129,23.602-61.692,35.401c52.52,30.186,103.854,61.736,159.856,85.235
					c26.245,11.014,53.425,19.861,81.603,24.264c16.771,2.62,33.591,4.471,50.579,4.145c15.196-0.292,30.487-1.496,45.573-3.314
					c23.518-2.834,46.639-6.83,68.772-15.506c14.195-5.563,28.354-11.241,42.293-17.432c12.822-5.695,25.515-12.118,36.786-20.538
					c16.211-12.109,32.828-27.377,36.765-48.354c2.763-14.727,0.45-28.896-10.544-39.892c-12.333-12.333-34.613-16.725-49.686-6.411
					c-11.211,7.672-23.2,14.008-35.699,19.308c3.265-1.378,6.528-2.755,9.794-4.134c-25.507,10.625-52.556,16.862-79.878,20.574
					c3.633-0.487,7.268-0.978,10.897-1.465c-47.285,6.246-96.091,5.873-143.358-0.467c3.633,0.487,7.266,0.977,10.897,1.465
					c-28.649-3.914-57.265-10.195-84-21.421c3.265,1.378,6.528,2.755,9.793,4.133c-12.498-5.336-24.495-11.791-35.297-20.081
					c2.767,2.139,5.532,4.273,8.299,6.411c-6.401-5.018-12.248-10.617-17.31-16.995c2.138,2.768,4.273,5.532,6.411,8.298
					c-3.708-4.805-6.878-9.92-9.455-15.417c-8.167,20.076-16.335,40.152-24.503,60.229c2.108-0.698,4.222-1.181,6.42-1.497
					c-3.633,0.487-7.267,0.977-10.899,1.465c4.385-0.496,8.715-0.302,13.079,0.278c-3.633-0.487-7.266-0.978-10.898-1.464
					c12.423,1.891,24.229,6.5,35.756,11.343c-3.267-1.379-6.529-2.757-9.795-4.134c13.328,5.647,26.465,11.789,39.996,16.942
					c12.647,4.818,25.823,8.585,38.795,12.425c31.434,9.305,63.327,15.737,95.92,19.328c33.559,3.697,66.856,1.646,100.13-3.688
					c16.224-2.602,32.42-5.403,48.646-7.992c15.148-2.417,29.935-4.813,44.271-10.442c8.582-3.369,17.011-7.13,25.495-10.734
					c-3.265,1.379-6.528,2.756-9.793,4.134c9.474-3.99,19.069-7.75,29.311-9.168c-3.633,0.487-7.267,0.977-10.898,1.465
					c8.556-0.946,17.111-0.738,25.645,0.34c-3.633-0.487-7.267-0.978-10.898-1.465c12.679,1.748,24.938,5.339,36.752,10.228
					c-3.266-1.378-6.528-2.756-9.793-4.134c13.989,5.934,27.121,13.595,39.211,22.799c-2.768-2.138-5.531-4.272-8.299-6.41
					c10.447,8.095,19.978,17.255,28.098,27.697c-2.137-2.766-4.273-5.53-6.41-8.298c5.021,6.603,9.396,13.603,12.864,21.143
					c5.863,12.749,22.061,20.308,35.4,20.308c7.401-0.022,14.3-1.89,20.693-5.599c8.244-4.829,17.374-14.595,18.842-24.503
					c2.333-15.734,3.281-30.766-1.733-46.242c-4.634-14.289-12.162-26.313-22.397-37.264c-16.652-17.816-39.87-28.486-62.381-36.626
					c-16.237-5.87-33.175-9.653-50.122-12.804c-33.246-6.18-66.227-9.701-99.465-1.081c-7.641,1.981-14.956,5.223-22.152,8.376
					c-6.813,2.985-12.562,8.172-18.279,12.797c-9.116,7.371-16.561,17.236-23.068,26.84c-6.514,9.605-11.641,21.125-13.947,32.481
					c-1.384,6.81-2.521,14.043-2.025,21.044c0.877,12.332,3.227,19.08,8.14,30.271c3.646,6.161,8.548,11.063,14.709,14.709
					c10.229,5.992,20.295,6.055,31.593,4.134c5.018-0.854,9.627-3.812,14.301-5.883c-3.265,1.378-6.527,2.757-9.793,4.134
					c1.146-0.467,2.243-0.854,3.443-1.146c-3.634,0.487-7.268,0.977-10.898,1.464c5.842-0.572,11.818-0.668,17.592-2.116
					c6.061-1.521,11.82-4.489,17.41-7.237c6.746-3.314,13.008-7.526,19.877-10.606c-3.266,1.378-6.528,2.756-9.795,4.134
					c3.938-1.653,7.938-2.448,12.146-3.105c-3.633,0.487-7.266,0.977-10.898,1.464c16.762-2.239,34.986-1.512,51.729,0.6
					c-3.633-0.487-7.267-0.978-10.899-1.464c35.565,4.786,71.471,15.821,107.077,4.9c15.039-4.611,30.661-12.885,41.007-25.015
					c12.537-14.697,19.006-30.924,20.062-50.258c1.603-29.405-16.118-59.771-36.916-79.308
					c-18.078-16.981-41.159-28.7-65.427-33.689c-38.422-7.897-78.183-3.417-115.721,6.889
					c-32.794,9.002-65.297,22.648-94.387,40.312c-19.069,11.576-26.146,36.572-14.709,56.096
					c5.369,9.165,14.255,16.022,24.503,18.843c11.125,3.062,21.523,0.95,31.593-4.134c9.306-4.698,16.787-11.814,22.211-20.709
					c-4.903,4.903-9.807,9.807-14.709,14.709c30.431-20.37,58.758-44.525,92.629-59.2c-3.266,1.378-6.528,2.756-9.795,4.134
					c11.041-4.656,22.367-7.999,34.235-9.712c-3.635,0.487-7.268,0.978-10.899,1.465c14.066-1.86,28.193-1.727,42.261,0.063
					c-3.634-0.487-7.268-0.978-10.898-1.465c17.598,2.412,34.648,7.317,51.021,14.174c-3.267-1.377-6.528-2.755-9.795-4.133
					c22.709,9.72,44.474,23.22,64.076,38.244c-2.766-2.138-5.531-4.272-8.298-6.41c7.9,6.146,15.313,12.859,21.545,20.723
					c-2.137-2.767-4.271-5.531-6.411-8.298c3.808,4.95,7.021,10.219,9.476,15.969c-1.379-3.266-2.757-6.528-4.134-9.794
					c1.893,4.698,3.189,9.51,3.903,14.525c-0.487-3.634-0.977-7.268-1.464-10.898c0.651,5.463,0.575,10.873-0.104,16.331
					c0.487-3.635,0.977-7.268,1.464-10.898c-1.491,10.253-4.41,20.224-8.354,29.792c1.378-3.267,2.757-6.53,4.135-9.795
					c-4.802,11.284-10.993,21.828-18.466,31.551c2.137-2.768,4.272-5.531,6.409-8.298c-6.6,8.391-14.038,15.979-22.44,22.57
					c2.767-2.137,5.531-4.273,8.298-6.41c-7.047,5.379-14.584,9.919-22.743,13.401c3.265-1.378,6.528-2.755,9.794-4.134
					c-4.109,1.677-8.211,3.228-12.609,3.927c3.634-0.487,7.268-0.978,10.899-1.464c-2.647,0.344-5.253,0.393-7.908,0.107
					c3.634,0.487,7.268,0.978,10.899,1.465c-2.812-0.383-5.48-1.115-8.107-2.184c3.266,1.379,6.529,2.757,9.794,4.134
					c-3.21-1.397-6.147-3.203-8.941-5.309c2.768,2.138,5.531,4.272,8.298,6.41c-6.173-4.819-11.293-10.757-16.065-16.93
					c2.137,2.767,4.273,5.53,6.411,8.298c-12.643-16.539-23.268-34.644-37.49-49.959c-22.119-23.814-55.093-33-86.929-30.825
					c-35.05,2.396-67.346,15.356-99.169,29.294c-23.112,10.122-45.076,22.611-67.625,33.888c-7.852,3.927-15.8,7.659-23.879,11.096
					c3.266-1.377,6.529-2.755,9.795-4.134c-17.086,7.173-34.752,12.701-53.154,15.18c3.633-0.487,7.267-0.978,10.898-1.465
					c-14.098,1.768-28.233,1.693-42.323-0.102c3.633,0.487,7.268,0.978,10.897,1.465c-36.277-4.981-71.106-19.447-104.627-33.578
					c3.266,1.377,6.528,2.755,9.793,4.133c-9.23-3.904-18.152-7.94-26.658-13.282c-7.876-4.944-15.313-10.562-22.864-15.978
					c-7.275-5.218-14.708-10.228-22.718-14.26c-14.866-7.482-28.117-10.998-44.563-12.746c-12.796-1.359-26.271,1.354-38.58,4.758
					c-12.979,3.589-25.523,9.59-37.287,16.096c-18.207,10.07-34.991,22.674-54.231,30.828c3.265-1.378,6.528-2.756,9.794-4.133
					c-6.926,2.837-14.02,4.991-21.426,6.126c3.634-0.488,7.267-0.978,10.898-1.465c-4.391,0.585-8.871,0.996-13.288,0.474
					c3.634,0.488,7.267,0.978,10.899,1.465c-7.133-0.97-14.01-3.479-20.613-6.253c3.266,1.378,6.529,2.757,9.794,4.135
					c-11.274-4.826-22.057-10.909-31.82-18.347c2.766,2.138,5.532,4.273,8.298,6.411c-4.946-3.836-9.62-8.021-13.51-12.946
					c2.137,2.768,4.274,5.532,6.411,8.299c-1.796-2.354-3.365-4.824-4.531-7.554c1.378,3.266,2.756,6.529,4.133,9.794
					c-0.633-1.607-1.092-3.227-1.327-4.939c0.488,3.634,0.977,7.267,1.464,10.898c-0.118-1.214-0.114-2.392,0.029-3.604
					c-0.488,3.634-0.977,7.267-1.465,10.899c0.199-1.214,0.524-2.347,0.995-3.479c-1.377,3.265-2.755,6.528-4.133,9.794
					c0.561-1.196,1.236-2.277,2.041-3.326c-2.137,2.767-4.274,5.532-6.411,8.298c1.14-1.367,2.409-2.548,3.81-3.646
					c-2.766,2.138-5.532,4.273-8.298,6.411c2.597-1.906,5.405-3.386,8.354-4.671c9.188-4.006,16.303-15.271,18.842-24.503
					c2.911-10.582,1.414-22.124-4.133-31.594c-5.369-9.165-14.254-16.022-24.503-18.842
					C383.653,636.313,374.246,639.025,363.665,643.639L363.665,643.639z"/>
			</g>
		</g>
		<g>
			<g>
				<path fill="#FFFFFF" d="M811.193,313.098c-2.327-1.494-4.575-3.084-6.771-4.766c2.767,2.137,5.532,4.274,8.299,6.411
					c-9-7.072-16.759-15.486-23.755-24.518c2.137,2.766,4.274,5.532,6.411,8.298c-11.194-14.688-20.3-30.845-27.53-47.823
					c1.378,3.265,2.756,6.53,4.133,9.794c-5.994-14.338-10.694-29.258-12.901-44.672c0.487,3.633,0.976,7.266,1.464,10.899
					c-1.136-8.54-1.336-17.029-0.314-25.596c-0.486,3.633-0.977,7.266-1.465,10.899c1.33-9.691,4.124-18.95,7.9-27.958
					c-1.378,3.265-2.756,6.529-4.133,9.794c8.447-19.577,20.735-37.182,29.375-56.669c4.666-10.527,7.312-20.038,4.133-31.593
					c-2.602-9.452-9.646-20.208-18.842-24.503c-16.299-7.611-31.503-12.475-49.618-13.299c-15.062-0.685-30.92,3.525-43.933,11.034
					c-27.908,16.108-41.196,49.563-38.474,80.767c1.647,18.864,7.631,37.078,13.801,54.88c7.063,20.372,14.829,41.561,26.632,59.73
					c9.525,14.665,21.055,26.259,37.998,31.827c21.235,6.978,44.729-7.893,50.436-28.636c6.146-22.343-7.424-43.464-28.636-50.435
					c-0.332-0.1-0.658-0.216-0.979-0.349c3.266,1.378,6.529,2.755,9.794,4.133c-1.251-0.551-2.375-1.254-3.466-2.073
					c2.766,2.137,5.532,4.274,8.298,6.411c-2.292-1.83-4.226-3.997-6.028-6.3c2.138,2.766,4.273,5.532,6.41,8.298
					c-7.078-9.316-12.053-20.179-16.607-30.892c1.378,3.265,2.755,6.53,4.133,9.794c-8.671-20.613-16.45-42.418-20.917-64.386
					c0.487,3.633,0.976,7.266,1.464,10.899c-0.764-6.265-0.917-12.507-0.125-18.777c-0.488,3.633-0.977,7.267-1.464,10.899
					c0.62-4.185,1.644-8.217,3.224-12.145c-1.378,3.265-2.755,6.529-4.133,9.794c1.382-3.195,3.074-6.154,5.185-8.925
					c-2.138,2.766-4.272,5.532-6.41,8.298c1.875-2.325,3.951-4.38,6.302-6.223c-2.767,2.137-5.532,4.274-8.298,6.411
					c2.404-1.776,4.94-3.232,7.679-4.433c-3.265,1.377-6.529,2.755-9.794,4.133c3.22-1.31,6.511-2.192,9.941-2.735
					c-3.634,0.488-7.269,0.976-10.9,1.464c4.937-0.662,9.837-0.579,14.771,0.051c-3.634-0.488-7.267-0.977-10.898-1.464
					c6.581,0.97,12.884,2.863,19.027,5.394c-3.267-1.377-6.53-2.755-9.795-4.133c1.343,0.578,2.672,1.175,3.995,1.793
					c-4.901-18.699-9.806-37.397-14.709-56.096c-4.752,10.725-10.571,20.897-16.321,31.108
					c-7.455,13.24-14.021,26.726-19.427,40.962c-10.356,27.284-9.183,57.112-2.352,85.042c6.141,25.111,17.3,49.796,30.958,71.695
					c14.474,23.208,32.694,44.42,55.853,59.288c18.824,12.086,45.16,3.958,56.097-14.709
					C837.554,349.304,829.962,325.147,811.193,313.098L811.193,313.098z"/>
			</g>
		</g>
		<g>
			<g>
				<path fill="#FFFFFF" d="M967.77,72.725c-0.01-0.036-0.018-0.073-0.027-0.109"/>
				<path fill="#FFFFFF" d="M983.487,203.512c-3.572-3.549-7.602-6.316-12.067-8.337c0.534-2.984,0.973-5.977,1.304-8.975
					c3.514-5.996,5.42-12.787,4.778-19.702c-0.275-2.972-0.611-5.924-0.999-8.859c0.433-2.3,0.755-4.675,0.997-7.14
					c1.056-10.767,0.318-21.574-1.112-32.271c-1.585-11.861-3.5-23.518-6.099-35.115c-7.338-0.993-14.649-2.183-21.929-3.518
					c-29.54-5.417-58.66-12.934-88.257-18.049c-14.927-2.58-29.975-4.618-45.119-5.3c-15.321-0.689-30.582,0.277-45.888,0.893
					c-47.909,1.927-96.193,3.242-143.657,10.32c-2.994,11.277-4.775,22.877-5.683,34.503c-1.013,12.989,0.396,27.296,5.208,39.436
					c1.398,4.983,3.616,9.487,6.626,13.528c-3.402,11.336-4.648,23.583-4.83,35.263c-0.396,25.742,6.463,51.401,10.82,76.624
					c0.484,2.8,0.925,5.607,1.347,8.417c0.204,1.755,0.396,3.512,0.572,5.271c0.108,1.084,0.236,2.146,0.375,3.198
					c-3.57,22.134-2.605,43.928,2.965,65.914c0.058,0.227,0.123,0.452,0.181,0.679c0.128,13.805,1.57,27.492,3.938,41.109
					c2.581,14.84,16.704,25.92,31.146,29.14c10.364,13.875,22.142,26.78,35.253,38.022c16.45,14.104,34.427,26.842,54.439,35.346
					c3.266,1.378,6.529,2.756,9.794,4.133c7.267,1.953,14.533,1.953,21.799,0c10.248-2.818,19.134-9.677,24.503-18.842
					c8.631-14.734,6.72-33.124-3.253-46.007c-2.845-15.097-13.653-28.849-29.253-32.223c-1.089-0.235-2.156-0.523-3.214-0.834
					c-2-3.245-3.938-6.529-5.863-9.823c0.441-0.789,0.858-1.591,1.247-2.408c6.287-2.649,10.999-6.294,16.774-11.171
					c6.068-5.125,10.872-12.454,14.814-19.619c1.261,1.7,2.539,3.397,3.854,5.092c16.063,20.706,42.276,33.509,68.646,31.867
					c28.426-1.771,54.156-14.684,72.678-36.411c17.021-19.971,29.605-43.818,35.406-69.508c4.733-20.968,6.637-46.156-1.697-66.551
					C992.085,214.658,988.569,208.628,983.487,203.512z M879.68,307.316c0.229,0.014,0.459,0.024,0.689,0.034
					c1.273,1.717,2.67,3.328,4.182,4.819c-0.171,0.002-0.341-0.001-0.512-0.001c-1.295-1.249-2.53-2.556-3.721-3.907
					C880.102,307.948,879.894,307.63,879.68,307.316z M827.188,241.102c-8.641-6.073-21.737-6.844-31.594-4.133
					c-10.897,2.998-18.229,9.804-24.503,18.842c-2.233,3.218-4.089,6.787-5.757,10.471c-1.426-1.928-3.006-3.723-4.718-5.371
					c1.551-4.468,2.393-9.253,2.883-14.41h0.002c0-0.007,0-0.014,0-0.021c0.236-2.486,0.487-4.973,0.745-7.459
					c16.567,2.543,32.709-5.521,41.66-19.828c4.753-7.599,8.854-15.493,12.433-23.602c3.863,2.867,8.309,5.082,13.262,6.444
					c7.577,2.084,15.644,1.896,23.093-0.408c0.244,4.288,0.506,8.575,0.807,12.859c0,0.004,0,0.009,0,0.014h0.001
					c0.24,3.425,0.706,6.717,1.466,9.87c-3.211,6.919-6.404,13.847-9.494,20.822c-0.125,0.207-0.253,0.41-0.376,0.617
					c0.028,0.012,0.057,0.024,0.085,0.036c-1.307,2.958-2.595,5.926-3.853,8.908C838.445,249.819,833.113,245.267,827.188,241.102z"
					/>
			</g>
		</g>
	</g>
	<g id="Layer_1_1_">
		<path fill="none" stroke="#000000" stroke-miterlimit="10" d="M604.542,136.425c5.033,93.184-75.501,171.525-26.975,267.29
			c20.649,40.784,57.046,71.371,89.183,105.188c30.975,32.522,48.657,71.112,73.565,107.51 M998.572,127.391
			c17.938,43.365,63.628,72.663,77.051,122.223c14.842,54.852-7.1,96.15-31.621,141.583
			c-39.493,73.049-71.242,154.617-108.93,229.859 M545.69,756.832c66.854,0,105.571,0.516,158.358,41.944
			c47.237,37.042,93.186,60.015,154.104,62.339c80.403,3.097,96.926-33.816,139.388-83.118
			c32.266-37.429,124.157-50.204,155.004,1.421 M604.542,507.74c-43.365-47.625-148.81-41.816-200.564-13.939
			c-61.692,33.17-90.085,81.439-93.7,155.265c-2.065,40.653-24.651,183.14,8.906,198.497c18.585,8.521,80.535-10.842,98.733-10.453
			c29.298,0.646,62.596,16.648,65.177-34.33c15.229-2.71,22.975,4.646,30.977,17.553"/>
		<g opacity="0.1">
			<path d="M996.637,566.851c32.652-11.356,62.726-29.038,96.151-38.461c16.004-4.646,33.04-6.841,49.688-4.13
				c15.488,2.452,29.3,9.164,42.334,17.684c26.199,17.165,48.271,40.913,68.146,64.919c18.973,22.973,37.17,48.396,49.303,75.76
				c4.775,10.841,7.485,23.618,5.68,35.492c-1.809,11.484-7.1,21.683-13.424,31.36c-7.098,10.973-15.485,21.037-23.358,31.233
				c-8.905,11.615-16.393,24.005-24.78,35.88c-12.26,17.553-29.039,30.717-51.109,30.071c-24.393-0.774-48.396-14.713-69.436-25.686
				c-11.1-5.808-20.778,10.843-9.809,16.778c24.521,12.906,50.979,26.845,79.242,28.396c25.942,1.419,47.496-13.425,62.984-33.17
				c9.809-12.648,17.68-26.719,27.36-39.493c8.519-11.358,17.683-22.327,25.554-34.202c16.393-24.651,20.909-52.143,10.326-80.148
				c-10.713-28.521-30.201-54.465-48.787-78.211c-19.875-25.427-42.461-49.045-68.273-68.662
				c-26.326-19.876-56.916-31.104-90.215-27.62c-35.104,3.614-66.982,20.265-98.861,34.202c-7.871,3.484-15.875,6.582-23.877,9.422
				C979.729,552.266,984.763,570.98,996.637,566.851L996.637,566.851z"/>
		</g>
		<g opacity="0.1">
			<path d="M1044.519,100.545c15.616,26.2,31.104,53.045,39.752,82.6c6.971,24.264,7.229,49.302,3.228,74.083
				c-5.808,35.88-17.682,70.856-27.619,105.703c-11.356,39.88-22.973,79.632-35.233,119.253
				c-8.519,27.362-17.293,54.726-26.328,81.956c-4.001,11.873,14.714,16.906,18.714,5.162
				c26.459-79.374,50.077-159.521,72.402-240.058c8.648-30.977,17.813-61.563,19.877-93.829c1.55-25.813-3.098-51.238-12.391-75.244
				c-9.293-24.264-22.328-46.979-35.621-69.307C1054.844,80.024,1038.065,89.833,1044.519,100.545L1044.519,100.545z"/>
		</g>
		<g opacity="0.1">
			<path d="M958.435,145.847c18.584,29.297,32.522,60.918,38.073,95.249c4.388,27.749,1.806,56.271-4.389,83.502
				c-13.164,57.563-40.913,110.607-57.563,167.009c-6.322,21.554-10.842,43.493-13.552,65.82c-0.646,5.292,4.904,9.681,9.681,9.681
				c5.81,0,9.033-4.389,9.682-9.681c7.354-60.918,33.168-116.673,53.945-173.718c9.811-26.975,18.068-54.594,21.813-83.118
				c3.871-29.555,1.937-59.498-5.809-88.279c-7.355-27.103-20.005-52.658-34.978-76.276
				C968.5,125.584,951.723,135.263,958.435,145.847L958.435,145.847z"/>
		</g>
		<g opacity="0.1">
			<path d="M967.597,254.518c16.004,28.265,26.717,59.111,30.717,91.375c3.873,31.233,1.681,62.854-4.129,93.571
				c-11.874,62.982-37.943,122.353-62.726,181.076c-2.064,4.904-1.549,10.324,3.485,13.293c4.129,2.452,11.228,1.42,13.291-3.484
				c25.813-61.047,52.918-122.479,65.179-187.916c6.065-32.522,8.131-65.82,4.13-98.731c-4.388-34.979-15.745-68.275-33.04-98.863
				C978.051,233.868,961.402,243.547,967.597,254.518L967.597,254.518z"/>
		</g>
		<g opacity="0.1">
			<path d="M568.018,129.327c-14.066,59.756-25.94,121.19-23.877,182.882c1.938,54.464,17.166,107.251,47.108,153.068
				c20.263,30.847,46.076,57.563,74.211,81.052c9.551,8.003,23.231-5.679,13.68-13.681c-44.654-37.301-82.6-82.729-101.441-138.484
				c-17.684-52.399-16.907-108.542-9.938-162.749c4.259-32.652,11.102-64.918,18.714-96.797
				C589.571,122.228,570.986,117.195,568.018,129.327L568.018,129.327z"/>
		</g>
		<g opacity="0.1">
			<path d="M567.759,190.76c-5.034,64.661,9.551,130.612,29.427,191.788c20.264,62.466,47.884,123.645,84.149,178.495
				c0.258,0.516,0.645,0.903,0.904,1.42c6.84,10.324,23.619,0.646,16.776-9.809c-35.491-53.436-62.338-112.544-82.472-173.333
				c-19.876-60.146-34.331-124.935-29.426-188.563C588.022,178.241,568.663,178.371,567.759,190.76L567.759,190.76z"/>
		</g>
		<g opacity="0.1">
			<path d="M513.423,421.654c0,9.032,0,18.067,0,27.23c4.13-3.097,8.132-6.192,12.262-9.292c2.711,0.518,3.872,4.519,3.099,1.419
				c-0.258-1.031-0.258-1.937-0.388-2.969c-0.259-2.323-0.259-4.775-0.259-7.227c0-4.775-4.388-10.325-9.68-9.681
				c-3.742,0.518-6.582,1.419-9.55,3.613c-2.323,1.807-5.292,5.163-8.52,5.421c3.099,4.13,6.195,8.131,9.292,12.261
				c0.774-3.741,1.55-7.613,2.452-11.355c0.389-1.548,0.774-3.099,1.29-4.52c0.519-1.419-0.129-0.129,1.033-1.935
				c0.646-0.904,0.646-0.904,0-0.129c0.388-0.389,0.772-0.903,1.292-1.291c0.773-0.774,0.387-0.258,2.063-1.419
				c3.229-1.938,6.713-3.614,10.067-5.292c-4.774-3.613-9.422-7.229-14.197-10.972c-0.902,5.422-1.549,10.713-1.937,16.134
				c-0.128,1.937-0.257,3.872-0.387,5.808c0.258-2.194-0.39,1.808-0.646,2.581c0.903-2.968-1.807,2.064,0-0.129
				c-1.678,1.936-0.903,1.162-2.969,2.452c-5.163,3.354-11.1,5.678-16.778,8.13c-10.065,4.389-2.711,21.812,7.485,17.683
				c15.875-6.453,34.072-2.322,48.916,5.162c15.486,7.744,31.621,21.685,33.941,39.881c4.904-2.84,9.682-5.55,14.584-8.39
				c-22.585-14.326-42.849-35.492-57.433-57.949c-6.841-10.584-13.165-23.359-13.551-35.493
				c-0.389-11.355,5.937-19.746,16.647-25.683c-4.389-1.161-8.775-2.323-13.294-3.485c27.491,46.076,40.913,105.059,89.57,134.742
				c6.97,4.26,17.037-2.84,14.197-10.97c-6.582-19.23-17.165-37.43-34.978-48.142c-15.615-9.423-34.331-10.324-51.883-7.484
				c-41.688,6.711-79.89,34.847-111.124,61.689c-16.262,14.068-31.62,29.428-45.43,45.946
				c-10.97,13.036-21.683,26.977-29.297,42.462c-4.388,9.035-7.098,18.715-10.325,28.268c-4.646,14.195-9.164,28.393-13.165,42.848
				c-7.615,27.75-14.584,57.563-10.583,86.473c2.452,18.197,13.293,34.591,24.651,48.527c13.423,16.391,30.33,30.072,48.657,40.655
				c17.166,9.938,36.912,17.166,57.045,17.166c19.875,0,36.783-9.293,48.785-24.78c3.229-4.131,0.646-10.842-3.483-13.294
				c-5.033-2.968-10.067-0.646-13.293,3.484c-13.423,17.554-36.01,17.293-55.368,11.356c-24.006-7.356-45.559-23.359-62.596-41.559
				c-15.617-16.649-26.329-35.751-26.2-58.982c0.129-29.555,9.292-59.109,17.94-87.117c4.001-12.775,8.26-25.555,12.519-38.332
				c0.258-0.646,0.516-1.291,0.774-1.936c0.903-2.322-0.903,1.936,0.129-0.388c0.646-1.42,1.291-2.84,1.937-4.261
				c1.678-3.354,3.614-6.581,5.549-9.809c9.68-15.875,21.167-29.298,33.944-42.979c29.426-31.488,64.273-60.399,103.896-77.952
				c9.164-4.132,19.875-7.356,30.201-9.163c7.615-1.291,17.811-1.161,25.426,0.773c8.261,2.064,15.102,6.193,21.295,12.391
				c7.486,7.613,12.778,18.197,16.393,28.908c4.774-3.611,9.422-7.227,14.195-10.971c-21.554-13.164-35.232-34.33-46.721-56.271
				c-12.39-23.618-22.069-48.656-35.75-71.63c-2.71-4.646-8.646-6.065-13.293-3.484c-69.565,38.59,14.197,127.127,54.335,152.553
				c5.679,3.613,15.487-1.033,14.584-8.39c-3.098-24.522-19.747-43.365-40.785-55.11c-19.229-10.841-45.43-17.165-66.596-8.519
				c2.452,5.938,5.033,11.745,7.485,17.683c9.551-4.131,21.939-8.52,27.104-18.457c4.388-8.389,3.097-18.972,4.519-28.136
				c1.291-8.39-6.195-14.972-14.197-10.971c-7.229,3.613-14.454,6.971-19.358,13.553c-5.034,6.711-6.194,16.004-7.744,23.876
				c-1.162,5.808,2.71,12.646,9.292,12.261c4.646-0.258,8.521-1.419,12.648-3.613c1.936-1.161,3.742-2.71,5.549-4.13
				c1.419-1.162,3.614-1.678,0-1.291c-3.227-3.227-6.453-6.453-9.679-9.68c0,9.034,0,25.296,11.616,27.491
				c6.063,1.16,12.261-2.581,12.261-9.293c0-9.034,0-18.068,0-27.232C532.783,409.265,513.423,409.265,513.423,421.654
				L513.423,421.654z"/>
		</g>
		<g opacity="0.1">
			<path d="M713.601,802.777c-41.3-17.813-82.083-39.105-126.867-46.723c-22.328-3.872-45.688-3.872-66.854,5.163
				c-22.845,9.811-37.558,29.558-46.979,51.883c-2.065,4.904,2.192,10.584,6.711,11.874c5.549,1.551,9.938-1.936,11.874-6.711
				c37.299-89.184,152.938-24.264,212.179,1.291c4.904,2.064,10.326,1.551,13.293-3.483
				C719.538,811.941,718.505,804.843,713.601,802.777L713.601,802.777z"/>
		</g>
		<g opacity="0.1">
			<path d="M532.783,131.521c-14.068,29.814-24.135,61.176-26.329,94.216c-1.807,26.716,2.71,53.82,12.39,78.729
				c20.265,52.144,60.272,93.7,99.379,132.29c24.78,24.396,50.334,48.271,74.471,73.438c8.646,9.033,22.327-4.646,13.681-13.683
				c-41.301-42.978-87.118-81.695-125.321-127.385c-33.813-40.396-58.078-87.634-55.497-141.453
				c1.419-29.943,11.229-59.24,23.876-86.085C554.854,130.101,538.075,120.163,532.783,131.521L532.783,131.521z"/>
		</g>
		<g opacity="0.1">
			<path d="M509.165,338.28c18.198,45.688,32.266,92.926,45.301,140.421c5.938-2.453,11.745-5.034,17.684-7.486
				c-30.459-61.176-48.271-130.354-39.494-198.887c1.292-10.454-13.164-11.874-18.068-4.904
				c-21.167,30.846-27.361,66.599-34.847,102.349c-3.485,17.035-8.777,33.04-14.585,49.431c-1.937,5.292-3.872,10.454-6.324,15.487
				c-1.033,2.063-2.065,4.001-3.227,5.937c-0.518,0.903-1.032,1.678-1.679,2.582c-0.129,0.258-2.323,3.226-1.291,1.807
				c-5.292,6.713-9.551,9.163-16.647,13.812c-10.842,7.1-21.424,14.584-31.621,22.586c-21.166,16.647-37.299,36.524-49.173,60.789
				c-27.619,56.271-34.976,133.192,0.775,187.658c6.84,10.322,23.618,0.645,16.778-9.811
				c-29.813-45.302-25.167-106.604-6.453-155.264c9.164-24.006,23.619-46.463,43.236-63.111c9.809-8.39,20.65-15.875,31.363-22.973
				c7.356-4.904,14.844-9.552,21.297-15.488c7.227-6.841,12.131-15.746,16.004-24.78c6.84-15.875,12.646-32.522,16.905-49.302
				c9.812-38.59,12.907-78.212,36.14-112.026c-6.066-1.678-12.003-3.227-18.068-4.904c-9.292,71.758,10.325,144.68,42.074,208.695
				c5.033,10.064,20.521,2.968,17.682-7.486c-12.907-47.495-27.104-94.604-45.301-140.42c-1.938-4.904-6.453-8.26-11.873-6.711
				C511.229,327.567,507.229,333.246,509.165,338.28L509.165,338.28z"/>
		</g>
		<g opacity="0.1">
			<path d="M409.787,457.275c-41.559-0.903-83.504,11.874-106.09,49.044c-20.392,33.813-19.875,76.534-13.938,114.093
				c4.904,30.975,14.842,60.917,27.619,89.438c11.616,25.686,26.071,50.596,44.914,71.762c8.26,9.422,21.941-4.391,13.68-13.682
				c-24.263-27.361-42.333-64.017-54.335-99.638c-12.519-37.042-20.65-79.245-13.681-117.062c4-21.939,12.648-40.396,29.426-54.724
				c18.843-15.874,46.979-20.392,72.533-19.876C422.305,476.894,422.305,457.534,409.787,457.275L409.787,457.275z"/>
		</g>
		<g opacity="0.1">
			<path d="M384.619,521.033c-35.622,8.26-54.078,48.012-64.919,79.244c-14.971,43.494-20.65,90.988-20.779,136.808
				c-0.129,23.876,1.548,48.011,6.324,71.501c3.485,17.682,9.163,36.009,20.779,50.205c3.356,4.131,10.196,3.484,13.681,0
				c4.001-4.001,3.355-9.551,0-13.681c-1.549-1.809,1.29,1.679-0.258-0.261c-0.387-0.645-0.904-1.158-1.291-1.807
				c-0.903-1.29-1.678-2.581-2.452-3.871c-0.774-1.42-1.549-2.84-2.323-4.389c-0.903-1.938-1.678-3.742-1.807-4.13
				c-3.098-7.743-5.292-15.875-7.098-24.006c-4.388-19.746-5.808-39.622-6.195-60.017c-0.903-45.43,4.388-91.764,18.069-135.129
				c5.42-17.294,12.39-33.813,22.973-48.914c7.744-10.971,18.069-20.006,30.33-22.845
				C401.913,536.908,396.751,518.193,384.619,521.033L384.619,521.033z"/>
		</g>
		<g opacity="0.1">
			<path d="M287.305,564.011c-19.359,48.015-19.23,100.024,1.162,147.648c20.004,46.592,59.111,83.504,102.863,107.896
				c10.97,6.064,20.65-10.713,9.809-16.777c-41.042-22.716-75.76-56.145-95.248-99.249c-19.36-42.851-17.295-91.248,0-134.354
				c1.936-4.904-2.065-10.583-6.711-11.875C293.629,555.751,289.241,559.106,287.305,564.011L287.305,564.011z"/>
		</g>
		<g opacity="0.1">
			<path d="M502.454,236.062c-0.259,2.194-0.518,4.388-0.775,6.453c0.519-3.485,0.903-6.84,1.42-10.325
				c-10.971,81.568-42.591,168.427-12.776,249.608c7.228,19.747,25.94,33.04,47.625,27.104
				c19.102-5.291,34.331-27.748,27.103-47.623c-4.258-11.487-7.098-23.36-8.774-35.493c0.516,3.483,0.901,6.841,1.419,10.326
				c-3.356-25.686-1.809-51.625,1.548-77.182c-0.518,3.485-0.902,6.841-1.419,10.325c6.064-44.656,16.908-88.408,22.199-133.064
				c1.16-9.551-4.775-20.909-11.357-27.361c-7.227-7.228-17.165-11.358-27.361-11.358c-10.194,0-20.134,4.13-27.359,11.358
				C505.81,216.573,503.744,225.35,502.454,236.062L502.454,236.062z"/>
		</g>
		<g opacity="0.1">
			<path d="M619.514,496.898c-56.659-25.428-122.737-39.364-182.495-15.229c-27.23,11.1-51.752,26.974-71.759,48.785
				c-21.295,23.489-17.036,51.755-28.91,81.052c14.526,34.172-37.558,60.273-39.494,92.022
				c-1.807,29.556,2.323,60.144,16.649,86.343c14.971,27.49,42.462,45.172,71.888,53.82c32.782,9.68,71.889,10.971,104.025-1.42
				c35.879-13.813,63.886-40.526,98.475-56.659c19.104-8.905,23.748-36.009,13.939-52.915c-5.034-8.648-13.423-15.104-23.104-17.813
				c-10.712-2.968-20.005-0.646-29.813,3.872c-16.133,7.614-31.104,17.166-45.688,27.232c-13.035,9.034-26.07,18.066-40.654,24.393
				c3.098-1.291,6.193-2.581,9.292-3.872c-8.905,3.743-18.198,6.195-27.748,7.614c3.483-0.516,6.84-0.902,10.325-1.419
				c-12.392,1.549-24.78,1.032-37.17-0.516c3.484,0.516,6.84,0.9,10.325,1.419c-11.745-1.68-23.103-4.261-34.073-8.906
				c3.098,1.292,6.195,2.582,9.293,3.873c-4.259-1.809-8.26-4-12.132-6.324c-2.968-1.807-10.196-7.486,1.549,1.549
				c-1.937-1.549-3.872-3.227-5.679-5.033c-1.548-1.42-2.839-2.969-4.259-4.518c-3.872-4.518,6.454,8.646,2.969,4.001
				c-0.774-1.032-1.419-2.064-2.065-3.097c-2.582-3.873-4.646-8.003-6.453-12.135c1.291,3.1,2.581,6.195,3.872,9.295
				c-3.227-8.004-5.292-16.264-6.453-24.78c0.516,3.483,0.903,6.841,1.419,10.324c-2.323-17.812-1.419-35.751,0.774-53.433
				c-0.516,3.483-0.903,6.839-1.42,10.324c3.872-23.361,9.938-46.463,19.102-68.274c-1.291,3.099-2.582,6.195-3.872,9.292
				c4.518-10.711,9.809-20.906,15.875-30.846c2.84-4.646,6.066-9.293,9.293-13.682c3.872-5.161-6.453,8.133-2.452,3.099
				c0.903-1.161,1.807-2.323,2.839-3.354c1.807-2.194,3.743-4.39,5.808-6.582c3.483-3.872,7.355-7.485,11.229-11.102
				c1.809-1.549,3.614-3.098,5.421-4.646c2.323-1.938,7.356-5.679-3.354,2.582c1.162-0.904,2.192-1.68,3.354-2.452
				c8.647-6.194,18.069-11.487,28.007-15.616c-3.098,1.291-6.194,2.581-9.291,3.871c12.39-5.162,25.297-8.52,38.461-10.324
				c-3.485,0.518-6.841,0.903-10.325,1.42c15.357-1.938,30.975-1.679,46.334,0.388c-3.485-0.518-6.84-0.902-10.325-1.42
				c21.296,2.97,41.946,9.293,61.821,17.554c-3.099-1.291-6.195-2.582-9.293-3.872c2.451,1.031,4.902,2.063,7.228,3.227
				c9.938,4.39,18.973,6.841,29.814,3.872c9.68-2.71,18.067-9.164,23.102-17.811C643.262,533.164,638.874,505.545,619.514,496.898
				L619.514,496.898z"/>
		</g>
		<g opacity="0.1">
			<path d="M544.271,767.543c28.651,14.456,54.207,33.428,80.793,51.367c26.717,18.07,55.885,33.17,87.635,39.752
				c18.585,3.872,37.557,4.775,56.271,6.195c16.261,1.291,32.524,2.449,48.785,3.227c35.492,1.678,71.244,1.032,106.22-5.809
				c13.938-2.709,26.848-7.615,39.751-13.422c19.23-8.647,23.618-36.27,13.939-52.916c-5.162-8.521-13.553-14.973-23.232-17.555
				c-10.841-2.968-19.875-0.516-29.813,3.871c-0.904,0.389-1.938,0.904-2.969,1.291c3.098-1.291,6.193-2.58,9.293-3.871
				c-13.423,5.55-27.748,8.646-42.074,10.583c3.483-0.517,6.84-0.901,10.324-1.421c-27.619,3.615-55.627,3.229-83.504,1.938
				c-26.847-1.291-54.206-2.712-80.923-6.066c3.484,0.518,6.842,0.903,10.324,1.42c-15.485-2.195-30.588-6.195-45.043-12.262
				c3.1,1.291,6.195,2.582,9.292,3.873c-21.424-9.164-40.653-22.328-59.756-35.623c-21.424-14.972-42.849-29.556-66.21-41.299
				c-18.843-9.553-41.814-5.163-52.915,13.938C520.264,731.922,525.427,758.121,544.271,767.543L544.271,767.543z"/>
		</g>
		<g opacity="0.1">
			<path d="M585.312,128.552c2.065,12.261,3.872,24.651,5.551,36.912c-0.518-3.485-0.903-6.841-1.419-10.325
				c17.036,126.74,22.845,266,113.315,366.023c7.356,8.26,15.487,15.875,23.877,22.973c16.133,13.684,38.979,15.875,54.724,0
				c13.938-13.938,16.133-41.171,0-54.723c-8.001-6.711-15.616-13.939-22.716-21.682c-3.742-4.003-7.228-8.133-10.584-12.264
				c-6.193-7.614,4.519,5.938,0.518,0.775c-1.809-2.324-3.485-4.776-5.292-7.229c-12.392-17.423-22.328-36.523-30.717-56.142
				c1.291,3.098,2.582,6.195,3.873,9.292c-21.941-52.141-31.75-108.283-39.235-163.91c0.516,3.485,0.903,6.84,1.419,10.325
				c-6.324-46.85-10.971-93.958-18.585-140.55c-3.484-20.908-28.91-32.137-47.624-27.104c-9.68,2.71-18.069,9.164-23.104,17.811
				C583.505,108.418,583.505,117.84,585.312,128.552L585.312,128.552z"/>
		</g>
		<g opacity="0.1">
			<path d="M676.817,113.581c-25.813,32.524-46.594,67.887-58.078,108.155c-10.455,36.654-10.972,74.082-5.81,111.51
				c9.681,70.082,49.563,134.097,96.41,185.465c11.101,12.26,23.104,23.746,35.364,34.588c15.746,13.938,39.105,15.616,54.723,0
				c14.197-14.197,15.875-40.784,0-54.723c-10.841-9.551-21.295-19.618-31.231-30.072c-4.647-4.904-9.293-10.064-13.682-15.229
				c-2.193-2.582-4.389-5.163-6.581-7.745c-1.291-1.549-2.582-3.099-3.873-4.775c-4.775-6.064,5.809,7.615,1.031,1.419
				c-17.165-22.457-31.878-46.979-42.978-73.05c1.29,3.098,2.581,6.196,3.872,9.293c-9.164-21.683-15.617-44.269-18.844-67.5
				c0.517,3.484,0.902,6.84,1.42,10.325c-2.452-19.488-2.582-39.106-0.131-58.594c-0.516,3.484-0.901,6.84-1.418,10.325
				c2.709-19.747,8-38.848,15.615-57.304c-1.29,3.098-2.581,6.195-3.872,9.293c4.39-10.454,9.55-20.65,15.229-30.459
				c2.969-5.163,6.194-10.196,9.551-15.101c1.678-2.581,3.484-5.033,5.292-7.486c0.903-1.291,1.808-2.452,2.839-3.743
				c5.034-6.84-5.549,7.099-0.257,0.387c6.711-8.389,11.355-16.133,11.355-27.361c0-10.196-4.129-20.134-11.355-27.361
				C717.989,99.9,689.981,96.932,676.817,113.581L676.817,113.581z"/>
		</g>
		<g opacity="0.1">
			<path d="M764.839,601.439c-9.163-21.166-29.426-37.301-48.141-49.563c-21.813-14.455-46.592-24.651-70.984-33.813
				c-40.525-15.358-83.117-26.847-125.836-33.943c-10.712-1.807-20.134-1.807-29.814,3.871c-8.646,5.033-15.1,13.423-17.81,23.104
				c-5.163,18.713,6.194,44.141,27.104,47.624c48.526,8.131,97.056,21.556,142.354,40.525c-3.098-1.291-6.195-2.581-9.292-3.872
				c16.907,7.099-5.937-6.582,9.292,3.872c-1.35,18.437,11.923,5.493,13.342,6.525c2.968,2.191,31.701,19.417,25.507,14.642
				c1.031,0.774-39.882-21.941-38.849-21.167c3.099,2.581,8.306-14.544,11.146-11.704c1.031,1.033,34.046,13.188,34.948,14.35
				c3.099,3.613,0,0,5.033,7.229c1.937,2.84,14.87,8.783,16.291,11.881c3.743,8.648,17.516,13.271,26.162,15.723
				c9.938,2.711,6.702,22.799,15.605,17.637c8.647-5.033,15.102-13.423,17.812-23.104
				C771.679,620.283,769.098,611.377,764.839,601.439L764.839,601.439z"/>
		</g>
		<g opacity="0.1">
			<path d="M870.283,147.137c-12.906-9.938-2.193-1.548,0.772,1.162c2.581,2.323,5.033,4.775,7.485,7.356
				c2.452,2.581,4.776,5.292,7.1,8.131c0.518,0.645,1.032,1.291,1.55,1.936c3.611,4.517-6.582-8.647-3.1-4.001
				c1.291,1.678,2.452,3.356,3.614,5.034c9.68,13.81,17.553,28.781,24.135,44.269c-1.291-3.098-2.582-6.195-3.872-9.292
				c12.133,28.91,20.005,59.498,24.267,90.473c-0.52-3.485-0.904-6.84-1.421-10.325c4.388,32.266,4.903,65.048,0.646,97.442
				c0.517-3.485,0.904-6.84,1.42-10.325c-3.098,22.328-8.389,44.269-17.165,65.177c1.29-3.097,2.581-6.195,3.872-9.292
				c-5.68,13.164-12.647,25.813-21.295,37.171c9.55-12.52,1.419-2.063-1.162,0.902c-2.453,2.84-5.163,5.421-7.873,8.003
				c-2.453,2.322-4.903,4.389-7.485,6.453c12.392-9.938,1.162-1.033-2.321,1.161c-17.685,11.485-24.91,34.202-13.939,52.915
				c10.324,17.553,35.234,25.426,52.916,13.938c94.476-61.176,103.896-192.82,85.313-293.36
				c-6.194-33.556-17.294-66.08-32.523-96.539c-14.842-29.814-35.492-55.239-61.821-75.502c-7.741-5.937-20.907-6.324-29.813-3.872
				c-9.681,2.71-18.068,9.164-23.104,17.811c-5.291,8.906-6.711,19.876-3.871,29.814
				C855.44,134.748,861.896,140.684,870.283,147.137L870.283,147.137z"/>
		</g>
		<g opacity="0.1">
			<path d="M1006.445,210.12c9.034,21.94,15.745,44.655,19.102,68.145c-0.518-3.485-0.904-6.84-1.42-10.325
				c2.969,21.94,2.839,44.01,0,65.822c0.516-3.483,0.903-6.841,1.42-10.325c-5.163,38.073-18.328,74.213-32.524,109.574
				c-15.875,39.364-32.78,78.084-45.431,118.609c-6.323,20.134,7.229,42.203,27.104,47.624c20.908,5.679,41.3-6.97,47.625-27.104
				c18.972-60.788,48.785-117.705,67.109-178.623c9.293-30.976,14.845-63.628,14.588-96.021
				c-0.262-37.041-8.648-73.953-22.718-108.155c-4.001-9.809-8.261-17.552-17.812-23.102c-8.904-5.292-19.875-6.711-29.813-3.872
				c-9.68,2.71-18.067,9.163-23.103,17.811C1005.671,188.308,1002.701,201.085,1006.445,210.12L1006.445,210.12z"/>
		</g>
		<g opacity="0.2">
			<path d="M962.176,145.589c2.711,2.452,5.291,5.162,7.744,8.001c0.903,1.033,3.099,4.001-0.646-0.903
				c0.646,0.774,1.162,1.549,1.678,2.323c1.291,1.807,2.581,3.743,3.743,5.808c2.191,3.485,4.001,7.099,5.809,10.841
				c0.517,0.903,0.902,1.936,1.289,2.839c1.678,3.614-1.807-4.388-0.257-0.645c0.902,2.323,1.806,4.775,2.71,7.227
				c3.227,9.293,5.55,18.843,7.354,28.523c0.519,2.452,0.903,4.904,1.291,7.485c0.261,1.291,0.39,2.582,0.518,3.743
				c0.646,4.518-0.646-4.646,0,0c0.775,5.679,1.291,11.487,1.678,17.294c1.938,24.135,1.421,48.27-0.129,72.405
				c-0.903,12.775-2.064,25.554-3.613,38.331c-0.388,3.098-0.772,6.194-1.162,9.293c-0.646,5.292,0.519-4.261-0.129,1.033
				c-0.258,1.548-0.387,3.097-0.646,4.646c-0.903,6.711-2.064,13.422-3.099,20.134c-6.97,41.946-16.776,83.504-29.556,124.159
				c-5.291,16.648-11.1,33.17-17.811,49.302c2.581-6.064,0-0.13-0.52,1.291c-0.645,1.549-1.419,3.099-2.063,4.646
				c-1.419,3.227-2.97,6.324-4.52,9.552c-2.709,5.42-5.678,10.712-8.902,15.745c-5.681,8.905-1.809,21.295,6.969,26.458
				c9.422,5.55,20.778,1.937,26.459-6.97c9.163-14.197,15.745-29.942,22.067-45.561c7.873-19.619,14.584-39.623,20.521-59.886
				c14.584-49.817,24.78-100.798,30.976-152.294c5.291-43.624,7.743-88.409,1.938-132.032
				c-4.774-35.75-14.583-74.856-42.333-100.153c-7.872-7.099-19.617-7.744-27.361,0C955.078,125.326,954.432,138.49,962.176,145.589
				L962.176,145.589z"/>
		</g>
		<g opacity="0.2">
			<path d="M958.304,594.341c1.292-5.808,2.84-11.356,4.776-16.907c0.387-1.031,0.772-2.063,1.162-3.098
				c0.258-0.645,2.321-5.678,0.516-1.42c1.161-2.839,2.581-5.679,4-8.389c2.453-4.775,5.421-9.293,8.521-13.554
				c1.289-1.678,1.159-1.548-0.52,0.519c0.904-1.033,1.809-2.194,2.711-3.229c1.809-2.063,3.613-4.131,5.55-6.064
				c3.1-3.229,6.453-6.195,9.938-9.035c0.646-0.516,1.42-1.16,2.063-1.678c3.613-2.838-3.354,2.582,0.26-0.257
				c2.063-1.552,4.26-3.101,6.453-4.647c8.002-5.42,16.391-10.324,24.778-15.1c17.423-9.811,34.589-19.488,50.206-32.009
				c17.424-13.938,29.686-32.267,37.944-52.915c-12.391-3.485-24.909-6.842-37.3-10.325c-1.938,5.679-2.452,6.97-5.938,13.165
				c-1.548,2.709-3.227,5.162-5.032,7.613c1.161-1.549,1.161-1.549-0.259,0.26c-1.161,1.291-2.323,2.581-3.482,3.872
				c-1.55,1.678-3.355,3.098-5.033,4.517c3.098-2.582-3.229,1.936-4.26,2.581c-0.903,0.516-1.938,1.033-2.841,1.549
				c-4.773,2.452,3.614-1.291-1.42,0.646c-2.58,0.901-5.162,1.678-7.873,2.193c7.229,2.968,14.586,5.938,21.813,8.905
				c-4.131-6.066-8.003-12.261-11.745-18.586c-1.678-2.968-3.227-5.938-4.775-8.905c-0.772-1.419-1.42-2.968-2.063-4.389
				c1.937,4.259-0.518-1.806-0.904-2.709c-0.517-1.549-2.191-10.455-1.549-4.647c-0.129-1.29-0.129-2.71-0.129-4
				c0-0.902,0.129-1.678,0.129-2.582c-0.387,2.971-0.387,3.485,0,1.419c1.032-4.258-2.063,3.873-0.129,0
				c0.388-0.772,0.904-1.548,1.42-2.192c-1.678,2.192-1.807,2.452-0.387,0.772c3.227-3.354-3.484,2.195,0.771-0.645
				c0.646-0.388,6.453-3.229,3.229-1.938c-7.229-2.968-14.584-5.937-21.813-8.903c7.871,12.002,11.356,22.973,13.682,37.942
				c-0.129-1.549-0.129-1.161,0.129,1.291c0.258,2.194,0.388,4.261,0.646,6.453c0.259,3.614,0.518,7.229,0.646,10.841
				c0.387,8.132,0.259,16.136,0.259,24.267c0,8.646,5.938,16.391,14.196,18.714c9.293,2.581,22.198-3.1,23.877-13.551
				c4.646-29.559,2.709-62.34-15.488-87.376c-5.549,9.679-11.099,19.357-16.776,29.168c7.228,0,14.324,0.387,21.554,1.159
				c5.421,0.519-4.13-0.645,1.032,0.131c1.42,0.258,2.97,0.516,4.389,0.772c2.71,0.517,5.292,1.162,8.001,1.808
				c2.323,0.646,4.646,1.42,6.971,2.322c4,1.419-4.131-1.936-0.517-0.258c1.031,0.388,1.937,0.903,2.84,1.42
				c1.806,0.903,3.482,1.937,5.031,3.097c2.971,2.065-3.741-3.097-1.03-0.772c0.645,0.516,1.29,1.162,1.936,1.807
				c1.291,1.29,4.904,6.194,0.646,0.389c0.9,1.291,1.678,2.581,2.321,4c1.42,2.84-1.937-4.904-0.773-1.937
				c0.258,0.646,0.517,1.419,0.646,2.064c0.259,0.646,0.388,1.42,0.518,2.193c0.646,3.229-0.646-5.55-0.26-2.193
				c0.13,1.42,0.13,2.968,0.13,4.388c-0.13,5.679,0.903-4.388,0.13,0.129c-0.26,1.549-0.646,2.969-1.161,4.518
				c-0.519,1.68-2.969,7.357,0,0.646c-1.291,3.097-2.969,5.938-4.776,8.647c-0.901,1.42-4.903,6.451-0.516,0.9
				c-1.033,1.421-2.193,2.711-3.355,4.002c-2.321,2.58-5.032,5.033-7.743,7.229c-2.709,2.192,4.002-2.972,1.161-0.903
				c-0.645,0.516-1.42,1.032-2.193,1.549c-1.419,1.032-2.968,1.938-4.388,2.84c-1.55,0.902-2.97,1.68-4.519,2.451
				c-5.291,2.582,3.483-1.291-0.904,0.387c-3.097,1.162-6.322,1.938-9.55,2.582c7.355-1.291,1.549-0.259-0.388-0.129
				c-1.55,0-3.1,0-4.775-0.13c-3.354-0.257,5.422,0.903,2.063,0.259c-0.772-0.129-1.548-0.387-2.321-0.516
				c-1.808-0.389-7.229-2.84-0.517,0.129c1.29,10.195,2.581,20.262,3.87,30.458c2.97-2.581,5.811-4.646,11.357-7.872
				c2.582-1.55,5.421-2.84,8.132-4.131c-1.808,0.775-1.679,0.775,0.388-0.129c1.679-0.646,3.484-1.162,5.162-1.678
				c2.84-0.903,5.808-1.551,8.776-2.194c1.161-0.257,2.322-0.516,3.611-0.646c5.81-1.03-3.87,0.391,2.065-0.258
				c6.063-0.645,12.261-0.516,18.326-0.129c1.291,0.129,2.453,0.258,3.613,0.387c-4.26-0.387,1.808,0.261,2.194,0.389
				c3.099,0.518,6.063,1.162,9.163,1.937c3.097,0.774,6.064,1.681,9.033,2.711c1.162,0.389,2.323,0.774,3.614,1.29
				c0.128,0,5.808,2.452,2.451,0.903c5.809,2.581,11.357,5.55,16.778,8.906c2.71,1.678,5.291,3.481,7.872,5.42
				c-1.42-1.161-1.162-0.903,0.646,0.517c1.548,1.162,2.968,2.453,4.388,3.742c7.874,6.971,19.489,7.874,27.36,0
				c7.101-7.098,8.004-20.391,0-27.361c-48.141-42.072-121.706-53.173-172.299-9.031c-8.774,7.612-7.228,25.554,3.872,30.458
				c35.233,15.486,74.211-6.065,92.796-37.17c9.81-16.394,12.262-35.622,4.39-53.176c-8.646-19.229-30.718-29.04-50.205-32.909
				c-12.263-2.452-24.779-3.356-37.299-3.356c-13.554,0-25.557,16.908-16.779,29.168c12.133,16.778,14.843,37.428,11.616,57.563
				c12.646,1.678,25.296,3.482,38.072,5.16c0-34.59-1.291-70.339-20.778-100.28c-4.39-6.711-13.681-12.132-21.813-8.905
				c-11.356,4.517-20.521,10.196-27.491,20.65c-6.322,9.551-6.711,21.553-5.033,32.395c3.1,19.101,14.843,36.525,25.427,52.399
				c5.032,7.612,12.905,10.841,21.813,8.904c32.007-6.841,53.174-33.687,63.369-63.37c3.483-9.938-3.872-21.167-13.552-23.877
				c-10.971-2.968-19.876,3.743-23.878,13.554c-0.773,2.063-0.773,1.937,0.259-0.389c-0.516,1.291-1.161,2.71-1.807,4.001
				c-1.032,2.194-2.193,4.261-3.355,6.324c-1.161,2.065-2.452,4.001-3.612,5.81c-0.774,1.16-1.551,2.193-2.323,3.354
				c-2.71,3.743,2.711-3.354-0.259,0.258c-2.969,3.742-6.323,7.229-9.81,10.454c-1.549,1.42-3.229,2.84-4.903,4.259
				c-1.032,0.774-1.937,1.68-2.97,2.452c-3.483,2.84,3.484-2.582-0.129,0.129c-14.973,11.229-31.879,19.618-48.012,29.039
				c-17.554,10.067-34.591,21.686-48.398,36.654c-16.777,18.326-27.618,41.042-33.039,65.177
				c-2.323,10.325,2.968,20.909,13.551,23.876C944.365,610.604,955.979,604.666,958.304,594.341L958.304,594.341z"/>
		</g>
		<g opacity="0.2">
			<path d="M999.217,805.23c3.744-2.582,7.744-4.776,12.004-6.713c-4.773,2.193,2.581-0.902,3.742-1.292
				c2.969-1.03,6.066-1.807,9.035-2.579c2.581-0.646,5.291-1.161,8.002-1.68c1.032-0.129,2.193-0.387,3.226-0.516
				c5.552-0.904-4.13,0.516,1.549-0.13c6.325-0.646,12.648-0.903,18.846-0.903c5.808,0,11.484,0.517,17.294,1.162
				c-2.322-0.388-2.322-0.388,0,0c1.678,0.258,3.354,0.516,5.032,0.903c3.228,0.646,6.582,1.419,9.81,2.192
				c2.582,0.646,5.163,1.548,7.744,2.451c1.549,0.518,2.969,1.033,4.389,1.678c-4.389-1.678,0.387,0.26,1.032,0.52
				c2.193,1.029,4.388,2.32,6.583,3.611c1.29,0.773,2.452,1.551,3.613,2.323c4,2.71-3.1-2.581,0.517,0.388
				c8.131,6.713,19.358,8.004,27.361,0c6.97-6.971,8.13-20.648,0-27.359c-22.328-18.715-51.239-25.427-79.892-26.588
				c-26.459-1.032-57.176,3.483-79.375,18.973c-8.646,6.066-12.646,16.777-6.969,26.457
				C977.793,806.779,990.57,811.295,999.217,805.23L999.217,805.23z"/>
		</g>
		<g opacity="0.2">
			<path d="M533.3,824.719c0-0.902,0-1.807,0.128-2.711c0.258-4.518-0.901,4.389,0.129,0.129c0.13-0.772,0.39-1.549,0.646-2.32
				c1.162-4.003-2.064,4.129-0.128,0.516c2.452-4.646-2.71,2.453,0.772-1.161c3.484-3.743-3.228,1.808,1.161-1.032
				c1.291-0.773,7.229-3.227,1.548-1.031c1.809-0.773,3.873-1.291,5.81-1.68c1.42-0.387,8.518-1.291,2.453-0.516
				c2.191-0.258,4.517-0.387,6.71-0.387c4.774-0.131,9.422,0.129,14.066,0.645c0.903,0.129,1.938,0.258,2.839,0.387
				c-5.291-0.645-0.387,0,0.646,0.131c2.452,0.388,4.776,0.902,7.099,1.291c4.646,0.902,9.164,2.192,13.682,3.483
				c2.063,0.646,4.259,1.419,6.323,2.064c1.29,0.388,8.002,3.227,2.323,0.772c9.681,4.13,20.65,2.97,26.458-6.97
				c4.776-8.261,2.839-22.327-6.969-26.458c-22.457-9.422-47.367-15.746-71.888-13.809c-13.683,1.158-26.458,4.772-37.172,13.68
				c-10.453,8.518-14.972,21.812-15.229,34.977c-0.129,10.583,8.905,19.359,19.359,19.359
				C524.652,844.078,533.171,835.302,533.3,824.719L533.3,824.719z"/>
		</g>
		<g opacity="0.2">
			<path d="M568.275,794.26c7.484-0.258,14.972-0.129,22.329,0.518c1.807,0.129,3.483,0.388,5.291,0.518
				c-4.519-0.518,1.291,0.257,1.807,0.257c4.001,0.646,7.874,1.421,11.745,2.323c6.453,1.549,12.775,3.484,19.101,5.68
				c3.1,1.032,6.066,2.322,9.164,3.484c5.034,2.063-3.613-1.549,1.291,0.516c1.938,0.904,3.872,1.81,5.81,2.711
				c24.005,11.357,46.074,26.328,68.918,39.751c24.136,14.067,49.946,26.2,77.566,31.491c32.91,6.195,68.403,4.131,100.669-4.517
				c57.306-15.229,98.217-60.401,147.907-89.827c21.424-12.648,1.938-46.205-19.489-33.428
				c-24.649,14.584-47.106,32.266-70.08,49.43c-10.066,7.486-20.394,14.715-31.232,20.909c-5.292,3.099-10.712,5.808-16.264,8.26
				c-0.646,0.259-5.55,2.323-1.159,0.517c-1.422,0.646-2.97,1.161-4.391,1.68c-3.613,1.291-7.1,2.582-10.842,3.611
				c-6.711,2.065-13.422,3.614-20.393,4.905c-1.809,0.388-3.613,0.646-5.55,0.903c-6.193,1.032,3.871-0.388-2.451,0.387
				c-4.774,0.518-9.422,0.904-14.196,1.291c-8.261,0.518-16.649,0.646-25.039,0.388c-3.612-0.13-7.099-0.388-10.712-0.772
				c-5.809-0.646,4.001,0.646-1.678-0.259c-2.194-0.388-4.52-0.774-6.711-1.161c-6.582-1.291-12.906-2.969-19.23-4.905
				c-3.097-1.032-6.195-2.063-9.164-3.227c-1.549-0.518-2.968-1.161-4.518-1.809c-2.064-0.901-1.938-0.772,0.129,0.13
				c-1.032-0.388-1.936-0.902-2.968-1.29c-12.132-5.292-23.748-11.874-35.105-18.586c-22.844-13.552-44.914-28.265-69.178-39.362
				c-29.039-13.165-59.756-20.395-91.764-19.23c-10.583,0.388-19.36,8.52-19.36,19.359
				C548.917,785.226,557.821,794.646,568.275,794.26L568.275,794.26z"/>
		</g>
		<g opacity="0.2">
			<path d="M576.148,149.977c-0.131,36.525-8.133,72.275-9.811,108.542c-1.678,36.396,5.938,71.759,25.813,102.476
				c15.744,24.521,36.652,45.172,55.237,67.5c2.194,2.581,4.259,5.291,6.324,7.872c-2.581-3.355,0.774,1.033,1.033,1.42
				c1.032,1.29,1.936,2.709,2.968,4.13c3.873,5.549,7.485,11.228,10.712,17.165c1.679,2.97,3.097,6.066,4.52,9.164
				c2.321,5.162-1.421-3.614,0.645,1.678c0.646,1.549,1.162,3.229,1.808,4.904c1.161,3.354,2.063,6.711,2.969,10.196
				c0.388,1.808,0.772,3.483,1.162,5.292c0.129,0.645,1.291,8.002,0.772,4c6.453-6.452,12.906-12.906,19.36-19.359
				c4.13,0.516-1.938-0.258-2.195-0.387c-2.452-0.389-4.902-0.903-7.227-1.42c-4.775-1.033-9.553-2.322-14.326-3.613
				c-9.421-2.711-18.584-6.195-27.748-9.68c-17.94-7.101-35.493-15.23-53.69-21.556c-18.067-6.322-37.171-10.454-56.398-10.454
				c-23.104,0-45.431,7.1-65.565,18.069c-9.292,5.033-12.131,17.552-6.969,26.458c5.42,9.293,17.165,12.003,26.458,6.97
				c16.521-9.032,31.491-13.035,49.56-12.775c4.132,0,8.134,0.388,12.134,0.901c-4.52-0.516,2.582,0.519,3.483,0.646
				c2.323,0.387,4.519,0.903,6.84,1.42c9.164,2.063,18.069,5.162,26.847,8.389c17.037,6.324,33.427,13.939,50.335,20.521
				c18.972,7.483,38.203,12.646,58.466,15.229c9.55,1.161,20.65-9.81,19.359-19.358c-4.261-31.878-17.425-58.596-36.912-83.893
				c-8.391-10.712-17.425-20.906-26.33-31.104c-4.519-5.163-9.034-10.325-13.422-15.488c-2.194-2.582-4.39-5.291-6.582-8.002
				c-3.613-4.388,2.323,2.968-1.161-1.548c-1.42-1.809-2.71-3.743-4.13-5.55c-4.002-5.681-7.744-11.486-11.102-17.554
				c-4.13-7.354-6.064-11.874-8.13-18.455c-5.679-17.812-6.711-32.652-6.195-51.753c1.161-37.17,9.81-73.566,9.938-110.737
				C614.996,124.938,576.278,125.067,576.148,149.977L576.148,149.977z"/>
		</g>
		<path fill="none" stroke="#000000" stroke-miterlimit="10" d="M529.686,412.62c8.646-15.488,20.521-35.879,18.068-54.336
			 M568.147,410.425c1.419,8.002-0.774,14.972-6.843,20.395 M613.447,521.291c3.483-15.229,10.584-28.522,9.035-45.301
			 M593.056,451.081c-3.483,13.81-3.744,30.458-4.518,45.301 M554.595,469.279c7.872-11.616,9.811-29.943,20.393-40.784
			 M599.896,505.416c3.229-12.52,0.389-26.07,4.519-38.46 M624.806,559.752c0.518-14.068,13.164-43.107,11.357-63.37"/>
		<path fill="none" d="M978.359,545.541c31.271-25.621,49.02-61.936,90.344-76.5c37.465-13.204,81.264-10.515,116.244,7.012
			c67.782,33.96,50.155,109.192,87.745,165.146c15.144,22.544,30.029,53.655,32.736,82.05c1.747,18.32,2.642,36.655,4.473,54.795
			c1.634,16.181-2.931,22.428-13.209,34.84c-25.536,30.825-61.353,18.156-96.823,10.459c-33.646-7.3-67.336-23.744-100.01-34.799"/>
		<path fill="none" stroke="#020000" stroke-miterlimit="10" d="M1012.459,543.831c32-15.133,54.813-47.179,88.167-59.71
			c24.832-9.328,64.314-12.674,90.828-6.618c14.659,3.348,33.486,14.772,38.946,30.363c4.379,12.506-1.805,27.64,1.356,40.465
			c4.075,16.53,15.483,33.015,21.035,49.423c6.141,18.146,12.654,34.1,16.208,52.902c6.469,34.217,19.767,58.729,38.658,88.247
			c13.661,21.344,17.438,47.456-6.039,63.299c-23.836,16.085-65.365,19.245-93.708,20.629c-17.165,0.839-35.177,1.104-51.526-4.46
			c-12.579-4.281-17.403-11.283-26.928-19.54"/>
	</g>
</g>
<g id="more_wrinkles">
</g>
</svg>
