<?xml version="1.0" encoding="utf-8"?>
<!-- Generator: Adobe Illustrator 16.0.0, SVG Export Plug-In . SVG Version: 6.00 Build 0)  -->
<!DOCTYPE svg PUBLIC "-//W3C//DTD SVG 1.1//EN" "http://www.w3.org/Graphics/SVG/1.1/DTD/svg11.dtd">
<svg version="1.1" xmlns="http://www.w3.org/2000/svg" xmlns:xlink="http://www.w3.org/1999/xlink" x="0px" y="0px" width="1600px"
	 height="900px" viewBox="0 0 1600 900" enable-background="new 0 0 1600 900" xml:space="preserve">
<g id="iris" display="none">
	<g display="inline">
		<path fill="none" stroke="#000000" stroke-width="10" stroke-miterlimit="10" d="M1175.34,491.52
			c0,114.37-63.55,215.421-160.7,276.271c-69.689,11.83-142.449,18.4-214.64,18.4c-72.18,0-144.92-6.57-214.57-18.381
			C488.26,706.96,424.7,605.9,424.7,491.52c0-107.93,56.6-204,144.62-265.62c78.66-17.71,155.86-28.1,220.29-29.01
			c57.15-0.81,148.15,10.3,245.581,32.19C1120.65,290.79,1175.34,385.43,1175.34,491.52z"/>
	</g>
</g>
<g id="whites" display="none">
	<g display="inline">
		<path fill="#FFFFFF" stroke="#000000" stroke-width="10" stroke-miterlimit="10" d="M584.363,768.475
			c-285.43-48.39-519.24-184.779-451.6-317.81c49.29-96.94,246.62-181.61,435.49-224.1c-88.02,61.62-144.62,157.69-144.62,265.62
			C423.633,606.565,487.192,707.625,584.363,768.475z"/>
	</g>
	<g display="inline">
		<path fill="#FFFFFF" stroke="#000000" stroke-width="10" stroke-miterlimit="10" d="M1013.728,768.455
			c97.15-60.85,160.7-161.9,160.7-276.271c0-106.089-54.689-200.729-140.149-262.439c178,39.96,377.43,115.9,430.979,220.92
			C1533.048,583.615,1299.178,720.035,1013.728,768.455z"/>
	</g>
</g>
<g id="pupil">
	<circle stroke="#000000" stroke-width="10" stroke-miterlimit="10" cx="800.02" cy="496.854" r="166.787"/>
</g>
</svg>
