<?xml version="1.0" encoding="utf-8"?>
<!-- Generator: Adobe Illustrator 16.0.0, SVG Export Plug-In . SVG Version: 6.00 Build 0)  -->
<!DOCTYPE svg PUBLIC "-//W3C//DTD SVG 1.1//EN" "http://www.w3.org/Graphics/SVG/1.1/DTD/svg11.dtd">
<svg version="1.1" xmlns="http://www.w3.org/2000/svg" xmlns:xlink="http://www.w3.org/1999/xlink" x="0px" y="0px" width="136.9px"
	 height="128.4px" viewBox="0 0 136.9 128.4" style="enable-background:new 0 0 136.9 128.4;" xml:space="preserve">
<style type="text/css">
<![CDATA[
	.st0{opacity:0.2;fill:none;}
	.st1{opacity:0.2;fill:none;stroke:#8A4720;stroke-miterlimit:10;}
	.st2{fill:none;}
	.st3{opacity:9.999999e-002;fill:none;stroke:#3C2415;stroke-miterlimit:10;}
	.st4{fill:none;stroke:#8A4720;stroke-miterlimit:10;}
]]>
</style>
<g id="iris">
	<image style="overflow:visible;" width="571" height="535" xlink:href="E53833AB.png"  transform="matrix(0.24 0 0 0.24 0 0)">
	</image>
</g>
<g id="Layer_1">
	<path class="st2" d="M63.1,11.2c0,3.5,0,6.9,0,10.4"/>
	<path class="st2" d="M113.5,37.3c-5.3,2.6-12,4.2-18.1,5.2"/>
	<path class="st0" d="M107,58.1c1.8,4.1,5.5,7.6,9,10.4"/>
	<path class="st2" d="M15.3,47.7c6.2-0.5,12.1-1.8,18.1-3.9"/>
	<path class="st2" d="M16.6,72.5c4.7-0.5,9.5-1.7,14.2-2.6"/>
	<path class="st2" d="M21.8,90.7c6.6-4.5,14.5-6.5,19.4-13"/>
	<path class="st2" d="M70.9,88.1c0,6.5,0,13,0,19.5"/>
	<path class="st2" d="M100.5,106.3c-3.6-5.4-7.8-11.5-12.9-15.6"/>
	<path class="st2" d="M112.2,93.3c-3.3-7.7-16.8-6.6-24.5-7.8"/>
	<path class="st2" d="M125.1,75.1c-17,1-34.6-3.5-51.6-3.9"/>
	<path class="st2" d="M112.2,51.6c-7.8,1.9-15.5,3.6-23.2,5.2"/>
	<path class="st2" d="M110.9,36c-9.2,2.8-18.8,12.4-27.1,18.2"/>
	<path class="st2" d="M87.6,26.9c-0.3,7.3-4.3,15.1-7.7,20.8"/>
	<path class="st2" d="M76,11.2c-2.4,10-1.3,21.8-1.3,32.6"/>
	<path class="st2" d="M59.2,16.5c0,6.9-1.1,14.4,1.3,20.8"/>
	<path class="st2" d="M41.2,25.6c2.2,6.2,7.1,11.1,10.3,16.9"/>
	<path class="st2" d="M25.7,29.5c3,5.3,9.7,5.3,15.5,6.5"/>
	<path class="st2" d="M76,94.6c4.8,0.8,8.4,3.2,9,7.8"/>
	<path class="st2" d="M105.7,89.4c-5.6-2-11.4-3.7-16.8-6.5"/>
	<path class="st2" d="M20.5,90.7c12.6-2.5,22.3-11.2,33.6-15.6"/>
	<path class="st2" d="M21.8,33.4c6.4,6,16.2,11.2,24.5,14.3"/>
	<path class="st3" d="M37.3,28.2c6.3,5.4,14.1,12.5,18.1,19.5"/>
	<path class="st4" d="M36,102.4c0.7-10.9,8.7-21.4,15.5-30"/>
	<path class="st4" d="M15.3,77.7c11.7-5.9,25.1-5.9,36.2-13"/>
	<path class="st4" d="M37.3,23c2.5,4.5,4.2,10.2,7.7,14.3"/>
	<path class="st4" d="M98,19.1C99,29,90,37.2,83.8,43.8"/>
	<path class="st4" d="M112.2,46.4c1.1,6.6-4.1,10.1-10.3,9.1"/>
	<path class="st1" d="M112.2,92c-11.4-11-26.1-19-38.7-28.7"/>
	<path class="st4" d="M67,112.8c-0.1-13.7-1.4-27.2-3.9-40.4"/>
	<path class="st4" d="M83.8,103.7c0.6-4,0.2-8.1-1.3-11.7"/>
	<path class="st4" d="M105.7,103.7c-5-14.7-21.7-21.6-32.3-31.3"/>
	<path class="st4" d="M81.2,28.2c-1,10.1-1.4,20.1-3.9,30"/>
	<path class="st4" d="M57.9,17.8c2.1,8.1,6.2,17.3,10.3,24.8"/>
	<path class="st4" d="M30.8,51.6c2.2,0,4.3,0,6.5,0"/>
	<path class="st4" d="M50.2,55.5c-8.6-1.6-15.7-7.4-24.5-9.1"/>
	<path class="st4" d="M23.1,29.5c6.3,3.4,13.5,10,18.1,15.6"/>
	<path class="st4" d="M90.2,45.1c9.9-10.8,3.2-17.2,0-28.7"/>
	<path class="st4" d="M123.8,41.2c-5.4,2.3-11.7,4.4-16.2,8.3c-3.2,2.9-2.1,7.7-7.1,9.9"/>
	<path class="st4" d="M132.8,67.3c-13.1,0-27.2-2.3-40-1.3"/>
	<path class="st4" d="M121.2,89.4c-7.6-2.3-14.7-6.8-21.9-10.4"/>
	<path class="st4" d="M101.8,108.9c-0.3-5.3-2.3-9.8-5.2-14.3"/>
	<path class="st4" d="M77.3,116.8c-1.9-8.2-3-16.2-2.6-24.8"/>
	<path class="st4" d="M47.6,108.9c1.4-3.7,3.3-7.9,5.2-11.7"/>
</g>
<g id="pupil">
	<g>
		<g>
			<path d="M64.7,58.1c-3.6,3.7-7.4,5.6-7.2,11.4c0.1,1.5,1.6,3,3.2,2.4c5-1.9,10.4-7.2,4.3-11.5c-6.6-4.7-13.3,3.2-15.2,8.7
				c-0.3,1,0.2,2.3,1.1,2.8c5.1,2.6,11.4,2.1,15.2-2.6c2.8-3.5,1.1-7.9-3.4-8.5c-0.2,1.6-0.4,3.3-0.7,4.9c5.9,0.1,7.2-4.1,3.4-8.3
				c-1.7-1.9-4.4-0.4-4.8,1.7c-0.4,1.9,0.5,5.9,0.3,6.6c1.4-0.4,2.8-0.7,4.2-1.1c0.1,0.2,0.3,0.5,0.4,0.7c-1.1-3-5.9-1.7-4.8,1.3
				c0,0,0,0.1,0,0.1c0.5,1.3,1.7,2,3.1,1.7c2.5-0.5,7.9-5.8,7.9-8.4c0.1-1.9-2.2-3.2-3.8-2.2c-2.2,1.4-6.3,9.4-3.6,12.1
				c2.6,2.6,7.5-1,10.4-1.3c3.1-0.3,3.3-5,0-5c-1.1,0-2.5-3.2-3-4c-1.2-1.9-2.4-3.6-4.1-4.9c-5.2-4-9.9,4.4-11.6,7.9
				c-0.6,1.2-0.4,2.8,0.9,3.4c7,3.6,13.3,3,19.7-1.6c1.3-1,1.7-2.7,0.5-3.9c-3.7-4-8.8-8.7-14.7-7.3c-4,1-6.3,5.4-7,9.1
				c-0.6,2.8-0.8,7.7,2.4,9.2c4.7,2.2,7.9-4.9,9.3-8.1c0.5-1.2,0.4-2.8-0.9-3.4c-2.8-1.4-6.2-3.7-9.5-3.3c-3.4,0.5-5.4,3.7-7.2,6.3
				c-0.6,0.9-0.4,2.3,0.4,3c3.5,3.1,8.6,7.7,13.7,6.2c3.5-1,4.4-5.1,4-8.3c-0.4-2.9-2-5.7-5.2-6.1c-4.7-0.6-6.5,7.5-7.3,10.5
				c-0.3,1.2,0.4,2.9,1.7,3.1c2.8,0.4,5.6,0.9,8.3,0.3c2.8-0.7,4.8-3.7,6.5-5.8c0.8-1,1.1-2.6,0-3.5c-7.3-6.1-16.1-7.2-21.1,2.1
				c-0.5,1-0.4,2.2,0.4,3c4,3.8,10.8,8,14.8,1.9c2.8-4.4,0.2-11.1-4.4-13c-5.5-2.3-16,1.3-15.1,8.4c0.8,6.9,9.7,11.1,15.9,11.3
				c1.1,0,2.2-0.8,2.4-1.8c0.6-2.6,1.7-5,2.3-7.6c0.6-2.8-3-4.3-4.6-1.9c-1.3,1.9-2.9,3.9-3,6.3c-0.1,2,2.1,4.3,2.6,6.1
				c0.6,1.9,3.6,2.6,4.6,0.6c1.3-2.9,2.4-5.8,3.8-8.7c1.1-2.4-2-5.4-3.9-3c-2.3,2.8-3.6,6-5.4,9c-1.1,1.8,0.4,3.5,2.2,3.8
				c8.8,1.1,16.1-1.1,19.1-10.1c0.9-2.8-3.1-4.3-4.6-1.9c-7.7,12.5-33.8,15.9-32.4-3.9c0.7-10.7,16.1-12.6,24-10.9
				c6.2,1.3,13.1,7.1,14.8,13.4c4.1,14.8-43.5,20-43.3-1.7c0.1-9,7.9-13.6,15.6-16c9.4-2.9,19.4-2.7,26.7,4.4
				c10.3,10.2-1.3,20.4-11.6,22.8c-7.6,1.8-20.1-0.6-24.3-8.1c-2.6-4.7,2.1-9.8,5.5-12.4c5.2-3.9,11.8-5.7,18.2-5.2
				c8,0.5,13.7,6.1,17,13c1.8,3.9,4.2,10.2,0.8,13.9c-2.9,3.1-9,2.6-12.8,2.3c-2.9-0.2-5.8-0.8-8.7-1.4c-3.2-0.7-4.3,3.6-1.3,4.8
				c10.2,4.2,24.7,1.8,31.5-7.7c6.9-9.7,0.2-20.6-8.9-26c-13.3-7.8-47.5-14-52.4,7c-0.7,2.8,3,4.3,4.6,1.9
				c8.5-12.6,23.3-14.1,36.2-7.5c9.2,4.7,21.7,16.6,16.7,28.2C87.6,90.9,68.7,88.8,58,85.6c-6.1-1.8-12.7-5.1-16.6-10.4
				c-4.5-6.1-1.9-12.9,2.7-18.1c-1.4-0.8-2.8-1.6-4.2-2.4c-5.8,26.6,26.9,38.2,47.7,30.2c-0.6-1.5-1.3-3-1.9-4.6
				C69,88.4,54.6,80.2,42,69c-2.2-1.9-5.1,0.5-3.9,3c4.7,10.4,15.7,12.3,25.9,13.7c0.4-1.6,0.9-3.2,1.3-4.8
				c-5.6-0.8-11.1-1.5-16.5-3.5c-0.4,1.6-0.9,3.2-1.3,4.8c1.9,0.5,3.6,1.4,5.3,2.2c3,1.4,5.1-2.4,2.5-4.3c-0.1-0.1-1.1-0.5-1-0.5
				c-2.9-1.4-5.4,2.9-2.5,4.3c-0.1,0,0.9,0.4,1,0.5c0.8-1.4,1.7-2.9,2.5-4.3c-2.1-1-4.3-2.2-6.5-2.7c-3.2-0.8-4.3,3.7-1.3,4.8
				c5.3,2,10.9,2.8,16.5,3.5c3.2,0.4,4.5-4.4,1.3-4.8c-8.8-1.2-18.8-2.2-22.9-11.4c-1.3,1-2.6,2-3.9,3c6.9,6,14.1,11.5,22.9,14.6
				c9,3.2,18.4,1.5,26.8-2.6c2.5-1.2,0.7-5.6-1.9-4.6c-16.7,6.5-46.5-1.1-41.5-24c0.5-2.3-2.4-4.5-4.2-2.4
				c-24.8,28.8,30.8,49.9,51.7,33.7c11.7-9.1,7-24.1-1.7-33.3c-9.9-10.4-26.3-16.5-40.1-11.2c-6,2.3-10.6,6.8-14.2,12
				c1.5,0.6,3,1.3,4.6,1.9c3.8-16.3,31.4-10.3,41.9-5.7c7.1,3.1,15.8,10.6,11.4,19.1c-4.7,9.1-18.5,10.5-26.9,7.1
				c-0.4,1.6-0.9,3.2-1.3,4.8c7.7,1.7,17.4,3.4,24.6-0.8c7.7-4.6,4.5-14.8,1.8-21.3c-5.8-13.7-20.7-18.4-34.2-13.6
				C48.7,49.5,37,59.4,43,70.1c3.5,6.3,12.5,9.4,19.2,10.4c9.3,1.3,19.6-2,25.8-9.1c6.2-7.1,4.4-16-1.5-22.5
				c-6.1-6.7-14.5-8.1-23.1-7.3C49.2,42.8,32.7,51.6,36,68.2c2.1,10.7,14.6,14.4,24,14.9c9.3,0.6,21.6-1.5,27.3-9.8
				c5.2-7.6-1.5-16.1-7.1-21c-9.7-8.5-27.1-7.9-36,1.5c-8.6,8.9-3.9,24.2,7.4,27.6c10.8,3.3,24.4-2.6,30.2-12
				c-1.5-0.6-3-1.3-4.6-1.9c-2.3,6.8-8,7.2-14.3,6.4c0.7,1.3,1.4,2.5,2.2,3.8c1.6-2.7,2.7-5.5,4.7-8c-1.3-1-2.6-2-3.9-3
				c-1.3,2.9-2.4,5.8-3.8,8.7c1.5,0.2,3,0.4,4.6,0.6c-0.5-1.6-1-3-1.8-4.4c-0.9-1.5,0.5-2.5,1.7-4.2c-1.5-0.6-3-1.3-4.6-1.9
				c-0.6,2.6-1.7,5-2.3,7.6c0.8-0.6,1.6-1.2,2.4-1.8c-3.8-0.1-7.3-2-9.8-4.7c-3.6-3.9,3.4-6.1,6.5-5.6c2.3,0.4,3.3,3.1,3,5.2
				c-0.7,4.1-6-0.8-7.3-2c0.1,1,0.3,2,0.4,3C58.1,61,63.1,62,68,66.1c0-1.2,0-2.4,0-3.5c-1.1,1.4-2.2,3.1-3.7,4.2
				c-1.5,1.2-4.7,0.3-6.3,0.1c0.6,1,1.2,2.1,1.7,3.1c0.3-1.3,1.2-6.3,2.6-6.8c-0.7,0.3-0.9-0.6-0.4,0.3c0.3,0.6,0.5,1.3,0.6,1.9
				c0.6,6.2-7.8-1.2-9.2-2.5c0.1,1,0.3,2,0.4,3c0.9-1.3,2.4-4.2,4.3-3.8c1.9,0.4,3.8,1.7,5.6,2.6c-0.3-1.1-0.6-2.3-0.9-3.4
				C61.9,62.8,61,64.4,60,66c-1.3,1.9-1.1,0.3,0.1,1.4C59.7,67,60,64,60.3,62.9c2-8.7,9.4-2.8,13.2,1.3c0.2-1.3,0.3-2.6,0.5-3.9
				c-4.8,3.5-9.2,4.4-14.6,1.6c0.3,1.1,0.6,2.3,0.9,3.4c0.5-1,2.9-6.6,4.5-6.3c1.3,0.2,2.5,3,3.1,3.9c1.6,2.6,3.5,5.9,7,5.9
				c0-1.7,0-3.3,0-5c-2.2,0.2-4.1,0.8-6.2,1.5c-0.4,0.2-0.8,0.3-1.2,0.5c-1.3,0.2-0.9,0.9,1.1,2c0.2-1,1.4-5.1,2-5.5
				c-1.3-0.7-2.5-1.4-3.8-2.2c0.5-1.3,0.5-1.5-0.1-0.7c-0.5,0.6-1,1.1-1.6,1.7c-0.6,0.6-2.5,2.6-2.6,2.6c1,0.6,2.1,1.2,3.1,1.7
				c0,0,0-0.1,0-0.1c-1.6,0.4-3.2,0.9-4.8,1.3c0.2,0.6,0.4,1,0.8,1.5c1.3,1.6,3.6,0.5,4.2-1.1c0.3-0.8,0.1-1.8,0-2.6
				c-0.1-0.7-0.1-1.4-0.2-2.1c-0.1-1.9,0.6-1.7-0.9-1.1c-0.8,0-1.7,0-2.5,0c0.2,0.1,2.4-0.7,1.1-0.5c-0.4,0-0.8,0-1.2,0
				c-2.8,0-3.5,4.5-0.7,4.9c1.6,0.2,1.3,0.3,0.1,1.4c-2.2,2.1-5.6,1.8-8,0.6c0.4,0.9,0.8,1.9,1.1,2.8c1-3,2.8-6.1,6.3-6.2
				c4.1-0.1-0.2,2.3-1.5,2.8c1.1,0.8,2.1,1.6,3.2,2.4c-0.1-3.9,3.4-5.4,5.8-7.9C70.4,59.3,66.9,55.8,64.7,58.1L64.7,58.1z"/>
		</g>
	</g>
	<g>
		<g>
			<path d="M66.1,33.3c-8.6-1.9-16.7-0.7-22.2,6.6c-4.1,5.4-4,13.6-1.5,19.7c3,7.4,8.3,13.1,15.5,16.6c6.5,3.2,14.7,5,20,8
				c0.8-6.1,1.6-12.2,2.4-18.3c-6.5,2.4-16-0.2-17-8.6c-0.7-5.4-4-10-10-10c-5,0-10.7,4.6-10,10c1.3,10.4,5.9,18.3,14.4,24.4
				c7.8,5.6,19.1,6.7,28,3.5c7.8-2.9,10.4-13.7,2.4-18.3c-7.3-4.2-19.3-5.8-24.4-10.7c-0.1-0.1-2.1-2.5-0.9-0.9
				c-0.6-0.8-1-1.6-1.5-2.5c0.9,1.7-0.2-0.9-0.3-1.1c-0.8-2.7,0,1.9-0.1-0.8c-0.1-2.6-0.5,1.9,0.1-0.5c-0.5,2,0.8-0.3-0.6,1.2
				c-0.4,0.5-2.8,1.3-0.8,0.8c-1.4,0.4,0.9,0.3,1.5,0.4C73.3,55.4,78.6,36.1,66.1,33.3L66.1,33.3z"/>
		</g>
	</g>
	<g>
		<g>
			<path d="M69.2,30.3c-14.7-1.6-26.1,7.8-32.8,20.1c-6.2,11.3,11.1,21.4,17.3,10.1c3.9-7.1,7.6-11,15.5-10.2c5.4,0.6,10-5,10-10
				C79.2,34.4,74.6,30.9,69.2,30.3L69.2,30.3z"/>
		</g>
	</g>
</g>
<g id="iris-detail">
</g>
</svg>
