<?xml version="1.0" encoding="utf-8"?>
<!-- Generator: Adobe Illustrator 16.0.0, SVG Export Plug-In . SVG Version: 6.00 Build 0)  -->
<!DOCTYPE svg PUBLIC "-//W3C//DTD SVG 1.1//EN" "http://www.w3.org/Graphics/SVG/1.1/DTD/svg11.dtd">
<svg version="1.1" id="Layer_1" xmlns="http://www.w3.org/2000/svg" xmlns:xlink="http://www.w3.org/1999/xlink" x="0px" y="0px"
	 width="323.8px" height="486.966px" viewBox="0 0 323.8 486.966" enable-background="new 0 0 323.8 486.966" xml:space="preserve">
<path fill="#FFFFFF" stroke="#000000" stroke-width="3" stroke-miterlimit="10" d="M323.3,75.94c0,41.66-72.261,75.44-161.4,75.44
	c-89.14,0-161.4-33.78-161.4-75.44S72.76,0.5,161.9,0.5C251.04,0.5,323.3,34.28,323.3,75.94z M199.408,465.414
	c0,11.627,18.459,21.053,41.229,21.053s41.229-9.426,41.229-21.053 M35.724,465.414c0,11.627,18.459,21.053,41.229,21.053
	s41.229-9.426,41.229-21.053 M35.72,465.41v-94.43 M118.18,465.41v-68.83 M199.41,397.33l-0.002,68.084 M161.9,151.38
	c-89.14,0-161.4-33.78-161.4-75.44v248c0,17.79,13.17,34.14,35.22,47.04c20.8,12.18,49.5,21.27,82.46,25.6
	c13.91,1.82,28.57,2.801,43.72,2.801c12.91,0,25.48-0.71,37.51-2.051c32.351-3.6,60.92-11.75,82.45-22.92
	c25.771-13.37,41.44-31.06,41.44-50.47v-248C323.3,117.6,251.04,151.38,161.9,151.38z M281.86,374.41l0.005,91.004"/>
</svg>
